<?xml version="1.0" encoding="UTF-8"?>
<svg width="93px" height="100px" viewBox="0 0 93 100" version="1.1" xmlns="http://www.w3.org/2000/svg" xmlns:xlink="http://www.w3.org/1999/xlink">
    <!-- Generator: Sketch 64 (93537) - https://sketch.com -->
    <title>Shape</title>
    <desc>Created with Sketch.</desc>
    <g id="Page-1" stroke="none" stroke-width="1" fill="none" fill-rule="evenodd">
        <g id="airbnb" transform="translate(-1.000000, 0.000000)" fill="#FF5A5F" fill-rule="nonzero">
            <path d="M92.5,71 C92,69.8 91.5,68.5 91,67.4 C90.2,65.6 89.4,63.9 88.7,62.3 L88.6,62.2 C81.7,47.2 74.3,32 66.5,17 L66.2,16.4 C65.4,14.9 64.6,13.3 63.8,11.7 C62.8,9.9 61.8,8 60.2,6.2 C57,2.2 52.4,0 47.5,0 C42.5,0 38,2.2 34.7,6 C33.2,7.8 32.1,9.7 31.1,11.5 C30.3,13.1 29.5,14.7 28.7,16.2 L28.4,16.8 C20.7,31.8 13.2,47 6.3,62 L6.2,62.2 C5.5,63.8 4.7,65.5 3.9,67.3 C3.4,68.4 2.9,69.6 2.4,70.9 C1.1,74.6 0.7,78.1 1.2,81.7 C2.3,89.2 7.3,95.5 14.2,98.3 C16.8,99.4 19.5,99.9 22.3,99.9 C23.1,99.9 24.1,99.8 24.9,99.7 C28.2,99.3 31.6,98.2 34.9,96.3 C39,94 42.9,90.7 47.3,85.9 C51.7,90.7 55.7,94 59.7,96.3 C63,98.2 66.4,99.3 69.7,99.7 C70.5,99.8 71.5,99.9 72.3,99.9 C75.1,99.9 77.9,99.4 80.4,98.3 C87.4,95.5 92.3,89.1 93.4,81.7 C94.2,78.2 93.8,74.7 92.5,71 Z M47.4,76.2 C42,69.4 38.5,63 37.3,57.6 C36.8,55.3 36.7,53.3 37,51.5 C37.2,49.9 37.8,48.5 38.6,47.3 C40.5,44.6 43.7,42.9 47.4,42.9 C51.1,42.9 54.4,44.5 56.2,47.3 C57,48.5 57.6,49.9 57.8,51.5 C58.1,53.3 58,55.4 57.5,57.6 C56.3,62.9 52.8,69.3 47.4,76.2 Z M87.3,80.9 C86.6,86.1 83.1,90.6 78.2,92.6 C75.8,93.6 73.2,93.9 70.6,93.6 C68.1,93.3 65.6,92.5 63,91 C59.4,89 55.8,85.9 51.6,81.3 C58.2,73.2 62.2,65.8 63.7,59.2 C64.4,56.1 64.5,53.3 64.2,50.7 C63.8,48.2 62.9,45.9 61.5,43.9 C58.4,39.4 53.2,36.8 47.4,36.8 C41.6,36.8 36.4,39.5 33.3,43.9 C31.9,45.9 31,48.2 30.6,50.7 C30.2,53.3 30.3,56.2 31.1,59.2 C32.6,65.8 36.7,73.3 43.2,81.4 C39.1,86 35.4,89.1 31.8,91.1 C29.2,92.6 26.7,93.4 24.2,93.7 C21.5,94 18.9,93.6 16.6,92.7 C11.7,90.7 8.2,86.2 7.5,81 C7.2,78.5 7.4,76 8.4,73.2 C8.7,72.2 9.2,71.2 9.7,70 C10.4,68.4 11.2,66.7 12,65 L12.1,64.8 C19,49.9 26.4,34.7 34.1,19.9 L34.4,19.3 C35.2,17.8 36,16.2 36.8,14.7 C37.6,13.1 38.5,11.6 39.6,10.3 C41.7,7.9 44.5,6.6 47.6,6.6 C50.7,6.6 53.5,7.9 55.6,10.3 C56.7,11.6 57.6,13.1 58.4,14.7 C59.2,16.2 60,17.8 60.8,19.3 L61.1,19.9 C68.7,34.8 76.1,50 83,64.9 L83,65 C83.8,66.6 84.5,68.4 85.3,70 C85.8,71.2 86.3,72.2 86.6,73.2 C87.4,75.8 87.7,78.3 87.3,80.9 Z" id="Shape"></path>
        </g>
    </g>
</svg>