<svg id="Calque_1" data-name="Calque 1" xmlns="http://www.w3.org/2000/svg" viewBox="0 0 413.46 305.8"><defs><style>.cls-1{fill:#fff}.cls-2{fill:#e1251b}.cls-3{fill:#1d1d1b}</style></defs><path class="cls-1" d="M11 125.94h391.44v169.08H11z"></path><path class="cls-2" d="M215.52 144.83v305.8H629v-305.8zm402.4 125.94v169.08H226.48V270.77z" transform="translate(-215.49 -144.83)"></path><path class="cls-1" d="M273.28 248.44l-3-16.42h-14.04l-2.77 16.42H238.8l13.95-71.11h21.45l13.8 71.11zM258.4 219h9.6l-4.92-27.5zM306.42 222.79v25.65H291v-71.11h23.19q8.41 0 13.13 4t4.72 11.7v13.13q0 12.32-8.41 15.39l11.18 26.89h-16.9l-9.54-25.65zm0-32.33v20.11h6.05a4.32 4.32 0 0 0 3.29-1 5.42 5.42 0 0 0 .92-3.59v-11.6a3.78 3.78 0 0 0-1-3.08 5.09 5.09 0 0 0-3.18-.82zM353.83 222.79v25.65h-15.4v-71.11h23.2q8.4 0 13.13 4t4.72 11.7v13.13q0 12.32-8.42 15.39l11.19 26.89h-16.93l-9.54-25.65zm0-32.33v20.11h6.05a4.29 4.29 0 0 0 3.28-1 5.36 5.36 0 0 0 .93-3.59v-11.6a3.81 3.81 0 0 0-1-3.08 5.09 5.09 0 0 0-3.18-.82zM419.81 190.67h-20.63v15.08H417v13.34h-17.82v16h20.63v13.34h-36v-71.1h36zm-18.68-22.88l-4.21 5.54h-7.49l6.16-11.8h11l6.16 11.8h-7.5zM464.13 177.33v13.34h-12.82v57.77h-15.6v-57.77h-12.83v-13.34zM466.18 194.67q0-8.41 5.44-13.39t16-5q10.56 0 16.06 5t5.49 13.39v36.43q0 8.42-5.49 13.39t-16.06 5q-10.58 0-16-5t-5.44-13.39zm27.6.82q0-5.13-6.1-5.13t-6.11 5.13v34.79q0 5.13 6.11 5.13t6.1-5.13zM543.45 177.33h15.18v71.11h-14.77q-15.2-38.79-17.55-46.79 2.16 8.1 2.16 27.91v18.88h-15.19v-71.11h15.19l9.33 23.8a230.94 230.94 0 0 1 8 23.19q-2.37-9.94-2.36-29.14zM563.25 194q0-8.2 5.54-12.67t16-4.46q10.41 0 15.55 2.15v14.78a36.1 36.1 0 0 0-14.34-2.72c-2.74 0-4.58.43-5.54 1.28a4.63 4.63 0 0 0-1.44 3.64v1.54a7.44 7.44 0 0 0 1 4.26 12.48 12.48 0 0 0 4.26 3.13L596 211.5q8.41 4.62 8.42 13.85v6.36q0 8.31-6.16 12.78T581 249q-11.13 0-16.77-2.36v-14.93a39.78 39.78 0 0 0 15.8 3q8.82 0 8.82-5v-1.54a5.48 5.48 0 0 0-1-3.54 12.84 12.84 0 0 0-3.65-2.62l-11-6q-10-5.53-10-15.59z" transform="translate(-215.49 -144.83)"></path><path class="cls-3" d="M274.62 358.75h15.79l-13.36 70.14H255.9l-13.56-70.14h15.48q5.87 33.51 6.78 40.49t2 16.49q1.92-18.11 3.34-27.12zM293.45 358.75h15.38v70.14h-15.38zM312.88 375.86q0-8.3 5.36-13.21t15.76-4.91q10.43 0 15.84 4.91t5.41 13.21v35.93q0 8.29-5.41 13.2T334 429.9q-10.42 0-15.79-4.91t-5.36-13.2zm27.22.81q0-5.07-6-5.07t-6 5.07V411q0 5.07 6 5.07t6-5.07zM359.33 358.75h15.39v57.39h18.72v12.75h-34.11zM396.48 358.75H432v13.16h-20.34v14.88h17.61v13.15h-17.61v15.79H432v13.16h-35.52zM464.79 358.75h15v70.14h-14.6q-15-38.25-17.3-46.15 2.13 8 2.12 27.53v18.62H435v-70.14h15l9.21 23.48a225.25 225.25 0 0 1 7.9 22.88q-2.34-9.83-2.33-28.75zM483.82 375.35q0-8.1 5.61-12.6t17-4.5a49.89 49.89 0 0 1 12.75 1.41v14a38.3 38.3 0 0 0-11.18-1.75q-5.51 0-7.13 1.26a4.42 4.42 0 0 0-1.62 3.7v34q0 4.86 7.64 4.86a43.57 43.57 0 0 0 12.6-1.52v13.67a50.17 50.17 0 0 1-13.26 1.52q-11.32 0-16.85-4.46t-5.51-12.55zM524.5 358.75H560v13.16h-20.32v14.88h17.61v13.15h-17.61v15.79H560v13.16h-35.5zM562.55 375.15q0-8.1 5.47-12.5t15.74-4.4c6.84 0 12 .7 15.33 2.12V375a35.52 35.52 0 0 0-14.09-2.69c-2.7 0-4.52.43-5.46 1.27a4.54 4.54 0 0 0-1.42 3.59v1.52a7.36 7.36 0 0 0 1 4.2 12.46 12.46 0 0 0 4.2 3.09l11.54 6.47q8.29 4.56 8.3 13.67v6.27q0 8.21-6.07 12.6T580 429.4q-11 0-16.55-2.33v-14.68a39.36 39.36 0 0 0 15.59 2.94q8.7 0 8.71-5v-1.52a5.4 5.4 0 0 0-1-3.49 12.18 12.18 0 0 0-3.59-2.58l-10.83-5.87q-9.81-5.48-9.82-15.39z" transform="translate(-215.49 -144.83)"></path><path class="cls-2" d="M241.75 282.57h14.71v54.87h17.9v12.2h-32.61zM279.2 282.57h34v12.58h-19.49v14.23h16.84V322h-16.84v15.1h19.46v12.58h-34zM317.52 298.25q0-7.74 5.23-11.95t15-4.21q9.82 0 14.67 2v13.94a34 34 0 0 0-13.42-2.49q-3.87 0-5.22 1.21a4.35 4.35 0 0 0-1.36 3.44v1.45a7 7 0 0 0 .92 4 11.85 11.85 0 0 0 4 3l11 6.2q7.94 4.35 7.93 13.06v6q0 7.84-5.8 12.05t-16.31 4.21q-10.5 0-15.82-2.22v-14a37.49 37.49 0 0 0 14.9 2.81q8.32 0 8.33-4.74v-1.45a5.16 5.16 0 0 0-.92-3.34 12 12 0 0 0-3.44-2.47l-10.35-5.61q-9.39-5.24-9.39-14.71z" transform="translate(-215.49 -144.83)"></path></svg>