<svg xmlns="http://www.w3.org/2000/svg" viewBox="0 0 122.32 48"><rect width="69.71" height="22.38" fill="#71dae2"/><path d="M3.2,19.19V3.2H13.81V6.29H6.68V9.54h6.07v3.1H6.68v6.55Z" fill="#fff"/><path d="M24.46,19.19l-1.15-3.81H18l-1.15,3.81H13.3l5.27-16h4.31l5.2,16ZM20.68,6.36h-.12L18.8,12.43h3.67Z" fill="#fff"/><path d="M29.68,19.19V16.41h2.06V6H29.68V3.2h7.61V6H35.22V16.41h2.07v2.78Z" fill="#fff"/><path d="M43.68,19.19H40.2V3.2h7.58a5.3,5.3,0,0,1,2,.36,4.31,4.31,0,0,1,1.52,1.05,4.67,4.67,0,0,1,1,1.61,6,6,0,0,1,.34,2.09,5.47,5.47,0,0,1-.72,2.84,4.13,4.13,0,0,1-2.19,1.76l3.14,6.28H49l-2.8-5.87H43.68Zm3.66-8.8a1.77,1.77,0,0,0,1.23-.4A1.5,1.5,0,0,0,49,8.81v-1a1.5,1.5,0,0,0-.44-1.18,1.82,1.82,0,0,0-1.23-.4H43.68v4.17Z" fill="#fff"/><path d="M55.63,19.19V3.2H66.51V6.29H59.12V9.54h6.34v3.1H59.12v3.45h7.39v3.1Z" fill="#fff"/><rect y="25.62" width="105.52" height="22.38" fill="#e271ad"/><path d="M10,44.8a7.47,7.47,0,0,1-2.83-.5,5.57,5.57,0,0,1-2.15-1.48,6.73,6.73,0,0,1-1.37-2.46,10.81,10.81,0,0,1-.49-3.44,11.18,11.18,0,0,1,.49-3.47,7.1,7.1,0,0,1,1.37-2.54,5.78,5.78,0,0,1,2.15-1.57A7.28,7.28,0,0,1,10,28.81a6.51,6.51,0,0,1,3.55.88,6,6,0,0,1,2.23,2.76L12.92,34a3.42,3.42,0,0,0-1-1.56A2.79,2.79,0,0,0,10,31.8a3.08,3.08,0,0,0-2.38,1,3.94,3.94,0,0,0-.89,2.8v2.48a4,4,0,0,0,.89,2.8,3.1,3.1,0,0,0,2.38,1,2.85,2.85,0,0,0,2-.67,4,4,0,0,0,1.09-1.63l2.75,1.59a6.83,6.83,0,0,1-2.27,2.74A6.17,6.17,0,0,1,10,44.8Z" fill="#fff"/><path d="M24.13,44.8a7.37,7.37,0,0,1-2.79-.51,5.64,5.64,0,0,1-2.15-1.51,7,7,0,0,1-1.37-2.51,11,11,0,0,1-.49-3.46,11.05,11.05,0,0,1,.49-3.47,6.91,6.91,0,0,1,1.37-2.5,5.66,5.66,0,0,1,2.15-1.52,7.89,7.89,0,0,1,5.58,0,5.66,5.66,0,0,1,2.15,1.52,6.91,6.91,0,0,1,1.37,2.5,11.05,11.05,0,0,1,.49,3.47,11,11,0,0,1-.49,3.46,7,7,0,0,1-1.37,2.51,5.64,5.64,0,0,1-2.15,1.51A7.37,7.37,0,0,1,24.13,44.8Zm0-3a3,3,0,0,0,2.38-1A4.28,4.28,0,0,0,27.36,38v-2.3a4.27,4.27,0,0,0-.85-2.86,3,3,0,0,0-2.38-1,3,3,0,0,0-2.38,1,4.27,4.27,0,0,0-.85,2.86V38a4.28,4.28,0,0,0,.85,2.86A3,3,0,0,0,24.13,41.81Z" fill="#fff"/><path d="M36.93,29.08v9.48A3.85,3.85,0,0,0,37.57,41a2.6,2.6,0,0,0,2.15.81A2.58,2.58,0,0,0,41.87,41a3.85,3.85,0,0,0,.64-2.44V29.08h3.28V38.2a12.19,12.19,0,0,1-.32,3,5,5,0,0,1-1,2.06,4.28,4.28,0,0,1-1.89,1.19,8.78,8.78,0,0,1-2.81.39,8.82,8.82,0,0,1-2.81-.39A4.2,4.2,0,0,1,35,43.22,4.86,4.86,0,0,1,34,41.16a12.19,12.19,0,0,1-.32-3V29.08Z" fill="#fff"/><path d="M52.48,44.54H49.11V29.08h7.33a5.18,5.18,0,0,1,1.93.35,4.24,4.24,0,0,1,1.47,1A4.55,4.55,0,0,1,60.78,32a5.9,5.9,0,0,1,.34,2,5.29,5.29,0,0,1-.7,2.74,4,4,0,0,1-2.12,1.71l3,6.07H57.59l-2.7-5.67H52.48ZM56,36a1.72,1.72,0,0,0,1.19-.39,1.45,1.45,0,0,0,.43-1.13v-1a1.48,1.48,0,0,0-.43-1.14A1.72,1.72,0,0,0,56,32H52.48v4Z" fill="#fff"/><path d="M69,44.8a7.66,7.66,0,0,1-3.45-.7,7.81,7.81,0,0,1-2.42-1.8l2.22-2.24a5,5,0,0,0,3.87,1.75,2.83,2.83,0,0,0,1.84-.5A1.66,1.66,0,0,0,71.7,40a1.61,1.61,0,0,0-.35-1.06,2.32,2.32,0,0,0-1.45-.59l-1.52-.19a6,6,0,0,1-3.6-1.49,4.29,4.29,0,0,1-1.14-3.13,4.4,4.4,0,0,1,.4-1.9,4.13,4.13,0,0,1,1.14-1.49,5.38,5.38,0,0,1,1.81-1,8.05,8.05,0,0,1,2.45-.35,7.91,7.91,0,0,1,3.08.56A6.18,6.18,0,0,1,74.8,31l-2.23,2.26a4.64,4.64,0,0,0-1.35-1,4.28,4.28,0,0,0-2-.41,2.85,2.85,0,0,0-1.68.4A1.26,1.26,0,0,0,67,33.29a1.37,1.37,0,0,0,.43,1.14,2.85,2.85,0,0,0,1.4.51l1.53.24a6.46,6.46,0,0,1,3.55,1.48,4.12,4.12,0,0,1,1.15,3.11,5.23,5.23,0,0,1-.4,2,4.61,4.61,0,0,1-1.16,1.6,5.58,5.58,0,0,1-1.9,1A8.44,8.44,0,0,1,69,44.8Z" fill="#fff"/><path d="M77.86,44.54V29.08H88.38v3H81.22v3.14h6.14v3H81.22v3.35h7.16v3Z" fill="#fff"/><path d="M96.31,44.8a7.46,7.46,0,0,1-5.87-2.5l2.21-2.24a5,5,0,0,0,3.88,1.75,2.87,2.87,0,0,0,1.84-.5A1.69,1.69,0,0,0,99,40a1.61,1.61,0,0,0-.35-1.06,2.31,2.31,0,0,0-1.44-.59l-1.53-.19A6,6,0,0,1,92,36.64a4.29,4.29,0,0,1-1.14-3.13,4.55,4.55,0,0,1,.4-1.9,4.37,4.37,0,0,1,1.14-1.49,5.43,5.43,0,0,1,1.82-1,8.72,8.72,0,0,1,5.52.21A6.18,6.18,0,0,1,102.06,31l-2.23,2.26a4.6,4.6,0,0,0-1.34-1,4.33,4.33,0,0,0-2-.41,2.87,2.87,0,0,0-1.69.4,1.26,1.26,0,0,0-.55,1.09,1.37,1.37,0,0,0,.43,1.14,2.94,2.94,0,0,0,1.41.51l1.53.24a6.46,6.46,0,0,1,3.54,1.48,4.12,4.12,0,0,1,1.15,3.11,5.05,5.05,0,0,1-.4,2,4.36,4.36,0,0,1-1.16,1.6,5.53,5.53,0,0,1-1.89,1A8.49,8.49,0,0,1,96.31,44.8Z" fill="#fff"/><rect x="72.75" width="49.56" height="22.38" fill="#e271ad"/><path d="M87.79,8.9h-.07L86.6,11.17l-3,5.49-3-5.44L79.46,8.79h-.07l.06,10.3-3.17,0L76.2,3.65l3.57,0,3.82,7.22h0l3.71-7.26,3.59,0L91,19l-3.17,0Z" fill="#fff"/><path d="M94.42,19,94.34,3.56l10.52-.06v3l-7.15,0,0,3.14,6.13,0,0,3-6.14,0,0,3.35,7.15,0,0,3Z" fill="#fff"/><path d="M112.87,19.19A7.45,7.45,0,0,1,107,16.71l2.21-2.25a5,5,0,0,0,3.88,1.74,2.84,2.84,0,0,0,1.84-.52,1.69,1.69,0,0,0,.59-1.34,1.58,1.58,0,0,0-.36-1.06,2.26,2.26,0,0,0-1.44-.58l-1.53-.19a5.88,5.88,0,0,1-3.61-1.46,4.29,4.29,0,0,1-1.15-3.12,4.26,4.26,0,0,1,1.52-3.41,5.3,5.3,0,0,1,1.81-1,9,9,0,0,1,5.53.18,6.35,6.35,0,0,1,2.28,1.61l-2.22,2.28a4.36,4.36,0,0,0-1.35-1,4.16,4.16,0,0,0-2-.39,2.85,2.85,0,0,0-1.68.4,1.27,1.27,0,0,0-.55,1.1,1.4,1.4,0,0,0,.44,1.14,3.06,3.06,0,0,0,1.41.49l1.53.24A6.49,6.49,0,0,1,117.7,11a4.09,4.09,0,0,1,1.17,3.1,5.31,5.31,0,0,1-.39,2.05,4.48,4.48,0,0,1-1.16,1.6,5.29,5.29,0,0,1-1.89,1A8.35,8.35,0,0,1,112.87,19.19Z" fill="#fff"/><path d="M108.73,32.65a.86.86,0,0,1-.66-.22.8.8,0,0,1-.21-.57v-.2a.8.8,0,0,1,.21-.57,1.1,1.1,0,0,1,1.32,0,.8.8,0,0,1,.21.57v.2a.8.8,0,0,1-.21.57A.86.86,0,0,1,108.73,32.65Z" fill="#71dae2"/><path d="M111,32.54V25.62h4.6V27h-3.09v1.41h2.63V29.7h-2.63v2.84Z" fill="#71dae2"/><path d="M118.35,32.54h-1.51V25.62h3.28a2.21,2.21,0,0,1,.87.16,1.85,1.85,0,0,1,.66.45,2,2,0,0,1,.42.7,2.57,2.57,0,0,1,.15.9,2.35,2.35,0,0,1-.32,1.23,1.79,1.79,0,0,1-.94.76l1.35,2.72h-1.67L119.43,30h-1.08Zm1.58-3.81a.77.77,0,0,0,.53-.17.66.66,0,0,0,.2-.51v-.44a.66.66,0,0,0-.2-.51.72.72,0,0,0-.53-.17h-1.58v1.8Z" fill="#71dae2"/></svg>