<svg width="62" height="60" viewBox="0 0 62 60" fill="none" xmlns="http://www.w3.org/2000/svg">
<path d="M23.1885 30.161L24.7737 21.4661C25.6086 19.2158 28.3498 16.6488 25.4092 13.8022C21.3802 9.90447 19.9741 8.27734 15.7625 8.27734C8.69485 8.27734 3.59436 16.0761 0.873422 22.2713C0.376126 23.4067 0.123388 24.6336 0.131539 25.8725C0.13969 27.1114 0.408549 28.3348 0.920743 29.4636C5.61225 39.7856 24.0538 57.7277 31.2702 59.648C31.4732 59.7013 31.68 59.7396 31.8887 59.7625C39.9028 60.7462 48.3496 53.9614 51.5302 46.7792C52.8552 43.7843 44.253 38.7211 42.7421 37.7037L37.672 43.0634L23.1885 30.161Z" fill="#FFC107"/>
<path d="M40.349 44.8623C40.2209 45.1741 39.9842 45.4292 39.6824 45.5809C39.3806 45.7325 39.034 45.7704 38.7063 45.6877C33.9062 44.4333 29.312 42.4978 25.0645 39.9405C21.6675 37.8856 17.9258 36.3797 16.5332 32.8155C15.1406 29.2514 15.1373 25.6434 16.4183 22.9315C18.7843 17.9322 26.599 19.4886 31.1283 23.9422C31.1959 15.8301 36.2693 11.5888 42.492 15.4932C45.3853 17.3124 46.352 19.6806 46.352 24.0196C46.352 29.9487 41.8295 41.3015 40.349 44.8623Z" fill="#2E3192"/>
<path d="M10.1517 9.95843C8.53901 11.6277 7.03733 13.4001 5.6562 15.2643C4.22644 17.1137 2.73921 19.0104 1.63732 21.0788C1.31621 21.6818 1.02553 22.3118 0.748366 22.9283C0.363642 23.6714 0.114164 24.4767 0.011516 25.3066C-0.0865054 26.4621 0.461062 27.5199 0.900469 28.5541C1.45142 29.8511 2.0125 31.1414 2.59049 32.4249C2.92234 33.2452 3.31202 34.0411 3.75661 34.8066C4.55191 35.9855 5.4343 37.1037 6.39643 38.1518C7.7214 39.6779 9.10046 41.15 10.5133 42.602C13.8934 46.0853 17.412 49.444 21.0726 52.6308C22.7254 54.0727 24.4121 55.4808 26.1596 56.8014C27.4303 57.8156 28.7875 58.7174 30.2156 59.4964C30.4657 59.6244 30.7193 59.7423 30.9761 59.8333C31.4531 59.9947 31.9619 60.0398 32.46 59.9647C33.2407 59.8877 34.0085 59.7122 34.7449 59.4425C35.2992 59.237 35.9752 59.0181 36.4011 58.5936C36.5566 58.442 36.9216 58.0411 36.5262 57.8828C35.1235 57.3202 33.8458 56.4174 32.6256 55.5246C30.8714 54.258 29.1915 52.8835 27.5555 51.4821C23.7395 48.2177 20.0856 44.7445 16.5737 41.1702C14.9141 39.4858 13.2816 37.7509 11.7335 35.952L11.8958 36.144C11.0414 35.2025 10.2627 34.1955 9.56691 33.1323C9.12097 32.3411 8.72693 31.5219 8.38727 30.6798C7.83295 29.4491 7.29327 28.2139 6.76823 26.9742C6.27136 25.8052 5.71028 24.6699 5.92998 23.3595L5.88266 23.6054C6.05939 22.8572 6.33203 22.1349 6.69387 21.4561C6.95075 20.9306 7.18398 20.3916 7.46452 19.8795C7.95382 19.0135 8.48978 18.1746 9.07004 17.3664C10.4761 15.3451 11.9836 13.398 13.5587 11.5047L14.1334 10.8309L14.4173 10.4941C14.4984 10.3997 14.7553 10.0292 14.4984 10.3997C14.7758 10.0502 15.081 9.72353 15.411 9.4228C15.624 9.21056 15.8538 8.9478 15.5361 8.71198C15.2184 8.47617 14.3902 8.54354 14.0556 8.5806C13.2744 8.66123 12.5059 8.83658 11.7673 9.10276C11.213 9.30826 10.5404 9.52723 10.1145 9.94833L10.1517 9.95843Z" fill="#FBB03B"/>
<path d="M19.6599 20.1323C18.574 20.481 17.5978 21.1055 16.8274 21.9442C16.057 22.783 15.5188 23.8071 15.2658 24.9159C14.6968 27.5079 15.0096 30.215 16.1548 32.6102C16.6906 33.7462 17.432 34.774 18.3417 35.6421C19.3557 36.5921 20.6266 37.2693 21.813 38.0003C24.2602 39.4994 26.6769 41.1063 29.2491 42.4134C31.9531 43.8047 34.7755 45.3207 37.8344 45.7822C38.5406 45.8687 39.2565 45.742 39.8895 45.4184C40.1058 45.3139 40.9306 44.7177 40.2275 44.62C37.6823 44.246 35.3636 43.1107 33.0922 41.9687C30.6417 40.7357 28.3264 39.2973 25.9941 37.8689C23.8241 36.5416 21.3297 35.3659 19.8729 33.1964C18.5005 31.1164 17.8269 28.6555 17.9496 26.1691C17.9735 24.9885 18.2623 23.8283 18.7946 22.7734C19.044 22.299 19.3643 21.8651 19.7444 21.4865C19.9078 21.3163 20.0917 21.167 20.292 21.0418L20.4407 20.9475C20.3292 21.0149 20.4103 20.9643 20.4779 20.9475C20.5455 20.9307 20.6841 20.8633 20.532 20.9239C20.3799 20.9846 20.7077 20.8666 20.7043 20.87C20.9342 20.7959 21.9617 20.3681 21.5696 20.0009C21.404 19.8459 21.0052 19.8762 20.8159 19.8931C20.4266 19.9335 20.0433 20.0183 19.6734 20.1457L19.6599 20.1323Z" fill="#001F69"/>
<path d="M38.223 8.2167C38.223 8.2167 38.4697 8.16617 38.2973 8.2167C38.125 8.26723 38.4021 8.19986 38.4461 8.19312C38.5846 8.16954 38.7232 8.1527 38.8618 8.13585C39.1998 8.09206 39.5615 8.06174 39.9096 8.04826C39.6933 8.04826 40.0347 8.04826 40.0989 8.04826H40.589C40.927 8.06511 41.2447 8.09206 41.5692 8.13248C41.7991 8.1628 41.9546 8.18975 42.2757 8.25713C42.5968 8.3245 42.9145 8.40535 43.2288 8.49631C43.8104 8.66396 44.376 8.88266 44.9189 9.14986C47.0868 10.2182 48.8732 11.9245 50.0363 14.038C50.6683 15.1943 51.1056 16.4461 51.3308 17.7436C51.4457 18.3871 52.5848 18.3028 53.0208 18.1748C53.5346 18.0232 54.3729 17.6291 54.2681 16.9587C53.7867 14.362 52.5269 11.9718 50.6548 10.1032C48.5797 8.07035 45.9019 6.75895 43.0193 6.36387C41.2744 6.12523 39.5009 6.19479 37.7802 6.56937C37.2935 6.67043 36.364 7.16227 36.533 7.7855C36.702 8.40872 37.7565 8.3144 38.223 8.2167Z" fill="#001F69"/>
<path d="M36.9959 1.69819C39.3904 1.37395 41.8189 1.38983 44.2089 1.74535C46.6021 2.08775 48.932 2.77783 51.1245 3.79357C53.0661 4.6863 54.7259 6.09122 55.9241 7.85633C56.975 9.50279 57.7278 11.3203 58.1482 13.2262C58.6604 15.488 58.9647 17.7917 59.0574 20.1086C59.0574 20.3175 59.4732 20.4118 59.6084 20.4455C59.9729 20.4874 60.3423 20.4541 60.6934 20.3478C61.1429 20.2198 62.0454 19.9334 61.9981 19.3371C61.7682 15.207 61.2308 10.8074 58.956 7.23984C57.7668 5.34408 56.0865 3.80319 54.0921 2.77957C51.7553 1.61841 49.2529 0.823034 46.6729 0.421416C43.6254 -0.0936716 40.5163 -0.136851 37.4556 0.293402C36.9452 0.364147 35.9244 0.630281 35.7655 1.20971C35.6067 1.78914 36.7119 1.73861 36.9959 1.69819Z" fill="#001F69"/>
</svg>
