<?xml version="1.0" encoding="UTF-8"?>
<svg viewBox="0 0 40 40" version="1.1" xmlns="http://www.w3.org/2000/svg" xmlns:xlink="http://www.w3.org/1999/xlink">
    <g id="Site" stroke="none" stroke-width="1" fill="none" fill-rule="evenodd">
        <g id="Page-Defi" transform="translate(-172.000000, -2047.000000)">
            <g id="Group-9" transform="translate(172.000000, 2045.000000)">
                <g id="01-Logos/02-Cercles/Design/-" transform="translate(0.000000, 2.000000)">
                    <path d="M19.9574468,0 C30.9796403,0 39.9148936,8.954305 39.9148936,20 C39.9148936,31.045695 30.9796403,40 19.9574468,40 C8.93525329,40 0,31.045695 0,20 C0,8.954305 8.93525329,0 19.9574468,0 Z M19.9574468,6 C12.2419113,6 5.98723404,12.2680135 5.98723404,20 C5.98723404,27.7319865 12.2419113,34 19.9574468,34 C27.6729823,34 33.9276596,27.7319865 33.9276596,20 C33.9276596,12.2680135 27.6729823,6 19.9574468,6 Z" id="Cercle" fill="#FF5F42"></path>
                    <circle id="Oval" fill="#3355E3" cx="20" cy="20" r="5"></circle>
                </g>
            </g>
        </g>
    </g>
</svg>
