<svg width="209" height="92" viewBox="0 0 418 184" fill="none" xmlns="http://www.w3.org/2000/svg">
<path d="M0.217773 57.7647H7.40215C12.1917 57.7647 15.0219 60.1588 15.0219 64.0765C15.0219 67.9941 12.1917 70.3882 7.40215 70.3882H4.57194V79.0941H0.217773V57.7647ZM4.57194 61.4647V66.9059H7.40215C9.14382 66.9059 10.4501 65.8176 10.4501 64.0765C10.4501 62.5529 9.36152 61.4647 7.40215 61.4647H4.57194Z" fill="black"/>
<path d="M18.5054 57.7647H25.0366C29.8262 57.7647 32.6564 60.1588 32.6564 64.0765C32.6564 66.6882 31.3502 68.6471 29.1731 69.5177L35.922 79.0941H30.697L25.0366 70.3882H22.8595V79.0941H18.5054V57.7647ZM22.8595 61.4647V66.9059H25.2543C26.996 66.9059 28.0845 65.8176 28.0845 64.0765C28.0845 62.5529 26.996 61.4647 25.2543 61.4647H22.8595Z" fill="black"/>
<path d="M38.5347 57.7647H50.944V61.4647H42.8888V66.4706H49.8555V70.1706H42.8888V75.6118H50.944V79.3118H38.5347V57.7647Z" fill="black"/>
<path d="M56.1689 57.7647H61.6117L66.8367 66.6882L72.0617 57.7647H77.5044V79.3118H73.1502V64.0765L68.3606 71.9118H65.3127L60.5231 64.0765V79.3118H56.1689V57.7647Z" fill="black"/>
<path d="M83.3828 57.7647H87.737V79.3118H83.3828V57.7647Z" fill="black"/>
<path d="M93.8325 57.7647H106.242V61.4647H98.1867V66.4706H105.153V70.1706H98.1867V75.6118H106.242V79.3118H93.8325V57.7647Z" fill="black"/>
<path d="M111.467 57.7647H117.998C122.788 57.7647 125.618 60.1588 125.618 64.0765C125.618 66.6882 124.312 68.6471 122.134 69.5177L128.883 79.0941H123.658L117.998 70.3882H115.821V79.0941H111.467V57.7647ZM115.821 61.4647V66.9059H118.216C119.957 66.9059 121.046 65.8176 121.046 64.0765C121.046 62.5529 119.957 61.4647 118.216 61.4647H115.821Z" fill="black"/>
<path d="M0.217773 88.6706H5.66048L10.8855 97.5941L16.1105 88.6706H21.5532V110.218H17.199V94.9824L12.4094 102.818H9.36152L4.57194 94.9824V110.218H0.217773V88.6706Z" fill="black"/>
<path d="M27.4312 88.6706H31.7853V110.218H27.4312V88.6706Z" fill="black"/>
<path d="M37.8809 88.6706H43.5413L53.1204 104.124V88.6706H57.4746V110.218H51.8142L42.235 94.7647V110.218H37.8809V88.6706Z" fill="black"/>
<path d="M63.353 88.6706H67.7072V110.218H63.353V88.6706Z" fill="black"/>
<path d="M74.8916 104.341C76.1979 106.082 77.9395 106.953 79.6812 106.953C81.4229 106.953 82.5114 106.082 82.5114 104.559C82.5114 100.641 72.7145 101.512 72.7145 94.5471C72.7145 91.0647 75.5447 88.2353 79.6812 88.2353C82.9468 88.2353 85.3416 89.7588 87.0833 91.9353L83.8176 94.7647C82.5114 93.2412 81.2051 92.1529 79.4635 92.1529C77.9395 92.1529 77.0687 93.2412 77.0687 94.3294C77.0687 98.2471 86.8656 97.3765 86.8656 104.559C86.8656 108.476 83.5999 111.088 79.6812 111.088C75.9801 111.088 73.5854 109.782 71.626 107.606L74.8916 104.341Z" fill="black"/>
<path d="M89.0425 88.6706H106.677V92.5882H100.146V110H95.7914V92.5882H89.2602V88.6706H89.0425Z" fill="black"/>
<path d="M110.378 88.6706H116.91C121.699 88.6706 124.529 91.0647 124.529 94.9824C124.529 97.5941 123.223 99.5529 121.046 100.424L127.795 110H122.57L116.91 101.294H114.733V110H110.378V88.6706ZM114.733 92.3706V97.8118H117.127C118.869 97.8118 119.958 96.7235 119.958 94.9824C119.958 93.4588 118.869 92.3706 117.127 92.3706H114.733Z" fill="black"/>
<path d="M130.625 88.6706H143.034V92.3706H134.979V97.3765H141.946V101.076H134.979V106.518H143.034V110.218H130.625V88.6706Z" fill="black"/>
<path d="M69.8844 169.418C70.5375 169.418 70.9729 169.853 70.7552 170.941L68.1427 171.594C68.5781 170.288 69.2313 169.418 69.8844 169.418ZM71.4083 173.771H70.9729C70.3198 174.641 69.6667 175.294 68.7958 175.294C68.1427 175.294 67.7073 174.859 67.7073 173.771C67.7073 173.335 67.7073 172.9 67.925 172.682L72.2792 171.159C73.15 169.2 72.0615 168.329 70.9729 168.329C69.0135 168.329 66.6188 171.812 66.6188 174.859C66.6188 176.165 67.2719 177.035 68.3604 177.035C69.2313 176.818 70.5375 175.729 71.4083 173.771ZM70.5375 167.459L73.5854 164.629V164.194H71.8438L69.8844 167.459H70.5375ZM61.176 169.418H62.7L60.3052 175.729C60.0875 176.165 60.3052 176.818 60.9583 176.818C62.2646 176.818 64.4417 175.512 65.0948 173.771H64.6594C64.0063 174.424 62.9177 175.294 62.0469 175.294L64.224 169.418H66.401L66.6188 168.547H64.4417L65.3125 166.371H64.4417L62.9177 168.547L61.176 168.765V169.418ZM59.2167 169.2C59.4344 168.547 58.999 168.329 58.7813 168.329C57.475 168.329 55.951 169.418 55.5156 170.941H55.951C56.3865 170.288 57.0396 169.635 57.6927 169.635L55.2979 175.947C55.0802 176.6 55.5156 176.818 55.7333 176.818C56.8219 176.818 58.3458 175.729 58.999 174.206H58.5635C58.1281 174.859 57.475 175.512 56.8219 175.512L59.2167 169.2ZM59.6521 165.935C60.3052 165.935 60.7406 165.5 60.7406 164.847C60.7406 164.194 60.3052 163.759 59.6521 163.759C58.999 163.759 58.5635 164.194 58.5635 164.847C58.5635 165.5 58.999 165.935 59.6521 165.935ZM45.7188 175.729C45.501 176.382 45.7188 176.818 46.3719 176.818C46.8073 176.818 47.025 176.6 47.2427 176.165L48.9844 171.812C49.8552 170.941 51.3792 169.853 52.0323 169.853C52.4677 169.853 52.4677 170.288 52.0323 170.724L49.4198 175.729C49.2021 176.165 49.4198 176.818 50.0729 176.818C51.3792 176.818 52.9031 175.729 53.3385 174.206H52.9031C52.4677 174.859 51.8146 175.512 51.1615 175.512L53.3385 171.159C53.5563 170.506 53.774 170.071 53.774 169.635C53.774 168.982 53.3385 168.547 52.6854 168.547C51.5969 168.547 50.5083 169.853 49.2021 171.377V170.288C49.2021 169.418 48.9844 168.765 48.1135 168.765C47.6781 168.765 47.2427 169.2 46.8073 169.853V170.071C47.6781 170.071 47.8958 171.159 47.4604 172.465L45.7188 175.729ZM45.7188 170.288C45.9365 169.2 45.9365 168.329 45.0656 168.329C44.1948 168.329 43.9771 168.982 42.8885 171.159V170.071C42.8885 169.2 42.6708 168.547 41.8 168.547C40.9292 168.547 40.0583 169.853 39.4052 171.159H39.8406C40.276 170.506 40.7115 170.288 40.9292 170.288C41.3646 170.288 41.5823 170.941 40.9292 172.247L39.1875 175.947C38.9698 176.6 39.1875 177.035 39.8406 177.035C40.276 177.035 40.4938 176.818 40.7115 176.382L42.4531 172.029C42.8885 171.377 43.324 170.941 43.9771 170.288H45.7188ZM36.1396 169.418C36.7927 169.418 37.2281 169.853 37.0104 170.941L34.3979 171.594C34.6156 170.288 35.4865 169.418 36.1396 169.418ZM37.6635 173.771H37.0104C36.3573 174.641 35.7042 175.294 34.8333 175.294C34.1802 175.294 33.7448 174.859 33.7448 173.771C33.7448 173.335 33.7448 172.9 33.9625 172.682L38.3167 171.159C39.1875 169.2 38.099 168.329 37.0104 168.329C35.051 168.329 32.6563 171.812 32.6563 174.859C32.6563 176.165 33.3094 177.035 34.3979 177.035C35.2688 176.818 36.575 175.729 37.6635 173.771ZM27.4313 169.418H28.9552L26.5604 175.729C26.3427 176.165 26.5604 176.818 27.2135 176.818C28.5198 176.818 30.6969 175.512 31.35 173.771H30.9146C30.2615 174.424 29.1729 175.294 28.3021 175.294L30.4792 169.418H32.6563L32.874 168.547H30.6969L31.5677 166.371H30.6969L29.1729 168.547L27.4313 168.765V169.418ZM19.376 174.424C19.376 172.465 21.5531 169.853 22.6417 169.853C22.8594 169.853 23.0771 169.853 23.2948 169.853L21.9885 173.118C21.5531 174.206 20.4646 175.294 19.8115 175.294C19.5938 175.294 19.376 174.859 19.376 174.424ZM25.9073 167.894H25.2542L24.601 168.547H24.3833C20.9 168.547 17.6344 172.465 17.6344 175.512C17.6344 176.382 18.0698 176.818 18.9406 176.818C19.8115 176.818 20.6823 175.512 21.7708 173.988V174.424C21.5531 175.947 21.9885 176.6 22.8594 176.6C23.7302 176.6 24.601 175.294 25.2542 173.988H24.8188C24.3833 174.641 23.9479 174.859 23.7302 174.859C23.2948 174.859 23.0771 174.206 23.7302 172.9L25.9073 167.894ZM18.2875 170.288C18.5052 169.2 18.5052 168.329 17.6344 168.329C16.7635 168.329 16.5458 168.982 15.4573 171.159V170.071C15.4573 169.2 15.2396 168.547 14.3688 168.547C13.4979 168.547 12.6271 169.853 11.974 171.159H12.4094C12.8448 170.506 13.2802 170.288 13.4979 170.288C13.9333 170.288 14.151 170.941 13.4979 172.247L11.7563 175.947C11.5385 176.6 11.7563 177.035 12.4094 177.035C12.8448 177.035 13.0625 176.818 13.2802 176.382L15.0219 172.029C15.4573 171.377 15.8927 170.941 16.5458 170.288H18.2875ZM6.31354 176.6L6.53125 175.947C4.35417 175.512 4.13646 175.512 5.00729 173.335L5.87813 170.941H8.27292C9.36146 170.941 9.36146 171.377 9.14375 172.465H9.79688L10.8854 168.765H10.45C10.0146 169.635 9.57917 170.288 8.49063 170.288H6.31354L7.61979 167.024C8.05521 165.935 8.27292 165.718 9.57917 165.718H10.6677C12.1917 165.718 12.4094 166.153 12.4094 167.677H13.0625V165.065H4.35417L4.13646 165.5C5.87813 165.935 5.87813 165.935 5.225 168.112L3.26563 173.335C2.39479 175.512 2.17708 175.729 0.217708 175.947L0 176.382H6.31354V176.6Z" fill="black"/>
<path d="M48.9844 149.829C49.6375 149.829 50.0729 150.265 49.8552 151.353L47.2427 152.006C47.4604 150.7 48.3313 149.829 48.9844 149.829ZM50.2906 154.182H49.8552C49.2021 155.053 48.549 155.706 47.6781 155.706C47.025 155.706 46.5896 155.271 46.5896 154.182C46.5896 153.747 46.5896 153.312 46.8073 153.094L51.1615 151.571C52.0323 149.612 50.9438 148.741 49.8552 148.741C47.8958 148.741 45.501 152.224 45.501 155.271C45.501 156.577 46.1542 157.447 47.2427 157.447C48.1135 157.229 49.4198 155.924 50.2906 154.182ZM49.4198 147.871L52.4677 145.041V144.606H50.726L48.7667 147.871H49.4198ZM40.0583 149.829H41.5823L39.1875 156.141C38.9698 156.576 39.1875 157.229 39.8406 157.229C41.1469 157.229 43.324 155.924 43.9771 154.182H43.5417C42.8885 154.835 41.8 155.706 40.9292 155.706L43.1063 149.829H45.2833L45.501 148.959H43.324L44.1948 146.782H43.324L41.8 148.959L40.0583 149.176V149.829ZM38.099 149.612C38.3167 148.959 37.8813 148.741 37.6635 148.741C36.3573 148.741 34.8333 149.829 34.3979 151.353H34.8333C35.2688 150.7 35.9219 150.047 36.575 150.047L34.1802 156.359C33.9625 157.012 34.3979 157.229 34.6156 157.229C35.7042 157.229 37.2281 156.141 37.8813 154.618H37.4458C37.0104 155.053 36.1396 155.706 35.4865 155.706L38.099 149.612ZM38.5344 146.347C39.1875 146.347 39.6229 145.912 39.6229 145.259C39.6229 144.606 39.1875 144.171 38.5344 144.171C37.8813 144.171 37.4458 144.606 37.4458 145.259C37.6635 145.912 38.099 146.347 38.5344 146.347ZM30.2615 155.706L34.6156 144.171L34.3979 143.953L31.5677 144.171V144.824L32.0031 145.259C32.4385 145.694 32.4385 145.912 31.7854 147.218L28.3021 156.141C28.0844 156.576 28.3021 157.229 28.9552 157.229C30.2615 157.229 31.5677 156.141 32.2208 154.618H31.7854C31.7854 155.053 30.9146 155.706 30.2615 155.706ZM21.9885 154.618C21.9885 152.659 24.1656 150.047 25.2542 150.047C25.4719 150.047 25.6896 150.047 25.9073 150.047L24.8188 153.529C24.1656 154.4 23.0771 155.488 22.424 155.488C21.9885 155.488 21.9885 155.271 21.9885 154.618ZM28.5198 148.306H27.8667L27.2135 148.959H26.9958C23.5125 148.959 20.2469 152.876 20.2469 155.924C20.2469 156.794 20.6823 157.229 21.5531 157.229C22.424 157.229 23.2948 155.924 24.3833 154.4V154.835C24.1656 156.359 24.601 157.012 25.4719 157.012C26.3427 157.012 27.2135 155.706 27.8667 154.4H27.4313C26.9958 155.053 26.5604 155.271 26.3427 155.271C25.9073 155.271 25.6896 154.618 26.3427 153.312L28.5198 148.306ZM12.4094 158.753C12.4094 157.882 13.2802 157.447 14.3688 157.012C14.8042 157.229 15.2396 157.447 16.1104 157.665C17.4167 157.882 17.8521 158.1 17.8521 158.535C17.8521 159.406 16.5458 159.841 14.8042 159.841C13.2802 159.841 12.4094 159.406 12.4094 158.753ZM15.675 153.529C15.2396 153.529 15.0219 153.094 15.0219 152.659C15.0219 151.353 15.8927 149.176 16.9813 149.176C17.4167 149.176 17.6344 149.612 17.6344 150.047C17.6344 151.571 16.9813 153.529 15.675 153.529ZM19.1583 157.882C19.1583 156.794 18.2875 156.576 16.7635 156.141C15.4573 155.706 15.0219 155.706 15.0219 155.271C15.0219 154.835 15.2396 154.618 15.8927 154.182C17.8521 153.965 19.376 152.224 19.376 150.7C19.376 150.265 19.376 150.047 19.1583 149.829H20.9L21.1177 148.959H18.2875C17.8521 148.741 17.6344 148.741 17.199 148.741C15.0219 148.741 13.4979 150.7 13.4979 152.224C13.4979 153.312 14.151 154.182 15.2396 154.4C14.151 154.835 13.7156 155.488 13.7156 155.924C13.7156 156.359 13.9333 156.576 14.151 156.794C11.7563 157.447 10.8854 158.318 10.8854 159.406C10.8854 160.494 12.4094 160.929 13.9333 160.929C16.7635 160.712 19.1583 159.188 19.1583 157.882ZM8.27292 151.135C9.36146 151.135 9.36146 151.571 9.14375 152.659H9.79688L11.1031 148.959H10.45C10.0146 149.829 9.57917 150.482 8.49063 150.482H6.31354L7.40208 147.218C7.8375 146.129 8.05521 145.912 9.36146 145.912H10.45C11.974 145.912 12.1917 146.347 12.1917 147.871H12.8448L13.0625 145.477H4.35417L4.13646 145.912C5.87813 146.347 5.87813 146.347 5.225 148.524L3.26563 153.747C2.39479 155.924 2.17708 156.141 0.217708 156.359L0 156.794H9.57917L11.3208 153.965H10.8854C9.79688 155.053 8.49063 155.924 6.53125 155.924C3.91875 155.924 4.13646 155.706 5.00729 153.529L5.87813 151.135H8.27292ZM9.36146 144.606L12.4094 142.429V141.994H10.6677L8.92604 144.388H9.36146V144.606Z" fill="black"/>
<path d="M47.8958 130.024C48.549 130.024 48.9844 130.459 48.7667 131.547L46.1542 132.2C46.3719 131.112 47.2427 130.024 47.8958 130.024ZM49.4198 134.377H48.9844C48.3312 135.247 47.6781 135.9 46.8073 135.9C46.1542 135.9 45.7188 135.465 45.7188 134.377C45.7188 133.941 45.7188 133.506 45.9365 133.288L50.2906 131.765C51.1615 129.806 50.0729 128.935 48.9844 128.935C47.025 128.935 44.6302 132.418 44.6302 135.465C44.6302 136.771 45.2833 137.641 46.3719 137.641C47.025 137.424 48.3312 136.335 49.4198 134.377ZM48.549 128.065L51.5969 125.235V124.8H49.8552L47.8958 128.065H48.549ZM39.4052 130.241H40.4937L38.099 136.553C37.8812 136.988 38.099 137.641 38.7521 137.641C40.0583 137.641 42.2354 136.335 42.8885 134.594H42.4531C41.8 135.247 40.7115 136.118 39.8406 136.118L42.0177 130.241H44.1948L44.4125 129.371H42.2354L43.1062 127.194H42.2354L40.7115 129.371L39.4052 129.588V130.241ZM38.3167 130.894C38.5344 129.806 38.5344 128.935 37.6635 128.935C36.7927 128.935 36.575 129.588 35.4865 131.765V130.677C35.4865 129.806 35.2687 129.153 34.3979 129.153C33.5271 129.153 32.6562 130.459 32.0031 131.765H32.6562C33.0917 131.112 33.5271 130.894 33.7448 130.894C34.1802 130.894 34.3979 131.547 33.7448 132.853L32.0031 136.553C31.7854 137.206 32.0031 137.641 32.6562 137.641C33.0917 137.641 33.3094 137.424 33.5271 136.988L35.2687 132.635C35.7042 131.982 36.1396 131.547 36.7927 130.894H38.3167ZM28.7375 130.024C29.3906 130.024 29.826 130.459 29.6083 131.547L26.9958 132.2C27.2135 131.112 28.0844 130.024 28.7375 130.024ZM30.2615 134.377H29.826C29.1729 135.247 28.5198 135.9 27.649 135.9C26.9958 135.9 26.5604 135.465 26.5604 134.377C26.5604 133.941 26.5604 133.506 26.7781 133.288L31.1323 131.765C32.0031 129.806 30.9146 128.935 29.826 128.935C27.8667 128.935 25.4719 132.418 25.4719 135.465C25.4719 136.771 26.125 137.641 27.2135 137.641C27.8667 137.424 29.1729 136.335 30.2615 134.377ZM19.5938 136.335C19.1583 136.335 18.5052 135.9 18.5052 135.682C18.5052 135.465 18.7229 135.029 18.9406 134.377L19.5938 132.418C20.2469 131.547 21.5531 130.459 22.2062 130.459C22.6417 130.459 22.8594 130.677 22.8594 131.329C22.8594 133.071 21.3354 136.335 19.5938 136.335ZM24.3833 130.677C24.3833 129.371 23.9479 128.935 23.0771 128.935C21.9885 128.935 20.9 130.024 19.8115 131.547L22.424 124.582L22.2062 124.365L19.5938 124.8V125.235L20.0292 125.671C20.4646 126.106 20.4646 126.541 19.8115 127.629L16.9812 135.029C16.7635 135.465 16.5458 136.118 16.5458 136.335C16.5458 136.988 17.6344 137.859 18.5052 137.859C20.9 137.424 24.3833 133.724 24.3833 130.677ZM15.8927 129.806C16.1104 129.153 15.675 128.935 15.4573 128.935C14.151 128.935 12.6271 130.024 12.1917 131.547H12.6271C13.0625 130.894 13.7156 130.241 14.3687 130.241L11.974 136.553C11.7562 137.206 12.1917 137.424 12.4094 137.424C13.4979 137.424 15.0219 136.335 15.675 134.812H15.0219C14.5865 135.465 13.9333 136.118 13.2802 136.118L15.8927 129.806ZM16.3281 126.759C16.9812 126.759 17.4167 126.324 17.4167 125.671C17.4167 125.018 16.9812 124.582 16.3281 124.582C15.675 124.582 15.2396 125.018 15.2396 125.671C15.2396 126.324 15.675 126.759 16.3281 126.759ZM10.0146 125.671H4.35417L4.13646 126.106C5.87812 126.541 5.87813 126.541 5.225 128.718L3.26562 133.941C2.39479 136.118 2.17708 136.335 0.217708 136.553L0 136.988H8.70833L10.6677 133.724H10.0146C8.92604 134.812 7.61979 136.335 5.66042 136.335C4.13646 136.335 3.91875 136.118 4.78958 133.941L6.74896 128.718C7.61979 126.541 7.8375 126.324 9.79688 126.106L10.0146 125.671Z" fill="black"/>
<path d="M32.4385 40.1353C32.6562 39.9177 33.0917 39.4824 33.3094 39.2647C33.9625 38.6118 34.3979 37.9588 35.051 37.5235C35.2687 37.3059 35.4865 37.0883 35.7042 37.0883V36.8706C35.4865 36.8706 35.2687 37.0883 35.051 37.3059C35.2687 37.0883 35.4865 37.0883 35.7042 36.8706C35.051 36.8706 34.3979 37.3059 33.9625 37.7412H33.7448C32.874 37.9588 32.4385 38.6118 31.5677 39.0471C31.35 39.0471 30.9146 39.2647 30.6969 39.4824C30.2615 39.4824 29.826 39.4824 29.3906 39.4824C28.7375 39.4824 28.0844 39.7 27.4312 39.9177C26.9958 39.9177 26.7781 40.1353 26.3427 40.353C26.125 40.5706 26.125 40.5706 25.9073 40.5706C25.4719 40.7883 25.2542 41.0059 25.0365 41.2235C24.8187 41.4412 24.3833 41.8765 24.1656 42.0941C24.1656 42.0941 24.1656 42.0941 23.9479 42.0941C23.9479 42.0941 23.9479 41.8765 24.1656 41.8765C24.1656 41.8765 24.1656 41.6588 24.3833 41.6588C24.3833 41.4412 24.601 41.4412 24.601 41.2235C24.8188 41.0059 25.2542 40.7883 25.4719 40.5706C25.4719 40.5706 25.4719 40.5706 25.4719 40.353L25.2542 40.5706C25.0365 40.7883 25.0365 41.0059 24.8187 41.0059C24.8187 41.0059 24.8187 41.0059 24.8187 40.7883C24.8187 40.5706 25.0365 40.5706 25.2542 40.5706C25.4719 40.5706 25.6896 40.353 25.9073 40.1353C25.6896 40.1353 25.2542 40.353 25.0365 40.5706C25.0365 40.5706 25.0365 40.5706 24.8187 40.5706L25.0365 40.353C26.7781 39.0471 29.1729 39.2647 31.1323 38.6118C31.35 38.6118 31.35 38.3941 31.5677 38.3941C31.7854 38.3941 32.0031 37.9588 32.4385 37.9588C32.874 37.7412 33.0917 37.3059 33.3094 36.653C32.6562 37.3059 31.7854 37.9588 30.9146 38.3941C29.826 39.0471 28.5198 38.8294 27.4312 39.0471H27.649C27.649 38.8294 27.649 38.8294 27.8667 38.8294C27.8667 38.8294 27.8667 38.8294 28.0844 38.8294H28.3021C28.0844 38.6118 27.8667 39.0471 27.649 38.8294C27.649 38.8294 27.649 38.6118 27.8667 38.6118H28.0844V38.3941C28.9552 37.9588 29.6083 37.5235 30.4792 37.0883C30.2615 37.0883 30.2615 37.3059 30.0437 37.0883V36.8706C30.6969 36.653 31.1323 36.4353 31.7854 36.2177C31.5677 36.2177 31.35 36.4353 31.1323 36.2177L31.35 36C31.35 36 31.35 36 31.35 35.7824C31.35 35.7824 31.5677 35.7824 31.5677 35.5647H31.35C31.5677 35.3471 31.7854 35.3471 32.0031 35.3471H31.7854V35.1294C32.0031 34.6941 32.0031 34.2588 32.2208 33.8235C31.7854 34.4765 30.9146 34.6941 30.0437 34.9118H29.826C29.6083 34.9118 29.1729 34.9118 28.9552 34.9118C28.7375 34.9118 28.7375 34.6941 28.5198 34.4765C28.0844 34.2588 27.649 34.0412 27.2135 33.8235C25.9073 33.3883 24.3833 33.1706 23.0771 33.1706C23.7302 32.953 24.3833 32.7353 25.0365 32.7353C25.9073 32.5177 26.7781 32.0824 27.8667 32.3C27.649 32.3 27.4312 32.3 27.4312 32.3C26.7781 32.3 25.9073 32.5177 25.0365 32.5177C24.601 32.5177 23.9479 32.7353 23.5125 32.953C23.2948 32.953 23.0771 33.3883 22.6417 33.3883C22.6417 33.3883 22.6417 33.3882 22.6417 33.1706C23.0771 32.5177 23.7302 31.8647 24.601 31.8647C25.4719 31.6471 26.5604 31.8647 27.4312 31.8647C28.0844 31.8647 28.7375 32.0824 29.3906 32.3C29.6083 32.3 29.6083 32.7353 29.826 32.7353C30.0437 32.7353 30.4792 32.7353 30.6969 32.953V32.7353C30.9146 32.5177 31.1323 32.7353 31.35 32.7353C31.7854 32.5177 30.9146 32.0824 30.6969 31.6471C31.1323 32.0824 31.35 32.5177 32.0031 32.7353C32.2208 32.7353 32.874 32.953 32.874 32.7353C32.6562 32.0824 32.0031 31.6471 31.5677 31.2118V30.9941C31.5677 30.9941 31.5677 30.9941 31.35 30.9941V30.7765C31.1323 30.7765 31.1323 30.5588 31.1323 30.3412C30.9146 30.1235 31.1323 29.6882 30.9146 29.4706C30.9146 29.253 30.6969 28.8177 30.6969 28.6C30.4792 27.7294 30.2615 26.8588 30.2615 25.9882C30.2615 24.9 30.9146 24.2471 31.35 23.1588C31.7854 22.5059 32.2208 21.853 32.874 21.4177C33.0917 20.7647 33.5271 20.3294 33.9625 19.6765C34.3979 19.2412 35.051 18.8059 35.7042 18.5882C36.3573 15.3235 37.0104 15.1059 37.0104 15.1059H0V43.6177H26.125C27.2135 42.9647 28.0844 42.5294 29.6083 41.8765C30.4792 41.4412 32.0031 40.7883 32.4385 40.1353ZM24.1656 36.4353H23.9479C23.9479 36.2177 24.3833 36.2177 24.601 36C24.601 36 24.8187 35.7824 25.0365 36C25.0365 36.2177 25.2542 36 25.4719 36.2177C25.0365 36.4353 24.601 36.2177 24.1656 36.4353ZM15.8927 35.1294C16.5458 34.0412 16.9813 33.1706 17.6344 32.3C18.2875 31.8647 18.9406 31.4294 19.376 30.7765C20.2469 29.9059 21.3354 29.0353 22.424 28.3824C22.8594 28.1647 23.2948 28.3824 23.7302 28.3824C23.5125 28.6 23.2948 28.6 23.0771 28.6C23.0771 28.6 23.0771 28.6 22.8594 28.6C22.8594 28.6 22.8594 28.6 22.8594 28.3824C22.424 29.0353 21.5531 29.253 21.1177 29.9059C20.9 30.3412 20.6823 31.2118 19.8115 31.2118C19.5938 31.2118 19.8115 30.9941 19.8115 31.2118C18.5052 32.5177 17.199 33.8235 15.8927 35.1294ZM20.4646 31.6471C20.2469 31.6471 20.2469 31.8647 20.4646 31.6471C20.2469 31.8647 20.2469 32.0824 20.0292 32.0824C20.0292 31.8647 20.0292 31.6471 20.4646 31.6471C20.4646 31.4294 20.4646 31.6471 20.4646 31.6471ZM22.8594 39.7C22.8594 39.7 22.8594 39.9177 22.8594 39.7C22.8594 39.9177 22.8594 39.9177 22.8594 39.9177C22.6417 40.1353 22.6417 40.1353 22.424 40.1353L22.2062 40.353C22.2062 40.353 21.7708 40.353 21.9885 40.353C22.2062 40.1353 22.2062 40.1353 22.424 39.9177L22.6417 39.7C22.6417 39.7 22.6417 39.7 22.8594 39.4824C22.6417 39.7 22.8594 39.7 22.8594 39.7ZM21.9885 39.2647C21.7708 39.4824 21.5531 39.4824 21.3354 39.7C21.1177 39.9177 20.9 39.9177 20.6823 40.1353C20.2469 40.1353 20.0292 40.353 20.0292 40.353C20.0292 40.353 20.0292 40.353 19.8115 40.5706H19.5938C19.5938 40.5706 19.376 40.5706 19.376 40.7883C19.1583 40.7883 19.1583 41.0059 19.1583 41.2235L19.376 41.0059C19.376 41.0059 19.376 41.0059 19.376 40.7883L19.5938 40.5706C19.5938 40.5706 19.5938 40.5706 19.5938 40.353C19.5938 40.353 19.5938 40.353 19.5938 40.1353L19.8115 39.9177L19.5938 40.1353C19.5938 40.1353 19.376 40.1353 19.5938 40.1353C19.5938 40.1353 19.5938 40.1353 19.8115 39.9177L20.0292 39.7C20.0292 39.7 20.2469 39.7 20.2469 39.4824C20.2469 39.4824 20.2469 39.4824 20.4646 39.2647C20.9 38.8294 21.7708 38.8294 22.424 38.3941C22.6417 38.3941 23.0771 38.3941 23.2948 38.3941C23.5125 38.3941 23.5125 38.3941 23.7302 38.3941C22.8594 38.6118 22.424 39.0471 21.9885 39.2647ZM23.0771 35.5647C23.0771 35.5647 23.2948 35.5647 23.0771 35.5647C23.0771 35.3471 23.0771 35.3471 23.0771 35.5647C22.8594 35.5647 22.8594 35.3471 22.8594 35.3471C22.6417 35.3471 22.2062 35.5647 21.9885 35.5647C21.5531 35.5647 21.3354 36 20.9 36C20.2469 36.2177 19.8115 36.653 19.1583 36.8706C19.1583 36.653 19.376 36.653 19.5938 36.4353C20.0292 35.7824 20.6823 35.5647 21.1177 35.1294C21.1177 35.1294 21.1177 35.1294 21.1177 34.9118C21.3354 34.6941 21.5531 34.6941 21.5531 34.2588C21.5531 34.0412 21.7708 33.8235 21.9885 33.8235C21.9885 33.8235 21.7708 33.8235 21.7708 33.6059C21.5531 33.6059 21.3354 33.6059 21.1177 33.6059C21.1177 33.6059 21.3354 33.3883 21.5531 33.3883C21.5531 33.3883 21.5531 33.3883 21.3354 33.3883C21.3354 33.3883 21.3354 33.1706 21.5531 33.1706C21.7708 33.1706 21.9885 33.1706 22.2062 32.953C21.7708 32.953 21.3354 32.953 21.1177 32.953C21.3354 32.3 21.7708 31.6471 22.424 31.4294H22.6417C22.6417 31.6471 22.424 31.8647 22.2062 31.8647C22.6417 31.8647 23.0771 31.8647 23.5125 32.0824H23.2948C23.5125 32.3 23.9479 32.0824 24.1656 32.3C23.9479 32.5177 23.9479 32.3 23.7302 32.3C25.4719 32.7353 27.2135 33.1706 28.5198 34.2588C27.4312 34.9118 26.125 35.1294 24.8187 35.3471C24.601 35.3471 24.601 35.3471 24.3833 35.3471V35.5647C24.1656 35.5647 23.9479 35.5647 23.9479 35.5647C23.5125 35.5647 23.2948 35.7824 23.0771 35.5647Z" fill="#000091"/>
<path d="M78.3747 15.1059H47.6778C47.6778 15.1059 47.6778 15.1059 47.8955 15.3235C48.1132 15.5412 48.5486 15.5412 48.7663 15.7588C49.2017 15.9765 49.6372 16.1941 49.8549 16.6294C49.8549 16.8471 50.0726 17.0647 50.0726 17.2824C50.0726 17.5 49.8549 17.9353 49.6372 18.153C49.4195 18.3706 48.984 18.3706 48.5486 18.153C48.3309 18.153 48.1132 18.153 47.8955 18.153C48.7663 18.3706 49.4195 18.8059 50.0726 19.6765C50.0726 19.6765 50.2903 19.8941 50.508 19.8941C50.508 19.8941 50.508 19.8941 50.508 20.1118L50.2903 20.3294C50.2903 20.3294 50.2903 20.3294 50.508 20.3294C50.7257 20.3294 50.7257 19.6765 51.1611 19.8941C51.3788 20.1118 51.5965 20.3294 51.3788 20.7647C51.1611 20.9824 50.9434 21.2 50.7257 21.2C50.7257 21.2 50.7257 21.4177 50.7257 21.6353C50.9434 21.853 50.9434 22.0706 50.9434 22.2882C51.1611 22.7235 51.1611 23.1588 51.3788 23.3765C51.5965 24.2471 51.8142 24.9 51.8142 25.7706C51.8142 26.2059 51.5965 26.6412 51.8142 27.0765C51.8142 27.5118 52.2497 27.7294 52.4674 28.1647C52.6851 28.3824 52.9028 28.6 53.1205 29.0353C53.3382 29.4706 53.9913 30.1235 53.7736 30.7765C53.5559 31.2118 53.1205 30.9941 52.6851 31.2118C52.4674 31.4294 52.6851 31.8647 52.6851 32.0824C52.9028 32.5177 52.4674 32.953 52.032 32.953C52.032 33.1706 52.2497 32.953 52.4674 33.1706C52.4674 33.3882 52.6851 33.6059 52.6851 33.8235C52.4674 34.0412 51.8142 34.2588 52.2497 34.6941C52.4674 35.1294 52.2497 35.5647 52.2497 35.7824C52.032 36.2177 51.5965 36.4353 51.3788 36.653C51.1611 36.653 50.7257 36.653 50.2903 36.653H50.0726C49.2017 36.653 48.3309 36.2177 47.2424 36.2177C47.0247 36.2177 46.807 36.2177 46.5892 36.4353C46.3715 36.653 46.1538 36.8706 45.9361 37.0883C45.9361 37.0883 45.9361 37.0883 45.7184 37.3059C45.5007 37.5235 45.5007 37.7412 45.283 37.9588C45.0653 38.3941 45.0653 38.6118 44.8476 39.0471C44.4122 40.353 44.6299 41.4412 44.8476 41.6588C44.8476 41.6588 46.5892 42.3118 47.8955 42.7471C48.5486 42.9647 48.7663 43.1824 49.2017 43.4H78.3747V15.1059Z" fill="#E1000F"/>
<path d="M49.638 25.5529C49.8557 25.5529 50.0734 25.5529 50.0734 25.7706C50.0734 26.2058 49.4202 26.2058 48.9848 26.6411H48.7671C48.5494 26.6411 48.7671 27.0764 48.5494 27.0764C48.3317 27.0764 48.3317 27.0764 48.114 27.0764C48.3317 27.2941 48.5494 27.5117 48.9848 27.2941C48.9848 27.2941 49.2025 27.2941 49.2025 27.5117V27.7294C48.9848 27.947 48.7671 27.7294 48.5494 27.947C48.9848 27.947 49.4202 27.947 49.8557 27.947C50.0734 27.947 49.8557 27.2941 50.0734 27.0764V26.8588L50.2911 26.6411C50.2911 26.6411 50.5088 26.6411 50.5088 26.4235L50.2911 26.2058C50.5088 25.9882 50.9442 25.7706 50.7265 25.3353C50.7265 25.1176 50.2911 25.1176 50.0734 25.1176C49.8557 25.1176 49.4202 25.1176 49.2025 25.1176C48.9848 25.1176 48.7671 25.3353 48.3317 25.3353C47.8963 25.3353 47.6786 25.5529 47.2432 25.7706C47.6786 25.5529 47.8963 25.5529 48.3317 25.5529C48.9848 25.5529 49.2025 25.3353 49.638 25.5529Z" fill="#9D9D9C"/>
<path d="M224.457 56.8823H219.667V113.688H224.457V56.8823Z" fill="#C2C2C2"/>
<path d="M237.52 57.9706H242.962C247.316 57.9706 250.364 61.2353 250.364 64.9353C250.364 68.6353 247.316 71.9 242.962 71.9H237.52V57.9706ZM240.35 60.5823V69.5059H242.962C245.575 69.5059 247.534 67.5471 247.534 65.1529C247.534 62.5412 245.575 60.8 242.962 60.8H240.35V60.5823Z" fill="black"/>
<path d="M252.542 58.4059C252.542 57.5353 253.195 56.6647 254.283 56.6647C255.154 56.6647 256.025 57.3177 256.025 58.4059C256.025 59.2765 255.372 60.1471 254.283 60.1471C253.412 60.1471 252.542 59.2765 252.542 58.4059ZM252.977 61.8883H255.589V71.9H252.977V61.8883Z" fill="black"/>
<path d="M237.302 77.9942C237.302 77.1236 237.955 76.253 239.043 76.253C239.914 76.253 240.785 76.9059 240.785 77.9942C240.785 78.8648 240.132 79.7353 239.043 79.7353C238.173 79.7353 237.302 78.8648 237.302 77.9942ZM237.737 81.4765H240.35V91.4883H237.737V81.4765Z" fill="black"/>
<path d="M258.42 61.8882H261.032V62.9765C261.686 62.3235 262.556 61.6706 263.645 61.6706C264.08 61.6706 264.298 61.6706 264.516 61.8882V64.5C264.298 64.5 263.863 64.2824 263.427 64.2824C262.121 64.2824 261.468 64.9353 261.032 65.5882V71.9H258.42V61.8882Z" fill="black"/>
<path d="M271.264 72.3354C267.781 72.3354 265.604 69.7236 265.604 66.8942C265.604 63.8471 267.563 61.453 270.829 61.453C273.659 61.453 275.401 63.4118 275.401 66.0236C275.401 66.6765 275.401 67.1118 275.183 67.5471H268.216C268.434 69.2883 269.523 70.1589 271.264 70.1589C272.353 70.1589 273.224 69.7236 273.877 68.853L275.619 70.3765C274.748 71.6824 273.224 72.3354 271.264 72.3354ZM268.434 65.5883H273.006C273.006 64.5001 272.135 63.6295 270.829 63.6295C269.523 63.6295 268.87 64.2824 268.434 65.5883Z" fill="black"/>
<path d="M284.98 68.853L286.94 70.3765C286.069 71.6824 284.545 72.3354 282.586 72.3354C279.102 72.3354 276.925 69.7236 276.925 66.8942C276.925 63.8471 279.102 61.453 282.586 61.453C284.327 61.453 285.851 62.3236 286.94 63.4118L284.98 64.9354C284.545 64.2824 283.674 63.8471 282.803 63.8471C281.062 63.8471 279.973 65.153 279.973 66.8942C279.973 68.6354 281.279 69.9412 282.803 69.9412C283.674 69.9412 284.545 69.5059 284.98 68.853Z" fill="black"/>
<path d="M289.552 64.2824H287.593V61.8883H289.552V59.2765H292.165V61.8883H295.213V64.2824H292.165V68.4177C292.165 69.5059 292.818 69.9412 293.689 69.9412C294.342 69.9412 294.777 69.9412 295.213 69.7235V71.9C294.777 72.1177 294.124 72.1177 293.253 72.1177C290.641 72.1177 289.552 70.5941 289.552 68.2V64.2824Z" fill="black"/>
<path d="M297.172 58.4059C297.172 57.5353 297.825 56.6647 298.914 56.6647C299.784 56.6647 300.655 57.3177 300.655 58.4059C300.655 59.2765 300.002 60.1471 298.914 60.1471C298.043 60.1471 297.172 59.2765 297.172 58.4059ZM297.607 61.8883H300.22V71.9H297.607V61.8883Z" fill="black"/>
<path d="M313.5 66.8942C313.5 69.9412 311.323 72.3354 308.057 72.3354C304.791 72.3354 302.614 69.9412 302.614 66.8942C302.614 63.8471 304.791 61.453 308.057 61.453C311.323 61.453 313.5 63.8471 313.5 66.8942ZM310.887 66.8942C310.887 65.153 309.581 63.8471 308.057 63.8471C306.315 63.8471 305.227 65.153 305.227 66.8942C305.227 68.6354 306.533 69.9412 308.057 69.9412C309.581 69.9412 310.887 68.6354 310.887 66.8942Z" fill="black"/>
<path d="M315.895 61.8883H318.507V62.7589C319.16 62.1059 320.249 61.453 321.555 61.453C323.732 61.453 325.474 62.9765 325.474 66.0236V72.1177H322.861V66.2412C322.861 64.9354 322.208 64.0648 320.902 64.0648C319.596 64.0648 318.942 64.9354 318.507 65.5883V72.1177H315.895V61.8883Z" fill="black"/>
<path d="M244.051 81.4765H246.663V82.3471C247.316 81.6941 248.405 81.0412 249.711 81.0412C251.888 81.0412 253.63 82.5647 253.63 85.6118V91.7059H251.017V85.8294C251.017 84.5236 250.364 83.653 249.058 83.653C247.752 83.653 247.099 84.5236 246.663 85.1765V91.7059H244.051V81.4765Z" fill="black"/>
<path d="M256.896 83.8706H254.937V81.4765H256.896V78.8647H259.508V81.4765H262.556V83.8706H259.508V88.0059C259.508 89.0942 260.162 89.5295 261.032 89.5295C261.685 89.5295 262.121 89.5295 262.556 89.3118V91.4883C262.121 91.7059 261.468 91.7059 260.597 91.7059C257.984 91.7059 256.896 90.1824 256.896 87.7883V83.8706Z" fill="black"/>
<path d="M269.523 91.9235C266.04 91.9235 263.863 89.3118 263.863 86.4824C263.863 83.4353 265.822 81.0412 269.088 81.0412C271.918 81.0412 273.66 83 273.66 85.6118C273.66 86.2647 273.66 86.7 273.442 87.1353H266.475C266.693 88.8765 267.782 89.7471 269.523 89.7471C270.612 89.7471 271.483 89.3118 272.136 88.4412L273.877 89.9647C273.007 91.2706 271.483 91.9235 269.523 91.9235ZM266.693 85.1765H271.265C271.265 84.0883 270.394 83.2177 269.088 83.2177C267.999 83.2177 267.128 83.8706 266.693 85.1765Z" fill="black"/>
<path d="M276.271 81.4765H278.884V82.5647C279.537 81.9118 280.408 81.2589 281.497 81.2589C281.932 81.2589 282.15 81.2588 282.367 81.4765V84.0883C282.15 84.0883 281.714 83.8706 281.279 83.8706C279.973 83.8706 279.319 84.5236 278.884 85.1765V91.4883H276.271V81.4765Z" fill="black"/>
<path d="M284.545 81.4765H287.157V82.1294C287.81 81.4765 288.681 81.0412 289.988 81.0412C291.294 81.0412 292.382 81.6941 293.035 82.7824C293.689 81.9118 294.777 81.0412 296.301 81.0412C298.478 81.0412 300.002 82.5647 300.002 85.3941V91.7059H297.39V85.6118C297.39 84.3059 296.737 83.653 295.648 83.653C294.559 83.653 293.906 84.5236 293.471 85.1765C293.471 85.3941 293.471 85.3941 293.471 85.6118V91.9235H290.858V85.8294C290.858 84.5236 290.205 83.8706 289.117 83.8706C288.028 83.8706 287.375 84.7412 286.94 85.3941V91.9235H284.327V81.4765H284.545Z" fill="black"/>
<path d="M302.396 77.9942C302.396 77.1236 303.05 76.253 304.138 76.253C305.227 76.253 305.88 77.1236 305.88 77.9942C305.88 78.8648 305.227 79.7353 304.138 79.7353C303.05 79.7353 302.396 78.8648 302.396 77.9942ZM302.832 81.4765H305.444V91.4883H302.832V81.4765Z" fill="black"/>
<path d="M308.493 81.4765H311.105V82.3471C311.758 81.6941 312.847 81.0412 314.153 81.0412C316.33 81.0412 318.072 82.5647 318.072 85.6118V91.7059H315.459V85.8294C315.459 84.5236 314.806 83.653 313.5 83.653C312.194 83.653 311.541 84.5236 311.105 85.1765V91.7059H308.493V81.4765Z" fill="black"/>
<path d="M320.467 77.9942C320.467 77.1236 321.12 76.253 322.208 76.253C323.079 76.253 323.95 77.1236 323.95 77.9942C323.95 78.8648 323.297 79.7353 322.208 79.7353C321.12 79.7353 320.467 78.8648 320.467 77.9942ZM320.685 81.4765H323.297V91.4883H320.685V81.4765Z" fill="black"/>
<path d="M326.998 88.4412C327.651 89.3118 328.304 89.7471 329.392 89.7471C330.263 89.7471 330.699 89.3118 330.699 88.6588C330.699 86.9177 325.909 87.5706 325.909 84.0883C325.909 82.3471 327.433 81.0412 329.392 81.0412C330.916 81.0412 332.44 81.6941 333.093 82.7824L331.352 84.3059C330.916 83.653 330.263 83.2177 329.392 83.2177C328.739 83.2177 328.304 83.653 328.304 84.0883C328.304 85.8294 333.093 85.1765 333.093 88.6588C333.093 90.8353 331.352 91.9235 329.392 91.9235C327.651 91.9235 326.344 91.2706 325.256 89.9647L326.998 88.4412Z" fill="black"/>
<path d="M336.141 83.8706H334.182V81.4765H336.141V78.8647H338.754V81.4765H341.802V83.8706H338.754V88.0059C338.754 89.0942 339.407 89.5295 340.278 89.5295C340.931 89.5295 341.366 89.5295 341.802 89.3118V91.4883C341.366 91.7059 340.713 91.7059 339.843 91.7059C337.23 91.7059 336.141 90.1824 336.141 87.7883V83.8706Z" fill="black"/>
<path d="M348.769 91.9235C345.285 91.9235 343.108 89.3118 343.108 86.4823C343.108 83.4353 345.068 81.0412 348.333 81.0412C351.164 81.0412 352.905 83 352.905 85.6118C352.905 86.2647 352.905 86.7 352.688 87.1353H345.721C345.939 88.8765 347.027 89.747 348.769 89.747C349.857 89.747 350.728 89.3118 351.381 88.4412L353.123 89.9647C352.252 91.2706 350.728 91.9235 348.769 91.9235ZM345.939 85.1765H350.51C350.51 84.0882 349.64 83.2176 348.333 83.2176C347.245 83.2176 346.374 83.8706 345.939 85.1765ZM347.245 79.7353L349.422 76.4706H352.252L349.857 79.7353H347.245Z" fill="black"/>
<path d="M355.518 81.4765H358.13V82.5647C358.783 81.9118 359.654 81.2589 360.743 81.2589C361.178 81.2589 361.396 81.2588 361.613 81.4765V84.0883C361.396 84.0883 360.96 83.8706 360.525 83.8706C359.219 83.8706 358.565 84.5236 358.13 85.1765V91.4883H355.518V81.4765Z" fill="black"/>
<path d="M363.355 77.9942C363.355 77.1236 364.008 76.253 365.097 76.253C366.185 76.253 366.838 77.1236 366.838 77.9942C366.838 78.8648 366.185 79.7353 365.097 79.7353C364.008 79.7353 363.355 78.8648 363.355 77.9942ZM363.573 81.4765H366.185V91.4883H363.573V81.4765Z" fill="black"/>
<path d="M374.023 91.9235C370.54 91.9235 368.363 89.3118 368.363 86.4824C368.363 83.4353 370.322 81.0412 373.588 81.0412C376.418 81.0412 378.16 83 378.16 85.6118C378.16 86.2647 378.16 86.7 377.942 87.1353H370.975C371.193 88.8765 372.282 89.7471 374.023 89.7471C375.112 89.7471 375.983 89.3118 376.636 88.4412L378.377 89.9647C377.507 91.2706 375.983 91.9235 374.023 91.9235ZM371.193 85.1765H375.765C375.765 84.0883 374.894 83.2177 373.588 83.2177C372.499 83.2177 371.628 83.8706 371.193 85.1765Z" fill="black"/>
<path d="M380.771 76.4706H383.384V91.4882H380.771V76.4706Z" fill="black"/>
<path d="M386.432 76.4706H389.045V91.4882H386.432V76.4706Z" fill="black"/>
<path d="M396.883 91.9235C393.399 91.9235 391.222 89.3118 391.222 86.4824C391.222 83.4353 393.182 81.0412 396.447 81.0412C399.277 81.0412 401.019 83 401.019 85.6118C401.019 86.2647 401.019 86.7 400.801 87.1353H393.835C394.052 88.8765 395.141 89.7471 396.883 89.7471C397.971 89.7471 398.842 89.3118 399.495 88.4412L401.237 89.9647C400.366 91.2706 398.842 91.9235 396.883 91.9235ZM394.052 85.1765H398.624C398.624 84.0883 397.753 83.2177 396.447 83.2177C395.141 83.2177 394.488 83.8706 394.052 85.1765Z" fill="black"/>
<path d="M241.438 102.806C242.745 102.806 243.833 103.241 244.486 103.894V98.2353H247.099V113.253H244.486V112.6C243.615 113.253 242.745 113.688 241.438 113.688C238.173 113.688 236.213 111.076 236.213 108.247C236.213 105.2 238.173 102.806 241.438 102.806ZM241.874 111.294C242.962 111.294 244.051 110.859 244.704 109.771V106.724C244.051 105.635 243.18 105.2 241.874 105.2C240.132 105.2 239.044 106.506 239.044 108.247C239.044 109.988 240.132 111.294 241.874 111.294Z" fill="black"/>
<path d="M256.895 103.024H259.508V108.682C259.508 111.729 257.766 113.471 254.718 113.471C251.67 113.471 249.929 111.512 249.929 108.682V103.024H252.541V108.682C252.541 110.206 253.412 111.076 254.718 111.076C256.025 111.076 256.895 110.206 256.895 108.682V103.024Z" fill="black"/>
<path d="M267.563 103.024H270.176V103.894C270.829 103.241 271.918 102.588 273.224 102.588C275.401 102.588 277.143 104.112 277.143 107.159V113.253H274.53V107.376C274.53 106.071 273.877 105.2 272.571 105.2C271.265 105.2 270.611 106.071 270.176 106.724V113.253H267.563V103.024Z" fill="black"/>
<path d="M286.504 103.024H289.116V108.682C289.116 111.729 287.375 113.471 284.327 113.471C281.279 113.471 279.537 111.512 279.537 108.682V103.024H282.15V108.682C282.15 110.206 283.02 111.076 284.327 111.076C285.633 111.076 286.504 110.206 286.504 108.682V103.024Z" fill="black"/>
<path d="M291.947 103.024H294.559V103.676C295.212 103.024 296.083 102.588 297.389 102.588C298.696 102.588 299.784 103.241 300.437 104.329C301.09 103.459 302.179 102.588 303.703 102.588C305.88 102.588 307.404 104.112 307.404 106.941V113.253H304.791V107.159C304.791 105.853 304.138 105.2 303.05 105.2C301.961 105.2 301.308 106.071 300.873 106.724C300.873 106.941 300.873 106.941 300.873 107.159V113.471H298.26V107.376C298.26 106.071 297.607 105.418 296.519 105.418C295.43 105.418 294.777 106.288 294.341 106.941V113.471H291.729V103.024H291.947Z" fill="black"/>
<path d="M315.242 113.688C311.759 113.688 309.582 111.076 309.582 108.247C309.582 105.2 311.541 102.806 314.807 102.806C317.637 102.806 319.378 104.765 319.378 107.376C319.378 108.029 319.378 108.465 319.161 108.9H312.194C312.412 110.641 313.5 111.512 315.242 111.512C316.331 111.512 317.201 111.076 317.854 110.206L319.596 111.729C318.725 112.818 317.201 113.688 315.242 113.688ZM312.412 106.724H316.984C316.984 105.635 316.113 104.765 314.807 104.765C313.718 104.765 312.847 105.418 312.412 106.724ZM313.936 101.5L316.113 98.2353H318.943L316.548 101.5H313.936Z" fill="black"/>
<path d="M321.99 103.024H324.603V104.112C325.256 103.459 326.127 102.806 327.215 102.806C327.651 102.806 327.868 102.806 328.086 103.024V105.635C327.868 105.635 327.433 105.418 326.998 105.418C325.691 105.418 325.038 106.071 324.603 106.724V113.035H321.99V103.024Z" fill="black"/>
<path d="M329.828 99.7589C329.828 98.8883 330.481 98.0177 331.57 98.0177C332.658 98.0177 333.311 98.6706 333.311 99.7589C333.311 100.629 332.658 101.5 331.57 101.5C330.481 101.5 329.828 100.629 329.828 99.7589ZM330.046 103.024H332.658V113.035H330.046V103.024Z" fill="black"/>
<path d="M340.06 102.806C341.366 102.806 342.455 103.241 343.108 103.894V103.241H345.72V118.259H343.108V112.6C342.237 113.253 341.366 113.688 340.06 113.688C336.794 113.688 334.835 111.076 334.835 108.247C335.053 105.2 337.012 102.806 340.06 102.806ZM340.495 111.294C341.584 111.294 342.672 110.859 343.326 109.771V106.724C342.672 105.635 341.802 105.2 340.495 105.2C338.754 105.2 337.665 106.506 337.665 108.247C337.665 109.988 338.754 111.294 340.495 111.294Z" fill="black"/>
<path d="M355.517 103.024H358.13V108.682C358.13 111.729 356.388 113.471 353.34 113.471C350.292 113.471 348.551 111.512 348.551 108.682V103.024H351.163V108.682C351.163 110.206 352.034 111.076 353.34 111.076C354.647 111.076 355.517 110.206 355.517 108.682V103.024Z" fill="black"/>
<path d="M365.75 113.688C362.266 113.688 360.089 111.076 360.089 108.247C360.089 105.2 362.049 102.806 365.314 102.806C368.145 102.806 369.886 104.765 369.886 107.376C369.886 108.029 369.886 108.465 369.669 108.9H362.702C362.92 110.641 364.008 111.512 365.75 111.512C366.838 111.512 367.709 111.076 368.362 110.206L370.104 111.729C369.233 112.818 367.709 113.688 365.75 113.688ZM362.92 106.724H367.491C367.491 105.635 366.621 104.765 365.314 104.765C364.226 104.765 363.355 105.418 362.92 106.724Z" fill="black"/>
</svg>
