<?xml version="1.0" encoding="UTF-8"?>
<svg width="188px" height="37px" viewBox="0 0 188 37" version="1.1" xmlns="http://www.w3.org/2000/svg" xmlns:xlink="http://www.w3.org/1999/xlink">
    <title>DesignGouv</title>
    <defs>
        <path d="M891.069202,2621.83168 C892.861449,2621.83168 894.50794,2621.52673 896.008677,2620.91683 C897.509414,2620.30693 898.78882,2619.47921 899.846893,2618.43366 C900.904967,2617.38812 901.730912,2616.17376 902.324728,2614.79059 C902.918545,2613.40743 903.215454,2611.94257 903.215454,2610.39604 C903.215454,2608.8495 902.918545,2607.38465 902.324728,2606.00149 C901.730912,2604.61832 900.904967,2603.40396 899.846893,2602.35842 C898.78882,2601.31287 897.509414,2600.48515 896.008677,2599.87525 C894.50794,2599.26535 892.861449,2598.9604 891.069202,2598.9604 L891.069202,2598.9604 L882,2598.9604 L882,2621.83168 L891.069202,2621.83168 Z M891.101592,2616.57129 L887.765421,2616.57129 L887.765421,2604.22079 L891.101592,2604.22079 C892.872245,2604.22079 894.340592,2604.80891 895.506632,2605.98515 C896.672672,2607.16139 897.255693,2608.63168 897.255693,2610.39604 C897.255693,2612.1604 896.672672,2613.63069 895.506632,2614.80693 C894.340592,2615.98317 892.872245,2616.57129 891.101592,2616.57129 L891.101592,2616.57129 Z M914.396356,2622.48515 C915.951077,2622.48515 917.354644,2622.19109 918.607057,2621.60297 C919.859471,2621.01485 920.874358,2620.20891 921.651718,2619.18515 L921.651718,2619.18515 L918.024037,2616.27723 C917.65695,2616.75644 917.165702,2617.13762 916.550292,2617.42079 C915.934882,2617.70396 915.249293,2617.84554 914.493526,2617.84554 C913.41386,2617.84554 912.533931,2617.61139 911.853741,2617.14307 C911.173551,2616.67475 910.725489,2615.97228 910.509556,2615.03564 L910.509556,2615.03564 L921.068698,2615.03564 C921.155071,2614.75248 921.230648,2614.3604 921.295428,2613.85941 C921.360208,2613.35842 921.392598,2612.83564 921.392598,2612.29109 C921.392598,2610.06931 920.690814,2608.2505 919.287247,2606.83465 C917.88368,2605.41881 916.026653,2604.71089 913.716166,2604.71089 C912.334193,2604.71089 911.114169,2604.9505 910.056096,2605.4297 C908.998022,2605.90891 908.112695,2606.55149 907.400115,2607.35743 C906.687535,2608.16337 906.147702,2609.11089 905.780615,2610.2 C905.413528,2611.28911 905.229985,2612.42178 905.229985,2613.59802 C905.229985,2614.79604 905.429723,2615.93416 905.8292,2617.01238 C906.228677,2618.09059 906.811697,2619.03267 907.57826,2619.83861 C908.344824,2620.64455 909.300329,2621.28713 910.444776,2621.76634 C911.589223,2622.24554 912.906416,2622.48515 914.396356,2622.48515 Z M916.339757,2611.21287 L910.703896,2611.21287 C910.941423,2610.40693 911.313908,2609.83515 911.821351,2609.49752 C912.328794,2609.1599 912.9604,2608.99109 913.716166,2608.99109 C914.601493,2608.99109 915.254692,2609.22525 915.675762,2609.69356 C916.096832,2610.16188 916.318163,2610.66832 916.339757,2611.21287 L916.339757,2611.21287 Z M929.91752,2622.48515 C930.69488,2622.48515 931.456045,2622.36535 932.201015,2622.12574 C932.945986,2621.88614 933.604582,2621.53218 934.176806,2621.06386 C934.749029,2620.59554 935.213286,2620.01287 935.569576,2619.31584 C935.925866,2618.61881 936.114808,2617.80198 936.136401,2616.86535 C936.136401,2615.38416 935.753119,2614.28416 934.986556,2613.56535 C934.219992,2612.84653 933.383251,2612.30198 932.476331,2611.93168 C931.56941,2611.56139 930.732669,2611.25099 929.966105,2611.0005 C929.199542,2610.75 928.81626,2610.36337 928.81626,2609.84059 C928.81626,2609.55743 928.924227,2609.32871 929.14016,2609.15446 C929.356093,2608.9802 929.69079,2608.89307 930.14425,2608.89307 C930.72727,2608.89307 931.261705,2609.07822 931.747555,2609.44851 C932.233405,2609.81881 932.670671,2610.23267 933.059351,2610.6901 L933.059351,2610.6901 L936.427911,2607.58614 C935.823298,2606.7802 934.948768,2606.0995 933.804321,2605.54406 C932.659874,2604.98861 931.43985,2604.71089 930.14425,2604.71089 C928.352003,2604.71089 926.867461,2605.21733 925.690624,2606.2302 C924.513787,2607.24307 923.925369,2608.53366 923.925369,2610.10198 C923.925369,2611.58317 924.308651,2612.68317 925.075214,2613.40198 C925.841778,2614.12079 926.67852,2614.67079 927.58544,2615.05198 C928.49236,2615.43317 929.329102,2615.74901 930.095665,2615.9995 C930.862229,2616.25 931.24551,2616.65842 931.24551,2617.22475 C931.24551,2617.55149 931.132145,2617.81287 930.905415,2618.00891 C930.678685,2618.20495 930.327793,2618.30297 929.85274,2618.30297 C929.118567,2618.30297 928.470767,2618.09059 927.90934,2617.66584 C927.347913,2617.24109 926.851266,2616.74554 926.419399,2616.17921 L926.419399,2616.17921 L923.050839,2619.34851 C923.871386,2620.28515 924.832289,2621.04208 925.933549,2621.61931 C927.03481,2622.19653 928.3628,2622.48515 929.91752,2622.48515 Z M941.681443,2603.56733 C942.545177,2603.56733 943.295545,2603.23515 943.932548,2602.57079 C944.569552,2601.90644 944.888054,2601.13861 944.888054,2600.26733 C944.888054,2599.39604 944.569552,2598.63366 943.932548,2597.9802 C943.295545,2597.32673 942.545177,2597 941.681443,2597 C940.796116,2597 940.029553,2597.32673 939.381753,2597.9802 C938.733953,2598.63366 938.410052,2599.39604 938.410052,2600.26733 C938.410052,2601.13861 938.733953,2601.90644 939.381753,2602.57079 C940.029553,2603.23515 940.796116,2603.56733 941.681443,2603.56733 Z M944.207863,2621.83168 L944.207863,2605.36436 L939.057853,2605.36436 L939.057853,2621.83168 L944.207863,2621.83168 Z M955.226816,2630 C957.947577,2630 960.07452,2629.35743 961.607647,2628.07228 C963.140774,2626.78713 963.907338,2625.16436 963.907338,2623.20396 C963.907338,2621.63564 963.340513,2620.32871 962.206863,2619.28317 C961.073212,2618.23762 959.52389,2617.71485 957.558897,2617.71485 L957.558897,2617.71485 L953.834046,2617.71485 C953.574926,2617.71485 953.364391,2617.65495 953.202441,2617.53515 C953.040491,2617.41535 952.959516,2617.21386 952.959516,2616.93069 C952.959516,2616.82178 952.986508,2616.70743 953.040491,2616.58762 C953.094474,2616.46782 953.164653,2616.36436 953.251026,2616.27723 C953.402179,2616.29901 953.553333,2616.3099 953.704486,2616.3099 L953.704486,2616.3099 L954.157946,2616.3099 C956.338873,2616.3099 958.012357,2615.74901 959.178397,2614.62723 C960.344437,2613.50545 960.927457,2612.12772 960.927457,2610.49406 L960.927457,2610.49406 L960.927457,2610.10198 C960.927457,2609.97129 960.916661,2609.84059 960.895067,2609.7099 L960.895067,2609.7099 L963.453878,2609.7099 L963.453878,2605.36436 L957.591287,2605.36436 C957.116233,2605.14653 956.592595,2604.98317 956.020371,2604.87426 C955.448148,2604.76535 954.82734,2604.71089 954.157946,2604.71089 C952.020206,2604.71089 950.368316,2605.26634 949.202275,2606.37723 C948.036235,2607.48812 947.453215,2608.8604 947.453215,2610.49406 C947.453215,2611.40891 947.636758,2612.25297 948.003845,2613.02624 C948.370932,2613.7995 948.910765,2614.45842 949.623345,2615.00297 C949.018732,2615.48218 948.586865,2615.98861 948.327745,2616.52228 C948.068625,2617.05594 947.939065,2617.6604 947.939065,2618.33564 C947.939065,2618.7495 948.02004,2619.16337 948.18199,2619.57723 C948.34394,2619.99109 948.565272,2620.37228 948.845985,2620.72079 C948.176592,2621.22178 947.652953,2621.79901 947.27507,2622.45248 C946.897187,2623.10594 946.708245,2623.83564 946.708245,2624.64158 C946.708245,2626.42772 947.442418,2627.76733 948.910765,2628.6604 C950.379112,2629.55347 952.484463,2630 955.226816,2630 Z M954.190336,2612.5198 C953.564129,2612.5198 953.051288,2612.35099 952.651811,2612.01337 C952.252334,2611.67574 952.052596,2611.16931 952.052596,2610.49406 C952.052596,2609.84059 952.252334,2609.34505 952.651811,2609.00743 C953.051288,2608.6698 953.564129,2608.50099 954.190336,2608.50099 C954.816543,2608.50099 955.334783,2608.66436 955.745056,2608.99109 C956.15533,2609.31782 956.360467,2609.81881 956.360467,2610.49406 C956.360467,2611.16931 956.15533,2611.67574 955.745056,2612.01337 C955.334783,2612.35099 954.816543,2612.5198 954.190336,2612.5198 Z M955.162036,2625.91584 C953.866436,2625.91584 952.932524,2625.73069 952.360301,2625.3604 C951.788077,2624.9901 951.501966,2624.48911 951.501966,2623.85743 C951.501966,2623.46535 951.582941,2623.12772 951.744891,2622.84455 C951.906841,2622.56139 952.138969,2622.32178 952.441276,2622.12574 L952.441276,2622.12574 L956.911097,2622.12574 C957.558897,2622.12574 958.044747,2622.27822 958.368647,2622.58317 C958.692547,2622.88812 958.854497,2623.2802 958.854497,2623.75941 C958.854497,2624.36931 958.562987,2624.88119 957.979967,2625.29505 C957.396947,2625.70891 956.457637,2625.91584 955.162036,2625.91584 Z M971.07188,2621.83168 L971.07188,2611.57228 C971.158253,2611.44158 971.271618,2611.26188 971.411975,2611.03317 C971.552332,2610.80446 971.741273,2610.58119 971.9788,2610.36337 C972.216327,2610.14554 972.502439,2609.9604 972.837135,2609.80792 C973.171832,2609.65545 973.56591,2609.57921 974.01937,2609.57921 C974.839917,2609.57921 975.466124,2609.84059 975.897991,2610.36337 C976.329858,2610.88614 976.545791,2611.56139 976.545791,2612.38911 L976.545791,2612.38911 L976.545791,2621.83168 L981.728192,2621.83168 L981.728192,2612.1604 C981.728192,2610.91881 981.560843,2609.8297 981.226147,2608.89307 C980.89145,2607.95644 980.43799,2607.17772 979.865766,2606.55693 C979.293543,2605.93614 978.62415,2605.47327 977.857586,2605.16832 C977.091023,2604.86337 976.275874,2604.71089 975.412141,2604.71089 C974.462034,2604.71089 973.636089,2604.85792 972.934305,2605.15198 C972.232522,2605.44604 971.611713,2605.82178 971.07188,2606.27921 L971.07188,2606.27921 L971.07188,2605.36436 L965.921869,2605.36436 L965.921869,2621.83168 L971.07188,2621.83168 Z M997.022625,2622.48515 C999.160366,2622.48515 1001.08757,2622.06584 1002.80424,2621.22723 C1004.52091,2620.38861 1005.90828,2619.26139 1006.96636,2617.84554 L1006.96636,2617.84554 L1006.96636,2607.55347 L995.986145,2607.55347 L995.986145,2612.81386 L1001.20094,2612.81386 L1001.20094,2615.65644 C1000.6611,2616.0703 1000.04029,2616.40248 999.338511,2616.65297 C998.636727,2616.90347 997.864766,2617.02871 997.022625,2617.02871 C995.144005,2617.02871 993.583886,2616.40248 992.34227,2615.15 C991.100653,2613.89752 990.479844,2612.31287 990.479844,2610.39604 C990.479844,2608.50099 991.062864,2606.92178 992.228905,2605.65842 C993.394945,2604.39505 994.884885,2603.76337 996.698725,2603.76337 C997.821579,2603.76337 998.809474,2604.01386 999.662411,2604.51485 C1000.51535,2605.01584 1001.21173,2605.65842 1001.75157,2606.44257 L1001.75157,2606.44257 L1006.31856,2602.91386 C1005.26048,2601.54158 1003.9109,2600.43069 1002.26981,2599.58119 C1000.62871,2598.73168 998.771686,2598.30693 996.698725,2598.30693 C994.906478,2598.30693 993.259986,2598.63366 991.759249,2599.28713 C990.258513,2599.94059 988.979107,2600.81188 987.921034,2601.90099 C986.86296,2602.9901 986.037015,2604.2698 985.443198,2605.7401 C984.849382,2607.2104 984.552473,2608.76238 984.552473,2610.39604 C984.552473,2612.0297 984.85478,2613.58168 985.459393,2615.05198 C986.064007,2616.52228 986.911545,2617.80198 988.002009,2618.89109 C989.092472,2619.9802 990.409666,2620.85149 991.95359,2621.50495 C993.497513,2622.15842 995.187192,2622.48515 997.022625,2622.48515 Z M1018.92462,2622.48515 C1020.26341,2622.48515 1021.48343,2622.25644 1022.58469,2621.79901 C1023.68595,2621.34158 1024.63066,2620.71535 1025.41882,2619.9203 C1026.20697,2619.12525 1026.82238,2618.18317 1027.26505,2617.09406 C1027.70771,2616.00495 1027.92904,2614.8396 1027.92904,2613.59802 C1027.92904,2612.35644 1027.70771,2611.19109 1027.26505,2610.10198 C1026.82238,2609.01287 1026.20697,2608.07079 1025.41882,2607.27574 C1024.63066,2606.48069 1023.68595,2605.85446 1022.58469,2605.39703 C1021.48343,2604.9396 1020.26341,2604.71089 1018.92462,2604.71089 C1017.58583,2604.71089 1016.36041,2604.9396 1015.24835,2605.39703 C1014.1363,2605.85446 1013.18619,2606.48069 1012.39803,2607.27574 C1011.60988,2608.07079 1010.99447,2609.01287 1010.5518,2610.10198 C1010.10914,2611.19109 1009.88781,2612.35644 1009.88781,2613.59802 C1009.88781,2614.8396 1010.10914,2616.00495 1010.5518,2617.09406 C1010.99447,2618.18317 1011.60988,2619.12525 1012.39803,2619.9203 C1013.18619,2620.71535 1014.1363,2621.34158 1015.24835,2621.79901 C1016.36041,2622.25644 1017.58583,2622.48515 1018.92462,2622.48515 Z M1018.95701,2617.61683 C1017.89894,2617.61683 1017.01361,2617.25198 1016.30103,2616.52228 C1015.58845,2615.79257 1015.23216,2614.81782 1015.23216,2613.59802 C1015.23216,2612.37822 1015.58845,2611.40347 1016.30103,2610.67376 C1017.01361,2609.94406 1017.89894,2609.57921 1018.95701,2609.57921 C1019.99349,2609.57921 1020.86262,2609.93861 1021.56441,2610.65743 C1022.26619,2611.37624 1022.61708,2612.35644 1022.61708,2613.59802 C1022.61708,2614.79604 1022.26619,2615.76535 1021.56441,2616.50594 C1020.86262,2617.24653 1019.99349,2617.61683 1018.95701,2617.61683 Z M1038.42975,2622.48515 C1040.93458,2622.48515 1042.88338,2621.75 1044.27615,2620.2797 C1045.66892,2618.80941 1046.36531,2616.84356 1046.36531,2614.38218 L1046.36531,2614.38218 L1046.36531,2605.36436 L1041.1829,2605.36436 L1041.1829,2614.67624 C1041.1829,2615.54752 1040.96157,2616.25545 1040.51891,2616.8 C1040.07625,2617.34455 1039.39066,2617.61683 1038.46214,2617.61683 C1037.51204,2617.61683 1036.81565,2617.34455 1036.37299,2616.8 C1035.93033,2616.25545 1035.70899,2615.54752 1035.70899,2614.67624 L1035.70899,2614.67624 L1035.70899,2605.36436 L1030.52659,2605.36436 L1030.52659,2614.38218 C1030.52659,2616.84356 1031.21218,2618.80941 1032.58336,2620.2797 C1033.95454,2621.75 1035.90333,2622.48515 1038.42975,2622.48515 Z M1060.39653,2621.83168 L1066,2605.36436 L1060.4937,2605.36436 L1057.02797,2615.59109 L1053.52985,2605.36436 L1048.02355,2605.36436 L1053.62702,2621.83168 L1060.39653,2621.83168 Z" id="path-1"></path>
        <filter x="-1.1%" y="-6.1%" width="104.3%" height="124.2%" filterUnits="objectBoundingBox" id="filter-2">
            <feOffset dx="4" dy="4" in="SourceAlpha" result="shadowOffsetOuter1"></feOffset>
            <feColorMatrix values="0 0 0 0 0.474509804   0 0 0 0 0.968627451   0 0 0 0 0.917647059  0 0 0 1 0" type="matrix" in="shadowOffsetOuter1"></feColorMatrix>
        </filter>
    </defs>
    <g id="Site" stroke="none" stroke-width="1" fill="none" fill-rule="evenodd">
        <g id="DesignGouv" transform="translate(-882.000000, -2597.000000)">
            <use fill="black" fill-opacity="1" filter="url(#filter-2)" xlink:href="#path-1"></use>
            <use fill="#0E37DD" fill-rule="evenodd" xlink:href="#path-1"></use>
        </g>
    </g>
</svg>