<?xml version="1.0" encoding="UTF-8"?>
<svg viewBox="0 0 121 112" version="1.1" xmlns="http://www.w3.org/2000/svg" xmlns:xlink="http://www.w3.org/1999/xlink">
    <g id="LEF" transform="translate(0.000000, 75.236269)" fill="#000000">
        <path d="M48.664942,30.4841585 C49.095952,30.4841585 49.4681879,30.8172117 49.2722743,31.5812748 L47.2935467,32.1102416 C47.6070085,31.1698562 48.1947494,30.4841585 48.664942,30.4841585 M49.7620583,33.6971418 L49.3702311,33.6971418 C48.880447,34.2848827 48.3318889,34.7550754 47.8029221,34.7550754 C47.254364,34.7550754 46.980085,34.4220222 46.980085,33.6971418 C46.980085,33.4032714 47.0192677,33.0898096 47.0780418,32.8155306 L50.2910251,31.757597 C50.9179486,30.2686536 50.1538855,29.6221386 49.2722743,29.6221386 C47.7441481,29.6221386 46.0201082,32.2865638 46.0201082,34.3828395 C46.0201082,35.3819989 46.4903009,35.930557 47.2347727,35.930557 C48.1163839,35.930557 49.0175866,35.0881285 49.7620583,33.6971418 M49.2526829,28.9168496 L51.0746795,27.2515839 L51.0746795,27.0164876 L49.8600151,27.0164876 L48.7824902,28.936441 L49.2526829,28.936441 L49.2526829,28.9168496 Z M42.4152977,30.5233413 L43.4732312,30.5233413 L41.7883741,35.1469026 C41.6316433,35.5387298 41.8471482,35.930557 42.2585668,35.930557 C43.4536399,35.930557 44.8838093,34.9118062 45.4323674,33.4620455 L45.138497,33.4620455 C44.707487,34.0693777 43.7671017,34.735484 43.0618126,34.8726235 L44.6095302,30.5233413 L46.1964305,30.5233413 L46.3923441,29.857235 L44.8446265,29.857235 L45.4323674,28.1919692 L44.8250352,28.1919692 L43.7279189,29.857235 L42.4152977,30.0335572 L42.4152977,30.5233413 L42.4152977,30.5233413 Z M41.3181815,30.2882449 C41.455321,29.857235 41.1614506,29.6221386 40.9459456,29.6221386 C40.0251516,29.6221386 38.908444,30.4645672 38.477434,31.6204575 L38.7713045,31.6204575 C39.0651749,31.1894476 39.5745503,30.7192549 40.0643343,30.6408894 L38.2815204,35.2644508 C38.1247895,35.6954607 38.4382513,35.930557 38.6733477,35.930557 C39.5549589,35.930557 40.5933011,35.0881285 41.024311,33.9322382 L40.7304406,33.9322382 C40.4365702,34.3632481 39.9271948,34.8334408 39.4374108,34.9118062 L41.3181815,30.2882449 Z M41.4945037,28.4466569 C41.886331,28.4466569 42.2193841,28.1136038 42.2193841,27.7217766 C42.2193841,27.3299493 41.886331,26.9968962 41.4945037,26.9968962 C41.0830851,26.9968962 40.7696233,27.3299493 40.7696233,27.7217766 C40.7696233,28.1331952 41.0830851,28.4466569 41.4945037,28.4466569 M32.893896,30.9151685 C33.1681751,30.9151685 33.324906,31.3461785 32.893896,32.3061552 L31.6400489,35.0881285 C31.4049525,35.6170953 31.6596402,35.9501484 32.1690156,35.9501484 C32.4824774,35.9501484 32.6196169,35.871783 32.7567565,35.5387298 L33.9910123,32.2865638 C34.5591617,31.5812748 35.6170953,30.8368031 36.0872879,30.8368031 C36.4203411,30.8368031 36.3811584,31.1110821 36.1656534,31.5420921 L34.2652913,35.1664939 C34.0889691,35.5191385 34.3240654,35.9501484 34.735484,35.9501484 C35.656278,35.9501484 36.7729856,35.1077199 37.2039955,33.9518295 L36.8709424,33.9518295 C36.577072,34.3828395 36.0676966,34.8530322 35.5779125,34.9313976 L37.2039955,31.6400489 C37.4195005,31.2286303 37.5174573,30.8368031 37.5174573,30.5233413 C37.5174573,29.9943745 37.2235869,29.64173 36.6554374,29.64173 C35.8521916,29.64173 35.1664939,30.5429326 34.1869259,31.6596402 L34.1869259,30.7976203 C34.1869259,30.1902881 33.9910123,29.64173 33.4424541,29.64173 C32.7959392,29.64173 32.2081984,30.6604808 31.7380057,31.6400489 L32.0318761,31.6400489 C32.3649292,31.1698562 32.6587997,30.9151685 32.893896,30.9151685 M31.6204575,31.0327167 C31.8359625,30.2686536 31.7184143,29.6221386 31.1502648,29.6221386 C30.4253845,29.6221386 30.1902881,30.1119227 29.4849991,31.6400489 L29.4849991,30.778029 C29.4849991,30.1706968 29.2890855,29.6221386 28.7405274,29.6221386 C28.0940124,29.6221386 27.5062716,30.6408894 27.0360789,31.6204575 L27.3299493,31.6204575 C27.6434111,31.1698562 27.9372815,30.8955771 28.1723779,30.8955771 C28.4466569,30.8955771 28.6033878,31.3265871 28.1723779,32.2865638 L26.9185307,35.0685371 C26.6834344,35.5975039 26.9381221,35.930557 27.4474975,35.930557 C27.7609593,35.930557 27.8980988,35.8521916 28.0352384,35.5191385 L29.2303114,32.2669724 C29.5829559,31.8359625 29.8964177,31.4637266 30.2882449,31.052308 L31.6204575,31.052308 L31.6204575,31.0327167 Z M24.7830723,30.4841585 C25.2140823,30.4841585 25.5863182,30.8172117 25.3904045,31.5812748 L23.411677,32.1102416 C23.7447302,31.1698562 24.3128797,30.4841585 24.7830723,30.4841585 M25.8801886,33.6971418 L25.4883614,33.6971418 C24.9985773,34.2848827 24.4500192,34.7550754 23.9210524,34.7550754 C23.3724943,34.7550754 23.0982152,34.4220222 23.0982152,33.6971418 C23.0982152,33.4032714 23.137398,33.0898096 23.1961721,32.8155306 L26.4091553,31.757597 C27.0360789,30.2686536 26.2916072,29.6221386 25.3904045,29.6221386 C23.8622783,29.6221386 22.1382385,32.2865638 22.1382385,34.3828395 C22.1382385,35.3819989 22.6084312,35.930557 23.3529029,35.930557 C24.2345142,35.930557 25.1357168,35.0881285 25.8801886,33.6971418 M18.533428,30.5233413 L19.5913615,30.5233413 L17.9065044,35.1469026 C17.7497735,35.5387298 17.9652785,35.930557 18.3766971,35.930557 C19.5717702,35.930557 21.0215309,34.9118062 21.5504977,33.4620455 L21.2566273,33.4620455 C20.8256173,34.0693777 19.885232,34.735484 19.1799429,34.8726235 L20.7276605,30.5233413 L22.3145608,30.5233413 L22.5104744,29.857235 L20.9627568,29.857235 L21.5504977,28.1919692 L20.9431655,28.1919692 L19.8460492,29.857235 L18.533428,30.0335572 L18.533428,30.5233413 L18.533428,30.5233413 Z M12.9107072,34.1281518 C12.9107072,32.6979824 14.4976075,30.7584376 15.3988102,30.7584376 C15.5947238,30.7584376 15.7906374,30.778029 15.9473683,30.8368031 L15.0265743,33.3053146 C14.4976075,33.9518295 13.6747703,34.735484 13.2829431,34.735484 C13.0478468,34.735484 12.9107072,34.5591617 12.9107072,34.1281518 M17.7889563,29.3478596 L17.2991722,29.3086769 L16.7506141,29.857235 L16.6526573,29.857235 C14.3212853,29.857235 11.813591,32.7567565 11.813591,35.0489458 C11.813591,35.5779125 12.1074614,35.930557 12.6756109,35.930557 C13.3613086,35.930557 14.0274149,34.950989 14.791478,33.9126468 L14.7522952,34.2848827 C14.6543384,35.3428162 14.9873916,35.930557 15.5359497,35.930557 C16.1824646,35.930557 16.7702055,34.9118062 17.2208068,33.9322382 L16.9269364,33.9322382 C16.6134746,34.3828395 16.3196042,34.6571185 16.0845078,34.6571185 C15.8494115,34.6571185 15.6730892,34.2065172 16.0845078,33.2661319 L17.7889563,29.3478596 Z M12.7931591,31.0327167 C13.0086641,30.2686536 12.8911159,29.6221386 12.3229664,29.6221386 C11.598086,29.6221386 11.3629897,30.1119227 10.6577007,31.6400489 L10.6577007,30.778029 C10.6577007,30.1706968 10.4617871,29.6221386 9.89363757,29.6221386 C9.24712264,29.6221386 8.6593818,30.6408894 8.20878048,31.6204575 L8.5026509,31.6204575 C8.81611269,31.1698562 9.10998311,30.8955771 9.34507945,30.8955771 C9.61935851,30.8955771 9.7760894,31.3265871 9.34507945,32.2865638 L8.07164095,35.0881285 C7.83654461,35.6170953 8.09123231,35.9501484 8.60060771,35.9501484 C8.9140695,35.9501484 9.05120903,35.871783 9.18834856,35.5387298 L10.4226043,32.2669724 C10.7752488,31.8359625 11.0887106,31.4637266 11.4805379,31.052308 L12.7931591,31.052308 L12.7931591,31.0327167 Z M4.5843786,35.7150521 L4.70192677,35.3624076 C3.15420921,35.0685371 2.95829559,35.0685371 3.58521916,33.38368 L4.17296001,31.7967798 L5.40721578,31.7967798 C6.17127888,31.7967798 6.19087024,32.1298329 6.07332207,32.9722615 L6.52392339,32.9722615 L7.54267419,30.1706968 L7.09207287,30.1706968 C6.70024564,30.8368031 6.40637522,31.3461785 5.56394667,31.3461785 L4.3296909,31.3461785 L5.17211944,29.0539892 C5.46598987,28.231152 5.6031294,28.0744211 6.66106292,28.0744211 L6.93534198,28.0744211 C8.01286687,28.0744211 8.1500064,28.3682915 8.1500064,29.5045905 L8.58101635,29.5045905 L8.93366086,27.6042284 L2.95829559,27.6042284 L2.84074742,27.9568729 C4.0750032,28.2115606 4.19255137,28.3291088 3.62440188,29.9356004 L2.35096338,33.4032714 C1.76322254,34.9901717 1.5281262,35.1273112 0.0979568077,35.3819989 L2.78409992e-14,35.7346434 L4.5843786,35.7346434 L4.5843786,35.7150521 Z" id="Shape"></path>
        <path d="M34.2261086,16.9857104 C34.6571185,16.9857104 35.0293544,17.3187636 34.8334408,18.0828267 L32.8547133,18.6117935 C33.1681751,17.6714081 33.7559159,16.9857104 34.2261086,16.9857104 M35.3232248,20.1986937 L34.9313976,20.1986937 C34.4416136,20.7864346 33.8930554,21.2566273 33.3640887,21.2566273 C32.8155306,21.2566273 32.5412515,20.9235741 32.5412515,20.1986937 C32.5412515,19.9048233 32.5804342,19.5913615 32.6392083,19.3170825 L35.8521916,18.2591489 C36.4791152,16.7702055 35.7150521,16.1236905 34.8334408,16.1236905 C33.3053146,16.1236905 31.5812748,18.7881157 31.5812748,20.8843914 C31.5812748,21.8835508 32.0514675,22.432109 32.7959392,22.432109 C33.6775505,22.4517003 34.5787531,21.5896804 35.3232248,20.1986937 M34.8138494,15.4184015 L36.6358461,13.7531358 L36.6358461,13.5180395 L35.4211816,13.5180395 L34.3436568,15.4379929 L34.8138494,15.4379929 L34.8138494,15.4184015 Z M27.9764643,17.0248932 L29.0343978,17.0248932 L27.3495407,21.6484545 C27.1928098,22.0402817 27.4083148,22.432109 27.8197334,22.432109 C29.0148064,22.432109 30.4449758,21.4133582 30.9935339,19.9635974 L30.6996635,19.9635974 C30.2686536,20.5709296 29.3282682,21.2370359 28.6229792,21.3741754 L30.1706968,17.0248932 L31.757597,17.0248932 L31.9535107,16.3587869 L30.4057931,16.3587869 L30.9935339,14.6935211 L30.3862017,14.6935211 L29.2890855,16.3587869 L27.9764643,16.5547005 L27.9764643,17.0248932 Z M26.879348,16.8093882 C27.0164876,16.3783782 26.7226171,16.1432819 26.4875208,16.1432819 C25.5667268,16.1432819 24.4500192,16.9857104 24.0190092,18.1416008 L24.3128797,18.1416008 C24.6067501,17.7105908 25.1161255,17.2403981 25.6059095,17.1620327 L23.8230956,21.785594 C23.6663647,22.216604 23.9798265,22.4517003 24.2149229,22.4517003 C25.0965341,22.4517003 26.1348763,21.6092718 26.5658862,20.4533814 L26.2720158,20.4533814 C25.9781454,20.8843914 25.46877,21.3545841 24.978986,21.4329495 L26.879348,16.8093882 Z M27.0556703,14.9678002 C27.4474975,14.9678002 27.7805507,14.6347471 27.7805507,14.2429198 C27.7805507,13.8510926 27.4474975,13.5180395 27.0556703,13.5180395 C26.6442517,13.5180395 26.3307899,13.8510926 26.3307899,14.2429198 C26.3307899,14.6347471 26.6442517,14.9678002 27.0556703,14.9678002 M21.3741754,21.4329495 L24.3128797,13.6355876 L24.2149229,13.4984481 L22.1774213,13.7335444 L22.1774213,13.9686408 L22.5692485,14.2625112 C22.921893,14.5367903 22.8043448,14.791478 22.490883,15.6730892 L20.2574678,21.6288631 C20.0615542,21.9815076 20.3162419,22.4125176 20.7276605,22.4125176 C21.6484545,22.4125176 22.6476139,21.570089 23.0786239,20.4141987 L22.7847535,20.4141987 C22.4712917,20.8648 21.8443681,21.3349927 21.3741754,21.4329495 M15.3792188,20.6297037 C15.3792188,19.1995343 16.9661191,17.2599895 17.8673217,17.2599895 C18.0632353,17.2599895 18.2395576,17.2795809 18.4158798,17.338355 L17.4754945,19.8068665 C16.9465277,20.4533814 16.1236905,21.2370359 15.7318633,21.2370359 C15.5163583,21.2566273 15.3792188,21.0607136 15.3792188,20.6297037 M20.2574678,15.8690028 L19.7676838,15.8298201 L19.2191257,16.3783782 L19.1211689,16.3783782 C16.7897968,16.3783782 14.2821026,19.2778997 14.2821026,21.570089 C14.2821026,22.0990558 14.575973,22.4517003 15.1441225,22.4517003 C15.8298201,22.4517003 16.4959264,21.4721322 17.2599895,20.4337901 L17.2208068,20.8060259 C17.12285,21.8639595 17.4559031,22.4517003 18.0044612,22.4517003 C18.6509762,22.4517003 19.238717,21.4329495 19.6893183,20.4533814 L19.3954479,20.4533814 C19.0819861,20.9039828 18.7881157,21.1782618 18.5530194,21.1782618 C18.317923,21.1782618 18.1416008,20.7276605 18.5530194,19.8068665 L20.2574678,15.8690028 Z M8.9140695,23.5684079 C8.9140695,22.9610757 9.50181034,22.5692485 10.3442389,22.2361953 C10.618518,22.3733349 11.0495279,22.5300658 11.598086,22.706388 C12.4796973,23.0002584 12.8127504,23.1178066 12.8127504,23.3724943 C12.8127504,23.9406438 12.0095046,24.3716537 10.5401525,24.3716537 C9.44303626,24.3912451 8.9140695,24.1561488 8.9140695,23.5684079 M11.323807,19.8264579 C10.9319797,19.8264579 10.7948402,19.4934047 10.7948402,19.1211689 C10.7948402,17.9652785 11.3433983,16.5742919 12.2250096,16.5742919 C12.6168368,16.5742919 12.7539764,16.907345 12.7539764,17.2795809 C12.7539764,18.4158798 12.1858269,19.8264579 11.323807,19.8264579 M13.8315012,23.0002584 C13.8315012,22.2557867 13.1653949,21.9815076 12.0878701,21.6680459 C11.1670761,21.3937668 10.7360661,21.3154013 10.7360661,21.0019396 C10.7360661,20.7668432 10.9319797,20.4729728 11.323807,20.2574678 C12.8519332,20.1791024 13.8119099,18.8077071 13.8119099,17.5930427 C13.8119099,17.3775377 13.7727272,17.1816241 13.7139531,17.0053018 L14.7522952,17.0053018 L14.9482088,16.3391955 L13.1849863,16.3391955 C12.94989,16.1824646 12.6560195,16.1040992 12.3229664,16.1040992 C10.7164748,16.1040992 9.6781326,17.5146772 9.6781326,18.7685243 C9.6781326,19.5717702 10.1483253,20.1203283 10.892797,20.2182851 C10.1483253,20.5709296 9.71731532,20.9431655 9.71731532,21.4133582 C9.71731532,21.6876372 9.81527213,21.8835508 10.0503685,22.0598731 C8.32632865,22.5692485 7.62103964,23.2157634 7.62103964,23.9602352 C7.62103964,24.763481 8.67897316,25.0965341 9.9328203,25.0965341 C12.0486873,25.1161255 13.8315012,23.9602352 13.8315012,23.0002584 M5.83822574,18.2983317 C6.60228884,18.2983317 6.6218802,18.6313848 6.50433203,19.4738134 L6.95493334,19.4738134 L7.97368414,16.6722487 L7.52308283,16.6722487 C7.1312556,17.338355 6.83738517,17.8477304 5.99495663,17.8477304 L4.29050818,17.8477304 L5.13293672,15.5555411 C5.42680714,14.7327039 5.58353804,14.575973 6.6218802,14.575973 L7.36635194,14.575973 C8.44387682,14.575973 8.58101635,14.8698434 8.58101635,16.0061424 L9.0120263,16.0061424 L9.36467081,14.1057803 L2.95829559,14.1057803 L2.84074742,14.4584248 C4.0750032,14.7131125 4.19255137,14.8306607 3.62440188,16.4371523 L2.35096338,19.9048233 C1.76322254,21.4917236 1.5281262,21.6288631 0.0979568077,21.8835508 L0,22.2361953 L7.1312556,22.2361953 L8.4046941,20.2182851 L7.91491006,20.2182851 C7.09207287,21.0411223 6.24964433,21.7660027 4.66274404,21.7660027 C2.76238198,21.7660027 2.93870423,21.6680459 3.5656278,19.9048233 L4.15336864,18.317923 L5.83822574,18.317923 L5.83822574,18.2983317 Z M6.75901973,13.5180395 L8.58101635,12.1858269 L8.58101635,11.9507305 L7.36635194,11.9507305 L6.28882705,13.5180395 L6.75901973,13.5180395 Z" id="Shape"></path>
        <path d="M33.9910123,3.50685371 C34.4220222,3.50685371 34.7942581,3.83990686 34.5983445,4.60396996 L32.6196169,5.13293672 C32.9330787,4.17296001 33.5208196,3.50685371 33.9910123,3.50685371 M35.0881285,6.71983701 L34.6963013,6.71983701 C34.2065172,7.30757785 33.6579591,7.77777053 33.1289923,7.77777053 C32.5804342,7.77777053 32.3061552,7.44471738 32.3061552,6.71983701 C32.3061552,6.42596658 32.3453379,6.1125048 32.404112,5.83822574 L35.6170953,4.78029221 C36.2440188,3.29134874 35.4799557,2.64483381 34.5983445,2.64483381 C33.0702183,2.64483381 31.3461785,5.30925898 31.3461785,7.40553466 C31.3461785,8.4046941 31.8163711,8.95325222 32.5608429,8.95325222 C33.4424541,8.95325222 34.3436568,8.11082367 35.0881285,6.71983701 M34.5787531,1.93954479 L36.4007497,0.274279061 L36.4007497,0.0391827231 L35.1860853,0.0391827231 L34.1085604,1.95913615 L34.5787531,1.95913615 L34.5787531,1.93954479 Z M27.7413679,3.52644508 L28.8188928,3.52644508 L27.1340357,8.1500064 C26.9773048,8.54183363 27.1928098,8.93366086 27.6042284,8.93366086 C28.7993015,8.93366086 30.2490622,7.91491006 30.778029,6.46514931 L30.4841585,6.46514931 C30.0531486,7.07248151 29.1127632,7.7385878 28.4074742,7.87572734 L29.9551918,3.52644508 L31.5420921,3.52644508 L31.7380057,2.86033878 L30.1902881,2.86033878 L30.778029,1.19507305 L30.1706968,1.19507305 L29.0735805,2.86033878 L27.7609593,3.03666104 L27.7609593,3.52644508 L27.7413679,3.52644508 Z M27.1928098,4.05541184 C27.4083148,3.29134874 27.2907666,2.64483381 26.7226171,2.64483381 C25.9977368,2.64483381 25.7626404,3.13461785 25.0573514,4.66274404 L25.0573514,3.80072414 C25.0573514,3.19339193 24.8614378,2.64483381 24.3128797,2.64483381 C23.6663647,2.64483381 23.0786239,3.66358461 22.6084312,4.64315268 L22.9023016,4.64315268 C23.2157634,4.19255137 23.5096338,3.91827231 23.7447302,3.91827231 C24.0190092,3.91827231 24.1757401,4.34928226 23.7447302,5.30925898 L22.490883,8.09123231 C22.2557867,8.62019907 22.5104744,8.95325222 23.0198498,8.95325222 C23.3333116,8.95325222 23.4704511,8.87488677 23.6075906,8.54183363 L24.8418464,5.28966761 C25.1944909,4.85865766 25.5079527,4.48642179 25.8997799,4.0750032 L27.1928098,4.0750032 L27.1928098,4.05541184 Z M20.3554246,3.50685371 C20.7864346,3.50685371 21.1586705,3.83990686 20.9627568,4.60396996 L18.9840293,5.13293672 C19.2974911,4.17296001 19.885232,3.50685371 20.3554246,3.50685371 M21.4525409,6.71983701 L21.0607136,6.71983701 C20.5709296,7.30757785 20.0223715,7.77777053 19.4934047,7.77777053 C18.9448466,7.77777053 18.6705675,7.44471738 18.6705675,6.71983701 C18.6705675,6.42596658 18.7097503,6.1125048 18.7685243,5.83822574 L21.9815076,4.78029221 C22.6084312,3.29134874 21.8639595,2.64483381 20.9627568,2.64483381 C19.4346306,2.64483381 17.7105908,5.30925898 17.7105908,7.40553466 C17.7105908,8.4046941 18.1807835,8.95325222 18.9252552,8.95325222 C19.8068665,8.95325222 20.7080691,8.11082367 21.4525409,6.71983701 M13.9686408,8.01286687 C13.655179,8.01286687 13.2045777,7.71899644 13.2045777,7.46430874 C13.2045777,7.3859433 13.3417172,7.01370743 13.5180395,6.56310611 L14.0274149,5.19171081 C14.575973,4.52560451 15.4379929,3.80072414 15.9277769,3.80072414 C16.2216473,3.80072414 16.4371523,3.99663775 16.4371523,4.40805634 C16.417561,5.70108621 15.2420793,8.01286687 13.9686408,8.01286687 M17.5342686,3.91827231 C17.5342686,2.97788695 17.2991722,2.62524245 16.6330659,2.62524245 C15.8102288,2.62524245 15.0461657,3.50685371 14.2625112,4.56478724 L15.9081856,0.137139531 L15.8102288,2.22727994e-14 L13.7727272,0.235096338 L13.7727272,0.470192677 L14.1645544,0.7640631 C14.5171989,1.03834216 14.3996507,1.31262122 14.0861889,2.17464113 L12.303375,6.85697654 C12.1466441,7.24880377 11.9703219,7.71899644 11.9703219,7.83654461 C11.9703219,8.38510274 12.7147936,8.9140695 13.4004913,8.9140695 C14.9482088,8.95325222 17.5342686,6.1125048 17.5342686,3.91827231 M11.5197206,3.3109401 C11.6372687,2.87993015 11.3629897,2.64483381 11.1278933,2.64483381 C10.2070994,2.64483381 9.09039175,3.48726235 8.6593818,4.64315268 L8.95325222,4.64315268 C9.24712264,4.21214273 9.75649804,3.74195005 10.2462821,3.66358461 L8.46346818,8.28714593 C8.30673729,8.71815588 8.62019907,8.95325222 8.85529541,8.95325222 C9.73690668,8.95325222 10.7752488,8.11082367 11.2062588,6.95493334 L10.9123884,6.95493334 C10.618518,7.3859433 10.1091426,7.85613597 9.61935851,7.93450142 L11.5197206,3.3109401 Z M11.7156342,1.46935211 C12.1074614,1.46935211 12.4405146,1.13629897 12.4405146,0.744471738 C12.4405146,0.352644508 12.1074614,0.0195913615 11.7156342,0.0195913615 C11.3042156,0.0195913615 10.9907538,0.352644508 10.9907538,0.744471738 C10.9907538,1.13629897 11.3042156,1.46935211 11.7156342,1.46935211 M7.19002968,0.587740846 L2.95829559,0.587740846 L2.84074742,0.940385354 C4.0750032,1.19507305 4.19255137,1.31262122 3.62440188,2.91911287 L2.35096338,6.38678386 C1.76322254,7.97368414 1.5281262,8.11082367 0.0979568077,8.36551137 L1.67045995e-14,8.71815588 L6.42596658,8.71815588 L7.81695325,6.23005297 L7.32716921,6.23005297 C6.52392339,7.11166424 5.6031294,8.22837184 4.17296001,8.22837184 C3.09543512,8.22837184 2.93870423,8.03245823 3.54603644,6.3671925 L4.81947494,2.89952151 C5.40721578,1.31262122 5.64231212,1.17548169 7.07248151,0.920793992 L7.19002968,0.587740846 Z" id="Shape"></path>
    </g>
    <g id="RF" transform="translate(0.000000, 25.384063)">
        <path d="M2.98458941,40.0572701 L2.98458941,33.8366791 L7.73471057,33.8366791 L7.73471057,31.2938024 L2.98458941,31.2938024 L2.98458941,27.8892898 L8.57543998,27.8892898 L8.57543998,25.3464131 L0,25.3464131 L0,40.0572701 L2.98458941,40.0572701 Z M13.5217313,40.0572701 L13.5217313,34.1098808 L15.0560625,34.1098808 L18.9654543,40.0572701 L22.5385543,40.0572701 L17.9145425,33.542462 C18.6571868,33.1922035 19.2351883,32.6913338 19.6485469,32.039853 C20.0619055,31.3883722 20.2685849,30.6213061 20.2685849,29.7386547 C20.2685849,28.3796517 19.7991776,27.3078607 18.8603631,26.5232816 C17.9215486,25.7387026 16.6464423,25.3464131 15.0350443,25.3464131 L15.0350443,25.3464131 L10.5371419,25.3464131 L10.5371419,40.0572701 L13.5217313,40.0572701 Z M15.2031902,31.567004 L13.5217313,31.567004 L13.5217313,27.8892898 L15.2031902,27.8892898 C15.8337372,27.8892898 16.3241627,28.0504087 16.6744666,28.3726465 C17.0247706,28.6948843 17.1999225,29.1362101 17.1999225,29.6966237 C17.1999225,30.2990683 17.0247706,30.7614095 16.6744666,31.0836473 C16.3241627,31.4058851 15.8337372,31.567004 15.2031902,31.567004 L15.2031902,31.567004 Z M25.6772774,40.0572701 L27.0854992,36.2324473 L32.970605,36.2324473 L34.3788268,40.0572701 L37.5525803,40.0572701 L31.982748,25.3464131 L28.0733562,25.3464131 L22.5035239,40.0572701 L25.6772774,40.0572701 Z M32.0458027,33.6895706 L28.0103015,33.6895706 L30.0280521,28.1624914 L32.0458027,33.6895706 Z M42.1415617,40.0572701 L42.1415617,29.4864686 L48.7202693,40.0572701 L52.5455881,40.0572701 L52.5455881,25.3464131 L49.5609987,25.3464131 L49.5609987,35.8751836 L42.9822911,25.3464131 L39.1569723,25.3464131 L39.1569723,40.0572701 L42.1415617,40.0572701 Z M61.8846907,43.4407672 L63.7132771,40.3935183 C64.778201,40.2534149 65.7450399,39.9241719 66.6137936,39.4057893 C67.4825473,38.8874067 68.1971673,38.2429311 68.7576536,37.4723624 L68.7576536,37.4723624 L66.4036112,35.6650285 C65.9832465,36.2674731 65.4472815,36.7543324 64.7957162,37.1256065 C64.1441509,37.4968805 63.3980036,37.6825175 62.5572742,37.6825175 C61.8706785,37.6825175 61.2331254,37.5529218 60.6446148,37.2937305 C60.0561042,37.0345392 59.5551696,36.6842807 59.141811,36.242955 C58.7284523,35.8016293 58.4026697,35.2762416 58.164463,34.6667918 C57.9262563,34.057342 57.807153,33.4023586 57.807153,32.7018416 C57.807153,32.0013246 57.9262563,31.3463412 58.164463,30.7368914 C58.4026697,30.1274416 58.7284523,29.6020539 59.141811,29.1607281 C59.5551696,28.7194024 60.0561042,28.3691439 60.6446148,28.1099526 C61.2331254,27.8507614 61.8706785,27.7211657 62.5572742,27.7211657 C63.3980036,27.7211657 64.1441509,27.9068027 64.7957162,28.2780767 C65.4472815,28.6493507 65.9832465,29.1362101 66.4036112,29.7386547 L66.4036112,29.7386547 L68.7576536,27.9103053 C68.0850701,27.0276539 67.2163163,26.309624 66.1513924,25.7562155 C65.0864685,25.2028071 63.8884291,24.9261029 62.5572742,24.9261029 C61.4082773,24.9261029 60.3503595,25.136258 59.3835207,25.5565682 C58.4166818,25.9768784 57.5899646,26.537292 56.9033689,27.237809 C56.2167732,27.938326 55.6843113,28.7614335 55.305983,29.7071314 C54.9276548,30.6528294 54.7384907,31.6510661 54.7384907,32.7018416 C54.7384907,33.626524 54.8891214,34.5161806 55.1903827,35.3708114 C55.4916441,36.2254421 55.9190149,36.9925082 56.4724951,37.6720097 C57.0259753,38.3515112 57.6950558,38.9259351 58.4797365,39.3952815 C59.2644173,39.8646279 60.1331711,40.1833632 61.0859977,40.3514872 L61.0859977,40.3514872 L59.236393,43.4407672 L61.8846907,43.4407672 Z M71.8963767,40.0572701 L73.3045985,36.2324473 L79.1897043,36.2324473 L80.5979261,40.0572701 L83.7716796,40.0572701 L78.2018473,25.3464131 L74.2924555,25.3464131 L68.7226232,40.0572701 L71.8963767,40.0572701 Z M78.264902,33.6895706 L74.2294008,33.6895706 L76.2471514,28.1624914 L78.264902,33.6895706 Z M88.360661,40.0572701 L88.360661,25.3464131 L85.3760716,25.3464131 L85.3760716,40.0572701 L88.360661,40.0572701 Z M95.95525,40.4775803 C96.6278335,40.4775803 97.2583806,40.3760053 97.8468912,40.1728554 C98.4354018,39.9697055 98.9468455,39.6789909 99.3812223,39.3007117 C99.8155992,38.9224326 100.1624,38.4600913 100.421625,37.9136881 C100.68085,37.3672848 100.817468,36.7508299 100.831481,36.0643232 C100.831481,34.8314133 100.481177,33.8927205 99.7805688,33.2482449 C99.079961,32.6037692 98.3092923,32.081884 97.4685629,31.6825894 C96.6278335,31.2832947 95.8571649,30.9120207 95.1565571,30.5687673 C94.4559492,30.225514 94.1056453,29.7246443 94.1056453,29.0661584 C94.1056453,28.6318378 94.259779,28.267569 94.5680465,27.9733518 C94.8763139,27.6791347 95.2896725,27.5320261 95.8081223,27.5320261 C96.3686086,27.5320261 96.8905615,27.6966476 97.3739809,28.0258906 C97.8574003,28.3551336 98.3162984,28.7999619 98.7506753,29.3603755 L98.7506753,29.3603755 L100.936572,27.4059331 C100.320037,26.663385 99.5808956,26.064443 98.7191479,25.609107 C97.8574003,25.1537709 96.8800523,24.9261029 95.7871041,24.9261029 C95.0864963,24.9261029 94.4489431,25.0381856 93.8744447,25.262351 C93.2999463,25.4865165 92.8060177,25.7912414 92.3926591,26.1765257 C91.9793005,26.5618101 91.6570209,27.0171461 91.4258203,27.5425339 C91.1946197,28.0679216 91.0790194,28.6178275 91.0790194,29.1922514 C91.0790194,30.411151 91.4293233,31.3358334 92.1299312,31.9662987 C92.830539,32.596764 93.6012076,33.111644 94.4419371,33.5109387 C95.2826665,33.9102334 96.0533351,34.2815074 96.7539429,34.6247608 C97.4545508,34.9680141 97.8048547,35.4688837 97.8048547,36.1273697 C97.8048547,36.6597626 97.6367088,37.0765703 97.3004171,37.3777926 C96.9641253,37.6790149 96.5017241,37.829626 95.9132135,37.829626 C95.3106908,37.829626 94.7256832,37.6685071 94.1581909,37.3462693 C93.5906985,37.0240315 93.0897639,36.5827058 92.6553871,36.0222922 L92.6553871,36.0222922 L90.4905088,38.0187656 C91.135068,38.7893343 91.8987306,39.391779 92.7814965,39.8260995 C93.6642624,40.26042 94.7221802,40.4775803 95.95525,40.4775803 Z M111.87306,40.0572701 L111.87306,37.5143934 L106.28221,37.5143934 L106.28221,33.8366791 L111.032331,33.8366791 L111.032331,31.2938024 L106.28221,31.2938024 L106.28221,27.8892898 L111.87306,27.8892898 L111.87306,25.3464131 L103.29762,25.3464131 L103.29762,40.0572701 L111.87306,40.0572701 Z" id="FRANÇAISE" fill="#1C1C1C"></path>
        <path d="M2.98096234,18.7874941 L2.98096234,12.8468675 L4.51342889,12.8468675 L8.41806971,18.7874941 L11.9868274,18.7874941 L7.36843508,12.2800939 C8.11017688,11.9302337 8.68747593,11.4299336 9.10033221,10.7791936 C9.5131885,10.1284535 9.71961664,9.36225964 9.71961664,8.48061187 C9.71961664,7.12315419 9.25077984,6.0525819 8.31310624,5.268895 C7.37543264,4.48520809 6.10187596,4.09336464 4.4924362,4.09336464 L4.4924362,4.09336464 L0,4.09336464 L0,18.7874941 L2.98096234,18.7874941 Z M4.66037774,10.3068822 L2.98096234,10.3068822 L2.98096234,6.63334988 L4.66037774,6.63334988 C5.29015852,6.63334988 5.77998801,6.79428558 6.12986622,7.11615699 C6.47974443,7.4380284 6.65468353,7.87885228 6.65468353,8.43862864 C6.65468353,9.04038823 6.47974443,9.50220373 6.12986622,9.82407514 C5.77998801,10.1459465 5.29015852,10.3068822 4.66037774,10.3068822 L4.66037774,10.3068822 Z M18.7744647,2.83386783 L21.5035147,0 L18.4385816,0 L16.0664074,2.83386783 L18.7744647,2.83386783 Z M21.7344343,18.7874941 L21.7344343,16.2475089 L16.1503781,16.2475089 L16.1503781,12.5739765 L20.8947266,12.5739765 L20.8947266,10.0339913 L16.1503781,10.0339913 L16.1503781,6.63334988 L21.7344343,6.63334988 L21.7344343,4.09336464 L13.1694158,4.09336464 L13.1694158,18.7874941 L21.7344343,18.7874941 Z M27.5144223,18.7874941 L27.5144223,12.8468675 L29.382772,12.8468675 C30.9922117,12.8468675 32.2622696,12.455024 33.1929457,11.6713371 C34.1236217,10.8876502 34.5889597,9.82407514 34.5889597,8.48061187 C34.5889597,7.12315419 34.1236217,6.0525819 33.1929457,5.268895 C32.2622696,4.48520809 30.9922117,4.09336464 29.382772,4.09336464 L29.382772,4.09336464 L24.53346,4.09336464 L24.53346,18.7874941 L27.5144223,18.7874941 Z M29.5087281,10.3068822 L27.5144223,10.3068822 L27.5144223,6.63334988 L29.5087281,6.63334988 C30.1385089,6.63334988 30.6318372,6.79428558 30.988713,7.11615699 C31.3455887,7.4380284 31.5240266,7.87885228 31.5240266,8.43862864 C31.5240266,9.04038823 31.3455887,9.50220373 30.988713,9.82407514 C30.6318372,10.1459465 30.1385089,10.3068822 29.5087281,10.3068822 L29.5087281,10.3068822 Z M42.0693558,19.2073264 C43.9027177,19.2073264 45.3547122,18.6580458 46.4253395,17.5594847 C47.4959669,16.4609236 48.0312805,14.953026 48.0312805,13.035792 L48.0312805,13.035792 L48.0312805,4.09336464 L45.0503182,4.09336464 L45.0503182,13.2876914 C45.0503182,14.2673 44.7844107,15.0334939 44.2525959,15.5862731 C43.720781,16.1390522 43.0000319,16.4154418 42.0903485,16.4154418 C41.1666701,16.4154418 40.4389234,16.1390522 39.9071085,15.5862731 C39.3752936,15.0334939 39.1093862,14.2673 39.1093862,13.2876914 L39.1093862,13.2876914 L39.1093862,4.09336464 L36.1284239,4.09336464 L36.1284239,13.035792 C36.1284239,14.953026 36.6602387,16.4609236 37.7238685,17.5594847 C38.7874982,18.6580458 40.235994,19.2073264 42.0693558,19.2073264 Z M55.553662,18.7874941 C57.2330774,18.7874941 58.5626146,18.4026479 59.5422736,17.6329554 C60.5219326,16.8632629 61.0117621,15.806685 61.0117621,14.4632217 C61.0117621,13.7075236 60.8018351,13.0252962 60.3819813,12.4165394 C59.9621274,11.8077826 59.3673345,11.3284741 58.5976024,10.9786139 C59.101427,10.6287537 59.4862931,10.2054228 59.7522005,9.70862126 C60.018108,9.21181974 60.1510617,8.66953639 60.1510617,8.08177121 C60.1510617,6.85026322 59.7137139,5.87765179 58.8390184,5.16393693 C57.9643229,4.45022207 56.7642406,4.09336464 55.2387716,4.09336464 L55.2387716,4.09336464 L51.0612258,4.09336464 L51.0612258,18.7874941 L55.553662,18.7874941 Z M55.3017497,9.84506675 L54.0421881,9.84506675 L54.0421881,6.63334988 L55.3017497,6.63334988 C55.8615548,6.63334988 56.2989026,6.77679257 56.613793,7.06367796 C56.9286834,7.35056334 57.0861286,7.73890819 57.0861286,8.22871251 C57.0861286,8.74650564 56.9286834,9.1453463 56.613793,9.42523448 C56.2989026,9.70512266 55.8615548,9.84506675 55.3017497,9.84506675 L55.3017497,9.84506675 Z M55.7216035,16.2475089 L54.0421881,16.2475089 L54.0421881,12.4060436 L55.7216035,12.4060436 C56.4073648,12.4060436 56.9496761,12.5704779 57.3485372,12.8993465 C57.7473984,13.2282151 57.946829,13.6935292 57.946829,14.2952888 C57.946829,14.8970484 57.7473984,15.3728583 57.3485372,15.7227185 C56.9496761,16.0725788 56.4073648,16.2475089 55.7216035,16.2475089 L55.7216035,16.2475089 Z M71.9559524,18.7874941 L71.9559524,16.079576 L66.3718962,16.079576 L66.3718962,4.09336464 L63.3909339,4.09336464 L63.3909339,18.7874941 L71.9559524,18.7874941 Z M76.8962327,18.7874941 L76.8962327,4.09336464 L73.9152704,4.09336464 L73.9152704,18.7874941 L76.8962327,18.7874941 Z M95.2508436,22.4400349 C95.5727315,22.4400349 95.8526341,22.4190433 96.0905513,22.37706 C96.3284685,22.3350768 96.5663857,22.2651048 96.8043028,22.1671439 L96.8043028,22.1671439 L96.8043028,19.6481503 C96.6503564,19.7041279 96.4754173,19.7461111 96.2794855,19.7741 C96.0835537,19.8020888 95.9086146,19.8160832 95.7546682,19.8160832 C95.2788338,19.8160832 94.7855056,19.7111251 94.2746834,19.501209 C93.7638612,19.2912928 93.2285475,18.9274382 92.6687424,18.4096451 L92.6687424,18.4096451 L91.7870493,17.5699805 C92.6827375,16.8562657 93.3894915,15.9606235 93.9073113,14.883054 C94.425131,13.8054845 94.6840409,12.657943 94.6840409,11.4404294 C94.6840409,10.3908487 94.4951067,9.39374706 94.1172382,8.44912445 C93.7393697,7.50450184 93.2075548,6.68233031 92.5217936,5.98260986 C91.8360323,5.28288941 91.0138185,4.72311305 90.0551522,4.30328078 C89.0964859,3.8834485 88.0433525,3.67353237 86.895752,3.67353237 C85.7481514,3.67353237 84.6915192,3.8834485 83.7258554,4.30328078 C82.7601915,4.72311305 81.934479,5.28288941 81.2487177,5.98260986 C80.5629564,6.68233031 80.0311415,7.50450184 79.653273,8.44912445 C79.2754046,9.39374706 79.0864703,10.3908487 79.0864703,11.4404294 C79.0864703,12.4900101 79.2754046,13.4871117 79.653273,14.4317343 C80.0311415,15.3763569 80.5629564,16.1985284 81.2487177,16.8982489 C81.934479,17.5979694 82.7601915,18.1577457 83.7258554,18.577578 C84.6915192,18.9974103 85.7481514,19.2073264 86.895752,19.2073264 C87.2456302,19.2073264 87.5920096,19.1863348 87.9348902,19.1443515 C88.2777709,19.1023683 88.6031576,19.0393935 88.9110504,18.955427 L88.9110504,18.955427 L90.6534439,20.5088064 C91.3671955,21.1385548 92.1089373,21.6178633 92.8786693,21.946732 C93.6484014,22.2756006 94.4391261,22.4400349 95.2508436,22.4400349 Z M86.895752,16.4154418 C86.2099907,16.4154418 85.5732123,16.2859935 84.9854169,16.0270969 C84.3976215,15.7682004 83.8972957,15.4183401 83.4844394,14.9775163 C83.0715831,14.5366924 82.7461964,14.011902 82.5082792,13.4031452 C82.270362,12.7943885 82.1514034,12.1401498 82.1514034,11.4404294 C82.1514034,10.7407089 82.270362,10.0864703 82.5082792,9.47771351 C82.7461964,8.86895672 83.0715831,8.34416638 83.4844394,7.9033425 C83.8972957,7.46251861 84.3976215,7.11265839 84.9854169,6.85376182 C85.5732123,6.59486525 86.2099907,6.46541697 86.895752,6.46541697 C87.5815132,6.46541697 88.2147928,6.59486525 88.7955906,6.85376182 C89.3763885,7.11265839 89.8732155,7.46251861 90.2860718,7.9033425 C90.6989281,8.34416638 91.0243148,8.86895672 91.262232,9.47771351 C91.5001492,10.0864703 91.6191078,10.7407089 91.6191078,11.4404294 C91.6191078,12.1401498 91.5001492,12.7943885 91.262232,13.4031452 C91.0243148,14.011902 90.6989281,14.5366924 90.2860718,14.9775163 C89.8732155,15.4183401 89.3763885,15.7682004 88.7955906,16.0270969 C88.2147928,16.2859935 87.5815132,16.4154418 86.895752,16.4154418 Z M102.563298,19.2073264 C104.39666,19.2073264 105.848655,18.6580458 106.919282,17.5594847 C107.989909,16.4609236 108.525223,14.953026 108.525223,13.035792 L108.525223,13.035792 L108.525223,4.09336464 L105.54426,4.09336464 L105.54426,13.2876914 C105.54426,14.2673 105.278353,15.0334939 104.746538,15.5862731 C104.214723,16.1390522 103.493974,16.4154418 102.584291,16.4154418 C101.660612,16.4154418 100.932866,16.1390522 100.401051,15.5862731 C99.8692359,15.0334939 99.6033285,14.2673 99.6033285,13.2876914 L99.6033285,13.2876914 L99.6033285,4.09336464 L96.6223662,4.09336464 L96.6223662,13.035792 C96.6223662,14.953026 97.154181,16.4609236 98.2178108,17.5594847 C99.2814406,18.6580458 100.729936,19.2073264 102.563298,19.2073264 Z M120.120187,18.7874941 L120.120187,16.2475089 L114.53613,16.2475089 L114.53613,12.5739765 L119.280479,12.5739765 L119.280479,10.0339913 L114.53613,10.0339913 L114.53613,6.63334988 L120.120187,6.63334988 L120.120187,4.09336464 L111.555168,4.09336464 L111.555168,18.7874941 L120.120187,18.7874941 Z" id="RÉPUBLIQUE" fill="#000000"></path>
    </g>
    <g id="Marianne">
        <path d="M17.4599794,17.1474965 C17.4795096,17.1474965 17.4795096,17.1474965 17.4599794,17.1474965 C17.5381001,17.1084362 17.5771604,17.088906 17.6162208,17.0498456 C17.6162208,17.0498456 17.5966906,17.0498456 17.5966906,17.0498456 C17.5576303,17.0693758 17.5185699,17.1084362 17.4599794,17.1474965" id="Path" fill="#1F356C"></path>
        <path d="M24.6275548,14.7648148 L24.5884945,14.8038751 C24.6080246,14.8038751 24.6275548,14.784345 24.6275548,14.7648148" id="Path" fill="#1F356C"></path>
        <path d="M22.3620541,17.2646776 C22.5768861,17.0498456 22.791718,16.8350137 22.9870198,16.6006515 L22.9870198,16.6006515 C23.3776234,16.1514574 23.768227,15.7413237 24.2174211,15.3507201 C24.3541323,15.2335391 24.4908436,15.116358 24.6275548,15.0382373 C24.6666152,14.9991769 24.6666152,14.9210562 24.7056755,14.8819958 C24.5299039,14.9601166 24.4127228,15.0968278 24.2174211,15.1749485 C24.1783607,15.1749485 24.1393003,15.1358882 24.1783607,15.0968278 C24.315072,14.9991769 24.4517832,14.901526 24.5689643,14.8038751 C24.5689643,14.8038751 24.5494341,14.8038751 24.5494341,14.8038751 C24.5103737,14.8038751 24.5103737,14.7648148 24.5103737,14.7257544 C24.0221193,14.6476337 23.6705761,14.9796467 23.338563,15.2725994 C23.2604423,15.3116598 23.1823216,15.2335391 23.1627914,15.2335391 C22.6159464,15.4093107 22.2058127,15.8975651 21.6589677,16.1123971 L21.6589677,16.0342764 C21.4441357,16.1123971 21.2293038,16.2491083 20.9949416,16.2881687 C20.6629286,16.3662894 20.3699759,16.327229 20.0770233,16.327229 C19.6278292,16.3662894 19.1786351,16.4639403 18.729441,16.5615912 C18.7099108,16.5615912 18.7099108,16.5615912 18.6903806,16.5811214 C18.4560185,16.6397119 18.2216563,16.7373628 18.0068244,16.8545439 L17.9872942,16.874074 C17.967764,16.8936042 17.9482338,16.9131344 17.9287037,16.9326646 C17.8505829,17.0107853 17.7724622,17.1084362 17.6748113,17.1474965 C17.4404492,17.2646776 17.2646776,17.4599794 17.0693758,17.635751 C17.0498456,17.6552812 17.0303155,17.6552812 17.0107853,17.6552812 C16.8154835,17.8505829 16.6201817,18.0458847 16.4248799,18.2216563 C16.4053498,18.2411865 16.3467592,18.2411865 16.3076989,18.2411865 C16.3076989,18.2411865 16.3076989,18.2411865 16.3076989,18.2411865 C16.3076989,18.2216563 16.327229,18.2216563 16.327229,18.2021262 C16.3662894,18.1435356 16.3858196,18.1044753 16.4248799,18.0458847 C16.4639403,17.9872942 16.5030006,17.9287037 16.542061,17.8701131 C16.6006515,17.7919924 16.6397119,17.7138717 16.6983024,17.6552812 C16.7178326,17.635751 16.7178326,17.6162208 16.6983024,17.6162208 C16.6787722,17.5966906 16.6592421,17.5966906 16.6397119,17.5966906 C16.8154835,17.420919 17.0498456,17.2646776 17.2646776,17.1279663 L17.2646776,17.1279663 C17.2451474,17.1279663 17.2060871,17.1084362 17.2256172,17.088906 C17.2451474,17.0498456 17.2646776,17.0303155 17.2842078,16.9912551 C17.2842078,16.9717249 17.2842078,16.9717249 17.303738,16.9521947 C17.303738,16.9326646 17.2842078,16.9326646 17.2842078,16.9131344 C17.2256172,16.9521947 17.1670267,16.9912551 17.1084362,17.0303155 C17.0107853,17.1084362 16.9521947,17.2646776 16.8154835,17.2646776 C16.8154835,17.2646776 16.7764231,17.2646776 16.756893,17.2646776 C16.7373628,17.2646776 16.7178326,17.2646776 16.7178326,17.2451474 C16.7178326,17.2451474 16.7178326,17.2451474 16.7178326,17.2451474 C16.7178326,17.2451474 16.7178326,17.2451474 16.7178326,17.2256172 C16.7178326,17.2256172 16.7178326,17.2256172 16.7178326,17.2256172 C16.7178326,17.2060871 16.7373628,17.2060871 16.7373628,17.1865569 C16.7373628,17.1670267 16.756893,17.1670267 16.756893,17.1474965 C16.756893,17.1474965 16.756893,17.1279663 16.7764231,17.1279663 C16.7764231,17.1084362 16.7959533,17.088906 16.7959533,17.088906 C16.7959533,17.0693758 16.8154835,17.0693758 16.8154835,17.0498456 C16.8350137,17.0303155 16.8545439,16.9912551 16.8545439,16.9717249 C16.8545439,16.9521947 16.874074,16.9521947 16.874074,16.9326646 C16.8936042,16.9131344 16.8936042,16.8936042 16.9131344,16.874074 C16.9326646,16.8350137 16.9131344,16.8154835 16.8936042,16.8154835 C16.9521947,16.7178326 17.0498456,16.6592421 17.1474965,16.6006515 L17.1279663,16.6006515 C17.2646776,16.5225308 17.420919,16.4444101 17.5576303,16.3662894 C17.5771604,16.3467592 17.5966906,16.327229 17.6162208,16.3076989 C17.4013888,16.3858196 17.2256172,16.4834705 17.0303155,16.6006515 C17.0303155,16.6006515 16.9912551,16.6201817 16.9717249,16.6397119 C16.9717249,16.6397119 16.9326646,16.6592421 16.874074,16.6006515 C16.874074,16.6006515 16.874074,16.5811214 16.874074,16.5811214 C16.9131344,16.5030006 17.0303155,16.4639403 17.088906,16.4053498 C17.1279663,16.4053498 17.1670267,16.4053498 17.1670267,16.4444101 C18.3583676,15.5264917 19.9793724,15.7413237 21.3464849,15.2725994 C21.4636659,15.1944787 21.5613168,15.116358 21.6784979,15.0577675 C21.8542695,14.9796467 22.0105109,14.8038751 22.2253429,14.6866941 C22.5182956,14.4718621 22.7331275,14.1984396 22.8503086,13.8468964 C22.8503086,13.807836 22.8112482,13.7687757 22.8112482,13.7687757 C22.3229938,14.2765603 21.7761488,14.6866941 21.1902434,14.9796467 C20.4090363,15.3897805 19.5692386,15.3116598 18.7489711,15.4288408 C18.7880315,15.3507201 18.8661522,15.3507201 18.9247428,15.3507201 C18.9247428,15.2335391 19.0028635,15.1944787 19.0809842,15.1358882 L19.1981652,15.1358882 C19.2372256,15.1358882 19.2372256,15.0577675 19.276286,15.0577675 C19.3544067,15.0577675 19.4715877,15.0187071 19.4325274,15.0187071 C19.3153463,14.8624657 19.1005144,15.1358882 18.9247428,15.0187071 C19.0028635,14.9405864 18.9638031,14.8429355 19.0419238,14.8038751 L19.1981652,14.8038751 C19.1981652,14.7257544 19.276286,14.6476337 19.276286,14.6476337 C19.823131,14.3156207 20.3504458,14.0617284 20.8582304,13.7687757 C20.7410493,13.7687757 20.6824588,13.8859568 20.5652777,13.807836 C20.6433984,13.807836 20.5652777,13.690655 20.6433984,13.690655 C21.0535322,13.5734739 21.3855452,13.3586419 21.795679,13.2024005 C21.6394375,13.2024005 21.5417866,13.3195816 21.3855452,13.2024005 C21.4636659,13.1633402 21.5027263,13.0852194 21.6003772,13.0852194 L21.6003772,12.9680384 C21.6003772,12.928978 21.6394375,12.928978 21.6784979,12.928978 C21.6394375,12.928978 21.6003772,12.8899177 21.6003772,12.8899177 C21.6394375,12.8117969 21.7566186,12.8508573 21.8152091,12.7727366 C21.7761488,12.7727366 21.6980281,12.7727366 21.6980281,12.7336762 C21.8152091,12.5774348 21.9909807,12.5579046 22.1862825,12.5188443 C22.1472222,12.4407236 22.0300411,12.5188443 22.0300411,12.4407236 C22.0300411,12.4016632 22.0691015,12.4016632 22.1081618,12.4016632 L22.0300411,12.4016632 C21.9519204,12.3626028 21.9909807,12.2844821 21.9909807,12.2454218 C22.2058127,11.9915295 22.2058127,11.6595164 22.3229938,11.3665638 C22.2839334,11.3665638 22.2448731,11.3665638 22.2448731,11.3275034 C21.8737997,11.7376371 21.2878943,11.8743484 20.7410493,12.0305898 L20.487157,12.0305898 C20.3113854,12.1087105 20.0379629,12.1087105 19.8621913,11.9915295 C19.7059499,11.9134087 19.6473593,11.8157579 19.4911179,11.6985768 C19.1981652,11.5228052 18.9052126,11.3665638 18.5731995,11.2493827 C17.6552812,10.95643 16.6983024,10.8001886 15.7413237,10.8392489 C16.1514574,10.624417 16.6006515,10.6048868 17.0303155,10.4681756 C17.6552812,10.292404 18.2411865,10.0580418 18.9052126,10.0971022 C18.7880315,10.0580418 18.6513203,10.0971022 18.5341392,10.0971022 C18.0263545,10.0580418 17.4990397,10.2142832 16.9521947,10.3119341 C16.5811214,10.3900548 16.2491083,10.5267661 15.8780349,10.6048868 C15.663203,10.6830075 15.5460219,10.8978395 15.2921296,10.8587791 L15.2921296,10.7415981 C15.663203,10.292404 16.1123971,9.86274003 16.6983024,9.82367967 C17.3623285,9.7064986 17.9872942,9.82367967 18.6513203,9.90180039 C19.1395747,9.94086074 19.5692386,10.0580418 20.0574931,10.1556927 C20.2332647,10.1556927 20.2723251,10.4486454 20.4285665,10.4877057 C20.6433984,10.5658264 20.8777606,10.4877057 21.0925925,10.6439472 C21.0925925,10.5658264 21.0535322,10.4877057 21.0925925,10.4291152 C21.248834,10.2728738 21.4246056,10.4681756 21.580847,10.3900548 C21.8737997,10.2142832 21.3269547,9.88227021 21.1707133,9.60884771 C21.1707133,9.56978736 21.2097736,9.530727 21.2097736,9.530727 C21.5027263,9.78461932 21.7175582,10.077572 22.0886316,10.2728738 C22.2644032,10.3509945 22.7135973,10.4486454 22.6354766,10.2338134 C22.459705,9.82367967 22.0886316,9.49166664 21.7761488,9.12059326 L21.7761488,8.96435183 C21.6980281,8.96435183 21.6980281,8.92529147 21.6589677,8.88623112 L21.6589677,8.72998969 C21.5027263,8.65186898 21.5417866,8.51515773 21.4831961,8.39797666 C21.366015,8.22220505 21.4441357,7.94878256 21.366015,7.7339506 C21.2878943,7.51911864 21.248834,7.32381685 21.2097736,7.10898489 C21.0925925,6.48401919 20.9558813,5.9371742 20.8777606,5.33173867 C20.7996399,4.62865225 21.2878943,4.08180726 21.6199074,3.45684155 C21.8737997,3.00764745 22.1667523,2.57798353 22.6550068,2.28503086 C22.7721879,1.83583676 23.0651405,1.46476337 23.3580932,1.11322016 C23.6510459,0.761676953 24.1393003,0.527314813 24.4908436,0.371073387 C24.9986282,0.136711248 25.4673525,0 25.4673525,0 L8.32621578e-15,0 L8.32621578e-15,19.5301783 L18.1044753,19.5301783 C18.8075617,19.0223936 19.5106481,18.7880315 20.487157,18.299777 C20.9558813,18.1044753 22.0105109,17.6162208 22.3620541,17.2646776 M16.6983024,14.6085734 C16.6201817,14.6085734 16.4834705,14.6476337 16.5225308,14.569513 C16.5615912,14.3937414 16.8154835,14.3937414 16.9717249,14.3156207 C17.0498456,14.2765603 17.1474965,14.1984396 17.2256172,14.2375 C17.303738,14.354681 17.4013888,14.3156207 17.4795096,14.3937414 C17.2451474,14.6085734 16.9521947,14.5109225 16.6983024,14.6085734 M11.0345507,13.807836 C11.0345507,13.807836 10.9954904,13.7687757 10.9954904,13.7297153 C11.4837448,13.1047496 11.835288,12.5188443 12.1868312,11.8548182 C12.6750857,11.6009259 13.0656893,11.2298525 13.4367627,10.8197188 C14.0617284,10.1556927 14.7257544,9.56978736 15.5069616,9.19871397 C15.7999142,9.0815329 16.1709876,9.12059326 16.4639403,9.23777432 C16.3467592,9.39401575 16.1709876,9.35495539 16.0147462,9.45260629 C15.9756858,9.45260629 15.9366255,9.45260629 15.8975651,9.41354593 C15.9366255,9.37448557 15.9366255,9.33542522 15.9366255,9.29636486 C15.5655521,9.7064986 15.0577675,9.88227021 14.7648148,10.3705247 C14.5499828,10.7415981 14.3937414,11.2103223 13.9250171,11.3275034 C13.7687757,11.3665638 13.9640775,11.2103223 13.8859568,11.2493827 C12.7336762,11.9524691 11.9329389,12.8117969 11.0345507,13.807836 M14.1007887,11.3665638 C14.0617284,11.4446845 14.022668,11.4446845 13.9836076,11.5228052 C13.9445473,11.6009259 13.9054869,11.6399863 13.8273662,11.6790466 C13.7883059,11.6790466 13.7492455,11.6790466 13.7492455,11.6399863 C13.7883059,11.4837448 13.9054869,11.3470336 14.0421982,11.3079732 C14.1007887,11.288443 14.1007887,11.3275034 14.1007887,11.3665638 M15.8194444,16.8936042 C15.7999142,16.9326646 15.7608539,16.9717249 15.7217935,17.0107853 C15.7608539,17.0107853 15.7999142,17.0498456 15.7608539,17.0693758 C15.6827332,17.1474965 15.5850823,17.2256172 15.4874314,17.2646776 C15.4874314,17.2646776 15.448371,17.2646776 15.4288408,17.2646776 C15.3897805,17.303738 15.3311899,17.3427983 15.2921296,17.4013888 C15.2530692,17.4404492 15.0382373,17.420919 15.0968278,17.3623285 C15.1944787,17.2842078 15.2725994,17.1865569 15.3702503,17.1084362 C15.4288408,17.0693758 15.4874314,17.0107853 15.5264917,16.9521947 C15.5460219,16.9131344 15.5655521,16.8936042 15.6046124,16.874074 C15.663203,16.8350137 15.8585048,16.8154835 15.8194444,16.8936042 M15.1554183,16.6006515 C15.1554183,16.6006515 15.1554183,16.6006515 15.1554183,16.6006515 C14.9991769,16.6983024 14.8624657,16.7959533 14.7257544,16.8936042 C14.569513,16.9912551 14.3937414,17.0498456 14.2375,17.1279663 C14.2375,17.1279663 14.2375,17.1279663 14.2375,17.1279663 C14.2179698,17.1084362 14.1984396,17.1084362 14.1789094,17.1084362 C14.0421982,17.1865569 13.9250171,17.2842078 13.807836,17.4013888 C13.7883059,17.420919 13.7687757,17.4404492 13.7492455,17.4599794 L13.7492455,17.4599794 C13.7492455,17.4599794 13.7492455,17.4599794 13.7492455,17.4599794 L13.690655,17.5185699 C13.690655,17.5185699 13.690655,17.5185699 13.690655,17.5185699 C13.690655,17.5185699 13.690655,17.5185699 13.690655,17.5185699 C13.6711248,17.5381001 13.6320644,17.5771604 13.6125343,17.5966906 C13.5930041,17.6162208 13.5930041,17.635751 13.5539437,17.6552812 C13.5344135,17.6748113 13.475823,17.6748113 13.475823,17.635751 C13.475823,17.635751 13.475823,17.635751 13.475823,17.635751 C13.4562928,17.6552812 13.4367627,17.6552812 13.4172325,17.6748113 C13.3977023,17.6943415 13.3781721,17.6943415 13.3586419,17.7138717 C13.3586419,17.7138717 13.3391118,17.7138717 13.3391118,17.7138717 C13.3391118,17.7138717 13.3195816,17.7138717 13.3195816,17.7138717 C13.2805212,17.7529321 13.2219307,17.7919924 13.1828703,17.8310528 C13.1047496,17.9091735 13.0266289,17.967764 12.9680384,18.0654149 C12.9680384,18.0654149 12.9680384,18.0654149 12.9680384,18.0654149 C12.9680384,18.0654149 12.9680384,18.0654149 12.9680384,18.0849451 C12.9680384,18.0849451 12.9680384,18.0849451 12.9485082,18.1044753 C12.9485082,18.1044753 12.9485082,18.1240054 12.928978,18.1240054 C12.928978,18.1240054 12.928978,18.1240054 12.928978,18.1240054 C12.928978,18.1435356 12.9094478,18.1435356 12.9094478,18.1630658 C12.9094478,18.1630658 12.9094478,18.1630658 12.9094478,18.1630658 C12.9094478,18.1630658 12.8899177,18.182596 12.8703875,18.182596 C12.8703875,18.182596 12.8508573,18.1630658 12.8508573,18.1630658 C12.8508573,18.1630658 12.8508573,18.1435356 12.8313271,18.1435356 C12.8117969,18.1240054 12.8117969,18.1044753 12.7922668,18.0849451 C12.7922668,18.0849451 12.7922668,18.0849451 12.7922668,18.0849451 C12.7922668,18.0849451 12.7922668,18.0654149 12.7922668,18.0654149 C12.8313271,18.0263545 12.8703875,17.9872942 12.9094478,17.9287037 C12.9094478,17.9287037 12.9094478,17.9287037 12.9094478,17.9287037 C12.928978,17.9091735 12.928978,17.8896433 12.9485082,17.8896433 C12.9680384,17.8701131 12.9875686,17.8310528 13.0070987,17.8115226 C13.0070987,17.7919924 13.0266289,17.7919924 13.0266289,17.7724622 C13.0656893,17.7138717 13.1047496,17.6748113 13.14381,17.6162208 C13.14381,17.6162208 13.14381,17.6162208 13.14381,17.6162208 C13.14381,17.6162208 13.1633402,17.5966906 13.1633402,17.5966906 C13.1828703,17.5771604 13.2024005,17.5381001 13.2219307,17.5185699 C13.2414609,17.4990397 13.2414609,17.4795096 13.260991,17.4404492 L13.260991,17.4404492 L13.260991,17.4404492 C13.260991,17.4404492 13.260991,17.4404492 13.260991,17.420919 C13.2805212,17.3818587 13.2805212,17.3623285 13.3000514,17.3427983 C13.3000514,17.3427983 13.3000514,17.3427983 13.3000514,17.3427983 L13.3000514,17.3232681 C13.3000514,17.303738 13.3000514,17.303738 13.3195816,17.2842078 C13.3195816,17.2842078 13.3195816,17.2842078 13.3195816,17.2842078 C13.3195816,17.2646776 13.3195816,17.2451474 13.3391118,17.2256172 C13.3391118,17.2256172 13.3391118,17.2060871 13.3391118,17.2060871 C13.3781721,17.1279663 13.4367627,17.0693758 13.4953532,17.0107853 C13.4953532,17.0107853 13.475823,17.0107853 13.475823,17.0107853 C13.4172325,17.0498456 13.3781721,17.088906 13.3391118,17.1279663 C13.3000514,17.1670267 13.2219307,17.1084362 13.2805212,17.0693758 C13.3195816,17.0498456 13.3391118,17.0107853 13.3586419,16.9912551 C13.3586419,16.9912551 13.3586419,16.9912551 13.3586419,16.9912551 C13.4172325,16.9326646 13.475823,16.8545439 13.5539437,16.7959533 C13.5930041,16.756893 13.6320644,16.7373628 13.6711248,16.7178326 C13.6711248,16.7178326 13.690655,16.6983024 13.690655,16.6983024 C13.7101852,16.6592421 13.7492455,16.6397119 13.7687757,16.6006515 C13.7687757,16.6006515 13.7687757,16.6006515 13.7687757,16.6006515 C14.1203189,16.2686385 14.7257544,16.2686385 15.1749485,16.0538065 C15.3507201,15.9756858 15.5850823,16.0928669 15.7608539,16.0538065 C15.8780349,16.0538065 15.9756858,16.0538065 16.0928669,16.1319273 C15.7608539,16.1905178 15.4679012,16.4053498 15.1554183,16.6006515 M15.9170953,14.022668 C15.8780349,13.9836076 16.0342764,14.022668 16.0733367,13.9445473 L15.780384,13.9445473 C15.7413237,13.9445473 15.7413237,13.9054869 15.7413237,13.8664266 C15.5655521,13.9054869 15.3311899,13.9836076 15.1554183,14.022668 C14.901526,14.1007887 14.6671639,14.2765603 14.3742112,14.354681 C13.9640775,14.5109225 13.6320644,14.8429355 13.2024005,14.9796467 C13.1633402,14.9796467 13.1633402,14.9405864 13.1633402,14.901526 C13.2024005,14.784345 13.3391118,14.7452846 13.4172325,14.6476337 C13.4172325,14.6085734 13.4172325,14.569513 13.3781721,14.569513 C13.6711248,14.1593793 14.0812585,13.9445473 14.4523319,13.6125343 L14.4523319,13.4953532 C14.569513,13.3391118 14.7452846,13.2805212 14.8234053,13.0852194 C14.8624657,12.9680384 15.0187071,12.8313271 15.1944787,12.7532064 C15.1554183,12.7141461 15.0772976,12.7141461 15.0772976,12.6360253 C14.9210562,12.6360253 14.784345,12.7141461 14.6281035,12.596965 C14.7062242,12.5383745 14.784345,12.4993141 14.8624657,12.4602537 C14.8234053,12.4602537 14.8038751,12.4407236 14.784345,12.4016632 C14.7452846,12.3235425 14.8624657,12.2454218 14.9601166,12.2258916 C15.116358,12.1868312 15.2921296,12.1868312 15.4093107,12.0696502 C15.1554183,12.0305898 14.8624657,12.1477709 14.5890432,11.9915295 C14.7648148,11.503275 15.0772976,11.1126714 15.5069616,10.8783093 C15.5460219,10.8783093 15.6241426,10.8783093 15.6241426,10.9173697 C15.6241426,11.0931413 15.5069616,11.2493827 15.3311899,11.288443 C15.6241426,11.3665638 15.9170953,11.3665638 16.210048,11.503275 C16.1709876,11.5813957 16.0928669,11.5423354 16.0538065,11.5423354 C16.2295781,11.6595164 16.4639403,11.5813957 16.6397119,11.718107 C16.5225308,11.835288 16.4248799,11.718107 16.3076989,11.718107 C17.4599794,12.05012 18.6708504,12.3040123 19.6278292,13.0461591 C18.8075617,13.4562928 17.967764,13.6320644 17.088906,13.8273662 C16.9717249,13.8273662 16.9131344,13.8273662 16.7959533,13.7883059 C16.7959533,13.8273662 16.7959533,13.9054869 16.756893,13.9054869 C16.6006515,13.9054869 16.5030006,13.9054869 16.3858196,13.9836076 C16.2491083,14.1007887 16.0342764,14.1398491 15.9170953,14.022668" id="Shape" fill="#000091"></path>
        <path d="M53.8642317,0.0390603566 L32.86929,0.0390603566 C32.86929,0.0390603566 32.9083504,0.0390603566 33.0645918,0.136711248 C33.2403634,0.234362139 33.4551954,0.351543209 33.5919066,0.410133744 C33.8653291,0.546844992 34.1192214,0.722616596 34.2949931,0.996039092 C34.3731138,1.11322016 34.4707647,1.32805212 34.4121741,1.48429355 C34.3340534,1.66006515 34.2949931,1.97254801 34.1192214,2.03113854 C33.9043895,2.14831961 33.6114368,2.14831961 33.3380143,2.10925925 C33.1817729,2.10925925 33.0450616,2.0701989 32.8888202,2.03113854 C33.4356652,2.2459705 33.96298,2.519393 34.3340534,3.02717763 C34.3731138,3.10529835 34.509825,3.1443587 34.6660664,3.1443587 C34.7051268,3.1443587 34.7051268,3.22247942 34.7051268,3.26153977 C34.6270061,3.33966049 34.5488854,3.37872084 34.5879457,3.47637173 L34.7051268,3.47637173 C34.8808984,3.39825102 34.8613682,3.02717763 35.1152605,3.1443587 C35.2910321,3.26153977 35.3691529,3.51543209 35.271502,3.69120369 C35.1152605,3.84744512 34.9785493,3.94509601 34.8223079,4.06227708 C34.7832475,4.14039779 34.7832475,4.23804869 34.8223079,4.3161694 C34.9394889,4.47241083 34.9785493,4.60912207 34.9980795,4.7653635 C35.1152605,5.01925582 35.1543209,5.31220849 35.2519718,5.58563099 C35.4082132,6.13247598 35.5449245,6.69885115 35.5058641,7.24569614 C35.5058641,7.53864881 35.3496227,7.79254113 35.4668038,8.08549381 C35.5449245,8.37844648 35.7206961,8.59327844 35.8769375,8.86670094 C36.0331789,9.0815329 36.1698902,9.23777432 36.2870712,9.45260629 C36.5019032,9.82367967 36.9120369,10.1947531 36.7362653,10.624417 C36.6190843,10.8783093 36.2284807,10.8392489 35.9550582,10.9954904 C35.7402262,11.171262 35.9159979,11.4837448 36.0331789,11.6595164 C36.2089505,11.9915295 35.818347,12.2063614 35.5449245,12.3235425 C35.6230452,12.4407236 35.7597564,12.4016632 35.7988168,12.4797839 C35.8378771,12.6555555 36.0136487,12.7727366 35.9159979,12.9680384 C35.7597564,13.1828703 35.3300925,13.3000514 35.5449245,13.6320644 C35.7011659,13.8859568 35.603515,14.1789094 35.5058641,14.4523319 C35.388683,14.784345 35.0957304,14.9405864 34.841838,14.9991769 C34.6270061,15.0772976 34.3535836,15.0772976 34.1387516,15.0382373 C34.0606309,14.9991769 33.9825102,14.9601166 33.9239197,14.9601166 C33.298954,14.8819958 32.6739883,14.7062242 32.0490226,14.7062242 C31.8732509,14.7452846 31.6779492,14.784345 31.5412379,14.8429355 C31.3654663,14.9601166 31.2287551,15.0968278 31.0920438,15.2335391 C31.0920438,15.2335391 31.0920438,15.2335391 31.0920438,15.2335391 C31.0725136,15.2725994 31.0334533,15.2921296 31.0139231,15.3311899 C30.9943929,15.3507201 30.9748627,15.3702503 30.9748627,15.3897805 C30.9553326,15.4093107 30.9553326,15.4093107 30.9358024,15.4288408 C30.8186213,15.5655521 30.7405006,15.7022633 30.6428497,15.8585048 C30.6428497,15.8780349 30.6233195,15.8780349 30.6233195,15.8780349 C30.6233195,15.8975651 30.6037894,15.9170953 30.5842592,15.9366255 C30.4670781,16.1514574 30.3694272,16.3858196 30.3108367,16.6201817 C30.0569444,17.4599794 30.1741254,18.182596 30.349897,18.3583676 C30.3889574,18.3974279 31.5607681,18.7685013 32.3810356,19.1395747 C32.7716391,19.3153463 33.0255315,19.4325274 33.2598936,19.5887688 L53.8837619,19.5887688 L53.8837619,0.0390603566 L53.8642317,0.0390603566 Z" id="Path" fill="#E1000F"></path>
        <path d="M34.1192214,7.14804525 C34.2754629,7.18710561 34.4902948,7.18710561 34.4902948,7.26522632 C34.4121741,7.55817899 33.9825102,7.63629971 33.7481481,7.92925238 L33.630967,7.92925238 C33.5137859,8.00737309 33.5528463,8.1831447 33.4551954,8.1831447 C33.3380143,8.14408434 33.2403634,8.1831447 33.1231824,8.22220505 C33.2794238,8.37844648 33.4551954,8.47609737 33.6700273,8.43703702 C33.7090877,8.43703702 33.7872084,8.51515773 33.7872084,8.59327844 C33.7872084,8.59327844 33.8262688,8.59327844 33.8653291,8.55421809 C33.9043895,8.55421809 33.9434498,8.55421809 33.9434498,8.59327844 L33.9434498,8.74951987 C33.8262688,8.90576129 33.6504972,8.82764058 33.4942557,8.86670094 C33.7872084,8.94482165 34.0801611,8.94482165 34.3535836,8.86670094 C34.5684155,8.78858022 34.3535836,8.41750684 34.509825,8.24173523 C34.4317043,8.24173523 34.509825,8.12455416 34.4317043,8.12455416 C34.509825,8.04643345 34.5879457,7.94878256 34.6465363,7.9097222 C34.724657,7.9097222 34.8223079,7.87066185 34.8613682,7.79254113 C34.8613682,7.71442042 34.7051268,7.67536006 34.7441872,7.61676953 C34.9590191,7.4605281 35.1543209,7.24569614 35.0762002,7.03086418 C35.0371398,6.91368311 34.7441872,6.91368311 34.5684155,6.8355624 C34.3926439,6.75744168 34.1582818,6.8355624 33.9434498,6.87462275 C33.7676782,6.87462275 33.5723765,6.99180382 33.3966049,7.03086418 C33.1427125,7.10898489 32.9083504,7.24569614 32.6935184,7.40193757 C32.9474108,7.2847565 33.2013031,7.24569614 33.4942557,7.18710561 C33.7090877,7.14804525 33.8848593,7.10898489 34.1192214,7.14804525" id="Path" fill="#808080"></path>
    </g>

</svg>
