<?xml version="1.0" encoding="UTF-8"?>
<svg width="40px" height="40px" viewBox="0 0 40 40" version="1.1" xmlns="http://www.w3.org/2000/svg" xmlns:xlink="http://www.w3.org/1999/xlink">
    <title>problem</title>
    <g id="Site" stroke="none" stroke-width="1" fill="none" fill-rule="evenodd">
        <g id="Main-Copy" transform="translate(-1119.000000, -2365.000000)">
            <g id="problem" transform="translate(1119.000000, 2365.000000)">
                <circle id="Oval" fill="#79F7EA" cx="20" cy="20" r="20"></circle>
                <path d="M16.8180194,11.867767 L19.9991457,15.0496407 L21.767767,13.2819805 C23.134602,11.9151455 25.3506794,11.9151455 26.7175144,13.2819805 C28.0843494,14.6488155 28.0843494,16.864893 26.7175144,18.231728 L24.9491457,19.9996407 L28.1317279,23.1814755 C29.4985629,24.5483105 29.4985629,26.7643879 28.1317279,28.1312229 C26.7648929,29.4980579 24.5488154,29.4980579 23.1819804,28.1312229 L20.0001457,24.9486407 L18.232233,26.7170094 C16.865398,28.0838444 14.6493206,28.0838444 13.2824856,26.7170094 C11.9156506,25.3501743 11.9156506,23.1340969 13.2824856,21.7672619 L15.0501457,19.9986407 L11.8682719,16.8175144 C10.5014369,15.4506794 10.5014369,13.234602 11.8682719,11.867767 C13.235107,10.5009319 15.4511844,10.5009319 16.8180194,11.867767 Z" id="Combined-Shape" fill="#0E37DD"></path>
            </g>
        </g>
    </g>
</svg>