<?xml version="1.0" encoding="UTF-8"?>
<svg viewBox="0 0 32 120" version="1.1" xmlns="http://www.w3.org/2000/svg" xmlns:xlink="http://www.w3.org/1999/xlink">
    <g id="Site" stroke="none" stroke-width="1" fill="none" fill-rule="evenodd">
        <g id="Page-Defi" transform="translate(-396.000000, -1920.000000)">
            <g id="Group-9" transform="translate(172.000000, 1920.000000)">
                <g id="StepLong-Copy-2" transform="translate(224.000000, 0.000000)">
                    <rect id="Rectangle" fill="#FFFFFF" x="0" y="0" width="32" height="120" rx="16"></rect>
                    <g id="hourglass" transform="translate(8.000000, 16.000000)" fill="#FF5638" fill-rule="nonzero">
                        <path d="M15,0 L1,0 C0.447708333,0 0,0.447708333 0,1 L0,1.66666667 C0,2.21895833 0.447708333,2.66666667 1,2.66666667 C1,6.456875 3.12566667,9.65558333 6.03508333,10.6666667 C3.12566667,11.67775 1,14.8764583 1,18.6666667 C0.447708333,18.6666667 0,19.114375 0,19.6666667 L0,20.3333333 C0,20.885625 0.447708333,21.3333333 1,21.3333333 L15,21.3333333 C15.5522917,21.3333333 16,20.885625 16,20.3333333 L16,19.6666667 C16,19.114375 15.5522917,18.6666667 15,18.6666667 C15,14.8764583 12.8743333,11.67775 9.96491667,10.6666667 C12.8743333,9.65558333 15,6.456875 15,2.66666667 C15.5522917,2.66666667 16,2.21895833 16,1.66666667 L16,1 C16,0.447708333 15.5522917,0 15,0 Z M11.87175,16 L4.12833333,16 C4.839125,14.050125 6.299,12.6666667 8,12.6666667 C9.700875,12.6666667 11.1609167,14.0498333 11.87175,16 Z M11.8725417,5.33333333 L4.12825,5.33333333 C3.83283333,4.52283333 3.66666667,3.6145 3.66666667,2.66666667 L12.3333333,2.66666667 C12.3333333,3.616875 12.1672083,4.52445833 11.8725417,5.33333333 L11.8725417,5.33333333 Z" id="Shape"></path>
                    </g>
                </g>
            </g>
        </g>
    </g>
</svg>
