<?xml version="1.0" encoding="UTF-8"?>
<svg width="40px" height="40px" viewBox="0 0 40 40" version="1.1" xmlns="http://www.w3.org/2000/svg" xmlns:xlink="http://www.w3.org/1999/xlink">
    <title>steps</title>
    <g id="Site" stroke="none" stroke-width="1" fill="none" fill-rule="evenodd">
        <g id="Main-Copy" transform="translate(-1172.000000, -2365.000000)">
            <g id="steps" transform="translate(1172.000000, 2365.000000)">
                <circle id="Oval" fill="#79F7EA" cx="20" cy="20" r="20"></circle>
                <path d="M20,21 C22.7614237,21 25,23.2385763 25,26 C25,28.7614237 22.7614237,31 20,31 C17.2385763,31 15,28.7614237 15,26 C15,23.2385763 17.2385763,21 20,21 Z M20,9 C22.7614237,9 25,11.2385763 25,14 C25,16.7614237 22.7614237,19 20,19 C17.2385763,19 15,16.7614237 15,14 C15,11.2385763 17.2385763,9 20,9 Z" id="Combined-Shape" fill="#0E37DD"></path>
            </g>
        </g>
    </g>
</svg>