<?xml version="1.0" encoding="UTF-8"?>
<svg viewBox="0 0 236 272" version="1.1" xmlns="http://www.w3.org/2000/svg" xmlns:xlink="http://www.w3.org/1999/xlink">
    <g id="Site" stroke="none" stroke-width="1" fill="none" fill-rule="evenodd">
        <g id="Main-Copy-9" transform="translate(-251.000000, -1353.000000)" fill-rule="nonzero">
            <g id="Content" transform="translate(251.000000, 933.000000)">
                <g id="Group-6" transform="translate(0.000000, 420.000000)">
                    <g id="AccessibiliteIllustration">
                        <path d="M191.991403,36.0166567 C216.440955,46.280597 234.508657,74.3991045 235.324657,102.115701 C236.09194,129.881015 219.604478,157.186567 202.097015,180.716597 C184.641313,204.194866 166.168657,223.845851 143.451582,232.477791 C120.688836,241.103642 93.6390448,238.707403 74.2438209,226.659224 C54.9003582,214.656716 43.2632239,192.965731 30.3472836,171.527463 C17.4343881,150.144 3.34925373,128.961493 0.541970149,103.69594 C-2.31707463,78.4821493 6.15653731,49.0848358 25.6035224,37.9561791 C45.0505075,26.8275224 75.4160597,33.9766567 106.040418,33.7208955 C136.664776,33.4651343 167.493134,25.8105672 191.991403,36.0166567 Z" id="Path" fill="#EBECF0"></path>
                        <path d="M62.9477015,108.771582 C63.1456119,112.763284 62.9477015,263.966866 62.9477015,263.966866 L73.4978507,263.966866 L89.6351642,164.600597 C89.8391642,161.379224 92.7804179,125.764478 92.7804179,125.764478 L74.2072836,106.68591 L62.9477015,108.771582 Z" id="Path" fill="#3355E3"></path>
                        <path d="M105.586746,107.693731 C105.586746,107.693731 117.674507,185.031045 117.674507,188.179343 C117.674507,191.327642 97.8834627,262.672836 97.8834627,262.672836 L87.7291343,262.672836 L96.3671642,180.415164 L66.7506269,110.829851" id="Path" fill="#3355E3"></path>
                        <path d="M55.284,78.4364776 C54.7328955,79.2372537 51.2648955,87.3272239 51.5267463,90.5120597 C51.9286567,95.3837015 55.2718209,98.0783284 60.9899104,101.034806 C62.6340896,101.034806 64.3878806,82.0445373 64.3878806,82.0445373 L59.2452537,78.4364776 L55.284,78.4364776 Z" id="Path" fill="#FFDBAC"></path>
                        <path d="M66.7506269,57.3087761 C59.0503881,63.2582687 52.5193433,74.9684776 53.7890149,77.1241791 C54.3979701,78.132 57.5706269,79.9284179 61.1939104,81.5604179" id="Path" fill="#3355E3"></path>
                        <ellipse id="Oval" fill="#FFDBAC" transform="translate(85.117477, 22.401239) rotate(-76.270000) translate(-85.117477, -22.401239) " cx="85.1174774" cy="22.4012392" rx="17.0903284" ry="13.464"></ellipse>
                        <path d="M84.2672239,42.5385672 C101.39409,42.5385672 108.390985,103.951701 105.580657,107.696776 C101.747284,112.80591 74.3199403,116.919403 62.953791,108.774627 C58.5814925,105.653731 57.9177313,42.5385672 84.2672239,42.5385672 Z" id="Path" fill="#3355E3"></path>
                        <polyline id="Path" fill="#323233" points="62.9477015 263.966866 62.9477015 271.222567 87.7291343 271.222567 87.7291343 267.124299 73.4978507 263.966866"></polyline>
                        <polyline id="Path" fill="#323233" points="87.7291343 262.672836 87.7291343 271.222567 113.682806 271.222567 113.682806 267.897672 97.8956418 262.672836"></polyline>
                        <path d="M108.558448,74.5087164 C109.039522,75.0202388 113.201731,81.0945672 113.783284,82.3916418 C114.943343,81.4020896 152.196179,50.1687761 152.808179,49.7455522 C153.420179,49.3223284 154.479761,49.3588657 154.893851,49.6389851 C155.588745,50.0937145 155.833412,50.9964983 155.463224,51.7398806 C155.134388,52.3488358 150.503284,56.4227463 150.503284,56.4227463 C150.880836,56.8946866 152.814269,61.7967761 150.338866,64.0986269 C148.655104,65.6666866 146.74603,66.1873433 144.91003,65.2160597 C143.692119,66.5344478 114.57797,98.708597 109.499284,98.708597 C107.148716,98.708597 99.0861493,90.4359403 95.4506866,84.2032836" id="Path" fill="#FFDBAC"></path>
                        <path d="M82.8179104,60.8011343 C82.8179104,70.8488955 90.7343284,84.8548657 93.4746269,84.8548657 C96.2149254,84.8548657 109.916418,74.8071045 109.916418,72.3712836 C109.916418,69.9354627 99.2597015,51.9712836 90.1253731,51.9712836 C86.4716418,51.9712836 82.8179104,55.9294925 82.8179104,60.8011343 Z" id="Path" fill="#3355E3"></path>
                        <path d="M81.9044776,20.6131343 C87.1536716,20.6527164 96.6838209,10.3552836 96.6838209,9.95641791 C96.6838209,9.04298507 95.064,4.21701493 85.6647761,4.21701493 C78.9510448,4.21701493 68.3887164,8.91814925 68.3887164,24.358209 C68.3887164,32.3081194 65.28,40.8 65.28,44.6364179 C65.28,50.4671642 69.9780896,54.142209 77.398209,54.142209 C80.9819104,54.142209 86.3711642,52.3762388 86.3711642,49.4776119 C86.3711642,45.2392836 90.7191045,31.4677612 82.4129552,28.4686567" id="Path" fill="#FF5F42"></path>
                        <path d="M83.3598806,28.0484776 C82.8621316,28.3718466 82.2818595,28.5451883 81.6882985,28.5478209 C79.791403,28.5478209 78.253791,26.7696716 78.253791,24.5743881 C78.253791,22.3791045 79.791403,20.6161781 81.6882985,20.6161781 C82.0434003,20.6158863 82.3958162,20.6777136 82.7296119,20.7988657" id="Path" fill="#FFDBAC"></path>
                        <rect id="Rectangle" fill="#FF5F42" x="162.079522" y="0" width="60.2896119" height="44.5694328"></rect>
                        <circle id="Oval" fill="#FF5F42" cx="192.222806" cy="82.9762388" r="25.6674627"></circle>
                    </g>
                </g>
            </g>
        </g>
    </g>
</svg>
