<?xml version="1.0" encoding="UTF-8"?>
<svg width="80px" height="80px" viewBox="0 0 80 80" version="1.1" xmlns="http://www.w3.org/2000/svg" xmlns:xlink="http://www.w3.org/1999/xlink">
    <g id="Site" stroke="none" stroke-width="1" fill="none" fill-rule="evenodd">
        <g id="Desktop-HD-Copy-3" transform="translate(-804.000000, -1004.000000)" fill="#161616">
            <g id="Group-12" transform="translate(142.000000, 908.000000)">
                <g id="Group-5" transform="translate(510.000000, 64.000000)">
                    <g id="accessibilite" transform="translate(152.000000, 32.000000)">
                        <path d="M40,41 C42.7614237,41 45,43.2385763 45,46 C45,48.7614237 42.7614237,51 40,51 C37.2385763,51 35,48.7614237 35,46 C35,43.2385763 37.2385763,41 40,41 Z M40,29 C42.7614237,29 45,31.2385763 45,34 C45,36.7614237 42.7614237,39 40,39 C37.2385763,39 35,36.7614237 35,34 C35,31.2385763 37.2385763,29 40,29 Z" id="Forme" transform="translate(40.000000, 40.000000) rotate(-45.000000) translate(-40.000000, -40.000000) "></path>
                    </g>
                </g>
            </g>
        </g>
    </g>
</svg>
