<?xml version="1.0" encoding="UTF-8"?>
<svg viewBox="0 0 230 238" version="1.1" xmlns="http://www.w3.org/2000/svg" xmlns:xlink="http://www.w3.org/1999/xlink">
    <path d="M187.626891,29.8626263 C211.520638,38.9427609 229.177612,63.8181818 229.975062,88.3380471 C230.724903,112.90101 214.612245,137.057239 197.502775,157.873401 C180.443889,178.643771 162.391166,196.028283 140.190512,203.664646 C117.945225,211.295623 91.5103489,209.175758 72.5560312,198.517172 C53.652298,187.89899 42.2797074,168.709764 29.6573815,149.744108 C17.0380312,130.826936 3.27309025,112.087542 0.529623857,89.7360269 C-2.26442706,67.430303 6.01655665,41.423569 25.0214589,31.5784512 C44.0263611,21.7333333 73.7016218,28.0579125 103.629805,27.8316498 C133.557988,27.6053872 163.685534,20.83367 187.626891,29.8626263 Z" id="Path" fill="#EBECF0"></path>
    <path d="M45.6875421,94.2262626 C45.8626263,97.7575758 45.6875421,231.521886 45.6875421,231.521886 L55.0208754,231.521886 L69.2969697,143.616162 C69.4774411,140.76633 72.0794613,109.259259 72.0794613,109.259259 L55.6484848,92.3811448 L45.6875421,94.2262626 Z" id="Path" fill="#748CEC"></path>
    <path d="M83.4087542,93.2727273 C83.4087542,93.2727273 94.1023569,161.690236 94.1023569,164.475421 C94.1023569,167.260606 76.5939394,230.377104 76.5939394,230.377104 L67.6107744,230.377104 L75.2525253,157.606734 L49.0518519,96.047138" id="Path" fill="#8C9FEE"></path>
    <path d="M38.9077441,67.389899 C38.420202,68.0983165 35.3521886,75.2552189 35.5838384,78.0727273 C35.9393939,82.3824916 38.8969697,84.76633 43.9555556,87.3818182 C45.410101,87.3818182 46.9616162,70.5818182 46.9616162,70.5818182 L42.4121212,67.389899 L38.9077441,67.389899 Z" id="Path" fill="#DE8E68"></path>
    <path d="M49.0518519,48.6989899 C42.2397306,53.9622896 36.4619529,64.3218855 37.5851852,66.2289562 C38.1239057,67.1205387 40.9306397,68.7097643 44.1360269,70.1535354" id="Path" fill="#FAFA8C"></path>
    <ellipse id="Oval" fill="#DE8E68" transform="translate(65.300336, 17.817562) rotate(-76.270000) translate(-65.300336, -17.817562) " cx="65.3003365" cy="17.8175616" rx="15.1191919" ry="11.9111111"></ellipse>
    <path d="M64.5481481,35.6323232 C79.6996633,35.6323232 85.8895623,89.9622896 83.403367,93.2754209 C80.0121212,97.7952862 55.7481481,101.434343 45.6929293,94.2289562 C41.8249158,91.4680135 41.2377104,35.6323232 64.5481481,35.6323232 Z" id="Path" fill="#FCFC8E"></path>
    <polyline id="Path" fill="#323233" points="45.6875421 231.521886 45.6875421 237.940741 67.6107744 237.940741 67.6107744 234.315152 55.0208754 231.521886"></polyline>
    <polyline id="Path" fill="#323233" points="67.6107744 230.377104 67.6107744 237.940741 90.5710438 237.940741 90.5710438 234.999327 76.6047138 230.377104"></polyline>
    <path d="M86.0377104,63.9151515 C86.4632997,64.3676768 90.1454545,69.7414141 90.6599327,70.8888889 C91.6861953,70.013468 124.642424,42.3824916 125.183838,42.0080808 C125.725253,41.63367 126.662626,41.6659933 127.028956,41.9138047 C127.643704,42.3160873 127.860152,43.1147473 127.53266,43.7723906 C127.241751,44.3111111 123.144781,47.9151515 123.144781,47.9151515 C123.478788,48.3326599 125.189226,52.6693603 122.999327,54.7057239 C121.509764,56.0929293 119.820875,56.5535354 118.196633,55.6942761 C117.119192,56.8606061 91.362963,85.3239057 86.8700337,85.3239057 C84.7905724,85.3239057 77.6579125,78.0053872 74.4417508,72.4915825" id="Path" fill="#DE8E68"></path>
    <path d="M63.2659933,51.7885522 C63.2659933,60.6774411 70.2693603,73.0680135 72.6936027,73.0680135 C75.1178451,73.0680135 87.2390572,64.1791246 87.2390572,62.0242424 C87.2390572,59.8693603 77.8114478,43.9771044 69.7306397,43.9771044 C66.4983165,43.9771044 63.2659933,47.4787879 63.2659933,51.7885522 Z" id="Path" fill="#FFFF8F"></path>
    <path d="M62.4579125,16.2356902 C67.1016835,16.2707071 75.5326599,7.16094276 75.5326599,6.80808081 C75.5326599,6 74.0996633,1.73063973 65.7845118,1.73063973 C59.8451178,1.73063973 50.5010101,5.88956229 50.5010101,19.5488215 C50.5010101,26.5818182 47.7508418,34.0942761 47.7508418,37.4882155 C47.7508418,42.6464646 51.9070707,45.8976431 58.4713805,45.8976431 C61.6417508,45.8976431 66.4094276,44.3353535 66.4094276,41.7710438 C66.4094276,38.0215488 70.2558923,25.8383838 62.9077441,23.1851852" id="Path" fill="#323233"></path>
    <path d="M63.7454545,22.813468 C63.3051141,23.0995408 62.7917685,23.2528899 62.2666667,23.2552189 C60.5885522,23.2552189 59.2282828,21.6821549 59.2282828,19.7400673 C59.2282828,17.7979798 60.5885522,16.2383829 62.2666667,16.2383829 C62.5808124,16.2381248 62.8925819,16.2928212 63.1878788,16.4" id="Path" fill="#DE8E68"></path>
    <path d="M170.052525,68.6989899 C182.593294,68.6989899 192.759596,78.8652917 192.759596,91.4060606 C192.759596,103.946829 182.593294,114.113131 170.052525,114.113131 C157.511756,114.113131 147.345455,103.946829 147.345455,91.4060606 C147.345455,78.8652917 157.511756,68.6989899 170.052525,68.6989899 Z M196.721886,18 L196.721886,57.4289562 L143.385859,57.4289562 L143.385859,18 L196.721886,18 Z" id="Combined-Shape" fill="#FF5F42"></path>
</svg>
