<?xml version="1.0" encoding="UTF-8"?>
<svg viewBox="0 0 209 240" version="1.1" xmlns="http://www.w3.org/2000/svg" xmlns:xlink="http://www.w3.org/1999/xlink">
  <path d="M169.847811,31.8626263 C191.477441,40.9427609 207.461279,65.8181818 208.183165,90.3380471 C208.861953,114.90101 194.276094,139.057239 178.787879,159.873401 C163.345455,180.643771 147.003367,198.028283 126.906397,205.664646 C106.769024,213.295623 82.8390572,211.175758 65.6808081,200.517172 C48.5683502,189.89899 38.2734007,170.709764 26.847138,151.744108 C15.423569,132.826936 2.96296296,114.087542 0.479461279,91.7360269 C-2.04983165,69.430303 5.44646465,43.423569 22.6505051,33.5784512 C39.8545455,23.7333333 66.7178451,30.0579125 93.810101,29.8316498 C120.902357,29.6053872 148.175084,22.83367 169.847811,31.8626263 Z" id="Path" fill="#EBECF0"></path>
  <path d="M55.6875421,96.2262626 C55.8626263,99.7575758 55.6875421,233.521886 55.6875421,233.521886 L65.0208754,233.521886 L79.2969697,145.616162 C79.4774411,142.76633 82.0794613,111.259259 82.0794613,111.259259 L65.6484848,94.3811448 L55.6875421,96.2262626 Z" id="Path" fill="#748CEC"></path>
  <path d="M93.4087542,95.2727273 C93.4087542,95.2727273 104.102357,163.690236 104.102357,166.475421 C104.102357,169.260606 86.5939394,232.377104 86.5939394,232.377104 L77.6107744,232.377104 L85.2525253,159.606734 L59.0518519,98.047138" id="Path" fill="#8C9FEE"></path>
  <path d="M48.9077441,69.389899 C48.420202,70.0983165 45.3521886,77.2552189 45.5838384,80.0727273 C45.9393939,84.3824916 48.8969697,86.76633 53.9555556,89.3818182 C55.410101,89.3818182 56.9616162,72.5818182 56.9616162,72.5818182 L52.4121212,69.389899 L48.9077441,69.389899 Z" id="Path" fill="#DE8E68"></path>
  <path d="M59.0518519,50.6989899 C52.2397306,55.9622896 46.4619529,66.3218855 47.5851852,68.2289562 C48.1239057,69.1205387 50.9306397,70.7097643 54.1360269,72.1535354" id="Path" fill="#FAFA8C"></path>
  <ellipse id="Oval" fill="#DE8E68" transform="translate(75.300336, 19.817562) rotate(-76.270000) translate(-75.300336, -19.817562) " cx="75.3003365" cy="19.8175616" rx="15.1191919" ry="11.9111111"></ellipse>
  <path d="M74.5481481,37.6323232 C89.6996633,37.6323232 95.8895623,91.9622896 93.403367,95.2754209 C90.0121212,99.7952862 65.7481481,103.434343 55.6929293,96.2289562 C51.8249158,93.4680135 51.2377104,37.6323232 74.5481481,37.6323232 Z" id="Path" fill="#FCFC8E"></path>
  <polyline id="Path" fill="#323233" points="55.6875421 233.521886 55.6875421 239.940741 77.6107744 239.940741 77.6107744 236.315152 65.0208754 233.521886"></polyline>
  <polyline id="Path" fill="#323233" points="77.6107744 232.377104 77.6107744 239.940741 100.571044 239.940741 100.571044 236.999327 86.6047138 232.377104"></polyline>
  <path d="M96.0377104,65.9151515 C96.4632997,66.3676768 100.145455,71.7414141 100.659933,72.8888889 C101.686195,72.013468 134.642424,44.3824916 135.183838,44.0080808 C135.725253,43.63367 136.662626,43.6659933 137.028956,43.9138047 C137.643704,44.3160873 137.860152,45.1147473 137.53266,45.7723906 C137.241751,46.3111111 133.144781,49.9151515 133.144781,49.9151515 C133.478788,50.3326599 135.189226,54.6693603 132.999327,56.7057239 C131.509764,58.0929293 129.820875,58.5535354 128.196633,57.6942761 C127.119192,58.8606061 101.362963,87.3239057 96.8700337,87.3239057 C94.7905724,87.3239057 87.6579125,80.0053872 84.4417508,74.4915825" id="Path" fill="#DE8E68"></path>
  <path d="M73.2659933,53.7885522 C73.2659933,62.6774411 80.2693603,75.0680135 82.6936027,75.0680135 C85.1178451,75.0680135 97.2390572,66.1791246 97.2390572,64.0242424 C97.2390572,61.8693603 87.8114478,45.9771044 79.7306397,45.9771044 C76.4983165,45.9771044 73.2659933,49.4787879 73.2659933,53.7885522 Z" id="Path" fill="#FFFF8F"></path>
  <path d="M72.4579125,18.2356902 C77.1016835,18.2707071 85.5326599,9.16094276 85.5326599,8.80808081 C85.5326599,8 84.0996633,3.73063973 75.7845118,3.73063973 C69.8451178,3.73063973 60.5010101,7.88956229 60.5010101,21.5488215 C60.5010101,28.5818182 57.7508418,36.0942761 57.7508418,39.4882155 C57.7508418,44.6464646 61.9070707,47.8976431 68.4713805,47.8976431 C71.6417508,47.8976431 76.4094276,46.3353535 76.4094276,43.7710438 C76.4094276,40.0215488 80.2558923,27.8383838 72.9077441,25.1851852" id="Path" fill="#323233"></path>
  <path d="M73.7454545,24.813468 C73.3051141,25.0995408 72.7917685,25.2528899 72.2666667,25.2552189 C70.5885522,25.2552189 69.2282828,23.6821549 69.2282828,21.7400673 C69.2282828,19.7979798 70.5885522,18.2383829 72.2666667,18.2383829 C72.5808124,18.2381248 72.8925819,18.2928212 73.1878788,18.4" id="Path" fill="#DE8E68"></path>
  <path d="M170.052525,50.6989899 C182.593294,50.6989899 192.759596,60.8652917 192.759596,73.4060606 C192.759596,85.9468295 182.593294,96.1131313 170.052525,96.1131313 C157.511756,96.1131313 147.345455,85.9468295 147.345455,73.4060606 C147.345455,60.8652917 157.511756,50.6989899 170.052525,50.6989899 Z M196.721886,3.12638804e-13 L196.721886,39.4289562 L143.385859,39.4289562 L143.385859,3.12638804e-13 L196.721886,3.12638804e-13 Z" id="Combined-Shape" fill="#FF5F42"></path>
</svg>
