<?xml version="1.0" encoding="UTF-8"?>
<svg width="40px" height="40px" viewBox="0 0 40 40" version="1.1" xmlns="http://www.w3.org/2000/svg" xmlns:xlink="http://www.w3.org/1999/xlink">
    <!-- Generator: Sketch 64 (93537) - https://sketch.com -->
    <title>accessibilite</title>
    <desc>Created with Sketch.</desc>
    <g id="Site" stroke="none" stroke-width="1" fill="none" fill-rule="evenodd">
        <g id="Main-Copy-4" transform="translate(-260.000000, -949.000000)">
            <g id="Main" transform="translate(251.000000, 566.000000)">
                <g id="Card-Copy" transform="translate(0.000000, 374.000000)">
                    <g id="accessibilite" transform="translate(29.000000, 29.000000) rotate(135.000000) translate(-29.000000, -29.000000) translate(9.000000, 9.000000)">
                        <path d="M20,0 C31.045695,0 40,8.954305 40,20 C40,31.045695 31.045695,40 20,40 C8.954305,40 0,31.045695 0,20 C0,8.954305 8.954305,0 20,0 Z M20,6 C12.2680135,6 6,12.2680135 6,20 C6,27.7319865 12.2680135,34 20,34 C27.7319865,34 34,27.7319865 34,20 C34,12.2680135 27.7319865,6 20,6 Z" id="Combined-Shape" fill="#3355E3"></path>
                        <circle id="Oval-Copy-3" fill="#FF5F42" cx="20" cy="26" r="5"></circle>
                        <circle id="Oval-Copy-4" fill="#FF5F42" cx="20" cy="14" r="5"></circle>
                    </g>
                </g>
            </g>
        </g>
    </g>
</svg>