<svg width="80" height="80" viewBox="0 0 80 80" fill="none" xmlns="http://www.w3.org/2000/svg">
<g id="accompagnement">
<circle id="Oval" cx="40" cy="40" r="40" fill="var(--background-alt-blue-france)"/>
<path id="Vector" d="M45.333 31.5C45.333 35.9188 41.7518 39.5 37.333 39.5C32.9143 39.5 29.333 35.9188 29.333 31.5C29.333 27.0813 32.9143 23.5 37.333 23.5C41.7518 23.5 45.333 27.0813 45.333 31.5ZM23.333 53.6438C23.333 47.4875 28.3205 42.5 34.4768 42.5H40.1893C46.3455 42.5 51.333 47.4875 51.333 53.6438C51.333 54.6688 50.5018 55.5 49.4768 55.5H25.1893C24.1643 55.5 23.333 54.6688 23.333 53.6438ZM53.1664 43V39H49.1663C48.3351 39 47.6663 38.3313 47.6663 37.5C47.6663 36.6688 48.3351 36 49.1663 36H53.1664V32C53.1664 31.1688 53.8351 30.5 54.6664 30.5C55.4976 30.5 56.1664 31.1688 56.1664 32V36H60.1664C60.9976 36 61.6664 36.6688 61.6664 37.5C61.6664 38.3313 60.9976 39 60.1664 39H56.1664V43C56.1664 43.8313 55.4976 44.5 54.6664 44.5C53.8351 44.5 53.1664 43.8313 53.1664 43Z" fill="var(--blue-france-850-200)"/>
</g>
</svg>
