<?xml version="1.0" encoding="UTF-8"?>
<svg width="48" height="48" viewBox="0 0 40 40" version="1.1" xmlns="http://www.w3.org/2000/svg" xmlns:xlink="http://www.w3.org/1999/xlink">
    <g id="Site" stroke="none" stroke-width="1" fill="none" fill-rule="evenodd">
        <g id="Main-Copy" transform="translate(-1135.000000, -2489.000000)">
            <g id="formation-copy" transform="translate(1135.000000, 2489.000000)">
                <circle id="Oval" fill="#79F7EA" cx="20" cy="20" r="20"></circle>
                <path d="M25.5,21 C27.4329966,21 29,22.5670034 29,24.5 C29,26.4329966 27.4329966,28 25.5,28 L14.5,28 C12.5670034,28 11,26.4329966 11,24.5 C11,22.5670034 12.5670034,21 14.5,21 L25.5,21 Z M25.5,12 C27.4329966,12 29,13.5670034 29,15.5 C29,17.4329966 27.4329966,19 25.5,19 L14.5,19 C12.5670034,19 11,17.4329966 11,15.5 C11,13.5670034 12.5670034,12 14.5,12 L25.5,12 Z" id="Forme" fill="#0E37DD"></path>
            </g>
        </g>
    </g>
</svg>
