<?xml version="1.0" encoding="UTF-8"?>
<svg width="80px" height="80px" viewBox="0 0 80 80" version="1.1" xmlns="http://www.w3.org/2000/svg" xmlns:xlink="http://www.w3.org/1999/xlink">
    <title>Group 20</title>
    <g id="Site" stroke="none" stroke-width="1" fill="none" fill-rule="evenodd">
        <g id="Desktop-HD-Copy-3" transform="translate(-684.000000, -1468.000000)">
            <g id="Group-13" transform="translate(244.000000, 1364.000000)">
                <g id="Group-21" transform="translate(408.000000, 72.000000)">
                    <g id="Group-20" transform="translate(32.000000, 32.000000)">
                        <circle id="Oval" fill="var(--background-alt-blue-france)" cx="40" cy="40" r="40"></circle>
                        <g id="user-astronaut-solid(1)" transform="translate(25.500000, 23.500000)" fill="var(--blue-france-850-200)" fill-rule="nonzero">
                            <path d="M4.14285714,14.4375 L5.01674107,14.4375 C6.615625,18.0791016 10.2535714,20.625 14.5,20.625 C18.7464286,20.625 22.384375,18.0791016 23.9832589,14.4375 L24.8571429,14.4375 C25.4267857,14.4375 25.8928571,13.9734375 25.8928571,13.40625 L25.8928571,7.21875 C25.8928571,6.6515625 25.4267857,6.1875 24.8571429,6.1875 L23.9832589,6.1875 C22.384375,2.54589844 18.7464286,0 14.5,0 C10.2535714,0 6.615625,2.54589844 5.01674107,6.1875 L4.14285714,6.1875 C3.57321429,6.1875 3.10714286,6.6515625 3.10714286,7.21875 L3.10714286,13.40625 C3.10714286,13.9734375 3.57321429,14.4375 4.14285714,14.4375 Z M6.73214286,8.765625 C6.73214286,7.34121094 8.12388393,6.1875 9.83928571,6.1875 L19.1607143,6.1875 C20.8761161,6.1875 22.2678571,7.34121094 22.2678571,8.765625 L22.2678571,10.3125 C22.2678571,13.7285156 19.484375,16.5 16.0535714,16.5 L12.9464286,16.5 C9.515625,16.5 6.73214286,13.7285156 6.73214286,10.3125 L6.73214286,8.765625 Z M11.3928571,13.40625 L12.1696429,11.0859375 L14.5,10.3125 L12.1696429,9.5390625 L11.3928571,7.21875 L10.6160714,9.5390625 L8.28571429,10.3125 L10.6160714,11.0859375 L11.3928571,13.40625 Z M21.20625,20.7152344 C19.2707589,21.9591797 16.9727679,22.6875 14.5,22.6875 C12.0272321,22.6875 9.72924107,21.9591797 7.79375,20.7152344 C3.42433036,21.1728516 0,24.8144531 0,29.2875 L0,29.90625 C0,31.6142578 1.39174107,33 3.10714286,33 L8.28571429,33 L8.28571429,28.875 C8.28571429,27.7341797 9.21138393,26.8125 10.3571429,26.8125 L18.6428571,26.8125 C19.7886161,26.8125 20.7142857,27.7341797 20.7142857,28.875 L20.7142857,33 L25.8928571,33 C27.6082589,33 29,31.6142578 29,29.90625 L29,29.2875 C29,24.8144531 25.5756696,21.1728516 21.20625,20.7152344 Z M17.6071429,28.875 C17.0375,28.875 16.5714286,29.3390625 16.5714286,29.90625 C16.5714286,30.4734375 17.0375,30.9375 17.6071429,30.9375 C18.1767857,30.9375 18.6428571,30.4734375 18.6428571,29.90625 C18.6428571,29.3390625 18.1767857,28.875 17.6071429,28.875 Z M11.3928571,28.875 C10.8232143,28.875 10.3571429,29.3390625 10.3571429,29.90625 L10.3571429,33 L12.4285714,33 L12.4285714,29.90625 C12.4285714,29.3390625 11.9625,28.875 11.3928571,28.875 Z" id="Shape"></path>
                        </g>
                    </g>
                </g>
            </g>
        </g>
    </g>
</svg>
