<?xml version="1.0" encoding="UTF-8"?>
<svg width="186px" height="230px" viewBox="0 0 186 230" version="1.1" xmlns="http://www.w3.org/2000/svg" xmlns:xlink="http://www.w3.org/1999/xlink">
    <!-- Generator: Sketch 55.2 (78181) - https://sketchapp.com -->
    <title>business-woman-colour</title>
    <desc>Created with Sketch.</desc>
    <g id="Page-1" stroke="none" stroke-width="1" fill="none" fill-rule="evenodd">
        <g id="business-woman-colour">
            <ellipse id="Oval" fill="#EFEFEF" fill-rule="nonzero" cx="93.0349147" cy="212.137621" rx="92.9650853" ry="17.7160443"></ellipse>
            <polyline id="Path" fill="#000000" fill-rule="nonzero" points="126.924369 204.016044 126.924369 210.286169 146.406758 210.286169 146.406758 207.512172 133.996177 204.016044"></polyline>
            <polyline id="Path" fill="#000000" fill-rule="nonzero" points="46.6872696 202.504979 46.6872696 205.702075 48.7154949 207.932089 53.682901 207.932089 55.5841638 210.865145 42.7768259 210.865145 37.9490785 203.048963 41.0691809 198.824343"></polyline>
            <path d="M110.952491,108.004564 C110.952491,108.004564 134.923003,143.952006 137.011536,151.723651 C139.100068,159.495297 133.996177,204.016044 133.996177,204.016044 L126.924369,204.016044 C126.924369,204.016044 121.588771,171.943292 123.096451,160.669156 C117.757679,157.417981 94.5870307,142.65408 92.7175085,135.044675" id="Path" fill="#748BEC" fill-rule="nonzero"></path>
            <path d="M110.952491,108.004564 C108.730648,113.488935 87.5025256,157.882434 87.5025256,157.882434 L46.6872696,202.504979 L40.6565529,198.553942 L68.2423208,155.242047 L73.9238908,103.939004" id="Path" fill="#8C9EEE" fill-rule="nonzero"></path>
            <rect id="Rectangle" fill="#FD8369" fill-rule="nonzero" x="17.3811604" y="126.086445" width="56.6855631" height="30.335823"></rect>
            <ellipse id="Oval" stroke="#FD8369" stroke-width="2.86307054" cx="45.7223549" cy="126.385477" rx="8.5921843" ry="8.61147994"></ellipse>
            <path d="M125.473823,65.4052559 C126.108635,66.750899 128.028942,76.2213001 127.965461,81.591148 C131.218874,83.3185339 149.866485,98.5786999 152.154983,99.822545 C155.484573,101.635823 156.598669,101.635823 156.877986,101.845781 C156.287611,102.905118 153.456348,107.648271 153.456348,107.648271 C153.456348,107.648271 150.752048,105.233748 149.444334,104.724758 C148.136621,104.215768 129.247782,95.2829876 119.233618,87.2282158 C117.513276,85.8443983 115.389829,80.9612725 115.262867,79.5615491 C115.135904,78.1618257 115.599317,66.9004149 115.599317,66.9004149 L125.473823,65.4052559 Z" id="Path" fill="#DE8E68" fill-rule="nonzero"></path>
            <path d="M70.2959386,60.573029 C69.3246758,61.7437068 56.4506826,74.8692946 53.0322184,82.2051176 C49.6137543,89.5409405 48.4742662,98.362379 47.2935154,102.434302 C45.7509215,107.69917 41.8373038,113.854772 41.8373038,117.217289 C41.8373038,119.021024 43.9353584,121.842739 45.4335154,121.842739 C46.9316724,121.842739 50.7183276,121.594606 51.5467577,116.135685 C52.8417747,107.616459 58.3805119,94.0295989 60.656314,91.2078838 C62.932116,88.3861687 81.2877133,68.9809129 82.0558362,67.6002766 C82.823959,66.2196404 73.47,56.726971 70.2959386,60.573029 Z" id="Path" fill="#DE8E68" fill-rule="nonzero"></path>
            <path d="M108.752867,42.7106501 C114.951809,40.4042877 128.806587,63.2452282 126.473652,65.424343 C124.140717,67.6034578 110.698567,72.811065 108.276758,70.9023513 C105.854949,68.9936376 102.204778,45.14426 108.752867,42.7106501 Z" id="Path" fill="#FAFA8B" fill-rule="nonzero"></path>
            <path d="M102.455529,38.4478562 C130.136519,41.5781466 114.39,96.3900415 110.952491,108.004564 C104.921775,110.737206 76.2695222,109.658783 73.9238908,103.939004 C73.003413,96.73361 76.7456314,36.5995851 102.455529,38.4478562 Z" id="Path" fill="#FCFC8D" fill-rule="nonzero"></path>
            <path d="M107.397543,43.9799447 C107.397543,45.6500692 99.0307167,45.7391425 99.0307167,43.9799447 L99.0307167,31.6305671 L107.397543,31.6305671 L107.397543,43.9799447 Z" id="Path" fill="#D37C59" fill-rule="nonzero"></path>
            <path d="M105.205265,7.71120332 C99.6601166,7.71120332 95.166457,14.2453665 95.166457,22.3065007 C95.166457,22.7455048 95.166457,23.1749654 95.2075575,23.604426 C94.3714436,23.9143239 93.8703192,24.713572 93.9927479,25.5419376 C94.1151766,26.3703032 94.829645,27.0145642 95.7247394,27.1037344 C97.0947576,32.8107884 100.817782,36.9049793 105.205265,36.9049793 C110.746989,36.9049793 115.240648,30.370816 115.240648,22.3096819 C115.240648,14.2485477 110.764114,7.71120332 105.205265,7.71120332 Z" id="Path" fill="#DE8E68" fill-rule="nonzero"></path>
            <path d="M93.9744369,7.29032946 C93.1368476,7.91343663 93.0047015,8.1682632 91.4129693,8.84178067 C89.821237,9.51529813 88.4978702,12.2264552 88.4589844,15.715511 C88.4195661,19.2523351 89.8350168,22.7672905 90.8795162,23.704211 C92.5272384,25.1822249 94.1632104,27.9211244 95.7738941,28.3523513 C96.446403,28.5324015 96.7965437,28.4116602 96.6314176,27.7030656 C96.4633566,26.9818759 95.765525,25.5770431 95.5383192,24.843723 C95.3005236,24.0762235 95.5179158,22.4515476 97.021976,21.7672269 C97.8918562,21.3714469 98.4243453,23.2389311 99.5699042,22.8615375 C102.149262,22.0117923 102.3547,18.5039035 105.052617,16.7543185 C107.799732,14.9728297 116.46203,18.8724434 118.522203,17.4440401 C119.760211,16.5856782 121.054218,15.7580589 120.799075,14.4587686 C120.660685,13.7540356 119.073045,12.6856495 118.785898,11.9173447 C118.416495,10.9289484 119.980542,9.13216507 119.459398,8.1682632 C118.944017,7.21502141 115.801059,7.07918902 115.240648,6.29185847 C114.818537,5.69882585 115.082876,3.32894557 114.216927,2.34270995 C113.323648,1.3253487 111.294731,1.70300931 110.52801,1.88448198 C109.833717,2.04881201 107.967687,3.21728247 105.785826,2.34270995 C105.052617,2.04881201 104.2202,0.438945655 102.730792,0.318118949 C101.626461,0.228531266 98.9312625,1.78659404 97.2849829,3.11967821 C95.5411944,4.53172083 94.5599086,6.85477989 93.9744369,7.29032946 Z" id="Path" fill="#000000" fill-rule="nonzero"></path>
            <path d="M91.0098635,43.1751037 C96.6469966,46.6330567 87.2993857,71.6658368 84.1475427,71.1695712 C80.9956997,70.6733057 68.5946416,63.308852 68.5946416,60.2230982 C68.5946416,57.1373444 85.0648464,39.5262794 91.0098635,43.1751037 Z" id="Path" fill="#FFFF8E" fill-rule="nonzero"></path>
            <ellipse id="Oval" fill="#DE8E68" fill-rule="nonzero" cx="156.192389" cy="105.542324" rx="3.88822526" ry="3.89695712"></ellipse>
        </g>
    </g>
</svg>