<?xml version="1.0" encoding="UTF-8"?>
<svg viewBox="0 0 1114 483" version="1.1" xmlns="http://www.w3.org/2000/svg" xmlns:xlink="http://www.w3.org/1999/xlink">
    <g id="Background" opacity="0.400000006">
        <path d="M1063.3,20 L1063.3,289 L699.45,289 L699.45,20 L1063.3,20 Z M863.7,214.7 L718.25,214.7 L718.25,273.5 L863.7,273.5 L863.7,214.7 Z M1043.55,42.7 L718.55,42.7 L718.55,199.7 L1043.55,199.7 L1043.55,42.7 Z" id="Combined-Shape" fill="#EBECF0" fill-rule="nonzero"></path>
        <!-- <rect id="Rectangle" fill="#D7D8DB" fill-rule="nonzero" x="699.45" y="0" width="363.85" height="27.3"></rect> -->
        <!-- <path d="M718.65,9.7 C721.024824,9.7 722.95,11.6251756 722.95,14 C722.95,16.3748244 721.024824,18.3 718.65,18.3 C716.275176,18.3 714.35,16.3748244 714.35,14 C714.35,11.6251756 716.275176,9.7 718.65,9.7 Z M732.5,9.7 C734.874824,9.7 736.8,11.6251756 736.8,14 C736.8,16.3748244 734.874824,18.3 732.5,18.3 C730.125176,18.3 728.2,16.3748244 728.2,14 C728.2,11.6251756 730.125176,9.7 732.5,9.7 Z M746.35,9.7 C748.724824,9.7 750.65,11.6251756 750.65,14 C750.65,16.3748244 748.724824,18.3 746.35,18.3 C743.975176,18.3 742.05,16.3748244 742.05,14 C742.05,11.6251756 743.975176,9.7 746.35,9.7 Z" id="Combined-Shape" fill="#FF7D66" fill-rule="nonzero"></path> -->
        <path d="M1087.65,261.8 L1087.65,269.4 L887.95,269.4 L887.95,261.8 L1087.65,261.8 Z M1087.65,240.35 L1087.65,247.95 L887.95,247.95 L887.95,240.35 L1087.65,240.35 Z M1087.65,218.9 L1087.65,226.5 L887.95,226.5 L887.95,218.9 L1087.65,218.9 Z" id="Combined-Shape" fill="#D7D8DB" fill-rule="nonzero"></path>
        <polygon id="Path" fill="#EBECF0" fill-rule="nonzero" points="0.283500019 374.749011 251.233517 374.749011 251.233517 482.703018 0.283500019 482.703018"></polygon>
        <path d="M37.813002,400.281512 L226.551016,400.281512 M46.0845031,428.950014 L203.283514,428.950014 M29.813002,456.757516 L209.884514,456.757516" id="Combined-Shape" stroke="#FFFFFF" stroke-width="4.54300031" stroke-linecap="round" stroke-linejoin="round"></path>
        <polyline id="Path" stroke="#FFFFFF" stroke-width="4.54300031" fill="#EBECF0" stroke-linecap="round" stroke-linejoin="round" points="27.7410019 416.644013 12.0715008 400.978012 27.7410019 385.308511"></polyline>
        <polyline id="Path" stroke="#FFFFFF" stroke-width="4.54300031" fill="#EBECF0" stroke-linecap="round" stroke-linejoin="round" points="222.337515 472.616017 238.000016 456.950016 222.334015 441.284015"></polyline>
        <rect id="Rectangle" fill="#EBECF0" fill-rule="nonzero" x="943.5" y="404.5" width="91.05" height="53.3"></rect>
    </g>
    <g id="Foreground" transform="translate(9.000000, 147.500000)">
        <rect id="Rectangle" fill="#DE8E68" fill-rule="nonzero" x="980.45" y="237.1" width="7.65" height="11.6"></rect>
        <rect id="Rectangle" fill="#DE8E68" fill-rule="nonzero" x="1070.6" y="286.1" width="7.65" height="11.6"></rect>
        <path d="M1036.6,129.75 C1027.35,129.75 986.05,170.8 982.45,177.7 C978.85,184.6 979.9,238.65 979.9,238.65 L988.8,240.35 L1003.25,190 C1009.55,189.25 1036.05,183.55 1049.75,172.5 C1063.45,161.4 1048.45,136.65 1048.45,136.65 L1036.6,129.75 Z" id="Path" fill="#748CEC" fill-rule="nonzero"></path>
        <path d="M1021.15,74 C1016.6,78.05 1007.5,88.2 1006.75,89.5 C1004.45,88.4 980.5,75.8 978.7,75 C976.9,74.2 973.1,67.85 971.8,67.85 C971.05,67.85 970.35,69.3 970.35,70.3 C970.35,72 971.15,73.3 971.65,73.85 C969.95,73.6 954.95,72.45 954.95,73.45 C954.95,76.05 971.75,79.5 973.05,80.2 C974.35,80.9 1001.7,106.2 1011.2,106.2 C1014.9,106.2 1031.25,95.1 1031.25,93.9 C1032.8,92.85 1035.2,91.3 1035.2,91.3 L1035.2,82.5 L1029.5,78.35 C1029.5,78.3 1022.05,73.2 1021.15,74 Z" id="Path" fill="#DE8E68" fill-rule="nonzero"></path>
        <path d="M1020.55,71.1 C1021.55,63 1040.2,44.6 1048.75,52.8 C1056.2,59.95 1042.7,85.5 1039.25,86.5 C1035.35,86.9 1020.3,76.6 1020.55,71.1 Z" id="Path" fill="#FAFA8C" fill-rule="nonzero"></path>
        <path d="M1077.45,54.25 C1086.95,50.25 1100.25,72.25 1098.75,80.25 C1098.75,83.75 1079.25,91.25 1076.25,89.25 C1073.25,87.25 1067.95,58.25 1077.45,54.25 Z" id="Path" fill="#FED892" fill-rule="nonzero"></path>
        <path d="M1039.15,133.3 L1070.55,286.05 L1078.6,286.05 L1081.45,149.8 C1081.45,147.45 1081.25,132.65 1081.25,130.75 C1072.15,133.4 1052.75,135.5 1039.15,133.3 Z" id="Path" fill="#8C9FEE" fill-rule="nonzero"></path>
        <polygon id="Path" fill="#323233" fill-rule="nonzero" points="1070.6 297.7 1078.25 297.7 1078.25 306 1057.15 306"></polygon>
        <polygon id="Path" fill="#323233" fill-rule="nonzero" points="980.45 248.7 988.1 248.7 988.1 257 967 257"></polygon>
        <path d="M1056.65,42.5 C1080.15,42.5 1088.35,62.05 1088.35,68.4 C1088.35,74.75 1081,113.5 1081.3,130.75 C1081.35,133.6 1039.15,136.15 1033.4,132 C1030.7,130.05 1024.9,42.5 1056.65,42.5 Z" id="Path" fill="#FCFC8E" fill-rule="nonzero"></path>
        <path d="M1098.75,80.25 C1105.4,90.45 1105,113.95 1105,117.5 C1105,121.05 1080.2,152.95 1078.05,152.95 C1076.75,151.65 1073.15,147.7 1073.15,146.5 C1074.3,144.4 1089.05,112.15 1091.7,109.85 C1090.5,108.4 1079.95,91.85 1079.5,89.1 C1088.75,87.55 1097.7,83.65 1098.75,80.25 Z" id="Path" fill="#DE8E68" fill-rule="nonzero"></path>
        <path d="M1098.75,80.25 C1100.25,72.25 1088.1,49.05 1077.45,54.25 C1068.2,58.8 1073.25,87.25 1076.25,89.25 C1079.85,90.8 1097.35,85.55 1098.75,80.25 Z" id="Path" fill="#FFFF8F" fill-rule="nonzero"></path>
        <path d="M1050.65,37.7 C1050.15,39.25 1049.9,44.05 1050.45,46.2 C1050.5,46.3 1060.45,47.05 1061.55,45.3 C1061.6,43.85 1064,30.95 1067.25,26.95 C1067.55,26.5 1066.9,25.25 1066.9,25.25 L1055.35,30.05 L1050.65,37.7" id="Path" fill="#D38466" fill-rule="nonzero"></path>
        <path d="M1065.6,26.35 C1066.35,27.35 1067.3,27.8 1068.15,27.8 C1070.05,27.8 1074.45,26.05 1074.45,19.8 C1074.45,15.3 1070.05,13 1070.05,10.85 C1070.05,8.8 1070.6,8.75 1070.6,7.05 C1070.6,6.2 1069.75,3.4 1067.1,3.4 C1065.6,3.4 1065.05,4.65 1063.55,4.65 C1061.9,4.65 1060.4,1.45 1057.9,1.45 C1056.2,1.45 1054.6,3.05 1052.8,3.05 C1050.75,3.05 1049.35,0 1046.5,0 C1043.55,0 1042.5,2.65 1041.35,2.65 C1039.9,2.65 1039.65,2.25 1038.2,2.25 C1037.3,2.25 1034.55,3.85 1034.55,6.75 C1034.55,8.8 1035.4,12.15 1039.65,12.15 C1042.15,12.15 1043.55,16.1 1045.75,16.1 C1046.6,16.1 1047.35,15.4 1047.55,15.75 C1048.4,17.25 1050.15,21.35 1050.15,21.35 L1058.1,25.8 L1065.6,26.35 Z" id="Path" fill="#FF7D66" fill-rule="nonzero"></path>
        <path d="M1063.85,24.3 C1063.85,25 1063.6,25.15 1062.55,25.15 C1062.05,25.15 1061.35,24.5 1061.35,23.8 C1061.35,22.15 1062.55,21.8 1062.55,19.65 C1062.55,16 1053,14.1 1049.65,12.2 L1049.65,12.2 C1048.45,13.4 1047.6,14.95 1047.25,16.7 L1045.1,27.75 C1044.15,32.55 1047.3,37.2 1052.05,38.15 C1056.8,39.1 1061.5,35.95 1062.45,31.2 L1062.8,29.3 L1062.8,29.3 C1063,29.35 1063.2,29.4 1063.35,29.4 C1064.6,29.4 1065.55,28.25 1065.55,26.85 C1065.65,25.55 1063.85,23.25 1063.85,24.3 Z" id="Path" fill="#DE8E68" fill-rule="nonzero"></path>
        <path d="M74.8355057,72.7415 C80.6280061,73.0495 88.9160067,77.6415004 88.9160067,85.6460009 C88.9160067,93.6505014 80.5720061,96.7935017 73.0750056,98.0990017 C78.1605059,104.161002 80.2465061,105.333502 79.725006,107.941002 C79.203506,110.548503 74.5100057,117.720003 74.1250057,125.934504 C73.7400056,134.149004 51.4380041,179.323507 47.2030038,180.629007 C42.9680035,181.934507 51.3190041,190.289008 22.1080021,191.227008 C14.3205016,191.227008 0.191000626,179.677007 0.191000626,164.627006 C-0.158999398,131.821504 33.9380029,125.595004 52.8975042,88.9955011 C61.5985048,72.1955 72.1475055,72.5945 74.8355057,72.7415 Z" id="Path" fill="#323233" fill-rule="nonzero"></path>
        <polygon id="Path" fill="#E49D75" fill-rule="nonzero" points="145.672011 256.229013 152.752511 252.141012 157.768011 260.835013 150.687511 264.919513"></polygon>
        <polygon id="Path" fill="#E49D75" fill-rule="nonzero" points="92.9340069 272.654514 100.308507 276.200014 96.0000072 285.233514 88.6220066 281.709014"></polygon>
        <path d="M133.94701,195.997508 C141.12201,195.997508 151.674511,238.995011 156.210511,251.602012 C155.262011,254.241012 149.879011,258.350013 146.925011,258.350013 C141.22701,248.802012 128.462509,228.334011 126.194509,225.17001 C124.378009,222.65001 126.772009,195.997508 133.94701,195.997508 Z" id="Path" fill="#748CEC" fill-rule="nonzero"></path>
        <path d="M51.6620041,188.098008 C45.4425037,188.098008 40.3185034,186.757508 40.3185034,201.398009 C40.3185034,216.03851 56.2995044,228.232511 75.2660057,228.232511 C94.232507,228.232511 102.625508,227.728511 104.354508,227.308511 C104.865508,232.149011 93.686507,265.318513 92.4860069,273.858514 C93.343507,276.140514 98.8910073,278.982514 101.236008,278.982514 C103.581008,278.982514 134.78001,228.306011 133.96801,196.991508 C134.07651,192.091508 116.051509,190.737008 104.662508,190.737008 C93.273507,190.737008 69.0325053,192.049508 65.9665051,192.049508" id="Path" fill="#8C9FEE" fill-rule="nonzero"></path>
        <path d="M42.4885035,189.536508 C41.6975035,186.278008 37.4345032,116.253503 63.0090049,117.503003 C88.5835066,118.752503 88.3210066,181.154007 85.4090064,191.003008 C73.7365056,195.945008 43.3215036,192.977008 42.4885035,189.536508 Z" id="Path" fill="#FCFC8E" fill-rule="nonzero"></path>
        <path d="M71.6365055,111.948503 C71.2340055,112.904003 69.0640053,117.993003 68.6615053,120.072003 C68.2590053,122.151003 57.2655045,119.522503 57.8815046,118.483003 C61.5215048,112.337003 62.1165048,105.883002 62.7080049,102.652502 C63.2505049,99.6985019 74.3000057,105.620502 71.6365055,111.948503 Z" id="Path" fill="#D18C65" fill-rule="nonzero"></path>
        <path d="M89.9835067,190.509508 C96.6335072,190.509508 119.586509,189.967008 123.394509,189.967008 C126.348509,185.417008 140.06851,161.449006 140.97501,159.636006" id="Path" stroke="#D7D8DB" stroke-width="2.02650014" fill="#FFFFFF" stroke-linecap="round" stroke-linejoin="round"></path>
        <path d="M68.4795053,153.087505 L52.7015042,154.767506 C51.6270041,156.090506 52.0925042,159.219506 52.0750042,160.829506 C52.0050042,166.779506 52.2710042,173.429507 55.8690044,178.441507 C57.2690045,180.391007 59.5615047,182.291507 61.8190048,182.260007 C65.3540051,183.660008 71.2515055,185.273508 71.2515055,185.273508 L80.2010061,187.247508 C80.2010061,187.247508 95.3000071,189.925008 102.755008,189.750008 C105.236508,189.687008 107.760008,189.400008 110.238008,189.470008 C111.676508,189.508508 113.958508,189.956508 115.302508,189.470008 C115.694508,189.326508 115.600008,188.462008 115.505508,188.122508 C115.183508,186.936008 114.049508,186.103008 113.006508,185.585008 C110.584508,184.381008 109.212508,185.144008 106.727508,185.186008 C104.694008,185.221008 102.268508,184.185008 98.7405073,182.802508 C94.5790071,181.171507 89.8330067,179.180007 85.5910064,177.752007 C80.7575061,176.124507 75.8260058,174.367507 71.1080055,172.435507 C70.1770054,172.054007 69.1865053,171.777507 68.2100053,171.473007 C68.6564312,168.92916 68.9091569,166.355102 68.9660053,163.773006 C69.0745053,160.973006 69.1200053,158.033006 68.7105053,155.275006 C68.6055053,154.564506 68.7770053,153.745506 68.4795053,153.087505 Z" id="Path" fill="#E49D75" fill-rule="nonzero"></path>
        <path d="M48.5015039,155.201506 C45.8170037,148.068505 48.1515039,125.773504 56.8665045,124.314004 C68.9905053,122.515003 72.6165056,150.683005 71.4160055,153.976506 C69.2705053,155.264506 57.2515045,159.524006 48.5015039,155.201506 Z" id="Path" fill="#FFFF8F" fill-rule="nonzero"></path>
        <path d="M84.6040064,87.900001 C78.0884492,94.1143092 69.5063115,97.7017299 60.5065047,97.9730017 C60.0872643,98.5019877 59.8579885,99.1565334 59.8555047,99.8315019 C59.8631443,101.388238 61.0068269,102.705927 62.5470049,102.932502 C63.3275049,107.703002 65.8510051,111.441003 69.5680054,112.571503 C75.5180058,114.384503 82.3115062,108.802002 84.7195064,100.101002 C85.9375065,95.7050016 85.8010065,91.3615013 84.6040064,87.900001 Z" id="Path" fill="#E49D75" fill-rule="nonzero"></path>
        <polygon id="Path" fill="#323233" fill-rule="nonzero" points="89.7000067 279.500514 84.8980064 288.677515 109.328008 301.459516 110.689508 298.859015 98.5935073 284.159014"></polygon>
        <polygon id="Path" fill="#323233" fill-rule="nonzero" points="149.200011 262.585013 154.537511 271.461014 178.166013 257.254513 176.654013 254.738012 157.803011 257.412013"></polygon>
    </g>

</svg>
