<?xml version="1.0" encoding="UTF-8"?>
<svg viewBox="0 0 1152 448" version="1.1" xmlns="http://www.w3.org/2000/svg" xmlns:xlink="http://www.w3.org/1999/xlink">
    <g id="Site" stroke="none" stroke-width="1" fill="none" fill-rule="evenodd">
        <g id="Main-Copy" transform="translate(-64.000000, -181.000000)">
            <g id="Illustration" transform="translate(64.000000, 181.000000)">
                <g id="Group" transform="translate(0.000000, 170.000000)">
                    <g id="Background" opacity="0.400000006" transform="translate(0.000000, 162.891519)">
                        <polygon id="Path" fill="#EEEEEE" points="0.0353097213 -0.00104291003 264.541879 -0.00104291003 264.541879 113.78474 0.0353097213 113.78474"></polygon>
                        <path d="M39.5921901,26.9107482 L238.526006,26.9107482 M48.3105254,57.1279491 L214.001572,57.1279491 M31.1600227,86.4376379 L220.959165,86.4376379" id="Combined-Shape" stroke="#FFFFFF" stroke-width="4.78841739" stroke-linecap="round" stroke-linejoin="round"></path>
                        <polyline id="Path" stroke="#FFFFFF" stroke-width="4.78841739" fill="#EEEEEE" stroke-linecap="round" stroke-linejoin="round" points="28.9760912 44.1571667 12.4601092 27.6448738 28.9760912 11.1288918"></polyline>
                        <polyline id="Path" stroke="#FFFFFF" stroke-width="4.78841739" fill="#EEEEEE" stroke-linecap="round" stroke-linejoin="round" points="234.084888 103.15283 250.593492 86.640537 234.081199 70.1282441"></polyline>
                    </g>
                    <path d="M88.100872,0.0363266358 C94.2062886,0.360965103 102.942015,5.20102952 102.942015,13.6379406 C102.942015,22.0748516 94.1472634,25.3876396 86.245268,26.763664 C91.6054918,33.1531393 93.8041796,34.3889789 93.2545076,37.1373387 C92.7048357,39.8856984 87.7577882,47.44461 87.3519901,56.1028655 C86.946192,64.761121 63.4394157,112.375992 58.9756368,113.752017 C54.5118579,115.128041 63.3139872,123.93386 32.5249799,124.922531 C24.3167914,124.922531 9.42400174,112.748589 9.42400174,96.8855729 C9.0550944,62.3078871 44.9940483,55.7450254 64.9777594,17.1683839 C74.1487961,-0.539168828 85.2676636,-0.118614451 88.100872,0.0363266358 Z" id="Path" fill="#27282B"></path>
                    <polygon id="Path" fill="#E49D75" fill-rule="nonzero" points="162.76403 193.436004 170.227026 189.127166 175.513468 198.290825 168.050473 202.595974"></polygon>
                    <polygon id="Path" fill="#E49D75" fill-rule="nonzero" points="107.177071 210.748826 114.949949 214.485857 110.408699 224.007356 102.632132 220.292459"></polygon>
                    <path d="M150.405634,129.950739 C157.968235,129.950739 169.090791,175.271006 173.871831,188.559049 C172.872092,191.34061 167.198297,195.671583 164.084719,195.671583 C158.078907,185.60779 144.624856,164.034088 142.234336,160.699166 C140.319707,158.043033 142.843033,129.950739 150.405634,129.950739 Z" id="Path" fill="#7D92ED"></path>
                    <path d="M63.6755164,121.6245 C57.1200328,121.6245 51.7192293,120.211585 51.7192293,135.642979 C51.7192293,151.074373 68.5635388,163.927105 88.554628,163.927105 C108.545717,163.927105 117.392115,163.395879 119.214518,162.95319 C119.753123,168.055179 107.970222,203.016528 106.70487,212.017867 C107.608693,214.423143 113.455874,217.418671 115.927553,217.418671 C118.399233,217.418671 151.283634,164.004576 150.427769,130.998435 C150.54213,125.833733 131.543401,124.406061 119.539156,124.406061 C107.534911,124.406061 81.9843881,125.789464 78.7527598,125.789464" id="Path" fill="#8DA0EF"></path>
                    <path d="M54.0064548,123.140709 C53.1727242,119.706181 48.6794327,45.8988882 75.6354927,47.2158875 C102.591553,48.5328867 102.314872,114.305378 99.245563,124.686431 C86.9425029,129.895402 54.8844543,126.767068 54.0064548,123.140709 Z" id="Path" fill="#FCFC8D"></path>
                    <path d="M84.7290588,41.3613278 C84.3048154,42.3684449 82.0175898,47.7323577 81.5933464,49.9236674 C81.1691029,52.114977 69.5817231,49.3444829 70.231,48.248828 C74.0676364,41.770815 74.6947789,34.9681635 75.3182324,31.5631487 C75.8900387,28.4495706 87.5364437,34.691483 84.7290588,41.3613278 Z" id="Path" fill="#D18C65" fill-rule="nonzero"></path>
                    <path d="M104.067182,124.166271 C111.076422,124.166271 135.269366,123.594465 139.283078,123.594465 C142.396656,118.798669 156.857824,93.5358941 157.813294,91.6249541" id="Path" stroke="#D7D8DB" stroke-width="2.13597355" fill="#FFFFFF" stroke-linecap="round" stroke-linejoin="round"></path>
                    <path d="M81.4015145,84.7226976 L64.7711713,86.4934529 C63.6386257,87.8879226 64.1292725,91.1859543 64.1108271,92.8829281 C64.0370456,99.1543531 64.3174152,106.163593 68.1097828,111.446346 C69.5854122,113.50116 72.0017553,115.504327 74.3812077,115.471125 C78.1071719,116.946754 84.3232607,118.647417 84.3232607,118.647417 L93.7562216,120.728055 C93.7562216,120.728055 109.670885,123.550196 117.528611,123.365742 C120.144164,123.299339 122.803986,122.996835 125.41585,123.070616 C126.93206,123.111196 129.337335,123.583398 130.75394,123.070616 C131.167116,122.919364 131.067511,122.008163 130.967906,121.650323 C130.628511,120.399727 129.433251,119.521728 128.333907,118.975745 C125.781069,117.706704 124.334952,118.510922 121.71571,118.555191 C119.572358,118.592081 117.01583,117.500116 113.297244,116.042931 C108.910936,114.323823 103.908552,112.22474 99.4373948,110.719598 C94.3427843,109.004179 89.1448798,107.152264 84.1720087,105.115896 C83.1907152,104.713787 82.1467074,104.42235 81.1174559,104.101401 C81.5879981,101.420133 81.8543763,98.707022 81.9142958,95.9854389 C82.028657,93.0341802 82.076615,89.9353584 81.6449934,87.0283685 C81.5343212,86.2794866 81.7150858,85.4162434 81.4015145,84.7226976 Z" id="Path" fill="#E49D75" fill-rule="nonzero"></path>
                    <path d="M60.3442831,86.950898 C57.5147637,79.4325662 59.9753757,55.9331681 69.1611687,54.3948245 C81.9401193,52.4986407 85.7619994,82.1883041 84.4966472,85.6597223 C82.2352451,87.0173013 69.5669668,91.5069037 60.3442831,86.950898 Z" id="Path" fill="#FFFF8F"></path>
                    <path d="M98.3970761,16.0137039 C91.5295425,22.5637147 82.4837898,26.3449312 72.9978051,26.6308574 C72.555917,27.1884197 72.3142554,27.8783245 72.3116375,28.5897554 C72.3196898,30.2305875 73.5251551,31.6194592 75.148535,31.8582745 C75.9711984,36.8864817 78.6310203,40.8264122 82.5488164,42.0179829 C88.8202413,43.928923 95.980733,38.0448508 98.5188155,28.8738141 C99.8026131,24.2403378 99.6587392,19.6621976 98.3970761,16.0137039 Z" id="Path" fill="#E49D75" fill-rule="nonzero"></path>
                    <polygon id="Path" fill="#27282B" points="103.768367 217.964654 98.7069583 227.637404 124.456691 241.109901 125.891741 238.368919 113.142303 222.874811"></polygon>
                    <polygon id="Path" fill="#27282B" points="166.482616 200.135362 172.108453 209.490852 197.013389 194.516903 195.419709 191.864459 175.550359 194.682911"></polygon>
                </g>
                <g id="Illustrations/Conception" transform="translate(722.000000, 0.000000)">
                    <g id="Background" opacity="0.400000006">
                        <path d="M376.19177,0.679052081 L376.19177,278.812303 L0.0344608152,278.812303 L0.0344608152,0.679052081 L376.19177,0.679052081 Z M169.840254,201.989624 L19.4703751,201.989624 L19.4703751,262.786037 L169.840254,262.786037 L169.840254,201.989624 Z M355.773721,24.1497762 L19.7805226,24.1497762 L19.7805226,186.480335 L355.773721,186.480335 L355.773721,24.1497762 Z" id="Combined-Shape" fill="#EEEEEE"></path>
                        <path d="M401.365414,250.688792 L401.365414,258.546832 L194.910516,258.546832 L194.910516,250.688792 L401.365414,250.688792 Z M401.365414,228.510508 L401.365414,236.368548 L194.910516,236.368548 L194.910516,228.510508 L401.365414,228.510508 Z M401.365414,206.332225 L401.365414,214.190265 L194.910516,214.190265 L194.910516,206.332225 L401.365414,206.332225 Z" id="Combined-Shape" fill="#D4D4D5"></path>
                        <rect id="Rectangle" fill="#E0E1E1" x="252.339507" y="376.233828" width="94.1297869" height="55.1096738"></rect>
                    </g>
                    <g id="Group" transform="translate(273.481233, 110.508009)">
                        <rect id="Rectangle" fill="#DE8E68" fill-rule="nonzero" x="26.3625433" y="245.150162" width="7.90876299" height="11.9938502"></rect>
                        <rect id="Rectangle" fill="#DE8E68" fill-rule="nonzero" x="119.561887" y="295.81384" width="7.90876299" height="11.9938502"></rect>
                        <path d="M84.4118298,134.15535 C74.8489464,134.15535 32.1519646,176.599105 28.4301937,183.733378 C24.7084229,190.867651 25.7939394,246.752789 25.7939394,246.752789 L34.9949839,248.510508 L49.9337585,196.450995 C56.4468574,195.67553 83.8432259,189.782 98.0066315,178.356824 C112.170037,166.87995 96.6626587,141.289623 96.6626587,141.289623 L84.4118298,134.15535 Z" id="Path" fill="#7D92ED"></path>
                        <path d="M68.43923,76.5124927 C63.7353252,80.7000007 54.3275157,91.1946197 53.5521468,92.5387581 C51.1743487,91.4014102 26.4142345,78.3736074 24.5533491,77.5464453 C22.6924637,76.7192832 18.7639279,70.1536842 17.4199551,70.1536842 C16.6445862,70.1536842 15.9209085,71.6529155 15.9209085,72.6868681 C15.9209085,74.4445875 16.7479687,75.7887259 17.2648813,76.3573998 C15.5073784,76.0989117 -1.98951966e-13,74.9098662 -1.98951966e-13,75.9438188 C-1.98951966e-13,78.6320955 17.3682638,82.199232 18.7122366,82.9229988 C20.0562094,83.6467657 48.3313294,109.805767 58.152669,109.805767 C61.9778223,109.805767 78.8808648,98.3288926 78.8808648,97.0881495 C80.4832939,96.0024993 82.9644745,94.3998727 82.9644745,94.3998727 L82.9644745,85.3010898 L77.0716707,81.0101865 C77.0716707,80.9584889 69.3696727,75.6853306 68.43923,76.5124927 Z" id="Path" fill="#DE8E68" fill-rule="nonzero"></path>
                        <path d="M67.8189349,73.5140301 C68.8527601,65.1390141 88.1336006,46.1142861 96.9728063,54.5926975 C104.674804,61.9854586 90.7181637,88.4029476 87.1514666,89.4369002 C83.1195482,89.8504813 67.5604786,79.2007695 67.8189349,73.5140301 Z" id="Path" fill="#FAFA8C"></path>
                        <path d="M126.64359,56.0919288 C136.46493,51.9561184 150.214805,74.7030756 148.664068,82.9746965 C148.664068,86.5935306 128.504476,94.3481751 125.403,92.2802699 C122.301524,90.2123647 116.822251,60.2277392 126.64359,56.0919288 Z" id="Path" fill="#FED892" fill-rule="nonzero"></path>
                        <path d="M87.0480841,137.825882 L119.510196,295.762142 L127.832489,295.762142 L130.778891,154.8861 C130.778891,152.456311 130.572126,137.153813 130.572126,135.189303 C121.164317,137.929277 101.108107,140.100578 87.0480841,137.825882 Z" id="Path" fill="#8DA0EF"></path>
                        <polygon id="Path" fill="#27282B" points="119.561887 307.80769 127.47065 307.80769 127.47065 316.389497 105.656938 316.389497"></polygon>
                        <polygon id="Path" fill="#27282B" points="26.3625433 257.144013 34.2713063 257.144013 34.2713063 265.725819 12.457594 265.725819"></polygon>
                        <path d="M105.140026,43.9429857 C129.434918,43.9429857 137.912285,64.1567591 137.912285,70.7223581 C137.912285,77.2879572 130.31367,117.353621 130.623817,135.189303 C130.675509,138.136068 87.0480841,140.772647 81.103589,136.481744 C78.3122609,134.465536 72.3160746,43.9429857 105.140026,43.9429857 Z" id="Path" fill="#FCFC8D"></path>
                        <path d="M148.664068,82.9746965 C155.539005,93.521013 155.125475,117.818899 155.125475,121.489431 C155.125475,125.159963 129.48661,158.143051 127.263885,158.143051 C125.919913,156.798912 122.198142,152.7148 122.198142,151.474056 C123.387041,149.302756 138.635963,115.957785 141.3756,113.579694 C140.135009,112.080462 129.228153,94.9685467 128.762932,92.125177 C138.325815,90.5225505 147.578551,86.4901353 148.664068,82.9746965 Z" id="Path" fill="#DE8E68" fill-rule="nonzero"></path>
                        <path d="M148.664068,82.9746965 C150.214805,74.7030756 137.653829,50.7153752 126.64359,56.0919288 C117.080707,60.7964131 122.301524,90.2123647 125.403,92.2802699 C129.124771,93.8828964 147.216712,88.4546453 148.664068,82.9746965 Z" id="Path" fill="#FFFF8F"></path>
                        <path d="M98.9370742,38.9800132 C98.4201616,40.5826397 98.1617053,45.5456122 98.7303092,47.7686103 C98.7820004,47.8720056 109.068561,48.64747 110.205769,46.838053 C110.25746,45.3388217 112.738641,32.0008331 116.098573,27.8650227 C116.408721,27.399744 115.736734,26.1073033 115.736734,26.1073033 L103.796053,31.0702758 L98.9370742,38.9800132" id="Path" fill="#D38466" fill-rule="nonzero"></path>
                        <path d="M114.392761,27.2446511 C115.16813,28.2786037 116.150264,28.7438824 117.029016,28.7438824 C118.993284,28.7438824 123.542115,26.9344653 123.542115,20.4722616 C123.542115,15.8194748 118.993284,13.4413839 118.993284,11.2183858 C118.993284,9.09878292 119.561887,9.04708529 119.561887,7.28936586 C119.561887,6.41050615 118.683136,3.51543885 115.943499,3.51543885 C114.392761,3.51543885 113.824157,4.80787961 112.27342,4.80787961 C110.567608,4.80787961 109.01687,1.49923128 106.432307,1.49923128 C104.674804,1.49923128 103.020684,3.15355544 101.159798,3.15355544 C99.0404567,3.15355544 97.5931014,0 94.6466995,0 C91.5969151,0 90.5113986,2.7399744 89.3224996,2.7399744 C87.823453,2.7399744 87.5649967,2.32639336 86.0659501,2.32639336 C85.1355074,2.32639336 82.2924881,3.98071753 82.2924881,6.97918008 C82.2924881,9.09878292 83.1712395,12.5625241 87.5649967,12.5625241 C90.1495598,12.5625241 91.5969151,16.6466369 93.8713306,16.6466369 C94.750082,16.6466369 95.525451,15.9228701 95.732216,16.2847535 C96.6109674,17.8356824 98.4201616,22.0748881 98.4201616,22.0748881 L106.639072,26.6759772 L114.392761,27.2446511 Z" id="Path" fill="#FF7860"></path>
                        <path d="M112.583567,25.1250483 C112.583567,25.8488151 112.325111,26.003908 111.239594,26.003908 C110.722682,26.003908 109.999004,25.3318388 109.999004,24.608072 C109.999004,22.9020502 111.239594,22.5401668 111.239594,20.3171687 C111.239594,16.5432417 101.366563,14.5787317 97.903249,12.6142218 L97.903249,12.6142218 C96.6626587,13.8549649 95.7839073,15.4575914 95.4220684,17.2670085 L93.1993442,28.6921848 C92.2172102,33.6551573 95.4737597,38.4630369 100.38443,39.4452918 C105.295099,40.4275468 110.154078,37.1705961 111.136212,32.2593212 L111.498051,30.2948113 L111.498051,30.2948113 C111.704816,30.3465089 111.911581,30.3982066 112.066655,30.3982066 C113.358936,30.3982066 114.34107,29.2091611 114.34107,27.7616274 C114.444453,26.417489 112.583567,24.039398 112.583567,25.1250483 Z" id="Path" fill="#DE8E68" fill-rule="nonzero"></path>
                    </g>
                </g>
            </g>
        </g>
    </g>
</svg>
