<?xml version="1.0" encoding="UTF-8"?>
<svg viewBox="0 0 1114 483" version="1.1" xmlns="http://www.w3.org/2000/svg" xmlns:xlink="http://www.w3.org/1999/xlink">
    <g id="Site" stroke="none" stroke-width="1" fill="none" fill-rule="evenodd">
        <g id="Main-Copy-9" transform="translate(-83.000000, -155.000000)">
            <g id="coverIllustration" transform="translate(83.000000, 155.000000)">
                <g id="Background" opacity="0.5" transform="translate(699.000000, 0.000000)" fill-rule="nonzero">
                    <rect id="Rectangle" fill="#F3F3F3" x="0.45" y="20" width="363.85" height="269"></rect>
                    <rect id="Rectangle" fill="#E1E1E1" x="0.45" y="0" width="363.85" height="27.3"></rect>
                    <circle id="Oval" fill="#FD8369" cx="19.65" cy="14" r="4.3"></circle>
                    <circle id="Oval" fill="#FD8369" cx="33.5" cy="14" r="4.3"></circle>
                    <circle id="Oval" fill="#FD8369" cx="47.35" cy="14" r="4.3"></circle>
                    <rect id="Rectangle" fill="#FFFFFF" x="19.25" y="214.7" width="145.45" height="58.8"></rect>
                    <rect id="Rectangle" fill="#FFFFFF" x="19.55" y="42.7" width="325" height="157"></rect>
                    <rect id="Rectangle" fill="#E1E1E1" x="188.95" y="218.9" width="199.7" height="7.6"></rect>
                    <rect id="Rectangle" fill="#E1E1E1" x="188.95" y="240.35" width="199.7" height="7.6"></rect>
                    <rect id="Rectangle" fill="#E1E1E1" x="188.95" y="261.8" width="199.7" height="7.6"></rect>
                </g>
                <g id="Foreground" transform="translate(0.000000, 147.500000)" fill-rule="nonzero">
                    <rect id="Rectangle" fill="#DE8E68" x="989.45" y="237.1" width="7.65" height="11.6"></rect>
                    <rect id="Rectangle" fill="#DE8E68" x="1079.6" y="286.1" width="7.65" height="11.6"></rect>
                    <path d="M1045.6,129.75 C1036.35,129.75 995.05,170.8 991.45,177.7 C987.85,184.6 988.9,238.65 988.9,238.65 L997.8,240.35 L1012.25,190 C1018.55,189.25 1045.05,183.55 1058.75,172.5 C1072.45,161.4 1057.45,136.65 1057.45,136.65 L1045.6,129.75 Z" id="Path" fill="#748CEC"></path>
                    <path d="M1030.15,74 C1025.6,78.05 1016.5,88.2 1015.75,89.5 C1013.45,88.4 989.5,75.8 987.7,75 C985.9,74.2 982.1,67.85 980.8,67.85 C980.05,67.85 979.35,69.3 979.35,70.3 C979.35,72 980.15,73.3 980.65,73.85 C978.95,73.6 963.95,72.45 963.95,73.45 C963.95,76.05 980.75,79.5 982.05,80.2 C983.35,80.9 1010.7,106.2 1020.2,106.2 C1023.9,106.2 1040.25,95.1 1040.25,93.9 C1041.8,92.85 1044.2,91.3 1044.2,91.3 L1044.2,82.5 L1038.5,78.35 C1038.5,78.3 1031.05,73.2 1030.15,74 Z" id="Path" fill="#DE8E68"></path>
                    <path d="M1029.55,71.1 C1030.55,63 1049.2,44.6 1057.75,52.8 C1065.2,59.95 1051.7,85.5 1048.25,86.5 C1044.35,86.9 1029.3,76.6 1029.55,71.1 Z" id="Path" fill="#FAFA8C"></path>
                    <path d="M1086.45,54.25 C1095.95,50.25 1109.25,72.25 1107.75,80.25 C1107.75,83.75 1088.25,91.25 1085.25,89.25 C1082.25,87.25 1076.95,58.25 1086.45,54.25 Z" id="Path" fill="#FED892"></path>
                    <path d="M1048.15,133.3 L1079.55,286.05 L1087.6,286.05 L1090.45,149.8 C1090.45,147.45 1090.25,132.65 1090.25,130.75 C1081.15,133.4 1061.75,135.5 1048.15,133.3 Z" id="Path" fill="#8C9FEE"></path>
                    <polygon id="Path" fill="#323233" points="1079.6 297.7 1087.25 297.7 1087.25 306 1066.15 306"></polygon>
                    <polygon id="Path" fill="#323233" points="989.45 248.7 997.1 248.7 997.1 257 976 257"></polygon>
                    <rect id="Rectangle" fill="#F0F0F0" x="943.5" y="257" width="91.05" height="53.3"></rect>
                    <path d="M1065.65,42.5 C1089.15,42.5 1097.35,62.05 1097.35,68.4 C1097.35,74.75 1090,113.5 1090.3,130.75 C1090.35,133.6 1048.15,136.15 1042.4,132 C1039.7,130.05 1033.9,42.5 1065.65,42.5 Z" id="Path" fill="#FCFC8E"></path>
                    <path d="M1107.75,80.25 C1114.4,90.45 1114,113.95 1114,117.5 C1114,121.05 1089.2,152.95 1087.05,152.95 C1085.75,151.65 1082.15,147.7 1082.15,146.5 C1083.3,144.4 1098.05,112.15 1100.7,109.85 C1099.5,108.4 1088.95,91.85 1088.5,89.1 C1097.75,87.55 1106.7,83.65 1107.75,80.25 Z" id="Path" fill="#DE8E68"></path>
                    <path d="M1107.75,80.25 C1109.25,72.25 1097.1,49.05 1086.45,54.25 C1077.2,58.8 1082.25,87.25 1085.25,89.25 C1088.85,90.8 1106.35,85.55 1107.75,80.25 Z" id="Path" fill="#FFFF8F"></path>
                    <path d="M1059.65,37.7 C1059.15,39.25 1058.9,44.05 1059.45,46.2 C1059.5,46.3 1069.45,47.05 1070.55,45.3 C1070.6,43.85 1073,30.95 1076.25,26.95 C1076.55,26.5 1075.9,25.25 1075.9,25.25 L1064.35,30.05 L1059.65,37.7" id="Path" fill="#D38466"></path>
                    <path d="M1074.6,26.35 C1075.35,27.35 1076.3,27.8 1077.15,27.8 C1079.05,27.8 1083.45,26.05 1083.45,19.8 C1083.45,15.3 1079.05,13 1079.05,10.85 C1079.05,8.8 1079.6,8.75 1079.6,7.05 C1079.6,6.2 1078.75,3.4 1076.1,3.4 C1074.6,3.4 1074.05,4.65 1072.55,4.65 C1070.9,4.65 1069.4,1.45 1066.9,1.45 C1065.2,1.45 1063.6,3.05 1061.8,3.05 C1059.75,3.05 1058.35,0 1055.5,0 C1052.55,0 1051.5,2.65 1050.35,2.65 C1048.9,2.65 1048.65,2.25 1047.2,2.25 C1046.3,2.25 1043.55,3.85 1043.55,6.75 C1043.55,8.8 1044.4,12.15 1048.65,12.15 C1051.15,12.15 1052.55,16.1 1054.75,16.1 C1055.6,16.1 1056.35,15.4 1056.55,15.75 C1057.4,17.25 1059.15,21.35 1059.15,21.35 L1067.1,25.8 L1074.6,26.35 Z" id="Path" fill="#FF7D66"></path>
                    <path d="M1072.85,24.3 C1072.85,25 1072.6,25.15 1071.55,25.15 C1071.05,25.15 1070.35,24.5 1070.35,23.8 C1070.35,22.15 1071.55,21.8 1071.55,19.65 C1071.55,16 1062,14.1 1058.65,12.2 L1058.65,12.2 C1057.45,13.4 1056.6,14.95 1056.25,16.7 L1054.1,27.75 C1053.15,32.55 1056.3,37.2 1061.05,38.15 C1065.8,39.1 1070.5,35.95 1071.45,31.2 L1071.8,29.3 L1071.8,29.3 C1072,29.35 1072.2,29.4 1072.35,29.4 C1073.6,29.4 1074.55,28.25 1074.55,26.85 C1074.65,25.55 1072.85,23.25 1072.85,24.3 Z" id="Path" fill="#DE8E68"></path>
                </g>
                <g id="Left" transform="translate(0.000000, 220.000000)">
                    <g id="Layer_3" transform="translate(9.100001, 0.000000)" fill="#323233" fill-rule="nonzero">
                        <path d="M74.7355051,0.241500016 C80.5280055,0.549500037 88.8160061,5.14150035 88.8160061,13.1460009 C88.8160061,21.1505014 80.4720055,24.2935017 72.975005,25.5990017 C78.0605053,31.6610022 80.1465055,32.8335022 79.6250054,35.4410024 C79.1035054,38.0485026 74.4100051,45.2200031 74.025005,53.4345036 C73.640005,61.6490042 51.3380035,106.823507 47.1030032,108.129007 C42.8680029,109.434507 51.2190035,117.789008 22.0080015,118.727008 C14.220501,118.727008 0.0910000062,107.177007 0.0910000062,92.1270063 C-0.259000018,59.321504 33.8380023,53.0950036 52.7975036,16.4955011 C61.4985042,-0.304500021 72.0475049,0.0945000064 74.7355051,0.241500016 Z" id="Path"></path>
                    </g>
                    <polygon id="Path" fill="#F3F3F3" fill-rule="nonzero" opacity="0.5" points="0.283500019 154.749011 251.233517 154.749011 251.233517 262.703018 0.283500019 262.703018"></polygon>
                    <line x1="29.813002" y1="180.281512" x2="229.551016" y2="180.281512" id="Path" stroke="#FFFFFF" stroke-width="4.54300031" stroke-linecap="round" stroke-linejoin="round"></line>
                    <polygon id="Path" fill="#E49D75" fill-rule="nonzero" points="154.672011 183.729013 161.752511 179.641012 166.768011 188.335013 159.687511 192.419513"></polygon>
                    <line x1="46.0845031" y1="208.950014" x2="203.283514" y2="208.950014" id="Path" stroke="#FFFFFF" stroke-width="4.54300031" stroke-linecap="round" stroke-linejoin="round"></line>
                    <polygon id="Path" fill="#E49D75" fill-rule="nonzero" points="101.934007 200.154514 109.308507 203.700014 105.000007 212.733514 97.6220066 209.209014"></polygon>
                    <path d="M142.94701,123.497508 C150.12201,123.497508 160.674511,166.495011 165.210511,179.102012 C164.262011,181.741012 158.879011,185.850013 155.925011,185.850013 C150.22701,176.302012 137.462509,155.834011 135.194509,152.67001 C133.378009,150.15001 135.772009,123.497508 142.94701,123.497508 Z" id="Path" fill="#748CEC" fill-rule="nonzero"></path>
                    <path d="M140.24151,38.6505026 C141.46651,37.8840026 140.88901,38.3985026 141.85501,36.9845025" id="Path" fill="#000000" fill-rule="nonzero" opacity="0.27"></path>
                    <path d="M60.6620041,115.598008 C54.4425037,115.598008 49.3185034,114.257508 49.3185034,128.898009 C49.3185034,143.53851 65.2995044,155.732511 84.2660057,155.732511 C103.232507,155.732511 111.625508,155.228511 113.354508,154.808511 C113.865508,159.649011 102.686507,192.818513 101.486007,201.358514 C102.343507,203.640514 107.891007,206.482514 110.236008,206.482514 C112.581008,206.482514 143.78001,155.806011 142.96801,124.491508 C143.07651,119.591508 125.051509,118.237008 113.662508,118.237008 C102.273507,118.237008 78.0325053,119.549508 74.9665051,119.549508" id="Path" fill="#8C9FEE" fill-rule="nonzero"></path>
                    <path d="M51.4885035,117.036508 C50.6975035,113.778008 46.4345032,43.753503 72.0090049,45.0030031 C97.5835066,46.2525032 97.3210066,108.654007 94.4090064,118.503008 C82.7365056,123.445008 52.3215036,120.477008 51.4885035,117.036508 Z" id="Path" fill="#FCFC8E" fill-rule="nonzero"></path>
                    <path d="M80.6365055,39.4485027 C80.2340055,40.4040028 78.0640053,45.4930031 77.6615053,47.5720032 C77.2590053,49.6510034 66.2655045,47.0225032 66.8815046,45.9830031 C70.5215048,39.8370027 71.1165048,33.3830023 71.7080049,30.1525021 C72.2505049,27.1985019 83.3000057,33.1205023 80.6365055,39.4485027 Z" id="Path" fill="#D18C65" fill-rule="nonzero"></path>
                    <path d="M77.4795053,80.5875055 L61.7015042,82.2675056 C60.6270041,83.5905057 61.0925042,86.7195059 61.0750042,88.329506 C61.0050042,94.2795064 61.2710042,100.929507 64.8690044,105.941507 C66.2690045,107.891007 68.5615047,109.791507 70.8190048,109.760007 C74.3540051,111.160008 80.2515055,112.773508 80.2515055,112.773508 L89.2010061,114.747508 C89.2010061,114.747508 104.300007,117.425008 111.755008,117.250008 C114.236508,117.187008 116.760008,116.900008 119.238008,116.970008 C120.676508,117.008508 122.958508,117.456508 124.302508,116.970008 C124.694508,116.826508 124.600008,115.962008 124.505508,115.622508 C124.183508,114.436008 123.049508,113.603008 122.006508,113.085008 C119.584508,111.881008 118.212508,112.644008 115.727508,112.686008 C113.694008,112.721008 111.268508,111.685008 107.740507,110.302508 C103.579007,108.671507 98.8330067,106.680007 94.5910064,105.252007 C89.7575061,103.624507 84.8260058,101.867507 80.1080055,99.9355068 C79.1770054,99.5540068 78.1865053,99.2775068 77.2100053,98.9730067 C77.6564312,96.4291603 77.9091569,93.8551021 77.9660053,91.2730062 C78.0745053,88.473006 78.1200053,85.5330058 77.7105053,82.7750056 C77.6055053,82.0645056 77.7770053,81.2455055 77.4795053,80.5875055 Z" id="Path" fill="#E49D75" fill-rule="nonzero"></path>
                    <path d="M57.5015039,82.7015056 C54.8170037,75.5685051 57.1515039,53.2735036 65.8665045,51.8140035 C77.9905053,50.0150034 81.6165056,78.1830053 80.4160055,81.4765056 C78.2705053,82.7645056 66.2515045,87.0240059 57.5015039,82.7015056 Z" id="Path" fill="#FFFF8F" fill-rule="nonzero"></path>
                    <path d="M93.6040064,15.400001 C87.0884492,21.6143092 78.5063115,25.2017299 69.5065047,25.4730017 C69.0872643,26.0019877 68.8579885,26.6565334 68.8555047,27.3315019 C68.8631443,28.8882377 70.0068269,30.2059265 71.5470049,30.4325021 C72.3275049,35.2030024 74.8510051,38.9410027 78.5680054,40.0715027 C84.5180058,41.8845029 91.3115062,36.3020025 93.7195064,27.6010019 C94.9375065,23.2050016 94.8010065,18.8615013 93.6040064,15.400001 Z" id="Path" fill="#E49D75" fill-rule="nonzero"></path>
                    <path d="M102.875507,117.715508 C109.175507,117.715508 131.925509,117.533508 136.101009,117.533508" id="Path" fill="#FFC88E" fill-rule="nonzero"></path>
                    <path d="M98.9835067,118.009508 C105.633507,118.009508 128.586509,117.467008 132.394509,117.467008 C135.348509,112.917008 149.06851,88.9490061 149.97501,87.1360059" id="Path" stroke="#9D9D9D" stroke-width="2.02650014" stroke-linecap="round" stroke-linejoin="round"></path>
                    <polygon id="Path" fill="#323233" fill-rule="nonzero" points="98.7000067 207.000514 93.8980064 216.177515 118.328008 228.959516 119.689508 226.359015 107.593507 211.659014"></polygon>
                    <polygon id="Path" fill="#323233" fill-rule="nonzero" points="158.200011 190.085013 163.537511 198.961014 187.166013 184.754513 185.654013 182.238012 166.803011 184.912013"></polygon>
                    <polyline id="Path" stroke="#DFDFDF" stroke-width="4.54300031" stroke-linecap="round" stroke-linejoin="round" points="27.7410019 196.644013 12.0715008 180.978012 27.7410019 165.308511"></polyline>
                    <polyline id="Path" stroke="#DFDFDF" stroke-width="4.54300031" stroke-linecap="round" stroke-linejoin="round" points="222.337515 252.616017 238.000016 236.950016 222.334015 221.284015"></polyline>
                    <line x1="29.813002" y1="236.757516" x2="209.884514" y2="236.757516" id="Path" stroke="#FFFFFF" stroke-width="4.54300031" stroke-linecap="round" stroke-linejoin="round"></line>
                </g>
            </g>
        </g>
    </g>
</svg>
