<?xml version="1.0" encoding="UTF-8"?>
<svg width="187px" height="24px" viewBox="0 0 187 24" version="1.1" xmlns="http://www.w3.org/2000/svg" xmlns:xlink="http://www.w3.org/1999/xlink">
    <!-- Generator: Sketch 63.1 (92452) - https://sketch.com -->
    <title>DesignNumBeta</title>
    <desc>Created with Sketch.</desc>
    <g id="Site" stroke="none" stroke-width="1" fill="none" fill-rule="evenodd">
        <g id="Main-Copy-9" transform="translate(-546.000000, -34.000000)" fill="#1C1C1C" fill-rule="nonzero">
            <g id="DesignNumBeta" transform="translate(546.000000, 34.000000)">
                <path d="M6.6528,18.0576 C7.96752,18.0576 9.17532,17.83584 10.2762,17.39232 C11.37708,16.9488 12.3156,16.34688 13.09176,15.58656 C13.86792,14.82624 14.4738,13.94316 14.9094,12.93732 C15.345,11.93148 15.5628,10.86624 15.5628,9.7416 C15.5628,8.61696 15.345,7.55172 14.9094,6.54588 C14.4738,5.54004 13.86792,4.65696 13.09176,3.89664 C12.3156,3.13632 11.37708,2.5344 10.2762,2.09088 C9.17532,1.64736 7.96752,1.4256 6.6528,1.4256 L6.6528,1.4256 L-5.32907052e-14,1.4256 L-5.32907052e-14,18.0576 L6.6528,18.0576 Z M6.67656,14.23224 L4.22928,14.23224 L4.22928,5.25096 L6.67656,5.25096 C7.97544,5.25096 9.05256,5.67864 9.90792,6.534 C10.76328,7.38936 11.19096,8.45856 11.19096,9.7416 C11.19096,11.02464 10.76328,12.09384 9.90792,12.9492 C9.05256,13.80456 7.97544,14.23224 6.67656,14.23224 L6.67656,14.23224 Z M23.9976,18.5328 C25.13808,18.5328 26.16768,18.31896 27.0864,17.89128 C28.00512,17.4636 28.7496,16.87752 29.31984,16.13304 L29.31984,16.13304 L26.65872,14.0184 C26.38944,14.36688 26.02908,14.64408 25.57764,14.85 C25.1262,15.05592 24.62328,15.15888 24.06888,15.15888 C23.27688,15.15888 22.6314,14.9886 22.13244,14.64804 C21.63348,14.30748 21.3048,13.79664 21.1464,13.11552 L21.1464,13.11552 L28.89216,13.11552 C28.95552,12.9096 29.01096,12.62448 29.05848,12.26016 C29.106,11.89584 29.12976,11.51568 29.12976,11.11968 C29.12976,9.504 28.61496,8.18136 27.58536,7.15176 C26.55576,6.12216 25.19352,5.60736 23.49864,5.60736 C22.48488,5.60736 21.58992,5.7816 20.81376,6.13008 C20.0376,6.47856 19.38816,6.94584 18.86544,7.53192 C18.34272,8.118 17.94672,8.80704 17.67744,9.59904 C17.40816,10.39104 17.27352,11.21472 17.27352,12.07008 C17.27352,12.94128 17.42004,13.76892 17.71308,14.553 C18.00612,15.33708 18.4338,16.02216 18.99612,16.60824 C19.55844,17.19432 20.25936,17.6616 21.09888,18.01008 C21.9384,18.35856 22.90464,18.5328 23.9976,18.5328 Z M25.4232,10.3356 L21.28896,10.3356 C21.4632,9.74952 21.73644,9.33372 22.10868,9.0882 C22.48092,8.84268 22.94424,8.71992 23.49864,8.71992 C24.14808,8.71992 24.62724,8.8902 24.93612,9.23076 C25.245,9.57132 25.40736,9.9396 25.4232,10.3356 L25.4232,10.3356 Z M35.61624,18.5328 C36.18648,18.5328 36.74484,18.44568 37.29132,18.27144 C37.8378,18.0972 38.32092,17.8398 38.74068,17.49924 C39.16044,17.15868 39.501,16.73496 39.76236,16.22808 C40.02372,15.7212 40.16232,15.1272 40.17816,14.44608 C40.17816,13.36896 39.897,12.56904 39.33468,12.04632 C38.77236,11.5236 38.15856,11.1276 37.49328,10.85832 C36.828,10.58904 36.2142,10.36332 35.65188,10.18116 C35.08956,9.999 34.8084,9.71784 34.8084,9.33768 C34.8084,9.13176 34.8876,8.96544 35.046,8.83872 C35.2044,8.712 35.44992,8.64864 35.78256,8.64864 C36.21024,8.64864 36.60228,8.78328 36.95868,9.05256 C37.31508,9.32184 37.63584,9.6228 37.92096,9.95544 L37.92096,9.95544 L40.392,7.69824 C39.94848,7.11216 39.30696,6.61716 38.46744,6.21324 C37.62792,5.80932 36.73296,5.60736 35.78256,5.60736 C34.46784,5.60736 33.37884,5.97564 32.51556,6.7122 C31.65228,7.44876 31.22064,8.38728 31.22064,9.52776 C31.22064,10.60488 31.5018,11.4048 32.06412,11.92752 C32.62644,12.45024 33.24024,12.8502 33.90552,13.1274 C34.5708,13.4046 35.1846,13.63428 35.74692,13.81644 C36.30924,13.9986 36.5904,14.2956 36.5904,14.70744 C36.5904,14.94504 36.50724,15.13512 36.34092,15.27768 C36.1746,15.42024 35.9172,15.49152 35.56872,15.49152 C35.03016,15.49152 34.55496,15.33708 34.14312,15.0282 C33.73128,14.71932 33.36696,14.35896 33.05016,13.94712 L33.05016,13.94712 L30.57912,16.25184 C31.18104,16.93296 31.88592,17.4834 32.69376,17.90316 C33.5016,18.32292 34.47576,18.5328 35.61624,18.5328 Z M44.47872,4.77576 C45.11232,4.77576 45.66276,4.5342 46.13004,4.05108 C46.59732,3.56796 46.83096,3.0096 46.83096,2.376 C46.83096,1.7424 46.59732,1.188 46.13004,0.7128 C45.66276,0.2376 45.11232,2.66453526e-15 44.47872,2.66453526e-15 C43.82928,2.66453526e-15 43.26696,0.2376 42.79176,0.7128 C42.31656,1.188 42.07896,1.7424 42.07896,2.376 C42.07896,3.0096 42.31656,3.56796 42.79176,4.05108 C43.26696,4.5342 43.82928,4.77576 44.47872,4.77576 Z M46.332,18.0576 L46.332,6.08256 L42.55416,6.08256 L42.55416,18.0576 L46.332,18.0576 Z M54.648,23.9976 C56.64384,23.9976 58.20408,23.53032 59.32872,22.59576 C60.45336,21.6612 61.01568,20.48112 61.01568,19.05552 C61.01568,17.91504 60.59988,16.96464 59.76828,16.20432 C58.93668,15.444 57.80016,15.06384 56.35872,15.06384 L56.35872,15.06384 L53.62632,15.06384 C53.43624,15.06384 53.2818,15.02028 53.163,14.93316 C53.0442,14.84604 52.9848,14.69952 52.9848,14.4936 C52.9848,14.4144 53.0046,14.33124 53.0442,14.24412 C53.0838,14.157 53.13528,14.08176 53.19864,14.0184 C53.30952,14.03424 53.4204,14.04216 53.53128,14.04216 L53.53128,14.04216 L53.86392,14.04216 C55.46376,14.04216 56.69136,13.63428 57.54672,12.81852 C58.40208,12.00276 58.82976,11.00088 58.82976,9.81288 L58.82976,9.81288 L58.82976,9.52776 C58.82976,9.43272 58.82184,9.33768 58.806,9.24264 L58.806,9.24264 L60.68304,9.24264 L60.68304,6.08256 L56.38248,6.08256 C56.034,5.92416 55.64988,5.80536 55.23012,5.72616 C54.81036,5.64696 54.35496,5.60736 53.86392,5.60736 C52.29576,5.60736 51.084,6.01128 50.22864,6.81912 C49.37328,7.62696 48.9456,8.62488 48.9456,9.81288 C48.9456,10.47816 49.08024,11.09196 49.34952,11.65428 C49.6188,12.2166 50.0148,12.69576 50.53752,13.09176 C50.094,13.44024 49.7772,13.80852 49.58712,14.1966 C49.39704,14.58468 49.302,15.02424 49.302,15.51528 C49.302,15.81624 49.3614,16.1172 49.4802,16.41816 C49.599,16.71912 49.76136,16.99632 49.96728,17.24976 C49.47624,17.61408 49.09212,18.03384 48.81492,18.50904 C48.53772,18.98424 48.39912,19.51488 48.39912,20.10096 C48.39912,21.39984 48.93768,22.374 50.0148,23.02344 C51.09192,23.67288 52.63632,23.9976 54.648,23.9976 Z M53.88768,11.286 C53.42832,11.286 53.05212,11.16324 52.75908,10.91772 C52.46604,10.6722 52.31952,10.30392 52.31952,9.81288 C52.31952,9.33768 52.46604,8.97732 52.75908,8.7318 C53.05212,8.48628 53.42832,8.36352 53.88768,8.36352 C54.34704,8.36352 54.7272,8.48232 55.02816,8.71992 C55.32912,8.95752 55.4796,9.32184 55.4796,9.81288 C55.4796,10.30392 55.32912,10.6722 55.02816,10.91772 C54.7272,11.16324 54.34704,11.286 53.88768,11.286 Z M54.60048,21.0276 C53.65008,21.0276 52.965,20.89296 52.54524,20.62368 C52.12548,20.3544 51.9156,19.99008 51.9156,19.53072 C51.9156,19.2456 51.975,19.00008 52.0938,18.79416 C52.2126,18.58824 52.38288,18.414 52.60464,18.27144 L52.60464,18.27144 L55.88352,18.27144 C56.35872,18.27144 56.71512,18.38232 56.95272,18.60408 C57.19032,18.82584 57.30912,19.11096 57.30912,19.45944 C57.30912,19.90296 57.09528,20.2752 56.6676,20.57616 C56.23992,20.87712 55.55088,21.0276 54.60048,21.0276 Z M66.50424,18.0576 L66.50424,10.59696 C66.5676,10.50192 66.65076,10.37124 66.75372,10.20492 C66.85668,10.0386 66.99528,9.87624 67.16952,9.71784 C67.34376,9.55944 67.55364,9.4248 67.79916,9.31392 C68.04468,9.20304 68.33376,9.1476 68.6664,9.1476 C69.26832,9.1476 69.72768,9.33768 70.04448,9.71784 C70.36128,10.098 70.51968,10.58904 70.51968,11.19096 L70.51968,11.19096 L70.51968,18.0576 L74.32128,18.0576 L74.32128,11.02464 C74.32128,10.12176 74.19852,9.32976 73.953,8.64864 C73.70748,7.96752 73.37484,7.40124 72.95508,6.9498 C72.53532,6.49836 72.04428,6.16176 71.48196,5.94 C70.91964,5.71824 70.32168,5.60736 69.68808,5.60736 C68.99112,5.60736 68.38524,5.71428 67.87044,5.92812 C67.35564,6.14196 66.90024,6.4152 66.50424,6.74784 L66.50424,6.74784 L66.50424,6.08256 L62.7264,6.08256 L62.7264,18.0576 L66.50424,18.0576 Z" id="DesignNumßeta"></path>
                <path d="M145.14984,18.15264 C145.89432,18.15264 146.59128,18.03384 147.24072,17.79624 C147.89016,17.55864 148.44852,17.226 148.9158,16.79832 C149.38308,16.37064 149.75136,15.85188 150.02064,15.24204 C150.28992,14.6322 150.42456,13.96296 150.42456,13.23432 C150.42456,12.7908 150.35724,12.34332 150.2226,11.89188 C150.08796,11.44044 149.88996,11.02464 149.6286,10.64448 C149.36724,10.26432 149.04252,9.92376 148.65444,9.6228 C148.26636,9.32184 147.81888,9.09216 147.312,8.93376 C148.104,8.61696 148.71384,8.0784 149.14152,7.31808 C149.5692,6.55776 149.78304,5.77368 149.78304,4.96584 C149.78304,4.3164 149.6682,3.7026 149.43852,3.12444 C149.20884,2.54628 148.88016,2.04336 148.45248,1.61568 C148.0248,1.188 147.50208,0.8514 146.88432,0.60588 C146.26656,0.36036 145.5696,0.2376 144.79344,0.2376 C143.30448,0.2376 142.10856,0.67716 141.20568,1.55628 C140.3028,2.4354 139.85136,3.564 139.85136,4.94208 L139.85136,4.94208 L139.85136,18.0576 L141.89472,18.0576 L141.89472,4.94208 C141.89472,4.07088 142.16796,3.3858 142.71444,2.88684 C143.26092,2.38788 143.96184,2.1384 144.8172,2.1384 C145.65672,2.1384 146.33784,2.41164 146.86056,2.95812 C147.38328,3.5046 147.64464,4.17384 147.64464,4.96584 C147.64464,5.86872 147.38328,6.60528 146.86056,7.17552 C146.33784,7.74576 145.6488,8.03088 144.79344,8.03088 L144.79344,8.03088 L143.84304,8.03088 L143.84304,9.93168 L144.88848,9.93168 C145.8864,9.93168 146.71008,10.24452 147.35952,10.8702 C148.00896,11.49588 148.33368,12.25224 148.33368,13.13928 C148.33368,14.07384 148.02876,14.82624 147.41892,15.39648 C146.80908,15.96672 146.02104,16.25184 145.0548,16.25184 C144.84888,16.25184 144.639,16.23996 144.42516,16.2162 C144.21132,16.19244 144.01728,16.14888 143.84304,16.08552 L143.84304,16.08552 L143.84304,18.01008 C144.03312,18.0576 144.23112,18.09324 144.43704,18.117 C144.64296,18.14076 144.88056,18.15264 145.14984,18.15264 Z M159.3108,18.5328 C160.4196,18.5328 161.41356,18.31104 162.29268,17.86752 C163.1718,17.424 163.88856,16.83 164.44296,16.08552 L164.44296,16.08552 L162.94608,14.92128 C162.55008,15.45984 162.0432,15.89148 161.42544,16.2162 C160.80768,16.54092 160.11864,16.70328 159.35832,16.70328 C158.02776,16.70328 156.94668,16.27164 156.11508,15.40836 C155.28348,14.54508 154.86768,13.45608 154.86768,12.14136 L154.86768,12.14136 L154.86768,12.09384 L164.03904,12.09384 C164.07072,11.93544 164.1024,11.7414 164.13408,11.51172 C164.16576,11.28204 164.1816,11.0484 164.1816,10.8108 C164.1816,10.06632 164.05488,9.37332 163.80144,8.7318 C163.548,8.09028 163.18764,7.53984 162.72036,7.08048 C162.25308,6.62112 161.6868,6.26076 161.02152,5.9994 C160.35624,5.73804 159.61968,5.60736 158.81184,5.60736 C157.89312,5.60736 157.05756,5.77368 156.30516,6.10632 C155.55276,6.43896 154.91916,6.89436 154.40436,7.47252 C153.88956,8.05068 153.4896,8.73576 153.20448,9.52776 C152.91936,10.31976 152.7768,11.1672 152.7768,12.07008 C152.7768,12.94128 152.92728,13.76892 153.22824,14.553 C153.5292,15.33708 153.96084,16.02216 154.52316,16.60824 C155.08548,17.19432 155.77452,17.6616 156.59028,18.01008 C157.40604,18.35856 158.31288,18.5328 159.3108,18.5328 Z M162.13824,10.50192 L155.034,10.50192 C155.2716,9.47232 155.72304,8.68824 156.38832,8.14968 C157.0536,7.61112 157.86936,7.34184 158.8356,7.34184 C159.81768,7.34184 160.60572,7.65468 161.19972,8.28036 C161.79372,8.90604 162.10656,9.64656 162.13824,10.50192 L162.13824,10.50192 Z M172.3788,18.2952 C172.80648,18.2952 173.18664,18.26748 173.51928,18.21204 C173.85192,18.1566 174.1608,18.07344 174.44592,17.96256 L174.44592,17.96256 L174.44592,16.1568 C174.22416,16.25184 173.97072,16.32312 173.6856,16.37064 C173.40048,16.41816 173.05992,16.44192 172.66392,16.44192 C171.93528,16.44192 171.35316,16.2756 170.91756,15.94296 C170.48196,15.61032 170.26416,14.97672 170.26416,14.04216 L170.26416,14.04216 L170.26416,7.93584 L174.42216,7.93584 L174.42216,6.08256 L170.26416,6.08256 L170.26416,3.0888 L168.2208,3.0888 L168.2208,6.08256 L165.9636,6.08256 L165.9636,7.93584 L168.2208,7.93584 L168.2208,14.04216 C168.2208,15.49944 168.58116,16.5726 169.30188,17.26164 C170.0226,17.95068 171.04824,18.2952 172.3788,18.2952 Z M180.78984,18.5328 C181.59768,18.5328 182.358,18.35856 183.0708,18.01008 C183.7836,17.6616 184.36176,17.17056 184.80528,16.53696 L184.80528,16.53696 L184.80528,18.0576 L186.82488,18.0576 L186.82488,10.02672 C186.82488,8.712 186.3972,7.64676 185.54184,6.831 C184.68648,6.01524 183.49848,5.60736 181.97784,5.60736 C180.9324,5.60736 179.99784,5.81328 179.17416,6.22512 C178.35048,6.63696 177.67728,7.19928 177.15456,7.91208 L177.15456,7.91208 L178.6752,9.07632 C179.02368,8.5536 179.47908,8.14572 180.0414,7.85268 C180.60372,7.55964 181.23336,7.41312 181.93032,7.41312 C182.76984,7.41312 183.45888,7.6428 183.99744,8.10216 C184.536,8.56152 184.80528,9.20304 184.80528,10.02672 L184.80528,10.02672 L184.80528,10.85832 L180.78984,11.5236 C179.5068,11.72952 178.52868,12.14928 177.85548,12.78288 C177.18228,13.41648 176.84568,14.19264 176.84568,15.11136 C176.84568,16.1568 177.21,16.9884 177.93864,17.60616 C178.66728,18.22392 179.61768,18.5328 180.78984,18.5328 Z M181.12248,16.84584 C180.44136,16.84584 179.89488,16.6716 179.48304,16.32312 C179.0712,15.97464 178.86528,15.54696 178.86528,15.04008 C178.86528,14.51736 179.05932,14.07384 179.4474,13.70952 C179.83548,13.3452 180.44136,13.09968 181.26504,12.97296 L181.26504,12.97296 L184.80528,12.3552 L184.80528,14.63616 C184.39344,15.31728 183.87468,15.85584 183.249,16.25184 C182.62332,16.64784 181.91448,16.84584 181.12248,16.84584 Z" id="DesignNumßeta-Copy"></path>
                <path d="M100.78992,6.08256 L100.78992,12.85416 L100.795933,13.06096 C100.828004,13.6006933 100.98836,14.04656 101.277,14.39856 C101.60172,14.79456 102.11256,14.99256 102.80952,14.99256 C103.49064,14.99256 103.99356,14.79456 104.31828,14.39856 C104.643,14.00256 104.80536,13.48776 104.80536,12.85416 L104.80536,12.85416 L104.80536,6.08256 L108.60696,6.08256 L108.60696,12.64032 L108.600974,12.971707 C108.54111,14.6075273 108.032265,15.926625 107.07444,16.929 C106.05276,17.9982 104.6232,18.5328 102.78576,18.5328 C100.93248,18.5328 99.50292,17.9982 98.49708,16.929 C97.49124,15.8598 96.98832,14.43024 96.98832,12.64032 L96.98832,12.64032 L96.98832,6.08256 L100.78992,6.08256 Z M83.42136,1.4256 L89.38512,11.68992 L89.38512,1.4256 L93.6144,1.4256 L93.6144,18.0576 L88.24464,18.0576 L82.28088,7.79328 L82.28088,18.0576 L78.0516,18.0576 L78.0516,1.4256 L83.42136,1.4256 Z M125.47656,5.60736 C126.07848,5.60736 126.64476,5.71428 127.1754,5.92812 C127.70604,6.14196 128.16936,6.46272 128.56536,6.8904 C128.96136,7.31808 129.27816,7.8606 129.51576,8.51796 C129.75336,9.17532 129.87216,9.93168 129.87216,10.78704 L129.87216,10.78704 L129.87216,18.0576 L126.07056,18.0576 L126.07056,10.95336 L126.064249,10.7562262 C126.034796,10.3075087 125.90226,9.93762 125.66664,9.64656 C125.39736,9.31392 124.99344,9.1476 124.45488,9.1476 C124.15392,9.1476 123.89652,9.20304 123.68268,9.31392 C123.46884,9.4248 123.29064,9.55548 123.14808,9.70596 C123.00552,9.85644 122.89068,10.00692 122.80356,10.1574 C122.71644,10.30788 122.64912,10.42272 122.6016,10.50192 L122.6016,10.50192 L122.57784,10.47816 L122.57784,18.0576 L118.77624,18.0576 L118.77624,10.95336 L118.769929,10.7562262 C118.740476,10.3075087 118.60794,9.93762 118.37232,9.64656 C118.10304,9.31392 117.69912,9.1476 117.16056,9.1476 C116.8596,9.1476 116.6022,9.20304 116.38836,9.31392 C116.17452,9.4248 115.99236,9.55944 115.84188,9.71784 C115.6914,9.87624 115.56864,10.0386 115.4736,10.20492 C115.37856,10.37124 115.29936,10.50192 115.236,10.59696 L115.236,10.59696 L115.236,18.0576 L111.45816,18.0576 L111.45816,6.08256 L115.236,6.08256 L115.236,6.70032 L115.453642,6.5249712 C115.755235,6.2981424 116.102448,6.099192 116.49528,5.92812 C116.98632,5.71428 117.54864,5.60736 118.18224,5.60736 C118.91088,5.60736 119.58804,5.76576 120.21372,6.08256 C120.8394,6.39936 121.35024,6.87456 121.74624,7.50816 C122.14224,7.01712 122.63724,6.57756 123.23124,6.18948 C123.82524,5.8014 124.57368,5.60736 125.47656,5.60736 Z" id="Combined-Shape"></path>
            </g>
        </g>
    </g>
</svg>