<?xml version="1.0" encoding="UTF-8"?>
<svg viewBox="0 0 219 240" version="1.1" xmlns="http://www.w3.org/2000/svg" xmlns:xlink="http://www.w3.org/1999/xlink">
    <g id="Site" stroke="none" stroke-width="1" fill="none" fill-rule="evenodd">
        <g id="Main-Copy-9" transform="translate(-802.000000, -933.000000)">
            <g id="Content" transform="translate(251.000000, 933.000000)">
                <g id="Group-5" transform="translate(9.000000, 0.000000)">
                    <g id="DesignIllustration" transform="translate(542.000000, 0.000000)">
                        <line x1="109.921352" y1="79.0742535" x2="138.756507" y2="79.8341408" id="Path" stroke="#FF5F42" stroke-width="2.16338028" stroke-linecap="round"></line>
                        <polygon id="Path" fill="#EBECF0" fill-rule="nonzero" points="0.229859155 143.421296 0.229859155 191.483493 43.1810704 215.323944 114.569915 196.402479 115.46231 147.585803 66.8646761 126.02231"></polygon>
                        <path d="M79.3311549,125.110986 C80.6832676,123.569577 116.722479,138.469859 121.857803,145.630648 C126.993127,152.791437 91.3027606,206.873239 76.7783662,217.649577 C75.155831,216.538141 71.2238873,213.720338 71.2238873,213.720338 C71.2238873,213.720338 83.4415775,176.212732 94.547831,163.567775 C91.7300282,162.799775 82.5870423,160.406535 82.5870423,160.406535 L72.5624789,129.037521 C74.1552676,128.374986 77.5571831,127.131042 79.3311549,125.110986 Z" id="Path" fill="#3355E3" fill-rule="nonzero"></path>
                        <path d="M72.5624789,129.034817 L121.857803,229.942986 L114.715944,232.917634 C114.715944,232.917634 78.3549296,187.186479 77.184,183.776451 C75.0503662,182.494648 40.0468732,154.82231 36.1014085,134.894873 C41.7018592,135.881915 63.1815211,133.859155 72.5624789,129.034817 Z" id="Path" fill="#3355E3" fill-rule="nonzero"></path>
                        <path d="M90.9160563,71.8566761 C93.8203944,73.944338 97.0086761,78.1764507 98.663662,92.7711549 C101.597746,91.4190423 118.599211,83.2901408 118.599211,83.2901408 C118.599211,83.2901408 122.736676,85.6238873 121.909183,86.7515493 C121.08169,87.8792113 101.221859,108.342085 95.3536901,109.621183 C90.756507,110.675831 79.1797183,95.4023662 78.8795493,93.7473803 C78.5793803,92.0923944 83.9932394,74.1877183 83.9932394,74.1877183 L90.9160563,71.8566761 Z" id="Path" fill="#FFDBAC" fill-rule="nonzero"></path>
                        <ellipse id="Oval" fill="#FF5F42" fill-rule="nonzero" transform="translate(123.166126, 81.027434) rotate(-64.910000) translate(-123.166126, -81.027434) " cx="123.166126" cy="81.0274344" rx="7.19594366" ry="5.96822535"></ellipse>
                        <path d="M67.8760563,53.6842817 C76.8,47.2860845 96.2001127,66.4238873 95.7295775,70.0015775 C95.2590423,73.5792676 84.2798873,87.7412958 77.0217465,84.3042254 C69.7636056,80.8671549 61.5319437,58.2246761 67.8760563,53.6842817 Z" id="Path" fill="#3355E3" fill-rule="nonzero"></path>
                        <path d="M58.1408451,45.2660282 C21.8825915,45.2660282 30.1034366,128.475042 34.2544225,133.185803 C43.9517746,138.57262 75.1152676,130.992676 79.3365634,125.110986 C82.6952113,120.289352 91.1323944,45.2660282 58.1408451,45.2660282 Z" id="Path" fill="#3355E3" fill-rule="nonzero"></path>
                        <path d="M21.3038873,73.7252958 C19.2108169,76.5944789 9.25656338,102.390085 11.7660845,109.77262 C16.1901972,122.752901 46.7614648,146.755606 46.7614648,146.755606 C47.3023099,144.592225 48.6246761,138.372507 48.6246761,138.372507 C48.6246761,138.372507 27.7480563,109.345352 26.6609577,107.171155 C28.3673239,104.531831 35.8174648,89.9425352 36.5178592,82.3355493 C37.2182535,74.7285634 21.3038873,73.7252958 21.3038873,73.7252958 Z" id="Path" fill="#FFDBAC" fill-rule="nonzero"></path>
                        <path d="M63.2788732,50.855662 C63.2788732,53.5220282 51.6696338,53.3651831 51.6696338,50.855662 L51.6696338,33.8596056 L63.2788732,33.8596056 L63.2788732,50.855662 Z" id="Path" fill="#FFDBAC" fill-rule="nonzero"></path>
                        <path d="M62.3010147,43.9128563 C68.3545979,43.7987354 73.1250297,36.4407541 72.9560722,27.478345 C72.7871148,18.5159359 67.7427489,11.342981 61.6891657,11.4571019 C55.6355824,11.5712227 50.8651507,18.9292041 51.0341081,27.8916132 C51.2030656,36.8540223 56.2474315,44.0269772 62.3010147,43.9128563 Z" id="Oval" fill="#FFDBAC" fill-rule="nonzero"></path>
                        <circle id="Oval" fill="#FFDBAC" fill-rule="nonzero" cx="50.8015775" cy="31.5691268" r="3.15853521"></circle>
                        <path d="M81.9218028,5.91684507 C81.9218028,2.02276056 78.9471549,0.237971831 76.5133521,0.237971831 C72.1216901,0.237971831 69.6662535,3.75346479 65.6964507,3.75346479 C61.4318873,3.75346479 60.4313239,1.31966197 55.9612394,1.31966197 C47.3239437,1.31966197 48.2082254,10.2165634 46.4261408,13.0181408 C44.184338,16.5336338 42.7105352,20.135662 42.7105352,22.6830423 C42.7105352,27.3559437 45.5851268,29.4111549 47.916169,30.276507 C48.4380157,29.1405504 49.5807246,28.4192512 50.8306899,28.4368069 C52.0806552,28.4543626 53.2026561,29.2074695 53.6923944,30.3576338 C55.3311549,29.6491268 55.463662,28.4024789 55.463662,27.9914366 C55.463662,26.5014085 53.8600563,23.9350986 56.123493,21.6094648 C58.0326761,19.643493 68.6873239,20.2816901 70.5802817,18.0155493 C71.2996056,19.0972394 72.0054085,21.3444507 72.2028169,21.9583099 C72.7363305,22.0726199 73.2797884,22.1342117 73.8253521,22.1421972 C78.5983099,22.1421972 80.315493,19.7083944 80.315493,18.0858592 C80.315493,15.6520563 78.1521127,14.7515493 78.1521127,13.2182535 C78.1358873,10.5032113 81.9218028,10.8412394 81.9218028,5.91684507 Z" id="Path" fill="#FF5F42" fill-rule="nonzero"></path>
                        <line x1="76.1455775" y1="43.8463099" x2="77.7140282" y2="44.16" id="Path" fill="#DE8E68" fill-rule="nonzero"></line>
                        <path d="M38.9408451,53.5788169 C48.7896338,58.0732394 41.6180282,83.3252958 38.2999437,84.6179155 C34.9818592,85.9105352 17.4287324,83.3334085 16.8932958,75.6290704 C16.3578592,67.9247324 31.9585352,50.387831 38.9408451,53.5788169 Z" id="Path" fill="#3355E3" fill-rule="nonzero"></path>
                        <polygon id="Path" fill="#323233" fill-rule="nonzero" points="114.569915 232.641803 121.27369 229.832113 135.197746 229.832113 136.090141 232.130704 117.379606 239.47538"></polygon>
                        <polygon id="Path" fill="#323233" fill-rule="nonzero" points="71.3131268 213.595944 77.1461408 217.933521 84.2420282 229.910535 82.7195493 231.852169 66.8646761 219.496563"></polygon>
                        <path d="M217.568451,87.9387042 C218.920563,92.3682254 207.576338,93.2849577 206.932732,91.1648451 C206.289127,89.0447324 216.129803,83.2009014 217.568451,87.9387042 Z" id="Path" fill="#FF5F42" fill-rule="nonzero"></path>
                        <path d="M215.797183,99.3667606 C217.917296,103.479887 206.932732,106.427493 205.918648,104.458817 C204.904563,102.490141 213.514817,94.9642817 215.797183,99.3667606 Z" id="Path" fill="#FF5F42" fill-rule="nonzero"></path>
                        <path d="M216.438085,112.779718 C218.558197,116.892845 207.576338,119.840451 206.559549,117.871775 C205.542761,115.903099 214.174648,108.377239 216.438085,112.779718 Z" id="Path" fill="#FF5F42" fill-rule="nonzero"></path>
                        <path d="M216.857239,125.205634 C218.785352,128.945577 209.201577,131.425352 208.279437,129.627042 C207.357296,127.828732 214.793915,121.206085 216.857239,125.205634 Z" id="Path" fill="#FF5F42" fill-rule="nonzero"></path>
                        <path d="M218.063324,138.997183 C219.991437,142.737127 210.407662,145.216901 209.485521,143.418592 C208.56338,141.620282 215.997296,134.99493 218.063324,138.997183 Z" id="Path" fill="#FF5F42" fill-rule="nonzero"></path>
                        <path d="M188.289803,192.040563 C188.617014,190.523493 204.455662,179.219831 208.206423,161.731606 C214.317972,133.226366 201.462085,115.535324 205.826704,95.172507 C206.637972,91.3243944 209.61262,79.2743662 216.773408,75.6885634" id="Path" stroke="#FFDBAC" stroke-width="2.43380282" stroke-linecap="round"></path>
                        <path d="M201.700056,156.993803 C205.345352,154.889915 208.271324,164.343887 206.524394,165.352563 C204.777465,166.361239 197.797859,159.246423 201.700056,156.993803 Z" id="Path" fill="#FF5F42" fill-rule="nonzero"></path>
                        <path d="M201.499944,145.928113 C204.290704,142.77769 210.058817,150.820056 208.72293,152.329014 C207.387042,153.837972 198.511775,149.297577 201.499944,145.928113 Z" id="Path" fill="#FF5F42" fill-rule="nonzero"></path>
                        <path d="M201.875831,132.953239 C204.666592,129.802817 210.434704,137.845183 209.098817,139.354141 C207.76293,140.863099 198.887662,136.325408 201.875831,132.953239 Z" id="Path" fill="#FF5F42" fill-rule="nonzero"></path>
                        <path d="M199.901746,122.147155 C202.065127,118.531606 209.225915,125.351662 208.195606,127.082366 C207.165296,128.81307 197.597746,126.016901 199.901746,122.147155 Z" id="Path" fill="#FF5F42" fill-rule="nonzero"></path>
                        <path d="M197.035268,107.233352 C199.739493,104.009915 205.723944,111.890028 204.42862,113.434141 C203.133296,114.978254 194.139042,110.683944 197.035268,107.233352 Z" id="Path" fill="#FF5F42" fill-rule="nonzero"></path>
                        <path d="M197.562592,91.4028169 C200.537239,88.4416901 205.786141,96.8383099 204.355606,98.2580282 C202.92507,99.6777465 194.363493,94.5829859 197.562592,91.4028169 Z" id="Path" fill="#FF5F42" fill-rule="nonzero"></path>
                        <path d="M207.143662,71.1806197 C210.11831,68.2059718 215.367211,76.6161127 213.936676,78.035831 C212.506141,79.4555493 203.936451,74.3499718 207.143662,71.1806197 Z" id="Path" fill="#FF5F42" fill-rule="nonzero"></path>
                        <path d="M187.973408,144.589521 C187.178366,142.469408 186.621296,136.679662 186.621296,133.864563 C186.621296,114.959324 175.396056,111.419493 169.654986,111.419493 C158.481127,111.419493 152.177577,121.752338 152.177577,130.22738 C152.177577,137.723493 155.357746,144.386704 159.257239,150.016901 C160.806841,148.122249 163.349014,147.353942 165.688599,148.073185 C168.028184,148.792429 169.69973,150.856134 169.917387,153.294083 C170.135044,155.732032 168.855511,158.059205 166.680338,159.181521 C169.90107,162.772732 172.564732,165.560789 173.227268,167.426704 C175.479887,173.662648 174.503662,176.62107 175.777352,179.671437 C178.881803,187.105352 182.043042,190.975099 185.826254,190.645183 C194.598761,189.879887 198.068301,182.440563 198.068301,163.216225 C198.081803,157.769915 190.991324,152.626479 187.973408,144.589521 Z" id="Path" fill="#FF5F42" fill-rule="nonzero"></path>
                        <polygon id="Path" fill="#D7D8DB" fill-rule="nonzero" points="166.985915 123.948169 115.46231 135.941408 115.46231 19.1459155 166.985915 5.61126761"></polygon>
                        <path d="M202.324732,226.633015 L178.411268,226.633015 C177.295062,226.633677 176.304201,225.9186 175.953127,224.859042 L164.068056,188.80631 C163.807601,188.018251 163.94135,187.15306 164.427611,186.480435 C164.913871,185.807809 165.693509,185.409803 166.523493,185.409803 L214.326085,185.409803 C215.157598,185.409803 215.938425,185.809515 216.424818,186.48393 C216.911211,187.158346 217.043921,188.025397 216.781521,188.814423 L204.780169,224.864451 C204.428243,225.921449 203.438777,226.634126 202.324732,226.633015 L202.324732,226.633015 Z" id="Path" fill="#D7D8DB" fill-rule="nonzero"></path>
                    </g>
                </g>
            </g>
        </g>
    </g>
</svg>
