<?xml version="1.0" encoding="UTF-8"?>
<svg width="244" height="240" viewBox="0 0 249 240" version="1.1" xmlns="http://www.w3.org/2000/svg" xmlns:xlink="http://www.w3.org/1999/xlink">
    <polygon id="Path" fill="#EBECF0" fill-rule="nonzero" points="0.230248307 143.664108 0.230248307 191.807675 43.2541761 215.688488 114.763883 196.734989 115.657788 147.835666 66.9778781 126.235666"></polygon>
    <line x1="110.107449" y1="79.2081264" x2="138.991422" y2="79.9693002" id="Path" stroke="#FF7D66" stroke-width="2.16704289" stroke-linecap="round"></line>
    <path d="M79.4654628,125.322799 C80.8198646,123.778781 116.92009,138.704289 122.064108,145.877201 C127.208126,153.050113 91.4573363,207.223476 76.9083521,218.018059 C75.28307,216.90474 71.3444695,214.082167 71.3444695,214.082167 C71.3444695,214.082167 83.5828442,176.511061 94.7079007,163.844695 C91.8853273,163.075395 82.7268623,160.678104 82.7268623,160.678104 L72.6853273,129.255982 C74.2808126,128.592325 77.6884876,127.346275 79.4654628,125.322799 Z" id="Path" fill="#748CEC" fill-rule="nonzero"></path>
    <path d="M72.6853273,129.253273 L122.064108,230.33228 L114.910158,233.311964 C114.910158,233.311964 78.4875847,187.503386 77.3146727,184.087585 C75.1774266,182.803612 40.1146727,155.084424 36.1625282,135.123251 C41.7724605,136.111964 63.2884876,134.085779 72.6853273,129.253273 Z" id="Path" fill="#8C9FEE" fill-rule="nonzero"></path>
    <path d="M91.0699774,71.9783296 C93.9792325,74.069526 97.172912,78.3088036 98.8306998,92.9282167 C101.769752,91.5738149 118.8,83.4311512 118.8,83.4311512 C118.8,83.4311512 122.94447,85.7688488 122.115576,86.8984199 C121.286682,88.027991 101.393228,108.525508 95.5151242,109.806772 C90.910158,110.863205 79.3137698,95.5638826 79.0130926,93.9060948 C78.7124153,92.248307 84.1354402,74.3133183 84.1354402,74.3133183 L91.0699774,71.9783296 Z" id="Path" fill="#DE8E68" fill-rule="nonzero"></path>
    <ellipse id="Oval" fill="#DE8E68" fill-rule="nonzero" transform="translate(123.374646, 81.164614) rotate(-64.910000) translate(-123.374646, -81.164614) " cx="123.374646" cy="81.164614" rx="7.20812641" ry="5.97832957"></ellipse>
    <path d="M67.9909707,53.7751693 C76.9300226,47.36614 96.3629797,66.5363431 95.8916479,70.1200903 C95.420316,73.7038375 84.4225734,87.889842 77.1521445,84.4469526 C69.8817156,81.0040632 61.6361174,58.3232506 67.9909707,53.7751693 Z" id="Path" fill="#FAFA8C" fill-rule="nonzero"></path>
    <path d="M58.2392777,45.3426637 C21.9196388,45.3426637 30.1544018,128.692551 34.3124153,133.411287 C44.0261851,138.807223 75.2424379,131.214447 79.4708804,125.322799 C82.8352144,120.493002 91.2866817,45.3426637 58.2392777,45.3426637 Z" id="Path" fill="#FCFC8E" fill-rule="nonzero"></path>
    <path d="M21.3399549,73.8501129 C19.2433409,76.7241535 9.27223476,102.563431 11.7860045,109.958465 C16.2176072,122.960722 46.8406321,147.004063 46.8406321,147.004063 C47.3823928,144.83702 48.7069977,138.606772 48.7069977,138.606772 C48.7069977,138.606772 27.7950339,109.530474 26.7060948,107.352596 C28.4153499,104.708804 35.8781038,90.0948081 36.579684,82.4749436 C37.2812641,74.855079 21.3399549,73.8501129 21.3399549,73.8501129 Z" id="Path" fill="#DE8E68" fill-rule="nonzero"></path>
    <path d="M63.3860045,50.9417607 C63.3860045,53.6126411 51.7571106,53.4555305 51.7571106,50.9417607 L51.7571106,33.91693 L63.3860045,33.91693 L63.3860045,50.9417607 Z" id="Path" fill="#D37C59" fill-rule="nonzero"></path>
    <path d="M61.7936056,11.4764988 C67.8574375,11.3621847 72.9103435,18.5472834 73.079587,27.5248659 C73.2488305,36.5024483 68.4703224,43.8728868 62.4064904,43.9872008 C57.9264893,44.0716569 53.9982875,40.1718328 52.183633,34.5084924 C51.7888478,34.6873439 51.3497906,34.786456 50.8875847,34.786456 C49.1402205,34.786456 47.723702,33.3699375 47.723702,31.6225734 C47.723702,29.8752092 49.1402205,28.4586907 50.8875847,28.4586907 C50.9716678,28.4586907 51.0549849,28.4619707 51.137415,28.4684098 L51.1302035,28.3067523 L51.1302035,28.3067523 L51.120509,27.9388338 C50.9512655,18.9612513 55.7297736,11.5908128 61.7936056,11.4764988 Z" id="Combined-Shape" fill="#DE8E68" fill-rule="nonzero"></path>
    <path d="M82.0604966,5.9268623 C82.0604966,2.0261851 79.0808126,0.238374718 76.6428894,0.238374718 C72.2437923,0.238374718 69.7841986,3.75981941 65.8076749,3.75981941 C61.5358916,3.75981941 60.5336343,1.32189616 56.0559819,1.32189616 C47.4040632,1.32189616 48.289842,10.23386 46.5047404,13.0401806 C44.2591422,16.5616253 42.7828442,20.1697517 42.7828442,22.7214447 C42.7828442,27.4022573 45.6623025,29.4609481 47.9972912,30.3277652 C48.5200214,29.1898854 49.6646649,28.4673651 50.9167464,28.4849505 C52.1688278,28.5025359 53.2927283,29.2569178 53.7832957,30.4090293 C55.4248307,29.6993228 55.5575621,28.4505643 55.5575621,28.0388262 C55.5575621,26.5462754 53.9512415,23.9756208 56.2185102,21.6460497 C58.1309255,19.6767494 68.8036117,20.3160271 70.6997743,18.0460497 C71.420316,19.1295711 72.1273138,21.3805869 72.3250564,21.9954853 C72.8594733,22.1099888 73.4038512,22.171685 73.9503386,22.179684 C78.731377,22.179684 80.4514673,19.7417607 80.4514673,18.1164786 C80.4514673,15.6785553 78.2844244,14.7765237 78.2844244,13.2406321 C78.2681716,10.5209932 82.0604966,10.8595937 82.0604966,5.9268623 Z" id="Path" fill="#FF7D66" fill-rule="nonzero"></path>
    <path d="M39.006772,53.669526 C48.8722348,58.1715576 41.6884876,83.4663657 38.3647856,84.7611738 C35.0410835,86.0559819 17.4582393,83.4744921 16.9218962,75.7571106 C16.385553,68.0397291 32.0126411,50.4731377 39.006772,53.669526 Z" id="Path" fill="#FFFF8F" fill-rule="nonzero"></path>
    <polygon id="Path" fill="#323233" fill-rule="nonzero" points="114.763883 233.035666 121.479007 230.221219 135.426637 230.221219 136.320542 232.523702 117.57833 239.880813"></polygon>
    <polygon id="Path" fill="#323233" fill-rule="nonzero" points="71.43386 213.957562 77.2767494 218.302483 84.3846501 230.299774 82.8595937 232.244695 66.9778781 219.868172"></polygon>
    <polygon id="Path" fill="#EBECF0" fill-rule="nonzero" opacity="0.400000006" points="167.268623 124.158014 115.657788 136.171558 115.657788 19.1783296 167.268623 5.62076749"></polygon>
    <path d="M218.608578,192.365688 C218.936343,190.84605 234.801806,179.523251 238.558916,162.005418 C244.680813,133.451919 231.80316,115.730926 236.175169,95.3336343 C236.98781,91.4790068 239.967494,79.4085779 247.140406,75.8167043" id="Path" stroke="#FF5F42" stroke-width="2.43792325" fill="#FFFFFF" stroke-linecap="round"></path>
    <path d="M199.942212,111.608126 C205.693002,111.608126 216.937246,115.15395 216.937246,134.091196 C216.937246,136.911061 217.49526,142.710609 218.291648,144.834312 C221.314673,152.884876 228.417156,158.03702 228.403631,163.492551 C228.403631,182.749436 224.928217,190.201354 216.140858,190.967946 C212.351242,191.29842 209.18465,187.422122 206.074944,179.975621 C204.799097,176.92009 205.776975,173.956659 203.520542,167.710158 C202.856885,165.841084 200.188713,163.048307 196.962528,159.451016 C199.141384,158.3268 200.423083,155.995686 200.205058,153.55361 C199.987032,151.111534 198.312656,149.044335 195.96911,148.323874 C193.625564,147.603412 191.079087,148.373021 189.526862,150.27088 C185.620767,144.631151 182.435214,137.956659 182.435214,130.447856 C182.435214,121.958465 188.749436,111.608126 199.942212,111.608126 Z M236.874041,165.632506 C235.124153,166.642889 228.132731,159.516027 232.041535,157.259594 C235.693002,155.152144 238.623928,164.622122 236.874041,165.632506 Z M239.076298,152.586907 C237.738149,154.09842 228.847856,149.550339 231.841084,146.175169 C234.636569,143.019413 240.414447,151.075395 239.076298,152.586907 Z M248.432506,139.232506 C250.363883,142.978781 240.763883,145.462754 239.840181,143.6614 C238.916479,141.860045 246.36298,135.223476 248.432506,139.232506 Z M239.452822,139.590068 C238.114673,141.10158 229.224379,136.556208 232.217607,133.17833 C235.013093,130.022573 240.790971,138.078555 239.452822,139.590068 Z M247.224379,125.417607 C249.155756,129.163883 239.555756,131.647856 238.632054,129.846501 C237.708352,128.045147 245.157562,121.411287 247.224379,125.417607 Z M238.548081,127.297517 C237.516027,129.031151 227.93228,126.230248 230.240181,122.35395 C232.407223,118.73228 239.580135,125.563883 238.548081,127.297517 Z M246.804515,112.970655 C248.928217,117.090745 237.927765,120.043341 236.909255,118.071332 C235.890745,116.099323 244.537246,108.560722 246.804515,112.970655 Z M234.774718,113.626185 C233.477201,115.172912 224.46772,110.871332 227.368849,107.414898 C230.077652,104.186005 236.072235,112.079458 234.774718,113.626185 Z M246.162528,99.5349887 C248.28623,103.655079 237.28307,106.607675 236.267269,104.635666 C235.251467,102.663657 243.876298,95.1250564 246.162528,99.5349887 Z M234.70158,98.4243792 C233.268623,99.8465011 224.692551,94.7431151 227.897065,91.5575621 C230.876749,88.5914221 236.134537,97.0022573 234.70158,98.4243792 Z M247.936795,88.0875847 C249.291196,92.524605 237.927765,93.4428894 237.28307,91.3191874 C236.638375,89.1954853 246.495711,83.3417607 247.936795,88.0875847 Z M244.298871,78.1679458 C242.865914,79.5900677 234.281716,74.4758465 237.494357,71.3011287 C240.474041,68.3214447 245.731828,76.7458239 244.298871,78.1679458 Z" id="Combined-Shape" fill="#FF5F42" fill-rule="nonzero"></path>
    <path d="M232.667269,227.016706 L208.713318,227.016706 C207.595223,227.017368 206.602684,226.30108 206.251016,225.239729 L194.345824,189.125959 C194.084928,188.336566 194.218903,187.46991 194.705987,186.796146 C195.193071,186.122382 195.974028,185.723702 196.805418,185.723702 L244.688939,185.723702 C245.52186,185.723702 246.304009,186.124091 246.791226,186.799648 C247.278442,187.475205 247.411377,188.343725 247.148533,189.134086 L235.126862,225.245147 C234.774341,226.303934 233.783199,227.017818 232.667269,227.016706 L232.667269,227.016706 Z" id="Path" fill="#D7D8DB" fill-rule="nonzero"></path>
</svg>
