<?xml version="1.0" encoding="UTF-8"?>
<svg width="185px" height="130px" viewBox="0 0 185 130" version="1.1" xmlns="http://www.w3.org/2000/svg" xmlns:xlink="http://www.w3.org/1999/xlink">
    <!-- Generator: Sketch 63.1 (92452) - https://sketch.com -->
    <title>dinumLogoDesktop</title>
    <desc>Created with Sketch.</desc>
    <g id="Marque" stroke="none" stroke-width="1" fill="none" fill-rule="evenodd">
        <g id="DinumWeb" transform="translate(-20.000000, -20.000000)" fill-rule="nonzero">
            <g id="DinumLogoDesktop" transform="translate(20.000000, 20.000000)">
                <g id="LEF" transform="translate(0.000000, 93.381221)" fill="#000000">
                    <path d="M49.5253976,31.0231557 C49.9640284,31.0231557 50.3428458,31.3620976 50.1434682,32.1396703 L48.1297544,32.6779898 C48.4487586,31.7209773 49.0468914,31.0231557 49.5253976,31.0231557 M50.6419122,34.2929484 L50.243157,34.2929484 C49.744713,34.8910813 49.1864557,35.3695875 48.6481362,35.3695875 C48.0898789,35.3695875 47.8107502,35.0306456 47.8107502,34.2929484 C47.8107502,33.993882 47.8506257,33.6748779 47.910439,33.3957492 L51.1802318,32.3191101 C51.8182401,30.8038403 51.0406675,30.1458942 50.1434682,30.1458942 C48.5883229,30.1458942 46.8337999,32.8574297 46.8337999,34.9907701 C46.8337999,36.0075959 47.3123062,36.5658532 48.0699411,36.5658532 C48.9671403,36.5658532 49.8842773,35.7085295 50.6419122,34.2929484 M50.1235305,29.4281348 L51.9777422,27.7334252 L51.9777422,27.494172 L50.741601,27.494172 L49.6450242,29.4480726 L50.1235305,29.4480726 L50.1235305,29.4281348 Z M43.165252,31.0630312 L44.241891,31.0630312 L42.5272436,35.7683427 C42.3677415,36.167098 42.5870569,36.5658532 43.0057499,36.5658532 C44.2219533,36.5658532 45.6774098,35.5290896 46.2356671,34.0536953 L45.9366007,34.0536953 C45.49797,34.6717659 44.5409575,35.3496498 43.8231981,35.4892141 L45.3982812,31.0630312 L47.0132398,31.0630312 L47.2126174,30.3851473 L45.6375343,30.3851473 L46.2356671,28.6904377 L45.6175965,28.6904377 L44.5010819,30.3851473 L43.165252,30.5645872 L43.165252,31.0630312 L43.165252,31.0630312 Z M42.0487374,30.8237781 C42.1883017,30.3851473 41.8892353,30.1458942 41.6699199,30.1458942 C40.7328452,30.1458942 39.5963928,31.0032179 39.1577621,32.1795458 L39.4568285,32.1795458 C39.7558949,31.7409151 40.2742767,31.2624088 40.7727207,31.1826578 L38.9583845,35.8879693 C38.7988824,36.3266 39.1178865,36.5658532 39.3571397,36.5658532 C40.2543389,36.5658532 41.3110402,35.7085295 41.749671,34.5322016 L41.4506045,34.5322016 C41.1515381,34.9708323 40.6331564,35.4493386 40.1347123,35.5290896 L42.0487374,30.8237781 Z M42.2281772,28.9496286 C42.6269324,28.9496286 42.9658744,28.6106866 42.9658744,28.2119314 C42.9658744,27.8131762 42.6269324,27.4742343 42.2281772,27.4742343 C41.8094842,27.4742343 41.4904801,27.8131762 41.4904801,28.2119314 C41.4904801,28.6306244 41.8094842,28.9496286 42.2281772,28.9496286 M33.4755003,31.4617864 C33.7546289,31.4617864 33.914131,31.9004172 33.4755003,32.8773674 L32.1994836,35.7085295 C31.9602304,36.246849 32.2194213,36.5857909 32.7378031,36.5857909 C33.0568073,36.5857909 33.1963716,36.5060399 33.3359359,36.167098 L34.5920149,32.8574297 C35.1702099,32.1396703 36.246849,31.3820354 36.7253553,31.3820354 C37.0642972,31.3820354 37.0244217,31.661164 36.8051063,32.0997948 L34.8711435,35.7882805 C34.6917037,36.1471602 34.9309568,36.5857909 35.3496498,36.5857909 C36.2867245,36.5857909 37.4231769,35.7284672 37.8618076,34.5521393 L37.5228657,34.5521393 C37.2237993,34.9907701 36.7054175,35.4692763 36.2069735,35.5490274 L37.8618076,32.1994836 C38.081123,31.7807906 38.1808118,31.3820354 38.1808118,31.0630312 C38.1808118,30.5247117 37.8817454,30.165832 37.3035503,30.165832 C36.4861021,30.165832 35.7882805,31.082969 34.7913925,32.2194213 L34.7913925,31.3421599 C34.7913925,30.7240893 34.5920149,30.165832 34.0337576,30.165832 C33.3758115,30.165832 32.7776786,31.2025955 32.2991724,32.1994836 L32.5982388,32.1994836 C32.9371807,31.7209773 33.2362471,31.4617864 33.4755003,31.4617864 M32.1795458,31.581413 C32.3988612,30.8038403 32.2792346,30.1458942 31.7010396,30.1458942 C30.9633424,30.1458942 30.7240893,30.6443382 30.0063299,32.1994836 L30.0063299,31.3222221 C30.0063299,30.7041515 29.8069523,30.1458942 29.248695,30.1458942 C28.5907489,30.1458942 27.9926161,31.1826578 27.5141098,32.1795458 L27.8131762,32.1795458 C28.1321804,31.7209773 28.4312468,31.4418487 28.6704999,31.4418487 C28.9496286,31.4418487 29.1091307,31.8804794 28.6704999,32.8574297 L27.3944832,35.6885917 C27.1552301,36.2269112 27.414421,36.5658532 27.9328028,36.5658532 C28.2518069,36.5658532 28.3913713,36.4861021 28.5309356,36.1471602 L29.747139,32.8374919 C30.1060187,32.3988612 30.4250229,32.0200437 30.8237781,31.6013507 L32.1795458,31.6013507 L32.1795458,31.581413 Z M25.2212673,31.0231557 C25.6598981,31.0231557 26.0387155,31.3620976 25.8393379,32.1396703 L23.8256241,32.6779898 C24.164566,31.7209773 24.7427611,31.0231557 25.2212673,31.0231557 M26.3377819,34.2929484 L25.9390267,34.2929484 C25.4405827,34.8910813 24.8823254,35.3695875 24.3440058,35.3695875 C23.7857485,35.3695875 23.5066199,35.0306456 23.5066199,34.2929484 C23.5066199,33.993882 23.5464954,33.6748779 23.6063087,33.3957492 L26.8761015,32.3191101 C27.5141098,30.8038403 26.7564749,30.1458942 25.8393379,30.1458942 C24.2841926,30.1458942 22.5296696,32.8574297 22.5296696,34.9907701 C22.5296696,36.0075959 23.0081759,36.5658532 23.7658108,36.5658532 C24.66301,36.5658532 25.580147,35.7085295 26.3377819,34.2929484 M18.8611216,31.0630312 L19.9377607,31.0630312 L18.2231133,35.7683427 C18.0636112,36.167098 18.2829266,36.5658532 18.7016196,36.5658532 C19.917823,36.5658532 21.3932173,35.5290896 21.9315368,34.0536953 L21.6324704,34.0536953 C21.1938397,34.6717659 20.2368271,35.3496498 19.5190677,35.4892141 L21.0941508,31.0630312 L22.7091095,31.0630312 L22.9084871,30.3851473 L21.333404,30.3851473 L21.9315368,28.6904377 L21.3134662,28.6904377 L20.1969516,30.3851473 L18.8611216,30.5645872 L18.8611216,31.0630312 L18.8611216,31.0630312 Z M13.1389843,34.7315792 C13.1389843,33.2761226 14.7539429,31.3022843 15.6710799,31.3022843 C15.8704575,31.3022843 16.0698351,31.3222221 16.2293372,31.3820354 L15.2922625,33.8941932 C14.7539429,34.5521393 13.916557,35.3496498 13.5178018,35.3496498 C13.2785486,35.3496498 13.1389843,35.1702099 13.1389843,34.7315792 M18.1034867,29.8667656 L17.6050427,29.82689 L17.0467854,30.3851473 L16.9470966,30.3851473 C14.5745031,30.3851473 12.0224697,33.3359359 12.0224697,35.6686539 C12.0224697,36.2069735 12.3215361,36.5658532 12.8997312,36.5658532 C13.5975528,36.5658532 14.2754367,35.5689651 15.0530093,34.5122638 L15.0131338,34.8910813 C14.913445,35.9677203 15.252387,36.5658532 15.8106443,36.5658532 C16.4685904,36.5658532 17.0667232,35.5290896 17.5252917,34.5322016 L17.2262253,34.5322016 C16.9072211,34.9907701 16.6081547,35.2698987 16.3689016,35.2698987 C16.1296484,35.2698987 15.9502086,34.8113302 16.3689016,33.8543177 L18.1034867,29.8667656 Z M13.0193578,31.581413 C13.2386731,30.8038403 13.1190466,30.1458942 12.5408515,30.1458942 C11.8031543,30.1458942 11.5639012,30.6443382 10.8461418,32.1994836 L10.8461418,31.3222221 C10.8461418,30.7041515 10.6467642,30.1458942 10.0685692,30.1458942 C9.41062306,30.1458942 8.81249024,31.1826578 8.35392174,32.1795458 L8.65298815,32.1795458 C8.97199233,31.7209773 9.27105874,31.4418487 9.51031187,31.4418487 C9.78944052,31.4418487 9.9489426,31.8804794 9.51031187,32.8574297 L8.21435742,35.7085295 C7.97510429,36.246849 8.23429518,36.5857909 8.75267696,36.5857909 C9.07168113,36.5857909 9.21124545,36.5060399 9.35080978,36.167098 L10.6068887,32.8374919 C10.9657684,32.3988612 11.2847726,32.0200437 11.6835278,31.6013507 L13.0193578,31.6013507 L13.0193578,31.581413 Z M4.66543601,36.3465378 L4.78506257,35.9876581 C3.20997948,35.6885917 3.01060187,35.6885917 3.64861021,33.9739443 L4.24674303,32.3589857 L5.50282196,32.3589857 C6.28039463,32.3589857 6.30033239,32.6979276 6.18070582,33.5552513 L6.63927432,33.5552513 L7.67603788,30.7041515 L7.21746938,30.7041515 C6.81871417,31.3820354 6.51964776,31.9004172 5.66232405,31.9004172 L4.40624512,31.9004172 L5.26356883,29.5676992 C5.56263524,28.7303132 5.70219957,28.5708111 6.77883865,28.5708111 L7.0579673,28.5708111 C8.15454414,28.5708111 8.29410846,28.8698775 8.29410846,30.0262677 L8.7327392,30.0262677 L9.09161889,28.0923049 L3.01060187,28.0923049 L2.89097531,28.4511846 C4.14705423,28.7103754 4.2666808,28.830002 3.68848573,30.4648984 L2.39253129,33.993882 C1.79439847,35.6088407 1.55514534,35.748405 0.0996888036,36.0075959 L2.83332621e-14,36.3664756 L4.66543601,36.3664756 L4.66543601,36.3465378 Z" id="Shape"></path>
                    <path d="M34.831268,17.2860385 C35.2698987,17.2860385 35.6487162,17.6249805 35.4493386,18.4025531 L33.4356247,18.9408727 C33.7546289,17.9838602 34.3527617,17.2860385 34.831268,17.2860385 M35.9477826,20.5558313 L35.5490274,20.5558313 C35.0505834,21.1539641 34.4923261,21.6324704 33.9540065,21.6324704 C33.3957492,21.6324704 33.1166206,21.2935285 33.1166206,20.5558313 C33.1166206,20.2567649 33.1564961,19.9377607 33.2163094,19.6586321 L36.4861021,18.581993 C37.1241105,17.0667232 36.3465378,16.4087771 35.4493386,16.4087771 C33.8941932,16.4087771 32.1396703,19.1203125 32.1396703,21.2536529 C32.1396703,22.2704787 32.6181765,22.828736 33.3758115,22.828736 C34.2730107,22.8486738 35.1901477,21.9714123 35.9477826,20.5558313 M35.4294008,15.6910177 L37.2836126,13.996308 L37.2836126,13.7570549 L36.0474714,13.7570549 L34.9508946,15.7109555 L35.4294008,15.7109555 L35.4294008,15.6910177 Z M28.4711223,17.3259141 L29.5477614,17.3259141 L27.833114,22.0312256 C27.6736119,22.4299808 27.8929273,22.828736 28.3116202,22.828736 C29.5278236,22.828736 30.9832802,21.7919725 31.5415375,20.3165782 L31.2424711,20.3165782 C30.8038403,20.9346488 29.8468278,21.6125326 29.1290684,21.752097 L30.7041515,17.3259141 L32.3191101,17.3259141 L32.5184877,16.6480302 L30.9434046,16.6480302 L31.5415375,14.9533205 L30.9234669,14.9533205 L29.8069523,16.6480302 L28.4711223,16.8474078 L28.4711223,17.3259141 Z M27.3546077,17.1065987 C27.494172,16.667968 27.1951056,16.4287148 26.9558525,16.4287148 C26.0187777,16.4287148 24.8823254,17.2860385 24.4436946,18.4623664 L24.7427611,18.4623664 C25.0418275,18.0237357 25.5602092,17.5452294 26.0586533,17.4654784 L24.244317,22.1707899 C24.084815,22.6094207 24.4038191,22.8486738 24.6430723,22.8486738 C25.5402715,22.8486738 26.5969728,21.9913501 27.0356035,20.8150222 L26.7365371,20.8150222 C26.4374707,21.2536529 25.9190889,21.7321592 25.4206449,21.8119102 L27.3546077,17.1065987 Z M27.5340476,15.2324492 C27.9328028,15.2324492 28.2717447,14.8935073 28.2717447,14.494752 C28.2717447,14.0959968 27.9328028,13.7570549 27.5340476,13.7570549 C27.1153546,13.7570549 26.7963504,14.0959968 26.7963504,14.494752 C26.7963504,14.8935073 27.1153546,15.2324492 27.5340476,15.2324492 M21.752097,21.8119102 L24.7427611,13.8766815 L24.6430723,13.7371171 L22.5695451,13.9763703 L22.5695451,14.2156234 L22.9683004,14.5146898 C23.32718,14.7938185 23.2075535,15.0530093 22.8885493,15.9502086 L20.6156446,22.0112878 C20.416267,22.3701675 20.6754579,22.8087983 21.0941508,22.8087983 C22.0312256,22.8087983 23.0480514,21.9514746 23.4866821,20.7751467 L23.1876157,20.7751467 C22.8686116,21.2337152 22.2306032,21.7122214 21.752097,21.8119102 M15.6511422,20.994462 C15.6511422,19.5390055 17.2661008,17.5651672 18.1832378,17.5651672 C18.3826154,17.5651672 18.5620552,17.585105 18.7414951,17.6449182 L17.7844826,20.1570761 C17.246163,20.8150222 16.4087771,21.6125326 16.0100219,21.6125326 C15.7907065,21.6324704 15.6511422,21.4330928 15.6511422,20.994462 M20.6156446,16.1495862 L20.1172006,16.1097107 L19.5589433,16.667968 L19.4592545,16.667968 C17.0866609,16.667968 14.5346276,19.6187566 14.5346276,21.9514746 C14.5346276,22.4897941 14.833694,22.8486738 15.411889,22.8486738 C16.1097107,22.8486738 16.7875945,21.8517858 17.5651672,20.7950844 L17.5252917,21.1739019 C17.4256029,22.250541 17.7645448,22.8486738 18.3228021,22.8486738 C18.9807482,22.8486738 19.578881,21.8119102 20.0374495,20.8150222 L19.7383831,20.8150222 C19.4193789,21.2735907 19.1203125,21.5527193 18.8810594,21.5527193 C18.6418063,21.5527193 18.4623664,21.0941508 18.8810594,20.1570761 L20.6156446,16.1495862 Z M9.07168113,23.9851262 C9.07168113,23.3670556 9.66981395,22.9683004 10.5271377,22.6293584 C10.8062663,22.7689227 11.244897,22.9284248 11.8031543,23.1078647 C12.7003536,23.4069311 13.0392955,23.5265577 13.0392955,23.7857485 C13.0392955,24.3639436 12.2218473,24.8025743 10.7265153,24.8025743 C9.61000067,24.8225121 9.07168113,24.583259 9.07168113,23.9851262 M11.5240257,20.1770139 C11.1252705,20.1770139 10.9857062,19.8380719 10.9857062,19.4592545 C10.9857062,18.2829266 11.5439635,16.8673456 12.4411627,16.8673456 C12.8399179,16.8673456 12.9794822,17.2062875 12.9794822,17.585105 C12.9794822,18.7414951 12.4012872,20.1770139 11.5240257,20.1770139 M14.0760591,23.4069311 C14.0760591,22.6492962 13.3981752,22.3701675 12.3015984,22.0511634 C11.3645236,21.7720347 10.9258929,21.6922837 10.9258929,21.3732795 C10.9258929,21.1340264 11.1252705,20.83496 11.5240257,20.6156446 C13.079171,20.5358935 14.0561213,19.1402503 14.0561213,17.9041091 C14.0561213,17.6847938 14.0162458,17.4854162 13.9564325,17.3059763 L15.0131338,17.3059763 L15.2125114,16.6280924 L13.418113,16.6280924 C13.1788598,16.4685904 12.8797934,16.3888393 12.5408515,16.3888393 C10.9059551,16.3888393 9.8492538,17.8243581 9.8492538,19.1003748 C9.8492538,19.917823 10.3277601,20.4760803 11.085395,20.5757691 C10.3277601,20.9346488 9.88912932,21.3134662 9.88912932,21.7919725 C9.88912932,22.0711011 9.98881812,22.2704787 10.2280713,22.4499186 C8.47354831,22.9683004 7.75578892,23.6262465 7.75578892,24.3838814 C7.75578892,25.2013296 8.832428,25.5402715 10.1084447,25.5402715 C12.2617228,25.5602092 14.0760591,24.3838814 14.0760591,23.4069311 M5.9414527,18.6218685 C6.71902536,18.6218685 6.73896312,18.9608104 6.61933656,19.8181342 L7.07790506,19.8181342 L8.11466861,16.9670344 L7.65610012,16.9670344 C7.2573449,17.6449182 6.95827849,18.1633 6.10095478,18.1633 L4.3663696,18.1633 L5.22369331,15.830582 C5.52275972,14.9931961 5.68226181,14.833694 6.73896312,14.833694 L7.49659803,14.833694 C8.59317487,14.833694 8.7327392,15.1327604 8.7327392,16.2891505 L9.17136993,16.2891505 L9.53024963,14.3551877 L3.01060187,14.3551877 L2.89097531,14.7140674 C4.14705423,14.9732583 4.2666808,15.0928849 3.68848573,16.7277812 L2.39253129,20.2567649 C1.79439847,21.8717235 1.55514534,22.0112878 0.0996888036,22.2704787 L0,22.6293584 L7.2573449,22.6293584 L8.55329935,20.5757691 L8.05485533,20.5757691 C7.21746938,21.413155 6.36014567,22.1508522 4.74518705,22.1508522 C2.81122426,22.1508522 2.99066411,22.0511634 3.62867245,20.2567649 L4.22680527,18.6418063 L5.9414527,18.6418063 L5.9414527,18.6218685 Z M6.87852745,13.7570549 L8.7327392,12.4012872 L8.7327392,12.162034 L7.49659803,12.162034 L6.40002119,13.7570549 L6.87852745,13.7570549 Z" id="Shape"></path>
                    <path d="M34.5920149,3.56885917 C35.0306456,3.56885917 35.409463,3.9078011 35.2100854,4.68537377 L33.1963716,5.22369331 C33.5153758,4.24674303 34.1135086,3.56885917 34.5920149,3.56885917 M35.7085295,6.83865193 L35.3097742,6.83865193 C34.8113302,7.43678475 34.2530729,7.91529101 33.7147534,7.91529101 C33.1564961,7.91529101 32.8773674,7.57634908 32.8773674,6.83865193 C32.8773674,6.53958552 32.917243,6.22058135 32.9770562,5.9414527 L36.246849,4.86481362 C36.8848573,3.3495438 36.1072847,2.6915977 35.2100854,2.6915977 C33.6549401,2.6915977 31.9004172,5.40313316 31.9004172,7.53647355 C31.9004172,8.55329935 32.3789234,9.11155665 33.1365583,9.11155665 C34.0337576,9.11155665 34.9508946,8.25423294 35.7085295,6.83865193 M35.1901477,1.97383831 L37.0443594,0.27912865 L37.0443594,0.0398755214 L35.8082183,0.0398755214 L34.7116414,1.99377607 L35.1901477,1.99377607 L35.1901477,1.97383831 Z M28.2318692,3.58879693 L29.328446,3.58879693 L27.6137986,8.29410846 C27.4542965,8.69286368 27.6736119,9.09161889 28.0923049,9.09161889 C29.3085083,9.09161889 30.7839026,8.05485533 31.3222221,6.57946104 L31.0231557,6.57946104 C30.584525,7.19753162 29.6275124,7.87541549 28.9097531,8.01497981 L30.4848361,3.58879693 L32.0997948,3.58879693 L32.2991724,2.91091307 L30.7240893,2.91091307 L31.3222221,1.2162034 L30.7041515,1.2162034 L29.5876369,2.91091307 L28.2518069,3.09035291 L28.2518069,3.58879693 L28.2318692,3.58879693 Z M27.6736119,4.12711647 C27.8929273,3.3495438 27.7733007,2.6915977 27.1951056,2.6915977 C26.4574085,2.6915977 26.2181554,3.19004172 25.500396,4.74518705 L25.500396,3.86792558 C25.500396,3.249855 25.3010184,2.6915977 24.7427611,2.6915977 C24.084815,2.6915977 23.4866821,3.72836126 23.0081759,4.72524929 L23.3072423,4.72524929 C23.6262465,4.2666808 23.9253129,3.98755214 24.164566,3.98755214 C24.4436946,3.98755214 24.6031967,4.42618288 24.164566,5.40313316 L22.8885493,8.23429518 C22.6492962,8.77261472 22.9084871,9.11155665 23.4268689,9.11155665 C23.745873,9.11155665 23.8854373,9.03180561 24.0250017,8.69286368 L25.2810806,5.3831954 C25.6399603,4.94456466 25.9589645,4.56574721 26.3577197,4.14705423 L27.6736119,4.14705423 L27.6736119,4.12711647 Z M20.7153334,3.56885917 C21.1539641,3.56885917 21.5327816,3.9078011 21.333404,4.68537377 L19.3196901,5.22369331 C19.6386943,4.24674303 20.2368271,3.56885917 20.7153334,3.56885917 M21.831848,6.83865193 L21.4330928,6.83865193 C20.9346488,7.43678475 20.3763915,7.91529101 19.8380719,7.91529101 C19.2798146,7.91529101 19.000686,7.57634908 19.000686,6.83865193 C19.000686,6.53958552 19.0405615,6.22058135 19.1003748,5.9414527 L22.3701675,4.86481362 C23.0081759,3.3495438 22.250541,2.6915977 21.333404,2.6915977 C19.7782586,2.6915977 18.0237357,5.40313316 18.0237357,7.53647355 C18.0237357,8.55329935 18.502242,9.11155665 19.2598769,9.11155665 C20.1570761,9.11155665 21.0742131,8.25423294 21.831848,6.83865193 M14.2156234,8.15454414 C13.8966192,8.15454414 13.4380507,7.85547773 13.4380507,7.59628684 C13.4380507,7.51653579 13.5776151,7.13771834 13.7570549,6.67914984 L14.2754367,5.28350659 C14.833694,4.60562273 15.7109555,3.86792558 16.2093995,3.86792558 C16.5084659,3.86792558 16.7277812,4.06730319 16.7277812,4.48599616 C16.7078435,5.80188837 15.5115778,8.15454414 14.2156234,8.15454414 M17.8442958,3.98755214 C17.8442958,3.03053963 17.6050427,2.67165994 16.9271589,2.67165994 C16.0897729,2.67165994 15.3122002,3.56885917 14.5146898,4.64549825 L16.1894617,0.139564325 L16.0897729,2.26666097e-14 L14.0162458,0.239253129 L14.0162458,0.478506257 L14.415001,0.777572668 C14.7738807,1.05670132 14.6542541,1.33582997 14.33525,2.21309144 L12.5209137,6.97821625 C12.3614116,7.37697147 12.1819718,7.85547773 12.1819718,7.97510429 C12.1819718,8.53336159 12.9396067,9.07168113 13.6374283,9.07168113 C15.2125114,9.11155665 17.8442958,6.22058135 17.8442958,3.98755214 M11.7234033,3.36948156 C11.8430299,2.93085083 11.5639012,2.6915977 11.3246481,2.6915977 C10.3875733,2.6915977 9.25112098,3.54892141 8.81249024,4.72524929 L9.11155665,4.72524929 C9.41062306,4.28661856 9.92900484,3.8081123 10.4274489,3.72836126 L8.61311263,8.43367279 C8.45361055,8.87230352 8.77261472,9.11155665 9.01186785,9.11155665 C9.90906708,9.11155665 10.9657684,8.25423294 11.4043991,7.07790506 L11.1053327,7.07790506 C10.8062663,7.51653579 10.2878845,7.99504205 9.78944052,8.07479309 L11.7234033,3.36948156 Z M11.9227809,1.49533205 C12.3215361,1.49533205 12.6604781,1.15639012 12.6604781,0.757634908 C12.6604781,0.358879693 12.3215361,0.0199377607 11.9227809,0.0199377607 C11.5040879,0.0199377607 11.1850838,0.358879693 11.1850838,0.757634908 C11.1850838,1.15639012 11.5040879,1.49533205 11.9227809,1.49533205 M7.31715819,0.598132822 L3.01060187,0.598132822 L2.89097531,0.957012515 C4.14705423,1.2162034 4.2666808,1.33582997 3.68848573,2.97072635 L2.39253129,6.49971 C1.79439847,8.11466861 1.55514534,8.25423294 0.0996888036,8.51342383 L1.69999573e-14,8.87230352 L6.53958552,8.87230352 L7.95516653,6.34020791 L7.45672251,6.34020791 C6.63927432,7.23740714 5.70219957,8.3738595 4.24674303,8.3738595 C3.15016619,8.3738595 2.99066411,8.1744819 3.60873469,6.47977224 L4.90468914,2.95078859 C5.50282196,1.33582997 5.74207509,1.19626564 7.19753162,0.937074754 L7.31715819,0.598132822 Z" id="Shape"></path>
                </g>
                <g id="DINUM" transform="translate(0.000000, 30.015393)" fill="#000000">
                    <path d="M4.94434308,12.9796292 C5.93920484,12.9796292 6.8501626,12.8113747 7.67721635,12.4748658 C8.5042701,12.1383569 9.20846442,11.6816663 9.7897993,11.1047939 C10.3711342,10.5279215 10.8236165,9.85790819 11.1472462,9.09475407 C11.4708759,8.33159994 11.6326908,7.52337766 11.6326908,6.67008722 C11.6326908,5.81679679 11.4708759,5.00857451 11.1472462,4.24542038 C10.8236165,3.48226626 10.3711342,2.81225299 9.7897993,2.23538058 C9.20846442,1.65850817 8.5042701,1.20181752 7.67721635,0.865308613 C6.8501626,0.528799708 5.93920484,0.360545255 4.94434308,0.360545255 L0,0.360545255 L0,12.9796292 L4.94434308,12.9796292 Z M2.55307897,10.6541123 L2.55307897,2.68606215 L4.98030194,2.68606215 C5.56762997,2.68606215 6.10701285,2.78821664 6.59845058,2.99252562 C7.08988832,3.1968346 7.51240491,3.47625717 7.86600036,3.83079334 C8.2195958,4.18532951 8.49827696,4.60596564 8.70204382,5.09270173 C8.90581069,5.57943783 9.00769412,6.10523299 9.00769412,6.67008722 C9.00769412,7.22292328 8.90581069,7.74270936 8.70204382,8.22944545 C8.49827696,8.71618155 8.2195958,9.13982222 7.86600036,9.50036748 C7.51240491,9.86091273 7.08988832,10.1433399 6.59845058,10.3476488 C6.10701285,10.5519578 5.56762997,10.6541123 4.98030194,10.6541123 L2.55307897,10.6541123 Z M16.652477,12.9796292 L16.652477,0.360545255 L14.099398,0.360545255 L14.099398,12.9796292 L16.652477,12.9796292 Z M22.7330495,12.9796292 L22.7330495,7.87791383 L24.0455478,7.87791383 L27.3897217,12.9796292 L30.4462247,12.9796292 L26.4907502,7.39117773 C27.1260234,7.09072336 27.6204577,6.66107359 27.9740532,6.10222845 C28.3276486,5.5433833 28.5044463,4.88538821 28.5044463,4.12824317 C28.5044463,2.96248018 28.1029057,2.04308978 27.2998246,1.37007197 C26.4967434,0.69705416 25.4059913,0.360545255 24.0275684,0.360545255 L20.1799705,0.360545255 L20.1799705,12.9796292 L22.7330495,12.9796292 Z M22.7330495,5.69661503 L22.7330495,2.54184405 L24.1714038,2.54184405 C24.7107867,2.54184405 25.1303068,2.68005306 25.4299639,2.95647109 C25.7296211,3.23288912 25.8794496,3.61146164 25.8794496,4.09218865 C25.8794496,4.60897018 25.7296211,5.00556996 25.4299639,5.28198799 C25.1303068,5.55840602 24.7107867,5.69661503 24.1714038,5.69661503 L22.7330495,5.69661503 Z M39.3675471,12.9796292 L39.3675471,10.7983304 L34.5850188,10.7983304 L34.5850188,7.64355941 L38.6483699,7.64355941 L38.6483699,5.46226062 L34.5850188,5.46226062 L34.5850188,2.54184405 L39.3675471,2.54184405 L39.3675471,0.360545255 L32.0319399,0.360545255 L32.0319399,12.9796292 L39.3675471,12.9796292 Z M47.6595894,13.3401744 C48.7982866,13.3401744 49.8231141,13.10582 50.7340718,12.6371112 C51.6450296,12.1684024 52.3881793,11.5434573 52.9635211,10.7622759 L50.949825,9.21193127 C50.5902364,9.72871281 50.1317609,10.1463444 49.5743986,10.464826 C49.0170363,10.7833077 48.3787666,10.9425485 47.6595894,10.9425485 C47.0722614,10.9425485 46.5268853,10.8313804 46.0234613,10.6090441 C45.5200373,10.3867079 45.0915276,10.0862535 44.7379321,9.707681 C44.3843367,9.32910848 44.1056555,8.87842691 43.9018886,8.35563629 C43.6981218,7.83284567 43.5962383,7.27099598 43.5962383,6.67008722 C43.5962383,6.06917847 43.6981218,5.50732878 43.9018886,4.98453816 C44.1056555,4.46174754 44.3843367,4.01106597 44.7379321,3.63249345 C45.0915276,3.25392093 45.5200373,2.95346655 46.0234613,2.73113031 C46.5268853,2.50879407 47.0722614,2.39762595 47.6595894,2.39762595 C48.3787666,2.39762595 49.0170363,2.55686677 49.5743986,2.87534841 C50.1317609,3.19383005 50.5902364,3.61146164 50.949825,4.12824317 L52.9635211,2.55987131 C52.3881793,1.80272628 51.6450296,1.1867948 50.7340718,0.712076879 C49.8231141,0.23735896 48.7982866,0 47.6595894,0 C46.6767139,0 45.7717493,0.180272628 44.9446955,0.540817883 C44.1176418,0.901363138 43.4104509,1.38209015 42.8231229,1.9829989 C42.2357949,2.58390766 41.780316,3.28997546 41.4566862,4.10120228 C41.1330565,4.9124291 40.9712417,5.76872409 40.9712417,6.67008722 C40.9712417,7.57145036 41.1330565,8.42774534 41.4566862,9.23897217 C41.780316,10.050199 42.2357949,10.7562668 42.8231229,11.3571755 C43.4104509,11.9580843 44.1176418,12.4388113 44.9446955,12.7993566 C45.7717493,13.1599018 46.6767139,13.3401744 47.6595894,13.3401744 Z M60.320633,12.9796292 L60.320633,2.68606215 L64.2041898,2.68606215 L64.2041898,0.360545255 L53.8839973,0.360545255 L53.8839973,2.68606215 L57.7675541,2.68606215 L57.7675541,12.9796292 L60.320633,12.9796292 Z M69.0082228,12.9796292 L69.0082228,0.360545255 L66.4551438,0.360545255 L66.4551438,12.9796292 L69.0082228,12.9796292 Z M78.1452983,13.3401744 C79.1281738,13.3401744 80.0301418,13.1599018 80.8512024,12.7993566 C81.6722631,12.4388113 82.3764574,11.9580843 82.9637854,11.3571755 C83.5511134,10.7562668 84.0065923,10.050199 84.330222,9.23897217 C84.6538518,8.42774534 84.8156666,7.57145036 84.8156666,6.67008722 C84.8156666,5.76872409 84.6538518,4.9124291 84.330222,4.10120228 C84.0065923,3.28997546 83.5511134,2.58390766 82.9637854,1.9829989 C82.3764574,1.38209015 81.6722631,0.901363138 80.8512024,0.540817883 C80.0301418,0.180272628 79.1281738,0 78.1452983,0 C77.1624229,0 76.2574582,0.180272628 75.4304045,0.540817883 C74.6033507,0.901363138 73.8961598,1.38209015 73.3088318,1.9829989 C72.7215038,2.58390766 72.2660249,3.28997546 71.9423952,4.10120228 C71.6187655,4.9124291 71.4569506,5.76872409 71.4569506,6.67008722 C71.4569506,7.57145036 71.6187655,8.42774534 71.9423952,9.23897217 C72.2660249,10.050199 72.7215038,10.7562668 73.3088318,11.3571755 C73.8961598,11.9580843 74.6033507,12.4388113 75.4304045,12.7993566 C76.2574582,13.1599018 77.1624229,13.3401744 78.1452983,13.3401744 Z M78.1452983,10.9425485 C77.5579703,10.9425485 77.0125943,10.8313804 76.5091703,10.6090441 C76.0057462,10.3867079 75.5772365,10.0862535 75.223641,9.707681 C74.8700456,9.32910848 74.5913644,8.87842691 74.3875976,8.35563629 C74.1838307,7.83284567 74.0819473,7.27099598 74.0819473,6.67008722 C74.0819473,6.06917847 74.1838307,5.50732878 74.3875976,4.98453816 C74.5913644,4.46174754 74.8700456,4.01106597 75.223641,3.63249345 C75.5772365,3.25392093 76.0057462,2.95346655 76.5091703,2.73113031 C77.0125943,2.50879407 77.5579703,2.39762595 78.1452983,2.39762595 C78.7326264,2.39762595 79.2750058,2.50879407 79.7724367,2.73113031 C80.2698676,2.95346655 80.6953807,3.25392093 81.0489762,3.63249345 C81.4025716,4.01106597 81.6812528,4.46174754 81.8850196,4.98453816 C82.0887865,5.50732878 82.1906699,6.06917847 82.1906699,6.67008722 C82.1906699,7.27099598 82.0887865,7.83284567 81.8850196,8.35563629 C81.6812528,8.87842691 81.4025716,9.32910848 81.0489762,9.707681 C80.6953807,10.0862535 80.2698676,10.3867079 79.7724367,10.6090441 C79.2750058,10.8313804 78.7326264,10.9425485 78.1452983,10.9425485 Z M89.8174734,12.9796292 L89.8174734,3.91191602 L95.4450348,12.9796292 L98.7172909,12.9796292 L98.7172909,0.360545255 L96.1642119,0.360545255 L96.1642119,9.3922039 L90.5366505,0.360545255 L87.2643944,0.360545255 L87.2643944,12.9796292 L89.8174734,12.9796292 Z" id="DIRECTION"></path>
                    <path d="M2.55676627,32.9903243 L2.55676627,20.3864109 L0,20.3864109 L0,32.9903243 L2.55676627,32.9903243 Z M8.64612068,32.9903243 L8.64612068,23.9335122 L14.2818097,32.9903243 L17.5587918,32.9903243 L17.5587918,20.3864109 L15.0020256,20.3864109 L15.0020256,29.4072118 L9.36633653,20.3864109 L6.08935441,20.3864109 L6.08935441,32.9903243 L8.64612068,32.9903243 Z M26.2409233,32.9903243 L26.2409233,22.709132 L30.1300889,22.709132 L30.1300889,20.3864109 L19.7949914,20.3864109 L19.7949914,22.709132 L23.684157,22.709132 L23.684157,32.9903243 L26.2409233,32.9903243 Z M39.7304956,32.9903243 L39.7304956,30.8116478 L34.9410602,30.8116478 L34.9410602,27.6606695 L39.0102797,27.6606695 L39.0102797,25.481993 L34.9410602,25.481993 L34.9410602,22.5650873 L39.7304956,22.5650873 L39.7304956,20.3864109 L32.3842939,20.3864109 L32.3842939,32.9903243 L39.7304956,32.9903243 Z M45.2616827,32.9903243 L45.2616827,27.8947422 L46.5760766,27.8947422 L49.9250803,32.9903243 L52.9859977,32.9903243 L49.0248105,27.4085912 C49.6610012,27.108498 50.1561496,26.6793648 50.5102557,26.1211915 C50.8643618,25.5630182 51.0414149,24.9058141 51.0414149,24.1495793 C51.0414149,22.9852178 50.6392944,22.0669326 49.8350533,21.3947239 C49.0308123,20.7225152 47.9384849,20.3864109 46.5580712,20.3864109 L42.7049164,20.3864109 L42.7049164,32.9903243 L45.2616827,32.9903243 Z M45.2616827,25.7160657 L45.2616827,22.5650873 L46.7021144,22.5650873 C47.2422763,22.5650873 47.6624022,22.7031302 47.9624921,22.9792159 C48.2625821,23.2553016 48.412627,23.633419 48.412627,24.1135681 C48.412627,24.6297284 48.2625821,25.0258514 47.9624921,25.3019371 C47.6624022,25.5780228 47.2422763,25.7160657 46.7021144,25.7160657 L45.2616827,25.7160657 Z M57.1307693,32.9903243 L57.1307693,24.0235402 L59.9396111,28.6689826 L61.7401507,28.6689826 L64.5489926,24.0235402 L64.5489926,32.9903243 L67.1057588,32.9903243 L67.1057588,20.3864109 L63.8827929,20.3864109 L60.8398809,25.572021 L57.796969,20.3864109 L54.574003,20.3864109 L54.574003,32.9903243 L57.1307693,32.9903243 Z M73.1771078,32.9903243 L73.1771078,20.3864109 L70.6203416,20.3864109 L70.6203416,32.9903243 L73.1771078,32.9903243 Z M79.2664622,32.9903243 L79.2664622,23.9335122 L84.9021513,32.9903243 L88.1791334,32.9903243 L88.1791334,20.3864109 L85.6223671,20.3864109 L85.6223671,29.4072118 L79.9866781,20.3864109 L76.709696,20.3864109 L76.709696,32.9903243 L79.2664622,32.9903243 Z M94.2684878,32.9903243 L94.2684878,20.3864109 L91.7117215,20.3864109 L91.7117215,32.9903243 L94.2684878,32.9903243 Z M101.348139,33.3504361 C101.924312,33.3504361 102.464474,33.2634091 102.968625,33.0893551 C103.472776,32.915301 103.910907,32.6662237 104.283019,32.342123 C104.65513,32.0180224 104.952219,31.6218994 105.174286,31.1537541 C105.396352,30.6856087 105.513387,30.1574447 105.525391,29.5692621 C105.525391,28.5129341 105.225301,27.7086844 104.625121,27.1565129 C104.024941,26.6043415 103.364743,26.1572027 102.644528,25.8150964 C101.924312,25.4729902 101.264114,25.1548914 100.663934,24.8608001 C100.063754,24.5667088 99.7636641,24.1375756 99.7636641,23.5734004 C99.7636641,23.2012849 99.8957037,22.889188 100.159783,22.6371097 C100.423862,22.3850314 100.777968,22.2589923 101.222101,22.2589923 C101.702245,22.2589923 102.149379,22.4000361 102.563503,22.6821237 C102.977627,22.9642112 103.370745,23.3453296 103.742857,23.8254787 L105.615418,22.1509587 C105.08726,21.5147612 104.45407,21.0016019 103.715849,20.6114807 C102.977627,20.2213596 102.140376,20.026299 101.204096,20.026299 C100.603916,20.026299 100.057752,20.1223289 99.5656048,20.3143885 C99.0734573,20.5064481 98.6503305,20.7675292 98.2962243,21.0976317 C97.9421182,21.4277342 97.6660355,21.8178553 97.4679761,22.2679951 C97.2699167,22.7181348 97.1708871,23.1892811 97.1708871,23.6814339 C97.1708871,24.7257582 97.470977,25.5180042 98.0711569,26.0581719 C98.6713368,26.5983396 99.3315346,27.0394766 100.05175,27.3815828 C100.771966,27.723689 101.432164,28.0417878 102.032344,28.3358791 C102.632524,28.6299704 102.932614,29.0591037 102.932614,29.6232789 C102.932614,30.0794205 102.788571,30.4365314 102.500484,30.6946115 C102.212398,30.9526916 101.816279,31.0817317 101.312128,31.0817317 C100.795974,31.0817317 100.294823,30.9436888 99.8086776,30.6676031 C99.3225319,30.3915174 98.8934033,30.0134 98.5212918,29.5332509 L96.666736,31.243782 C97.2189015,31.903987 97.8730975,32.4201473 98.6293242,32.7922628 C99.3855508,33.1643784 100.291822,33.3504361 101.348139,33.3504361 Z M113.271242,32.9903243 L113.271242,22.709132 L117.160407,22.709132 L117.160407,20.3864109 L106.82531,20.3864109 L106.82531,22.709132 L110.714476,22.709132 L110.714476,32.9903243 L113.271242,32.9903243 Z M124.222053,19.3060754 L126.562755,16.8753207 L123.933967,16.8753207 L121.899357,19.3060754 L124.222053,19.3060754 Z M126.760814,32.9903243 L126.760814,30.8116478 L121.971379,30.8116478 L121.971379,27.6606695 L126.040598,27.6606695 L126.040598,25.481993 L121.971379,25.481993 L121.971379,22.5650873 L126.760814,22.5650873 L126.760814,20.3864109 L119.414612,20.3864109 L119.414612,32.9903243 L126.760814,32.9903243 Z M132.292001,32.9903243 L132.292001,27.8947422 L133.606395,27.8947422 L136.955399,32.9903243 L140.016316,32.9903243 L136.055129,27.4085912 C136.69132,27.108498 137.186468,26.6793648 137.540574,26.1211915 C137.89468,25.5630182 138.071733,24.9058141 138.071733,24.1495793 C138.071733,22.9852178 137.669613,22.0669326 136.865372,21.3947239 C136.061131,20.7225152 134.968803,20.3864109 133.58839,20.3864109 L129.735235,20.3864109 L129.735235,32.9903243 L132.292001,32.9903243 Z M132.292001,25.7160657 L132.292001,22.5650873 L133.732433,22.5650873 C134.272595,22.5650873 134.692721,22.7031302 134.992811,22.9792159 C135.292901,23.2553016 135.442946,23.633419 135.442946,24.1135681 C135.442946,24.6297284 135.292901,25.0258514 134.992811,25.3019371 C134.692721,25.5780228 134.272595,25.7160657 133.732433,25.7160657 L132.292001,25.7160657 Z M144.161088,32.9903243 L144.161088,20.3864109 L141.604322,20.3864109 L141.604322,32.9903243 L144.161088,32.9903243 Z M155.039878,32.9903243 L155.039878,30.8116478 L150.250442,30.8116478 L150.250442,27.6606695 L154.319662,27.6606695 L154.319662,25.481993 L150.250442,25.481993 L150.250442,22.5650873 L155.039878,22.5650873 L155.039878,20.3864109 L147.693676,20.3864109 L147.693676,32.9903243 L155.039878,32.9903243 Z M165.3605,32.9903243 L165.3605,30.6676031 L160.571065,30.6676031 L160.571065,20.3864109 L158.014298,20.3864109 L158.014298,32.9903243 L165.3605,32.9903243 Z M174.960907,32.9903243 L174.960907,30.6676031 L170.171471,30.6676031 L170.171471,20.3864109 L167.614705,20.3864109 L167.614705,32.9903243 L174.960907,32.9903243 Z M184.561313,32.9903243 L184.561313,30.8116478 L179.771878,30.8116478 L179.771878,27.6606695 L183.841098,27.6606695 L183.841098,25.481993 L179.771878,25.481993 L179.771878,22.5650873 L184.561313,22.5650873 L184.561313,20.3864109 L177.215112,20.3864109 L177.215112,32.9903243 L184.561313,32.9903243 Z" id="INTERMINISTÉRIELLE"></path>
                    <path d="M4.9570772,53.0245104 C5.95450122,53.0245104 6.86780514,52.8562088 7.69698896,52.5196054 C8.52617278,52.1830021 9.23218075,51.7261832 9.81501285,51.1491489 C10.397845,50.5721146 10.8514926,49.9019134 11.1759559,49.1385451 C11.5004191,48.3751768 11.6626507,47.5667277 11.6626507,46.7131978 C11.6626507,45.8596679 11.5004191,45.0512188 11.1759559,44.2878505 C10.8514926,43.5244822 10.397845,42.8542809 9.81501285,42.2772466 C9.23218075,41.7002123 8.52617278,41.2433935 7.69698896,40.9067901 C6.86780514,40.5701868 5.95450122,40.4018851 4.9570772,40.4018851 L4.9570772,40.4018851 L0,40.4018851 L0,53.0245104 L4.9570772,53.0245104 Z M4.99312867,50.6983409 L2.55965441,50.6983409 L2.55965441,42.7280546 L4.99312867,42.7280546 C5.58196935,42.7280546 6.12274141,42.8302378 6.61544484,43.0346041 C7.10814827,43.2389704 7.53175305,43.5184714 7.88625918,43.8731071 C8.24076531,44.2277427 8.5201642,44.6484969 8.72445587,45.1353696 C8.92874754,45.6222423 9.03089337,46.148185 9.03089337,46.7131978 C9.03089337,47.266189 8.92874754,47.7861209 8.72445587,48.2729936 C8.5201642,48.7598663 8.24076531,49.1836259 7.88625918,49.5442723 C7.53175305,49.9049187 7.10814827,50.1874251 6.61544484,50.3917914 C6.12274141,50.5961577 5.58196935,50.6983409 4.99312867,50.6983409 L4.99312867,50.6983409 Z M19.0206852,53.3851569 C20.5949327,53.3851569 21.8417127,52.9133111 22.7610252,51.9696196 C23.6803377,51.0259281 24.139994,49.7306063 24.139994,48.0836542 L24.139994,48.0836542 L24.139994,40.4018851 L21.5803396,40.4018851 L21.5803396,48.3000421 C21.5803396,49.1415504 21.3520136,49.7997302 20.8953616,50.2745813 C20.4387097,50.7494325 19.8198261,50.9868581 19.0387109,50.9868581 C18.2455785,50.9868581 17.6206864,50.7494325 17.1640344,50.2745813 C16.7073825,49.7997302 16.4790565,49.1415504 16.4790565,48.3000421 L16.4790565,48.3000421 L16.4790565,40.4018851 L13.9194021,40.4018851 L13.9194021,48.0836542 C13.9194021,49.7306063 14.376054,51.0259281 15.289358,51.9696196 C16.2026619,52.9133111 17.4464376,53.3851569 19.0206852,53.3851569 Z M34.5659379,53.0245104 L34.5659379,43.9542525 L40.207993,53.0245104 L43.4886768,53.0245104 L43.4886768,40.4018851 L40.9290224,40.4018851 L40.9290224,49.4360784 L35.2869673,40.4018851 L32.0062835,40.4018851 L32.0062835,53.0245104 L34.5659379,53.0245104 Z M51.7660238,53.3851569 C53.3402713,53.3851569 54.5870513,52.9133111 55.5063638,51.9696196 C56.4256763,51.0259281 56.8853326,49.7306063 56.8853326,48.0836542 L56.8853326,48.0836542 L56.8853326,40.4018851 L54.3256782,40.4018851 L54.3256782,48.3000421 C54.3256782,49.1415504 54.0973522,49.7997302 53.6407002,50.2745813 C53.1840483,50.7494325 52.5651647,50.9868581 51.7840495,50.9868581 C50.9909172,50.9868581 50.366025,50.7494325 49.909373,50.2745813 C49.4527211,49.7997302 49.2243951,49.1415504 49.2243951,48.3000421 L49.2243951,48.3000421 L49.2243951,40.4018851 L46.6647407,40.4018851 L46.6647407,48.0836542 C46.6647407,49.7306063 47.1213927,51.0259281 48.0346966,51.9696196 C48.9480005,52.9133111 50.1917762,53.3851569 51.7660238,53.3851569 Z M62.6210509,53.0245104 L62.6210509,44.0444141 L65.4330656,48.6967532 L67.2356391,48.6967532 L70.0476538,44.0444141 L70.0476538,53.0245104 L72.6073082,53.0245104 L72.6073082,40.4018851 L69.3807016,40.4018851 L66.3343523,45.5951938 L63.2880031,40.4018851 L60.0613965,40.4018851 L60.0613965,53.0245104 L62.6210509,53.0245104 Z M80.9387324,39.3199458 L83.2820779,36.8855823 L80.6503206,36.8855823 L78.6134125,39.3199458 L80.9387324,39.3199458 Z M83.480361,53.0245104 L83.480361,50.8425995 L78.6855154,50.8425995 L78.6855154,47.6869431 L82.7593316,47.6869431 L82.7593316,45.5050322 L78.6855154,45.5050322 L78.6855154,42.5837961 L83.480361,42.5837961 L83.480361,40.4018851 L76.125861,40.4018851 L76.125861,53.0245104 L83.480361,53.0245104 Z M89.0177962,53.0245104 L89.0177962,47.9213633 L90.3336749,47.9213633 L93.6864616,53.0245104 L96.7508366,53.0245104 L92.7851749,47.4344906 C93.4220842,47.1339519 93.9177919,46.7041816 94.272298,46.1451796 C94.6268042,45.5861777 94.8040572,44.9279979 94.8040572,44.1706404 C94.8040572,43.0045502 94.4014825,42.0849018 93.596333,41.4116951 C92.7911835,40.7384885 91.6976222,40.4018851 90.3156492,40.4018851 L90.3156492,40.4018851 L86.4581418,40.4018851 L86.4581418,53.0245104 L89.0177962,53.0245104 Z M90.459855,45.7394524 L89.0177962,45.7394524 L89.0177962,42.5837961 L90.459855,42.5837961 C91.0006271,42.5837961 91.4212276,42.7220439 91.7216565,42.9985395 C92.0220854,43.2750351 92.1722999,43.6537138 92.1722999,44.1345757 C92.1722999,44.6515023 92.0220854,45.0482134 91.7216565,45.324709 C91.4212276,45.6012046 91.0006271,45.7394524 90.459855,45.7394524 L90.459855,45.7394524 Z M100.90029,53.0245104 L100.90029,40.4018851 L98.3406358,40.4018851 L98.3406358,53.0245104 L100.90029,53.0245104 Z M117.235141,56.1621344 C117.511535,56.1621344 117.751879,56.1441021 117.95617,56.1080375 C118.160462,56.0719728 118.364754,56.0118651 118.569045,55.9277142 L118.569045,55.9277142 L118.569045,53.7638356 C118.436857,53.8119218 118.286642,53.8479865 118.118402,53.8720296 C117.950162,53.8960726 117.799947,53.9080942 117.667758,53.9080942 C117.259175,53.9080942 116.83557,53.8179326 116.396944,53.6376094 C115.958318,53.4572861 115.498662,53.1447259 115.017975,52.6999286 L115.017975,52.6999286 L114.260895,51.9786358 C115.029993,51.3655368 115.636859,50.5961577 116.081494,49.6704986 C116.526129,48.7448394 116.748446,47.7590724 116.748446,46.7131978 C116.748446,45.8115817 116.586214,44.9550464 116.261751,44.1435919 C115.937288,43.3321374 115.480636,42.6258715 114.891795,42.0247941 C114.302955,41.4237167 113.596947,40.9428548 112.773771,40.5822083 C111.950596,40.2215619 111.046305,40.0412387 110.060898,40.0412387 C109.075491,40.0412387 108.168196,40.2215619 107.339012,40.5822083 C106.509828,40.9428548 105.800816,41.4237167 105.211975,42.0247941 C104.623135,42.6258715 104.166483,43.3321374 103.84202,44.1435919 C103.517556,44.9550464 103.355325,45.8115817 103.355325,46.7131978 C103.355325,47.6148139 103.517556,48.4713492 103.84202,49.2828036 C104.166483,50.0942581 104.623135,50.8005241 105.211975,51.4016015 C105.800816,52.0026789 106.509828,52.4835408 107.339012,52.8441872 C108.168196,53.2048336 109.075491,53.3851569 110.060898,53.3851569 C110.361327,53.3851569 110.658752,53.3671245 110.953172,53.3310599 C111.247592,53.2949953 111.526991,53.2408983 111.791369,53.168769 L111.791369,53.168769 L113.287505,54.5031608 C113.90038,55.0441305 114.537289,55.4558685 115.198233,55.7383749 C115.859176,56.0208812 116.538146,56.1621344 117.235141,56.1621344 Z M110.060898,50.9868581 C109.472057,50.9868581 108.925277,50.8756587 108.420556,50.6532601 C107.915836,50.4308615 107.486222,50.1303228 107.131716,49.751644 C106.77721,49.3729652 106.497811,48.9221572 106.29352,48.3992199 C106.089228,47.8762825 105.987082,47.3142752 105.987082,46.7131978 C105.987082,46.1121204 106.089228,45.550113 106.29352,45.0271757 C106.497811,44.5042383 106.77721,44.0534303 107.131716,43.6747515 C107.486222,43.2960728 107.915836,42.9955341 108.420556,42.7731354 C108.925277,42.5507368 109.472057,42.4395375 110.060898,42.4395375 C110.649739,42.4395375 111.193515,42.5507368 111.692227,42.7731354 C112.190939,42.9955341 112.617548,43.2960728 112.972054,43.6747515 C113.326561,44.0534303 113.605959,44.5042383 113.810251,45.0271757 C114.014543,45.550113 114.116689,46.1121204 114.116689,46.7131978 C114.116689,47.3142752 114.014543,47.8762825 113.810251,48.3992199 C113.605959,48.9221572 113.326561,49.3729652 112.972054,49.751644 C112.617548,50.1303228 112.190939,50.4308615 111.692227,50.6532601 C111.193515,50.8756587 110.649739,50.9868581 110.060898,50.9868581 Z M124.088455,53.3851569 C125.662702,53.3851569 126.909482,52.9133111 127.828795,51.9696196 C128.748107,51.0259281 129.207763,49.7306063 129.207763,48.0836542 L129.207763,48.0836542 L129.207763,40.4018851 L126.648109,40.4018851 L126.648109,48.3000421 C126.648109,49.1415504 126.419783,49.7997302 125.963131,50.2745813 C125.506479,50.7494325 124.887596,50.9868581 124.10648,50.9868581 C123.313348,50.9868581 122.688456,50.7494325 122.231804,50.2745813 C121.775152,49.7997302 121.546826,49.1415504 121.546826,48.3000421 L121.546826,48.3000421 L121.546826,40.4018851 L118.987172,40.4018851 L118.987172,48.0836542 C118.987172,49.7306063 119.443824,51.0259281 120.357127,51.9696196 C121.270431,52.9133111 122.514207,53.3851569 124.088455,53.3851569 Z M139.738327,53.0245104 L139.738327,50.8425995 L134.943482,50.8425995 L134.943482,47.6869431 L139.017298,47.6869431 L139.017298,45.5050322 L134.943482,45.5050322 L134.943482,42.5837961 L139.738327,42.5837961 L139.738327,40.4018851 L132.383827,40.4018851 L132.383827,53.0245104 L139.738327,53.0245104 Z" id="DUNUMÉRIQUE"></path>
                </g>
                <g id="Marianne">
                    <path d="M17.8010587,17.4824715 C17.8209704,17.4824715 17.8209704,17.4824715 17.8010587,17.4824715 C17.8807055,17.4426481 17.9205289,17.4227364 17.9603523,17.382913 C17.9603523,17.382913 17.9404406,17.382913 17.9404406,17.382913 C17.9006172,17.4028247 17.8607938,17.4426481 17.8010587,17.4824715" id="Path" fill="#1F356C"></path>
                    <path d="M25.1086521,15.0532443 L25.0688287,15.0930677 C25.0887404,15.0930677 25.1086521,15.073156 25.1086521,15.0532443" id="Path" fill="#1F356C"></path>
                    <path d="M22.7988951,17.6019417 C23.0179238,17.382913 23.2369525,17.1638843 23.4360694,16.9249439 L23.4360694,16.9249439 C23.8343034,16.4669749 24.2325374,16.0488292 24.6905065,15.6505952 C24.8298884,15.531125 24.9692702,15.4116548 25.1086521,15.332008 C25.1484755,15.2921847 25.1484755,15.2125379 25.1882989,15.1727145 C25.0090936,15.2523613 24.8896235,15.3917431 24.6905065,15.4713899 C24.6506831,15.4713899 24.6108597,15.4315665 24.6506831,15.3917431 C24.790065,15.2921847 24.9294469,15.1926262 25.048917,15.0930677 C25.048917,15.0930677 25.0290053,15.0930677 25.0290053,15.0930677 C24.9891819,15.0930677 24.9891819,15.0532443 24.9891819,15.0134209 C24.4913895,14.9337741 24.1329789,15.272273 23.79448,15.5709484 C23.7148332,15.6107718 23.6351864,15.531125 23.6152747,15.531125 C23.0577472,15.7103303 22.6396015,16.2081228 22.0820739,16.4271515 L22.0820739,16.3475047 C21.8630452,16.4271515 21.6440166,16.5665334 21.4050762,16.6063568 C21.0665773,16.6860036 20.7679018,16.6461802 20.4692263,16.6461802 C20.0112573,16.6860036 19.5532882,16.7855621 19.0953191,16.8851206 C19.0754074,16.8851206 19.0754074,16.8851206 19.0554957,16.9050323 C18.8165553,16.9647673 18.5776149,17.0643258 18.3585863,17.183796 L18.3386746,17.2037077 C18.3187629,17.2236194 18.2988512,17.2435311 18.2789395,17.2634428 C18.1992927,17.3430896 18.1196459,17.4426481 18.0200874,17.4824715 C17.781147,17.6019417 17.6019417,17.8010587 17.4028247,17.980264 C17.382913,18.0001757 17.3630013,18.0001757 17.3430896,18.0001757 C17.1439726,18.1992927 16.9448556,18.3984097 16.7457387,18.5776149 C16.725827,18.5975266 16.6660919,18.5975266 16.6262685,18.5975266 C16.6262685,18.5975266 16.6262685,18.5975266 16.6262685,18.5975266 C16.6262685,18.5776149 16.6461802,18.5776149 16.6461802,18.5577032 C16.6860036,18.4979682 16.7059153,18.4581448 16.7457387,18.3984097 C16.7855621,18.3386746 16.8253855,18.2789395 16.8652089,18.2192044 C16.9249439,18.1395576 16.9647673,18.0599108 17.0245024,18.0001757 C17.0444141,17.980264 17.0444141,17.9603523 17.0245024,17.9603523 C17.0045907,17.9404406 16.984679,17.9404406 16.9647673,17.9404406 C17.1439726,17.7612353 17.382913,17.6019417 17.6019417,17.4625598 L17.6019417,17.4625598 C17.58203,17.4625598 17.5422066,17.4426481 17.5621183,17.4227364 C17.58203,17.382913 17.6019417,17.3630013 17.6218534,17.3231779 C17.6218534,17.3032662 17.6218534,17.3032662 17.6417651,17.2833545 C17.6417651,17.2634428 17.6218534,17.2634428 17.6218534,17.2435311 C17.5621183,17.2833545 17.5023832,17.3231779 17.4426481,17.3630013 C17.3430896,17.4426481 17.2833545,17.6019417 17.1439726,17.6019417 C17.1439726,17.6019417 17.1041492,17.6019417 17.0842375,17.6019417 C17.0643258,17.6019417 17.0444141,17.6019417 17.0444141,17.58203 C17.0444141,17.58203 17.0444141,17.58203 17.0444141,17.58203 C17.0444141,17.58203 17.0444141,17.58203 17.0444141,17.5621183 C17.0444141,17.5621183 17.0444141,17.5621183 17.0444141,17.5621183 C17.0444141,17.5422066 17.0643258,17.5422066 17.0643258,17.5222949 C17.0643258,17.5023832 17.0842375,17.5023832 17.0842375,17.4824715 C17.0842375,17.4824715 17.0842375,17.4625598 17.1041492,17.4625598 C17.1041492,17.4426481 17.1240609,17.4227364 17.1240609,17.4227364 C17.1240609,17.4028247 17.1439726,17.4028247 17.1439726,17.382913 C17.1638843,17.3630013 17.183796,17.3231779 17.183796,17.3032662 C17.183796,17.2833545 17.2037077,17.2833545 17.2037077,17.2634428 C17.2236194,17.2435311 17.2236194,17.2236194 17.2435311,17.2037077 C17.2634428,17.1638843 17.2435311,17.1439726 17.2236194,17.1439726 C17.2833545,17.0444141 17.382913,16.984679 17.4824715,16.9249439 L17.4625598,16.9249439 C17.6019417,16.8452972 17.7612353,16.7656504 17.9006172,16.6860036 C17.9205289,16.6660919 17.9404406,16.6461802 17.9603523,16.6262685 C17.7413236,16.7059153 17.5621183,16.8054738 17.3630013,16.9249439 C17.3630013,16.9249439 17.3231779,16.9448556 17.3032662,16.9647673 C17.3032662,16.9647673 17.2634428,16.984679 17.2037077,16.9249439 C17.2037077,16.9249439 17.2037077,16.9050323 17.2037077,16.9050323 C17.2435311,16.8253855 17.3630013,16.7855621 17.4227364,16.725827 C17.4625598,16.725827 17.5023832,16.725827 17.5023832,16.7656504 C18.7169968,15.8298005 20.3696678,16.0488292 21.7634867,15.5709484 C21.8829569,15.4913016 21.9825154,15.4116548 22.1019856,15.3519197 C22.2811909,15.272273 22.4404845,15.0930677 22.6595132,14.9735975 C22.9581887,14.7545688 23.1772174,14.475805 23.2966876,14.1173944 C23.2966876,14.077571 23.2568642,14.0377476 23.2568642,14.0377476 C22.7590717,14.5554518 22.2015441,14.9735975 21.6041932,15.272273 C20.8077252,15.6904186 19.9515222,15.6107718 19.1152308,15.730242 C19.1550542,15.6505952 19.234701,15.6505952 19.2944361,15.6505952 C19.2944361,15.531125 19.3740829,15.4913016 19.4537297,15.4315665 L19.5731999,15.4315665 C19.6130233,15.4315665 19.6130233,15.3519197 19.6528467,15.3519197 C19.7324935,15.3519197 19.8519637,15.3120963 19.8121403,15.3120963 C19.6926701,15.1528028 19.4736414,15.4315665 19.2944361,15.3120963 C19.3740829,15.2324496 19.3342595,15.1328911 19.4139063,15.0930677 L19.5731999,15.0930677 C19.5731999,15.0134209 19.6528467,14.9337741 19.6528467,14.9337741 C20.2103742,14.5952752 20.7479901,14.3364231 21.2656943,14.0377476 C21.1462241,14.0377476 21.086489,14.1572178 20.9670188,14.077571 C21.0466656,14.077571 20.9670188,13.9581008 21.0466656,13.9581008 C21.4648113,13.8386306 21.8033101,13.619602 22.2214558,13.4603084 C22.0621622,13.4603084 21.9626037,13.5797786 21.8033101,13.4603084 C21.8829569,13.420485 21.9227803,13.3408382 22.0223388,13.3408382 L22.0223388,13.221368 C22.0223388,13.1815446 22.0621622,13.1815446 22.1019856,13.1815446 C22.0621622,13.1815446 22.0223388,13.1417212 22.0223388,13.1417212 C22.0621622,13.0620744 22.1816324,13.1018978 22.2413675,13.022251 C22.2015441,13.022251 22.1218973,13.022251 22.1218973,12.9824276 C22.2413675,12.823134 22.4205728,12.8032223 22.6196898,12.7633989 C22.5798664,12.6837521 22.4603962,12.7633989 22.4603962,12.6837521 C22.4603962,12.6439287 22.5002196,12.6439287 22.540043,12.6439287 L22.4603962,12.6439287 C22.3807494,12.6041053 22.4205728,12.5244585 22.4205728,12.4846351 C22.6396015,12.225783 22.6396015,11.8872842 22.7590717,11.5886087 C22.7192483,11.5886087 22.6794249,11.5886087 22.6794249,11.5487853 C22.3011026,11.966931 21.7037517,12.1063128 21.1462241,12.2656064 L20.887372,12.2656064 C20.7081667,12.3452532 20.4294029,12.3452532 20.2501976,12.225783 C20.0909041,12.1461362 20.031169,12.0465778 19.8718754,11.9271076 C19.5731999,11.7479023 19.2745244,11.5886087 18.9360255,11.4691385 C18.0001757,11.170463 17.0245024,11.0111694 16.0488292,11.0509928 C16.4669749,10.8319641 16.9249439,10.8120524 17.3630013,10.6726705 C18.0001757,10.4934652 18.5975266,10.2545249 19.2745244,10.2943483 C19.1550542,10.2545249 19.0156723,10.2943483 18.8962021,10.2943483 C18.378498,10.2545249 17.8408821,10.4138185 17.2833545,10.5133769 C16.9050323,10.5930237 16.5665334,10.7324056 16.1882111,10.8120524 C15.9691824,10.8916992 15.8497122,11.1107279 15.5908601,11.0709045 L15.5908601,10.9514343 C15.9691824,10.4934652 16.4271515,10.0554079 17.0245024,10.0155845 C17.7015002,9.89611429 18.3386746,10.0155845 19.0156723,10.0952313 C19.5134648,10.1350547 19.9515222,10.2545249 20.4493146,10.3540834 C20.6285199,10.3540834 20.6683433,10.6527588 20.8276369,10.6925822 C21.0466656,10.772229 21.285606,10.6925822 21.5046347,10.8518758 C21.5046347,10.772229 21.4648113,10.6925822 21.5046347,10.6328471 C21.6639283,10.4735535 21.8431335,10.6726705 22.0024271,10.5930237 C22.3011026,10.4138185 21.7435751,10.0753196 21.5842815,9.79655579 C21.5842815,9.75673239 21.6241049,9.716909 21.6241049,9.716909 C21.9227803,9.97576108 22.141809,10.2744366 22.5201313,10.4735535 C22.6993366,10.5532003 23.1573057,10.6527588 23.0776589,10.4337302 C22.8984536,10.0155845 22.5201313,9.6770856 22.2015441,9.29876332 L22.2015441,9.13946973 C22.1218973,9.13946973 22.1218973,9.09964634 22.0820739,9.05982294 L22.0820739,8.90052935 C21.9227803,8.82088255 21.9626037,8.68150066 21.9028686,8.56203047 C21.7833984,8.38282518 21.8630452,8.1040614 21.7833984,7.88503271 C21.7037517,7.66600402 21.6639283,7.46688704 21.6241049,7.24785835 C21.5046347,6.61068399 21.3652528,6.05315642 21.285606,5.43589376 C21.2059592,4.71907261 21.7037517,4.16154504 22.0422505,3.52437068 C22.3011026,3.06640161 22.5997781,2.62834424 23.0975706,2.32966876 C23.2170408,1.87169968 23.5157162,1.49337741 23.8143917,1.13496683 C24.1130672,0.776556252 24.6108597,0.537615867 24.9692702,0.378322277 C25.4869744,0.139381891 25.9648552,0 25.9648552,0 L8.48886775e-15,0 L8.48886775e-15,19.9116988 L18.4581448,19.9116988 C19.1749659,19.3939946 19.8917871,19.1550542 20.887372,18.6572617 C21.3652528,18.4581448 22.4404845,17.9603523 22.7988951,17.6019417 M17.0245024,14.8939507 C16.9448556,14.8939507 16.8054738,14.9337741 16.8452972,14.8541273 C16.8851206,14.674922 17.1439726,14.674922 17.3032662,14.5952752 C17.382913,14.5554518 17.4824715,14.475805 17.5621183,14.5156284 C17.6417651,14.6350986 17.7413236,14.5952752 17.8209704,14.674922 C17.58203,14.8939507 17.2833545,14.7943922 17.0245024,14.8939507 M11.2501098,14.077571 C11.2501098,14.077571 11.2102864,14.0377476 11.2102864,13.9979242 C11.7080789,13.3607499 12.0664895,12.7633989 12.4249,12.0864011 C12.9226925,11.8275491 13.3209265,11.4492268 13.6992487,11.0310811 C14.3364231,10.3540834 15.0134209,9.75673239 15.8098888,9.37841012 C16.1085643,9.25893993 16.4868866,9.29876332 16.7855621,9.41823352 C16.6660919,9.57752711 16.4868866,9.53770371 16.327593,9.6372622 C16.2877696,9.6372622 16.2479462,9.6372622 16.2081228,9.5974388 C16.2479462,9.55761541 16.2479462,9.51779201 16.2479462,9.47796861 C15.8696239,9.89611429 15.3519197,10.0753196 15.0532443,10.573112 C14.8342156,10.9514343 14.674922,11.4293151 14.1970412,11.5487853 C14.0377476,11.5886087 14.2368646,11.4293151 14.1572178,11.4691385 C12.9824276,12.1859596 12.1660479,13.0620744 11.2501098,14.077571 M14.3762465,11.5886087 C14.3364231,11.6682555 14.2965997,11.6682555 14.2567763,11.7479023 C14.2169529,11.8275491 14.1771295,11.8673725 14.0974827,11.9071959 C14.0576593,11.9071959 14.0178359,11.9071959 14.0178359,11.8673725 C14.0576593,11.7080789 14.1771295,11.568697 14.3165114,11.5288736 C14.3762465,11.5089619 14.3762465,11.5487853 14.3762465,11.5886087 M16.128476,17.2236194 C16.1085643,17.2634428 16.0687409,17.3032662 16.0289175,17.3430896 C16.0687409,17.3430896 16.1085643,17.382913 16.0687409,17.4028247 C15.9890941,17.4824715 15.8895356,17.5621183 15.7899771,17.6019417 C15.7899771,17.6019417 15.7501537,17.6019417 15.730242,17.6019417 C15.6904186,17.6417651 15.6306835,17.6815885 15.5908601,17.7413236 C15.5510367,17.781147 15.332008,17.7612353 15.3917431,17.7015002 C15.4913016,17.6218534 15.5709484,17.5222949 15.6705069,17.4426481 C15.730242,17.4028247 15.7899771,17.3430896 15.8298005,17.2833545 C15.8497122,17.2435311 15.8696239,17.2236194 15.9094473,17.2037077 C15.9691824,17.1638843 16.1682994,17.1439726 16.128476,17.2236194 M15.4514782,16.9249439 C15.4514782,16.9249439 15.4514782,16.9249439 15.4514782,16.9249439 C15.2921847,17.0245024 15.1528028,17.1240609 15.0134209,17.2236194 C14.8541273,17.3231779 14.674922,17.382913 14.5156284,17.4625598 C14.5156284,17.4625598 14.5156284,17.4625598 14.5156284,17.4625598 C14.4957167,17.4426481 14.475805,17.4426481 14.4558933,17.4426481 C14.3165114,17.5222949 14.1970412,17.6218534 14.077571,17.7413236 C14.0576593,17.7612353 14.0377476,17.781147 14.0178359,17.8010587 L14.0178359,17.8010587 C14.0178359,17.8010587 14.0178359,17.8010587 14.0178359,17.8010587 L13.9581008,17.8607938 C13.9581008,17.8607938 13.9581008,17.8607938 13.9581008,17.8607938 C13.9581008,17.8607938 13.9581008,17.8607938 13.9581008,17.8607938 C13.9381891,17.8807055 13.8983657,17.9205289 13.878454,17.9404406 C13.8585423,17.9603523 13.8585423,17.980264 13.8187189,18.0001757 C13.7988072,18.0200874 13.7390721,18.0200874 13.7390721,17.980264 C13.7390721,17.980264 13.7390721,17.980264 13.7390721,17.980264 C13.7191604,18.0001757 13.6992487,18.0001757 13.6793371,18.0200874 C13.6594254,18.0399991 13.6395137,18.0399991 13.619602,18.0599108 C13.619602,18.0599108 13.5996903,18.0599108 13.5996903,18.0599108 C13.5996903,18.0599108 13.5797786,18.0599108 13.5797786,18.0599108 C13.5399552,18.0997342 13.4802201,18.1395576 13.4403967,18.179381 C13.3607499,18.2590278 13.2811031,18.3187629 13.221368,18.4183214 C13.221368,18.4183214 13.221368,18.4183214 13.221368,18.4183214 C13.221368,18.4183214 13.221368,18.4183214 13.221368,18.4382331 C13.221368,18.4382331 13.221368,18.4382331 13.2014563,18.4581448 C13.2014563,18.4581448 13.2014563,18.4780565 13.1815446,18.4780565 C13.1815446,18.4780565 13.1815446,18.4780565 13.1815446,18.4780565 C13.1815446,18.4979682 13.1616329,18.4979682 13.1616329,18.5178799 C13.1616329,18.5178799 13.1616329,18.5178799 13.1616329,18.5178799 C13.1616329,18.5178799 13.1417212,18.5377915 13.1218095,18.5377915 C13.1218095,18.5377915 13.1018978,18.5178799 13.1018978,18.5178799 C13.1018978,18.5178799 13.1018978,18.4979682 13.0819861,18.4979682 C13.0620744,18.4780565 13.0620744,18.4581448 13.0421627,18.4382331 C13.0421627,18.4382331 13.0421627,18.4382331 13.0421627,18.4382331 C13.0421627,18.4382331 13.0421627,18.4183214 13.0421627,18.4183214 C13.0819861,18.378498 13.1218095,18.3386746 13.1616329,18.2789395 C13.1616329,18.2789395 13.1616329,18.2789395 13.1616329,18.2789395 C13.1815446,18.2590278 13.1815446,18.2391161 13.2014563,18.2391161 C13.221368,18.2192044 13.2412797,18.179381 13.2611914,18.1594693 C13.2611914,18.1395576 13.2811031,18.1395576 13.2811031,18.1196459 C13.3209265,18.0599108 13.3607499,18.0200874 13.4005733,17.9603523 C13.4005733,17.9603523 13.4005733,17.9603523 13.4005733,17.9603523 C13.4005733,17.9603523 13.420485,17.9404406 13.420485,17.9404406 C13.4403967,17.9205289 13.4603084,17.8807055 13.4802201,17.8607938 C13.5001318,17.8408821 13.5001318,17.8209704 13.5200435,17.781147 L13.5200435,17.781147 L13.5200435,17.781147 C13.5200435,17.781147 13.5200435,17.781147 13.5200435,17.7612353 C13.5399552,17.7214119 13.5399552,17.7015002 13.5598669,17.6815885 C13.5598669,17.6815885 13.5598669,17.6815885 13.5598669,17.6815885 L13.5598669,17.6616768 C13.5598669,17.6417651 13.5598669,17.6417651 13.5797786,17.6218534 C13.5797786,17.6218534 13.5797786,17.6218534 13.5797786,17.6218534 C13.5797786,17.6019417 13.5797786,17.58203 13.5996903,17.5621183 C13.5996903,17.5621183 13.5996903,17.5422066 13.5996903,17.5422066 C13.6395137,17.4625598 13.6992487,17.4028247 13.7589838,17.3430896 C13.7589838,17.3430896 13.7390721,17.3430896 13.7390721,17.3430896 C13.6793371,17.382913 13.6395137,17.4227364 13.5996903,17.4625598 C13.5598669,17.5023832 13.4802201,17.4426481 13.5399552,17.4028247 C13.5797786,17.382913 13.5996903,17.3430896 13.619602,17.3231779 C13.619602,17.3231779 13.619602,17.3231779 13.619602,17.3231779 C13.6793371,17.2634428 13.7390721,17.183796 13.8187189,17.1240609 C13.8585423,17.0842375 13.8983657,17.0643258 13.9381891,17.0444141 C13.9381891,17.0444141 13.9581008,17.0245024 13.9581008,17.0245024 C13.9780125,16.984679 14.0178359,16.9647673 14.0377476,16.9249439 C14.0377476,16.9249439 14.0377476,16.9249439 14.0377476,16.9249439 C14.3961582,16.5864451 15.0134209,16.5864451 15.4713899,16.3674164 C15.6505952,16.2877696 15.8895356,16.4072398 16.0687409,16.3674164 C16.1882111,16.3674164 16.2877696,16.3674164 16.4072398,16.4470632 C16.0687409,16.5067983 15.7700654,16.725827 15.4514782,16.9249439 M16.2280345,14.2965997 C16.1882111,14.2567763 16.3475047,14.2965997 16.3873281,14.2169529 L16.0886526,14.2169529 C16.0488292,14.2169529 16.0488292,14.1771295 16.0488292,14.1373061 C15.8696239,14.1771295 15.6306835,14.2567763 15.4514782,14.2965997 C15.1926262,14.3762465 14.9536858,14.5554518 14.6550103,14.6350986 C14.2368646,14.7943922 13.8983657,15.1328911 13.4603084,15.272273 C13.420485,15.272273 13.420485,15.2324496 13.420485,15.1926262 C13.4603084,15.073156 13.5996903,15.0333326 13.6793371,14.9337741 C13.6793371,14.8939507 13.6793371,14.8541273 13.6395137,14.8541273 C13.9381891,14.4359816 14.3563348,14.2169529 14.7346571,13.878454 L14.7346571,13.7589838 C14.8541273,13.5996903 15.0333326,13.5399552 15.1129794,13.3408382 C15.1528028,13.221368 15.3120963,13.0819861 15.4913016,13.0023393 C15.4514782,12.9625159 15.3718314,12.9625159 15.3718314,12.8828691 C15.2125379,12.8828691 15.073156,12.9625159 14.9138624,12.8430457 C14.9935092,12.7833106 15.073156,12.7434872 15.1528028,12.7036638 C15.1129794,12.7036638 15.0930677,12.6837521 15.073156,12.6439287 C15.0333326,12.5642819 15.1528028,12.4846351 15.2523613,12.4647234 C15.4116548,12.4249 15.5908601,12.4249 15.7103303,12.3054298 C15.4514782,12.2656064 15.1528028,12.3850766 14.874039,12.225783 C15.0532443,11.7279906 15.3718314,11.3297566 15.8098888,11.0908162 C15.8497122,11.0908162 15.929359,11.0908162 15.929359,11.1306396 C15.929359,11.3098449 15.8098888,11.4691385 15.6306835,11.5089619 C15.929359,11.5886087 16.2280345,11.5886087 16.52671,11.7279906 C16.4868866,11.8076374 16.4072398,11.767814 16.3674164,11.767814 C16.5466217,11.8872842 16.7855621,11.8076374 16.9647673,11.9470193 C16.8452972,12.0664895 16.7457387,11.9470193 16.6262685,11.9470193 C17.8010587,12.2855181 19.035584,12.5443702 20.0112573,13.3010148 C19.1749659,13.7191604 18.3187629,13.8983657 17.4227364,14.0974827 C17.3032662,14.0974827 17.2435311,14.0974827 17.1240609,14.0576593 C17.1240609,14.0974827 17.1240609,14.1771295 17.0842375,14.1771295 C16.9249439,14.1771295 16.8253855,14.1771295 16.7059153,14.2567763 C16.5665334,14.3762465 16.3475047,14.4160699 16.2280345,14.2965997" id="Shape" fill="#000091"></path>
                    <path d="M54.9164652,0.0398233975 L33.511389,0.0398233975 C33.511389,0.0398233975 33.5512124,0.0398233975 33.710506,0.139381891 C33.8897113,0.238940385 34.10874,0.358410578 34.2481219,0.418145674 C34.5268857,0.557527565 34.7857377,0.736732854 34.964943,1.01549664 C35.0445898,1.13496683 35.1441483,1.35399552 35.0844132,1.51328911 C35.0047664,1.69249439 34.964943,2.01108158 34.7857377,2.07081667 C34.5667091,2.19028686 34.2680336,2.19028686 33.9892698,2.15046347 C33.8299762,2.15046347 33.6905943,2.11064007 33.5313007,2.07081667 C34.0888283,2.28984536 34.6264442,2.56860914 35.0047664,3.08631331 C35.0445898,3.1659601 35.1839717,3.2057835 35.3432653,3.2057835 C35.3830887,3.2057835 35.3830887,3.2854303 35.3830887,3.32525369 C35.3034419,3.40490049 35.2237951,3.44472389 35.2636185,3.54428238 L35.3830887,3.54428238 C35.562294,3.46463558 35.5423823,3.08631331 35.8012344,3.2057835 C35.9804397,3.32525369 36.0600865,3.58410578 35.960528,3.76331107 C35.8012344,3.92260466 35.6618525,4.02216315 35.5025589,4.14163334 C35.4627355,4.22128014 35.4627355,4.32083863 35.5025589,4.40048543 C35.6220291,4.55977902 35.6618525,4.69916091 35.6817642,4.8584545 C35.8012344,5.11730658 35.8410578,5.41598206 35.9406163,5.69474585 C36.0999099,6.25227341 36.2392918,6.82971268 36.1994684,7.38724024 C36.1994684,7.68591572 36.0401748,7.94476781 36.159645,8.24344329 C36.2392918,8.54211877 36.418497,8.76114746 36.5777906,9.03991124 C36.7370842,9.25893993 36.8764661,9.41823352 36.9959363,9.6372622 C37.214965,10.0155845 37.6331107,10.3939068 37.4539054,10.8319641 C37.3344352,11.0908162 36.9362012,11.0509928 36.6574374,11.2102864 C36.4384087,11.3894917 36.617614,11.7080789 36.7370842,11.8872842 C36.9162895,12.225783 36.5180555,12.4448117 36.2392918,12.5642819 C36.3189385,12.6837521 36.4583204,12.6439287 36.4981438,12.7235755 C36.5379672,12.9027808 36.7171725,13.022251 36.617614,13.221368 C36.4583204,13.4403967 36.0202631,13.5598669 36.2392918,13.8983657 C36.3985853,14.1572178 36.2990268,14.4558933 36.1994684,14.7346571 C36.0799982,15.073156 35.7813227,15.2324496 35.5224706,15.2921847 C35.3034419,15.3718314 35.0246781,15.3718314 34.8056494,15.332008 C34.7260026,15.2921847 34.6463558,15.2523613 34.5866208,15.2523613 C33.9494464,15.1727145 33.312272,14.9935092 32.6750977,14.9935092 C32.4958924,15.0333326 32.2967754,15.073156 32.1573935,15.1328911 C31.9781882,15.2523613 31.8388063,15.3917431 31.6994244,15.531125 C31.6994244,15.531125 31.6994244,15.531125 31.6994244,15.531125 C31.6795127,15.5709484 31.6396893,15.5908601 31.6197776,15.6306835 C31.5998659,15.6505952 31.5799542,15.6705069 31.5799542,15.6904186 C31.5600425,15.7103303 31.5600425,15.7103303 31.5401308,15.730242 C31.4206606,15.8696239 31.3410139,16.0090058 31.2414554,16.1682994 C31.2414554,16.1882111 31.2215437,16.1882111 31.2215437,16.1882111 C31.2215437,16.2081228 31.201632,16.2280345 31.1817203,16.2479462 C31.0622501,16.4669749 30.9626916,16.7059153 30.9029565,16.9448556 C30.6441044,17.8010587 30.7635746,18.5377915 30.9427799,18.7169968 C30.9826033,18.7568202 32.1773052,19.1351425 33.0135966,19.5134648 C33.4118305,19.6926701 33.6706826,19.8121403 33.909623,19.9714339 L54.9363769,19.9714339 L54.9363769,0.0398233975 L54.9164652,0.0398233975 Z" id="Path" fill="#E1000F"></path>
                    <path d="M34.7857377,7.28768175 C34.9450313,7.32750515 35.16406,7.32750515 35.16406,7.40715194 C35.0844132,7.70582742 34.6463558,7.78547422 34.4074155,8.0841497 L34.2879453,8.0841497 C34.1684751,8.16379649 34.2082985,8.34300178 34.10874,8.34300178 C33.9892698,8.30317838 33.8897113,8.34300178 33.7702411,8.38282518 C33.9295347,8.54211877 34.10874,8.64167726 34.3277687,8.60185387 C34.3675921,8.60185387 34.4472389,8.68150066 34.4472389,8.76114746 C34.4472389,8.76114746 34.4870623,8.76114746 34.5268857,8.72132406 C34.5667091,8.72132406 34.6065325,8.72132406 34.6065325,8.76114746 L34.6065325,8.92044105 C34.4870623,9.07973464 34.307857,9.00008784 34.1485634,9.03991124 C34.4472389,9.11955803 34.7459143,9.11955803 35.0246781,9.03991124 C35.2437068,8.96026444 35.0246781,8.58194217 35.1839717,8.40273688 C35.1043249,8.40273688 35.1839717,8.28326669 35.1043249,8.28326669 C35.1839717,8.20361989 35.2636185,8.1040614 35.3233536,8.064238 C35.4030004,8.064238 35.5025589,8.0244146 35.5423823,7.94476781 C35.5423823,7.86512101 35.3830887,7.82529761 35.4229121,7.76556252 C35.6419408,7.60626893 35.8410578,7.38724024 35.761411,7.16821155 C35.7215876,7.04874136 35.4229121,7.04874136 35.2437068,6.96909457 C35.0645015,6.88944777 34.8255611,6.96909457 34.6065325,7.00891796 C34.4273272,7.00891796 34.2282102,7.12838816 34.0490049,7.16821155 C33.7901528,7.24785835 33.5512124,7.38724024 33.3321837,7.54653383 C33.5910358,7.42706364 33.8498879,7.38724024 34.1485634,7.32750515 C34.3675921,7.28768175 34.5467974,7.24785835 34.7857377,7.28768175" id="Path" fill="#808080"></path>
                </g>
            </g>
        </g>
    </g>
</svg>
