<?xml version="1.0" encoding="UTF-8"?>
<svg width="80px" height="80px" viewBox="0 0 80 80" version="1.1" xmlns="http://www.w3.org/2000/svg" xmlns:xlink="http://www.w3.org/1999/xlink">
    <title>design copy 4</title>
    <g id="Icones" stroke="none" stroke-width="1" fill="none" fill-rule="evenodd">
        <g id="Desktop-HD" transform="translate(-836.000000, -212.000000)">
            <g id="design-copy-4" transform="translate(836.000000, 212.000000)">
                <circle id="Oval" fill="" cx="40" cy="40" r="40"></circle>
                <path d="M40.0464466,26.4 C41.9794432,26.4 43.5464466,27.9670034 43.5464466,29.9 L43.546,41.95 L49.167767,47.5715729 C50.534602,48.9384079 50.534602,51.1544853 49.167767,52.5213203 C47.8009319,53.8881554 45.5848545,53.8881554 44.2180195,52.5213203 L40.046,48.349 L35.8748737,52.5213203 C34.5080387,53.8881554 32.2919613,53.8881554 30.9251263,52.5213203 C29.5582912,51.1544853 29.5582912,48.9384079 30.9251263,47.5715729 L36.546,41.95 L36.5464466,29.9 C36.5464466,27.9670034 38.11345,26.4 40.0464466,26.4 Z" id="Combined-Shape" fill="#161616" transform="translate(40.046447, 39.973223) scale(1, -1) translate(-40.046447, -39.973223) "></path>
            </g>
        </g>
    </g>
</svg>