<?xml version="1.0" encoding="UTF-8"?>
<svg viewBox="0 0 40 40" version="1.1" xmlns="http://www.w3.org/2000/svg" xmlns:xlink="http://www.w3.org/1999/xlink">
    <g id="Site" stroke="none" stroke-width="1" fill="none" fill-rule="evenodd">
        <g id="Main-Copy" transform="translate(-725.000000, -2258.000000)">
            <g id="Logo/Formations-Copy-2" transform="translate(725.000000, 2258.000000)">
                <path d="M14.5000003,20.4644661 L18.0355342,24 C19.011845,24.9763107 19.011845,26.5592232 18.0355342,27.5355339 C17.0592235,28.5118446 15.4763111,28.5118446 14.5000003,27.5355339 L10.9644664,24 C9.98815571,23.0236893 9.98815571,21.4407768 10.9644664,20.4644661 C11.9407772,19.4881554 13.5236896,19.4881554 14.5000003,20.4644661 Z M29.0355342,20.4644661 C30.011845,21.4407768 30.011845,23.0236893 29.0355342,24 L25.5000003,27.5355339 C24.5236896,28.5118446 22.9407772,28.5118446 21.9644664,27.5355339 C20.9881557,26.5592232 20.9881557,24.9763107 21.9644664,24 L25.5000003,20.4644661 C26.4763111,19.4881554 28.0592235,19.4881554 29.0355342,20.4644661 Z M20.0000003,11 C22.7614241,11 25.0000003,13.2385763 25.0000003,16 C25.0000003,18.7614237 22.7614241,21 20.0000003,21 C17.2385766,21 15.0000003,18.7614237 15.0000003,16 C15.0000003,13.2385763 17.2385766,11 20.0000003,11 Z" id="Forme" fill="#FF5638"></path>
                <path d="M20,0 C31.045695,0 40,8.954305 40,20 C40,31.045695 31.045695,40 20,40 C8.954305,40 0,31.045695 0,20 C0,8.954305 8.954305,0 20,0 Z M20,6 C12.2680135,6 6,12.2680135 6,20 C6,27.7319865 12.2680135,34 20,34 C27.7319865,34 34,27.7319865 34,20 C34,12.2680135 27.7319865,6 20,6 Z" id="Cercle" fill="#3355E3"></path>
            </g>
        </g>
    </g>
</svg>
