<?xml version="1.0" encoding="UTF-8"?>
<svg viewBox="0 0 40 40" version="1.1" xmlns="http://www.w3.org/2000/svg" xmlns:xlink="http://www.w3.org/1999/xlink">
    <g id="Site" stroke="none" stroke-width="1" fill="none" fill-rule="evenodd">
        <g id="Main-Copy" transform="translate(-1026.000000, -2368.000000)">
            <g id="equipe" transform="translate(1026.000000, 2368.000000)">
                <circle id="Oval" fill="#EBE8F5" cx="20" cy="20" r="20"></circle>
                <path d="M13.2,19.5 C15.9614237,19.5 18.2,21.7385763 18.2,24.5 C18.2,27.2614237 15.9614237,29.5 13.2,29.5 C10.4385763,29.5 8.2,27.2614237 8.2,24.5 C8.2,21.7385763 10.4385763,19.5 13.2,19.5 Z M26.8,19.5 C29.5614237,19.5 31.8,21.7385763 31.8,24.5 C31.8,27.2614237 29.5614237,29.5 26.8,29.5 C24.0385763,29.5 21.8,27.2614237 21.8,24.5 C21.8,21.7385763 24.0385763,19.5 26.8,19.5 Z M20.1000003,8.5 C22.8614241,8.5 25.1000003,10.7385763 25.1000003,13.5 C25.1000003,16.2614237 22.8614241,18.5 20.1000003,18.5 C17.3385766,18.5 15.1000003,16.2614237 15.1000003,13.5 C15.1000003,10.7385763 17.3385766,8.5 20.1000003,8.5 Z" id="Forme-Copy-2" fill="#4020A0"></path>
            </g>
        </g>
    </g>
</svg>
