<?xml version="1.0" encoding="UTF-8"?>
<svg width="80px" height="80px" viewBox="0 0 80 80" version="1.1" xmlns="http://www.w3.org/2000/svg" xmlns:xlink="http://www.w3.org/1999/xlink">
    <title>Group 22</title>
    <g id="Site" stroke="none" stroke-width="1" fill="none" fill-rule="evenodd">
        <g id="Desktop-HD-Copy-3" transform="translate(-276.000000, -1468.000000)">
            <g id="Group-13" transform="translate(244.000000, 1364.000000)">
                <g id="Group-23" transform="translate(0.000000, 72.000000)">
                    <g id="Group-22" transform="translate(32.000000, 32.000000)">
                        <circle id="Oval" fill="var(--background-alt-blue-france)" cx="40" cy="40" r="40"></circle>
                        <g id="tools-solid" transform="translate(23.500000, 23.500000)" fill="var(--blue-france-850-200)" fill-rule="nonzero">
                            <path d="M32.2988854,25.5016112 L24.7518446,17.9548872 C23.2630603,16.4661654 21.0395513,16.1761547 19.2478542,17.0590763 L12.3775335,10.189044 L12.3775335,6.18689581 L4.12799283,0 L0.00322247684,4.12459721 L6.19037801,12.3737916 L10.1926942,12.3737916 L17.0630149,19.2438238 C16.1865012,21.0354458 16.4700791,23.2588614 17.9588634,24.7475832 L25.5059042,32.2943072 C26.4468674,33.2352309 27.9678765,33.2352309 28.9023948,32.2943072 L32.2988854,28.8979592 C33.2334037,27.9570354 33.2334037,26.4360902 32.2988854,25.5016112 L32.2988854,25.5016112 Z M21.3811338,14.5005371 C23.2050557,14.5005371 24.9194134,15.2094522 26.2084041,16.4983888 L27.4587252,17.7486574 C28.4770278,17.3039742 29.4437709,16.6852846 30.2816149,15.8474758 C32.6726927,13.4564984 33.4847569,10.0923738 32.7242523,7.03759398 C32.5824633,6.4575725 31.8541836,6.25778733 31.4288166,6.68313641 L26.6337711,11.4779807 L22.2576475,10.7497315 L21.5293678,6.37379162 L26.3244133,1.57894737 C26.7497803,1.15359828 26.5435417,0.425349087 25.957051,0.277121375 C22.9021429,-0.476906552 19.5378771,0.335123523 17.1532442,2.71965628 C15.3164324,4.55639098 14.4528086,6.97959184 14.4979233,9.39634801 L19.7892303,14.6874329 C20.3112715,14.5649839 20.8526476,14.5005371 21.3811338,14.5005371 Z M14.684827,19.7851772 L11.0305382,16.1310419 L1.20842882,25.9591837 C-0.402809605,27.5703545 -0.402809605,30.1804511 1.20842882,31.7916219 C2.81966724,33.4027927 5.42987348,33.4027927 7.0411119,31.7916219 L15.0070746,23.8259936 C14.5172582,22.5435016 14.3690242,21.1450054 14.684827,19.7851772 L14.684827,19.7851772 Z M4.12799283,30.4189044 C3.27725895,30.4189044 2.58120395,29.7228786 2.58120395,28.8721805 C2.58120395,28.0150376 3.27081399,27.3254565 4.12799283,27.3254565 C4.98517167,27.3254565 5.67478172,28.0150376 5.67478172,28.8721805 C5.67478172,29.7228786 4.98517167,30.4189044 4.12799283,30.4189044 Z" id="Shape"></path>
                        </g>
                    </g>
                </g>
            </g>
        </g>
    </g>
</svg>
