<?xml version="1.0" encoding="UTF-8"?>
<svg viewBox="0 0 40 40" version="1.1" xmlns="http://www.w3.org/2000/svg" xmlns:xlink="http://www.w3.org/1999/xlink">
    <g id="Site" stroke="none" stroke-width="1" fill="none" fill-rule="evenodd">
        <g id="Main-Copy" transform="translate(-705.000000, -2321.000000)">
            <g id="formation" transform="translate(705.000000, 2321.000000)">
                <circle id="Oval" fill="#82F7E4" cx="20" cy="20" r="20"></circle>
                <path d="M20.5,21 C22.4329966,21 24,22.5670034 24,24.5 C24,26.4329966 22.4329966,28 20.5,28 L14.5,28 C12.5670034,28 11,26.4329966 11,24.5 C11,22.5670034 12.5670034,21 14.5,21 L20.5,21 Z M25.5,12 C27.4329966,12 29,13.5670034 29,15.5 C29,17.4329966 27.4329966,19 25.5,19 L19,19 C17.0670034,19 15.5,17.4329966 15.5,15.5 C15.5,13.5670034 17.0670034,12 19,12 L25.5,12 Z" id="Forme" fill="#0F3AE6"></path>
            </g>
        </g>
    </g>
</svg>
