<?xml version="1.0" encoding="UTF-8"?>
<svg width="40px" height="40px" viewBox="0 0 40 40" version="1.1" xmlns="http://www.w3.org/2000/svg" xmlns:xlink="http://www.w3.org/1999/xlink">
    <g id="Site" stroke="none" stroke-width="1" fill="none" fill-rule="evenodd">
        <g id="Main-Copy-5" transform="translate(-260.000000, -1724.000000)">
            <g id="Main" transform="translate(260.000000, 646.000000)">
                <g id="Card-Copy-4" transform="translate(0.000000, 1078.000000)">
                    <g id="formation">
                        <path d="M20.5,21 C22.4329966,21 24,22.5670034 24,24.5 C24,26.4329966 22.4329966,28 20.5,28 L14.5,28 C12.5670034,28 11,26.4329966 11,24.5 C11,22.5670034 12.5670034,21 14.5,21 L20.5,21 Z M25.5,12 C27.4329966,12 29,13.5670034 29,15.5 C29,17.4329966 27.4329966,19 25.5,19 L19,19 C17.0670034,19 15.5,17.4329966 15.5,15.5 C15.5,13.5670034 17.0670034,12 19,12 L25.5,12 Z" id="Combined-Shape-Copy-4" fill="#FF5F42"></path>
                        <path d="M20,0 C31.045695,0 40,8.954305 40,20 C40,31.045695 31.045695,40 20,40 C8.954305,40 0,31.045695 0,20 C0,8.954305 8.954305,0 20,0 Z M20,6 C12.2680135,6 6,12.2680135 6,20 C6,27.7319865 12.2680135,34 20,34 C27.7319865,34 34,27.7319865 34,20 C34,12.2680135 27.7319865,6 20,6 Z" id="Combined-Shape" fill="#3355E3"></path>
                    </g>
                </g>
            </g>
        </g>
    </g>
</svg>
