<?xml version="1.0" encoding="UTF-8"?>
<svg viewBox="0 0 252 213" version="1.1" xmlns="http://www.w3.org/2000/svg" xmlns:xlink="http://www.w3.org/1999/xlink">
    <g id="Site" stroke="none" stroke-width="1" fill="none" fill-rule="evenodd">
        <g id="Main-Copy-9" transform="translate(-260.000000, -2245.000000)">
            <g id="Content" transform="translate(251.000000, 933.000000)">
                <g id="Group-8" transform="translate(9.000000, 1303.000000)">
                    <g id="FormationsIllustration" transform="translate(0.000000, 10.000000)">
                        <path d="M215.060875,211.717761 C218.961175,205.953771 220.587901,201.371399 220.587901,199.565348 C220.587901,181.696979 160.171678,162.621374 99.5441091,159.118149 C99.5345024,150.129527 56.1700836,90.3025116 30.7444828,90.3025116 C12.6583627,90.3025116 0.252975121,101.830492 0.252975121,128.408891 C0.252975121,162.057784 13.5229612,190.50948 32.4384554,211.717761 L215.060875,211.717761 Z" id="Path" fill="#EBECF0" fill-rule="nonzero"></path>
                        <path d="M214.068188,145.409459 C216.52749,145.409459 217.82759,121.844346 217.82759,119.244146 C217.82759,116.643946 212.204498,92.0253042 195.159098,92.0253042 C188.732249,92.0253042 184.165888,98.730746 184.165888,107.114149 C184.165888,118.709376 199.975232,127.323339 202.418524,129.933146 C206.629439,134.419451 208.864586,145.409459 214.068188,145.409459 Z" id="Path" fill="#FF5F42" fill-rule="nonzero"></path>
                        <path d="M217.158327,157.078337 C215.634072,157.078337 211.503212,145.646423 211.503212,136.199884 C211.503212,125.190663 221.542162,111.718937 222.887093,106.857972 C225.26634,98.2376047 229.185853,81.413158 241.139728,81.413158 C247.928428,81.413158 251.944007,88.8679185 251.944007,96.6108786 C251.944007,104.065639 244.674975,110.518106 238.136049,117.928035 C231.731615,125.190663 232.471328,131.313301 228.90726,140.199453 C225.256733,149.277737 219.291004,157.078337 217.158327,157.078337 Z" id="Path" fill="#FFDBAC" fill-rule="nonzero"></path>
                        <path d="M217.011025,154.628641 C214.798293,141.566799 228.807992,102.486946 239.448958,91.5449717" id="Path" stroke="#FF5F42" stroke-width="0.76212758" stroke-linecap="round" stroke-linejoin="round"></path>
                        <path d="M198.617492,101.353362 C200.759775,103.120985 213.242016,123.925787 214.173861,133.951928" id="Path" stroke="#FFDBAC" stroke-width="0.76212758" stroke-linecap="round" stroke-linejoin="round"></path>
                        <polyline id="Path" fill="#D7D8DB" fill-rule="nonzero" points="217.955679 152.204563 235.07473 152.204563 226.515204 211.717761 217.955679 211.717761 217.721917 211.717761 209.162392 211.717761 200.606069 152.204563 217.721917 152.204563"></polyline>
                        <path d="M73.6349736,77.6953844 C73.6349736,104.8758 81.9607371,104.744509 81.9607371,108.692842 C81.9607371,116.451813 78.0828526,115.545586 78.0828526,115.545586 C78.0828526,115.545586 38.1416034,111.651691 73.6349736,77.6953844 Z" id="Path" fill="#FF5F42" fill-rule="nonzero"></path>
                        <line x1="145.505526" y1="24.8780217" x2="145.505526" y2="0.0608421178" id="Path" stroke="#D7D8DB" stroke-width="0.76212758" stroke-linecap="round" stroke-linejoin="round"></line>
                        <circle id="Oval" fill="#FFDBAC" fill-rule="nonzero" cx="145.505526" cy="44.7669898" r="5.4757906"></circle>
                        <path d="M219.27179,183.855273 C217.187147,180.223959 141.778145,156.991877 133.087329,156.636431 C116.756024,153.869716 106.006182,162.787889 102.048243,170.566074 C117.25557,173.982839 135.351297,178.981499 139.959286,180.880414 L141.086467,180.880414 C141.72691,180.84519 142.453813,180.838785 143.289592,180.861201 C149.024762,180.793954 153.808874,180.659461 156.38986,180.505755 C164.222482,183.426176 215.240199,194.71399 216.495468,194.031918 C217.750737,193.349846 220.197231,185.462786 219.27179,183.855273 Z" id="Path" fill="#3355E3" fill-rule="nonzero"></path>
                        <path d="M82.5467427,167.155713 C87.1771481,167.373464 96.4859921,169.230749 106.339213,171.545952 C112.352976,165.695502 116.884113,157.712376 116.448611,148.16977 C107.162183,126.766153 70.0164687,99.0957988 54.4857176,99.1086032 C52.1513016,101.029938 51.6389469,115.033231 49.868121,123.189277 C49.2276777,126.180148 52.2921991,134.826133 56.9129978,144.621714 C67.4995263,152.646469 77.6537556,161.852842 82.5467427,167.155713 Z" id="Path" fill="#3355E3" fill-rule="nonzero"></path>
                        <polygon id="Path" fill="#FFDBAC" fill-rule="nonzero" points="218.215059 186.096825 224.834041 187.797202 222.797431 194.461015 216.236089 193.279397"></polygon>
                        <path d="M64.5502847,95.0225791 C64.4286005,96.572452 64.5086559,103.053739 65.2835924,106.191911 C63.0836695,106.153484 49.9545809,94.0843296 64.5502847,95.0225791 Z" id="Path" fill="#FFDBAC" fill-rule="nonzero"></path>
                        <ellipse id="Oval" fill="#FFDBAC" fill-rule="nonzero" cx="61.4761567" cy="81.4291691" rx="11.6080356" ry="15.2105294"></ellipse>
                        <path d="M60.7556579,62.0557579 C45.6219817,62.0557579 39.6210275,83.9621225 39.6210275,95.9992552 C39.6210275,106.787523 43.6718317,109.675923 45.5195107,110.559735 C47.3671898,111.443546 52.0296173,111.606859 55.0044767,112.327358 C58.8151146,113.252799 60.8837466,116.74962 64.406185,116.74962 C67.1408781,116.74962 68.7515931,114.094982 68.7515931,111.946294 C68.7515931,103.239467 54.1847092,95.9352108 54.1847092,82.979042 C56.9770422,82.018377 67.4290776,74.4067078 67.4290776,71.3774108 C67.4290776,73.4332339 72.7767795,79.0178999 73.6798046,79.4149748 C74.0768795,78.1052681 71.8897655,62.0557579 60.7556579,62.0557579 Z" id="Path" fill="#FF5F42" fill-rule="nonzero"></path>
                        <rect id="Rectangle" fill="#EBECF0" fill-rule="nonzero" transform="translate(109.616872, 135.544529) rotate(3.290000) translate(-109.616872, -135.544529) " x="101.166222" y="120.457285" width="16.9012999" height="30.1744882"></rect>
                        <polygon id="Path" fill="#EBECF0" fill-rule="nonzero" points="132.664637 141.211353 121.114241 150.129527 122.84664 120.003072 134.397036 111.084898"></polygon>
                        <line x1="103.088963" y1="118.091348" x2="120.012678" y2="120.704357" id="Path" stroke="#D7D8DB" stroke-width="0.76212758" stroke-linecap="round" stroke-linejoin="round"></line>
                        <line x1="129.033323" y1="110.546926" x2="120.806828" y2="120.704357" id="Path" stroke="#D7D8DB" stroke-width="0.76212758" stroke-linecap="round" stroke-linejoin="round"></line>
                        <line x1="131.236448" y1="111.437142" x2="121.476091" y2="120.428967" id="Path" stroke="#D7D8DB" stroke-width="0.76212758" stroke-linecap="round" stroke-linejoin="round"></line>
                        <polygon id="Path" fill="#FFDBAC" fill-rule="nonzero" points="183.759207 184.675041 187.012659 189.45595 191.63666 186.605977 188.89236 181.981976"></polygon>
                        <path d="M145.505526,24.8780217 C139.940484,24.8780217 134.603418,27.0889451 130.66864,31.0243242 C126.733861,34.9597033 124.523752,40.2971061 124.524602,45.8621479 L166.473641,45.8621479 C166.473641,34.2791849 157.088485,24.8868596 145.505526,24.8780217 Z" id="Path" fill="#EBECF0" fill-rule="nonzero"></path>
                        <circle id="Oval" fill="#FFDBAC" fill-rule="nonzero" cx="53.2240442" cy="84.4520617" r="3.02289259"></circle>
                        <polygon id="Path" fill="#D7D8DB" fill-rule="nonzero" points="121.114241 150.129527 117.181919 151.099798 118.914318 120.976546 122.84664 120.003072"></polygon>
                        <polygon id="Path" fill="#323233" fill-rule="nonzero" points="186.096825 189.199773 188.485679 195.805946 208.50914 190.724028 207.747012 186.858953 191.486156 185.69975"></polygon>
                        <polygon id="Path" fill="#323233" fill-rule="nonzero" points="222.429176 194.095962 228.772767 197.118855 239.448958 179.42981 236.192303 177.217078 223.806129 187.82282"></polygon>
                        <path d="M153.16843,116.74962 C137.68251,120.272058 110.921585,148.771787 97.6996323,169.611813 C107.283867,171.635614 118.834263,174.552834 127.592325,177.008934 C140.916749,166.640156 150.648286,150.110313 152.089283,148.137748 C155.727002,155.544475 181.575295,185.69975 183.471007,185.69975 C185.36672,185.69975 188.450454,184.354819 189.664094,182.065234 C188.575341,175.603161 161.378914,115.577608 153.16843,116.74962 Z" id="Path" fill="#3355E3" fill-rule="nonzero"></path>
                        <path d="M66.1033598,151.951588 C78.1020659,150.859632 101.388586,146.581471 103.380365,146.158778 C105.884498,145.630412 108.158072,137.813801 105.958149,133.186598 C105.199224,131.822454 104.357041,131.787229 103.716597,131.937733 C103.076154,132.088238 101.548697,137.720937 99.9892172,138.021945 C98.4297377,138.322954 69.6033827,140.045746 67.1664958,140.154622 C66.8462741,138.636771 63.9162458,127.640359 63.2117581,126.772558 C62.5072705,125.904757 47.2326967,133.586875 47.2326967,133.586875 C47.9354521,135.572713 48.7566944,137.514609 49.6919991,139.402101 C55.2094185,143.183919 60.9125665,147.622191 66.1033598,151.951588 Z" id="Path" fill="#FFDBAC" fill-rule="nonzero"></path>
                        <path d="M45.2185024,104.072044 C50.2267693,102.298015 61.49537,108.60318 64.8512931,126.47155 C62.9299631,129.158209 52.3626479,135.031075 46.2239984,134.944615 C43.5405408,132.571772 34.5647273,107.831446 45.2185024,104.072044 Z" id="Path" fill="#3355E3" fill-rule="nonzero"></path>
                    </g>
                </g>
            </g>
        </g>
    </g>
</svg>
