<?xml version="1.0" encoding="UTF-8"?>
<svg viewBox="0 0 263 222" version="1.1" xmlns="http://www.w3.org/2000/svg" xmlns:xlink="http://www.w3.org/1999/xlink">
  <path d="M223.921333,220.519835 C227.983787,214.516209 229.678143,209.743327 229.678143,207.862191 C229.678143,189.250952 166.750142,169.382287 103.602008,165.733417 C103.592002,156.371096 58.4247261,94.0567993 31.942067,94.0567993 C13.1040244,94.0567993 0.182888221,106.06405 0.182888221,133.747434 C0.182888221,168.795266 14.0045682,198.429828 33.7064659,220.519835 L223.921333,220.519835 Z" id="Path" fill="#EBECF0" fill-rule="nonzero"></path>
  <path d="M251.084403,84.7978747 C258.15534,84.7978747 262.337866,92.5625636 262.337866,100.627434 C262.337866,108.392123 254.766627,115.112848 247.955847,122.830842 C241.285152,130.39541 242.055618,136.772595 238.343376,146.028184 C234.54108,155.483894 228.327327,163.608801 226.105986,163.608801 C225.004018,163.608801 222.59405,157.872242 221.222741,151.072367 C216.937144,149.04689 214.662733,139.50008 210.753381,135.33506 C208.208511,132.616752 191.741901,123.644667 191.741901,111.567374 C191.741901,102.835434 196.498106,95.8512162 203.192149,95.8512162 C218.849611,95.8512162 225.253876,115.794749 226.548096,122.362719 C229.036114,117.577446 231.449953,113.552136 232.072923,111.300546 C234.551086,102.32179 238.633551,84.7978747 251.084403,84.7978747 Z" id="Combined-Shape" fill="#FF5F42" fill-rule="nonzero"></path>
  <polyline id="Path" fill="#D7D8DB" fill-rule="nonzero" points="226.936488 158.532402 244.767255 158.532402 235.851871 220.519835 226.936488 220.519835 226.693007 220.519835 217.777623 220.519835 208.865575 158.532402 226.693007 158.532402"></polyline>
  <path d="M76.6157114,80.9255362 C76.6157114,109.235966 85.2876148,109.099216 85.2876148,113.2117 C85.2876148,121.293247 81.248509,120.349344 81.248509,120.349344 C81.248509,120.349344 39.6467198,116.293561 76.6157114,80.9255362 Z" id="Path" fill="#000000" fill-rule="nonzero"></path>
  <line x1="151.47425" y1="25.9123147" x2="151.47425" y2="0.0633716024" id="Path" stroke="#D7D8DB" stroke-width="0.793812703" stroke-linecap="round" stroke-linejoin="round"></line>
  <circle id="Oval" fill="#FFFF8F" fill-rule="nonzero" cx="151.47425" cy="46.6281579" r="5.70344421"></circle>
  <path d="M228.307315,191.498976 C226.136004,187.716692 147.591906,163.518746 138.539773,163.148523 C121.529501,160.266782 110.332739,169.555725 106.21025,177.657284 C122.049815,181.2161 140.897864,186.422577 145.697429,188.400438 L146.871471,188.400438 C147.53854,188.36375 148.295664,188.357079 149.16619,188.380426 C155.139797,188.310384 160.122807,188.170299 162.811097,188.010203 C170.969357,191.05204 224.108113,202.80914 225.415569,202.098711 C226.723025,201.388282 229.271231,193.173321 228.307315,191.498976 Z" id="Path" fill="#748CEC" fill-rule="nonzero"></path>
  <path d="M85.8979834,174.105139 C90.7208959,174.331943 100.416751,176.266444 110.679615,178.677901 C116.943398,172.584221 121.662915,164.269199 121.209307,154.329864 C111.5368,132.036401 72.8467687,103.215664 56.6703334,103.229 C54.238865,105.230213 53.7052094,119.815688 51.8607623,128.310818 C51.1936928,131.426033 54.3856203,140.431471 59.1985268,150.634299 C70.2251856,158.99268 80.8015725,168.581804 85.8979834,174.105139 Z" id="Path" fill="#FCFC8E" fill-rule="nonzero"></path>
  <polygon id="Path" fill="#E49D75" fill-rule="nonzero" points="227.206651 193.83372 234.100814 195.604789 231.979533 202.545647 225.145406 201.314904"></polygon>
  <path d="M67.1533305,98.9731015 C67.0265873,100.58741 67.109971,107.338153 67.9171251,110.606794 C65.6257414,110.566769 51.9508167,97.9958447 67.1533305,98.9731015 Z" id="Path" fill="#E49D75" fill-rule="nonzero"></path>
  <ellipse id="Oval" fill="#E49D75" fill-rule="nonzero" cx="63.9513969" cy="84.8145514" rx="12.0906347" ry="15.8429006"></ellipse>
  <path d="M63.2009437,64.6356991 C47.4380915,64.6356991 41.1876503,87.4528113 41.1876503,99.9903825 C41.1876503,111.227168 45.4068649,114.235652 47.3313604,115.156208 C49.2558559,116.076763 54.1121218,116.246866 57.2106596,116.997319 C61.1797232,117.961235 63.3343576,121.603434 67.0032399,121.603434 C69.8516266,121.603434 71.5293064,118.838431 71.5293064,116.600413 C71.5293064,107.531603 56.3568107,99.9236755 56.3568107,86.4288596 C59.2652337,85.4282553 70.1518079,77.5001343 70.1518079,74.3448956 C70.1518079,76.4861887 75.7218382,82.3030347 76.6624062,82.7166178 C77.0759893,81.3524607 74.797947,64.6356991 63.2009437,64.6356991 Z" id="Path" fill="#323233" fill-rule="nonzero"></path>
  <path d="M139.90393,115.703205 L138.099507,147.082154 L126.068909,156.371096 L121.973102,157.381707 L121.972215,157.373205 L104.404215,156.36318 L106.207917,124.986 L123.782867,125.996288 L123.782215,126.004205 L127.873332,124.992147 L139.90393,115.703205 Z" id="Combined-Shape" fill="#D7D8DB" fill-rule="nonzero"></path>
  <path d="M107.294238,123.000945 L124.921549,125.722588 M134.317223,115.142866 L125.748715,125.722588 M136.611942,116.070093 L126.445803,125.435748" id="Combined-Shape" stroke="#D7D8DB" stroke-width="0.793812703" stroke-linecap="round" stroke-linejoin="round"></path>
  <polygon id="Path" fill="#E49D75" fill-rule="nonzero" points="191.318312 192.352825 194.707025 197.332499 199.523266 194.36404 196.664874 189.547798"></polygon>
  <path d="M151.47425,25.9123147 C145.677844,25.9123147 140.118893,28.2151562 136.020528,32.314147 C131.922162,36.4131378 129.620169,41.9724408 129.621053,47.7688468 L173.314106,47.7688468 C173.314106,35.7043271 163.538767,25.92152 151.47425,25.9123147 Z" id="Path" fill="#EBECF0" fill-rule="nonzero"></path>
  <circle id="Oval" fill="#E49D75" fill-rule="nonzero" cx="55.3562064" cy="87.9631194" r="3.14856803"></circle>
  <polygon id="Path" fill="#323233" fill-rule="nonzero" points="193.753115 197.065671 196.241285 203.946493 217.097212 198.653297 216.3034 194.627532 199.366505 193.420136"></polygon>
  <polygon id="Path" fill="#323233" fill-rule="nonzero" points="231.595968 202.165418 238.203291 205.313986 249.32334 186.889526 245.931291 184.584801 233.030167 195.631472"></polygon>
  <path d="M159.455737,121.603434 C143.325997,125.272316 115.452498,154.956909 101.680848,176.663351 C111.663543,178.77129 123.694141,181.809792 132.816317,184.368003 C146.694698,173.568148 156.830819,156.351084 158.331725,154.29651 C162.12068,162.011169 189.043605,193.420136 191.01813,193.420136 C192.992656,193.420136 196.204596,192.01929 197.468692,189.634517 C196.334674,182.903786 168.007568,120.382697 159.455737,121.603434 Z" id="Path" fill="#8C9FEE" fill-rule="nonzero"></path>
  <path d="M68.7709741,158.268909 C81.2685211,157.131556 105.523168,152.675531 107.597754,152.235266 C110.205996,151.684933 112.574093,143.54335 110.282709,138.723773 C109.492232,137.302915 108.615035,137.266226 107.947966,137.422987 C107.280896,137.579749 105.689935,143.446625 104.065621,143.760148 C102.441307,144.07367 72.4165089,145.868087 69.8783094,145.981489 C69.5447747,144.400534 66.4929317,132.946951 65.7591553,132.043072 C65.0253788,131.139193 49.1157713,139.140691 49.1157713,139.140691 C49.8477434,141.20909 50.7031285,143.231719 51.6773182,145.197682 C57.4241219,149.136728 63.3643758,153.759519 68.7709741,158.268909 Z" id="Path" fill="#E49D75" fill-rule="nonzero"></path>
  <path d="M47.0178377,108.398794 C52.2343212,106.551011 63.971409,113.11831 67.4668532,131.729549 C65.4656447,134.527906 54.458998,140.644933 48.0651368,140.554879 C45.2701156,138.083386 35.9211366,112.314491 47.0178377,108.398794 Z" id="Path" fill="#FFFF8F" fill-rule="nonzero"></path>
</svg>
