<?xml version="1.0" encoding="UTF-8"?>
<svg width="164px" height="113.5px" viewBox="0 0 328 227" version="1.1" xmlns="http://www.w3.org/2000/svg" xmlns:xlink="http://www.w3.org/1999/xlink">
    <title>illustration_accessibility</title>
    <g id="Page-1" stroke="none" stroke-width="1" fill="none" fill-rule="evenodd">
        <g id="illustration_accessibility" fill-rule="nonzero">
            <path d="M88.8030678,206.950916 L8.79177616,206.950916 C8.79177616,206.950916 7.16992709,183.128284 16.7658759,182.857571 C26.3618247,182.586858 25.280591,193.415329 37.3093134,178.526183 C49.3380358,163.637037 63.9346924,164.44918 65.8268507,173.247304 C67.7190089,182.045427 62.1776888,189.083941 72.3142529,186.918247 C82.4508171,184.752553 97.0474737,190.4375 88.8030678,206.950916 Z" id="Path" fill="#F9A826"></path>
            <path d="M47.446804,206.956347 L47.1767587,206.945508 C47.8065337,191.260889 51.0865307,181.183347 53.7271855,175.491394 C56.5943373,169.310959 59.3572036,166.808989 59.3847868,166.784404 L59.5644222,166.98671 C59.5372318,167.011031 56.8065629,169.488151 53.9623861,175.62675 C51.3363144,181.294634 48.0742674,191.330796 47.446804,206.956347 Z" id="Path" fill="#F2F2F2"></path>
            <path d="M76.4049136,206.988722 L76.1454279,206.913112 C79.2700776,196.172148 86.6281939,189.390607 86.7022368,189.323315 L86.883851,189.523702 C86.8104678,189.590469 79.5073889,196.324028 76.4049136,206.988722 Z" id="Path" fill="#F2F2F2"></path>
            <path d="M21.3939169,206.969559 L21.1261172,206.932281 C22.1862318,199.275157 20.2713054,193.334303 18.4781318,189.698994 C16.5365457,185.762826 14.3212176,183.613004 14.2990431,183.591721 L14.486069,183.396354 C14.5085733,183.417901 16.7581496,185.600779 18.7204591,189.579101 C20.5303955,193.248514 22.4634698,199.244224 21.3939169,206.969559 Z" id="Path" fill="#F2F2F2"></path>
            <path d="M99.6621164,207.313062 L0.161805339,207.313062 L0.138851335,206.975507 C0.0816462162,206.135775 -1.18764183,186.328239 5.22075261,179.260789 C6.65335708,177.680875 8.37905082,176.851574 10.3498061,176.796052 C14.5270301,176.677052 17.1521184,178.244057 19.2694184,179.501799 C23.260195,181.872817 25.8965774,183.439292 35.4821765,171.574116 C45.8663447,158.720322 57.0704649,155.954987 63.5113596,157.492639 C67.6728671,158.486386 70.5410771,161.294865 71.3806192,165.198055 C72.1754886,168.894011 71.9223019,172.366814 71.718906,175.157257 C71.5012087,178.142913 71.3292396,180.501203 72.553681,181.569919 C73.5757817,182.461639 75.6159297,182.542801 78.9737383,181.825075 C85.8035917,180.365934 95.3333919,181.614479 100.116744,187.803991 C102.690276,191.133925 104.717532,197.186928 99.7620365,207.112887 L99.6621164,207.313062 Z M0.840852286,206.588785 L99.2143604,206.588785 C102.907104,199.085654 103.022395,192.747078 99.5448789,188.247287 C95.1568445,182.569323 85.9508679,181.074816 79.1245313,182.533429 C75.4764578,183.313042 73.3026573,183.184313 72.0785697,182.115951 C70.5815225,180.809581 70.7651425,178.291976 70.9974948,175.104563 C71.1977128,172.360271 71.446663,168.944936 70.6736923,165.350469 C69.895241,161.7309 67.22354,159.123646 63.3436448,158.197267 C57.1082689,156.707354 46.2171878,159.437858 36.0443607,172.029599 C26.0659201,184.381041 23.059995,182.595836 18.9006042,180.124731 C16.7571722,178.85161 14.3234752,177.407667 10.3703076,177.519951 C8.60365287,177.569816 7.05133141,178.319367 5.75610018,179.747743 C-0.00345689168,186.099419 0.699779306,203.910974 0.840852286,206.588785 Z" id="Shape" fill="#CFCCE0"></path>
            <path d="M313.965773,206.950916 L233.954482,206.950916 C233.954482,206.950916 232.332633,183.128284 241.928582,182.857571 C251.52453,182.586858 250.443297,193.415329 262.472019,178.526183 C274.500741,163.637037 289.097398,164.44918 290.989556,173.247304 C292.881715,182.045427 287.340394,189.083941 297.476959,186.918247 C307.613523,184.752553 322.210179,190.4375 313.965773,206.950916 Z" id="Path" fill="#F9A826"></path>
            <path d="M272.60951,206.956347 L272.339464,206.945508 C272.969239,191.260889 276.249236,181.183347 278.889891,175.491394 C281.757043,169.310959 284.519909,166.808989 284.547492,166.784404 L284.727128,166.98671 C284.699937,167.011031 281.969269,169.488151 279.125092,175.62675 C276.49902,181.294634 273.236973,191.330796 272.60951,206.956347 Z" id="Path" fill="#F2F2F2"></path>
            <path d="M301.567619,206.988722 L301.308134,206.913112 C304.432783,196.172148 311.7909,189.390607 311.864942,189.323315 L312.046557,189.523702 C311.973173,189.590469 304.670095,196.324028 301.567619,206.988722 Z" id="Path" fill="#F2F2F2"></path>
            <path d="M246.556623,206.969559 L246.288823,206.932281 C247.348937,199.275157 245.434011,193.334303 243.640838,189.698994 C241.699251,185.762826 239.483923,183.613004 239.461749,183.591721 L239.648775,183.396354 C239.671279,183.417901 241.920855,185.600779 243.883165,189.579101 C245.693101,193.248514 247.626175,199.244224 246.556623,206.969559 Z" id="Path" fill="#F2F2F2"></path>
            <path d="M324.824822,207.313062 L225.324511,207.313062 L225.301557,206.975507 C225.244352,206.135775 223.975064,186.328239 230.383458,179.260789 C231.816063,177.680875 233.541756,176.851574 235.512512,176.796052 C239.689736,176.677052 242.314824,178.244057 244.432124,179.501799 C248.422901,181.872817 251.059283,183.439292 260.644882,171.574116 C271.02905,158.720322 282.233171,155.954987 288.674065,157.492639 C292.835573,158.486386 295.703783,161.294865 296.543325,165.198055 C297.338194,168.894011 297.085008,172.366814 296.881612,175.157257 C296.663914,178.142913 296.491945,180.501203 297.716387,181.569919 C298.738487,182.461639 300.778635,182.542801 304.136444,181.825075 C310.966297,180.365934 320.496098,181.614479 325.27945,187.803991 C327.852982,191.133925 329.880238,197.186928 324.924742,207.112887 L324.824822,207.313062 Z M226.003558,206.588797 L324.377066,206.588797 C328.069809,199.085666 328.185101,192.74709 324.707585,188.247299 C320.31955,182.569335 311.113574,181.074828 304.287237,182.533441 C300.639163,183.313054 298.465363,183.184325 297.241275,182.115963 C295.744228,180.809593 295.927848,178.291988 296.160201,175.104575 C296.360418,172.360283 296.609369,168.944948 295.836398,165.350481 C295.057947,161.730912 292.386246,159.123658 288.50635,158.197279 C282.270975,156.707366 271.379893,159.43787 261.207066,172.029611 C251.228626,184.381053 248.222701,182.595848 244.06331,180.124743 C241.919878,178.851622 239.486181,177.407679 235.533013,177.519963 C233.766359,177.569828 232.214037,178.319379 230.918806,179.747755 C225.159249,186.099419 225.862485,203.910974 226.003558,206.588797 L226.003558,206.588797 Z" id="Shape" fill="#CFCCE0"></path>
            <path d="M154.202355,139.300625 C147.189631,139.300625 141.040381,146.636088 137.649448,157.589739 C137.409595,158.358416 137.184732,159.148112 136.97486,159.949818 C135.546859,165.565114 134.8376,171.339468 134.864147,177.133958 C134.864147,197.996339 143.537858,214.967291 154.202355,214.967291 C164.866852,214.967291 173.540564,197.996339 173.540564,177.133958 C173.540564,156.271577 164.866855,139.300625 154.202355,139.300625 Z M154.202355,214.366762 C143.870655,214.366762 135.463781,197.663045 135.463781,177.133958 C135.435935,171.314957 136.154377,165.516465 137.601478,159.880757 C137.799357,159.127093 138.011228,158.388442 138.23709,157.664805 C141.538077,147.014421 147.459467,139.901154 154.202355,139.901154 C164.534055,139.901154 172.940929,156.604871 172.940929,177.133958 C172.940929,197.663045 164.534061,214.366762 154.202355,214.366762 Z" id="Shape" fill="#3F3D56"></path>
            <path d="M158.849522,199.008408 C155.150704,199.008408 152.253543,189.399942 152.253543,177.133958 C152.253543,164.867974 155.150704,155.259509 158.849522,155.259509 C162.548339,155.259509 165.4455,164.867974 165.4455,177.133958 C165.4455,189.399942 162.548339,199.008408 158.849522,199.008408 Z M158.849522,155.860029 C155.599257,155.860029 152.853178,165.602217 152.853178,177.133958 C152.853178,188.665699 155.599257,198.407879 158.849522,198.407879 C162.099786,198.407879 164.845865,188.665699 164.845865,177.133958 C164.845865,165.602217 162.099795,155.860029 158.849522,155.860029 L158.849522,155.860029 Z" id="Shape" fill="#3F3D56"></path>
            <ellipse id="Oval" fill="#CFCCE0" cx="159.599064" cy="177.133958" rx="2.54844607" ry="5.02411053"></ellipse>
            <polygon id="Path" fill="#3F3D56" points="154.052366 108.973812 195.12732 108.82368 195.12732 125.029858 154.052366 126.689421"></polygon>
            <polygon id="Path" fill="#3F3D56" points="118.973155 163.938739 118.37472 163.906011 120.189214 130.893124 157.350355 130.893124 157.350355 131.493653 120.756768 131.493653"></polygon>
            <polygon id="Path" fill="#3F3D56" points="118.911693 217.363009 97.9244899 213.759835 98.0489141 213.172217 119.036117 216.775392"></polygon>
            <polygon id="Rectangle" fill="#3F3D56" transform="translate(135.913503, 225.626673) rotate(-85.292150) translate(-135.913503, -225.626673) " points="135.61467 212.841214 136.215457 212.841141 136.212336 238.412131 135.611549 238.412204"></polygon>
            <path d="M182.310216,163.970351 C182.085353,164.694001 181.873483,165.432652 181.674604,166.186304 L181.047986,166.255364 L161.547876,168.426277 L116.875116,163.922309 L163.346779,161.520193 L181.722575,163.895285 L182.310216,163.970351 Z" id="Path" fill="#3F3D56"></path>
            <path d="M172.095061,56.5203937 C172.095061,56.5203937 165.601533,54.1978144 161.427122,63.4881287 C157.25271,72.778443 150.75918,82.9977848 150.75918,82.9977848 L154.469768,83.9268033 C154.469768,83.9268033 155.397402,77.4235836 157.716533,76.4945531 L156.788884,84.8558338 C156.788884,84.8558338 184.618299,94.6106634 197.141534,83.9268153 L196.677717,80.6752055 C196.677717,80.6752055 198.533012,81.1397147 198.533012,83.9268153 L199.924482,82.5332695 C199.924482,82.5332695 198.533012,79.7461749 194.358598,76.0300498 C191.618697,73.5909468 190.677142,68.9505834 190.353589,66.0493523 C190.111189,63.6267892 189.143378,61.3341518 187.577087,59.4721233 C184.802968,56.2522935 179.748152,52.8300733 172.095061,56.5203937 Z" id="Path" fill="#2F2E41"></path>
            <path d="M136.213324,65.2854132 L133.514969,37.0605455 C133.514969,37.0605455 128.11826,21.7470534 136.213324,22.9481116 C144.308388,24.1491698 139.511313,35.8594873 139.511313,35.8594873 L144.008571,65.2854132 L136.213324,65.2854132 Z" id="Path" fill="#FFB9B9"></path>
            <polygon id="Path" fill="#FFB9B9" points="115.22604 193.498283 112.227868 203.707278 117.924395 208.511511 122.121835 195.600135"></polygon>
            <path d="M138.312044,201.00499 L135.313873,211.814514 L145.807474,218.420334 C145.807474,218.420334 146.107291,206.109487 147.606377,203.707371 L138.312044,201.00499 Z" id="Path" fill="#FFB9B9"></path>
            <path d="M151.204183,143.354196 L149.705097,146.356842 C149.705097,146.356842 132.615518,138.549963 128.11826,149.359487 C123.621002,160.169011 113.727035,194.39917 113.727035,194.39917 L122.421734,198.002344 L138.312044,161.670334 L174.589924,160.76954 L176.08901,140.651815 L151.204183,143.354196 Z" id="Path" fill="#2F2E41"></path>
            <path d="M163.796505,148.458694 C163.796505,148.458694 139.211496,143.354196 137.412593,155.665043 C135.61369,167.975889 138.312044,191.396524 138.611862,191.997053 C138.911679,192.597582 137.412593,203.707371 137.412593,203.707371 L148.206011,205.208694 C148.206011,205.208694 155.101807,172.479858 152.103635,164.07245 L172.389197,162.815801 C179.391619,162.382015 185.112185,156.842191 185.514866,149.827501 C185.669011,147.142355 184.997861,144.705387 182.684988,143.354196 C175.489375,139.150493 162.297419,139.150493 162.297419,139.150493 L163.796505,148.458694 Z" id="Path" fill="#2F2E41"></path>
            <path d="M116.125573,203.407106 C116.125573,203.407106 114.026852,198.903138 111.028681,201.00499 C108.030509,203.106842 101.134713,207.61081 101.134713,207.61081 C101.134713,207.61081 90.4675179,211.372665 99.9354448,213.916366 C108.357121,216.178973 110.429046,215.717953 110.429046,215.717953 C110.429046,215.717953 117.324841,216.919011 118.224293,216.318482 C119.123745,215.717953 119.723379,206.109487 119.723379,206.109487 C119.723379,206.109487 115.525938,205.208694 116.125573,203.407106 Z" id="Path" fill="#2F2E41"></path>
            <path d="M139.511313,212.715307 C139.511313,212.715307 136.513141,208.511604 134.414421,210.313191 C132.315701,212.114778 124.820271,217.219276 124.820271,217.219276 C124.820271,217.219276 112.227949,220.82245 123.321185,224.12536 C134.414421,227.42827 146.706926,226.827741 147.006743,225.626683 C147.30656,224.425625 146.407108,215.717953 146.407108,215.717953 C146.407108,215.717953 140.110947,215.417688 139.511313,212.715307 Z" id="Path" fill="#2F2E41"></path>
            <ellipse id="Oval" fill="#FFB9B9" cx="175.489375" cy="75.4944079" rx="10.7934186" ry="10.8095238"></ellipse>
            <path d="M167.694128,80.2986407 C167.694128,80.2986407 167.094494,92.6094873 164.096322,93.5102809 C161.09815,94.4110746 152.703269,104.319805 156.600893,107.32245 C160.498516,110.325096 182.984805,108.223244 182.984805,108.223244 L180.886085,92.6094873 C180.886085,92.6094873 176.08901,89.3065772 179.986633,83.6015508 L167.694128,80.2986407 Z" id="Path" fill="#FFB9B9"></path>
            <path d="M167.394311,100.71663 L165.295591,90.8079 L158.399796,88.105519 L152.703269,101.317159 C152.703269,101.317159 146.2572,144.104858 148.056103,144.705387 C149.065486,145.062171 150.135424,145.215248 151.204183,145.155784 C151.204183,145.155784 160.798333,142.153138 163.796505,143.654461 C166.794677,145.155784 182.385171,146.356842 182.385171,146.356842 C182.385171,146.356842 193.178589,140.651815 192.578955,135.547318 C191.97932,130.442821 192.578955,101.917688 192.578955,101.917688 L191.229777,89.1564449 L179.399933,91.0097738 L167.394311,100.71663 Z" id="Path" fill="#CFCCE0"></path>
            <polygon id="Path" fill="#CFCCE0" points="158.699532 89.6067487 158.399715 87.8051614 150.004834 77.5961667 145.207759 60.4810873 133.514888 64.9850556 141.90977 85.7033095 153.902457 101.016802"></polygon>
            <path d="M161.309659,76.7871609 C161.309659,76.7871609 165.020248,71.67749 168.267013,70.7484594 C171.513778,69.8194289 171.977602,65.1742703 171.977602,65.1742703 C171.977602,65.1742703 180.326425,74.4645846 185.428483,74.9290998 C190.530541,75.3936151 185.8923,63.7807245 185.8923,63.7807245 L176.61583,61.4581451 L167.803184,62.3871637 L160.84583,67.0323223 L161.309659,76.7871609 Z" id="Path" fill="#2F2E41"></path>
            <polygon id="Path" fill="#3F3D56" points="196.027071 146.216825 195.736848 133.89577 167.836161 133.89577 166.944505 166.933278 166.34487 166.916763 167.252417 133.295241 196.316695 133.295241 196.326289 133.585296 196.626106 146.196407"></polygon>
            <polygon id="Path" fill="#3F3D56" points="195.427137 129.391802 194.827503 129.391802 194.827503 106.472308 204.505601 109.286087 204.338004 109.862896 195.427137 107.271913"></polygon>
            <path d="M198.275481,145.60618 C191.262757,145.60618 185.113507,152.941643 181.722575,163.895294 C181.482721,164.663971 181.257858,165.453667 181.047986,166.255374 C179.619985,171.870669 178.910726,177.645024 178.937273,183.439514 C178.937273,204.301895 187.610984,221.272847 198.275481,221.272847 C208.939979,221.272847 217.61369,204.301895 217.61369,183.439514 C217.61369,162.577133 208.939982,145.60618 198.275481,145.60618 Z M198.275481,220.672318 C187.943781,220.672318 179.536907,203.968601 179.536907,183.439514 C179.509061,177.620512 180.227503,171.82202 181.674604,166.186313 C181.872483,165.432649 182.084354,164.693998 182.310216,163.97036 C185.611203,153.319977 191.532593,146.206709 198.275481,146.206709 C208.607181,146.206709 217.014055,162.910426 217.014055,183.439514 C217.014055,203.968601 208.607187,220.672318 198.275481,220.672318 Z" id="Shape" fill="#3F3D56"></path>
            <path d="M202.922648,205.313963 C199.22383,205.313963 196.32667,195.705498 196.32667,183.439514 C196.32667,171.17353 199.22383,161.565064 202.922648,161.565064 C206.621465,161.565064 209.518626,171.17353 209.518626,183.439514 C209.518626,195.705498 206.621465,205.313963 202.922648,205.313963 Z M202.922648,162.165584 C199.672384,162.165584 196.926304,171.907773 196.926304,183.439514 C196.926304,194.971255 199.672384,204.713434 202.922648,204.713434 C206.172912,204.713434 208.918991,194.971255 208.918991,183.439514 C208.918991,171.907773 206.172921,162.165584 202.922648,162.165584 L202.922648,162.165584 Z" id="Shape" fill="#3F3D56"></path>
            <ellipse id="Oval" fill="#CFCCE0" cx="203.672191" cy="183.439514" rx="2.54844607" ry="5.02411053"></ellipse>
            <polygon id="Path" fill="#3F3D56" points="199.624578 105.971167 205.920739 108.373283 204.72147 111.676193 199.624578 109.574341"></polygon>
            <polygon id="Path" fill="#3F3D56" points="174.739751 131.793918 174.739751 136.598151 192.603159 136.598151 192.603159 132.113099"></polygon>
            <polygon id="Path" fill="#3F3D56" points="128.867722 129.391802 128.867722 134.196034 146.73113 134.196034 146.73113 129.710983"></polygon>
            <path d="M189.926184,27.718916 L67.7133304,27.718916 L67.7133304,-6.00529101e-06 L189.926184,-6.00529101e-06 L189.926184,27.718916 Z M68.432229,26.9989446 L189.207286,26.9989446 L189.207286,0.719971336 L68.432229,0.719971336 L68.432229,26.9989446 Z" id="Shape" fill="#3F3D56"></path>
            <rect id="Rectangle" fill="#F9A826" x="77.4184696" y="9.35963337" width="13.6590833" height="13.6794644"></rect>
            <path d="M89.2803048,21.2391679 L74.9023229,21.2391679 L74.9023229,6.8397322 L89.2803048,6.8397322 L89.2803048,21.2391679 Z M75.6212215,20.5191966 L88.5614181,20.5191966 L88.5614181,7.55970353 L75.6212215,7.55970353 L75.6212215,20.5191966 Z" id="Shape" fill="#3F3D56"></path>
            <rect id="Rectangle" fill="#3F3D56" x="111.925629" y="9.71962054" width="63.9820246" height="1"></rect>
            <rect id="Rectangle" fill="#3F3D56" x="111.925629" y="14.7594229" width="63.9820246" height="1"></rect>
            <rect id="Rectangle" fill="#3F3D56" x="111.925629" y="19.7992253" width="63.9820246" height="1"></rect>
            <path d="M161.547885,117.734865 L161.402141,117.734865 L161.402141,113.736542 C161.402146,113.122793 161.1587,112.53418 160.725361,112.100194 C160.292021,111.666208 159.704285,111.422404 159.09145,111.422404 L150.633092,111.422404 C150.020257,111.422404 149.432521,111.666208 148.999181,112.100194 C148.565841,112.53418 148.322401,113.122793 148.322401,113.736542 L148.322401,135.671667 C148.322401,136.285416 148.565841,136.874029 148.999181,137.308015 C149.432521,137.742001 150.020257,137.985805 150.633092,137.985805 L159.091459,137.985805 C159.704294,137.985805 160.29203,137.742001 160.72537,137.308015 C161.158709,136.874029 161.402155,136.285416 161.40215,135.671667 L161.40215,120.580941 L161.547885,120.580941 L161.547885,117.734865 Z" id="Path" fill="#3F3D56"></path>
            <ellipse id="Oval" fill="#D0CDE1" cx="154.935141" cy="118.236316" rx="1.41537996" ry="1.41749189"></ellipse>
            <path d="M190.803596,132.083397 L162.496906,131.550181 C162.496906,131.550181 146.690642,135.173774 148.805028,127.256434 C150.919414,119.339095 161.989111,125.447115 161.989111,125.447115 L191.692347,124.327429 L190.803596,132.083397 Z" id="Path" fill="#FFB9B9"></path>
            <path d="M187.931788,91.2582968 L190.630143,89.1564449 C190.630143,89.1564449 195.127401,86.7543285 196.026852,95.1617359 C196.926304,103.569143 203.522282,131.493747 196.926304,131.794011 C190.330326,132.094276 173.540564,132.39454 173.540564,132.39454 L175.339467,123.086339 L189.131057,122.185545 L187.931788,91.2582968 Z" id="Path" fill="#CFCCE0"></path>
            <polygon id="Path" fill="#000000" opacity="0.15" points="188.831159 104.169579 187.931707 121.284659 174.739751 123.98704 186.732439 119.182807"></polygon>
        </g>
    </g>
</svg>
