<?xml version="1.0" encoding="UTF-8"?>
<svg width="80px" height="80px" viewBox="0 0 80 80" version="1.1" xmlns="http://www.w3.org/2000/svg" xmlns:xlink="http://www.w3.org/1999/xlink">
    <title>Group 24</title>
    <g id="Site" stroke="none" stroke-width="1" fill="none" fill-rule="evenodd">
        <g id="Desktop-HD-Copy-3" transform="translate(-276.000000, -1636.000000)">
            <g id="Group-13" transform="translate(244.000000, 1364.000000)">
                <g id="Group-25" transform="translate(0.000000, 240.000000)">
                    <g id="Group-24" transform="translate(32.000000, 32.000000)">
                        <circle id="Oval" fill="var(--background-alt-blue-france)" cx="40" cy="40" r="40"></circle>
                        <g id="comments-solid" transform="translate(21.500000, 25.500000)" fill="var(--blue-france-850-200)" fill-rule="nonzero">
                            <path d="M26.7222222,10.3571429 C26.7222222,4.63482143 20.7418403,0 13.3611111,0 C5.98038194,0 0,4.63482143 0,10.3571429 C0,12.5774554 0.905729167,14.6229911 2.44097222,16.3125 C1.58020833,18.2674107 0.160590278,19.8209821 0.141319444,19.8404018 C0,19.9892857 -0.0385416667,20.209375 0.0449652778,20.4035714 C0.128472222,20.5977679 0.308333333,20.7142857 0.513888889,20.7142857 C2.86493056,20.7142857 4.81128472,19.9180804 6.21163194,19.0959821 C8.28003472,20.1122768 10.7274306,20.7142857 13.3611111,20.7142857 C20.7418403,20.7142857 26.7222222,16.0794643 26.7222222,10.3571429 Z M34.5590278,24.5982143 C36.0942708,22.9151786 37,20.8631696 37,18.6428571 C37,14.3122768 33.5633681,10.603125 28.6942708,9.05602679 C28.7520833,9.48325893 28.7777778,9.91696429 28.7777778,10.3571429 C28.7777778,17.2122768 21.8595486,22.7857143 13.3611111,22.7857143 C12.6673611,22.7857143 11.9928819,22.7339286 11.3248264,22.6627232 C13.3482639,26.3848214 18.1017361,29 23.6388889,29 C26.2725694,29 28.7199653,28.4044643 30.7883681,27.3816964 C32.1887153,28.2037946 34.1350694,29 36.4861111,29 C36.6916667,29 36.8779514,28.8770089 36.9550347,28.6892857 C37.0385417,28.5015625 37,28.2814732 36.8586806,28.1261161 C36.8394097,28.1066964 35.4197917,26.5595982 34.5590278,24.5982143 Z" id="Shape"></path>
                        </g>
                    </g>
                </g>
            </g>
        </g>
    </g>
</svg>
