<?xml version="1.0" encoding="UTF-8"?>
<svg width="500px" height="64px" viewBox="0 0 500 64" version="1.1" xmlns="http://www.w3.org/2000/svg" xmlns:xlink="http://www.w3.org/1999/xlink">
    <!-- Generator: Sketch 63.1 (92452) - https://sketch.com -->
    <title>logoBeta</title>
    <desc>Created with Sketch.</desc>
    <g id="Site" stroke="none" stroke-width="1" fill="none" fill-rule="evenodd">
        <g id="Main-Copy" transform="translate(-260.000000, -191.000000)" fill="#FFFFFF" fill-rule="nonzero">
            <g id="Header">
                <g id="Group-2" transform="translate(260.000000, 191.000000)">
                    <g id="logoBeta">
                        <path d="M390.978239,47.9372549 C392.944252,47.9372549 394.784775,47.6235294 396.499808,46.9960784 C398.21484,46.3686275 399.68935,45.4901961 400.923337,44.3607843 C402.157324,43.2313725 403.129873,41.8614379 403.840984,40.2509804 C404.552095,38.6405229 404.907651,36.8732026 404.907651,34.9490196 C404.907651,33.7777778 404.729873,32.5960784 404.374318,31.4039216 C404.018762,30.2117647 403.495886,29.1137255 402.80569,28.1098039 C402.115494,27.1058824 401.257978,26.2065359 400.233141,25.4117647 C399.208304,24.6169935 398.026605,24.0104575 396.688043,23.5921569 C398.779546,22.7555556 400.390004,21.3333333 401.519416,19.3254902 C402.648827,17.3176471 403.213533,15.2470588 403.213533,13.1137255 C403.213533,11.3986928 402.910265,9.77777778 402.303729,8.25098039 C401.697193,6.72418301 400.82922,5.39607843 399.699808,4.26666667 C398.570396,3.1372549 397.190004,2.24836601 395.558631,1.6 C393.927259,0.951633987 392.086736,0.62745098 390.037063,0.62745098 C386.105037,0.62745098 382.946867,1.78823529 380.562553,4.10980392 C378.178239,6.43137255 376.986082,9.41176471 376.986082,13.0509804 L376.986082,13.0509804 L376.986082,47.6862745 L382.382161,47.6862745 L382.382161,13.0509804 C382.382161,10.7503268 383.103729,8.94117647 384.546867,7.62352941 C385.990004,6.30588235 387.840984,5.64705882 390.099808,5.64705882 C392.316801,5.64705882 394.115494,6.36862745 395.495886,7.81176471 C396.876278,9.25490196 397.566474,11.0222222 397.566474,13.1137255 C397.566474,15.4980392 396.876278,17.4431373 395.495886,18.9490196 C394.115494,20.454902 392.295886,21.2078431 390.037063,21.2078431 L390.037063,21.2078431 L387.527259,21.2078431 L387.527259,26.227451 L390.288043,26.227451 C392.923337,26.227451 395.098501,27.0535948 396.813533,28.7058824 C398.528566,30.3581699 399.386082,32.3555556 399.386082,34.6980392 C399.386082,37.1660131 398.580854,39.1529412 396.970396,40.6588235 C395.359938,42.1647059 393.278893,42.9176471 390.727259,42.9176471 C390.183468,42.9176471 389.62922,42.8862745 389.064514,42.8235294 C388.499808,42.7607843 387.987389,42.6457516 387.527259,42.4784314 L387.527259,42.4784314 L387.527259,47.5607843 C388.02922,47.6862745 388.552095,47.7803922 389.095886,47.8431373 C389.639677,47.9058824 390.267128,47.9372549 390.978239,47.9372549 Z M427.75917,48.9411765 C430.687274,48.9411765 433.312111,48.3555556 435.633679,47.1843137 C437.955248,46.0130719 439.848058,44.4444444 441.312111,42.4784314 L441.312111,42.4784314 L437.35917,39.4039216 C436.313418,40.8261438 434.974856,41.9660131 433.343483,42.8235294 C431.712111,43.6810458 429.892503,44.1098039 427.88466,44.1098039 C424.370934,44.1098039 421.516032,42.9699346 419.319954,40.6901961 C417.123875,38.4104575 416.025836,35.5346405 416.025836,32.0627451 L416.025836,32.0627451 L416.025836,31.9372549 L440.245444,31.9372549 C440.329104,31.5189542 440.412764,31.0065359 440.496424,30.4 C440.580085,29.7934641 440.621915,29.1764706 440.621915,28.5490196 C440.621915,26.5830065 440.287274,24.7529412 439.617993,23.0588235 C438.948712,21.3647059 437.997078,19.9111111 436.763091,18.6980392 C435.529104,17.4849673 434.033679,16.5333333 432.276817,15.8431373 C430.519954,15.1529412 428.574856,14.8078431 426.441522,14.8078431 C424.015379,14.8078431 421.808843,15.2470588 419.821915,16.1254902 C417.834987,17.0039216 416.161784,18.2065359 414.802307,19.7333333 C413.44283,21.2601307 412.386621,23.069281 411.633679,25.1607843 C410.880738,27.2522876 410.504268,29.4901961 410.504268,31.8745098 C410.504268,34.1751634 410.901653,36.3607843 411.696424,38.4313725 C412.491196,40.5019608 413.631065,42.3111111 415.116032,43.8588235 C416.601,45.4065359 418.420607,46.6405229 420.574856,47.5607843 C422.729104,48.4810458 425.123875,48.9411765 427.75917,48.9411765 Z M435.225836,27.7333333 L416.465052,27.7333333 C417.092503,25.0143791 418.28466,22.9437908 420.041522,21.5215686 C421.798385,20.0993464 423.952634,19.3882353 426.504268,19.3882353 C429.097732,19.3882353 431.178777,20.2143791 432.747405,21.8666667 C434.316032,23.5189542 435.142176,25.4745098 435.225836,27.7333333 L435.225836,27.7333333 Z M461.653825,48.3137255 C462.783237,48.3137255 463.787159,48.2405229 464.66559,48.0941176 C465.544022,47.9477124 466.359708,47.7281046 467.112649,47.4352941 L467.112649,47.4352941 L467.112649,42.6666667 C466.527028,42.9176471 465.857747,43.1058824 465.104806,43.2313725 C464.351865,43.3568627 463.452518,43.4196078 462.406767,43.4196078 C460.482584,43.4196078 458.945329,42.9803922 457.795002,42.1019608 C456.644675,41.2235294 456.069512,39.5503268 456.069512,37.0823529 L456.069512,37.0823529 L456.069512,20.9568627 L467.049904,20.9568627 L467.049904,16.0627451 L456.069512,16.0627451 L456.069512,8.15686275 L450.673433,8.15686275 L450.673433,16.0627451 L444.712649,16.0627451 L444.712649,20.9568627 L450.673433,20.9568627 L450.673433,37.0823529 C450.673433,40.930719 451.625067,43.7647059 453.528335,45.5843137 C455.431603,47.4039216 458.1401,48.3137255 461.653825,48.3137255 Z M483.250442,48.9411765 C485.383775,48.9411765 487.391619,48.4810458 489.273972,47.5607843 C491.156324,46.6405229 492.683122,45.3437908 493.854364,43.6705882 L493.854364,43.6705882 L493.854364,47.6862745 L499.187697,47.6862745 L499.187697,26.4784314 C499.187697,23.0065359 498.058285,20.1934641 495.799462,18.0392157 C493.540638,15.8849673 490.403383,14.8078431 486.387697,14.8078431 C483.626913,14.8078431 481.158939,15.351634 478.983775,16.4392157 C476.808612,17.5267974 475.030834,19.0117647 473.650442,20.8941176 L473.650442,20.8941176 L477.666128,23.9686275 C478.58639,22.5882353 479.789004,21.5111111 481.273972,20.7372549 C482.758939,19.9633987 484.421684,19.5764706 486.262207,19.5764706 C488.4792,19.5764706 490.298808,20.1830065 491.72103,21.3960784 C493.143253,22.6091503 493.854364,24.303268 493.854364,26.4784314 L493.854364,26.4784314 L493.854364,28.6745098 L483.250442,30.4313725 C479.862207,30.9751634 477.2792,32.0836601 475.501423,33.7568627 C473.723645,35.4300654 472.834756,37.4797386 472.834756,39.9058824 C472.834756,42.6666667 473.796847,44.8627451 475.72103,46.4941176 C477.645213,48.1254902 480.155017,48.9411765 483.250442,48.9411765 Z M484.128874,44.4862745 C482.330181,44.4862745 480.887043,44.0261438 479.799462,43.1058824 C478.71188,42.1856209 478.168089,41.0562092 478.168089,39.7176471 C478.168089,38.3372549 478.680507,37.1660131 479.705344,36.2039216 C480.730181,35.2418301 482.330181,34.5934641 484.505344,34.2588235 L484.505344,34.2588235 L493.854364,32.627451 L493.854364,38.6509804 C492.766782,40.4496732 491.396847,41.8718954 489.74456,42.9176471 C488.092272,43.9633987 486.220377,44.4862745 484.128874,44.4862745 Z" id="ßeta"></path>
                        <path d="M17.5686275,47.6862745 C21.0405229,47.6862745 24.2300654,47.1006536 27.1372549,45.9294118 C30.0444444,44.7581699 32.5228758,43.1686275 34.572549,41.1607843 C36.6222222,39.1529412 38.2222222,36.820915 39.372549,34.1647059 C40.5228758,31.5084967 41.0980392,28.6954248 41.0980392,25.7254902 C41.0980392,22.7555556 40.5228758,19.9424837 39.372549,17.2862745 C38.2222222,14.6300654 36.6222222,12.2980392 34.572549,10.2901961 C32.5228758,8.28235294 30.0444444,6.69281046 27.1372549,5.52156863 C24.2300654,4.3503268 21.0405229,3.76470588 17.5686275,3.76470588 L17.5686275,3.76470588 L1.01506105e-13,3.76470588 L1.01506105e-13,47.6862745 L17.5686275,47.6862745 Z M17.6313725,37.5843137 L11.1686275,37.5843137 L11.1686275,13.8666667 L17.6313725,13.8666667 C21.0614379,13.8666667 23.9058824,14.9960784 26.1647059,17.254902 C28.4235294,19.5137255 29.5529412,22.3372549 29.5529412,25.7254902 C29.5529412,29.1137255 28.4235294,31.9372549 26.1647059,34.1960784 C23.9058824,36.454902 21.0614379,37.5843137 17.6313725,37.5843137 L17.6313725,37.5843137 Z M62.757401,48.9411765 C65.7691657,48.9411765 68.48812,48.3764706 70.9142637,47.2470588 C73.3404075,46.1176471 75.3064206,44.5699346 76.812303,42.6039216 L76.812303,42.6039216 L69.784852,37.0196078 C69.0737409,37.9398693 68.1221069,38.6718954 66.92995,39.2156863 C65.7377932,39.7594771 64.4096886,40.0313725 62.9456363,40.0313725 C60.854133,40.0313725 59.1495579,39.5816993 57.8319108,38.6823529 C56.5142637,37.7830065 55.6462899,36.4339869 55.2279892,34.6352941 L55.2279892,34.6352941 L75.6828912,34.6352941 C75.8502115,34.0915033 75.9966167,33.3385621 76.1221069,32.3764706 C76.2475971,31.4143791 76.3103422,30.4104575 76.3103422,29.3647059 C76.3103422,25.0980392 74.9508651,21.6052288 72.2319108,18.8862745 C69.5129566,16.1673203 65.9155709,14.8078431 61.4397539,14.8078431 C58.7626298,14.8078431 56.3992311,15.2679739 54.3495579,16.1882353 C52.2998847,17.1084967 50.584852,18.3424837 49.2044598,19.8901961 C47.8240677,21.4379085 46.778316,23.2575163 46.0672049,25.3490196 C45.3560938,27.4405229 45.0005383,29.6156863 45.0005383,31.8745098 C45.0005383,34.1751634 45.3874664,36.3607843 46.1613226,38.4313725 C46.9351788,40.5019608 48.0645905,42.3111111 49.5495579,43.8588235 C51.0345252,45.4065359 52.8855056,46.6405229 55.102499,47.5607843 C57.3194925,48.4810458 59.8711265,48.9411765 62.757401,48.9411765 Z M66.5221069,27.2941176 L55.6044598,27.2941176 C56.0645905,25.7464052 56.7861592,24.648366 57.7691657,24 C58.7521722,23.351634 59.9757017,23.027451 61.4397539,23.027451 C63.1547866,23.027451 64.4201461,23.4771242 65.2358324,24.3764706 C66.0515186,25.275817 66.4802768,26.248366 66.5221069,27.2941176 L66.5221069,27.2941176 Z M92.8246059,48.9411765 C94.3304883,48.9411765 95.8049981,48.7111111 97.2481353,48.2509804 C98.6912726,47.7908497 99.9670896,47.1111111 101.075586,46.2117647 C102.184083,45.3124183 103.083429,44.1934641 103.773626,42.854902 C104.463822,41.5163399 104.829835,39.9477124 104.871665,38.1490196 C104.871665,35.3045752 104.129181,33.1921569 102.644214,31.8117647 C101.159246,30.4313725 99.5383314,29.3856209 97.7814687,28.6745098 C96.0246059,27.9633987 94.4036909,27.3673203 92.9187236,26.8862745 C91.4337562,26.4052288 90.6912726,25.6627451 90.6912726,24.6588235 C90.6912726,24.1150327 90.9004229,23.675817 91.3187236,23.3411765 C91.7370242,23.0065359 92.3853902,22.8392157 93.2638216,22.8392157 C94.3932334,22.8392157 95.4285275,23.1947712 96.369704,23.9058824 C97.3108804,24.6169935 98.1579393,25.4117647 98.9108804,26.2901961 L98.9108804,26.2901961 L105.436371,20.3294118 C104.265129,18.7816993 102.571011,17.4745098 100.354018,16.4078431 C98.1370242,15.3411765 95.7736255,14.8078431 93.2638216,14.8078431 C89.7919262,14.8078431 86.9161092,15.7803922 84.6363706,17.7254902 C82.3566321,19.6705882 81.2167628,22.1490196 81.2167628,25.1607843 C81.2167628,28.0052288 81.9592464,30.1176471 83.4442138,31.4980392 C84.9291811,32.8784314 86.5500961,33.9346405 88.3069589,34.6666667 C90.0638216,35.3986928 91.6847366,36.0052288 93.169704,36.4862745 C94.6546713,36.9673203 95.3971549,37.751634 95.3971549,38.8392157 C95.3971549,39.4666667 95.1775471,39.9686275 94.7383314,40.345098 C94.2991157,40.7215686 93.6193772,40.9098039 92.6991157,40.9098039 C91.2768935,40.9098039 90.0219915,40.5019608 88.9344098,39.6862745 C87.8468281,38.8705882 86.8847366,37.9189542 86.0481353,36.8313725 L86.0481353,36.8313725 L79.5226451,42.9176471 C81.1121876,44.7163399 82.9736255,46.1699346 85.1069589,47.2784314 C87.2402922,48.3869281 89.8128412,48.9411765 92.8246059,48.9411765 Z M115.613379,12.6117647 C117.286582,12.6117647 118.740177,11.9738562 119.974164,10.6980392 C121.208151,9.42222222 121.825144,7.94771242 121.825144,6.2745098 C121.825144,4.60130719 121.208151,3.1372549 119.974164,1.88235294 C118.740177,0.62745098 117.286582,8.45884209e-15 115.613379,8.45884209e-15 C113.898347,8.45884209e-15 112.413379,0.62745098 111.158478,1.88235294 C109.903576,3.1372549 109.276125,4.60130719 109.276125,6.2745098 C109.276125,7.94771242 109.903576,9.42222222 111.158478,10.6980392 C112.413379,11.9738562 113.898347,12.6117647 115.613379,12.6117647 Z M120.507497,47.6862745 L120.507497,16.0627451 L110.531027,16.0627451 L110.531027,47.6862745 L120.507497,47.6862745 Z M141.853133,63.372549 C147.123722,63.372549 151.243983,62.1385621 154.213918,59.6705882 C157.183852,57.2026144 158.66882,54.0862745 158.66882,50.3215686 C158.66882,47.3098039 157.57078,44.8 155.374702,42.7921569 C153.178624,40.7843137 150.177316,39.7803922 146.37078,39.7803922 L146.37078,39.7803922 L139.155094,39.7803922 C138.653133,39.7803922 138.24529,39.6653595 137.931565,39.4352941 C137.617839,39.2052288 137.460977,38.8183007 137.460977,38.2745098 C137.460977,38.0653595 137.513264,37.8457516 137.617839,37.6156863 C137.722414,37.3856209 137.858362,37.1869281 138.025682,37.0196078 C138.318493,37.0614379 138.611303,37.0823529 138.904114,37.0823529 L138.904114,37.0823529 L139.782545,37.0823529 C144.007382,37.0823529 147.249212,36.0052288 149.508035,33.8509804 C151.766859,31.696732 152.896271,29.0509804 152.896271,25.9137255 L152.896271,25.9137255 L152.896271,25.1607843 C152.896271,24.9098039 152.875356,24.6588235 152.833526,24.4078431 L152.833526,24.4078431 L157.790388,24.4078431 L157.790388,16.0627451 L146.433526,16.0627451 C145.513264,15.6444444 144.498885,15.330719 143.390388,15.1215686 C142.281892,14.9124183 141.079277,14.8078431 139.782545,14.8078431 C135.641369,14.8078431 132.441369,15.8745098 130.182545,18.0078431 C127.923722,20.1411765 126.79431,22.7764706 126.79431,25.9137255 C126.79431,27.6705882 127.149865,29.2915033 127.860977,30.7764706 C128.572088,32.2614379 129.617839,33.5267974 130.998231,34.572549 C129.82699,35.4928105 128.990388,36.4653595 128.488428,37.4901961 C127.986467,38.5150327 127.735486,39.675817 127.735486,40.972549 C127.735486,41.7673203 127.892349,42.5620915 128.206075,43.3568627 C128.5198,44.151634 128.948558,44.8836601 129.492349,45.5529412 C128.195617,46.5150327 127.181238,47.6235294 126.449212,48.8784314 C125.717186,50.1333333 125.351173,51.5346405 125.351173,53.0823529 C125.351173,56.5124183 126.773395,59.0849673 129.617839,60.8 C132.462284,62.5150327 136.540715,63.372549 141.853133,63.372549 Z M139.84529,29.8039216 C138.632218,29.8039216 137.638754,29.4797386 136.864898,28.8313725 C136.091042,28.1830065 135.704114,27.2104575 135.704114,25.9137255 C135.704114,24.6588235 136.091042,23.7071895 136.864898,23.0588235 C137.638754,22.4104575 138.632218,22.0862745 139.84529,22.0862745 C141.058362,22.0862745 142.062284,22.4 142.857055,23.027451 C143.651826,23.654902 144.049212,24.6169935 144.049212,25.9137255 C144.049212,27.2104575 143.651826,28.1830065 142.857055,28.8313725 C142.062284,29.4797386 141.058362,29.8039216 139.84529,29.8039216 Z M141.727643,55.5294118 C139.217839,55.5294118 137.408689,55.1738562 136.300192,54.4627451 C135.191696,53.751634 134.637447,52.7895425 134.637447,51.5764706 C134.637447,50.8235294 134.79431,50.1751634 135.108035,49.6313725 C135.421761,49.0875817 135.871434,48.627451 136.457055,48.2509804 L136.457055,48.2509804 L145.115879,48.2509804 C146.37078,48.2509804 147.311957,48.5437908 147.939408,49.1294118 C148.566859,49.7150327 148.880584,50.4679739 148.880584,51.3882353 C148.880584,52.5594771 148.315879,53.5424837 147.186467,54.3372549 C146.057055,55.1320261 144.237447,55.5294118 141.727643,55.5294118 Z M172.547789,47.6862745 L172.547789,27.9843137 C172.71511,27.7333333 172.934717,27.3882353 173.206613,26.9490196 C173.478508,26.5098039 173.844521,26.0810458 174.304652,25.6627451 C174.764783,25.2444444 175.319031,24.8888889 175.967397,24.5960784 C176.615763,24.303268 177.379162,24.1568627 178.257593,24.1568627 C179.847136,24.1568627 181.060208,24.6588235 181.896809,25.6627451 C182.73341,26.6666667 183.151711,27.9633987 183.151711,29.5529412 L183.151711,29.5529412 L183.151711,47.6862745 L193.190927,47.6862745 L193.190927,29.1137255 C193.190927,26.7294118 192.866744,24.6379085 192.218378,22.8392157 C191.570012,21.0405229 190.69158,19.545098 189.583083,18.3529412 C188.474587,17.1607843 187.177855,16.2718954 185.692887,15.6862745 C184.20792,15.1006536 182.628835,14.8078431 180.955632,14.8078431 C179.11511,14.8078431 177.51511,15.0901961 176.155632,15.654902 C174.796155,16.2196078 173.593541,16.9411765 172.547789,17.8196078 L172.547789,17.8196078 L172.547789,16.0627451 L162.571319,16.0627451 L162.571319,47.6862745 L172.547789,47.6862745 Z M222.818916,48.9411765 C226.960092,48.9411765 230.693426,48.1359477 234.018916,46.5254902 C237.344406,44.9150327 240.031988,42.7503268 242.081661,40.0313725 L242.081661,40.0313725 L242.081661,20.2666667 L220.811073,20.2666667 L220.811073,30.3686275 L230.913033,30.3686275 L230.913033,35.827451 C229.867282,36.6222222 228.664667,37.2601307 227.30519,37.7411765 C225.945713,38.2222222 224.450288,38.4627451 222.818916,38.4627451 C219.1797,38.4627451 216.157478,37.2601307 213.752249,34.854902 C211.34702,32.4496732 210.144406,29.4065359 210.144406,25.7254902 C210.144406,22.0862745 211.273818,19.0535948 213.532641,16.627451 C215.791465,14.2013072 218.677739,12.9882353 222.191465,12.9882353 C224.366628,12.9882353 226.280354,13.469281 227.932641,14.4313725 C229.584929,15.3934641 230.933948,16.627451 231.9797,18.1333333 L231.9797,18.1333333 L240.826759,11.3568627 C238.777086,8.72156863 236.162707,6.58823529 232.983622,4.95686275 C229.804537,3.3254902 226.207151,2.50980392 222.191465,2.50980392 C218.719569,2.50980392 215.530027,3.1372549 212.622837,4.39215686 C209.715648,5.64705882 207.237216,7.32026144 205.187543,9.41176471 C203.13787,11.503268 201.53787,13.9607843 200.387543,16.7843137 C199.237216,19.6078431 198.662053,22.5882353 198.662053,25.7254902 C198.662053,28.8627451 199.247674,31.8431373 200.418916,34.6666667 C201.590158,37.4901961 203.231988,39.9477124 205.344406,42.0392157 C207.456824,44.130719 210.008458,45.8039216 212.999308,47.0588235 C215.990158,48.3137255 219.26336,48.9411765 222.818916,48.9411765 Z M265.246905,48.9411765 C267.840369,48.9411765 270.203768,48.5019608 272.337101,47.6235294 C274.470434,46.745098 276.3005,45.5424837 277.827297,44.0156863 C279.354095,42.4888889 280.546251,40.6797386 281.403768,38.5882353 C282.261284,36.496732 282.690042,34.2588235 282.690042,31.8745098 C282.690042,29.4901961 282.261284,27.2522876 281.403768,25.1607843 C280.546251,23.069281 279.354095,21.2601307 277.827297,19.7333333 C276.3005,18.2065359 274.470434,17.0039216 272.337101,16.1254902 C270.203768,15.2470588 267.840369,14.8078431 265.246905,14.8078431 C262.653441,14.8078431 260.279585,15.2470588 258.125336,16.1254902 C255.971088,17.0039216 254.130565,18.2065359 252.603768,19.7333333 C251.07697,21.2601307 249.884814,23.069281 249.027297,25.1607843 C248.169781,27.2522876 247.741023,29.4901961 247.741023,31.8745098 C247.741023,34.2588235 248.169781,36.496732 249.027297,38.5882353 C249.884814,40.6797386 251.07697,42.4888889 252.603768,44.0156863 C254.130565,45.5424837 255.971088,46.745098 258.125336,47.6235294 C260.279585,48.5019608 262.653441,48.9411765 265.246905,48.9411765 Z M265.30965,39.5921569 C263.259977,39.5921569 261.544944,38.8915033 260.164552,37.4901961 C258.78416,36.0888889 258.093964,34.2169935 258.093964,31.8745098 C258.093964,29.5320261 258.78416,27.6601307 260.164552,26.2588235 C261.544944,24.8575163 263.259977,24.1568627 265.30965,24.1568627 C267.317493,24.1568627 269.001153,24.8470588 270.360631,26.227451 C271.720108,27.6078431 272.399846,29.4901961 272.399846,31.8745098 C272.399846,34.1751634 271.720108,36.0366013 270.360631,37.4588235 C269.001153,38.8810458 267.317493,39.5921569 265.30965,39.5921569 Z M303.031757,48.9411765 C307.884045,48.9411765 311.659208,47.5294118 314.357247,44.7058824 C317.055286,41.8823529 318.404306,38.1071895 318.404306,33.3803922 L318.404306,33.3803922 L318.404306,16.0627451 L308.36509,16.0627451 L308.36509,33.945098 C308.36509,35.6183007 307.936332,36.9777778 307.078816,38.0235294 C306.2213,39.069281 304.893195,39.5921569 303.094502,39.5921569 C301.253979,39.5921569 299.90496,39.069281 299.047443,38.0235294 C298.189927,36.9777778 297.761169,35.6183007 297.761169,33.945098 L297.761169,33.945098 L297.761169,16.0627451 L287.721953,16.0627451 L287.721953,33.3803922 C287.721953,38.1071895 289.050058,41.8823529 291.706267,44.7058824 C294.362476,47.5294118 298.137639,48.9411765 303.031757,48.9411765 Z M345.585236,47.6862745 L356.440138,16.0627451 L345.773472,16.0627451 L339.059746,35.7019608 L332.283276,16.0627451 L321.616609,16.0627451 L332.471511,47.6862745 L345.585236,47.6862745 Z" id="DesignGouv"></path>
                    </g>
                </g>
            </g>
        </g>
    </g>
</svg>