<?xml version="1.0" encoding="UTF-8"?>
<svg viewBox="0 0 260 33" version="1.1" xmlns="http://www.w3.org/2000/svg" xmlns:xlink="http://www.w3.org/1999/xlink">
    <g id="Marque" stroke="none" stroke-width="1" fill="none" fill-rule="evenodd">
        <g id="DinumWeb-Copy" transform="translate(-288.000000, -70.000000)" fill-rule="nonzero">
            <g id="logoDG" transform="translate(288.000000, 70.000000)">
                <path d="M203.414724,24.9364954 C204.43705,24.9364954 205.394122,24.7733581 206.285939,24.4470836 C207.177756,24.1208091 207.944501,23.6640248 208.586175,23.0767307 C209.227848,22.4894365 209.733573,21.7770705 210.103351,20.9396326 C210.473129,20.1021947 210.658018,19.1831882 210.658018,18.182613 C210.658018,17.5735673 210.565573,16.9590836 210.380684,16.339162 C210.195795,15.7192405 209.9239,15.1482601 209.564998,14.6262208 C209.206096,14.1041816 208.760188,13.6365215 208.227273,13.2232405 C207.694358,12.8099594 207.079874,12.4945607 206.383822,12.2770444 C207.471403,11.8420117 208.308841,11.1024561 208.896135,10.0583777 C209.483429,9.01429928 209.777077,7.9375934 209.777077,6.82826006 C209.777077,5.93644307 209.619377,5.09356725 209.303978,4.29963261 C208.98858,3.50569797 208.537233,2.81508359 207.949939,2.22778947 C207.362645,1.64049536 206.644841,1.17827313 205.796527,0.841122807 C204.948214,0.50397248 203.991142,0.335397317 202.925312,0.335397317 C200.880658,0.335397317 199.23841,0.93900516 197.998567,2.14622085 C196.758724,3.35343653 196.138802,4.90324045 196.138802,6.79563261 L196.138802,6.79563261 L196.138802,24.8059856 L198.944763,24.8059856 L198.944763,6.79563261 C198.944763,5.59929274 199.319978,4.65853457 200.07041,3.9733581 C200.820841,3.28818163 201.783351,2.9455934 202.957939,2.9455934 C204.110776,2.9455934 205.046096,3.32080908 205.7639,4.07124045 C206.481704,4.82167183 206.840606,5.74067836 206.840606,6.82826006 C206.840606,8.0681032 206.481704,9.07955418 205.7639,9.862613 C205.046096,10.6456718 204.0999,11.0372012 202.925312,11.0372012 L202.925312,11.0372012 L201.620214,11.0372012 L201.620214,13.6473973 L203.055822,13.6473973 C204.426175,13.6473973 205.55726,14.0769921 206.449077,14.9361816 C207.340894,15.7953712 207.786802,16.8340117 207.786802,18.0521032 C207.786802,19.3354496 207.368083,20.3686522 206.530645,21.151711 C205.693207,21.9347699 204.611063,22.3262993 203.284214,22.3262993 C203.001443,22.3262993 202.713233,22.3099856 202.419586,22.2773581 C202.125939,22.2447307 201.859482,22.1849137 201.620214,22.0979071 L201.620214,22.0979071 L201.620214,24.7407307 C201.881233,24.8059856 202.153129,24.8549267 202.4359,24.8875542 C202.718671,24.9201816 203.044946,24.9364954 203.414724,24.9364954 Z M222.540807,25.4585346 C224.063422,25.4585346 225.428337,25.1540117 226.635552,24.5449659 C227.842768,23.9359202 228.82703,23.1202339 229.588337,22.0979071 L229.588337,22.0979071 L227.532807,20.499162 C226.989017,21.2387176 226.292964,21.8314496 225.444651,22.2773581 C224.596337,22.7232666 223.650141,22.9462208 222.606062,22.9462208 C220.778925,22.9462208 219.294376,22.3534888 218.152415,21.1680248 C217.010454,19.9825607 216.439474,18.4871359 216.439474,16.6817503 L216.439474,16.6817503 L216.439474,16.6164954 L229.03367,16.6164954 C229.077173,16.398979 229.120677,16.1325215 229.16418,15.8171228 C229.207683,15.5017241 229.229435,15.1808875 229.229435,14.854613 C229.229435,13.8322862 229.055422,12.8806522 228.707396,11.999711 C228.359369,11.1187699 227.86452,10.3629006 227.222847,9.7321032 C226.581173,9.10130581 225.803552,8.60645614 224.889984,8.24755418 C223.976415,7.88865222 222.964964,7.70920124 221.855631,7.70920124 C220.594036,7.70920124 219.446637,7.9375934 218.413435,8.39437771 C217.380232,8.85116202 216.510167,9.4765215 215.803239,10.2704561 C215.096311,11.0643908 214.547082,12.005149 214.155552,13.0927307 C213.764023,14.1803123 213.568258,15.3440248 213.568258,16.5838679 C213.568258,17.7802078 213.774899,18.9167307 214.18818,19.9934365 C214.601461,21.0701424 215.194193,22.0109006 215.966376,22.815711 C216.738559,23.6205215 217.684755,24.2621947 218.804964,24.7407307 C219.925173,25.2192666 221.170454,25.4585346 222.540807,25.4585346 Z M226.423474,14.4304561 L216.667866,14.4304561 C216.994141,13.0165999 217.614062,11.939894 218.527631,11.2003385 C219.4412,10.4607829 220.561409,10.0910052 221.888258,10.0910052 C223.23686,10.0910052 224.319003,10.5205999 225.13469,11.3797895 C225.950376,12.238979 226.379971,13.2558679 226.423474,14.4304561 L226.423474,14.4304561 Z M240.166028,25.1322601 C240.753323,25.1322601 241.275362,25.0941947 241.732146,25.018064 C242.18893,24.9419333 242.613087,24.8277372 243.004617,24.6754757 L243.004617,24.6754757 L243.004617,22.1957895 C242.700094,22.3262993 242.352068,22.4241816 241.960538,22.4894365 C241.569009,22.5546914 241.101349,22.5873189 240.557558,22.5873189 C239.556983,22.5873189 238.75761,22.3589267 238.15944,21.9021424 C237.56127,21.4453581 237.262185,20.5752927 237.262185,19.2919463 L237.262185,19.2919463 L237.262185,10.9066914 L242.971989,10.9066914 L242.971989,8.36175026 L237.262185,8.36175026 L237.262185,4.25069143 L234.456225,4.25069143 L234.456225,8.36175026 L231.356617,8.36175026 L231.356617,10.9066914 L234.456225,10.9066914 L234.456225,19.2919463 C234.456225,21.2930967 234.951074,22.7667699 235.940774,23.7129659 C236.930473,24.659162 238.338891,25.1322601 240.166028,25.1322601 Z M251.396269,25.4585346 C252.505602,25.4585346 253.549681,25.2192666 254.528504,24.7407307 C255.507328,24.2621947 256.301263,23.587894 256.910308,22.7178287 L256.910308,22.7178287 L256.910308,24.8059856 L259.683642,24.8059856 L259.683642,13.7779071 C259.683642,11.9725215 259.096348,10.5097241 257.921759,9.38951496 C256.747171,8.26930581 255.115799,7.70920124 253.027642,7.70920124 C251.592034,7.70920124 250.308687,7.99197248 249.177602,8.55751496 C248.046517,9.12305745 247.122073,9.89524045 246.404269,10.874064 L246.404269,10.874064 L248.492426,12.4728091 C248.970962,11.7550052 249.596321,11.1949006 250.368504,10.7924954 C251.140687,10.3900901 252.005315,10.1888875 252.962387,10.1888875 C254.115223,10.1888875 255.061419,10.5042862 255.800975,11.1350836 C256.540531,11.765881 256.910308,12.6468222 256.910308,13.7779071 L256.910308,13.7779071 L256.910308,14.9198679 L251.396269,15.8334365 C249.634387,16.1162078 248.291223,16.6926261 247.366779,17.5626914 C246.442334,18.4327568 245.980112,19.4985869 245.980112,20.7601816 C245.980112,22.1957895 246.4804,23.3377503 247.480975,24.186064 C248.48155,25.0343777 249.786648,25.4585346 251.396269,25.4585346 Z M251.853053,23.1419856 C250.917733,23.1419856 250.167302,22.9027176 249.601759,22.4241816 C249.036217,21.9456457 248.753446,21.3583516 248.753446,20.6622993 C248.753446,19.9444954 249.019903,19.3354496 249.552818,18.835162 C250.085733,18.3348744 250.917733,17.9977241 252.048818,17.823711 L252.048818,17.823711 L256.910308,16.9753973 L256.910308,20.1076326 C256.344766,21.0429529 255.6324,21.7825084 254.77321,22.3262993 C253.914021,22.8700901 252.940635,23.1419856 251.853053,23.1419856 Z" id="ßeta" fill="#1C1C1C"></path>
                <path d="M9.24172549,24.8059856 C11.0471111,24.8059856 12.7056732,24.5014627 14.2174118,23.8924169 C15.7291503,23.2833712 17.0179346,22.4568091 18.0837647,21.4127307 C19.1495948,20.3686522 19.9815948,19.1559986 20.5797647,17.7747699 C21.1779346,16.3935411 21.4770196,14.9307437 21.4770196,13.3863777 C21.4770196,11.8420117 21.1779346,10.3792143 20.5797647,8.99798555 C19.9815948,7.61675679 19.1495948,6.4041032 18.0837647,5.36002477 C17.0179346,4.31594634 15.7291503,3.48938424 14.2174118,2.88033849 C12.7056732,2.27129274 11.0471111,1.96676987 9.24172549,1.96676987 L9.24172549,1.96676987 L0.106039216,1.96676987 L0.106039216,24.8059856 L9.24172549,24.8059856 Z M9.27435294,19.5529659 L5.91372549,19.5529659 L5.91372549,7.21978947 L9.27435294,7.21978947 C11.0579869,7.21978947 12.537098,7.80708359 13.7116863,8.98167183 C14.8862745,10.1562601 15.4735686,11.6244954 15.4735686,13.3863777 C15.4735686,15.1482601 14.8862745,16.6164954 13.7116863,17.7910836 C12.537098,18.9656718 11.0579869,19.5529659 9.27435294,19.5529659 L9.27435294,19.5529659 Z M32.7398877,25.4585346 C34.3060054,25.4585346 35.7198616,25.1648875 36.9814564,24.5775934 C38.2430511,23.9902993 39.2653779,23.1854888 40.0484368,22.163162 L40.0484368,22.163162 L36.3941622,19.2593189 C36.0243845,19.7378548 35.5295348,20.1185084 34.9096132,20.4012797 C34.2896917,20.6840509 33.5990773,20.8254365 32.8377701,20.8254365 C31.7501884,20.8254365 30.8638093,20.5916065 30.1786328,20.1239463 C29.4934564,19.6562862 29.04211,18.954796 28.8245936,18.0194757 L28.8245936,18.0194757 L39.4611426,18.0194757 C39.5481492,17.7367045 39.6242799,17.3451751 39.6895348,16.8448875 C39.7547897,16.3445999 39.7874171,15.8225607 39.7874171,15.2787699 C39.7874171,13.0601032 39.080489,11.2438418 37.6666328,9.82998555 C36.2527766,8.41612934 34.3821361,7.70920124 32.0547113,7.70920124 C30.6626067,7.70920124 29.4336394,7.94846921 28.3678093,8.42700516 C27.3019792,8.90554111 26.4101622,9.54721431 25.6923583,10.3520248 C24.9745544,11.1568352 24.4307636,12.1030313 24.0609858,13.190613 C23.691208,14.2781947 23.5063191,15.4092797 23.5063191,16.5838679 C23.5063191,17.7802078 23.7075217,18.9167307 24.109927,19.9934365 C24.5123322,21.0701424 25.0996263,22.0109006 25.8718093,22.815711 C26.6439923,23.6205215 27.6065021,24.2621947 28.7593387,24.7407307 C29.9121753,25.2192666 31.239025,25.4585346 32.7398877,25.4585346 Z M34.6975348,14.202064 L29.0203583,14.202064 C29.2596263,13.3972535 29.634842,12.8262731 30.1460054,12.4891228 C30.6571688,12.1519725 31.2934041,11.9833973 32.0547113,11.9833973 C32.9465283,11.9833973 33.6045152,12.2172274 34.028672,12.6848875 C34.4528289,13.1525476 34.6757832,13.6582731 34.6975348,14.202064 L34.6975348,14.202064 Z M48.3748343,25.4585346 C49.1578931,25.4585346 49.9246382,25.3389006 50.6750696,25.0996326 C51.425501,24.8603646 52.0889258,24.5069006 52.6653441,24.0392405 C53.2417624,23.5715803 53.7094225,22.9897241 54.0683245,22.2936718 C54.4272265,21.5976195 54.6175532,20.7819333 54.6393049,19.846613 C54.6393049,18.3675019 54.2532134,17.2690444 53.4810304,16.5512405 C52.7088474,15.8334365 51.8659715,15.2896457 50.9524029,14.9198679 C50.0388343,14.5500901 49.1959585,14.2401293 48.4237755,13.9899856 C47.6515925,13.7398418 47.265501,13.3537503 47.265501,12.831711 C47.265501,12.5489398 47.3742591,12.3205476 47.5917755,12.1465346 C47.8092918,11.9725215 48.1464421,11.885515 48.6032265,11.885515 C49.1905206,11.885515 49.7288735,12.0704039 50.2182853,12.4401816 C50.707697,12.8099594 51.1481676,13.2232405 51.539697,13.6800248 L51.539697,13.6800248 L54.9329519,10.5804169 C54.3239062,9.77560647 53.442965,9.09586791 52.2901284,8.54120124 C51.1372918,7.98653457 49.9083245,7.70920124 48.6032265,7.70920124 C46.7978408,7.70920124 45.302416,8.21492673 44.1169519,9.22637771 C42.9314879,10.2378287 42.3387559,11.526613 42.3387559,13.0927307 C42.3387559,14.5718418 42.7248474,15.6702993 43.4970304,16.3881032 C44.2692134,17.1059071 45.1120892,17.6551359 46.0256578,18.0357895 C46.9392265,18.4164431 47.7821023,18.7318418 48.5542853,18.9819856 C49.3264683,19.2321293 49.7125598,19.6399725 49.7125598,20.205515 C49.7125598,20.5317895 49.5983637,20.7928091 49.3699715,20.9885738 C49.1415794,21.1843385 48.7881153,21.2822208 48.3095794,21.2822208 C47.5700238,21.2822208 46.9174748,21.0701424 46.3519323,20.6459856 C45.7863899,20.2218287 45.2861023,19.726979 44.8510696,19.1614365 L44.8510696,19.1614365 L41.4578147,22.3262993 C42.2843768,23.2616195 43.2523245,24.0174888 44.3616578,24.5939071 C45.4709912,25.1703254 46.8087166,25.4585346 48.3748343,25.4585346 Z M60.2249965,6.56724045 C61.0950619,6.56724045 61.8509312,6.23552804 62.4926044,5.5721032 C63.1342776,4.90867836 63.4551142,4.14193326 63.4551142,3.27186791 C63.4551142,2.40180255 63.1342776,1.64049536 62.4926044,0.987946336 C61.8509312,0.335397317 61.0950619,0.00912280702 60.2249965,0.00912280702 C59.3331795,0.00912280702 58.5609965,0.335397317 57.9084475,0.987946336 C57.2558985,1.64049536 56.929624,2.40180255 56.929624,3.27186791 C56.929624,4.14193326 57.2558985,4.90867836 57.9084475,5.5721032 C58.5609965,6.23552804 59.3331795,6.56724045 60.2249965,6.56724045 Z M62.7699377,24.8059856 L62.7699377,8.36175026 L57.582173,8.36175026 L57.582173,24.8059856 L62.7699377,24.8059856 Z M73.8696686,32.9628483 C76.6103745,32.9628483 78.7529104,32.3211751 80.2972764,31.0378287 C81.8416424,29.7544823 82.6138255,28.1339856 82.6138255,26.1763385 C82.6138255,24.6102208 82.0428451,23.3051228 80.9008843,22.2610444 C79.7589235,21.2169659 78.1982438,20.6949267 76.2188451,20.6949267 L76.2188451,20.6949267 L72.4666882,20.6949267 C72.2056686,20.6949267 71.9935902,20.6351097 71.8304529,20.5154757 C71.6673156,20.3958418 71.585747,20.1946391 71.585747,19.9118679 C71.585747,19.8031097 71.6129366,19.6889137 71.6673156,19.5692797 C71.7216947,19.4496457 71.7923875,19.3463254 71.8793941,19.2593189 C72.0316555,19.2810705 72.183917,19.2919463 72.3361784,19.2919463 L72.3361784,19.2919463 L72.7929627,19.2919463 C74.9898777,19.2919463 76.6756294,18.7318418 77.8502176,17.6116326 C79.0248058,16.4914235 79.6121,15.1156326 79.6121,13.4842601 L79.6121,13.4842601 L79.6121,13.0927307 C79.6121,12.9622208 79.6012241,12.831711 79.5794725,12.7012012 L79.5794725,12.7012012 L82.1570411,12.7012012 L82.1570411,8.36175026 L76.2514725,8.36175026 C75.7729366,8.14423392 75.2454594,7.98109666 74.6690411,7.87233849 C74.0926228,7.76358032 73.4672634,7.70920124 72.7929627,7.70920124 C70.6395509,7.70920124 68.9755509,8.26386791 67.8009627,9.37320124 C66.6263745,10.4825346 66.0390804,11.8528875 66.0390804,13.4842601 C66.0390804,14.3978287 66.2239692,15.2407045 66.593747,16.0128875 C66.9635248,16.7850705 67.5073156,17.4430574 68.2251196,17.9868483 C67.6160738,18.4653842 67.1810411,18.9711097 66.9200215,19.5040248 C66.6590019,20.0369398 66.5284921,20.6405476 66.5284921,21.3148483 C66.5284921,21.7281293 66.6100607,22.1414104 66.773198,22.5546914 C66.9363353,22.9679725 67.1592895,23.3486261 67.4420607,23.6966522 C66.7677601,24.1969398 66.240283,24.7733581 65.8596294,25.4259071 C65.4789758,26.0784561 65.288649,26.8071359 65.288649,27.6119463 C65.288649,29.3955803 66.0282045,30.7333058 67.5073156,31.6251228 C68.9864268,32.5169398 71.1072111,32.9628483 73.8696686,32.9628483 Z M72.8255902,15.507162 C72.1947928,15.507162 71.6781915,15.3385869 71.2757862,15.0014365 C70.873381,14.6642862 70.6721784,14.1585607 70.6721784,13.4842601 C70.6721784,12.831711 70.873381,12.3368614 71.2757862,11.999711 C71.6781915,11.6625607 72.1947928,11.4939856 72.8255902,11.4939856 C73.4563875,11.4939856 73.9784268,11.6571228 74.3917078,11.9833973 C74.8049889,12.3096718 75.0116294,12.8099594 75.0116294,13.4842601 C75.0116294,14.1585607 74.8049889,14.6642862 74.3917078,15.0014365 C73.9784268,15.3385869 73.4563875,15.507162 72.8255902,15.507162 Z M73.8044137,28.8844169 C72.4993156,28.8844169 71.5585575,28.699528 70.9821392,28.3297503 C70.4057209,27.9599725 70.1175117,27.4596849 70.1175117,26.8288875 C70.1175117,26.4373581 70.1990804,26.1002078 70.3622176,25.8174365 C70.5253549,25.5346653 70.7591849,25.2953973 71.0637078,25.0996326 L71.0637078,25.0996326 L75.566296,25.0996326 C76.2188451,25.0996326 76.7082568,25.251894 77.0345313,25.5564169 C77.3608058,25.8609398 77.5239431,26.2524692 77.5239431,26.7310052 C77.5239431,27.3400509 77.230296,27.8512143 76.6430019,28.2644954 C76.0557078,28.6777764 75.1095117,28.8844169 73.8044137,28.8844169 Z M89.8308897,24.8059856 L89.8308897,14.5609659 C89.9178962,14.4304561 90.0320923,14.2510052 90.1734779,14.022613 C90.3148635,13.7942208 90.5051903,13.5712666 90.7444583,13.3537503 C90.9837263,13.1362339 91.2719354,12.951345 91.6090857,12.7990836 C91.9462361,12.6468222 92.3432034,12.5706914 92.7999877,12.5706914 C93.6265498,12.5706914 94.2573472,12.831711 94.6923799,13.3537503 C95.1274125,13.8757895 95.3449289,14.5500901 95.3449289,15.3766522 L95.3449289,15.3766522 L95.3449289,24.8059856 L100.565321,24.8059856 L100.565321,15.1482601 C100.565321,13.9084169 100.396746,12.8208352 100.059596,11.885515 C99.7224452,10.9501947 99.2656609,10.1725738 98.6892426,9.55265222 C98.1128243,8.93273065 97.4385236,8.47050843 96.6663406,8.16598555 C95.8941576,7.86146268 95.0730334,7.70920124 94.2029681,7.70920124 C93.2458962,7.70920124 92.4138962,7.85602477 91.7069681,8.14967183 C91.00004,8.44331889 90.3746805,8.81853457 89.8308897,9.27531889 L89.8308897,9.27531889 L89.8308897,8.36175026 L84.643125,8.36175026 L84.643125,24.8059856 L89.8308897,24.8059856 Z M115.971875,25.4585346 C118.125287,25.4585346 120.066621,25.0398156 121.795875,24.2023777 C123.52513,23.3649398 124.922673,22.2392927 125.988503,20.8254365 L125.988503,20.8254365 L125.988503,10.5477895 L114.927797,10.5477895 L114.927797,15.8008091 L120.180817,15.8008091 L120.180817,18.6393973 C119.637026,19.0526784 119.011666,19.3843908 118.304738,19.6345346 C117.59781,19.8846784 116.820189,20.0097503 115.971875,20.0097503 C114.079483,20.0097503 112.507928,19.3843908 111.257209,18.1336718 C110.00649,16.8829529 109.38113,15.3005215 109.38113,13.3863777 C109.38113,11.4939856 109.968424,9.91699209 111.143013,8.65539732 C112.317601,7.39380255 113.818464,6.76300516 115.645601,6.76300516 C116.776686,6.76300516 117.771823,7.01314895 118.631013,7.51343653 C119.490202,8.01372411 120.191692,8.65539732 120.735483,9.43845614 L120.735483,9.43845614 L125.335954,5.91469143 C124.270124,4.54433849 122.910647,3.43500516 121.257522,2.58669143 C119.604398,1.73837771 117.733758,1.31422085 115.645601,1.31422085 C113.840215,1.31422085 112.181653,1.64049536 110.669915,2.29304438 C109.158176,2.9455934 107.869392,3.81565875 106.803562,4.90324045 C105.737732,5.99082215 104.905732,7.26873065 104.307562,8.73696594 C103.709392,10.2052012 103.410307,11.7550052 103.410307,13.3863777 C103.410307,15.0177503 103.71483,16.5675542 104.323875,18.0357895 C104.932921,19.5040248 105.786673,20.7819333 106.88513,21.869515 C107.983588,22.9570967 109.310438,23.827162 110.865679,24.479711 C112.420921,25.1322601 114.122987,25.4585346 115.971875,25.4585346 Z M138.03443,25.4585346 C139.383031,25.4585346 140.611998,25.2301424 141.721332,24.7733581 C142.830665,24.3165738 143.782299,23.6912143 144.576234,22.8972797 C145.370168,22.103345 145.99009,21.1625869 146.435998,20.0750052 C146.881907,18.9874235 147.104861,17.823711 147.104861,16.5838679 C147.104861,15.3440248 146.881907,14.1803123 146.435998,13.0927307 C145.99009,12.005149 145.370168,11.0643908 144.576234,10.2704561 C143.782299,9.4765215 142.830665,8.85116202 141.721332,8.39437771 C140.611998,7.9375934 139.383031,7.70920124 138.03443,7.70920124 C136.685829,7.70920124 135.451423,7.9375934 134.331214,8.39437771 C133.211005,8.85116202 132.253933,9.4765215 131.459998,10.2704561 C130.666064,11.0643908 130.046142,12.005149 129.600234,13.0927307 C129.154325,14.1803123 128.931371,15.3440248 128.931371,16.5838679 C128.931371,17.823711 129.154325,18.9874235 129.600234,20.0750052 C130.046142,21.1625869 130.666064,22.103345 131.459998,22.8972797 C132.253933,23.6912143 133.211005,24.3165738 134.331214,24.7733581 C135.451423,25.2301424 136.685829,25.4585346 138.03443,25.4585346 Z M138.067057,20.5970444 C137.001227,20.5970444 136.10941,20.2327045 135.391606,19.5040248 C134.673802,18.775345 134.3149,17.8019594 134.3149,16.5838679 C134.3149,15.3657764 134.673802,14.3923908 135.391606,13.663711 C136.10941,12.9350313 137.001227,12.5706914 138.067057,12.5706914 C139.111136,12.5706914 139.986639,12.9295934 140.693567,13.6473973 C141.400495,14.3652012 141.753959,15.3440248 141.753959,16.5838679 C141.753959,17.7802078 141.400495,18.7481555 140.693567,19.487711 C139.986639,20.2272666 139.111136,20.5970444 138.067057,20.5970444 Z M157.682553,25.4585346 C160.205742,25.4585346 162.168827,24.7244169 163.571808,23.2561816 C164.974788,21.7879463 165.676278,19.8248614 165.676278,17.3669267 L165.676278,17.3669267 L165.676278,8.36175026 L160.455886,8.36175026 L160.455886,17.6605738 C160.455886,18.5306391 160.232932,19.2375673 159.787023,19.7813581 C159.341115,20.325149 158.650501,20.5970444 157.71518,20.5970444 C156.758108,20.5970444 156.056618,20.325149 155.61071,19.7813581 C155.164801,19.2375673 154.941847,18.5306391 154.941847,17.6605738 L154.941847,17.6605738 L154.941847,8.36175026 L149.721455,8.36175026 L149.721455,17.3669267 C149.721455,19.8248614 150.412069,21.7879463 151.793298,23.2561816 C153.174527,24.7244169 155.137612,25.4585346 157.682553,25.4585346 Z M179.810362,24.8059856 L185.454911,8.36175026 L179.908245,8.36175026 L176.417107,18.5741424 L172.893343,8.36175026 L167.346676,8.36175026 L172.991225,24.8059856 L179.810362,24.8059856 Z" id="DesignGouv" fill="#000000"></path>
            </g>
        </g>
    </g>
</svg>
