<?xml version="1.0" encoding="UTF-8"?>
<svg width="2437px" height="2300px" viewBox="0 0 2437 2300" version="1.1" xmlns="http://www.w3.org/2000/svg" xmlns:xlink="http://www.w3.org/1999/xlink">
    <!-- Generator: Sketch 63.1 (92452) - https://sketch.com -->
    <title>logoRF</title>
    <desc>Created with Sketch.</desc>
    <g id="logoRF" stroke="none" stroke-width="1" fill="none" fill-rule="evenodd">
        <rect fill="#FFFFFF" x="0" y="0" width="2437" height="2300"></rect>
        <g id="RF_LOGO" transform="translate(300.000000, 300.000000)" fill-rule="nonzero">
            <g id="LEF" transform="translate(0.000000, 1150.000000)" fill="#000000">
                <path d="M743.852459,465.955888 C750.440524,465.955888 756.130217,471.046666 753.135642,482.725509 L722.890433,490.810862 C727.681753,476.436901 736.665479,465.955888 743.852459,465.955888 M760.62208,515.06692 L754.632929,515.06692 C747.146492,524.050645 738.761681,531.237626 730.676329,531.237626 C722.291518,531.237626 718.099113,526.146848 718.099113,515.06692 C718.099113,510.575057 718.698028,505.783737 719.596401,501.591332 L768.707432,485.420626 C778.290073,462.661856 766.61123,452.779758 753.135642,452.779758 C729.777956,452.779758 703.425695,493.505979 703.425695,525.547933 C703.425695,540.820266 710.612675,549.205076 721.992061,549.205076 C735.467649,549.205076 749.242694,536.328403 760.62208,515.06692 M752.836184,441.999287 L780.685733,416.545399 L780.685733,412.951909 L762.119367,412.951909 L745.649204,442.298745 L752.836184,442.298745 L752.836184,441.999287 Z M648.325513,466.554803 L664.496218,466.554803 L638.742872,537.226776 C636.347212,543.215926 639.641245,549.205076 645.929853,549.205076 C664.196761,549.205076 686.057159,533.633286 694.44197,511.47343 L689.950107,511.47343 C683.362042,520.756613 668.988081,530.938168 658.207611,533.034371 L681.864754,466.554803 L706.120813,466.554803 L709.115388,456.373248 L685.458244,456.373248 L694.44197,430.919359 L685.158787,430.919359 L668.389166,456.373248 L648.325513,459.068365 L648.325513,466.554803 L648.325513,466.554803 Z M631.555892,462.961313 C633.652095,456.373248 629.160232,452.779758 625.866199,452.779758 C611.791696,452.779758 594.722618,465.656431 588.134553,483.324424 L592.626416,483.324424 C597.118278,476.736359 604.904174,469.549378 612.390611,468.351548 L585.139978,539.023521 C582.744318,545.611586 587.535638,549.205076 591.129128,549.205076 C604.604716,549.205076 620.475964,536.328403 627.064029,518.66041 L622.572167,518.66041 C618.080304,525.248475 610.294409,532.435456 602.807971,533.633286 L631.555892,462.961313 Z M634.25101,434.812307 C640.24016,434.812307 645.330938,429.721529 645.330938,423.732379 C645.330938,417.743229 640.24016,412.652451 634.25101,412.652451 C627.962402,412.652451 623.171082,417.743229 623.171082,423.732379 C623.171082,430.020987 627.962402,434.812307 634.25101,434.812307 M502.789162,472.543953 C506.981567,472.543953 509.377227,479.132019 502.789162,493.805437 L483.623881,536.328403 C480.030391,544.413756 483.923339,549.504534 491.709234,549.504534 C496.500554,549.504534 498.596757,548.306704 500.69296,543.215926 L519.558783,493.505979 C528.243051,482.725509 544.413756,471.346123 551.600737,471.346123 C556.691514,471.346123 556.092599,475.538529 552.798567,482.126594 L523.751188,537.526233 C521.05607,542.916469 524.64956,549.504534 530.938168,549.504534 C545.012671,549.504534 562.081749,536.627861 568.669815,518.959868 L563.579037,518.959868 C559.087174,525.547933 551.301279,532.734913 543.814841,533.932743 L568.669815,483.623881 C571.963847,477.335274 573.461135,471.346123 573.461135,466.554803 C573.461135,458.46945 568.969272,453.079215 560.285004,453.079215 C548.007246,453.079215 537.526233,466.854261 522.553358,483.923339 L522.553358,470.747208 C522.553358,461.464026 519.558783,453.079215 511.173972,453.079215 C501.291875,453.079215 492.308149,468.651006 485.121169,483.623881 L489.613032,483.623881 C494.703809,476.436901 499.195672,472.543953 502.789162,472.543953 M483.324424,474.340699 C486.618456,462.661856 484.821711,452.779758 476.137444,452.779758 C465.057516,452.779758 461.464026,460.266195 450.683555,483.623881 L450.683555,470.447751 C450.683555,461.164568 447.68898,452.779758 439.30417,452.779758 C429.422072,452.779758 420.438346,468.351548 413.251366,483.324424 L417.743229,483.324424 C422.534549,476.436901 427.026412,472.244496 430.619902,472.244496 C434.812307,472.244496 437.207967,478.832561 430.619902,493.505979 L411.454621,536.028946 C407.861131,544.114299 411.754079,549.205076 419.539974,549.205076 C424.331294,549.205076 426.427497,548.007246 428.523699,542.916469 L446.790607,493.206522 C452.180843,486.618456 456.972163,480.928764 462.961313,474.640156 L483.324424,474.640156 L483.324424,474.340699 Z M378.813752,465.955888 C385.401818,465.955888 391.09151,471.046666 388.096935,482.725509 L357.851726,490.810862 C362.942504,476.436901 371.626772,465.955888 378.813752,465.955888 M395.583373,515.06692 L389.594223,515.06692 C382.107785,524.050645 373.722975,531.237626 365.637622,531.237626 C357.252811,531.237626 353.060406,526.146848 353.060406,515.06692 C353.060406,510.575057 353.659321,505.783737 354.557694,501.591332 L403.668726,485.420626 C413.251366,462.661856 401.871981,452.779758 388.096935,452.779758 C364.739249,452.779758 338.386988,493.505979 338.386988,525.547933 C338.386988,540.820266 345.573968,549.205076 356.953354,549.205076 C370.428942,549.205076 384.203987,536.328403 395.583373,515.06692 M283.286806,466.554803 L299.457512,466.554803 L273.704166,537.226776 C271.308506,543.215926 274.602538,549.205076 280.891146,549.205076 C299.158054,549.205076 321.31791,533.633286 329.403263,511.47343 L324.9114,511.47343 C318.323335,520.756613 303.949374,530.938168 293.168904,533.034371 L316.826047,466.554803 L341.082106,466.554803 L344.076681,456.373248 L320.419537,456.373248 L329.403263,430.919359 L320.12008,430.919359 L303.350459,456.373248 L283.286806,459.068365 L283.286806,466.554803 L283.286806,466.554803 Z M197.3425,521.654985 C197.3425,499.794587 221.598559,470.148293 235.373604,470.148293 C238.368179,470.148293 241.362754,470.447751 243.758415,471.346123 L229.683911,509.07777 C221.598559,518.959868 209.021343,530.938168 203.032193,530.938168 C199.438703,530.938168 197.3425,528.243051 197.3425,521.654985 M271.907421,448.587352 L264.420983,447.988437 L256.036172,456.373248 L254.538885,456.373248 C218.903441,456.373248 180.57288,500.69296 180.57288,535.729488 C180.57288,543.814841 185.064742,549.205076 193.74901,549.205076 C204.230023,549.205076 214.411578,534.232201 226.090421,518.360953 L225.491506,524.050645 C223.994219,540.221351 229.084996,549.205076 237.469807,549.205076 C247.351905,549.205076 256.33563,533.633286 263.223153,518.66041 L258.73129,518.66041 C253.93997,525.547933 249.448107,529.740338 245.854617,529.740338 C242.261127,529.740338 239.566009,522.852815 245.854617,508.478855 L271.907421,448.587352 Z M195.545755,474.340699 C198.839788,462.661856 197.043043,452.779758 188.358775,452.779758 C177.278847,452.779758 173.685357,460.266195 162.904886,483.623881 L162.904886,470.447751 C162.904886,461.164568 159.910311,452.779758 151.226043,452.779758 C141.343946,452.779758 132.36022,468.351548 125.472697,483.324424 L129.96456,483.324424 C134.75588,476.436901 139.247743,472.244496 142.841233,472.244496 C147.033638,472.244496 149.429298,478.832561 142.841233,493.505979 L123.376495,536.328403 C119.783005,544.413756 123.675952,549.504534 131.461848,549.504534 C136.253168,549.504534 138.34937,548.306704 140.445573,543.215926 L159.311396,493.206522 C164.701631,486.618456 169.492952,480.928764 175.482102,474.640156 L195.545755,474.640156 L195.545755,474.340699 Z M70.0730577,545.911044 L71.8698028,540.520809 C48.2126594,536.028946 45.2180843,536.028946 54.8007246,510.2756 L63.78445,486.019541 L82.6502732,486.019541 C94.3291162,486.019541 94.6285737,491.110319 92.8318286,503.986992 L99.7193514,503.986992 L115.291142,461.164568 L108.403619,461.164568 C102.414469,471.346123 97.9226063,479.132019 85.0459333,479.132019 L66.1801101,479.132019 L79.0567831,444.09549 C83.5486458,431.518274 85.6448483,429.122614 101.815554,429.122614 L106.007959,429.122614 C122.478122,429.122614 124.574325,433.614477 124.574325,450.983013 L131.16239,450.983013 L136.552625,421.935634 L45.2180843,421.935634 L43.4213392,427.325869 C62.2871624,431.218817 64.0839075,433.015562 55.3996397,457.571078 L35.9349014,510.575057 C26.9511761,534.831116 23.3576859,536.927318 1.49728756,540.820266 L4.25554719e-13,546.210501 L70.0730577,546.210501 L70.0730577,545.911044 Z" id="Shape"></path>
                <path d="M523.152273,259.629663 C529.740338,259.629663 535.430031,264.72044 532.435456,276.399283 L502.190247,284.484636 C506.981567,270.110676 515.965293,259.629663 523.152273,259.629663 M539.921894,308.740695 L533.932743,308.740695 C526.446306,317.72442 518.061495,324.9114 509.976142,324.9114 C501.591332,324.9114 497.398927,319.820622 497.398927,308.740695 C497.398927,304.248832 497.997842,299.457512 498.896214,295.265107 L548.007246,279.094401 C557.589887,256.33563 545.911044,246.453532 532.435456,246.453532 C509.07777,246.453532 482.725509,287.179754 482.725509,319.221707 C482.725509,334.494041 489.912489,342.878851 501.291875,342.878851 C514.767463,343.178308 528.542508,330.002178 539.921894,308.740695 M532.135998,235.673062 L559.985547,210.219173 L559.985547,206.625683 L541.419181,206.625683 L524.949018,235.972519 L532.135998,235.972519 L532.135998,235.673062 Z M427.625327,260.228578 L443.796032,260.228578 L418.042686,330.90055 C415.647026,336.889701 418.941059,342.878851 425.229667,342.878851 C443.496575,342.878851 465.356973,327.30706 473.741783,305.147204 L469.249921,305.147204 C462.661856,314.430387 448.287895,324.611943 437.507425,326.708145 L461.164568,260.228578 L485.420626,260.228578 L488.415202,250.047022 L464.758058,250.047022 L473.741783,224.593134 L464.458601,224.593134 L447.68898,250.047022 L427.625327,253.041597 L427.625327,260.228578 Z M410.855706,256.934545 C412.951909,250.34648 408.460046,246.75299 404.866556,246.75299 C390.792053,246.75299 373.722975,259.629663 367.134909,277.297656 L371.626772,277.297656 C376.118635,270.709591 383.90453,263.52261 391.390968,262.32478 L364.140334,332.996753 C361.744674,339.584818 366.535994,343.178308 370.129484,343.178308 C383.605072,343.178308 399.476321,330.301635 406.064386,312.633642 L401.572523,312.633642 C397.08066,319.221707 389.294765,326.408688 381.808327,327.606518 L410.855706,256.934545 Z M413.550824,228.785539 C419.539974,228.785539 424.630752,223.694761 424.630752,217.705611 C424.630752,211.716461 419.539974,206.625683 413.550824,206.625683 C407.262216,206.625683 402.470896,211.716461 402.470896,217.705611 C402.470896,223.694761 407.262216,228.785539 413.550824,228.785539 M326.708145,327.606518 L371.626772,208.422428 L370.129484,206.326226 L338.985903,209.919716 L338.985903,213.513206 L344.975053,218.005069 C350.365289,222.197474 348.568544,226.090421 343.777223,239.566009 L309.639067,330.601093 C306.644492,335.991328 310.53744,342.579393 316.826047,342.579393 C330.90055,342.579393 346.172884,329.70272 352.760949,312.034727 L348.269086,312.034727 C343.477766,318.92225 333.895126,326.10923 326.708145,327.606518 M235.074147,315.32876 C235.074147,293.468361 259.330205,263.822068 273.105251,263.822068 C276.099826,263.822068 278.794943,264.121525 281.490061,265.019898 L267.1161,302.751544 C259.030748,312.633642 246.453532,324.611943 240.464382,324.611943 C237.170349,324.9114 235.074147,321.916825 235.074147,315.32876 M309.639067,242.560584 L302.152629,241.961669 L293.767819,250.34648 L292.270531,250.34648 C256.635088,250.34648 218.304526,294.666191 218.304526,329.70272 C218.304526,337.788073 222.796389,343.178308 231.480657,343.178308 C241.961669,343.178308 252.143225,328.205433 263.822068,312.334185 L263.223153,318.023877 C261.725865,334.194583 266.816643,343.178308 275.201453,343.178308 C285.083551,343.178308 294.067276,327.606518 300.954799,312.633642 L296.462937,312.633642 C291.671616,319.521165 287.179754,323.71357 283.586264,323.71357 C279.992773,323.71357 277.297656,316.826047 283.586264,302.751544 L309.639067,242.560584 Z M136.253168,360.247387 C136.253168,350.964204 145.236893,344.975053 158.113566,339.884276 C162.305971,341.980478 168.894037,344.376138 177.278847,347.071256 C190.754435,351.563119 195.845213,353.359864 195.845213,357.252811 C195.845213,365.937079 183.567455,372.525145 161.108141,372.525145 C144.338521,372.824602 136.253168,369.231112 136.253168,360.247387 M173.086442,303.051002 C167.097292,303.051002 165.001089,297.960224 165.001089,292.270531 C165.001089,274.602538 173.385899,253.341055 186.861487,253.341055 C192.850638,253.341055 194.94684,258.431833 194.94684,264.121525 C194.94684,281.490061 186.262572,303.051002 173.086442,303.051002 M211.417003,351.563119 C211.417003,340.183733 201.235448,335.991328 184.765285,331.200008 C170.690782,327.007603 164.102716,325.809773 164.102716,321.018453 C164.102716,317.424962 167.097292,312.9331 173.086442,309.639067 C196.444128,308.441237 211.117546,287.479211 211.117546,268.912845 C211.117546,265.618813 210.518631,262.624238 209.620258,259.92912 L225.491506,259.92912 L228.486081,249.747565 L201.534905,249.747565 C197.941415,247.351905 193.449553,246.154075 188.358775,246.154075 C163.803259,246.154075 147.932011,267.715015 147.932011,286.880296 C147.932011,299.158054 155.118991,307.542864 166.498376,309.040152 C155.118991,314.430387 148.530926,320.12008 148.530926,327.30706 C148.530926,331.499465 150.028213,334.494041 153.621703,337.189158 C127.269442,344.975053 116.488972,354.857151 116.488972,366.236537 C116.488972,378.514295 132.659678,383.605072 151.824958,383.605072 C184.16637,383.90453 211.417003,366.236537 211.417003,351.563119 M89.2383385,279.693316 C100.917181,279.693316 101.216639,284.784094 99.4198939,297.660767 L106.307417,297.660767 L121.879207,254.838342 L114.991684,254.838342 C109.002534,265.019898 104.510672,272.805793 91.6339986,272.805793 L65.5811951,272.805793 L78.4578681,237.769264 C82.9497307,225.192049 85.3453908,222.796389 101.216639,222.796389 L112.596024,222.796389 C129.066188,222.796389 131.16239,227.288251 131.16239,244.656787 L137.750455,244.656787 L143.140691,215.609408 L45.2180843,215.609408 L43.4213392,220.999644 C62.2871624,224.892591 64.0839075,226.689336 55.3996397,251.244852 L35.9349014,304.248832 C26.9511761,328.50489 23.3576859,330.601093 1.49728756,334.494041 L0,339.884276 L109.002534,339.884276 L128.467273,309.040152 L120.980835,309.040152 C108.403619,321.617368 95.5269462,332.697295 71.2708878,332.697295 C42.2235091,332.697295 44.9186268,331.200008 54.5012671,304.248832 L63.4849925,279.992773 L89.2383385,279.992773 L89.2383385,279.693316 Z M103.312842,206.625683 L131.16239,186.262572 L131.16239,182.669082 L112.596024,182.669082 L96.1258612,206.625683 L103.312842,206.625683 Z" id="Shape"></path>
                <path d="M519.558783,53.6028946 C526.146848,53.6028946 531.836541,58.6936723 528.841966,70.3725152 L498.596757,78.4578681 C503.388077,63.78445 512.371802,53.6028946 519.558783,53.6028946 M536.328403,102.713927 L530.339253,102.713927 C522.852815,111.697652 514.468005,118.884632 506.382652,118.884632 C497.997842,118.884632 493.805437,113.793854 493.805437,102.713927 C493.805437,98.2220638 494.404352,93.4307436 495.302724,89.2383385 L544.413756,73.0676329 C553.996397,50.308862 542.317554,40.4267641 528.841966,40.4267641 C505.48428,40.4267641 479.132019,81.1529857 479.132019,113.194939 C479.132019,128.467273 486.318999,136.852083 497.698384,136.852083 C511.173972,136.852083 524.949018,123.97541 536.328403,102.713927 M528.542508,29.6462937 L556.392057,4.19240516 L556.392057,0.598915023 L537.825691,0.598915023 L521.355528,29.9457512 L528.542508,29.9457512 L528.542508,29.6462937 Z M424.031837,53.9023521 L440.502,53.9023521 L414.748654,124.574325 C412.352994,130.563475 415.647026,136.552625 421.935634,136.552625 C440.202542,136.552625 462.362398,120.980835 470.447751,98.8209789 L465.955888,98.8209789 C459.367823,108.104162 444.993862,118.285717 434.213392,120.38192 L457.870535,53.9023521 L482.126594,53.9023521 L485.121169,43.7207967 L461.464026,43.7207967 L470.447751,18.2669082 L461.164568,18.2669082 L444.394947,43.7207967 L424.331294,46.4159143 L424.331294,53.9023521 L424.031837,53.9023521 Z M415.647026,61.9877049 C418.941059,50.308862 417.144314,40.4267641 408.460046,40.4267641 C397.380118,40.4267641 393.786628,47.9132019 383.006157,71.2708878 L383.006157,58.0947573 C383.006157,48.8115744 380.011582,40.4267641 371.626772,40.4267641 C361.744674,40.4267641 352.760949,55.9985547 345.573968,70.9714303 L350.065831,70.9714303 C354.857151,64.0839075 359.349014,59.8915023 362.942504,59.8915023 C367.134909,59.8915023 369.530569,66.4795676 362.942504,81.1529857 L343.777223,123.675952 C340.183733,131.761305 344.076681,136.852083 351.862576,136.852083 C356.653896,136.852083 358.750099,135.654253 360.846302,130.563475 L379.712125,80.8535282 C385.10236,74.2654629 389.89368,68.5757702 395.88283,62.2871624 L415.647026,62.2871624 L415.647026,61.9877049 Z M311.136355,53.6028946 C317.72442,53.6028946 323.414113,58.6936723 320.419537,70.3725152 L290.174329,78.4578681 C294.965649,63.78445 303.949374,53.6028946 311.136355,53.6028946 M327.905975,102.713927 L321.916825,102.713927 C314.430387,111.697652 306.045577,118.884632 297.960224,118.884632 C289.575414,118.884632 285.383009,113.793854 285.383009,102.713927 C285.383009,98.2220638 285.981924,93.4307436 286.880296,89.2383385 L335.991328,73.0676329 C345.573968,50.308862 334.194583,40.4267641 320.419537,40.4267641 C297.061852,40.4267641 270.709591,81.1529857 270.709591,113.194939 C270.709591,128.467273 277.896571,136.852083 289.275956,136.852083 C302.751544,136.852083 316.52659,123.97541 327.905975,102.713927 M213.513206,122.478122 C208.721886,122.478122 201.834363,117.98626 201.834363,114.093312 C201.834363,112.895482 203.930565,107.205789 206.625683,100.318266 L214.411578,79.3562406 C222.796389,69.1746852 235.972519,58.0947573 243.458957,58.0947573 C247.95082,58.0947573 251.244852,61.0893324 251.244852,67.3779401 C250.945395,87.1421359 232.977944,122.478122 213.513206,122.478122 M268.014473,59.8915023 C268.014473,45.5175418 264.420983,40.1273066 254.239427,40.1273066 C241.662212,40.1273066 229.983369,53.6028946 218.005069,69.7736002 L243.159499,2.09620258 L241.662212,3.40443775e-13 L210.518631,3.59349014 L210.518631,7.18698028 L216.507781,11.678843 C221.898016,15.8712481 220.101271,20.0636533 215.309951,33.2397838 L188.059317,104.810129 C185.663657,110.799279 182.96854,117.98626 182.96854,119.783005 C182.96854,128.167815 194.347925,136.253168 204.828938,136.253168 C228.486081,136.852083 268.014473,93.4307436 268.014473,59.8915023 M176.081017,50.6083195 C177.877762,44.0202542 173.685357,40.4267641 170.091867,40.4267641 C156.017364,40.4267641 138.948285,53.3034371 132.36022,70.9714303 L136.852083,70.9714303 C141.343946,64.383365 149.129841,57.1963847 156.616279,55.9985547 L129.365645,126.670527 C126.969985,133.258593 131.761305,136.852083 135.354795,136.852083 C148.830383,136.852083 164.701631,123.97541 171.289697,106.307417 L166.797834,106.307417 C162.305971,112.895482 154.520076,120.082462 147.033638,121.280292 L176.081017,50.6083195 Z M179.075592,22.4593134 C185.064742,22.4593134 190.15552,17.3685357 190.15552,11.3793854 C190.15552,5.39023521 185.064742,0.299457512 179.075592,0.299457512 C172.786984,0.299457512 167.995664,5.39023521 167.995664,11.3793854 C167.995664,17.3685357 172.786984,22.4593134 179.075592,22.4593134 M109.900907,8.98372535 L45.2180843,8.98372535 L43.4213392,14.3739606 C62.2871624,18.2669082 64.0839075,20.0636533 55.3996397,44.6191692 L35.9349014,97.6231488 C26.9511761,121.879207 23.3576859,123.97541 1.49728756,127.868357 L2.55332832e-13,133.258593 L98.2220638,133.258593 L119.483547,95.2274887 L111.997109,95.2274887 C99.7193514,108.703077 85.6448483,125.772155 63.78445,125.772155 C47.3142868,125.772155 44.9186268,122.77758 54.2018096,97.3236913 L73.6665479,44.3197117 C82.6502732,20.0636533 86.2437634,17.9674507 108.104162,14.074503 L109.900907,8.98372535 Z" id="Shape"></path>
            </g>
            <g id="DINUM" transform="translate(0.000000, 388.000000)">
                <path d="M45.61999,612.282633 L45.61999,517.199773 L118.226453,517.199773 L118.226453,478.331442 L45.61999,478.331442 L45.61999,426.292849 L131.077154,426.292849 L131.077154,387.424518 L0,387.424518 L0,612.282633 L45.61999,612.282633 Z M206.682114,612.282633 L206.682114,521.375709 L230.134644,521.375709 L289.890406,612.282633 L344.505887,612.282633 L273.827029,512.702611 C285.178482,507.348846 294.013339,499.692963 300.331601,489.73496 C306.649862,479.776958 309.808993,468.052213 309.808993,454.560726 C309.808993,433.78812 302.634018,417.4056 288.284068,405.413167 C273.934118,393.420734 254.443888,387.424518 229.813377,387.424518 L229.813377,387.424518 L161.062124,387.424518 L161.062124,612.282633 L206.682114,612.282633 Z M232.383517,482.507378 L206.682114,482.507378 L206.682114,426.292849 L232.383517,426.292849 C242.021543,426.292849 249.517786,428.755581 254.872244,433.681044 C260.226703,438.606508 262.903933,445.352251 262.903933,453.918275 C262.903933,463.12675 260.226703,470.193719 254.872244,475.119183 C249.517786,480.044646 242.021543,482.507378 232.383517,482.507378 L232.383517,482.507378 Z M392.481839,612.282633 L414.006764,553.819523 L503.961673,553.819523 L525.486598,612.282633 L573.997996,612.282633 L488.862099,387.424518 L429.106338,387.424518 L343.970441,612.282633 L392.481839,612.282633 Z M489.825902,514.951192 L428.142535,514.951192 L458.984218,430.468785 L489.825902,514.951192 Z M644.141408,612.282633 L644.141408,450.706016 L744.698146,612.282633 L803.168838,612.282633 L803.168838,387.424518 L757.548848,387.424518 L757.548848,548.358683 L656.992109,387.424518 L598.521418,387.424518 L598.521418,612.282633 L644.141408,612.282633 Z M945.918712,664 L973.868988,617.422247 C990.146543,615.280742 1004.92485,610.248203 1018.20391,602.324631 C1031.48297,594.401059 1042.40606,584.550132 1050.9732,572.77185 L1050.9732,572.77185 L1014.99123,545.146425 C1008.56588,554.3549 1000.37356,561.796633 990.414266,567.471623 C980.454972,573.146614 969.049975,575.984109 956.199274,575.984109 C945.704534,575.984109 935.959419,574.003216 926.963928,570.04143 C917.968437,566.079644 910.311561,560.72588 903.993299,553.980136 C897.675038,547.234393 892.695391,539.203746 889.054359,529.888195 C885.413327,520.572645 883.592811,510.561105 883.592811,499.853575 C883.592811,489.146046 885.413327,479.134506 889.054359,469.818956 C892.695391,460.503405 897.675038,452.472758 903.993299,445.727015 C910.311561,438.981271 917.968437,433.627507 926.963928,429.665721 C935.959419,425.703935 945.704534,423.723042 956.199274,423.723042 C969.049975,423.723042 980.454972,426.560537 990.414266,432.235528 C1000.37356,437.910518 1008.56588,445.352251 1014.99123,454.560726 L1014.99123,454.560726 L1050.9732,426.614075 C1040.69264,413.122588 1027.41358,402.14737 1011.13602,393.688422 C994.858467,385.229474 976.546217,381 956.199274,381 C938.636648,381 922.466182,384.212259 907.687876,390.636776 C892.909569,397.061294 880.273046,405.627317 869.778307,416.334847 C859.283567,427.042376 851.14479,439.623723 845.361974,454.078888 C839.579158,468.534052 836.687751,483.792281 836.687751,499.853575 C836.687751,513.987514 838.990168,527.586076 843.595003,540.649262 C848.199837,553.712448 854.732277,565.437193 863.192322,575.823496 C871.652367,586.209799 881.879384,594.989974 893.873372,602.164018 C905.86736,609.338063 919.146418,614.209989 933.710546,616.779796 L933.710546,616.779796 L905.439003,664 L945.918712,664 Z M1098.94915,612.282633 L1120.47407,553.819523 L1210.42898,553.819523 L1231.95391,612.282633 L1280.46531,612.282633 L1195.32941,387.424518 L1135.57365,387.424518 L1050.43775,612.282633 L1098.94915,612.282633 Z M1196.29321,514.951192 L1134.60984,514.951192 L1165.45153,430.468785 L1196.29321,514.951192 Z M1350.60872,612.282633 L1350.60872,387.424518 L1304.98873,387.424518 L1304.98873,612.282633 L1350.60872,612.282633 Z M1466.69339,618.707151 C1476.97395,618.707151 1486.61197,617.154559 1495.60746,614.049376 C1504.60296,610.944192 1512.42047,606.500568 1519.05999,600.718502 C1525.69952,594.936436 1531.00044,587.869467 1534.96274,579.517594 C1538.92504,571.165721 1541.01328,561.743095 1541.22745,551.249716 C1541.22745,532.404465 1535.873,518.056375 1525.16408,508.205448 C1514.45516,498.354521 1502.67535,490.377412 1489.82465,484.27412 C1476.97395,478.170829 1465.19414,472.495838 1454.48522,467.249149 C1443.7763,462.002459 1438.42184,454.346576 1438.42184,444.281498 C1438.42184,437.64283 1440.77781,432.074915 1445.48973,427.577753 C1450.20165,423.08059 1456.51991,420.832009 1464.44451,420.832009 C1473.01165,420.832009 1480.98979,423.348278 1488.37895,428.380817 C1495.7681,433.413356 1502.78244,440.212637 1509.42197,448.778661 L1509.42197,448.778661 L1542.83379,418.904654 C1533.40994,407.554673 1522.11204,398.399735 1508.94007,391.439841 C1495.7681,384.479947 1480.82916,381 1464.12325,381 C1453.41433,381 1443.66921,382.713205 1434.8879,386.139614 C1426.10659,389.566023 1418.5568,394.223799 1412.23854,400.11294 C1405.92028,406.002081 1400.99418,412.961975 1397.46023,420.992622 C1393.92629,429.023269 1392.15932,437.42868 1392.15932,446.208854 C1392.15932,464.839955 1397.51378,478.973893 1408.2227,488.61067 C1418.93161,498.247446 1430.71142,506.11748 1443.56212,512.220772 C1456.41283,518.324064 1468.19264,523.999054 1478.90155,529.245743 C1489.61047,534.492433 1494.96493,542.148316 1494.96493,552.213394 C1494.96493,560.351116 1492.39479,566.722096 1487.25451,571.326334 C1482.11423,575.930571 1475.04634,578.23269 1466.05085,578.23269 C1456.84118,578.23269 1447.89924,575.769958 1439.22501,570.844495 C1430.55079,565.919031 1422.89391,559.173288 1416.25438,550.607264 L1416.25438,550.607264 L1383.16383,581.123723 C1393.01603,592.902005 1404.68875,602.110481 1418.18199,608.749149 C1431.67523,615.387817 1447.84569,618.707151 1466.69339,618.707151 Z M1710,612.282633 L1710,573.414302 L1624.54284,573.414302 L1624.54284,517.199773 L1697.1493,517.199773 L1697.1493,478.331442 L1624.54284,478.331442 L1624.54284,426.292849 L1710,426.292849 L1710,387.424518 L1578.92285,387.424518 L1578.92285,612.282633 L1710,612.282633 Z" id="FRANÇAISE" fill="#1C1C1C"></path>
                <path d="M45.5645496,287.170253 L45.5645496,196.366698 L68.9885787,196.366698 L128.671721,287.170253 L183.22083,287.170253 L112.627866,187.703461 C123.965524,182.355784 132.789644,174.708606 139.100227,164.761927 C145.41081,154.815248 148.566102,143.103835 148.566102,129.627689 C148.566102,108.878703 141.399846,92.5148114 127.067336,80.536015 C112.734825,68.5572186 93.26828,62.5678204 68.6677015,62.5678204 L68.6677015,62.5678204 L0,62.5678204 L0,287.170253 L45.5645496,287.170253 Z M71.2347184,157.542563 L45.5645496,157.542563 L45.5645496,101.391955 L71.2347184,101.391955 C80.8610317,101.391955 88.3481643,103.851886 93.6961161,108.771749 C99.044068,113.691612 101.718044,120.429685 101.718044,128.985968 C101.718044,138.183973 99.044068,145.242906 93.6961161,150.162769 C88.3481643,155.082632 80.8610317,157.542563 71.2347184,157.542563 L71.2347184,157.542563 Z M286.971095,43.3161833 L328.68512,0 L281.837062,0 L245.577948,43.3161833 L286.971095,43.3161833 Z M332.214768,287.170253 L332.214768,248.346118 L246.861457,248.346118 L246.861457,192.19551 L319.379684,192.19551 L319.379684,153.371375 L246.861457,153.371375 L246.861457,101.391955 L332.214768,101.391955 L332.214768,62.5678204 L201.296907,62.5678204 L201.296907,287.170253 L332.214768,287.170253 Z M420.562932,287.170253 L420.562932,196.366698 L449.120995,196.366698 C473.721573,196.366698 493.134639,190.3773 507.36019,178.398503 C521.585742,166.419707 528.698518,150.162769 528.698518,129.627689 C528.698518,108.878703 521.585742,92.5148114 507.36019,80.536015 C493.134639,68.5572186 473.721573,62.5678204 449.120995,62.5678204 L449.120995,62.5678204 L374.998383,62.5678204 L374.998383,287.170253 L420.562932,287.170253 Z M451.046258,157.542563 L420.562932,157.542563 L420.562932,101.391955 L451.046258,101.391955 C460.672571,101.391955 468.213183,103.851886 473.668094,108.771749 C479.123005,113.691612 481.85046,120.429685 481.85046,128.985968 C481.85046,138.183973 479.123005,145.242906 473.668094,150.162769 C468.213183,155.082632 460.672571,157.542563 451.046258,157.542563 L451.046258,157.542563 Z M643.037728,293.587465 C671.060996,293.587465 693.254996,285.191612 709.619729,268.399906 C725.984461,251.608201 734.166828,228.559713 734.166828,199.254443 L734.166828,199.254443 L734.166828,62.5678204 L688.602278,62.5678204 L688.602278,203.104771 C688.602278,218.078266 684.537835,229.789679 676.408948,238.239008 C668.280061,246.688338 657.26328,250.913003 643.358606,250.913003 C629.240013,250.913003 618.116273,246.688338 609.987386,238.239008 C601.858499,229.789679 597.794056,218.078266 597.794056,203.104771 L597.794056,203.104771 L597.794056,62.5678204 L552.229506,62.5678204 L552.229506,199.254443 C552.229506,228.559713 560.358393,251.608201 576.616167,268.399906 C592.87394,285.191612 615.014461,293.587465 643.037728,293.587465 Z M849.147792,287.170253 C874.817961,287.170253 895.140178,281.287808 910.114443,269.522919 C925.088708,257.758029 932.575841,241.608045 932.575841,221.072965 C932.575841,209.521983 929.36707,199.094013 922.949527,189.789055 C916.531985,180.484097 907.440467,173.15778 895.674973,167.810103 C903.376024,162.462426 909.258771,155.991737 913.323214,148.398036 C917.387658,140.804334 919.419879,132.515435 919.419879,123.531338 C919.419879,104.707515 912.734939,89.8409729 899.36506,78.9317119 C885.99518,68.0224509 867.651705,62.5678204 844.334635,62.5678204 L844.334635,62.5678204 L780.480091,62.5678204 L780.480091,287.170253 L849.147792,287.170253 Z M845.297267,150.48363 L826.04464,150.48363 L826.04464,101.391955 L845.297267,101.391955 C853.85399,101.391955 860.53893,103.584503 865.352086,107.969598 C870.165243,112.354693 872.571821,118.290614 872.571821,125.777362 C872.571821,133.691924 870.165243,139.788276 865.352086,144.066417 C860.53893,148.344559 853.85399,150.48363 845.297267,150.48363 L845.297267,150.48363 Z M851.714809,248.346118 L826.04464,248.346118 L826.04464,189.628625 L851.714809,189.628625 C862.196795,189.628625 870.48612,192.142033 876.582785,197.168849 C882.67945,202.195666 885.727783,209.308076 885.727783,218.50608 C885.727783,227.704085 882.67945,234.976925 876.582785,240.324602 C870.48612,245.672279 862.196795,248.346118 851.714809,248.346118 L851.714809,248.346118 Z M1099.85977,287.170253 L1099.85977,245.779233 L1014.50646,245.779233 L1014.50646,62.5678204 L968.941913,62.5678204 L968.941913,287.170253 L1099.85977,287.170253 Z M1175.37285,287.170253 L1175.37285,62.5678204 L1129.8083,62.5678204 L1129.8083,287.170253 L1175.37285,287.170253 Z M1455.92641,343 C1460.84652,343 1465.12488,342.679139 1468.76149,342.037418 C1472.3981,341.395697 1476.03471,340.326162 1479.67131,338.828812 L1479.67131,338.828812 L1479.67131,300.325538 C1477.31821,301.181166 1474.64424,301.822887 1471.64939,302.250702 C1468.65453,302.678516 1465.98056,302.892423 1463.62746,302.892423 C1456.35424,302.892423 1448.81363,301.28812 1441.00562,298.079514 C1433.19761,294.870907 1425.01525,289.309323 1416.45852,281.394761 L1416.45852,281.394761 L1402.98168,268.560337 C1416.67244,257.651076 1427.4753,243.961023 1435.39027,227.490178 C1443.30524,211.019333 1447.26273,193.478952 1447.26273,174.869036 C1447.26273,158.826006 1444.37483,143.585126 1438.59904,129.146399 C1432.82326,114.707671 1424.69437,102.14063 1414.21238,91.445276 C1403.7304,80.749922 1391.16271,72.1936389 1376.50932,65.7764266 C1361.85593,59.3592142 1345.7586,56.150608 1328.21732,56.150608 C1310.67604,56.150608 1294.52522,59.3592142 1279.76487,65.7764266 C1265.00453,72.1936389 1252.38336,80.749922 1241.90137,91.445276 C1231.41939,102.14063 1223.2905,114.707671 1217.51471,129.146399 C1211.73893,143.585126 1208.85103,158.826006 1208.85103,174.869036 C1208.85103,190.912067 1211.73893,206.152947 1217.51471,220.591674 C1223.2905,235.030402 1231.41939,247.597443 1241.90137,258.292797 C1252.38336,268.988151 1265.00453,277.544434 1279.76487,283.961646 C1294.52522,290.378859 1310.67604,293.587465 1328.21732,293.587465 C1333.56527,293.587465 1338.85974,293.266604 1344.10073,292.624883 C1349.34173,291.983162 1354.31532,291.02058 1359.02152,289.737138 L1359.02152,289.737138 L1385.65432,313.480823 C1396.56414,323.106642 1407.9018,330.432959 1419.66729,335.459775 C1431.43279,340.486592 1443.51916,343 1455.92641,343 Z M1328.21732,250.913003 C1317.73533,250.913003 1308.00206,248.934362 1299.0175,244.977081 C1290.03294,241.0198 1282.38537,235.672123 1276.07479,228.934051 C1269.7642,222.195978 1264.79061,214.174462 1261.154,204.869504 C1257.51739,195.564546 1255.69909,185.56439 1255.69909,174.869036 C1255.69909,164.173683 1257.51739,154.173527 1261.154,144.868569 C1264.79061,135.563611 1269.7642,127.542095 1276.07479,120.804022 C1282.38537,114.065949 1290.03294,108.718273 1299.0175,104.760992 C1308.00206,100.803711 1317.73533,98.8250702 1328.21732,98.8250702 C1338.6993,98.8250702 1348.3791,100.803711 1357.2567,104.760992 C1366.1343,108.718273 1373.72839,114.065949 1380.03897,120.804022 C1386.34955,127.542095 1391.32315,135.563611 1394.95976,144.868569 C1398.59636,154.173527 1400.41467,164.173683 1400.41467,174.869036 C1400.41467,185.56439 1398.59636,195.564546 1394.95976,204.869504 C1391.32315,214.174462 1386.34955,222.195978 1380.03897,228.934051 C1373.72839,235.672123 1366.1343,241.0198 1357.2567,244.977081 C1348.3791,248.934362 1338.6993,250.913003 1328.21732,250.913003 Z M1567.6986,293.587465 C1595.72187,293.587465 1617.91587,285.191612 1634.2806,268.399906 C1650.64533,251.608201 1658.8277,228.559713 1658.8277,199.254443 L1658.8277,199.254443 L1658.8277,62.5678204 L1613.26315,62.5678204 L1613.26315,203.104771 C1613.26315,218.078266 1609.19871,229.789679 1601.06982,238.239008 C1592.94093,246.688338 1581.92415,250.913003 1568.01948,250.913003 C1553.90088,250.913003 1542.77714,246.688338 1534.64826,238.239008 C1526.51937,229.789679 1522.45493,218.078266 1522.45493,203.104771 L1522.45493,203.104771 L1522.45493,62.5678204 L1476.89038,62.5678204 L1476.89038,199.254443 C1476.89038,228.559713 1485.01927,251.608201 1501.27704,268.399906 C1517.53481,285.191612 1539.67533,293.587465 1567.6986,293.587465 Z M1836.05882,287.170253 L1836.05882,248.346118 L1750.70551,248.346118 L1750.70551,192.19551 L1823.22374,192.19551 L1823.22374,153.371375 L1750.70551,153.371375 L1750.70551,101.391955 L1836.05882,101.391955 L1836.05882,62.5678204 L1705.14096,62.5678204 L1705.14096,287.170253 L1836.05882,287.170253 Z" id="RÉPUBLIQUE" fill="#000000"></path>
            </g>
            <g id="Marianne">
                <path d="M266.878949,262.102592 C267.177472,262.102592 267.177472,262.102592 266.878949,262.102592 C268.073038,261.505548 268.670083,261.207025 269.267128,260.609981 C269.267128,260.609981 268.968605,260.609981 268.968605,260.609981 C268.371561,260.908503 267.774516,261.505548 266.878949,262.102592" id="Path" fill="#1F356C"></path>
                <path d="M376.436639,225.68287 L375.839594,226.279914 C376.138116,226.279914 376.436639,225.981392 376.436639,225.68287" id="Path" fill="#1F356C"></path>
                <path d="M341.80805,263.893726 C345.091796,260.609981 348.375541,257.326235 351.360764,253.743967 L351.360764,253.743967 C357.331211,246.877954 363.301657,240.608986 370.16767,234.638539 C372.257326,232.847405 374.346982,231.056271 376.436639,229.862182 C377.033683,229.265138 377.033683,228.071048 377.630728,227.474004 C374.944027,228.668093 373.152893,230.757749 370.16767,231.951838 C369.570625,231.951838 368.973581,231.354794 369.570625,230.757749 C371.660282,229.265138 373.749938,227.772526 375.541072,226.279914 C375.541072,226.279914 375.242549,226.279914 375.242549,226.279914 C374.645505,226.279914 374.645505,225.68287 374.645505,225.085825 C367.182447,223.891736 361.809045,228.966615 356.734166,233.44445 C355.540077,234.041495 354.345987,232.847405 354.047465,232.847405 C345.68884,235.534106 339.419872,242.997164 331.061247,246.280909 L331.061247,245.08682 C327.777501,246.280909 324.493756,248.370566 320.911488,248.96761 C315.836609,250.1617 311.358774,249.564655 306.880939,249.564655 C300.014926,250.1617 293.148913,251.654311 286.2829,253.146923 C285.984377,253.146923 285.984377,253.146923 285.685855,253.445445 C282.103587,254.341012 278.521319,255.833624 275.237574,257.624757 L274.939052,257.92328 C274.640529,258.221802 274.342007,258.520324 274.043485,258.818847 C272.849395,260.012936 271.655306,261.505548 270.162695,262.102592 C266.580427,263.893726 263.893726,266.878949 260.908503,269.56565 C260.609981,269.864172 260.311458,269.864172 260.012936,269.864172 C257.027713,272.849395 254.04249,275.834619 251.057267,278.521319 C250.758744,278.819842 249.863177,278.819842 249.266133,278.819842 C249.266133,278.819842 249.266133,278.819842 249.266133,278.819842 C249.266133,278.521319 249.564655,278.521319 249.564655,278.222797 C250.1617,277.32723 250.460222,276.730186 251.057267,275.834619 C251.654311,274.939052 252.251356,274.043485 252.8484,273.147918 C253.743967,271.953829 254.341012,270.759739 255.236579,269.864172 C255.535101,269.56565 255.535101,269.267128 255.236579,269.267128 C254.938057,268.968605 254.639534,268.968605 254.341012,268.968605 C257.027713,266.281905 260.609981,263.893726 263.893726,261.80407 L263.893726,261.80407 C263.595204,261.80407 262.998159,261.505548 263.296681,261.207025 C263.595204,260.609981 263.893726,260.311458 264.192248,259.714414 C264.192248,259.415891 264.192248,259.415891 264.490771,259.117369 C264.490771,258.818847 264.192248,258.818847 264.192248,258.520324 C263.296681,259.117369 262.401114,259.714414 261.505548,260.311458 C260.012936,261.505548 259.117369,263.893726 257.027713,263.893726 C257.027713,263.893726 256.430668,263.893726 256.132146,263.893726 C255.833624,263.893726 255.535101,263.893726 255.535101,263.595204 C255.535101,263.595204 255.535101,263.595204 255.535101,263.595204 C255.535101,263.595204 255.535101,263.595204 255.535101,263.296681 C255.535101,263.296681 255.535101,263.296681 255.535101,263.296681 C255.535101,262.998159 255.833624,262.998159 255.833624,262.699637 C255.833624,262.401114 256.132146,262.401114 256.132146,262.102592 C256.132146,262.102592 256.132146,261.80407 256.430668,261.80407 C256.430668,261.505548 256.729191,261.207025 256.729191,261.207025 C256.729191,260.908503 257.027713,260.908503 257.027713,260.609981 C257.326235,260.311458 257.624757,259.714414 257.624757,259.415891 C257.624757,259.117369 257.92328,259.117369 257.92328,258.818847 C258.221802,258.520324 258.221802,258.221802 258.520324,257.92328 C258.818847,257.326235 258.520324,257.027713 258.221802,257.027713 C259.117369,255.535101 260.609981,254.639534 262.102592,253.743967 L261.80407,253.743967 C263.893726,252.549878 266.281905,251.355789 268.371561,250.1617 C268.670083,249.863177 268.968605,249.564655 269.267128,249.266133 C265.983382,250.460222 263.296681,251.952833 260.311458,253.743967 C260.311458,253.743967 259.714414,254.04249 259.415891,254.341012 C259.415891,254.341012 258.818847,254.639534 257.92328,253.743967 C257.92328,253.743967 257.92328,253.445445 257.92328,253.445445 C258.520324,252.251356 260.311458,251.654311 261.207025,250.758744 C261.80407,250.758744 262.401114,250.758744 262.401114,251.355789 C280.610976,237.32524 305.388328,240.608986 326.28489,233.44445 C328.076024,232.250361 329.568635,231.056271 331.359769,230.160705 C334.04647,228.966615 336.434648,226.279914 339.718394,224.488781 C344.196229,221.205035 347.479974,217.025723 349.271108,211.652321 C349.271108,211.055276 348.674063,210.458232 348.674063,210.458232 C341.211006,218.219812 332.852381,224.488781 323.896711,228.966615 C311.955819,235.235584 299.119359,234.041495 286.581422,235.832628 C287.178467,234.638539 288.372556,234.638539 289.268123,234.638539 C289.268123,232.847405 290.462212,232.250361 291.656301,231.354794 L293.447435,231.354794 C294.04448,231.354794 294.04448,230.160705 294.641524,230.160705 C295.835614,230.160705 297.626748,229.56366 297.029703,229.56366 C295.238569,227.175481 291.954824,231.354794 289.268123,229.56366 C290.462212,228.369571 289.865167,226.876959 291.059257,226.279914 L293.447435,226.279914 C293.447435,225.085825 294.641524,223.891736 294.641524,223.891736 C303.000149,218.816857 311.060252,214.936066 318.821832,210.458232 C317.030698,210.458232 316.135131,212.249366 314.343997,211.055276 C315.538086,211.055276 314.343997,209.264142 315.538086,209.264142 C321.807055,207.473009 326.881934,204.189263 333.150903,201.801085 C330.762725,201.801085 329.270113,203.592219 326.881934,201.801085 C328.076024,201.20404 328.673068,200.009951 330.16568,200.009951 L330.16568,198.218817 C330.16568,197.621772 330.762725,197.621772 331.359769,197.621772 C330.762725,197.621772 330.16568,197.024728 330.16568,197.024728 C330.762725,195.830638 332.553858,196.427683 333.449425,195.233594 C332.852381,195.233594 331.658291,195.233594 331.658291,194.636549 C333.449425,192.248371 336.136126,191.949848 339.121349,191.352804 C338.524305,190.158714 336.733171,191.352804 336.733171,190.158714 C336.733171,189.56167 337.330215,189.56167 337.92726,189.56167 L336.733171,189.56167 C335.539082,188.964625 336.136126,187.770536 336.136126,187.173491 C339.419872,183.292701 339.419872,178.217822 341.211006,173.739987 C340.613961,173.739987 340.016916,173.739987 340.016916,173.142942 C334.344992,179.411911 325.389323,181.501567 317.030698,183.889746 L313.149908,183.889746 C310.463207,185.083835 306.283895,185.083835 303.597194,183.292701 C301.209015,182.098612 300.313448,180.606 297.92527,178.814866 C293.447435,176.128166 288.9696,173.739987 283.894721,171.948853 C269.864172,167.471018 255.236579,165.08284 240.608986,165.679885 C246.877954,162.396139 253.743967,162.097617 260.311458,160.007961 C269.864172,157.32126 278.819842,153.738992 288.9696,154.336037 C287.178467,153.738992 285.08881,154.336037 283.297677,154.336037 C275.536096,153.738992 267.475994,156.127171 259.117369,157.619782 C253.445445,158.813871 248.370566,160.903528 242.698642,162.097617 C239.414896,163.291706 237.623762,166.575452 233.742972,165.978407 L233.742972,164.187273 C239.414896,157.32126 246.280909,150.753769 255.236579,150.156724 C265.386338,148.36559 274.939052,150.156724 285.08881,151.350813 C292.551868,151.947858 299.119359,153.738992 306.582417,155.231604 C309.269118,155.231604 309.866162,159.709438 312.254341,160.306483 C315.538086,161.500572 319.120354,160.306483 322.4041,162.694661 C322.4041,161.500572 321.807055,160.306483 322.4041,159.410916 C324.792278,157.022737 327.478979,160.007961 329.867158,158.813871 C334.344992,156.127171 325.986367,151.052291 323.598189,146.872979 C323.598189,146.275934 324.195234,145.678889 324.195234,145.678889 C328.673068,149.55968 331.956814,154.037514 337.628738,157.022737 C340.315439,158.216827 347.181452,159.709438 345.987363,156.425693 C343.300662,150.156724 337.628738,145.081845 332.852381,139.409921 L332.852381,137.021742 C331.658291,137.021742 331.658291,136.424698 331.061247,135.827653 L331.061247,133.439475 C328.673068,132.245385 329.270113,130.155729 328.374546,128.364595 C326.583412,125.677894 327.777501,121.498582 326.583412,118.214837 C325.389323,114.931091 324.792278,111.945868 324.195234,108.662122 C322.4041,99.1094084 320.314444,90.7507836 319.120354,81.4965919 C317.926265,70.7497885 325.389323,62.3911637 330.464202,52.8384497 C334.344992,45.9724364 338.822827,39.4049455 346.285885,34.9271108 C348.077019,28.0610976 352.554853,22.3891736 357.032688,17.0157719 C361.510523,11.6423703 368.973581,8.06010249 374.346982,5.67192398 C382.108563,2.0896562 389.273098,0 389.273098,0 L1.27267717e-13,0 L1.27267717e-13,298.522315 L276.730186,298.522315 C287.476989,290.760734 298.223792,287.178467 313.149908,279.715409 C320.314444,276.730186 336.434648,269.267128 341.80805,263.893726 M255.236579,223.294691 C254.04249,223.294691 251.952833,223.891736 252.549878,222.697647 C253.146923,220.010946 257.027713,220.010946 259.415891,218.816857 C260.609981,218.219812 262.102592,217.025723 263.296681,217.622767 C264.490771,219.413901 265.983382,218.816857 267.177472,220.010946 C263.595204,223.294691 259.117369,221.80208 255.236579,223.294691 M168.665108,211.055276 C168.665108,211.055276 168.068063,210.458232 168.068063,209.861187 C175.531121,200.308473 180.904523,191.352804 186.277924,181.203045 C193.740982,177.322255 199.711428,171.650331 205.383352,165.381362 C214.936066,155.231604 225.085825,146.275934 237.026718,140.60401 C241.504552,138.812876 247.176476,139.409921 251.654311,141.201055 C249.863177,143.589233 247.176476,142.992189 244.788298,144.4848 C244.191253,144.4848 243.594209,144.4848 242.997164,143.887756 C243.594209,143.290711 243.594209,142.693666 243.594209,142.096622 C237.922285,148.36559 230.160705,151.052291 225.68287,158.515349 C222.399124,164.187273 220.010946,171.351809 212.84641,173.142942 C210.458232,173.739987 213.443455,171.351809 212.249366,171.948853 C194.636549,182.695657 182.397134,195.830638 168.665108,211.055276 M215.533111,173.739987 C214.936066,174.934076 214.339022,174.934076 213.741977,176.128166 C213.144933,177.322255 212.547888,177.919299 211.353799,178.516344 C210.756754,178.516344 210.159709,178.516344 210.159709,177.919299 C210.756754,175.531121 212.547888,173.441465 214.637544,172.84442 C215.533111,172.545898 215.533111,173.142942 215.533111,173.739987 M241.803075,258.221802 C241.504552,258.818847 240.907508,259.415891 240.310463,260.012936 C240.907508,260.012936 241.504552,260.609981 240.907508,260.908503 C239.713419,262.102592 238.220807,263.296681 236.728195,263.893726 C236.728195,263.893726 236.131151,263.893726 235.832628,263.893726 C235.235584,264.490771 234.340017,265.087815 233.742972,265.983382 C233.145928,266.580427 229.862182,266.281905 230.757749,265.386338 C232.250361,264.192248 233.44445,262.699637 234.937062,261.505548 C235.832628,260.908503 236.728195,260.012936 237.32524,259.117369 C237.623762,258.520324 237.922285,258.221802 238.519329,257.92328 C239.414896,257.326235 242.400119,257.027713 241.803075,258.221802 M231.653316,253.743967 C231.653316,253.743967 231.653316,253.743967 231.653316,253.743967 C229.265138,255.236579 227.175481,256.729191 225.085825,258.221802 C222.697647,259.714414 220.010946,260.609981 217.622767,261.80407 C217.622767,261.80407 217.622767,261.80407 217.622767,261.80407 C217.324245,261.505548 217.025723,261.505548 216.7272,261.505548 C214.637544,262.699637 212.84641,264.192248 211.055276,265.983382 C210.756754,266.281905 210.458232,266.580427 210.159709,266.878949 L210.159709,266.878949 C210.159709,266.878949 210.159709,266.878949 210.159709,266.878949 L209.264142,267.774516 C209.264142,267.774516 209.264142,267.774516 209.264142,267.774516 C209.264142,267.774516 209.264142,267.774516 209.264142,267.774516 C208.96562,268.073038 208.368576,268.670083 208.070053,268.968605 C207.771531,269.267128 207.771531,269.56565 207.174486,269.864172 C206.875964,270.162695 205.980397,270.162695 205.980397,269.56565 C205.980397,269.56565 205.980397,269.56565 205.980397,269.56565 C205.681875,269.864172 205.383352,269.864172 205.08483,270.162695 C204.786308,270.461217 204.487785,270.461217 204.189263,270.759739 C204.189263,270.759739 203.890741,270.759739 203.890741,270.759739 C203.890741,270.759739 203.592219,270.759739 203.592219,270.759739 C202.995174,271.356784 202.099607,271.953829 201.502562,272.550873 C200.308473,273.744962 199.114384,274.640529 198.218817,276.133141 C198.218817,276.133141 198.218817,276.133141 198.218817,276.133141 C198.218817,276.133141 198.218817,276.133141 198.218817,276.431663 C198.218817,276.431663 198.218817,276.431663 197.920295,276.730186 C197.920295,276.730186 197.920295,277.028708 197.621772,277.028708 C197.621772,277.028708 197.621772,277.028708 197.621772,277.028708 C197.621772,277.32723 197.32325,277.32723 197.32325,277.625753 C197.32325,277.625753 197.32325,277.625753 197.32325,277.625753 C197.32325,277.625753 197.024728,277.924275 196.726205,277.924275 C196.726205,277.924275 196.427683,277.625753 196.427683,277.625753 C196.427683,277.625753 196.427683,277.32723 196.129161,277.32723 C195.830638,277.028708 195.830638,276.730186 195.532116,276.431663 C195.532116,276.431663 195.532116,276.431663 195.532116,276.431663 C195.532116,276.431663 195.532116,276.133141 195.532116,276.133141 C196.129161,275.536096 196.726205,274.939052 197.32325,274.043485 C197.32325,274.043485 197.32325,274.043485 197.32325,274.043485 C197.621772,273.744962 197.621772,273.44644 197.920295,273.44644 C198.218817,273.147918 198.517339,272.550873 198.815861,272.252351 C198.815861,271.953829 199.114384,271.953829 199.114384,271.655306 C199.711428,270.759739 200.308473,270.162695 200.905518,269.267128 C200.905518,269.267128 200.905518,269.267128 200.905518,269.267128 C200.905518,269.267128 201.20404,268.968605 201.20404,268.968605 C201.502562,268.670083 201.801085,268.073038 202.099607,267.774516 C202.398129,267.475994 202.398129,267.177472 202.696652,266.580427 L202.696652,266.580427 L202.696652,266.580427 C202.696652,266.580427 202.696652,266.580427 202.696652,266.281905 C202.995174,265.68486 202.995174,265.386338 203.293696,265.087815 C203.293696,265.087815 203.293696,265.087815 203.293696,265.087815 L203.293696,264.789293 C203.293696,264.490771 203.293696,264.490771 203.592219,264.192248 C203.592219,264.192248 203.592219,264.192248 203.592219,264.192248 C203.592219,263.893726 203.592219,263.595204 203.890741,263.296681 C203.890741,263.296681 203.890741,262.998159 203.890741,262.998159 C204.487785,261.80407 205.383352,260.908503 206.278919,260.012936 C206.278919,260.012936 205.980397,260.012936 205.980397,260.012936 C205.08483,260.609981 204.487785,261.207025 203.890741,261.80407 C203.293696,262.401114 202.099607,261.505548 202.995174,260.908503 C203.592219,260.609981 203.890741,260.012936 204.189263,259.714414 C204.189263,259.714414 204.189263,259.714414 204.189263,259.714414 C205.08483,258.818847 205.980397,257.624757 207.174486,256.729191 C207.771531,256.132146 208.368576,255.833624 208.96562,255.535101 C208.96562,255.535101 209.264142,255.236579 209.264142,255.236579 C209.562665,254.639534 210.159709,254.341012 210.458232,253.743967 C210.458232,253.743967 210.458232,253.743967 210.458232,253.743967 C215.831633,248.669088 225.085825,248.669088 231.951838,245.385343 C234.638539,244.191253 238.220807,245.982387 240.907508,245.385343 C242.698642,245.385343 244.191253,245.385343 245.982387,246.579432 C240.907508,247.474999 236.429673,250.758744 231.653316,253.743967 M243.295686,214.339022 C242.698642,213.741977 245.08682,214.339022 245.683865,213.144933 L241.20603,213.144933 C240.608986,213.144933 240.608986,212.547888 240.608986,211.950843 C237.922285,212.547888 234.340017,213.741977 231.653316,214.339022 C227.772526,215.533111 224.190258,218.219812 219.712424,219.413901 C213.443455,221.80208 208.368576,226.876959 201.801085,228.966615 C201.20404,228.966615 201.20404,228.369571 201.20404,227.772526 C201.801085,225.981392 203.890741,225.384347 205.08483,223.891736 C205.08483,223.294691 205.08483,222.697647 204.487785,222.697647 C208.96562,216.428678 215.234589,213.144933 220.906513,208.070053 L220.906513,206.278919 C222.697647,203.890741 225.384347,202.995174 226.578437,200.009951 C227.175481,198.218817 229.56366,196.129161 232.250361,194.935071 C231.653316,194.338027 230.459227,194.338027 230.459227,193.143938 C228.071048,193.143938 225.981392,194.338027 223.593214,192.546893 C224.787303,191.651326 225.981392,191.054281 227.175481,190.457237 C226.578437,190.457237 226.279914,190.158714 225.981392,189.56167 C225.384347,188.36758 227.175481,187.173491 228.668093,186.874969 C231.056271,186.277924 233.742972,186.277924 235.534106,184.48679 C231.653316,183.889746 227.175481,185.68088 222.996169,183.292701 C225.68287,175.829643 230.459227,169.859197 237.026718,166.276929 C237.623762,166.276929 238.817852,166.276929 238.817852,166.873974 C238.817852,169.560675 237.026718,171.948853 234.340017,172.545898 C238.817852,173.739987 243.295686,173.739987 247.773521,175.829643 C247.176476,177.023733 245.982387,176.426688 245.385343,176.426688 C248.072043,178.217822 251.654311,177.023733 254.341012,179.113389 C252.549878,180.904523 251.057267,179.113389 249.266133,179.113389 C266.878949,184.188268 285.387333,188.069058 300.014926,199.412906 C287.476989,205.681875 274.640529,208.368576 261.207025,211.353799 C259.415891,211.353799 258.520324,211.353799 256.729191,210.756754 C256.729191,211.353799 256.729191,212.547888 256.132146,212.547888 C253.743967,212.547888 252.251356,212.547888 250.460222,213.741977 C248.370566,215.533111 245.08682,216.130156 243.295686,214.339022" id="Shape" fill="#000091"></path>
                <path d="M823.324544,0.597044629 L502.413055,0.597044629 C502.413055,0.597044629 503.0101,0.597044629 505.398279,2.0896562 C508.084979,3.58226777 511.368725,5.37340166 513.458381,6.26896861 C517.637693,8.35862481 521.518484,11.0453256 524.205184,15.224638 C525.399274,17.0157719 526.891885,20.2995174 525.996318,22.6876959 C524.802229,25.3743967 524.205184,30.1507538 521.518484,31.0463207 C518.234738,32.8374546 513.756903,32.8374546 509.577591,32.24041 C507.189412,32.24041 505.099756,31.6433653 502.711578,31.0463207 C511.070202,34.3300662 519.130305,38.5093786 524.802229,46.2709588 C525.399274,47.465048 527.48893,48.0620926 529.877108,48.0620926 C530.474153,48.0620926 530.474153,49.2561819 530.474153,49.8532265 C529.280064,51.0473158 528.085974,51.6443604 528.683019,53.136972 L530.474153,53.136972 C533.160854,51.9428827 532.862331,46.2709588 536.743122,48.0620926 C539.429822,49.8532265 540.623912,53.7340166 539.1313,56.4207174 C536.743122,58.808896 534.653465,60.3015075 532.265287,62.0926414 C531.668242,63.2867307 531.668242,64.7793423 532.265287,65.9734315 C534.056421,68.36161 534.653465,70.4512662 534.951988,72.8394447 C536.743122,76.7202348 537.340166,81.1980696 538.832778,85.377382 C541.220956,93.7360068 543.310612,102.393154 542.713568,110.751779 C542.713568,115.229613 540.325389,119.110404 542.116523,123.588238 C543.310612,128.066073 545.997313,131.349818 548.385492,135.529131 C550.77367,138.812876 552.863327,141.201055 554.65446,144.4848 C557.938206,150.156724 564.207174,155.828648 561.520474,162.396139 C559.72934,166.276929 553.758893,165.679885 549.579581,168.068063 C546.295836,170.754764 548.982536,175.531121 550.77367,178.217822 C553.460371,183.292701 547.489925,186.576447 543.310612,188.36758 C544.504702,190.158714 546.594358,189.56167 547.191403,190.755759 C547.788447,193.44246 550.475148,195.233594 548.982536,198.218817 C546.594358,201.502562 540.026867,203.293696 543.310612,208.368576 C545.698791,212.249366 544.206179,216.7272 542.713568,220.906513 C540.922434,225.981392 536.444599,228.369571 532.563809,229.265138 C529.280064,230.459227 525.100751,230.459227 521.817006,229.862182 C520.622917,229.265138 519.428827,228.668093 518.53326,228.668093 C508.980546,227.474004 499.427832,224.787303 489.875118,224.787303 C487.188417,225.384347 484.203194,225.981392 482.113538,226.876959 C479.426837,228.668093 477.337181,230.757749 475.247525,232.847405 C475.247525,232.847405 475.247525,232.847405 475.247525,232.847405 C474.949002,233.44445 474.351958,233.742972 474.053435,234.340017 C473.754913,234.638539 473.456391,234.937062 473.456391,235.235584 C473.157869,235.534106 473.157869,235.534106 472.859346,235.832628 C471.068212,237.922285 469.874123,240.011941 468.381512,242.400119 C468.381512,242.698642 468.082989,242.698642 468.082989,242.698642 C468.082989,242.997164 467.784467,243.295686 467.485945,243.594209 C465.694811,246.877954 464.202199,250.460222 463.306632,254.04249 C459.425842,266.878949 461.216976,277.924275 463.903677,280.610976 C464.500721,281.20802 482.41206,286.879944 494.949998,292.551868 C500.920444,295.238569 504.801234,297.029703 508.383502,299.417881 L823.623066,299.417881 L823.623066,0.597044629 L823.324544,0.597044629 Z" id="Path" fill="#E1000F"></path>
                <path d="M521.518484,109.259167 C523.906662,109.856212 527.190407,109.856212 527.190407,111.050301 C525.996318,115.528136 519.428827,116.722225 515.84656,121.20006 L514.055426,121.20006 C512.264292,122.394149 512.861336,125.08085 511.368725,125.08085 C509.577591,124.483805 508.084979,125.08085 506.293845,125.677894 C508.682024,128.066073 511.368725,129.558685 514.65247,128.96164 C515.249515,128.96164 516.443604,130.155729 516.443604,131.349818 C516.443604,131.349818 517.040649,131.349818 517.637693,130.752774 C518.234738,130.752774 518.831783,130.752774 518.831783,131.349818 L518.831783,133.737997 C517.040649,136.126175 514.353948,134.932086 511.965769,135.529131 C516.443604,136.72322 520.921439,136.72322 525.100751,135.529131 C528.384497,134.335042 525.100751,128.663118 527.48893,125.976417 C526.294841,125.976417 527.48893,124.185283 526.294841,124.185283 C527.48893,122.991194 528.683019,121.498582 529.578586,120.901537 C530.772675,120.901537 532.265287,120.304493 532.862331,119.110404 C532.862331,117.916314 530.474153,117.31927 531.071198,116.423703 C534.354943,114.035524 537.340166,110.751779 536.146077,107.468033 C535.549032,105.676899 531.071198,105.676899 528.384497,104.48281 C525.697796,103.288721 522.115528,104.48281 518.831783,105.079855 C516.145082,105.079855 513.159859,106.870989 510.473158,107.468033 C506.592368,108.662122 503.0101,110.751779 499.726355,113.139957 C503.607145,111.348823 507.487935,110.751779 511.965769,109.856212 C515.249515,109.259167 517.936216,108.662122 521.518484,109.259167" id="Path" fill="#808080"></path>
            </g>
        </g>
    </g>
</svg>