<?xml version="1.0" encoding="UTF-8"?>
<svg width="380px" height="49px" viewBox="0 0 380 49" version="1.1" xmlns="http://www.w3.org/2000/svg" xmlns:xlink="http://www.w3.org/1999/xlink">
    <!-- Generator: Sketch 63.1 (92452) - https://sketch.com -->
    <title>Logo</title>
    <desc>Created with Sketch.</desc>
    <g id="Site" stroke="none" stroke-width="1" fill="none" fill-rule="evenodd">
        <g id="Main" transform="translate(-450.000000, -154.000000)">
            <g id="Header">
                <g id="Group-2" transform="translate(260.000000, 154.000000)">
                    <g id="Logo" transform="translate(190.000000, 0.000000)">
                        <path d="M16.4839204,39.2478049 C20.2107198,39.2478049 23.4995406,38.5705691 26.3503828,37.2160976 C29.2012251,35.861626 31.4150077,33.9255285 32.9917305,31.4078049 C34.5684533,28.8900813 35.3568147,25.9261789 35.3568147,22.5160976 C35.3568147,19.1060163 34.5684533,16.1421138 32.9917305,13.6243902 C31.4150077,11.1066667 29.2012251,9.17056911 26.3503828,7.81609756 C23.4995406,6.46162602 20.2107198,5.78439024 16.4839204,5.78439024 L16.4839204,5.78439024 L0,5.78439024 L0,39.2478049 L16.4839204,39.2478049 Z M16.0061256,30.4517073 L11.2759571,30.4517073 L11.2759571,14.5804878 L16.0061256,14.5804878 C18.4269525,14.5804878 20.3620214,15.2736585 21.8113323,16.66 C23.2606432,18.0463415 23.9852986,19.998374 23.9852986,22.5160976 C23.9852986,25.0338211 23.2606432,26.9858537 21.8113323,28.3721951 C20.3620214,29.7585366 18.4269525,30.4517073 16.0061256,30.4517073 L16.0061256,30.4517073 Z M53.5607963,39.7258537 C58.6254211,39.7258537 62.431853,38.3235772 64.9800919,35.5190244 L64.9800919,35.5190244 L59.3421133,29.8302439 C58.4183767,30.5313821 57.5663093,31.0253659 56.7859112,31.3121951 C56.005513,31.5990244 55.0419602,31.742439 53.8952527,31.742439 C52.5574273,31.742439 51.4425727,31.4795122 50.5506891,30.9536585 C49.6588055,30.4278049 49.0217458,29.6708943 48.63951,28.6829268 L48.63951,28.6829268 L66.7957121,28.6829268 C66.8912711,27.1531707 66.9390505,26.3086179 66.9390505,26.1492683 C66.9390505,23.3128455 66.2940276,20.8747967 65.0039816,18.835122 C63.7139357,16.7954472 61.9779479,15.2497561 59.7960184,14.1980488 C57.6140888,13.1463415 55.2012251,12.6204878 52.5574273,12.6204878 C49.7543645,12.6204878 47.2300153,13.1941463 44.9843798,14.3414634 C42.7387443,15.4887805 40.9709035,17.0902439 39.6808576,19.1458537 C38.3908116,21.2014634 37.7457887,23.535935 37.7457887,26.1492683 C37.7457887,28.7307317 38.3987749,31.0572358 39.7047473,33.1287805 C41.0107198,35.2003252 42.858193,36.8177236 45.2471669,37.9809756 C47.6361409,39.1442276 50.4073507,39.7258537 53.5607963,39.7258537 Z M56.8575804,23.4721951 L48.448392,23.4721951 C48.6713629,22.356748 49.1491577,21.4962602 49.8817764,20.8907317 C50.6143951,20.2852033 51.5381317,19.982439 52.6529862,19.982439 C53.7678407,19.982439 54.6915773,20.2931707 55.424196,20.9146341 C56.1568147,21.5360976 56.6346095,22.3886179 56.8575804,23.4721951 L56.8575804,23.4721951 Z M80.5562021,39.7258537 C83.4548239,39.7258537 85.9234303,39.3274797 87.9620214,38.5307317 C90.0006126,37.7339837 91.5295559,36.6663415 92.5488515,35.3278049 C93.568147,33.9892683 94.0777948,32.5073171 94.0777948,30.8819512 C94.0777948,28.7466667 93.5124043,27.1053659 92.3816233,25.9580488 C91.2508423,24.8107317 89.9448698,24.0299187 88.463706,23.6156098 C86.9825421,23.2013008 85.1748851,22.8666667 83.0407351,22.6117073 C81.6710567,22.4523577 80.6676876,22.2850407 80.0306279,22.1097561 C79.3935681,21.9344715 79.0750383,21.6396748 79.0750383,21.2253659 C79.0750383,20.396748 80.2535988,19.982439 82.6107198,19.982439 C85.3500766,19.982439 87.8664625,20.6198374 90.1598775,21.8946341 L90.1598775,21.8946341 L93.1222052,14.7717073 C91.7843798,14.0705691 90.1678407,13.536748 88.2725881,13.1702439 C86.3773354,12.8037398 84.4422665,12.6204878 82.4673813,12.6204878 C79.6324655,12.6204878 77.2036753,13.0188618 75.1810107,13.8156098 C73.1583461,14.6123577 71.637366,15.68 70.6180704,17.0185366 C69.5987749,18.3570732 69.0891271,19.8708943 69.0891271,21.56 C69.0891271,23.6952846 69.6545176,25.3365854 70.7852986,26.4839024 C71.9160796,27.6312195 73.2300153,28.404065 74.7271057,28.802439 C76.224196,29.200813 78.0398162,29.5274797 80.1739663,29.782439 C81.5754977,29.9417886 82.58683,30.1011382 83.2079632,30.2604878 C83.8290965,30.4198374 84.1396631,30.7066667 84.1396631,31.1209756 C84.1396631,31.5352846 83.8928025,31.8460163 83.3990812,32.0531707 C82.9053599,32.2603252 82.037366,32.3639024 80.7950995,32.3639024 C79.2343032,32.3639024 77.6257274,32.156748 75.9693721,31.742439 C74.3130168,31.3281301 72.8796325,30.7544715 71.669219,30.0214634 L71.669219,30.0214634 L68.7068913,37.1443902 C70.0447167,37.9092683 71.7966309,38.5307317 73.962634,39.0087805 C76.1286371,39.4868293 78.3264931,39.7258537 80.5562021,39.7258537 Z M102.725881,10.995122 C104.700766,10.995122 106.277489,10.4613008 107.456049,9.39365854 C108.634609,8.32601626 109.22389,6.96357724 109.22389,5.30634146 C109.22389,3.74471545 108.634609,2.4699187 107.456049,1.48195122 C106.277489,0.49398374 104.700766,0 102.725881,0 C100.782848,0 99.2140888,0.517886179 98.0196018,1.55365854 C96.8251149,2.58943089 96.2278714,3.90406504 96.2278714,5.49756098 C96.2278714,7.09105691 96.8251149,8.40569106 98.0196018,9.44146341 C99.2140888,10.4772358 100.782848,10.995122 102.725881,10.995122 Z M108.124962,39.2478049 L108.124962,13.0985366 L97.3267994,13.0985366 L97.3267994,39.2478049 L108.124962,39.2478049 Z M126.185605,49 C131.282083,49 135.207963,47.7491057 137.963247,45.2473171 C140.71853,42.7455285 142.096172,39.0087805 142.096172,34.0370732 L142.096172,34.0370732 L142.096172,13.0985366 L131.823583,13.0985366 L131.823583,16.062439 C130.230934,13.7678049 127.650842,12.6204878 124.083308,12.6204878 C121.853599,12.6204878 119.775191,13.138374 117.848086,14.1741463 C115.92098,15.2099187 114.384074,16.6839024 113.237366,18.5960976 C112.090658,20.5082927 111.517305,22.7073171 111.517305,25.1931707 C111.517305,27.6790244 112.090658,29.8860163 113.237366,31.8141463 C114.384074,33.7422764 115.92098,35.2242276 117.848086,36.26 C119.775191,37.2957724 121.853599,37.8136585 124.083308,37.8136585 C127.268606,37.8136585 129.673507,36.8894309 131.298009,35.0409756 L131.298009,35.0409756 L131.298009,35.5190244 C131.298009,37.3037398 130.804288,38.6582114 129.816845,39.582439 C128.829403,40.5066667 127.25268,40.9687805 125.086677,40.9687805 C123.653292,40.9687805 122.156202,40.7297561 120.595406,40.2517073 C119.034609,39.7736585 117.744564,39.1521951 116.725268,38.3873171 L116.725268,38.3873171 L113.094028,45.7492683 C114.686677,46.8009756 116.613783,47.6056911 118.875345,48.1634146 C121.136907,48.7211382 123.57366,49 126.185605,49 Z M126.950077,29.4 C125.675957,29.4 124.608882,29.0095935 123.748851,28.2287805 C122.888821,27.4479675 122.458806,26.4360976 122.458806,25.1931707 C122.458806,23.9502439 122.880858,22.9463415 123.724962,22.1814634 C124.569066,21.4165854 125.644104,21.0341463 126.950077,21.0341463 C128.224196,21.0341463 129.283308,21.4165854 130.127412,22.1814634 C130.971516,22.9463415 131.393568,23.9502439 131.393568,25.1931707 C131.393568,26.4360976 130.971516,27.4479675 130.127412,28.2287805 C129.283308,29.0095935 128.224196,29.4 126.950077,29.4 Z M157.672282,39.2478049 L157.672282,26.9619512 C157.672282,25.1453659 158.046554,23.8147967 158.7951,22.9702439 C159.543645,22.1256911 160.523124,21.7034146 161.733538,21.7034146 C163.867688,21.7034146 164.934763,23.2013008 164.934763,26.1970732 L164.934763,26.1970732 L164.934763,39.2478049 L175.732925,39.2478049 L175.732925,24.3326829 C175.732925,20.4126829 174.753446,17.4806504 172.794487,15.5365854 C170.835528,13.5925203 168.247473,12.6204878 165.030322,12.6204878 C163.469525,12.6204878 162.020214,12.8754472 160.682389,13.3853659 C159.344564,13.8952846 158.166003,14.6601626 157.146708,15.68 L157.146708,15.68 L157.146708,13.0985366 L146.874119,13.0985366 L146.874119,39.2478049 L157.672282,39.2478049 Z M198.093721,40.0126829 C200.610107,40.0126829 203.174273,39.6461789 205.786217,38.9131707 C208.398162,38.1801626 210.691577,37.1284553 212.666462,35.7580488 L212.666462,35.7580488 L212.666462,21.6078049 L202.871669,21.6078049 L202.871669,30.0692683 C201.565697,30.6110569 200.196018,30.8819512 198.762634,30.8819512 C196.341807,30.8819512 194.406738,30.1170732 192.957427,28.5873171 C191.508116,27.057561 190.783461,25.0338211 190.783461,22.5160976 C190.783461,19.9346341 191.51608,17.8949593 192.981317,16.3970732 C194.446554,14.899187 196.42144,14.1502439 198.905972,14.1502439 C201.804594,14.1502439 204.305054,15.3772358 206.407351,17.8312195 L206.407351,17.8312195 L213.622052,11.4731707 C211.901991,9.3697561 209.743951,7.76829268 207.147933,6.66878049 C204.551914,5.56926829 201.613476,5.0195122 198.332619,5.0195122 C194.701378,5.0195122 191.44441,5.7604878 188.561715,7.24243902 C185.67902,8.72439024 183.433384,10.795935 181.824809,13.4570732 C180.216233,16.1182114 179.411945,19.1378862 179.411945,22.5160976 C179.411945,25.8943089 180.216233,28.9139837 181.824809,31.575122 C183.433384,34.2362602 185.65513,36.3078049 188.490046,37.7897561 C191.324962,39.2717073 194.526187,40.0126829 198.093721,40.0126829 Z M230.966003,39.7258537 C233.896478,39.7258537 236.516386,39.1442276 238.825727,37.9809756 C241.135069,36.8177236 242.934763,35.2082927 244.224809,33.1526829 C245.514855,31.0970732 246.159877,28.7626016 246.159877,26.1492683 C246.159877,23.535935 245.514855,21.2014634 244.224809,19.1458537 C242.934763,17.0902439 241.135069,15.4887805 238.825727,14.3414634 C236.516386,13.1941463 233.896478,12.6204878 230.966003,12.6204878 C228.067381,12.6204878 225.4634,13.1941463 223.154058,14.3414634 C220.844717,15.4887805 219.03706,17.0902439 217.731087,19.1458537 C216.425115,21.2014634 215.772129,23.535935 215.772129,26.1492683 C215.772129,28.7626016 216.425115,31.0970732 217.731087,33.1526829 C219.03706,35.2082927 220.844717,36.8177236 223.154058,37.9809756 C225.4634,39.1442276 228.067381,39.7258537 230.966003,39.7258537 Z M230.966003,31.3121951 C229.723737,31.3121951 228.704441,30.8580488 227.908116,29.9497561 C227.111792,29.0414634 226.713629,27.7746341 226.713629,26.1492683 C226.713629,24.5239024 227.111792,23.2650407 227.908116,22.3726829 C228.704441,21.4803252 229.723737,21.0341463 230.966003,21.0341463 C232.20827,21.0341463 233.227565,21.4803252 234.02389,22.3726829 C234.820214,23.2650407 235.218377,24.5239024 235.218377,26.1492683 C235.218377,27.7746341 234.820214,29.0414634 234.02389,29.9497561 C233.227565,30.8580488 232.20827,31.3121951 230.966003,31.3121951 Z M260.445942,39.7258537 C261.879326,39.7258537 263.233078,39.4788618 264.507198,38.984878 C265.781317,38.4908943 266.896172,37.7499187 267.851761,36.7619512 L267.851761,36.7619512 L267.851761,39.2478049 L278.124349,39.2478049 L278.124349,13.0985366 L267.326187,13.0985366 L267.326187,25.3843902 C267.326187,27.2009756 266.975804,28.5315447 266.275038,29.3760976 C265.574273,30.2206504 264.698315,30.6429268 263.647167,30.6429268 C262.532312,30.6429268 261.688208,30.2604878 261.114855,29.4956098 C260.541501,28.7307317 260.254824,27.455935 260.254824,25.6712195 L260.254824,25.6712195 L260.254824,13.0985366 L249.456662,13.0985366 L249.456662,27.5356098 C249.456662,31.6149593 250.460031,34.6665041 252.466769,36.6902439 C254.473507,38.7139837 257.133231,39.7258537 260.445942,39.7258537 Z M301.488515,39.2478049 L312,13.0985366 L301.775191,13.0985366 L296.137213,27.1053659 L290.88147,13.0985366 L279.796631,13.0985366 L290.308116,39.2478049 L301.488515,39.2478049 Z" id="DesignGouv" fill="#1C1C1C" fill-rule="nonzero"></path>
                        <g id="beta" transform="translate(324.000000, 12.000000)">
                            <rect id="Rectangle" fill="#EBEFF3" x="0" y="0" width="56" height="28" rx="14"></rect>
                            <path d="M16.539114,20 C17.2428527,20 17.8686773,19.867374 18.4165881,19.602122 C18.9644989,19.33687 19.3942821,18.9549072 19.7059378,18.4562334 C20.0175935,17.9575597 20.1734213,17.3687003 20.1734213,16.6896552 C20.1734213,15.9257294 19.9673264,15.2864721 19.5551367,14.7718833 C19.1429469,14.2572944 18.5950361,13.9045093 17.9114043,13.7135279 C18.3235941,13.4482759 18.6553566,13.0981432 18.9066918,12.66313 C19.158027,12.2281167 19.2836946,11.7241379 19.2836946,11.1511936 C19.2836946,10.5570292 19.1429469,10.0212202 18.8614515,9.54376658 C18.579956,9.066313 18.172793,8.68965517 17.6399623,8.4137931 C17.1071316,8.13793103 16.488847,8 15.7851084,8 C15.0512096,8 14.397738,8.15384615 13.8246937,8.46153846 C13.2516494,8.76923077 12.8042727,9.22546419 12.4825636,9.83023873 C12.1608545,10.4350133 12,11.1724138 12,12.0424403 L12,12.0424403 L12,19.9045093 L13.4476909,19.9045093 L13.4476909,11.9151194 C13.4476909,11.0769231 13.6537857,10.4376658 14.0659755,9.99734748 C14.4781653,9.55702918 15.0512096,9.33687003 15.7851084,9.33687003 C16.4486334,9.33687003 16.9638706,9.5066313 17.33082,9.84615385 C17.6977694,10.1856764 17.8812441,10.6419098 17.8812441,11.2148541 C17.8812441,11.862069 17.6650958,12.3793103 17.2327992,12.7665782 C16.8005027,13.1538462 16.2073516,13.3527851 15.4533459,13.3633952 L15.4533459,13.3633952 L15.4533459,14.6525199 L16.3129123,14.6525199 C17.0468112,14.6525199 17.6324222,14.8275862 18.0697455,15.1777188 C18.5070688,15.5278515 18.7257304,16.0212202 18.7257304,16.6578249 C18.7257304,17.2944297 18.5246623,17.7877984 18.1225259,18.137931 C17.7203896,18.4880637 17.1724788,18.66313 16.4787936,18.66313 C15.9057493,18.66313 15.4231857,18.5941645 15.0311027,18.4562334 L15.0311027,18.4562334 L14.804901,19.7453581 C15.2573044,19.9151194 15.8353754,20 16.539114,20 Z M25.7530631,20 C26.4165881,20 27.0172793,19.8832891 27.5551367,19.6498674 C28.092994,19.4164456 28.5428841,19.0769231 28.9048068,18.6312997 L28.9048068,18.6312997 L28.1055608,17.6445623 C27.5224631,18.3236074 26.7533773,18.66313 25.7983035,18.66313 C25.0141376,18.66313 24.3581527,18.4376658 23.8303487,17.9867374 C23.3025448,17.535809 22.9934025,16.938992 22.9029218,16.1962865 L22.9029218,16.1962865 L29.3873704,16.1962865 C29.4074772,16.005305 29.4175306,15.8514589 29.4175306,15.734748 C29.4175306,14.8859416 29.249136,14.132626 28.9123468,13.4748011 C28.5755577,12.8169761 28.1080741,12.3050398 27.5098963,11.938992 C26.9117185,11.5729443 26.2306001,11.3899204 25.466541,11.3899204 C24.7024819,11.3899204 24.0163368,11.5729443 23.4081056,11.938992 C22.7998743,12.3050398 22.3223374,12.8169761 21.9754948,13.4748011 C21.6286522,14.132626 21.4552309,14.8700265 21.4552309,15.6870027 C21.4552309,16.5145889 21.6336789,17.2572944 21.9905749,17.9151194 C22.3474709,18.5729443 22.8526547,19.0848806 23.5061263,19.4509284 C24.1595979,19.8169761 24.9085768,20 25.7530631,20 Z M28.0301602,15.0981432 L22.9029218,15.0981432 C22.983349,14.3766578 23.2573044,13.7931034 23.7247879,13.3474801 C24.1922714,12.9018568 24.7728558,12.6790451 25.466541,12.6790451 C26.1602262,12.6790451 26.7408106,12.9045093 27.2082941,13.3554377 C27.6757776,13.806366 27.949733,14.3872679 28.0301602,15.0981432 L28.0301602,15.0981432 Z M34.1677663,20 C34.4995287,20 34.8212378,19.9496021 35.1328935,19.8488064 C35.4445492,19.7480106 35.7059378,19.602122 35.9170594,19.4111406 L35.9170594,19.4111406 L35.464656,18.3129973 C35.1530003,18.5782493 34.7759975,18.7108753 34.3336475,18.7108753 C33.9315112,18.7108753 33.6223688,18.5888594 33.4062205,18.3448276 C33.1900723,18.1007958 33.0819981,17.7506631 33.0819981,17.2944297 L33.0819981,17.2944297 L33.0819981,12.7267905 L35.3741753,12.7267905 L35.3741753,11.469496 L33.0819981,11.469496 L33.0819981,9.62334218 L31.6343073,9.62334218 L31.6343073,11.469496 L30.2770971,11.469496 L30.2770971,12.7267905 L31.6343073,12.7267905 L31.6343073,17.3580902 C31.6343073,18.2068966 31.8554822,18.8594164 32.2978322,19.3156499 C32.7401822,19.7718833 33.3634936,20 34.1677663,20 Z M40.00377,20 C40.617028,20 41.1473453,19.8965517 41.594722,19.6896552 C42.0420986,19.4827586 42.3864279,19.1830239 42.6277097,18.7904509 L42.6277097,18.7904509 L42.6277097,19.9045093 L44,19.9045093 L44,14.8116711 C44,13.6763926 43.7059378,12.8222812 43.1178134,12.2493369 C42.529689,11.6763926 41.6826893,11.3899204 40.5768143,11.3899204 C39.9333962,11.3899204 39.3251649,11.4827586 38.7521206,11.668435 C38.1790763,11.8541114 37.6864593,12.1220159 37.2742696,12.4721485 L37.2742696,12.4721485 L37.8774741,13.6180371 C38.1891298,13.3421751 38.5711593,13.1220159 39.0235627,12.9575597 C39.4759661,12.7931034 39.9384229,12.7108753 40.4109331,12.7108753 C41.1146717,12.7108753 41.6475024,12.8859416 42.0094251,13.2360743 C42.3713478,13.5862069 42.5523091,14.0901857 42.5523091,14.7480106 L42.5523091,14.7480106 L42.5523091,15.0503979 L40.260132,15.0503979 C39.1442036,15.0503979 38.3298775,15.2758621 37.8171536,15.7267905 C37.3044298,16.1777188 37.0480679,16.7745358 37.0480679,17.5172414 C37.0480679,18.2599469 37.3169965,18.8594164 37.8548539,19.3156499 C38.3927113,19.7718833 39.1090167,20 40.00377,20 Z M40.2450518,18.8222812 C39.6921144,18.8222812 39.2598178,18.7002653 38.9481621,18.4562334 C38.6365064,18.2122016 38.4806786,17.8779841 38.4806786,17.4535809 C38.4806786,16.5835544 39.0939365,16.1485411 40.3204524,16.1485411 L40.3204524,16.1485411 L42.5523091,16.1485411 L42.5523091,17.3262599 C42.3713478,17.8037135 42.0797989,18.1724138 41.6776626,18.4323607 C41.2755262,18.6923077 40.7979893,18.8222812 40.2450518,18.8222812 Z" id="ßeta" fill="#1C1C1C" fill-rule="nonzero"></path>
                        </g>
                    </g>
                </g>
            </g>
        </g>
    </g>
</svg>