<?xml version="1.0" encoding="UTF-8"?>
<svg width="579px" height="57px" viewBox="0 0 579 57" version="1.1" xmlns="http://www.w3.org/2000/svg" xmlns:xlink="http://www.w3.org/1999/xlink">
    <!-- Generator: Sketch 63.1 (92452) - https://sketch.com -->
    <title>logoDesignGouvBeta</title>
    <desc>Created with Sketch.</desc>
    <g id="RF" stroke="none" stroke-width="1" fill="none" fill-rule="evenodd">
        <g id="DinumWeb-Copy" transform="translate(-113.000000, -336.000000)" fill-rule="nonzero">
            <g id="logoDesignGouvBeta" transform="translate(113.000000, 336.000000)">
                <g id="Name" transform="translate(175.000000, 5.000000)">
                    <path d="M316.257953,38.7759129 C317.84824,38.7759129 319.337018,38.5221438 320.724289,38.0146057 C322.11156,37.5070675 323.304274,36.7965142 324.302433,35.8829455 C325.300591,34.9693769 326.087275,33.861252 326.662485,32.5585708 C327.237695,31.2558896 327.5253,29.8263239 327.5253,28.2698736 C327.5253,27.3224691 327.381497,26.3666057 327.093892,25.4022832 C326.806287,24.4379608 326.383339,23.5497691 325.825047,22.7377081 C325.266755,21.9256471 324.57312,21.1981757 323.744141,20.5552941 C322.915162,19.9124125 321.959298,19.4217923 320.87655,19.0834336 C322.568344,18.406716 323.871025,17.2562963 324.784594,15.6321743 C325.698163,14.0080523 326.154947,12.3331765 326.154947,10.6075468 C326.154947,9.22027596 325.909637,7.9091358 325.419017,6.67412636 C324.928396,5.43911692 324.226302,4.36482789 323.312733,3.45125926 C322.399165,2.53769063 321.282581,1.81867829 319.962982,1.29422222 C318.643383,0.769766158 317.154604,0.507538126 315.496646,0.507538126 C312.316074,0.507538126 309.761465,1.44648366 307.832821,3.32437473 C305.904176,5.2022658 304.939853,7.6130719 304.939853,10.556793 L304.939853,10.556793 L304.939853,38.5728976 L309.304681,38.5728976 L309.304681,10.556793 C309.304681,8.6958199 309.88835,7.2324183 311.055688,6.16658824 C312.223025,5.10075817 313.720263,4.56784314 315.5474,4.56784314 C317.340701,4.56784314 318.795644,5.15151198 319.912228,6.31884967 C321.028812,7.48618736 321.587104,8.91575309 321.587104,10.6075468 C321.587104,12.5361917 321.028812,14.1095599 319.912228,15.3276514 C318.795644,16.5457429 317.323784,17.1547887 315.496646,17.1547887 L315.496646,17.1547887 L313.466494,17.1547887 L313.466494,21.2150937 L315.699661,21.2150937 C317.831322,21.2150937 319.590787,21.8833522 320.978058,23.2198693 C322.365329,24.5563863 323.058964,26.1720494 323.058964,28.0668584 C323.058964,30.063175 322.407624,31.6703791 321.104943,32.8884706 C319.802261,34.1065621 318.118927,34.7156078 316.054938,34.7156078 C315.615072,34.7156078 315.166746,34.6902309 314.709962,34.6394771 C314.253178,34.5887233 313.838688,34.4956747 313.466494,34.3603312 L313.466494,34.3603312 L313.466494,38.47139 C313.872524,38.5728976 314.295473,38.6490283 314.735339,38.6997821 C315.175205,38.7505359 315.682744,38.7759129 316.257953,38.7759129 Z M346.009639,39.5879739 C348.378151,39.5879739 350.501352,39.1142716 352.379243,38.1668671 C354.257134,37.2194626 355.788207,35.9506173 356.972463,34.3603312 L356.972463,34.3603312 L353.774973,31.8733943 C352.929076,33.0238141 351.846328,33.9458417 350.526729,34.6394771 C349.20713,35.3331126 347.735269,35.6799303 346.111147,35.6799303 C343.268933,35.6799303 340.959635,34.7579027 339.183252,32.9138475 C337.406868,31.0697923 336.518676,28.7435759 336.518676,25.9351983 L336.518676,25.9351983 L336.518676,25.8336906 L356.109648,25.8336906 C356.17732,25.4953319 356.244992,25.0808424 356.312663,24.5902222 C356.380335,24.099602 356.414171,23.6005229 356.414171,23.0929847 C356.414171,21.5026986 356.143484,20.0223791 355.60211,18.6520261 C355.060736,17.2816732 354.29097,16.1058765 353.292811,15.1246362 C352.294653,14.1433958 351.085021,13.3736296 349.663914,12.8153377 C348.242807,12.2570458 346.669439,11.9778998 344.943809,11.9778998 C342.981329,11.9778998 341.196486,12.3331765 339.589282,13.0437298 C337.982078,13.7542832 336.628643,14.7270646 335.528977,15.9620741 C334.429311,17.1970835 333.574955,18.6604851 332.96591,20.3522789 C332.356864,22.0440726 332.052341,23.8542919 332.052341,25.7829368 C332.052341,27.6439099 332.373782,29.4118344 333.016663,31.0867102 C333.659545,32.7615861 334.581573,34.2249877 335.782746,35.476915 C336.98392,36.7288424 338.45578,37.7270007 340.198328,38.47139 C341.940875,39.2157792 343.877979,39.5879739 346.009639,39.5879739 Z M352.049343,22.4331852 L336.873953,22.4331852 C337.381491,20.2338533 338.345814,18.5589775 339.76692,17.4085577 C341.188027,16.258138 342.930575,15.6829281 344.994563,15.6829281 C347.092387,15.6829281 348.775722,16.3511866 350.044567,17.6877037 C351.313413,19.0242208 351.981671,20.6060479 352.049343,22.4331852 L352.049343,22.4331852 Z M373.42665,39.0804357 C374.340219,39.0804357 375.15228,39.0212229 375.862833,38.9027974 C376.573386,38.7843718 377.233186,38.6067335 377.842232,38.3698824 L377.842232,38.3698824 L377.842232,34.5125926 C377.368529,34.7156078 376.827155,34.8678693 376.21811,34.9693769 C375.609064,35.0708845 374.881593,35.1216383 374.035696,35.1216383 C372.479245,35.1216383 371.235777,34.7663617 370.30529,34.0558083 C369.374804,33.3452549 368.909561,31.9918199 368.909561,29.9955033 L368.909561,29.9955033 L368.909561,16.9517734 L377.791478,16.9517734 L377.791478,12.992976 L368.909561,12.992976 L368.909561,6.59799564 L364.544733,6.59799564 L364.544733,12.992976 L359.723121,12.992976 L359.723121,16.9517734 L364.544733,16.9517734 L364.544733,29.9955033 C364.544733,33.1084038 365.314499,35.4007843 366.854031,36.8726449 C368.393564,38.3445054 370.584436,39.0804357 373.42665,39.0804357 Z M390.895913,39.5879739 C392.621543,39.5879739 394.245665,39.2157792 395.768279,38.47139 C397.290894,37.7270007 398.525903,36.6780886 399.473308,35.3246536 L399.473308,35.3246536 L399.473308,38.5728976 L403.787382,38.5728976 L403.787382,21.4181089 C403.787382,18.6097313 402.873813,16.3342687 401.046676,14.5917211 C399.219538,12.8491736 396.681848,11.9778998 393.433604,11.9778998 C391.200436,11.9778998 389.204119,12.4177662 387.444654,13.2974989 C385.685188,14.1772317 384.247164,15.3784052 383.13058,16.9010196 L383.13058,16.9010196 L386.378824,19.3879564 C387.123213,18.2713725 388.095995,17.4000988 389.297168,16.7741351 C390.498342,16.1481714 391.843318,15.8351895 393.332096,15.8351895 C395.125398,15.8351895 396.597258,16.3258097 397.747678,17.3070501 C398.898098,18.2882905 399.473308,19.6586434 399.473308,21.4181089 L399.473308,21.4181089 L399.473308,23.1944924 L390.895913,24.6155991 C388.155207,25.0554655 386.065842,25.9521162 384.627817,27.3055512 C383.189793,28.6589862 382.47078,30.3169441 382.47078,32.2794248 C382.47078,34.5125926 383.249005,36.288976 384.805456,37.6085752 C386.361906,38.9281743 388.392058,39.5879739 390.895913,39.5879739 Z M391.606467,35.9844532 C390.151524,35.9844532 388.984186,35.6122585 388.104454,34.8678693 C387.224721,34.12348 386.784854,33.2099114 386.784854,32.1271634 C386.784854,31.0105795 387.199344,30.063175 388.028323,29.2849499 C388.857302,28.5067248 390.151524,27.9822687 391.910989,27.7115817 L391.910989,27.7115817 L399.473308,26.3919826 L399.473308,31.2643486 C398.593575,32.7192912 397.48545,33.869711 396.148933,34.7156078 C394.812416,35.5615047 393.29826,35.9844532 391.606467,35.9844532 Z" id="ßeta" fill="#1C1C1C"></path>
                    <path d="M14.2110675,38.5728976 C17.0194452,38.5728976 19.5994306,38.0991954 21.951024,37.1517908 C24.3026173,36.2043863 26.3073929,34.9186231 27.9653508,33.2945011 C29.6233086,31.6703791 30.9175309,29.784029 31.8480174,27.635451 C32.778504,25.4868729 33.2437473,23.2114103 33.2437473,20.8090632 C33.2437473,18.406716 32.778504,16.1312534 31.8480174,13.9826754 C30.9175309,11.8340973 29.6233086,9.94774728 27.9653508,8.32362527 C26.3073929,6.69950327 24.3026173,5.41374001 21.951024,4.46633551 C19.5994306,3.51893101 17.0194452,3.04522876 14.2110675,3.04522876 L14.2110675,3.04522876 L1.09476214e-13,3.04522876 L1.09476214e-13,38.5728976 L14.2110675,38.5728976 Z M14.2618214,30.4015338 L9.03417865,30.4015338 L9.03417865,11.2165926 L14.2618214,11.2165926 C17.0363631,11.2165926 19.3372026,12.1301612 21.1643399,13.9572985 C22.9914771,15.7844357 23.9050458,18.0683573 23.9050458,20.8090632 C23.9050458,23.5497691 22.9914771,25.8336906 21.1643399,27.6608279 C19.3372026,29.4879651 17.0363631,30.4015338 14.2618214,30.4015338 L14.2618214,30.4015338 Z M50.7637644,39.5879739 C53.1999474,39.5879739 55.3992793,39.1311895 57.36176,38.2176209 C59.3242408,37.3040523 60.9145269,36.0521249 62.1326184,34.4618388 L62.1326184,34.4618388 L56.4481914,29.9447495 C55.8729815,30.6891387 55.1032153,31.2812665 54.1388929,31.7211329 C53.1745705,32.1609993 52.1002814,32.3809325 50.9160258,32.3809325 C49.224232,32.3809325 47.8454201,32.0171968 46.7795901,31.2897255 C45.71376,30.5622542 45.0116656,29.4710472 44.6733068,28.0161046 L44.6733068,28.0161046 L61.2190498,28.0161046 C61.3543933,27.5762382 61.4728188,26.9671924 61.5743265,26.1889673 C61.6758341,25.4107422 61.7265879,24.5986812 61.7265879,23.7527843 C61.7265879,20.3015251 60.626922,17.4762295 58.4275901,15.2768976 C56.2282582,13.0775657 53.3183729,11.9778998 49.6979343,11.9778998 C47.5324383,11.9778998 45.6207114,12.3500944 43.9627535,13.0944837 C42.3047956,13.8388729 40.9175247,14.8370312 39.8009408,16.0889586 C38.684357,17.340886 37.8384601,18.8127466 37.2632502,20.5045403 C36.6880403,22.1963341 36.4004354,23.9557996 36.4004354,25.7829368 C36.4004354,27.6439099 36.7134172,29.4118344 37.3393809,31.0867102 C37.9653446,32.7615861 38.8789132,34.2249877 40.0800868,35.476915 C41.2812604,36.7288424 42.7784978,37.7270007 44.5717992,38.47139 C46.3651006,39.2157792 48.429089,39.5879739 50.7637644,39.5879739 Z M53.8089931,22.0779085 L44.9778297,22.0779085 C45.3500243,20.8259811 45.9336932,19.9377894 46.7288363,19.4133333 C47.5239793,18.8888773 48.5136787,18.6266492 49.6979343,18.6266492 C51.0852052,18.6266492 52.1087404,18.9903849 52.76854,19.7178562 C53.4283395,20.4453275 53.7751572,21.2320116 53.8089931,22.0779085 L53.8089931,22.0779085 Z M75.0847923,39.5879739 C76.3028838,39.5879739 77.4955984,39.4018765 78.6629361,39.0296819 C79.8302738,38.6574873 80.862268,38.1076543 81.7589187,37.380183 C82.6555694,36.6527117 83.3830407,35.747602 83.9413326,34.664854 C84.4996246,33.582106 84.7956885,32.3132607 84.8295244,30.8583181 C84.8295244,28.5574786 84.2289376,26.8487669 83.027764,25.732183 C81.8265905,24.6155991 80.5154503,23.7697023 79.0943435,23.1944924 C77.6732368,22.6192825 76.3620966,22.1371213 75.1609231,21.7480087 C73.9597495,21.3588962 73.3591627,20.7583094 73.3591627,19.9462484 C73.3591627,19.506382 73.5283421,19.1511053 73.8667008,18.8804183 C74.2050596,18.6097313 74.7295157,18.4743878 75.440069,18.4743878 C76.3536377,18.4743878 77.1910756,18.7619927 77.9523828,19.3372026 C78.7136899,19.9124125 79.3988664,20.5552941 80.0079122,21.2658475 L80.0079122,21.2658475 L85.2863087,16.4442353 C84.3389042,15.1923079 82.9685512,14.1349368 81.1752499,13.272122 C79.3819485,12.4093072 77.4702215,11.9778998 75.440069,11.9778998 C72.6316914,11.9778998 70.305475,12.7645839 68.4614198,14.3379521 C66.6173646,15.9113203 65.695337,17.9160959 65.695337,20.3522789 C65.695337,22.6531184 66.2959238,24.3618301 67.4970974,25.4784139 C68.6982709,26.5949978 70.0094111,27.4493537 71.4305178,28.0414815 C72.8516246,28.6336093 74.1627647,29.1242295 75.3639383,29.513342 C76.5651119,29.9024546 77.1656987,30.5368773 77.1656987,31.41661 C77.1656987,31.9241481 76.9880603,32.3301786 76.6327836,32.6347015 C76.2775069,32.9392244 75.727674,33.0914858 74.9832847,33.0914858 C73.832865,33.0914858 72.8177887,32.7615861 71.938056,32.1017865 C71.0583232,31.4419869 70.2800981,30.6722208 69.6033806,29.792488 L69.6033806,29.792488 L64.3249841,34.7156078 C65.6107473,36.1705505 67.1164438,37.3463471 68.8420734,38.2429978 C70.567703,39.1396485 72.6486093,39.5879739 75.0847923,39.5879739 Z M93.5183781,10.2015163 C94.8718131,10.2015163 96.0476097,9.68551924 97.045768,8.65352505 C98.0439264,7.62153086 98.5430055,6.42881627 98.5430055,5.07538126 C98.5430055,3.72194626 98.0439264,2.53769063 97.045768,1.52261438 C96.0476097,0.507538126 94.8718131,-2.05267901e-14 93.5183781,-2.05267901e-14 C92.1311072,-2.05267901e-14 90.9299336,0.507538126 89.9148574,1.52261438 C88.8997811,2.53769063 88.392243,3.72194626 88.392243,5.07538126 C88.392243,6.42881627 88.8997811,7.62153086 89.9148574,8.65352505 C90.9299336,9.68551924 92.1311072,10.2015163 93.5183781,10.2015163 Z M97.4771754,38.5728976 L97.4771754,12.992976 L89.4073192,12.992976 L89.4073192,38.5728976 L97.4771754,38.5728976 Z M114.743423,51.2613508 C119.006744,51.2613508 122.339577,50.2631924 124.741925,48.2668758 C127.144272,46.2705592 128.345445,43.7497865 128.345445,40.7045577 C128.345445,38.2683747 127.457254,36.2382222 125.68087,34.6141002 C123.904487,32.9899782 121.476763,32.1779172 118.397698,32.1779172 L118.397698,32.1779172 L112.56101,32.1779172 C112.154979,32.1779172 111.825079,32.0848686 111.57131,31.8987712 C111.317541,31.7126739 111.190657,31.3996921 111.190657,30.9598257 C111.190657,30.7906463 111.232951,30.613008 111.317541,30.4269107 C111.402131,30.2408134 111.512097,30.080093 111.647441,29.9447495 C111.884292,29.9785853 112.121143,29.9955033 112.357994,29.9955033 L112.357994,29.9955033 L113.068548,29.9955033 C116.485971,29.9955033 119.108251,29.1242295 120.935389,27.3816819 C122.762526,25.6391344 123.676094,23.4990153 123.676094,20.9613246 L123.676094,20.9613246 L123.676094,20.3522789 C123.676094,20.1492636 123.659177,19.9462484 123.625341,19.7432331 L123.625341,19.7432331 L127.634892,19.7432331 L127.634892,12.992976 L118.448452,12.992976 C117.704063,12.6546173 116.883543,12.4008482 115.986892,12.2316688 C115.090241,12.0624895 114.11746,11.9778998 113.068548,11.9778998 C109.718796,11.9778998 107.130352,12.8407146 105.303214,14.5663442 C103.476077,16.2919739 102.562508,18.423634 102.562508,20.9613246 C102.562508,22.3824314 102.850113,23.6935715 103.425323,24.8947451 C104.000533,26.0959187 104.84643,27.1194539 105.963014,27.9653508 C105.015609,28.70974 104.338892,29.4964241 103.932861,30.3254031 C103.526831,31.154382 103.323816,32.0933275 103.323816,33.1422397 C103.323816,33.7851213 103.4507,34.4280029 103.704469,35.0708845 C103.958238,35.7137662 104.305056,36.305894 104.744922,36.847268 C103.69601,37.6254931 102.87549,38.5221438 102.283362,39.53722 C101.691235,40.5522963 101.395171,41.6857981 101.395171,42.9377255 C101.395171,45.7122672 102.54559,47.7931736 104.84643,49.1804444 C107.14727,50.5677153 110.446267,51.2613508 114.743423,51.2613508 Z M113.119301,24.108061 C112.138061,24.108061 111.334459,23.845833 110.708495,23.3213769 C110.082532,22.7969208 109.76955,22.0102367 109.76955,20.9613246 C109.76955,19.9462484 110.082532,19.1764822 110.708495,18.6520261 C111.334459,18.1275701 112.138061,17.865342 113.119301,17.865342 C114.100542,17.865342 114.912603,18.1191111 115.555484,18.6266492 C116.198366,19.1341874 116.519807,19.9124125 116.519807,20.9613246 C116.519807,22.0102367 116.198366,22.7969208 115.555484,23.3213769 C114.912603,23.845833 114.100542,24.108061 113.119301,24.108061 Z M114.641916,44.9171242 C112.611763,44.9171242 111.148362,44.6295192 110.251711,44.0543094 C109.35506,43.4790995 108.906735,42.7008744 108.906735,41.719634 C108.906735,41.1105882 109.03362,40.5861322 109.287389,40.1462658 C109.541158,39.7063994 109.904893,39.3342048 110.378596,39.0296819 L110.378596,39.0296819 L117.382622,39.0296819 C118.397698,39.0296819 119.159005,39.266533 119.666543,39.7402353 C120.174081,40.2139375 120.42785,40.8229833 120.42785,41.5673725 C120.42785,42.5147771 119.971066,43.3099201 119.057498,43.9528017 C118.143929,44.5956834 116.672068,44.9171242 114.641916,44.9171242 Z M139.57199,38.5728976 L139.57199,22.6362004 C139.707333,22.4331852 139.884971,22.1540392 140.104905,21.7987625 C140.324838,21.4434858 140.620902,21.0966681 140.993096,20.7583094 C141.365291,20.4199506 141.813616,20.1323457 142.338072,19.8954946 C142.862528,19.6586434 143.480033,19.5402179 144.190587,19.5402179 C145.47635,19.5402179 146.45759,19.9462484 147.134308,20.7583094 C147.811025,21.5703704 148.149384,22.6192825 148.149384,23.9050458 L148.149384,23.9050458 L148.149384,38.5728976 L156.269994,38.5728976 L156.269994,23.5497691 C156.269994,21.6211242 156.007766,19.9293304 155.48331,18.4743878 C154.958854,17.0194452 154.2483,15.8098126 153.35165,14.8454902 C152.454999,13.8811678 151.406087,13.1621554 150.204913,12.6884532 C149.00374,12.2147509 147.726435,11.9778998 146.373,11.9778998 C144.884222,11.9778998 143.59,12.2062919 142.490334,12.6630763 C141.390668,13.1198606 140.417886,13.7035294 139.57199,14.4140828 L139.57199,14.4140828 L139.57199,12.992976 L131.502133,12.992976 L131.502133,38.5728976 L139.57199,38.5728976 Z M180.235745,39.5879739 C183.585497,39.5879739 186.605349,38.9366333 189.295301,37.6339521 C191.985253,36.3312709 194.159208,34.5802643 195.817166,32.3809325 L195.817166,32.3809325 L195.817166,16.3934815 L178.611623,16.3934815 L178.611623,24.5648453 L186.782987,24.5648453 L186.782987,28.980427 C185.93709,29.6233086 184.964309,30.1393057 183.864643,30.5284183 C182.764977,30.9175309 181.555344,31.1120871 180.235745,31.1120871 C177.292024,31.1120871 174.847382,30.1393057 172.901819,28.1937429 C170.956256,26.2481801 169.983475,23.7866202 169.983475,20.8090632 C169.983475,17.865342 170.897044,15.4122411 172.724181,13.4497603 C174.551318,11.4872796 176.885994,10.5060392 179.728207,10.5060392 C181.487673,10.5060392 183.035664,10.8951518 184.372181,11.6733769 C185.708698,12.451602 186.799905,13.4497603 187.645802,14.6678519 L187.645802,14.6678519 L194.802089,9.18644009 C193.144132,7.05477996 191.029389,5.32915033 188.457863,4.0095512 C185.886336,2.68995207 182.976451,2.03015251 179.728207,2.03015251 C176.919829,2.03015251 174.339844,2.53769063 171.988251,3.55276688 C169.636657,4.56784314 167.631882,5.92127814 165.973924,7.6130719 C164.315966,9.30486565 163.021744,11.2927233 162.091257,13.5766449 C161.160771,15.8605664 160.695527,18.2713725 160.695527,20.8090632 C160.695527,23.3467538 161.16923,25.7575599 162.116634,28.0414815 C163.064039,30.3254031 164.392097,32.3132607 166.100808,34.0050545 C167.80952,35.6968482 169.873508,37.0502832 172.292774,38.0653595 C174.712039,39.0804357 177.359696,39.5879739 180.235745,39.5879739 Z M214.555274,39.5879739 C216.653099,39.5879739 218.564825,39.2326972 220.290455,38.5221438 C222.016085,37.8115904 223.496404,36.838809 224.731414,35.6037996 C225.966423,34.3687901 226.930746,32.9053885 227.624381,31.2135948 C228.318016,29.521801 228.664834,27.7115817 228.664834,25.7829368 C228.664834,23.8542919 228.318016,22.0440726 227.624381,20.3522789 C226.930746,18.6604851 225.966423,17.1970835 224.731414,15.9620741 C223.496404,14.7270646 222.016085,13.7542832 220.290455,13.0437298 C218.564825,12.3331765 216.653099,11.9778998 214.555274,11.9778998 C212.45745,11.9778998 210.537264,12.3331765 208.794717,13.0437298 C207.052169,13.7542832 205.56339,14.7270646 204.328381,15.9620741 C203.093372,17.1970835 202.129049,18.6604851 201.435414,20.3522789 C200.741778,22.0440726 200.394961,23.8542919 200.394961,25.7829368 C200.394961,27.7115817 200.741778,29.521801 201.435414,31.2135948 C202.129049,32.9053885 203.093372,34.3687901 204.328381,35.6037996 C205.56339,36.838809 207.052169,37.8115904 208.794717,38.5221438 C210.537264,39.2326972 212.45745,39.5879739 214.555274,39.5879739 Z M214.606028,32.0256558 C212.94807,32.0256558 211.560799,31.4589049 210.444215,30.3254031 C209.327632,29.1919012 208.76934,27.6777458 208.76934,25.7829368 C208.76934,23.8881278 209.327632,22.3739724 210.444215,21.2404706 C211.560799,20.1069688 212.94807,19.5402179 214.606028,19.5402179 C216.23015,19.5402179 217.592044,20.0985098 218.69171,21.2150937 C219.791376,22.3316776 220.341209,23.8542919 220.341209,25.7829368 C220.341209,27.6439099 219.791376,29.1496064 218.69171,30.3000261 C217.592044,31.4504459 216.23015,32.0256558 214.606028,32.0256558 Z M245.119021,39.5879739 C249.043983,39.5879739 252.09767,38.4460131 254.280084,36.1620915 C256.462498,33.8781699 257.553705,30.8244822 257.553705,27.0010283 L257.553705,27.0010283 L257.553705,12.992976 L249.433095,12.992976 L249.433095,27.4578126 C249.433095,28.8112476 249.086278,29.9109136 248.392642,30.7568105 C247.699007,31.6027073 246.624718,32.0256558 245.169775,32.0256558 C243.680997,32.0256558 242.58979,31.6027073 241.896154,30.7568105 C241.202519,29.9109136 240.855701,28.8112476 240.855701,27.4578126 L240.855701,27.4578126 L240.855701,12.992976 L232.735091,12.992976 L232.735091,27.0010283 C232.735091,30.8244822 233.80938,33.8781699 235.957958,36.1620915 C238.106536,38.4460131 241.160224,39.5879739 245.119021,39.5879739 Z M279.540058,38.5728976 L288.320468,12.992976 L279.692319,12.992976 L274.261661,28.8789194 L268.78025,12.992976 L260.152101,12.992976 L268.932511,38.5728976 L279.540058,38.5728976 Z" id="DesignGouv" fill="#000000"></path>
                </g>
                <g id="Marianne">
                    <path d="M46.2827526,45.4544259 C46.334523,45.4544259 46.334523,45.4544259 46.2827526,45.4544259 C46.4898343,45.3508851 46.5933751,45.2991147 46.6969159,45.1955739 C46.6969159,45.1955739 46.6451455,45.1955739 46.6451455,45.1955739 C46.5416047,45.2473443 46.4380639,45.3508851 46.2827526,45.4544259" id="Path" fill="#1F356C"></path>
                    <path d="M65.2824956,39.1384351 L65.1789547,39.2419759 C65.2307252,39.2419759 65.2824956,39.1902055 65.2824956,39.1384351" id="Path" fill="#1F356C"></path>
                    <path d="M59.2771272,45.7650484 C59.8466018,45.1955739 60.4160764,44.6260993 60.9337806,44.0048543 L60.9337806,44.0048543 C61.9691889,42.8141347 63.0045972,41.7269559 64.1953168,40.6915476 C64.5577097,40.3809251 64.9201026,40.0703026 65.2824956,39.8632209 C65.3860364,39.7596801 65.3860364,39.5525984 65.4895772,39.4490576 C65.0236435,39.6561393 64.713021,40.0185322 64.1953168,40.2256138 C64.091776,40.2256138 63.9882351,40.122073 64.091776,40.0185322 C64.4541689,39.7596801 64.8165618,39.500828 65.1271843,39.2419759 C65.1271843,39.2419759 65.0754139,39.2419759 65.0754139,39.2419759 C64.9718731,39.2419759 64.9718731,39.1384351 64.9718731,39.0348943 C63.6776126,38.8278126 62.7457451,39.7079097 61.8656481,40.4844659 C61.6585664,40.5880068 61.4514847,40.3809251 61.3997143,40.3809251 C59.9501426,40.8468588 58.8629639,42.1411193 57.4133922,42.7105938 L57.4133922,42.5035122 C56.8439176,42.7105938 56.274443,43.0729868 55.653198,43.1765276 C54.773101,43.3836093 53.9965447,43.2800684 53.2199885,43.2800684 C52.0292689,43.3836093 50.8385493,43.6424614 49.6478297,43.9013134 C49.5960593,43.9013134 49.5960593,43.9013134 49.5442889,43.9530839 C48.9230439,44.1083951 48.3017989,44.3672472 47.7323243,44.6778697 L47.6805539,44.7296401 C47.6287834,44.7814105 47.577013,44.8331809 47.5252426,44.8849514 C47.3181609,45.092033 47.1110793,45.3508851 46.8522272,45.4544259 C46.2309822,45.7650484 45.7650484,46.2827526 45.2473443,46.7486864 C45.1955739,46.8004568 45.1438034,46.8004568 45.092033,46.8004568 C44.5743289,47.3181609 44.0566247,47.8358651 43.5389205,48.3017989 C43.4871501,48.3535693 43.3318388,48.3535693 43.228298,48.3535693 C43.228298,48.3535693 43.228298,48.3535693 43.228298,48.3535693 C43.228298,48.3017989 43.2800684,48.3017989 43.2800684,48.2500284 C43.3836093,48.0947172 43.4353797,47.9911764 43.5389205,47.8358651 C43.6424614,47.6805539 43.7460022,47.5252426 43.849543,47.3699314 C44.0048543,47.1628497 44.1083951,46.955768 44.2637064,46.8004568 C44.3154768,46.7486864 44.3154768,46.6969159 44.2637064,46.6969159 C44.2119359,46.6451455 44.1601655,46.6451455 44.1083951,46.6451455 C44.5743289,46.1792118 45.1955739,45.7650484 45.7650484,45.4026555 L45.7650484,45.4026555 C45.713278,45.4026555 45.6097372,45.3508851 45.6615076,45.2991147 C45.713278,45.1955739 45.7650484,45.1438034 45.8168189,45.0402626 C45.8168189,44.9884922 45.8168189,44.9884922 45.8685893,44.9367218 C45.8685893,44.8849514 45.8168189,44.8849514 45.8168189,44.8331809 C45.6615076,44.9367218 45.5061964,45.0402626 45.3508851,45.1438034 C45.092033,45.3508851 44.9367218,45.7650484 44.5743289,45.7650484 C44.5743289,45.7650484 44.470788,45.7650484 44.4190176,45.7650484 C44.3672472,45.7650484 44.3154768,45.7650484 44.3154768,45.713278 C44.3154768,45.713278 44.3154768,45.713278 44.3154768,45.713278 C44.3154768,45.713278 44.3154768,45.713278 44.3154768,45.6615076 C44.3154768,45.6615076 44.3154768,45.6615076 44.3154768,45.6615076 C44.3154768,45.6097372 44.3672472,45.6097372 44.3672472,45.5579668 C44.3672472,45.5061964 44.4190176,45.5061964 44.4190176,45.4544259 C44.4190176,45.4544259 44.4190176,45.4026555 44.470788,45.4026555 C44.470788,45.3508851 44.5225584,45.2991147 44.5225584,45.2991147 C44.5225584,45.2473443 44.5743289,45.2473443 44.5743289,45.1955739 C44.6260993,45.1438034 44.6778697,45.0402626 44.6778697,44.9884922 C44.6778697,44.9367218 44.7296401,44.9367218 44.7296401,44.8849514 C44.7814105,44.8331809 44.7814105,44.7814105 44.8331809,44.7296401 C44.8849514,44.6260993 44.8331809,44.5743289 44.7814105,44.5743289 C44.9367218,44.3154768 45.1955739,44.1601655 45.4544259,44.0048543 L45.4026555,44.0048543 C45.7650484,43.7977726 46.1792118,43.5906909 46.5416047,43.3836093 C46.5933751,43.3318388 46.6451455,43.2800684 46.6969159,43.228298 C46.1274414,43.4353797 45.6615076,43.6942318 45.1438034,44.0048543 C45.1438034,44.0048543 45.0402626,44.0566247 44.9884922,44.1083951 C44.9884922,44.1083951 44.8849514,44.1601655 44.7296401,44.0048543 C44.7296401,44.0048543 44.7296401,43.9530839 44.7296401,43.9530839 C44.8331809,43.7460022 45.1438034,43.6424614 45.2991147,43.4871501 C45.4026555,43.4871501 45.5061964,43.4871501 45.5061964,43.5906909 C48.6641918,41.1574813 52.9611364,41.7269559 56.5850655,40.4844659 C56.895688,40.2773843 57.1545401,40.0703026 57.4651626,39.9149913 C57.9310964,39.7079097 58.3452597,39.2419759 58.9147343,38.9313534 C59.6912906,38.3618788 60.2607651,37.637093 60.5713876,36.7052255 C60.5713876,36.6016847 60.4678468,36.4981438 60.4678468,36.4981438 C59.1735864,37.8441747 57.7240147,38.9313534 56.1709022,39.7079097 C54.1000855,40.7950884 51.8739576,40.5880068 49.6996001,40.8986293 C49.8031409,40.6915476 50.0102226,40.6915476 50.1655339,40.6915476 C50.1655339,40.3809251 50.3726155,40.2773843 50.5796972,40.122073 L50.8903197,40.122073 C50.9938605,40.122073 50.9938605,39.9149913 51.0974014,39.9149913 C51.304483,39.9149913 51.6151055,39.8114505 51.5115647,39.8114505 C51.2009422,39.3972872 50.6314676,40.122073 50.1655339,39.8114505 C50.3726155,39.6043688 50.2690747,39.3455168 50.4761564,39.2419759 L50.8903197,39.2419759 C50.8903197,39.0348943 51.0974014,38.8278126 51.0974014,38.8278126 C52.546973,37.9477155 53.9447743,37.2747001 55.2908051,36.4981438 C54.9801826,36.4981438 54.8248714,36.8087663 54.5142489,36.6016847 C54.7213305,36.6016847 54.5142489,36.2910622 54.7213305,36.2910622 C55.8085093,35.9804397 56.6886064,35.4109651 57.7757851,34.9968017 C57.3616218,34.9968017 57.1027697,35.3074242 56.6886064,34.9968017 C56.895688,34.8932609 56.9992289,34.6861792 57.258081,34.6861792 L57.258081,34.3755567 C57.258081,34.2720159 57.3616218,34.2720159 57.4651626,34.2720159 C57.3616218,34.2720159 57.258081,34.1684751 57.258081,34.1684751 C57.3616218,33.9613934 57.6722443,34.0649342 57.8275555,33.8578526 C57.7240147,33.8578526 57.516933,33.8578526 57.516933,33.7543117 C57.8275555,33.3401484 58.2934893,33.288378 58.8111935,33.1848372 C58.7076526,32.9777555 58.3970301,33.1848372 58.3970301,32.9777555 C58.3970301,32.8742147 58.500571,32.8742147 58.6041118,32.8742147 L58.3970301,32.8742147 C58.1899485,32.7706738 58.2934893,32.5635922 58.2934893,32.4600513 C58.8629639,31.7870359 58.8629639,30.9069388 59.1735864,30.1303826 C59.0700456,30.1303826 58.9665047,30.1303826 58.9665047,30.0268417 C57.9828668,31.1140205 56.4297543,31.4764134 54.9801826,31.8905767 L54.3071672,31.8905767 C53.8412335,32.0976584 53.1164476,32.0976584 52.6505139,31.7870359 C52.2363505,31.5799542 52.0810393,31.3211022 51.666876,31.0104797 C50.8903197,30.5445459 50.1137634,30.1303826 49.2336664,29.8197601 C46.8004568,29.0432038 44.2637064,28.6290405 41.7269559,28.7325813 C42.8141347,28.1631067 44.0048543,28.1113363 45.1438034,27.7489434 C46.8004568,27.2830096 48.3535693,26.6617646 50.1137634,26.7653055 C49.8031409,26.6617646 49.440748,26.7653055 49.1301255,26.7653055 C47.7840947,26.6617646 46.3862934,27.075928 44.9367218,27.3347801 C43.9530839,27.5418617 43.0729868,27.9042546 42.0893488,28.1113363 C41.5198743,28.318418 41.2092518,28.8878926 40.5362363,28.7843517 L40.5362363,28.4737292 C41.5198743,27.2830096 42.7105938,26.1440605 44.2637064,26.0405196 C46.0239005,25.7298971 47.6805539,26.0405196 49.440748,26.2476013 C50.7350085,26.3511421 51.8739576,26.6617646 53.168218,26.9206167 C53.6341518,26.9206167 53.7376926,27.697173 54.151856,27.8007138 C54.7213305,28.0077955 55.3425755,27.8007138 55.9120501,28.2148771 C55.9120501,28.0077955 55.8085093,27.8007138 55.9120501,27.6454026 C56.3262135,27.2312392 56.7921472,27.7489434 57.2063105,27.5418617 C57.9828668,27.075928 56.5332951,26.1958309 56.1191318,25.4710451 C56.1191318,25.3675042 56.2226726,25.2639634 56.2226726,25.2639634 C56.9992289,25.9369788 57.5687035,26.7135351 58.5523414,27.2312392 C59.0182751,27.4383209 60.2089947,27.697173 60.0019131,27.1276984 C59.5359793,26.0405196 58.5523414,25.1604226 57.7240147,24.1767846 L57.7240147,23.7626213 C57.516933,23.7626213 57.516933,23.6590805 57.4133922,23.5555396 L57.4133922,23.1413763 C56.9992289,22.9342946 57.1027697,22.5719017 56.9474585,22.2612792 C56.636836,21.7953455 56.8439176,21.0705596 56.636836,20.501085 C56.4297543,19.9316105 56.3262135,19.4139063 56.2226726,18.8444317 C55.9120501,17.1877784 55.5496572,15.7382067 55.3425755,14.1333238 C55.1354939,12.2695888 56.4297543,10.8200171 57.3098514,9.16336377 C57.9828668,7.97264419 58.7594231,6.83369502 60.0536835,6.05713876 C60.364306,4.86641918 61.1408622,3.88278126 61.9174185,2.95091376 C62.6939747,2.01904625 63.9882351,1.39780125 64.9201026,0.983637919 C66.2661335,0.362392918 67.5086235,0 67.5086235,0 L2.20710561e-14,0 L2.20710561e-14,51.7704168 L47.9911764,51.7704168 C49.8549114,50.4243859 51.7186464,49.8031409 54.3071672,48.5088805 C55.5496572,47.9911764 58.3452597,46.6969159 59.2771272,45.7650484 M44.2637064,38.7242718 C44.0566247,38.7242718 43.6942318,38.8278126 43.7977726,38.6207309 C43.9013134,38.1547972 44.5743289,38.1547972 44.9884922,37.9477155 C45.1955739,37.8441747 45.4544259,37.637093 45.6615076,37.7406338 C45.8685893,38.0512563 46.1274414,37.9477155 46.334523,38.1547972 C45.713278,38.7242718 44.9367218,38.4654197 44.2637064,38.7242718 M29.2502855,36.6016847 C29.2502855,36.6016847 29.1467447,36.4981438 29.1467447,36.394603 C30.4410051,34.7379497 31.3728726,33.1848372 32.3047401,31.424643 C33.5990005,30.7516276 34.6344088,29.7679897 35.6180467,28.6808109 C37.2747001,26.9206167 39.0348943,25.3675042 41.1057109,24.3838663 C41.8822672,24.0732438 42.8659051,24.1767846 43.6424614,24.4874071 C43.3318388,24.9015705 42.8659051,24.7980296 42.4517418,25.0568817 C42.3482009,25.0568817 42.2446601,25.0568817 42.1411193,24.9533409 C42.2446601,24.8498001 42.2446601,24.7462592 42.2446601,24.6427184 C41.2610222,25.7298971 39.9149913,26.1958309 39.1384351,27.4900913 C38.5689605,28.4737292 38.1547972,29.7162192 36.9123072,30.0268417 C36.4981438,30.1303826 37.015848,29.7162192 36.8087663,29.8197601 C33.7543117,31.6834951 31.6317247,33.9613934 29.2502855,36.6016847 M37.3782409,30.1303826 C37.2747001,30.3374642 37.1711593,30.3374642 37.0676184,30.5445459 C36.9640776,30.7516276 36.8605368,30.8551684 36.6534551,30.9587092 C36.5499143,30.9587092 36.4463734,30.9587092 36.4463734,30.8551684 C36.5499143,30.4410051 36.8605368,30.0786122 37.2229297,29.9750713 C37.3782409,29.9233009 37.3782409,30.0268417 37.3782409,30.1303826 M41.9340376,44.7814105 C41.8822672,44.8849514 41.7787263,44.9884922 41.6751855,45.092033 C41.7787263,45.092033 41.8822672,45.1955739 41.7787263,45.2473443 C41.5716447,45.4544259 41.3127926,45.6615076 41.0539405,45.7650484 C41.0539405,45.7650484 40.9503997,45.7650484 40.8986293,45.7650484 C40.7950884,45.8685893 40.6397772,45.9721301 40.5362363,46.1274414 C40.4326955,46.2309822 39.8632209,46.1792118 40.0185322,46.0239005 C40.2773843,45.8168189 40.4844659,45.5579668 40.743318,45.3508851 C40.8986293,45.2473443 41.0539405,45.092033 41.1574813,44.9367218 C41.2092518,44.8331809 41.2610222,44.7814105 41.364563,44.7296401 C41.5198743,44.6260993 42.0375784,44.5743289 41.9340376,44.7814105 M40.1738434,44.0048543 C40.1738434,44.0048543 40.1738434,44.0048543 40.1738434,44.0048543 C39.7596801,44.2637064 39.3972872,44.5225584 39.0348943,44.7814105 C38.6207309,45.0402626 38.1547972,45.1955739 37.7406338,45.4026555 C37.7406338,45.4026555 37.7406338,45.4026555 37.7406338,45.4026555 C37.6888634,45.3508851 37.637093,45.3508851 37.5853226,45.3508851 C37.2229297,45.5579668 36.9123072,45.8168189 36.6016847,46.1274414 C36.5499143,46.1792118 36.4981438,46.2309822 36.4463734,46.2827526 L36.4463734,46.2827526 C36.4463734,46.2827526 36.4463734,46.2827526 36.4463734,46.2827526 L36.2910622,46.4380639 C36.2910622,46.4380639 36.2910622,46.4380639 36.2910622,46.4380639 C36.2910622,46.4380639 36.2910622,46.4380639 36.2910622,46.4380639 C36.2392918,46.4898343 36.1357509,46.5933751 36.0839805,46.6451455 C36.0322101,46.6969159 36.0322101,46.7486864 35.9286692,46.8004568 C35.8768988,46.8522272 35.7215876,46.8522272 35.7215876,46.7486864 C35.7215876,46.7486864 35.7215876,46.7486864 35.7215876,46.7486864 C35.6698172,46.8004568 35.6180467,46.8004568 35.5662763,46.8522272 C35.5145059,46.9039976 35.4627355,46.9039976 35.4109651,46.955768 C35.4109651,46.955768 35.3591947,46.955768 35.3591947,46.955768 C35.3591947,46.955768 35.3074242,46.955768 35.3074242,46.955768 C35.2038834,47.0593089 35.0485722,47.1628497 34.9450313,47.2663905 C34.7379497,47.4734722 34.530868,47.6287834 34.3755567,47.8876355 C34.3755567,47.8876355 34.3755567,47.8876355 34.3755567,47.8876355 C34.3755567,47.8876355 34.3755567,47.8876355 34.3755567,47.9394059 C34.3755567,47.9394059 34.3755567,47.9394059 34.3237863,47.9911764 C34.3237863,47.9911764 34.3237863,48.0429468 34.2720159,48.0429468 C34.2720159,48.0429468 34.2720159,48.0429468 34.2720159,48.0429468 C34.2720159,48.0947172 34.2202455,48.0947172 34.2202455,48.1464876 C34.2202455,48.1464876 34.2202455,48.1464876 34.2202455,48.1464876 C34.2202455,48.1464876 34.1684751,48.198258 34.1167047,48.198258 C34.1167047,48.198258 34.0649342,48.1464876 34.0649342,48.1464876 C34.0649342,48.1464876 34.0649342,48.0947172 34.0131638,48.0947172 C33.9613934,48.0429468 33.9613934,47.9911764 33.909623,47.9394059 C33.909623,47.9394059 33.909623,47.9394059 33.909623,47.9394059 C33.909623,47.9394059 33.909623,47.8876355 33.909623,47.8876355 C34.0131638,47.7840947 34.1167047,47.6805539 34.2202455,47.5252426 C34.2202455,47.5252426 34.2202455,47.5252426 34.2202455,47.5252426 C34.2720159,47.4734722 34.2720159,47.4217018 34.3237863,47.4217018 C34.3755567,47.3699314 34.4273272,47.2663905 34.4790976,47.2146201 C34.4790976,47.1628497 34.530868,47.1628497 34.530868,47.1110793 C34.6344088,46.955768 34.7379497,46.8522272 34.8414905,46.6969159 C34.8414905,46.6969159 34.8414905,46.6969159 34.8414905,46.6969159 C34.8414905,46.6969159 34.8932609,46.6451455 34.8932609,46.6451455 C34.9450313,46.5933751 34.9968017,46.4898343 35.0485722,46.4380639 C35.1003426,46.3862934 35.1003426,46.334523 35.152113,46.2309822 L35.152113,46.2309822 L35.152113,46.2309822 C35.152113,46.2309822 35.152113,46.2309822 35.152113,46.1792118 C35.2038834,46.0756709 35.2038834,46.0239005 35.2556538,45.9721301 C35.2556538,45.9721301 35.2556538,45.9721301 35.2556538,45.9721301 L35.2556538,45.9203597 C35.2556538,45.8685893 35.2556538,45.8685893 35.3074242,45.8168189 C35.3074242,45.8168189 35.3074242,45.8168189 35.3074242,45.8168189 C35.3074242,45.7650484 35.3074242,45.713278 35.3591947,45.6615076 C35.3591947,45.6615076 35.3591947,45.6097372 35.3591947,45.6097372 C35.4627355,45.4026555 35.6180467,45.2473443 35.773358,45.092033 C35.773358,45.092033 35.7215876,45.092033 35.7215876,45.092033 C35.5662763,45.1955739 35.4627355,45.2991147 35.3591947,45.4026555 C35.2556538,45.5061964 35.0485722,45.3508851 35.2038834,45.2473443 C35.3074242,45.1955739 35.3591947,45.092033 35.4109651,45.0402626 C35.4109651,45.0402626 35.4109651,45.0402626 35.4109651,45.0402626 C35.5662763,44.8849514 35.7215876,44.6778697 35.9286692,44.5225584 C36.0322101,44.4190176 36.1357509,44.3672472 36.2392918,44.3154768 C36.2392918,44.3154768 36.2910622,44.2637064 36.2910622,44.2637064 C36.3428326,44.1601655 36.4463734,44.1083951 36.4981438,44.0048543 C36.4981438,44.0048543 36.4981438,44.0048543 36.4981438,44.0048543 C37.4300113,43.1247572 39.0348943,43.1247572 40.2256138,42.5552826 C40.6915476,42.3482009 41.3127926,42.6588234 41.7787263,42.5552826 C42.0893488,42.5552826 42.3482009,42.5552826 42.6588234,42.7623643 C41.7787263,42.9176755 41.0021701,43.4871501 40.1738434,44.0048543 M42.1928897,37.1711593 C42.0893488,37.0676184 42.5035122,37.1711593 42.607053,36.9640776 L41.8304968,36.9640776 C41.7269559,36.9640776 41.7269559,36.8605368 41.7269559,36.7569959 C41.2610222,36.8605368 40.6397772,37.0676184 40.1738434,37.1711593 C39.500828,37.3782409 38.879583,37.8441747 38.1030268,38.0512563 C37.015848,38.4654197 36.1357509,39.3455168 34.9968017,39.7079097 C34.8932609,39.7079097 34.8932609,39.6043688 34.8932609,39.500828 C34.9968017,39.1902055 35.3591947,39.0866647 35.5662763,38.8278126 C35.5662763,38.7242718 35.5662763,38.6207309 35.4627355,38.6207309 C36.2392918,37.5335522 37.3264705,36.9640776 38.3101084,36.0839805 L38.3101084,35.773358 C38.6207309,35.3591947 39.0866647,35.2038834 39.2937463,34.6861792 C39.3972872,34.3755567 39.8114505,34.0131638 40.2773843,33.8060822 C40.1738434,33.7025413 39.9667618,33.7025413 39.9667618,33.4954597 C39.5525984,33.4954597 39.1902055,33.7025413 38.7760422,33.3919188 C38.9831238,33.2366076 39.1902055,33.1330667 39.3972872,33.0295259 C39.2937463,33.0295259 39.2419759,32.9777555 39.1902055,32.8742147 C39.0866647,32.667133 39.3972872,32.4600513 39.6561393,32.4082809 C40.0703026,32.3047401 40.5362363,32.3047401 40.8468588,31.9941176 C40.1738434,31.8905767 39.3972872,32.2011992 38.6725013,31.7870359 C39.1384351,30.4927755 39.9667618,29.4573672 41.1057109,28.8361221 C41.2092518,28.8361221 41.4163334,28.8361221 41.4163334,28.939663 C41.4163334,29.4055967 41.1057109,29.8197601 40.6397772,29.9233009 C41.4163334,30.1303826 42.1928897,30.1303826 42.9694459,30.4927755 C42.8659051,30.6998572 42.6588234,30.5963163 42.5552826,30.5963163 C43.0212163,30.9069388 43.6424614,30.6998572 44.1083951,31.0622501 C43.7977726,31.3728726 43.5389205,31.0622501 43.228298,31.0622501 C46.2827526,31.9423472 49.4925184,32.6153626 52.0292689,34.5826384 C49.8549114,35.6698172 47.6287834,36.1357509 45.2991147,36.6534551 C44.9884922,36.6534551 44.8331809,36.6534551 44.5225584,36.5499143 C44.5225584,36.6534551 44.5225584,36.8605368 44.4190176,36.8605368 C44.0048543,36.8605368 43.7460022,36.8605368 43.4353797,37.0676184 C43.0729868,37.3782409 42.5035122,37.4817818 42.1928897,37.1711593" id="Shape" fill="#000091"></path>
                    <path d="M142.782809,0.103540834 L87.1296115,0.103540834 C87.1296115,0.103540834 87.2331523,0.103540834 87.6473156,0.362392918 C88.1132494,0.621245001 88.682724,0.931867502 89.0451169,1.08717875 C89.7699027,1.44957167 90.4429181,1.91550542 90.9088519,2.64029126 C91.1159335,2.95091376 91.3747856,3.52038834 91.2194744,3.93455168 C91.0123927,4.40048543 90.9088519,5.2288121 90.4429181,5.38412335 C89.8734435,5.69474585 89.0968873,5.69474585 88.3721015,5.59120501 C87.9579381,5.59120501 87.5955452,5.48766418 87.1813819,5.38412335 C88.6309535,5.95359793 90.0287548,6.67838377 91.0123927,8.0244146 C91.1159335,8.23149627 91.4783265,8.3350371 91.8924898,8.3350371 C91.9960306,8.3350371 91.9960306,8.54211877 91.9960306,8.6456596 C91.788949,8.85274127 91.5818673,8.9562821 91.6854081,9.21513419 L91.9960306,9.21513419 C92.4619644,9.00805252 92.410194,8.0244146 93.0832094,8.3350371 C93.5491431,8.6456596 93.7562248,9.31867502 93.4973727,9.78460877 C93.0832094,10.1987721 92.7208165,10.4576242 92.3066531,10.7682467 C92.2031123,10.9753284 92.2031123,11.2341804 92.3066531,11.4412621 C92.6172756,11.8554254 92.7208165,12.2178184 92.7725869,12.6319817 C93.0832094,13.3049971 93.1867502,14.0815534 93.4456023,14.8063392 C93.8597656,16.2559109 94.2221586,17.757253 94.1186177,19.2068246 C94.1186177,19.9833809 93.7044544,20.6563963 94.0150769,21.4329525 C94.2221586,22.2095088 94.6880923,22.7789834 95.1022556,23.5037692 C95.516419,24.0732438 95.8788119,24.4874071 96.1894344,25.0568817 C96.758909,26.0405196 97.8460877,27.0241576 97.380154,28.1631067 C97.0695315,28.8361221 96.0341231,28.7325813 95.3093373,29.1467447 C94.7398627,29.6126784 95.2057965,30.4410051 95.516419,30.9069388 C95.9823527,31.7870359 94.9469444,32.3565105 94.2221586,32.667133 C94.4292402,32.9777555 94.7916331,32.8742147 94.895174,33.0812963 C94.9987148,33.5472301 95.4646486,33.8578526 95.2057965,34.3755567 C94.7916331,34.9450313 93.652684,35.2556538 94.2221586,36.1357509 C94.6363219,36.8087663 94.3774698,37.5853226 94.1186177,38.3101084 C93.8079952,39.1902055 93.031439,39.6043688 92.3584235,39.7596801 C91.788949,39.9667618 91.0641631,39.9667618 90.4946885,39.8632209 C90.2876069,39.7596801 90.0805252,39.6561393 89.925214,39.6561393 C88.2685606,39.4490576 86.6119073,38.9831238 84.9552539,38.9831238 C84.4893202,39.0866647 83.971616,39.1902055 83.6092231,39.3455168 C83.1432894,39.6561393 82.7808964,40.0185322 82.4185035,40.3809251 C82.4185035,40.3809251 82.4185035,40.3809251 82.4185035,40.3809251 C82.3667331,40.4844659 82.2631923,40.5362363 82.2114219,40.6397772 C82.1596514,40.6915476 82.107881,40.743318 82.107881,40.7950884 C82.0561106,40.8468588 82.0561106,40.8468588 82.0043402,40.8986293 C81.6937177,41.2610222 81.486636,41.6234151 81.2277839,42.0375784 C81.2277839,42.0893488 81.1760135,42.0893488 81.1760135,42.0893488 C81.1760135,42.1411193 81.1242431,42.1928897 81.0724727,42.2446601 C80.7618502,42.8141347 80.5029981,43.4353797 80.3476869,44.0566247 C79.6746714,46.2827526 79.9852939,48.198258 80.4512277,48.6641918 C80.5547685,48.7677326 83.6609935,49.7513705 85.835351,50.7350085 C86.8707594,51.2009422 87.5437748,51.5115647 88.1650198,51.925728 L142.83458,51.925728 L142.83458,0.103540834 L142.782809,0.103540834 Z" id="Path" fill="#E1000F"></path>
                    <path d="M90.4429181,18.9479725 C90.8570815,19.0515134 91.426556,19.0515134 91.426556,19.258595 C91.2194744,20.0351513 90.0805252,20.242233 89.4592802,21.0187892 L89.1486577,21.0187892 C88.8380352,21.2258709 88.941576,21.6918046 88.682724,21.6918046 C88.3721015,21.5882638 88.1132494,21.6918046 87.8026269,21.7953455 C88.2167902,22.2095088 88.682724,22.4683609 89.2521985,22.3648201 C89.3557394,22.3648201 89.562821,22.5719017 89.562821,22.7789834 C89.562821,22.7789834 89.6663619,22.7789834 89.7699027,22.6754426 C89.8734435,22.6754426 89.9769844,22.6754426 89.9769844,22.7789834 L89.9769844,23.1931467 C89.6663619,23.6073101 89.2004281,23.4002284 88.7862648,23.5037692 C89.562821,23.7108509 90.3393773,23.7108509 91.0641631,23.5037692 C91.6336377,23.2966876 91.0641631,22.3130496 91.4783265,21.8471159 C91.2712448,21.8471159 91.4783265,21.5364934 91.2712448,21.5364934 C91.4783265,21.3294117 91.6854081,21.0705596 91.8407194,20.9670188 C92.047801,20.9670188 92.3066531,20.863478 92.410194,20.6563963 C92.410194,20.4493146 91.9960306,20.3457738 92.0995715,20.1904625 C92.669046,19.7762992 93.1867502,19.2068246 92.9796685,18.63735 C92.8761277,18.3267275 92.0995715,18.3267275 91.6336377,18.1196459 C91.167704,17.9125642 90.546459,18.1196459 89.9769844,18.2231867 C89.5110506,18.2231867 88.9933465,18.5338092 88.5274127,18.63735 C87.8543973,18.8444317 87.2331523,19.2068246 86.6636777,19.620988 C87.3366931,19.3103655 88.0097085,19.2068246 88.7862648,19.0515134 C89.3557394,18.9479725 89.8216731,18.8444317 90.4429181,18.9479725" id="Path" fill="#808080"></path>
                </g>
            </g>
        </g>
    </g>
</svg>