<svg width="164" height="32" viewBox="0 0 164 32" fill="none" xmlns="http://www.w3.org/2000/svg">
<g id="Logo">
<path id="Ombre" fill-rule="evenodd" clip-rule="evenodd" d="M11.4009 24.9354C12.9643 24.9354 14.4006 24.6717 15.7098 24.1442C17.0189 23.6167 18.135 22.9009 19.058 21.9966C19.981 21.0924 20.7015 20.0421 21.2195 18.8458C21.7375 17.6496 21.9965 16.3827 21.9965 15.0452C21.9965 13.7076 21.7375 12.4407 21.2195 11.2445C20.7015 10.0482 19.981 8.99795 19.058 8.09369C18.135 7.18944 17.0189 6.47357 15.7098 5.94609C14.4006 5.41861 12.9643 5.15487 11.4009 5.15487V5.15487H3.48944V24.9354H11.4009ZM11.429 20.3859H8.51874V9.70435H11.429C12.9736 9.70435 14.2545 10.213 15.2717 11.2303C16.2889 12.2476 16.7975 13.5192 16.7975 15.0451C16.7975 16.571 16.2889 17.8426 15.2717 18.8599C14.2545 19.8772 12.9736 20.3859 11.429 20.3859V20.3859ZM31.75 25.5005C33.1062 25.5005 34.3306 25.2462 35.4231 24.7375C36.5157 24.2289 37.401 23.5319 38.0791 22.6464V22.6464L34.9145 20.1315C34.5943 20.5459 34.1658 20.8756 33.6289 21.1205C33.0921 21.3654 32.494 21.4879 31.8347 21.4879C30.8929 21.4879 30.1253 21.2854 29.5319 20.8803C28.9386 20.4753 28.5477 19.8678 28.3593 19.0577V19.0577H37.5705C37.6459 18.8128 37.7118 18.4737 37.7683 18.0404C37.8248 17.6071 37.8531 17.155 37.8531 16.684C37.8531 14.7625 37.2409 13.1895 36.0165 11.9649C34.7921 10.7404 33.1721 10.1282 31.1566 10.1282C29.9511 10.1282 28.8868 10.3354 27.9638 10.7498C27.0408 11.1643 26.2685 11.72 25.6469 12.4171C25.0252 13.1141 24.5543 13.9336 24.2341 14.8755C23.9139 15.8174 23.7538 16.7971 23.7538 17.8143C23.7538 18.8505 23.928 19.8348 24.2765 20.7673C24.625 21.6998 25.1336 22.5146 25.8023 23.2116C26.471 23.9086 27.3045 24.4644 28.3028 24.8788C29.3012 25.2933 30.4502 25.5005 31.75 25.5005ZM33.4454 15.7515H28.529C28.7362 15.0545 29.0611 14.56 29.5038 14.268C29.9465 13.976 30.4974 13.83 31.1567 13.83C31.929 13.83 32.4988 14.0325 32.8662 14.4375C33.2335 14.8426 33.4265 15.2806 33.4454 15.7515V15.7515ZM45.2897 25.5005C45.9679 25.5005 46.6319 25.3969 47.2817 25.1897C47.9316 24.9824 48.5061 24.6763 49.0053 24.2713C49.5045 23.8663 49.9095 23.3623 50.2203 22.7595C50.5311 22.1566 50.6959 21.4502 50.7147 20.6401C50.7147 19.3591 50.3804 18.4078 49.7117 17.7861C49.043 17.1644 48.313 16.6934 47.5219 16.3732C46.7308 16.0529 46.0008 15.7845 45.3321 15.5678C44.6634 15.3512 44.3291 15.0168 44.3291 14.5647C44.3291 14.3198 44.4233 14.122 44.6116 13.9713C44.8 13.8205 45.092 13.7452 45.4875 13.7452C45.9961 13.7452 46.4623 13.9053 46.8862 14.2256C47.31 14.5458 47.6914 14.9038 48.0305 15.2994V15.2994L50.969 12.6149C50.4416 11.9178 49.6787 11.3291 48.6804 10.8488C47.682 10.3684 46.6177 10.1282 45.4875 10.1282C43.9241 10.1282 42.6291 10.5662 41.6025 11.4422C40.5759 12.3182 40.0625 13.4344 40.0625 14.7907C40.0625 16.0718 40.3969 17.0231 41.0656 17.6448C41.7343 18.2665 42.4642 18.7421 43.2554 19.0718C44.0465 19.4015 44.7764 19.6747 45.4451 19.8913C46.1139 20.1079 46.4482 20.4612 46.4482 20.951C46.4482 21.2336 46.3493 21.4596 46.1515 21.6292C45.9537 21.7987 45.6476 21.8835 45.2332 21.8835C44.5928 21.8835 44.0277 21.6998 43.5379 21.3325C43.0482 20.9651 42.6149 20.5365 42.2382 20.0467V20.0467L39.2997 22.7877C40.0155 23.5978 40.8537 24.2524 41.8144 24.7517C42.775 25.2509 43.9335 25.5005 45.2897 25.5005ZM55.5519 9.13908C56.3053 9.13908 56.9599 8.85179 57.5156 8.27721C58.0713 7.70263 58.3491 7.03857 58.3491 6.28502C58.3491 5.53148 58.0713 4.87213 57.5156 4.30697C56.9599 3.74181 56.3053 3.45923 55.5519 3.45923C54.7796 3.45923 54.1109 3.74181 53.5458 4.30697C52.9806 4.87213 52.6981 5.53148 52.6981 6.28502C52.6981 7.03857 52.9806 7.70263 53.5458 8.27721C54.1109 8.85179 54.7796 9.13908 55.5519 9.13908ZM57.7558 24.9353V10.6933H53.2632V24.9353H57.7558ZM67.3681 31.9998C69.7416 31.9998 71.597 31.4441 72.9344 30.3326C74.2718 29.2211 74.9405 27.8177 74.9405 26.1222C74.9405 24.7658 74.446 23.6355 73.4571 22.7312C72.4682 21.827 71.1166 21.3748 69.4025 21.3748V21.3748H66.1532C65.9271 21.3748 65.7435 21.323 65.6022 21.2194C65.4609 21.1158 65.3903 20.9416 65.3903 20.6967C65.3903 20.6025 65.4138 20.5036 65.4609 20.3999C65.508 20.2963 65.5692 20.2068 65.6446 20.1315C65.7764 20.1503 65.9083 20.1597 66.0401 20.1597V20.1597H66.4357C68.3382 20.1597 69.7981 19.6747 70.8153 18.7045C71.8324 17.7343 72.341 16.5427 72.341 15.1298V15.1298V14.7907C72.341 14.6777 72.3316 14.5647 72.3128 14.4516V14.4516H74.5449V10.6933H69.4307C69.0163 10.5049 68.5596 10.3637 68.0604 10.2695C67.5612 10.1753 67.0196 10.1282 66.4357 10.1282C64.5709 10.1282 63.1299 10.6086 62.1127 11.5693C61.0955 12.5301 60.5869 13.7169 60.5869 15.1298C60.5869 15.9211 60.747 16.6511 61.0672 17.3198C61.3875 17.9886 61.8584 18.5585 62.48 19.0294C61.9526 19.4439 61.5758 19.8819 61.3498 20.3434C61.1237 20.805 61.0107 21.3277 61.0107 21.9117C61.0107 22.2697 61.0814 22.6276 61.2226 22.9855C61.3639 23.3435 61.557 23.6732 61.8019 23.9746C61.2179 24.4079 60.7611 24.9071 60.4315 25.4722C60.1019 26.0374 59.937 26.6685 59.937 27.3655C59.937 28.9103 60.5775 30.0689 61.8584 30.8413C63.1393 31.6136 64.9759 31.9998 67.3681 31.9998ZM66.464 16.8819C65.9177 16.8819 65.4703 16.7359 65.1219 16.4439C64.7734 16.1519 64.5991 15.7139 64.5991 15.1299C64.5991 14.5647 64.7734 14.1362 65.1219 13.8442C65.4703 13.5522 65.9177 13.4062 66.464 13.4062C67.0102 13.4062 67.4623 13.5475 67.8202 13.83C68.1781 14.1126 68.3571 14.5459 68.3571 15.1299C68.3571 15.7139 68.1781 16.1519 67.8202 16.4439C67.4623 16.7359 67.0102 16.8819 66.464 16.8819ZM67.3117 28.4676C66.1815 28.4676 65.3668 28.3075 64.8676 27.9872C64.3684 27.667 64.1188 27.2337 64.1188 26.6874C64.1188 26.3483 64.1895 26.0563 64.3308 25.8114C64.472 25.5665 64.6745 25.3592 64.9382 25.1897V25.1897H68.8374C69.4025 25.1897 69.8264 25.3216 70.1089 25.5853C70.3915 25.8491 70.5327 26.1881 70.5327 26.6026C70.5327 27.1301 70.2785 27.5728 69.7699 27.9307C69.2613 28.2887 68.4419 28.4676 67.3117 28.4676ZM81.1903 24.9353V16.0623C81.2657 15.9493 81.3646 15.7939 81.487 15.5961C81.6095 15.3983 81.7743 15.2052 81.9815 15.0168C82.1887 14.8284 82.4383 14.6683 82.7302 14.5364C83.0222 14.4045 83.366 14.3386 83.7616 14.3386C84.4773 14.3386 85.0236 14.5647 85.4003 15.0168C85.7771 15.4689 85.9655 16.0529 85.9655 16.7688V16.7688V24.9353H90.4863V16.571C90.4863 15.4972 90.3403 14.5553 90.0483 13.7452C89.7563 12.9351 89.3608 12.2616 88.8616 11.7247C88.3624 11.1878 87.7785 10.7875 87.1098 10.5238C86.4411 10.26 85.73 10.1282 84.9765 10.1282C84.1477 10.1282 83.4272 10.2553 82.815 10.5097C82.2028 10.764 81.6613 11.0889 81.1903 11.4846V11.4846V10.6933H76.6978V24.9353H81.1903ZM103.828 25.5007C105.693 25.5007 107.374 25.138 108.872 24.4127C110.369 23.6874 111.58 22.7125 112.503 21.488V21.488V12.5868H102.924V17.1363H107.473V19.5947C107.002 19.9527 106.461 20.24 105.849 20.4566C105.236 20.6733 104.563 20.7816 103.828 20.7816C102.189 20.7816 100.829 20.24 99.7454 19.1567C98.6623 18.0735 98.1207 16.703 98.1207 15.0452C98.1207 13.4062 98.6293 12.0404 99.6465 10.9478C100.664 9.85516 101.963 9.30884 103.546 9.30884C104.525 9.30884 105.387 9.52549 106.131 9.95877C106.875 10.3921 107.483 10.9478 107.954 11.626V11.626L111.937 8.57413C111.014 7.3873 109.837 6.42653 108.406 5.69182C106.974 4.95712 105.354 4.58976 103.546 4.58976C101.982 4.58976 100.546 4.87234 99.2368 5.4375C97.9277 6.00266 96.8116 6.75621 95.8886 7.69814C94.9656 8.64007 94.2451 9.74684 93.7271 11.0184C93.2091 12.2901 92.9501 13.6323 92.9501 15.0452C92.9501 16.4581 93.2138 17.8004 93.7412 19.072C94.2686 20.3436 95.008 21.4503 95.9592 22.3923C96.9105 23.3342 98.0595 24.0878 99.4063 24.6529C100.753 25.2181 102.227 25.5007 103.828 25.5007ZM122.934 25.5005C124.102 25.5005 125.166 25.3027 126.127 24.9071C127.088 24.5115 127.912 23.9699 128.599 23.2823C129.287 22.5946 129.824 21.7799 130.21 20.8379C130.596 19.896 130.789 18.8881 130.789 17.8143C130.789 16.7405 130.596 15.7327 130.21 14.7907C129.824 13.8488 129.287 13.034 128.599 12.3464C127.912 11.6588 127.088 11.1172 126.127 10.7216C125.166 10.326 124.102 10.1282 122.934 10.1282C121.766 10.1282 120.697 10.326 119.727 10.7216C118.757 11.1172 117.928 11.6588 117.241 12.3464C116.553 13.034 116.017 13.8488 115.63 14.7907C115.244 15.7327 115.051 16.7405 115.051 17.8143C115.051 18.8881 115.244 19.896 115.63 20.8379C116.017 21.7799 116.553 22.5946 117.241 23.2823C117.928 23.9699 118.757 24.5115 119.727 24.9071C120.697 25.3027 121.766 25.5005 122.934 25.5005ZM122.963 21.2902C122.04 21.2902 121.267 20.9747 120.646 20.3436C120.024 19.7125 119.713 18.8695 119.713 17.8145C119.713 16.7596 120.024 15.9165 120.646 15.2854C121.267 14.6543 122.04 14.3388 122.963 14.3388C123.867 14.3388 124.625 14.6496 125.237 15.2713C125.849 15.893 126.155 16.7407 126.155 17.8145C126.155 18.8506 125.849 19.689 125.237 20.3295C124.625 20.97 123.867 21.2902 122.963 21.2902ZM139.949 25.5004C142.135 25.5004 143.835 24.8646 145.049 23.593C146.264 22.3214 146.872 20.6212 146.872 18.4925V18.4925V10.6933H142.351V18.7468C142.351 19.5003 142.158 20.1126 141.772 20.5836C141.386 21.0545 140.788 21.29 139.978 21.29C139.149 21.29 138.541 21.0545 138.155 20.5836C137.769 20.1126 137.576 19.5003 137.576 18.7468V18.7468V10.6933H133.055V18.4925C133.055 20.6212 133.653 22.3214 134.849 23.593C136.046 24.8646 137.746 25.5004 139.949 25.5004ZM159.112 24.9353L164 10.6933H159.197L156.173 19.538L153.122 10.6933H148.318L153.207 24.9353H159.112Z" fill="url(#paint0_linear_403_787)"/>
<path id="Nom" fill-rule="evenodd" clip-rule="evenodd" d="M7.91143 21.4759C9.47488 21.4759 10.9112 21.2121 12.2203 20.6847C13.5295 20.1572 14.6456 19.4413 15.5686 18.5371C16.4916 17.6328 17.2121 16.5825 17.7301 15.3863C18.2481 14.19 18.5071 12.9231 18.5071 11.5856C18.5071 10.2481 18.2481 8.98116 17.7301 7.7849C17.2121 6.58865 16.4916 5.5384 15.5686 4.63414C14.6456 3.72989 13.5295 3.01402 12.2203 2.48654C10.9112 1.95905 9.47488 1.69531 7.91143 1.69531V1.69531H0V21.4759H7.91143ZM7.93974 16.9266H5.02946V6.24512H7.93974C9.48435 6.24512 10.7652 6.75376 11.7824 7.77105C12.7996 8.78833 13.3082 10.0599 13.3082 11.5859C13.3082 13.1118 12.7996 14.3834 11.7824 15.4007C10.7652 16.418 9.48435 16.9266 7.93974 16.9266V16.9266ZM28.2607 22.0413C29.6169 22.0413 30.8413 21.787 31.9338 21.2783C33.0264 20.7697 33.9117 20.0726 34.5898 19.1872V19.1872L31.4253 16.6723C31.105 17.0867 30.6765 17.4164 30.1396 17.6613C29.6028 17.9062 29.0047 18.0286 28.3454 18.0286C27.4036 18.0286 26.636 17.8261 26.0427 17.4211C25.4493 17.0161 25.0584 16.4085 24.8701 15.5985V15.5985H34.0812C34.1566 15.3536 34.2225 15.0145 34.279 14.5812C34.3355 14.1479 34.3638 13.6958 34.3638 13.2248C34.3638 11.3033 33.7516 9.73022 32.5272 8.50571C31.3028 7.2812 29.6829 6.66895 27.6673 6.66895C26.4618 6.66895 25.3975 6.87617 24.4745 7.29062C23.5515 7.70507 22.7792 8.26081 22.1576 8.95784C21.536 9.65487 21.065 10.4744 20.7448 11.4163C20.4246 12.3582 20.2645 13.3378 20.2645 14.3551C20.2645 15.3912 20.4387 16.3756 20.7872 17.3081C21.1357 18.2406 21.6443 19.0554 22.313 19.7524C22.9817 20.4494 23.8152 21.0052 24.8136 21.4196C25.8119 21.8341 26.9609 22.0413 28.2607 22.0413ZM29.9559 12.2923H25.0396C25.2468 11.5953 25.5717 11.1008 26.0144 10.8088C26.457 10.5168 27.008 10.3708 27.6673 10.3708C28.4396 10.3708 29.0094 10.5733 29.3767 10.9783C29.744 11.3833 29.9371 11.8213 29.9559 12.2923V12.2923ZM41.8003 22.0413C42.4784 22.0413 43.1424 21.9377 43.7923 21.7304C44.4422 21.5232 45.0167 21.2171 45.5159 20.8121C46.015 20.407 46.42 19.9031 46.7308 19.3003C47.0416 18.6974 47.2065 17.991 47.2253 17.1809C47.2253 15.8999 46.8909 14.9485 46.2222 14.3269C45.5535 13.7052 44.8236 13.2342 44.0325 12.914C43.2413 12.5937 42.5114 12.3252 41.8427 12.1086C41.174 11.892 40.8396 11.5576 40.8396 11.1054C40.8396 10.8605 40.9338 10.6627 41.1222 10.512C41.3106 10.3613 41.6025 10.286 41.9981 10.286C42.5067 10.286 42.9729 10.4461 43.3967 10.7663C43.8205 11.0866 44.202 11.4445 44.5411 11.8402V11.8402L47.4796 9.15565C46.9522 8.45862 46.1893 7.86991 45.1909 7.38952C44.1926 6.90914 43.1283 6.66895 41.9981 6.66895C40.4346 6.66895 39.1396 7.10694 38.113 7.98294C37.0864 8.85894 36.5731 9.97513 36.5731 11.3315C36.5731 12.6125 36.9075 13.5639 37.5762 14.1856C38.2449 14.8072 38.9748 15.2829 39.7659 15.6126C40.5571 15.9423 41.287 16.2154 41.9557 16.4321C42.6244 16.6487 42.9588 17.0019 42.9588 17.4917C42.9588 17.7743 42.8599 18.0004 42.6621 18.1699C42.4643 18.3395 42.1582 18.4243 41.7438 18.4243C41.1033 18.4243 40.5382 18.2406 40.0485 17.8732C39.5587 17.5059 39.1255 17.0773 38.7488 16.5875V16.5875L35.8102 19.3285C36.526 20.1386 37.3643 20.7932 38.3249 21.2924C39.2856 21.7917 40.4441 22.0413 41.8003 22.0413ZM52.0626 5.67985C52.8161 5.67985 53.4706 5.39256 54.0263 4.81798C54.582 4.2434 54.8598 3.57934 54.8598 2.8258C54.8598 2.07225 54.582 1.4129 54.0263 0.847739C53.4706 0.28258 52.8161 0 52.0626 0C51.2903 0 50.6216 0.28258 50.0565 0.847739C49.4914 1.4129 49.2088 2.07225 49.2088 2.8258C49.2088 3.57934 49.4914 4.2434 50.0565 4.81798C50.6216 5.39256 51.2903 5.67985 52.0626 5.67985ZM54.2665 21.4761V7.23405H49.7739V21.4761H54.2665ZM63.8787 28.5406C66.2521 28.5406 68.1075 27.9849 69.4449 26.8734C70.7824 25.7619 71.4511 24.3584 71.4511 22.663C71.4511 21.3066 70.9566 20.1762 69.9677 19.272C68.9787 18.3677 67.6272 17.9156 65.9131 17.9156V17.9156H62.6637C62.4377 17.9156 62.254 17.8638 62.1127 17.7602C61.9715 17.6566 61.9008 17.4823 61.9008 17.2374C61.9008 17.1432 61.9244 17.0443 61.9715 16.9407C62.0186 16.8371 62.0798 16.7476 62.1551 16.6723C62.287 16.6911 62.4188 16.7005 62.5507 16.7005V16.7005H62.9463C64.8488 16.7005 66.3086 16.2154 67.3258 15.2452C68.343 14.275 68.8516 13.0835 68.8516 11.6706V11.6706V11.3315C68.8516 11.2185 68.8422 11.1054 68.8233 10.9924V10.9924H71.0555V7.2341H65.9413C65.5269 7.04572 65.0701 6.90443 64.5709 6.81024C64.0718 6.71604 63.5302 6.66895 62.9463 6.66895C61.0814 6.66895 59.6404 7.14933 58.6232 8.1101C57.606 9.07087 57.0975 10.2577 57.0975 11.6706C57.0975 12.4618 57.2576 13.1918 57.5778 13.8606C57.898 14.5294 58.3689 15.0992 58.9905 15.5702C58.4631 15.9847 58.0864 16.4227 57.8603 16.8842C57.6343 17.3457 57.5213 17.8685 57.5213 18.4525C57.5213 18.8104 57.5919 19.1684 57.7332 19.5263C57.8745 19.8843 58.0675 20.2139 58.3124 20.5153C57.7285 20.9486 57.2717 21.4479 56.9421 22.013C56.6124 22.5782 56.4476 23.2093 56.4476 23.9063C56.4476 25.4511 57.088 26.6096 58.3689 27.382C59.6498 28.1544 61.4864 28.5406 63.8787 28.5406ZM62.9745 13.4227C62.4283 13.4227 61.9809 13.2767 61.6324 12.9847C61.2839 12.6927 61.1097 12.2547 61.1097 11.6707C61.1097 11.1055 61.2839 10.6769 61.6324 10.3849C61.9809 10.0929 62.4283 9.94694 62.9745 9.94694C63.5208 9.94694 63.9729 10.0882 64.3308 10.3708C64.6887 10.6534 64.8676 11.0867 64.8676 11.6707C64.8676 12.2547 64.6887 12.6927 64.3308 12.9847C63.9729 13.2767 63.5208 13.4227 62.9745 13.4227ZM63.8222 25.0084C62.692 25.0084 61.8773 24.8483 61.3782 24.528C60.879 24.2078 60.6294 23.7745 60.6294 23.2281C60.6294 22.889 60.7 22.597 60.8413 22.3521C60.9826 22.1072 61.1851 21.9 61.4488 21.7305V21.7305H65.348C65.9131 21.7305 66.3369 21.8623 66.6195 22.1261C66.902 22.3898 67.0433 22.7289 67.0433 23.1434C67.0433 23.6708 66.789 24.1136 66.2804 24.4715C65.7718 24.8294 64.9524 25.0084 63.8222 25.0084ZM77.7011 21.4761V12.6031C77.7764 12.4901 77.8753 12.3347 77.9977 12.1369C78.1202 11.9391 78.285 11.746 78.4922 11.5576C78.6994 11.3692 78.949 11.2091 79.241 11.0772C79.5329 10.9453 79.8767 10.8794 80.2723 10.8794C80.9881 10.8794 81.5343 11.1054 81.9111 11.5576C82.2878 12.0097 82.4762 12.5937 82.4762 13.3096V13.3096V21.4761H86.997V13.1118C86.997 12.038 86.851 11.096 86.559 10.286C86.2671 9.4759 85.8715 8.80242 85.3723 8.26552C84.8731 7.72862 84.2892 7.3283 83.6205 7.06456C82.9518 6.80082 82.2407 6.66895 81.4872 6.66895C80.6584 6.66895 79.9379 6.79611 79.3257 7.05043C78.7135 7.30475 78.172 7.62972 77.7011 8.02533V8.02533V7.2341H73.2085V21.4761H77.7011ZM100.339 22.0411C102.204 22.0411 103.885 21.6785 105.382 20.9532C106.88 20.2279 108.09 19.253 109.013 18.0285V18.0285V9.12721H99.4347V13.6767H103.984V16.1352C103.513 16.4931 102.971 16.7804 102.359 16.9971C101.747 17.2137 101.073 17.322 100.339 17.322C98.7 17.322 97.3391 16.7804 96.256 15.6972C95.1729 14.614 94.6313 13.2435 94.6313 11.5857C94.6313 9.94669 95.1399 8.58089 96.1571 7.48825C97.1743 6.39561 98.474 5.84929 100.056 5.84929C101.036 5.84929 101.898 6.06593 102.642 6.49922C103.386 6.93251 103.993 7.48825 104.464 8.16644V8.16644L108.448 5.11458C107.525 3.92775 106.348 2.96698 104.916 2.23227C103.485 1.49756 101.865 1.13021 100.056 1.13021C98.4928 1.13021 97.0565 1.41279 95.7474 1.97795C94.4382 2.54311 93.3221 3.29665 92.3991 4.23858C91.4761 5.18052 90.7556 6.28729 90.2376 7.55889C89.7196 8.8305 89.4606 10.1728 89.4606 11.5857C89.4606 12.9986 89.7243 14.3408 90.2518 15.6124C90.7792 16.884 91.5185 17.9908 92.4698 18.9327C93.421 19.8747 94.5701 20.6282 95.9169 21.1934C97.2637 21.7585 98.7377 22.0411 100.339 22.0411ZM119.445 22.0413C120.613 22.0413 121.677 21.8435 122.638 21.4479C123.598 21.0522 124.422 20.5106 125.11 19.823C125.798 19.1354 126.334 18.3206 126.721 17.3787C127.107 16.4368 127.3 15.4289 127.3 14.3551C127.3 13.2813 127.107 12.2734 126.721 11.3315C126.334 10.3896 125.798 9.57481 125.11 8.8872C124.422 8.19958 123.598 7.65797 122.638 7.26236C121.677 6.86675 120.613 6.66895 119.445 6.66895C118.277 6.66895 117.208 6.86675 116.238 7.26236C115.268 7.65797 114.439 8.19958 113.751 8.8872C113.064 9.57481 112.527 10.3896 112.141 11.3315C111.755 12.2734 111.562 13.2813 111.562 14.3551C111.562 15.4289 111.755 16.4368 112.141 17.3787C112.527 18.3206 113.064 19.1354 113.751 19.823C114.439 20.5106 115.268 21.0522 116.238 21.4479C117.208 21.8435 118.277 22.0413 119.445 22.0413ZM119.473 17.8307C118.55 17.8307 117.778 17.5151 117.156 16.884C116.535 16.253 116.224 15.4099 116.224 14.355C116.224 13.3 116.535 12.457 117.156 11.8259C117.778 11.1948 118.55 10.8792 119.473 10.8792C120.377 10.8792 121.135 11.1901 121.748 11.8117C122.36 12.4334 122.666 13.2812 122.666 14.355C122.666 15.3911 122.36 16.2294 121.748 16.8699C121.135 17.5104 120.377 17.8307 119.473 17.8307ZM136.46 22.0412C138.645 22.0412 140.345 21.4054 141.56 20.1338C142.775 18.8622 143.383 17.162 143.383 15.0332V15.0332V7.23405H138.862V15.2876C138.862 16.0411 138.669 16.6534 138.282 17.1243C137.896 17.5953 137.298 17.8308 136.488 17.8308C135.659 17.8308 135.052 17.5953 134.666 17.1243C134.28 16.6534 134.087 16.0411 134.087 15.2876V15.2876V7.23405H129.566V15.0332C129.566 17.162 130.164 18.8622 131.36 20.1338C132.556 21.4054 134.256 22.0412 136.46 22.0412ZM155.623 21.4761L160.511 7.23405H155.707L152.684 16.0788L149.632 7.23405H144.829L149.717 21.4761H155.623Z" fill="#161616"/>
</g>
<defs>
<linearGradient id="paint0_linear_403_787" x1="25.1018" y1="28.2728" x2="143.692" y2="28.2728" gradientUnits="userSpaceOnUse">
<stop stop-color="#FEE9E6"/>
<stop offset="1" stop-color="#FCEEAC"/>
</linearGradient>
</defs>
</svg>
