<?xml version="1.0" encoding="UTF-8"?>
<svg width="192" height="42" viewBox="0 0 192 42" version="1.1" xmlns="http://www.w3.org/2000/svg" xmlns:xlink="http://www.w3.org/1999/xlink">
    <defs>
        <linearGradient x1="20%" y1="50%" x2="80%" y2="50%" id="linearGradient-1">
            <stop stop-color="var(--pink-macaron-950-100)" offset="0%"></stop>
            <stop stop-color="var(--green-tilleul-verveine-950-100)" offset="100%"></stop>
        </linearGradient>
    </defs>
    <g id="Site" stroke="none" stroke-width="1" fill="none" fill-rule="evenodd">
        <g id="Desktop-HD-Copy-3" transform="translate(-163.000000, -23.000000)">
            <g id="Group-11" transform="translate(-80.000000, 0.000000)">
                <g id="Group-Copy" transform="translate(243.000000, 23.000000)">
                    <path d="M13.0692015,28.8316832 C14.8614485,28.8316832 16.5079405,28.5267327 18.0086774,27.9168317 C19.5094143,27.3069307 20.7888195,26.4792079 21.846893,25.4336634 C22.9049665,24.3881188 23.7309117,23.1737624 24.3247284,21.7905941 C24.9185452,20.4074257 25.2154536,18.9425743 25.2154536,17.3960396 C25.2154536,15.849505 24.9185452,14.3846535 24.3247284,13.0014851 C23.7309117,11.6183168 22.9049665,10.4039604 21.846893,9.35841584 C20.7888195,8.31287129 19.5094143,7.48514851 18.0086774,6.87524752 C16.5079405,6.26534653 14.8614485,5.96039604 13.0692015,5.96039604 L13.0692015,5.96039604 L4,5.96039604 L4,28.8316832 L13.0692015,28.8316832 Z M13.1015915,23.5712871 L9.76542098,23.5712871 L9.76542098,11.2207921 L13.1015915,11.2207921 C14.8722452,11.2207921 16.3405921,11.8089109 17.5066323,12.9851485 C18.6726725,14.1613861 19.2556926,15.6316832 19.2556926,17.3960396 C19.2556926,19.160396 18.6726725,20.6306931 17.5066323,21.8069307 C16.3405921,22.9831683 14.8722452,23.5712871 13.1015915,23.5712871 L13.1015915,23.5712871 Z M36.3963565,29.4851485 C37.9510767,29.4851485 39.3546436,29.1910891 40.6070572,28.6029703 C41.8594707,28.0148515 42.8743576,27.2089109 43.6517177,26.1851485 L43.6517177,26.1851485 L40.0240371,23.2772277 C39.6569504,23.7564356 39.1657019,24.1376238 38.5502918,24.4207921 C37.9348817,24.7039604 37.2492933,24.8455446 36.4935265,24.8455446 C35.4138596,24.8455446 34.5339312,24.6113861 33.853741,24.1430693 C33.1735509,23.6747525 32.7254892,22.9722772 32.5095558,22.0356436 L32.5095558,22.0356436 L43.0686976,22.0356436 C43.1550709,21.7524752 43.2306476,21.360396 43.2954276,20.8594059 C43.3602076,20.3584158 43.3925977,19.8356436 43.3925977,19.2910891 C43.3925977,17.0693069 42.6908142,15.250495 41.2872473,13.8346535 C39.8836804,12.4188119 38.0266534,11.7108911 35.7161664,11.7108911 C34.3341928,11.7108911 33.1141692,11.950495 32.0560957,12.429703 C30.9980222,12.9089109 30.1126954,13.5514851 29.4001153,14.3574257 C28.6875352,15.1633663 28.1477017,16.1108911 27.780615,17.2 C27.4135283,18.2891089 27.2299849,19.4217822 27.2299849,20.5980198 C27.2299849,21.7960396 27.4297233,22.9341584 27.8292,24.0123762 C28.2286768,25.0905941 28.8116969,26.0326733 29.5782603,26.8386139 C30.3448238,27.6445545 31.3003289,28.2871287 32.4447758,28.7663366 C33.5892227,29.2455446 34.9064162,29.4851485 36.3963565,29.4851485 Z M38.3397568,18.2128713 L32.7038958,18.2128713 C32.9414226,17.4069307 33.3139076,16.8351485 33.821351,16.4975248 C34.3287945,16.159901 34.9603996,15.9910891 35.7161664,15.9910891 C36.6014932,15.9910891 37.2546916,16.2252475 37.6757617,16.6935644 C38.0968318,17.1618812 38.3181635,17.6683168 38.3397568,18.2128713 L38.3397568,18.2128713 Z M51.9175201,29.4851485 C52.6948802,29.4851485 53.4560453,29.3653465 54.2010155,29.1257426 C54.9459856,28.8861386 55.6045824,28.5321782 56.1768058,28.0638614 C56.7490292,27.5955446 57.213286,27.0128713 57.569576,26.3158416 C57.9258661,25.6188119 58.1148078,24.8019802 58.1364011,23.8653465 C58.1364011,22.3841584 57.7531194,21.2841584 56.9865559,20.5653465 C56.2199925,19.8465347 55.3832507,19.3019802 54.4763305,18.9316832 C53.5694104,18.5613861 52.7326686,18.2509901 51.9661051,18.000495 C51.1995416,17.75 50.8162599,17.3633663 50.8162599,16.8405941 C50.8162599,16.5574257 50.9242266,16.3287129 51.1401599,16.1544554 C51.3560933,15.980198 51.69079,15.8930693 52.1442501,15.8930693 C52.7272702,15.8930693 53.2617053,16.0782178 53.7475554,16.4485149 C54.2334055,16.8188119 54.6706705,17.2326733 55.0593506,17.690099 L55.0593506,17.690099 L58.4279112,14.5861386 C57.8232977,13.780198 56.9487676,13.099505 55.8043207,12.5440594 C54.6598739,11.9886139 53.4398503,11.7108911 52.1442501,11.7108911 C50.3520031,11.7108911 48.8674612,12.2173267 47.6906244,13.230198 C46.5137875,14.2430693 45.9253691,15.5336634 45.9253691,17.1019802 C45.9253691,18.5831683 46.3086508,19.6831683 47.0752143,20.4019802 C47.8417777,21.1207921 48.6785195,21.6707921 49.5854397,22.0519802 C50.4923598,22.4331683 51.3291016,22.7490099 52.0956651,22.999505 C52.8622286,23.25 53.2455103,23.6584158 53.2455103,24.2247525 C53.2455103,24.5514851 53.1321453,24.8128713 52.9054152,25.0089109 C52.6786852,25.2049505 52.3277935,25.3029703 51.8527401,25.3029703 C51.1185666,25.3029703 50.4707665,25.0905941 49.9093397,24.6658416 C49.347913,24.2410891 48.8512662,23.7455446 48.4193995,23.1792079 L48.4193995,23.1792079 L45.0508389,26.3485149 C45.8713857,27.2851485 46.8322892,28.0420792 47.9335494,28.6193069 C49.0348096,29.1965347 50.3627998,29.4851485 51.9175201,29.4851485 Z M63.6814431,10.5673267 C64.5451765,10.5673267 65.295545,10.2351485 65.9325484,9.57079208 C66.5695519,8.90643564 66.8880536,8.13861386 66.8880536,7.26732673 C66.8880536,6.3960396 66.5695519,5.63366337 65.9325484,4.98019802 C65.295545,4.32673267 64.5451765,4 63.6814431,4 C62.7961162,4 62.0295528,4.32673267 61.3817527,4.98019802 C60.7339526,5.63366337 60.4100525,6.3960396 60.4100525,7.26732673 C60.4100525,8.13861386 60.7339526,8.90643564 61.3817527,9.57079208 C62.0295528,10.2351485 62.7961162,10.5673267 63.6814431,10.5673267 Z M66.2078635,28.8316832 L66.2078635,12.3643564 L61.0578526,12.3643564 L61.0578526,28.8316832 L66.2078635,28.8316832 Z M77.2268163,37 C79.9475768,37 82.0745205,36.3574257 83.6076474,35.0722772 C85.1407743,33.7871287 85.9073378,32.1643564 85.9073378,30.2039604 C85.9073378,28.6356436 85.3405127,27.3287129 84.2068625,26.2831683 C83.0732123,25.2376238 81.5238904,24.7148515 79.5588967,24.7148515 L79.5588967,24.7148515 L75.8340461,24.7148515 C75.574926,24.7148515 75.364391,24.6549505 75.202441,24.5351485 C75.040491,24.4153465 74.9595159,24.2138614 74.9595159,23.9306931 C74.9595159,23.8217822 74.9865076,23.7074257 75.040491,23.5876238 C75.0944743,23.4678218 75.1646526,23.3643564 75.251026,23.2772277 C75.4021794,23.2990099 75.5533327,23.309901 75.7044861,23.309901 L75.7044861,23.309901 L76.1579461,23.309901 C78.3388732,23.309901 80.0123568,22.7490099 81.178397,21.6272277 C82.3444372,20.5054455 82.9274573,19.1277228 82.9274573,17.4940594 L82.9274573,17.4940594 L82.9274573,17.1019802 C82.9274573,16.9712871 82.9166606,16.8405941 82.8950673,16.709901 L82.8950673,16.709901 L85.4538777,16.709901 L85.4538777,12.3643564 L79.5912867,12.3643564 C79.1162333,12.1465347 78.5925949,11.9831683 78.0203715,11.8742574 C77.448148,11.7653465 76.8273396,11.7108911 76.1579461,11.7108911 C74.0202058,11.7108911 72.3683155,12.2663366 71.2022753,13.3772277 C70.0362351,14.4881188 69.453215,15.860396 69.453215,17.4940594 C69.453215,18.4089109 69.6367584,19.2529703 70.0038451,20.0262376 C70.3709318,20.799505 70.9107653,21.4584158 71.6233454,22.0029703 C71.0187319,22.4821782 70.5868652,22.9886139 70.3277452,23.5222772 C70.0686251,24.0559406 69.9390651,24.660396 69.9390651,25.3356436 C69.9390651,25.749505 70.0200401,26.1633663 70.1819901,26.5772277 C70.3439402,26.9910891 70.5652719,27.3722772 70.8459852,27.7207921 C70.1765918,28.2217822 69.6529534,28.7990099 69.27507,29.4524752 C68.8971866,30.1059406 68.7082449,30.8356436 68.7082449,31.6415842 C68.7082449,33.4277228 69.4424183,34.7673267 70.9107653,35.660396 C72.3791122,36.5534653 74.4844625,37 77.2268163,37 Z M76.1903362,19.519802 C75.5641294,19.519802 75.0512876,19.3509901 74.6518109,19.0133663 C74.2523342,18.6757426 74.0525958,18.1693069 74.0525958,17.4940594 C74.0525958,16.8405941 74.2523342,16.3450495 74.6518109,16.0074257 C75.0512876,15.669802 75.5641294,15.5009901 76.1903362,15.5009901 C76.8165429,15.5009901 77.334783,15.6643564 77.7450564,15.9910891 C78.1553298,16.3178218 78.3604665,16.8188119 78.3604665,17.4940594 C78.3604665,18.1693069 78.1553298,18.6757426 77.7450564,19.0133663 C77.334783,19.3509901 76.8165429,19.519802 76.1903362,19.519802 Z M77.1620363,32.9158416 C75.8664361,32.9158416 74.9325243,32.7306931 74.3603008,32.360396 C73.7880774,31.990099 73.5019657,31.4891089 73.5019657,30.8574257 C73.5019657,30.4653465 73.5829407,30.1277228 73.7448907,29.8445545 C73.9068408,29.5613861 74.1389691,29.3217822 74.4412759,29.1257426 L74.4412759,29.1257426 L78.9110966,29.1257426 C79.5588967,29.1257426 80.0447468,29.2782178 80.3686469,29.5831683 C80.6925469,29.8881188 80.8544969,30.280198 80.8544969,30.7594059 C80.8544969,31.3693069 80.5629869,31.8811881 79.9799668,32.2950495 C79.3969467,32.7089109 78.4576365,32.9158416 77.1620363,32.9158416 Z M93.07188,28.8316832 L93.07188,18.5722772 C93.1582533,18.4415842 93.2716184,18.2618812 93.4119751,18.0331683 C93.5523317,17.8044554 93.7412734,17.5811881 93.9788001,17.3633663 C94.2163269,17.1455446 94.5024386,16.960396 94.8371353,16.8079208 C95.171832,16.6554455 95.5659104,16.5792079 96.0193705,16.5792079 C96.8399173,16.5792079 97.4661241,16.8405941 97.8979908,17.3633663 C98.3298576,17.8861386 98.5457909,18.5613861 98.5457909,19.3891089 L98.5457909,19.3891089 L98.5457909,28.8316832 L103.728192,28.8316832 L103.728192,19.160396 C103.728192,17.9188119 103.560843,16.829703 103.226147,15.8930693 C102.89145,14.9564356 102.43799,14.1777228 101.865766,13.5569307 C101.293543,12.9361386 100.62415,12.4732673 99.8575861,12.1683168 C99.0910227,11.8633663 98.2758742,11.7108911 97.4121407,11.7108911 C96.4620339,11.7108911 95.6360888,11.8579208 94.9343053,12.1519802 C94.2325219,12.4460396 93.6117134,12.8217822 93.07188,13.2792079 L93.07188,13.2792079 L93.07188,12.3643564 L87.9218691,12.3643564 L87.9218691,28.8316832 L93.07188,28.8316832 Z M119.022625,29.4851485 C121.160366,29.4851485 123.087571,29.0658416 124.804241,28.2272277 C126.520912,27.3886139 127.908284,26.2613861 128.966357,24.8455446 L128.966357,24.8455446 L128.966357,14.5534653 L117.986145,14.5534653 L117.986145,19.8138614 L123.200936,19.8138614 L123.200936,22.6564356 C122.661103,23.070297 122.040294,23.4024752 121.338511,23.6529703 C120.636727,23.9034653 119.864766,24.0287129 119.022625,24.0287129 C117.144005,24.0287129 115.583886,23.4024752 114.34227,22.15 C113.100653,20.8975248 112.479844,19.3128713 112.479844,17.3960396 C112.479844,15.5009901 113.062864,13.9217822 114.228905,12.6584158 C115.394945,11.3950495 116.884885,10.7633663 118.698725,10.7633663 C119.821579,10.7633663 120.809474,11.0138614 121.662411,11.5148515 C122.515348,12.0158416 123.211733,12.6584158 123.751566,13.4425743 L123.751566,13.4425743 L128.318557,9.91386139 C127.260483,8.54158416 125.9109,7.43069307 124.269806,6.58118812 C122.628713,5.73168317 120.771686,5.30693069 118.698725,5.30693069 C116.906478,5.30693069 115.259986,5.63366337 113.759249,6.28712871 C112.258513,6.94059406 110.979107,7.81188119 109.921034,8.9009901 C108.86296,9.99009901 108.037015,11.269802 107.443198,12.740099 C106.849382,14.210396 106.552473,15.7623762 106.552473,17.3960396 C106.552473,19.029703 106.85478,20.5816832 107.459393,22.0519802 C108.064007,23.5222772 108.911545,24.8019802 110.002009,25.8910891 C111.092472,26.980198 112.409666,27.8514851 113.95359,28.5049505 C115.497513,29.1584158 117.187192,29.4851485 119.022625,29.4851485 Z M140.92462,29.4851485 C142.263407,29.4851485 143.48343,29.2564356 144.584691,28.7990099 C145.685951,28.3415842 146.630659,27.7153465 147.418816,26.920297 C148.206973,26.1252475 148.822383,25.1831683 149.265046,24.0940594 C149.70771,23.0049505 149.929042,21.839604 149.929042,20.5980198 C149.929042,19.3564356 149.70771,18.1910891 149.265046,17.1019802 C148.822383,16.0128713 148.206973,15.0707921 147.418816,14.2757426 C146.630659,13.4806931 145.685951,12.8544554 144.584691,12.3970297 C143.48343,11.939604 142.263407,11.7108911 140.92462,11.7108911 C139.585833,11.7108911 138.360411,11.939604 137.248354,12.3970297 C136.136298,12.8544554 135.186191,13.4806931 134.398034,14.2757426 C133.609877,15.0707921 132.994467,16.0128713 132.551804,17.1019802 C132.10914,18.1910891 131.887809,19.3564356 131.887809,20.5980198 C131.887809,21.839604 132.10914,23.0049505 132.551804,24.0940594 C132.994467,25.1831683 133.609877,26.1252475 134.398034,26.920297 C135.186191,27.7153465 136.136298,28.3415842 137.248354,28.7990099 C138.360411,29.2564356 139.585833,29.4851485 140.92462,29.4851485 Z M140.95701,24.6168317 C139.898937,24.6168317 139.01361,24.2519802 138.30103,23.5222772 C137.588449,22.7925743 137.232159,21.8178218 137.232159,20.5980198 C137.232159,19.3782178 137.588449,18.4034653 138.30103,17.6737624 C139.01361,16.9440594 139.898937,16.5792079 140.95701,16.5792079 C141.99349,16.5792079 142.862622,16.9386139 143.564406,17.6574257 C144.266189,18.3762376 144.617081,19.3564356 144.617081,20.5980198 C144.617081,21.7960396 144.266189,22.7653465 143.564406,23.5059406 C142.862622,24.2465347 141.99349,24.6168317 140.95701,24.6168317 Z M160.429754,29.4851485 C162.934581,29.4851485 164.88338,28.75 166.27615,27.279703 C167.668921,25.8094059 168.365306,23.8435644 168.365306,21.3821782 L168.365306,21.3821782 L168.365306,12.3643564 L163.182905,12.3643564 L163.182905,21.6762376 C163.182905,22.5475248 162.961573,23.2554455 162.51891,23.8 C162.076246,24.3445545 161.390658,24.6168317 160.462144,24.6168317 C159.512038,24.6168317 158.815652,24.3445545 158.372989,23.8 C157.930326,23.2554455 157.708994,22.5475248 157.708994,21.6762376 L157.708994,21.6762376 L157.708994,12.3643564 L152.526593,12.3643564 L152.526593,21.3821782 C152.526593,23.8435644 153.212181,25.8094059 154.583358,27.279703 C155.954535,28.75 157.903334,29.4851485 160.429754,29.4851485 Z M182.396529,28.8316832 L188,12.3643564 L182.493699,12.3643564 L179.027968,22.5910891 L175.529848,12.3643564 L170.023547,12.3643564 L175.627018,28.8316832 L182.396529,28.8316832 Z" id="Shadow" fill="url(#linearGradient-1)"></path>
                    <path d="M9.06920154,24.8316832 C10.8614485,24.8316832 12.5079405,24.5267327 14.0086774,23.9168317 C15.5094143,23.3069307 16.7888195,22.4792079 17.846893,21.4336634 C18.9049665,20.3881188 19.7309117,19.1737624 20.3247284,17.7905941 C20.9185452,16.4074257 21.2154536,14.9425743 21.2154536,13.3960396 C21.2154536,11.849505 20.9185452,10.3846535 20.3247284,9.00148515 C19.7309117,7.61831683 18.9049665,6.4039604 17.846893,5.35841584 C16.7888195,4.31287129 15.5094143,3.48514851 14.0086774,2.87524752 C12.5079405,2.26534653 10.8614485,1.96039604 9.06920154,1.96039604 L9.06920154,1.96039604 L0,1.96039604 L0,24.8316832 L9.06920154,24.8316832 Z M9.10159154,19.5712871 L5.76542098,19.5712871 L5.76542098,7.22079208 L9.10159154,7.22079208 C10.8722452,7.22079208 12.3405921,7.80891089 13.5066323,8.98514851 C14.6726725,10.1613861 15.2556926,11.6316832 15.2556926,13.3960396 C15.2556926,15.160396 14.6726725,16.6306931 13.5066323,17.8069307 C12.3405921,18.9831683 10.8722452,19.5712871 9.10159154,19.5712871 L9.10159154,19.5712871 Z M32.3963565,25.4851485 C33.9510767,25.4851485 35.3546436,25.1910891 36.6070572,24.6029703 C37.8594707,24.0148515 38.8743576,23.2089109 39.6517177,22.1851485 L39.6517177,22.1851485 L36.0240371,19.2772277 C35.6569504,19.7564356 35.1657019,20.1376238 34.5502918,20.4207921 C33.9348817,20.7039604 33.2492933,20.8455446 32.4935265,20.8455446 C31.4138596,20.8455446 30.5339312,20.6113861 29.853741,20.1430693 C29.1735509,19.6747525 28.7254892,18.9722772 28.5095558,18.0356436 L28.5095558,18.0356436 L39.0686976,18.0356436 C39.1550709,17.7524752 39.2306476,17.360396 39.2954276,16.8594059 C39.3602076,16.3584158 39.3925977,15.8356436 39.3925977,15.2910891 C39.3925977,13.0693069 38.6908142,11.250495 37.2872473,9.83465347 C35.8836804,8.41881188 34.0266534,7.71089109 31.7161664,7.71089109 C30.3341928,7.71089109 29.1141692,7.95049505 28.0560957,8.42970297 C26.9980222,8.90891089 26.1126954,9.55148515 25.4001153,10.3574257 C24.6875352,11.1633663 24.1477017,12.1108911 23.780615,13.2 C23.4135283,14.2891089 23.2299849,15.4217822 23.2299849,16.5980198 C23.2299849,17.7960396 23.4297233,18.9341584 23.8292,20.0123762 C24.2286768,21.0905941 24.8116969,22.0326733 25.5782603,22.8386139 C26.3448238,23.6445545 27.3003289,24.2871287 28.4447758,24.7663366 C29.5892227,25.2455446 30.9064162,25.4851485 32.3963565,25.4851485 Z M34.3397568,14.2128713 L28.7038958,14.2128713 C28.9414226,13.4069307 29.3139076,12.8351485 29.821351,12.4975248 C30.3287945,12.159901 30.9603996,11.9910891 31.7161664,11.9910891 C32.6014932,11.9910891 33.2546916,12.2252475 33.6757617,12.6935644 C34.0968318,13.1618812 34.3181635,13.6683168 34.3397568,14.2128713 L34.3397568,14.2128713 Z M47.9175201,25.4851485 C48.6948802,25.4851485 49.4560453,25.3653465 50.2010155,25.1257426 C50.9459856,24.8861386 51.6045824,24.5321782 52.1768058,24.0638614 C52.7490292,23.5955446 53.213286,23.0128713 53.569576,22.3158416 C53.9258661,21.6188119 54.1148078,20.8019802 54.1364011,19.8653465 C54.1364011,18.3841584 53.7531194,17.2841584 52.9865559,16.5653465 C52.2199925,15.8465347 51.3832507,15.3019802 50.4763305,14.9316832 C49.5694104,14.5613861 48.7326686,14.2509901 47.9661051,14.000495 C47.1995416,13.75 46.8162599,13.3633663 46.8162599,12.8405941 C46.8162599,12.5574257 46.9242266,12.3287129 47.1401599,12.1544554 C47.3560933,11.980198 47.69079,11.8930693 48.1442501,11.8930693 C48.7272702,11.8930693 49.2617053,12.0782178 49.7475554,12.4485149 C50.2334055,12.8188119 50.6706705,13.2326733 51.0593506,13.690099 L51.0593506,13.690099 L54.4279112,10.5861386 C53.8232977,9.78019802 52.9487676,9.09950495 51.8043207,8.54405941 C50.6598739,7.98861386 49.4398503,7.71089109 48.1442501,7.71089109 C46.3520031,7.71089109 44.8674612,8.21732673 43.6906244,9.23019802 C42.5137875,10.2430693 41.9253691,11.5336634 41.9253691,13.1019802 C41.9253691,14.5831683 42.3086508,15.6831683 43.0752143,16.4019802 C43.8417777,17.1207921 44.6785195,17.6707921 45.5854397,18.0519802 C46.4923598,18.4331683 47.3291016,18.7490099 48.0956651,18.999505 C48.8622286,19.25 49.2455103,19.6584158 49.2455103,20.2247525 C49.2455103,20.5514851 49.1321453,20.8128713 48.9054152,21.0089109 C48.6786852,21.2049505 48.3277935,21.3029703 47.8527401,21.3029703 C47.1185666,21.3029703 46.4707665,21.0905941 45.9093397,20.6658416 C45.347913,20.2410891 44.8512662,19.7455446 44.4193995,19.1792079 L44.4193995,19.1792079 L41.0508389,22.3485149 C41.8713857,23.2851485 42.8322892,24.0420792 43.9335494,24.6193069 C45.0348096,25.1965347 46.3627998,25.4851485 47.9175201,25.4851485 Z M59.6814431,6.56732673 C60.5451765,6.56732673 61.295545,6.23514851 61.9325484,5.57079208 C62.5695519,4.90643564 62.8880536,4.13861386 62.8880536,3.26732673 C62.8880536,2.3960396 62.5695519,1.63366337 61.9325484,0.98019802 C61.295545,0.326732673 60.5451765,0 59.6814431,0 C58.7961162,0 58.0295528,0.326732673 57.3817527,0.98019802 C56.7339526,1.63366337 56.4100525,2.3960396 56.4100525,3.26732673 C56.4100525,4.13861386 56.7339526,4.90643564 57.3817527,5.57079208 C58.0295528,6.23514851 58.7961162,6.56732673 59.6814431,6.56732673 Z M62.2078635,24.8316832 L62.2078635,8.36435644 L57.0578526,8.36435644 L57.0578526,24.8316832 L62.2078635,24.8316832 Z M73.2268163,33 C75.9475768,33 78.0745205,32.3574257 79.6076474,31.0722772 C81.1407743,29.7871287 81.9073378,28.1643564 81.9073378,26.2039604 C81.9073378,24.6356436 81.3405127,23.3287129 80.2068625,22.2831683 C79.0732123,21.2376238 77.5238904,20.7148515 75.5588967,20.7148515 L75.5588967,20.7148515 L71.8340461,20.7148515 C71.574926,20.7148515 71.364391,20.6549505 71.202441,20.5351485 C71.040491,20.4153465 70.9595159,20.2138614 70.9595159,19.9306931 C70.9595159,19.8217822 70.9865076,19.7074257 71.040491,19.5876238 C71.0944743,19.4678218 71.1646526,19.3643564 71.251026,19.2772277 C71.4021794,19.2990099 71.5533327,19.309901 71.7044861,19.309901 L71.7044861,19.309901 L72.1579461,19.309901 C74.3388732,19.309901 76.0123568,18.7490099 77.178397,17.6272277 C78.3444372,16.5054455 78.9274573,15.1277228 78.9274573,13.4940594 L78.9274573,13.4940594 L78.9274573,13.1019802 C78.9274573,12.9712871 78.9166606,12.8405941 78.8950673,12.709901 L78.8950673,12.709901 L81.4538777,12.709901 L81.4538777,8.36435644 L75.5912867,8.36435644 C75.1162333,8.14653465 74.5925949,7.98316832 74.0203715,7.87425743 C73.448148,7.76534653 72.8273396,7.71089109 72.1579461,7.71089109 C70.0202058,7.71089109 68.3683155,8.26633663 67.2022753,9.37722772 C66.0362351,10.4881188 65.453215,11.860396 65.453215,13.4940594 C65.453215,14.4089109 65.6367584,15.2529703 66.0038451,16.0262376 C66.3709318,16.799505 66.9107653,17.4584158 67.6233454,18.0029703 C67.0187319,18.4821782 66.5868652,18.9886139 66.3277452,19.5222772 C66.0686251,20.0559406 65.9390651,20.660396 65.9390651,21.3356436 C65.9390651,21.749505 66.0200401,22.1633663 66.1819901,22.5772277 C66.3439402,22.9910891 66.5652719,23.3722772 66.8459852,23.7207921 C66.1765918,24.2217822 65.6529534,24.7990099 65.27507,25.4524752 C64.8971866,26.1059406 64.7082449,26.8356436 64.7082449,27.6415842 C64.7082449,29.4277228 65.4424183,30.7673267 66.9107653,31.660396 C68.3791122,32.5534653 70.4844625,33 73.2268163,33 Z M72.1903362,15.519802 C71.5641294,15.519802 71.0512876,15.3509901 70.6518109,15.0133663 C70.2523342,14.6757426 70.0525958,14.1693069 70.0525958,13.4940594 C70.0525958,12.8405941 70.2523342,12.3450495 70.6518109,12.0074257 C71.0512876,11.669802 71.5641294,11.5009901 72.1903362,11.5009901 C72.8165429,11.5009901 73.334783,11.6643564 73.7450564,11.9910891 C74.1553298,12.3178218 74.3604665,12.8188119 74.3604665,13.4940594 C74.3604665,14.1693069 74.1553298,14.6757426 73.7450564,15.0133663 C73.334783,15.3509901 72.8165429,15.519802 72.1903362,15.519802 Z M73.1620363,28.9158416 C71.8664361,28.9158416 70.9325243,28.7306931 70.3603008,28.360396 C69.7880774,27.990099 69.5019657,27.4891089 69.5019657,26.8574257 C69.5019657,26.4653465 69.5829407,26.1277228 69.7448907,25.8445545 C69.9068408,25.5613861 70.1389691,25.3217822 70.4412759,25.1257426 L70.4412759,25.1257426 L74.9110966,25.1257426 C75.5588967,25.1257426 76.0447468,25.2782178 76.3686469,25.5831683 C76.6925469,25.8881188 76.8544969,26.280198 76.8544969,26.7594059 C76.8544969,27.3693069 76.5629869,27.8811881 75.9799668,28.2950495 C75.3969467,28.7089109 74.4576365,28.9158416 73.1620363,28.9158416 Z M89.07188,24.8316832 L89.07188,14.5722772 C89.1582533,14.4415842 89.2716184,14.2618812 89.4119751,14.0331683 C89.5523317,13.8044554 89.7412734,13.5811881 89.9788001,13.3633663 C90.2163269,13.1455446 90.5024386,12.960396 90.8371353,12.8079208 C91.171832,12.6554455 91.5659104,12.5792079 92.0193705,12.5792079 C92.8399173,12.5792079 93.4661241,12.8405941 93.8979908,13.3633663 C94.3298576,13.8861386 94.5457909,14.5613861 94.5457909,15.3891089 L94.5457909,15.3891089 L94.5457909,24.8316832 L99.7281918,24.8316832 L99.7281918,15.160396 C99.7281918,13.9188119 99.5608434,12.829703 99.2261467,11.8930693 C98.89145,10.9564356 98.4379899,10.1777228 97.8657665,9.55693069 C97.2935431,8.93613861 96.6241496,8.47326733 95.8575861,8.16831683 C95.0910227,7.86336634 94.2758742,7.71089109 93.4121407,7.71089109 C92.4620339,7.71089109 91.6360888,7.85792079 90.9343053,8.1519802 C90.2325219,8.4460396 89.6117134,8.82178218 89.07188,9.27920792 L89.07188,9.27920792 L89.07188,8.36435644 L83.9218691,8.36435644 L83.9218691,24.8316832 L89.07188,24.8316832 Z M115.022625,25.4851485 C117.160366,25.4851485 119.087571,25.0658416 120.804241,24.2272277 C122.520912,23.3886139 123.908284,22.2613861 124.966357,20.8455446 L124.966357,20.8455446 L124.966357,10.5534653 L113.986145,10.5534653 L113.986145,15.8138614 L119.200936,15.8138614 L119.200936,18.6564356 C118.661103,19.070297 118.040294,19.4024752 117.338511,19.6529703 C116.636727,19.9034653 115.864766,20.0287129 115.022625,20.0287129 C113.144005,20.0287129 111.583886,19.4024752 110.34227,18.15 C109.100653,16.8975248 108.479844,15.3128713 108.479844,13.3960396 C108.479844,11.5009901 109.062864,9.92178218 110.228905,8.65841584 C111.394945,7.3950495 112.884885,6.76336634 114.698725,6.76336634 C115.821579,6.76336634 116.809474,7.01386139 117.662411,7.51485149 C118.515348,8.01584158 119.211733,8.65841584 119.751566,9.44257426 L119.751566,9.44257426 L124.318557,5.91386139 C123.260483,4.54158416 121.9109,3.43069307 120.269806,2.58118812 C118.628713,1.73168317 116.771686,1.30693069 114.698725,1.30693069 C112.906478,1.30693069 111.259986,1.63366337 109.759249,2.28712871 C108.258513,2.94059406 106.979107,3.81188119 105.921034,4.9009901 C104.86296,5.99009901 104.037015,7.26980198 103.443198,8.74009901 C102.849382,10.210396 102.552473,11.7623762 102.552473,13.3960396 C102.552473,15.029703 102.85478,16.5816832 103.459393,18.0519802 C104.064007,19.5222772 104.911545,20.8019802 106.002009,21.8910891 C107.092472,22.980198 108.409666,23.8514851 109.95359,24.5049505 C111.497513,25.1584158 113.187192,25.4851485 115.022625,25.4851485 Z M136.92462,25.4851485 C138.263407,25.4851485 139.48343,25.2564356 140.584691,24.7990099 C141.685951,24.3415842 142.630659,23.7153465 143.418816,22.920297 C144.206973,22.1252475 144.822383,21.1831683 145.265046,20.0940594 C145.70771,19.0049505 145.929042,17.839604 145.929042,16.5980198 C145.929042,15.3564356 145.70771,14.1910891 145.265046,13.1019802 C144.822383,12.0128713 144.206973,11.0707921 143.418816,10.2757426 C142.630659,9.48069307 141.685951,8.85445545 140.584691,8.3970297 C139.48343,7.93960396 138.263407,7.71089109 136.92462,7.71089109 C135.585833,7.71089109 134.360411,7.93960396 133.248354,8.3970297 C132.136298,8.85445545 131.186191,9.48069307 130.398034,10.2757426 C129.609877,11.0707921 128.994467,12.0128713 128.551804,13.1019802 C128.10914,14.1910891 127.887809,15.3564356 127.887809,16.5980198 C127.887809,17.839604 128.10914,19.0049505 128.551804,20.0940594 C128.994467,21.1831683 129.609877,22.1252475 130.398034,22.920297 C131.186191,23.7153465 132.136298,24.3415842 133.248354,24.7990099 C134.360411,25.2564356 135.585833,25.4851485 136.92462,25.4851485 Z M136.95701,20.6168317 C135.898937,20.6168317 135.01361,20.2519802 134.30103,19.5222772 C133.588449,18.7925743 133.232159,17.8178218 133.232159,16.5980198 C133.232159,15.3782178 133.588449,14.4034653 134.30103,13.6737624 C135.01361,12.9440594 135.898937,12.5792079 136.95701,12.5792079 C137.99349,12.5792079 138.862622,12.9386139 139.564406,13.6574257 C140.266189,14.3762376 140.617081,15.3564356 140.617081,16.5980198 C140.617081,17.7960396 140.266189,18.7653465 139.564406,19.5059406 C138.862622,20.2465347 137.99349,20.6168317 136.95701,20.6168317 Z M156.429754,25.4851485 C158.934581,25.4851485 160.88338,24.75 162.27615,23.279703 C163.668921,21.8094059 164.365306,19.8435644 164.365306,17.3821782 L164.365306,17.3821782 L164.365306,8.36435644 L159.182905,8.36435644 L159.182905,17.6762376 C159.182905,18.5475248 158.961573,19.2554455 158.51891,19.8 C158.076246,20.3445545 157.390658,20.6168317 156.462144,20.6168317 C155.512038,20.6168317 154.815652,20.3445545 154.372989,19.8 C153.930326,19.2554455 153.708994,18.5475248 153.708994,17.6762376 L153.708994,17.6762376 L153.708994,8.36435644 L148.526593,8.36435644 L148.526593,17.3821782 C148.526593,19.8435644 149.212181,21.8094059 150.583358,23.279703 C151.954535,24.75 153.903334,25.4851485 156.429754,25.4851485 Z M178.396529,24.8316832 L184,8.36435644 L178.493699,8.36435644 L175.027968,18.5910891 L171.529848,8.36435644 L166.023547,8.36435644 L171.627018,24.8316832 L178.396529,24.8316832 Z" id="Name" fill="var(--text-title-grey)"></path>
                </g>
            </g>
        </g>
    </g>
</svg>
