<?xml version="1.0" encoding="UTF-8"?>
<svg width="287px" height="54px" viewBox="0 0 287 54" version="1.1" xmlns="http://www.w3.org/2000/svg" xmlns:xlink="http://www.w3.org/1999/xlink">
    <defs>
        <linearGradient x1="20%" y1="50%" x2="80%" y2="50%" id="linearGradient-1">
            <stop stop-color="#FEE9E6" offset="0%"></stop>
            <stop stop-color="#FCEEAC" offset="100%"></stop>
        </linearGradient>
    </defs>
    <g id="Site" stroke="none" stroke-width="1" fill="none" fill-rule="evenodd">
        <g id="Desktop-HD-Copy-3" transform="translate(-163.000000, -23.000000)">
            <g id="Group-11" transform="translate(-80.000000, 0.000000)">
                <g id="Group-Copy" transform="translate(243.000000, 23.000000)">
                    <path d="M2.93,50 L2.93,46.038 L4.176,46.038 C6.332,46.038 7.648,44.932 7.648,43.126 C7.648,41.306 6.332,40.2 4.176,40.2 L0.942,40.2 L0.942,50 L2.93,50 Z M4.26,44.386 L2.93,44.386 L2.93,41.852 L4.26,41.852 C5.1,41.852 5.604,42.356 5.604,43.098 C5.604,43.896 5.1,44.386 4.26,44.386 Z M10.756,50.21 C11.582,50.21 12.422,49.86 12.87,49.314 L12.87,50 L14.648,50 L14.648,45.436 C14.648,43.882 13.598,42.664 11.554,42.664 C10.266,42.664 9.23,43.196 8.6,44.064 L9.902,45.058 C10.28,44.54 10.812,44.218 11.498,44.218 C12.31,44.218 12.87,44.694 12.87,45.436 L12.87,45.618 L10.714,45.982 C9.202,46.234 8.376,47.032 8.376,48.096 C8.376,49.398 9.342,50.21 10.756,50.21 Z M11.12,48.796 C10.518,48.796 10.14,48.488 10.14,48.012 C10.14,47.578 10.448,47.27 11.19,47.144 L12.87,46.864 L12.87,47.858 C12.52,48.418 11.932,48.796 11.12,48.796 Z M18.456,50 L18.456,45.478 C18.722,45.03 19.282,44.554 20.15,44.554 C20.472,44.554 20.71,44.596 20.934,44.652 L20.934,42.902 C20.766,42.846 20.556,42.804 20.318,42.804 C19.52,42.804 18.918,43.168 18.456,43.644 L18.456,42.944 L16.678,42.944 L16.678,50 L18.456,50 Z M27.92,50 L27.92,39.5 L26.142,39.5 L26.142,50 L27.92,50 Z M33.464,50.28 C34.794,50.28 35.886,49.734 36.544,48.852 L35.27,47.844 C34.892,48.348 34.22,48.684 33.45,48.684 C32.344,48.684 31.532,48.152 31.364,46.836 L36.306,46.836 C36.362,46.598 36.418,46.22 36.418,45.828 C36.418,43.98 35.13,42.664 33.17,42.664 C30.86,42.664 29.544,44.386 29.544,46.472 C29.544,48.53 30.958,50.28 33.464,50.28 Z M34.668,45.548 L31.42,45.548 C31.616,44.624 32.218,44.12 33.128,44.12 C34.108,44.12 34.64,44.834 34.668,45.548 Z M43.712,53.444 L43.712,49.426 C44.258,49.972 44.944,50.28 45.91,50.28 C48.15,50.28 49.494,48.53 49.494,46.472 C49.494,44.414 48.15,42.664 45.91,42.664 C44.944,42.664 44.258,42.972 43.712,43.518 L43.712,42.944 L41.934,42.944 L41.934,53.444 L43.712,53.444 Z M45.658,48.6 C44.846,48.6 44.188,48.25 43.712,47.578 L43.712,45.366 C44.16,44.708 44.832,44.344 45.658,44.344 C46.862,44.344 47.646,45.24 47.646,46.472 C47.646,47.704 46.862,48.6 45.658,48.6 Z M53.526,41.824 L54.548,40.298 L55.57,41.824 L57.124,41.824 L55.682,39.5 L53.414,39.5 L51.972,41.824 L53.526,41.824 Z M54.548,50.28 C56.844,50.28 58.412,48.586 58.412,46.472 C58.412,44.358 56.844,42.664 54.548,42.664 C52.252,42.664 50.684,44.358 50.684,46.472 C50.684,48.586 52.252,50.28 54.548,50.28 Z M54.576,48.6 C53.4,48.6 52.532,47.704 52.532,46.472 C52.532,45.24 53.4,44.344 54.576,44.344 C55.71,44.344 56.564,45.24 56.564,46.472 C56.564,47.69 55.71,48.6 54.576,48.6 Z M61.814,50 L61.814,39.5 L60.036,39.5 L60.036,50 L61.814,50 Z M67.358,50.28 C68.688,50.28 69.78,49.734 70.438,48.852 L69.164,47.844 C68.786,48.348 68.114,48.684 67.344,48.684 C66.238,48.684 65.426,48.152 65.258,46.836 L70.2,46.836 C70.256,46.598 70.312,46.22 70.312,45.828 C70.312,43.98 69.024,42.664 67.064,42.664 C64.754,42.664 63.438,44.386 63.438,46.472 C63.438,48.53 64.852,50.28 67.358,50.28 Z M68.562,45.548 L65.314,45.548 C65.51,44.624 66.112,44.12 67.022,44.12 C68.002,44.12 68.534,44.834 68.562,45.548 Z M78.908,50.28 C79.86,50.28 80.546,49.986 81.092,49.44 L81.092,50 L82.884,50 L82.884,39.5 L81.092,39.5 L81.092,43.504 C80.546,42.958 79.86,42.664 78.908,42.664 C76.682,42.664 75.324,44.414 75.324,46.472 C75.324,48.53 76.682,50.28 78.908,50.28 Z M79.16,48.6 C77.956,48.6 77.186,47.704 77.186,46.472 C77.186,45.24 77.956,44.344 79.16,44.344 C79.958,44.344 80.616,44.68 81.092,45.324 L81.092,47.62 C80.616,48.264 79.958,48.6 79.16,48.6 Z M88.428,50.28 C89.758,50.28 90.85,49.734 91.508,48.852 L90.234,47.844 C89.856,48.348 89.184,48.684 88.414,48.684 C87.308,48.684 86.496,48.152 86.328,46.836 L91.27,46.836 C91.326,46.598 91.382,46.22 91.382,45.828 C91.382,43.98 90.094,42.664 88.134,42.664 C85.824,42.664 84.508,44.386 84.508,46.472 C84.508,48.53 85.922,50.28 88.428,50.28 Z M89.632,45.548 L86.384,45.548 C86.58,44.624 87.182,44.12 88.092,44.12 C89.072,44.12 89.604,44.834 89.632,45.548 Z M95.232,50.28 C96.562,50.28 97.752,49.468 97.78,47.984 C97.78,45.548 94.406,45.968 94.406,44.764 C94.406,44.4 94.672,44.092 95.232,44.092 C95.778,44.092 96.24,44.456 96.604,44.904 L97.78,43.868 C97.276,43.182 96.296,42.664 95.218,42.664 C93.748,42.664 92.698,43.602 92.698,44.848 C92.698,47.326 96.072,46.864 96.072,48.096 C96.072,48.516 95.778,48.852 95.204,48.852 C94.532,48.852 94.014,48.46 93.58,47.914 L92.404,48.978 C93.076,49.776 93.972,50.28 95.232,50.28 Z M100.314,41.712 C100.944,41.712 101.462,41.18 101.462,40.55 C101.462,39.92 100.944,39.388 100.314,39.388 C99.684,39.388 99.152,39.92 99.152,40.55 C99.152,41.18 99.684,41.712 100.314,41.712 Z M101.196,50 L101.196,42.944 L99.418,42.944 L99.418,50 L101.196,50 Z M106.208,53.5 C108.406,53.5 109.904,52.296 109.904,50.728 C109.904,49.412 108.938,48.46 107.16,48.46 L105.382,48.46 C105.06,48.46 104.906,48.32 104.906,48.04 C104.906,47.886 104.99,47.732 105.144,47.592 C105.354,47.634 105.578,47.648 105.816,47.648 C107.636,47.648 108.672,46.528 108.672,45.142 C108.672,44.904 108.644,44.68 108.574,44.456 L109.82,44.456 L109.82,42.944 L107.244,42.944 C106.838,42.762 106.362,42.664 105.816,42.664 C104.052,42.664 102.988,43.77 102.988,45.142 C102.988,45.926 103.324,46.626 103.94,47.088 C103.408,47.48 103.17,47.928 103.17,48.488 C103.17,48.852 103.324,49.23 103.604,49.51 C102.974,49.972 102.624,50.532 102.624,51.232 C102.624,52.716 103.954,53.5 106.208,53.5 Z M105.844,46.304 C105.074,46.304 104.612,45.842 104.612,45.142 C104.612,44.456 105.074,43.994 105.844,43.994 C106.586,43.994 107.062,44.442 107.062,45.142 C107.062,45.842 106.586,46.304 105.844,46.304 Z M106.194,52.072 C104.948,52.072 104.304,51.652 104.304,50.98 C104.304,50.546 104.514,50.238 104.934,49.986 L106.964,49.986 C107.818,49.986 108.14,50.364 108.14,50.896 C108.14,51.596 107.482,52.072 106.194,52.072 Z M112.914,50 L112.914,45.394 C113.18,44.946 113.656,44.344 114.552,44.344 C115.42,44.344 115.952,44.932 115.952,45.87 L115.952,50 L117.744,50 L117.744,45.8 C117.744,43.714 116.526,42.664 115,42.664 C114.062,42.664 113.404,43.028 112.914,43.504 L112.914,42.944 L111.136,42.944 L111.136,50 L112.914,50 Z M126.62,50.28 C127.572,50.28 128.258,49.986 128.804,49.44 L128.804,50 L130.596,50 L130.596,39.5 L128.804,39.5 L128.804,43.504 C128.258,42.958 127.572,42.664 126.62,42.664 C124.394,42.664 123.036,44.414 123.036,46.472 C123.036,48.53 124.394,50.28 126.62,50.28 Z M126.872,48.6 C125.668,48.6 124.898,47.704 124.898,46.472 C124.898,45.24 125.668,44.344 126.872,44.344 C127.67,44.344 128.328,44.68 128.804,45.324 L128.804,47.62 C128.328,48.264 127.67,48.6 126.872,48.6 Z M136.14,50.28 C137.47,50.28 138.562,49.734 139.22,48.852 L137.946,47.844 C137.568,48.348 136.896,48.684 136.126,48.684 C135.02,48.684 134.208,48.152 134.04,46.836 L138.982,46.836 C139.038,46.598 139.094,46.22 139.094,45.828 C139.094,43.98 137.806,42.664 135.846,42.664 C133.536,42.664 132.22,44.386 132.22,46.472 C132.22,48.53 133.634,50.28 136.14,50.28 Z M137.344,45.548 L134.096,45.548 C134.292,44.624 134.894,44.12 135.804,44.12 C136.784,44.12 137.316,44.834 137.344,45.548 Z M142.944,50.28 C144.274,50.28 145.464,49.468 145.492,47.984 C145.492,45.548 142.118,45.968 142.118,44.764 C142.118,44.4 142.384,44.092 142.944,44.092 C143.49,44.092 143.952,44.456 144.316,44.904 L145.492,43.868 C144.988,43.182 144.008,42.664 142.93,42.664 C141.46,42.664 140.41,43.602 140.41,44.848 C140.41,47.326 143.784,46.864 143.784,48.096 C143.784,48.516 143.49,48.852 142.916,48.852 C142.244,48.852 141.726,48.46 141.292,47.914 L140.116,48.978 C140.788,49.776 141.684,50.28 142.944,50.28 Z M153.122,50.28 C154.452,50.28 155.642,49.468 155.67,47.984 C155.67,45.548 152.296,45.968 152.296,44.764 C152.296,44.4 152.562,44.092 153.122,44.092 C153.668,44.092 154.13,44.456 154.494,44.904 L155.67,43.868 C155.166,43.182 154.186,42.664 153.108,42.664 C151.638,42.664 150.588,43.602 150.588,44.848 C150.588,47.326 153.962,46.864 153.962,48.096 C153.962,48.516 153.668,48.852 153.094,48.852 C152.422,48.852 151.904,48.46 151.47,47.914 L150.294,48.978 C150.966,49.776 151.862,50.28 153.122,50.28 Z M160.696,50.28 C162.026,50.28 163.118,49.734 163.776,48.852 L162.502,47.844 C162.124,48.348 161.452,48.684 160.682,48.684 C159.576,48.684 158.764,48.152 158.596,46.836 L163.538,46.836 C163.594,46.598 163.65,46.22 163.65,45.828 C163.65,43.98 162.362,42.664 160.402,42.664 C158.092,42.664 156.776,44.386 156.776,46.472 C156.776,48.53 158.19,50.28 160.696,50.28 Z M161.9,45.548 L158.652,45.548 C158.848,44.624 159.45,44.12 160.36,44.12 C161.34,44.12 161.872,44.834 161.9,45.548 Z M167.164,50 L167.164,45.478 C167.43,45.03 167.99,44.554 168.858,44.554 C169.18,44.554 169.418,44.596 169.642,44.652 L169.642,42.902 C169.474,42.846 169.264,42.804 169.026,42.804 C168.228,42.804 167.626,43.168 167.164,43.644 L167.164,42.944 L165.386,42.944 L165.386,50 L167.164,50 Z M175.312,50 L177.888,42.944 L175.97,42.944 L174.15,47.984 L172.316,42.944 L170.412,42.944 L172.974,50 L175.312,50 Z M179.904,41.712 C180.534,41.712 181.052,41.18 181.052,40.55 C181.052,39.92 180.534,39.388 179.904,39.388 C179.274,39.388 178.742,39.92 178.742,40.55 C178.742,41.18 179.274,41.712 179.904,41.712 Z M180.786,50 L180.786,42.944 L179.008,42.944 L179.008,50 L180.786,50 Z M186.302,50.28 C187.59,50.28 188.626,49.72 189.284,48.852 L187.898,47.788 C187.562,48.278 187.002,48.6 186.302,48.6 C185.112,48.6 184.258,47.718 184.258,46.472 C184.258,45.24 185.112,44.344 186.274,44.344 C187.002,44.344 187.562,44.666 187.898,45.156 L189.284,44.092 C188.626,43.224 187.59,42.664 186.302,42.664 C183.866,42.664 182.41,44.414 182.41,46.472 C182.41,48.53 183.866,50.28 186.302,50.28 Z M193.75,50.28 C195.08,50.28 196.172,49.734 196.83,48.852 L195.556,47.844 C195.178,48.348 194.506,48.684 193.736,48.684 C192.63,48.684 191.818,48.152 191.65,46.836 L196.592,46.836 C196.648,46.598 196.704,46.22 196.704,45.828 C196.704,43.98 195.416,42.664 193.456,42.664 C191.146,42.664 189.83,44.386 189.83,46.472 C189.83,48.53 191.244,50.28 193.75,50.28 Z M194.954,45.548 L191.706,45.548 C191.902,44.624 192.504,44.12 193.414,44.12 C194.394,44.12 194.926,44.834 194.954,45.548 Z M200.554,50.28 C201.884,50.28 203.074,49.468 203.102,47.984 C203.102,45.548 199.728,45.968 199.728,44.764 C199.728,44.4 199.994,44.092 200.554,44.092 C201.1,44.092 201.562,44.456 201.926,44.904 L203.102,43.868 C202.598,43.182 201.618,42.664 200.54,42.664 C199.07,42.664 198.02,43.602 198.02,44.848 C198.02,47.326 201.394,46.864 201.394,48.096 C201.394,48.516 201.1,48.852 200.526,48.852 C199.854,48.852 199.336,48.46 198.902,47.914 L197.726,48.978 C198.398,49.776 199.294,50.28 200.554,50.28 Z M210.298,50 L210.298,45.394 C210.564,44.946 211.04,44.344 211.936,44.344 C212.804,44.344 213.336,44.932 213.336,45.87 L213.336,50 L215.128,50 L215.128,45.8 C215.128,43.714 213.91,42.664 212.384,42.664 C211.446,42.664 210.788,43.028 210.298,43.504 L210.298,42.944 L208.52,42.944 L208.52,50 L210.298,50 Z M220.28,50.28 C222.352,50.28 223.584,48.978 223.584,46.864 L223.584,42.944 L221.792,42.944 L221.792,46.948 C221.792,47.97 221.26,48.6 220.294,48.6 C219.314,48.6 218.782,47.97 218.782,46.948 L218.782,42.944 L216.99,42.944 L216.99,46.864 C216.99,48.978 218.208,50.28 220.28,50.28 Z M227.336,50 L227.336,45.394 C227.602,44.946 228.022,44.344 228.834,44.344 C229.632,44.344 230.094,44.876 230.094,45.73 L230.094,50 L231.886,50 L231.886,45.66 C231.886,45.548 231.886,45.45 231.872,45.352 C232.152,44.876 232.572,44.344 233.342,44.344 C234.14,44.344 234.602,44.876 234.602,45.73 L234.602,50 L236.394,50 L236.394,45.66 C236.394,43.672 235.246,42.664 233.79,42.664 C232.6,42.664 231.928,43.196 231.424,43.812 C230.962,43.056 230.178,42.664 229.282,42.664 C228.414,42.664 227.812,43.014 227.336,43.476 L227.336,42.944 L225.558,42.944 L225.558,50 L227.336,50 Z M242.526,41.824 L244.206,39.5 L242.274,39.5 L240.818,41.824 L242.526,41.824 Z M241.84,50.28 C243.17,50.28 244.262,49.734 244.92,48.852 L243.646,47.844 C243.268,48.348 242.596,48.684 241.826,48.684 C240.72,48.684 239.908,48.152 239.74,46.836 L244.682,46.836 C244.738,46.598 244.794,46.22 244.794,45.828 C244.794,43.98 243.506,42.664 241.546,42.664 C239.236,42.664 237.92,44.386 237.92,46.472 C237.92,48.53 239.334,50.28 241.84,50.28 Z M243.044,45.548 L239.796,45.548 C239.992,44.624 240.594,44.12 241.504,44.12 C242.484,44.12 243.016,44.834 243.044,45.548 Z M248.308,50 L248.308,45.478 C248.574,45.03 249.134,44.554 250.002,44.554 C250.324,44.554 250.562,44.596 250.786,44.652 L250.786,42.902 C250.618,42.846 250.408,42.804 250.17,42.804 C249.372,42.804 248.77,43.168 248.308,43.644 L248.308,42.944 L246.53,42.944 L246.53,50 L248.308,50 Z M253.11,41.712 C253.74,41.712 254.258,41.18 254.258,40.55 C254.258,39.92 253.74,39.388 253.11,39.388 C252.48,39.388 251.948,39.92 251.948,40.55 C251.948,41.18 252.48,41.712 253.11,41.712 Z M253.992,50 L253.992,42.944 L252.214,42.944 L252.214,50 L253.992,50 Z M263.176,53.444 L263.176,42.944 L261.384,42.944 L261.384,43.518 C260.838,42.972 260.152,42.664 259.2,42.664 C256.96,42.664 255.616,44.414 255.616,46.472 C255.616,48.53 256.96,50.28 259.2,50.28 C260.152,50.28 260.838,49.972 261.384,49.426 L261.384,53.444 L263.176,53.444 Z M259.438,48.6 C258.234,48.6 257.464,47.704 257.464,46.472 C257.464,45.24 258.234,44.344 259.438,44.344 C260.236,44.344 260.908,44.694 261.384,45.352 L261.384,47.592 C260.95,48.236 260.264,48.6 259.438,48.6 Z M268.44,50.28 C270.512,50.28 271.744,48.978 271.744,46.864 L271.744,42.944 L269.952,42.944 L269.952,46.948 C269.952,47.97 269.42,48.6 268.454,48.6 C267.474,48.6 266.942,47.97 266.942,46.948 L266.942,42.944 L265.15,42.944 L265.15,46.864 C265.15,48.978 266.368,50.28 268.44,50.28 Z M277.134,50.28 C278.464,50.28 279.556,49.734 280.214,48.852 L278.94,47.844 C278.562,48.348 277.89,48.684 277.12,48.684 C276.014,48.684 275.202,48.152 275.034,46.836 L279.976,46.836 C280.032,46.598 280.088,46.22 280.088,45.828 C280.088,43.98 278.8,42.664 276.84,42.664 C274.53,42.664 273.214,44.386 273.214,46.472 C273.214,48.53 274.628,50.28 277.134,50.28 Z M278.338,45.548 L275.09,45.548 C275.286,44.624 275.888,44.12 276.798,44.12 C277.778,44.12 278.31,44.834 278.338,45.548 Z M283.938,50.28 C285.268,50.28 286.458,49.468 286.486,47.984 C286.486,45.548 283.112,45.968 283.112,44.764 C283.112,44.4 283.378,44.092 283.938,44.092 C284.484,44.092 284.946,44.456 285.31,44.904 L286.486,43.868 C285.982,43.182 285.002,42.664 283.924,42.664 C282.454,42.664 281.404,43.602 281.404,44.848 C281.404,47.326 284.778,46.864 284.778,48.096 C284.778,48.516 284.484,48.852 283.91,48.852 C283.238,48.852 282.72,48.46 282.286,47.914 L281.11,48.978 C281.782,49.776 282.678,50.28 283.938,50.28 Z" id="Description" fill="#3A3A3A" fill-rule="nonzero"></path>
                    <path d="M13.0692015,28.8316832 C14.8614485,28.8316832 16.5079405,28.5267327 18.0086774,27.9168317 C19.5094143,27.3069307 20.7888195,26.4792079 21.846893,25.4336634 C22.9049665,24.3881188 23.7309117,23.1737624 24.3247284,21.7905941 C24.9185452,20.4074257 25.2154536,18.9425743 25.2154536,17.3960396 C25.2154536,15.849505 24.9185452,14.3846535 24.3247284,13.0014851 C23.7309117,11.6183168 22.9049665,10.4039604 21.846893,9.35841584 C20.7888195,8.31287129 19.5094143,7.48514851 18.0086774,6.87524752 C16.5079405,6.26534653 14.8614485,5.96039604 13.0692015,5.96039604 L13.0692015,5.96039604 L4,5.96039604 L4,28.8316832 L13.0692015,28.8316832 Z M13.1015915,23.5712871 L9.76542098,23.5712871 L9.76542098,11.2207921 L13.1015915,11.2207921 C14.8722452,11.2207921 16.3405921,11.8089109 17.5066323,12.9851485 C18.6726725,14.1613861 19.2556926,15.6316832 19.2556926,17.3960396 C19.2556926,19.160396 18.6726725,20.6306931 17.5066323,21.8069307 C16.3405921,22.9831683 14.8722452,23.5712871 13.1015915,23.5712871 L13.1015915,23.5712871 Z M36.3963565,29.4851485 C37.9510767,29.4851485 39.3546436,29.1910891 40.6070572,28.6029703 C41.8594707,28.0148515 42.8743576,27.2089109 43.6517177,26.1851485 L43.6517177,26.1851485 L40.0240371,23.2772277 C39.6569504,23.7564356 39.1657019,24.1376238 38.5502918,24.4207921 C37.9348817,24.7039604 37.2492933,24.8455446 36.4935265,24.8455446 C35.4138596,24.8455446 34.5339312,24.6113861 33.853741,24.1430693 C33.1735509,23.6747525 32.7254892,22.9722772 32.5095558,22.0356436 L32.5095558,22.0356436 L43.0686976,22.0356436 C43.1550709,21.7524752 43.2306476,21.360396 43.2954276,20.8594059 C43.3602076,20.3584158 43.3925977,19.8356436 43.3925977,19.2910891 C43.3925977,17.0693069 42.6908142,15.250495 41.2872473,13.8346535 C39.8836804,12.4188119 38.0266534,11.7108911 35.7161664,11.7108911 C34.3341928,11.7108911 33.1141692,11.950495 32.0560957,12.429703 C30.9980222,12.9089109 30.1126954,13.5514851 29.4001153,14.3574257 C28.6875352,15.1633663 28.1477017,16.1108911 27.780615,17.2 C27.4135283,18.2891089 27.2299849,19.4217822 27.2299849,20.5980198 C27.2299849,21.7960396 27.4297233,22.9341584 27.8292,24.0123762 C28.2286768,25.0905941 28.8116969,26.0326733 29.5782603,26.8386139 C30.3448238,27.6445545 31.3003289,28.2871287 32.4447758,28.7663366 C33.5892227,29.2455446 34.9064162,29.4851485 36.3963565,29.4851485 Z M38.3397568,18.2128713 L32.7038958,18.2128713 C32.9414226,17.4069307 33.3139076,16.8351485 33.821351,16.4975248 C34.3287945,16.159901 34.9603996,15.9910891 35.7161664,15.9910891 C36.6014932,15.9910891 37.2546916,16.2252475 37.6757617,16.6935644 C38.0968318,17.1618812 38.3181635,17.6683168 38.3397568,18.2128713 L38.3397568,18.2128713 Z M51.9175201,29.4851485 C52.6948802,29.4851485 53.4560453,29.3653465 54.2010155,29.1257426 C54.9459856,28.8861386 55.6045824,28.5321782 56.1768058,28.0638614 C56.7490292,27.5955446 57.213286,27.0128713 57.569576,26.3158416 C57.9258661,25.6188119 58.1148078,24.8019802 58.1364011,23.8653465 C58.1364011,22.3841584 57.7531194,21.2841584 56.9865559,20.5653465 C56.2199925,19.8465347 55.3832507,19.3019802 54.4763305,18.9316832 C53.5694104,18.5613861 52.7326686,18.2509901 51.9661051,18.000495 C51.1995416,17.75 50.8162599,17.3633663 50.8162599,16.8405941 C50.8162599,16.5574257 50.9242266,16.3287129 51.1401599,16.1544554 C51.3560933,15.980198 51.69079,15.8930693 52.1442501,15.8930693 C52.7272702,15.8930693 53.2617053,16.0782178 53.7475554,16.4485149 C54.2334055,16.8188119 54.6706705,17.2326733 55.0593506,17.690099 L55.0593506,17.690099 L58.4279112,14.5861386 C57.8232977,13.780198 56.9487676,13.099505 55.8043207,12.5440594 C54.6598739,11.9886139 53.4398503,11.7108911 52.1442501,11.7108911 C50.3520031,11.7108911 48.8674612,12.2173267 47.6906244,13.230198 C46.5137875,14.2430693 45.9253691,15.5336634 45.9253691,17.1019802 C45.9253691,18.5831683 46.3086508,19.6831683 47.0752143,20.4019802 C47.8417777,21.1207921 48.6785195,21.6707921 49.5854397,22.0519802 C50.4923598,22.4331683 51.3291016,22.7490099 52.0956651,22.999505 C52.8622286,23.25 53.2455103,23.6584158 53.2455103,24.2247525 C53.2455103,24.5514851 53.1321453,24.8128713 52.9054152,25.0089109 C52.6786852,25.2049505 52.3277935,25.3029703 51.8527401,25.3029703 C51.1185666,25.3029703 50.4707665,25.0905941 49.9093397,24.6658416 C49.347913,24.2410891 48.8512662,23.7455446 48.4193995,23.1792079 L48.4193995,23.1792079 L45.0508389,26.3485149 C45.8713857,27.2851485 46.8322892,28.0420792 47.9335494,28.6193069 C49.0348096,29.1965347 50.3627998,29.4851485 51.9175201,29.4851485 Z M63.6814431,10.5673267 C64.5451765,10.5673267 65.295545,10.2351485 65.9325484,9.57079208 C66.5695519,8.90643564 66.8880536,8.13861386 66.8880536,7.26732673 C66.8880536,6.3960396 66.5695519,5.63366337 65.9325484,4.98019802 C65.295545,4.32673267 64.5451765,4 63.6814431,4 C62.7961162,4 62.0295528,4.32673267 61.3817527,4.98019802 C60.7339526,5.63366337 60.4100525,6.3960396 60.4100525,7.26732673 C60.4100525,8.13861386 60.7339526,8.90643564 61.3817527,9.57079208 C62.0295528,10.2351485 62.7961162,10.5673267 63.6814431,10.5673267 Z M66.2078635,28.8316832 L66.2078635,12.3643564 L61.0578526,12.3643564 L61.0578526,28.8316832 L66.2078635,28.8316832 Z M77.2268163,37 C79.9475768,37 82.0745205,36.3574257 83.6076474,35.0722772 C85.1407743,33.7871287 85.9073378,32.1643564 85.9073378,30.2039604 C85.9073378,28.6356436 85.3405127,27.3287129 84.2068625,26.2831683 C83.0732123,25.2376238 81.5238904,24.7148515 79.5588967,24.7148515 L79.5588967,24.7148515 L75.8340461,24.7148515 C75.574926,24.7148515 75.364391,24.6549505 75.202441,24.5351485 C75.040491,24.4153465 74.9595159,24.2138614 74.9595159,23.9306931 C74.9595159,23.8217822 74.9865076,23.7074257 75.040491,23.5876238 C75.0944743,23.4678218 75.1646526,23.3643564 75.251026,23.2772277 C75.4021794,23.2990099 75.5533327,23.309901 75.7044861,23.309901 L75.7044861,23.309901 L76.1579461,23.309901 C78.3388732,23.309901 80.0123568,22.7490099 81.178397,21.6272277 C82.3444372,20.5054455 82.9274573,19.1277228 82.9274573,17.4940594 L82.9274573,17.4940594 L82.9274573,17.1019802 C82.9274573,16.9712871 82.9166606,16.8405941 82.8950673,16.709901 L82.8950673,16.709901 L85.4538777,16.709901 L85.4538777,12.3643564 L79.5912867,12.3643564 C79.1162333,12.1465347 78.5925949,11.9831683 78.0203715,11.8742574 C77.448148,11.7653465 76.8273396,11.7108911 76.1579461,11.7108911 C74.0202058,11.7108911 72.3683155,12.2663366 71.2022753,13.3772277 C70.0362351,14.4881188 69.453215,15.860396 69.453215,17.4940594 C69.453215,18.4089109 69.6367584,19.2529703 70.0038451,20.0262376 C70.3709318,20.799505 70.9107653,21.4584158 71.6233454,22.0029703 C71.0187319,22.4821782 70.5868652,22.9886139 70.3277452,23.5222772 C70.0686251,24.0559406 69.9390651,24.660396 69.9390651,25.3356436 C69.9390651,25.749505 70.0200401,26.1633663 70.1819901,26.5772277 C70.3439402,26.9910891 70.5652719,27.3722772 70.8459852,27.7207921 C70.1765918,28.2217822 69.6529534,28.7990099 69.27507,29.4524752 C68.8971866,30.1059406 68.7082449,30.8356436 68.7082449,31.6415842 C68.7082449,33.4277228 69.4424183,34.7673267 70.9107653,35.660396 C72.3791122,36.5534653 74.4844625,37 77.2268163,37 Z M76.1903362,19.519802 C75.5641294,19.519802 75.0512876,19.3509901 74.6518109,19.0133663 C74.2523342,18.6757426 74.0525958,18.1693069 74.0525958,17.4940594 C74.0525958,16.8405941 74.2523342,16.3450495 74.6518109,16.0074257 C75.0512876,15.669802 75.5641294,15.5009901 76.1903362,15.5009901 C76.8165429,15.5009901 77.334783,15.6643564 77.7450564,15.9910891 C78.1553298,16.3178218 78.3604665,16.8188119 78.3604665,17.4940594 C78.3604665,18.1693069 78.1553298,18.6757426 77.7450564,19.0133663 C77.334783,19.3509901 76.8165429,19.519802 76.1903362,19.519802 Z M77.1620363,32.9158416 C75.8664361,32.9158416 74.9325243,32.7306931 74.3603008,32.360396 C73.7880774,31.990099 73.5019657,31.4891089 73.5019657,30.8574257 C73.5019657,30.4653465 73.5829407,30.1277228 73.7448907,29.8445545 C73.9068408,29.5613861 74.1389691,29.3217822 74.4412759,29.1257426 L74.4412759,29.1257426 L78.9110966,29.1257426 C79.5588967,29.1257426 80.0447468,29.2782178 80.3686469,29.5831683 C80.6925469,29.8881188 80.8544969,30.280198 80.8544969,30.7594059 C80.8544969,31.3693069 80.5629869,31.8811881 79.9799668,32.2950495 C79.3969467,32.7089109 78.4576365,32.9158416 77.1620363,32.9158416 Z M93.07188,28.8316832 L93.07188,18.5722772 C93.1582533,18.4415842 93.2716184,18.2618812 93.4119751,18.0331683 C93.5523317,17.8044554 93.7412734,17.5811881 93.9788001,17.3633663 C94.2163269,17.1455446 94.5024386,16.960396 94.8371353,16.8079208 C95.171832,16.6554455 95.5659104,16.5792079 96.0193705,16.5792079 C96.8399173,16.5792079 97.4661241,16.8405941 97.8979908,17.3633663 C98.3298576,17.8861386 98.5457909,18.5613861 98.5457909,19.3891089 L98.5457909,19.3891089 L98.5457909,28.8316832 L103.728192,28.8316832 L103.728192,19.160396 C103.728192,17.9188119 103.560843,16.829703 103.226147,15.8930693 C102.89145,14.9564356 102.43799,14.1777228 101.865766,13.5569307 C101.293543,12.9361386 100.62415,12.4732673 99.8575861,12.1683168 C99.0910227,11.8633663 98.2758742,11.7108911 97.4121407,11.7108911 C96.4620339,11.7108911 95.6360888,11.8579208 94.9343053,12.1519802 C94.2325219,12.4460396 93.6117134,12.8217822 93.07188,13.2792079 L93.07188,13.2792079 L93.07188,12.3643564 L87.9218691,12.3643564 L87.9218691,28.8316832 L93.07188,28.8316832 Z M119.022625,29.4851485 C121.160366,29.4851485 123.087571,29.0658416 124.804241,28.2272277 C126.520912,27.3886139 127.908284,26.2613861 128.966357,24.8455446 L128.966357,24.8455446 L128.966357,14.5534653 L117.986145,14.5534653 L117.986145,19.8138614 L123.200936,19.8138614 L123.200936,22.6564356 C122.661103,23.070297 122.040294,23.4024752 121.338511,23.6529703 C120.636727,23.9034653 119.864766,24.0287129 119.022625,24.0287129 C117.144005,24.0287129 115.583886,23.4024752 114.34227,22.15 C113.100653,20.8975248 112.479844,19.3128713 112.479844,17.3960396 C112.479844,15.5009901 113.062864,13.9217822 114.228905,12.6584158 C115.394945,11.3950495 116.884885,10.7633663 118.698725,10.7633663 C119.821579,10.7633663 120.809474,11.0138614 121.662411,11.5148515 C122.515348,12.0158416 123.211733,12.6584158 123.751566,13.4425743 L123.751566,13.4425743 L128.318557,9.91386139 C127.260483,8.54158416 125.9109,7.43069307 124.269806,6.58118812 C122.628713,5.73168317 120.771686,5.30693069 118.698725,5.30693069 C116.906478,5.30693069 115.259986,5.63366337 113.759249,6.28712871 C112.258513,6.94059406 110.979107,7.81188119 109.921034,8.9009901 C108.86296,9.99009901 108.037015,11.269802 107.443198,12.740099 C106.849382,14.210396 106.552473,15.7623762 106.552473,17.3960396 C106.552473,19.029703 106.85478,20.5816832 107.459393,22.0519802 C108.064007,23.5222772 108.911545,24.8019802 110.002009,25.8910891 C111.092472,26.980198 112.409666,27.8514851 113.95359,28.5049505 C115.497513,29.1584158 117.187192,29.4851485 119.022625,29.4851485 Z M140.92462,29.4851485 C142.263407,29.4851485 143.48343,29.2564356 144.584691,28.7990099 C145.685951,28.3415842 146.630659,27.7153465 147.418816,26.920297 C148.206973,26.1252475 148.822383,25.1831683 149.265046,24.0940594 C149.70771,23.0049505 149.929042,21.839604 149.929042,20.5980198 C149.929042,19.3564356 149.70771,18.1910891 149.265046,17.1019802 C148.822383,16.0128713 148.206973,15.0707921 147.418816,14.2757426 C146.630659,13.4806931 145.685951,12.8544554 144.584691,12.3970297 C143.48343,11.939604 142.263407,11.7108911 140.92462,11.7108911 C139.585833,11.7108911 138.360411,11.939604 137.248354,12.3970297 C136.136298,12.8544554 135.186191,13.4806931 134.398034,14.2757426 C133.609877,15.0707921 132.994467,16.0128713 132.551804,17.1019802 C132.10914,18.1910891 131.887809,19.3564356 131.887809,20.5980198 C131.887809,21.839604 132.10914,23.0049505 132.551804,24.0940594 C132.994467,25.1831683 133.609877,26.1252475 134.398034,26.920297 C135.186191,27.7153465 136.136298,28.3415842 137.248354,28.7990099 C138.360411,29.2564356 139.585833,29.4851485 140.92462,29.4851485 Z M140.95701,24.6168317 C139.898937,24.6168317 139.01361,24.2519802 138.30103,23.5222772 C137.588449,22.7925743 137.232159,21.8178218 137.232159,20.5980198 C137.232159,19.3782178 137.588449,18.4034653 138.30103,17.6737624 C139.01361,16.9440594 139.898937,16.5792079 140.95701,16.5792079 C141.99349,16.5792079 142.862622,16.9386139 143.564406,17.6574257 C144.266189,18.3762376 144.617081,19.3564356 144.617081,20.5980198 C144.617081,21.7960396 144.266189,22.7653465 143.564406,23.5059406 C142.862622,24.2465347 141.99349,24.6168317 140.95701,24.6168317 Z M160.429754,29.4851485 C162.934581,29.4851485 164.88338,28.75 166.27615,27.279703 C167.668921,25.8094059 168.365306,23.8435644 168.365306,21.3821782 L168.365306,21.3821782 L168.365306,12.3643564 L163.182905,12.3643564 L163.182905,21.6762376 C163.182905,22.5475248 162.961573,23.2554455 162.51891,23.8 C162.076246,24.3445545 161.390658,24.6168317 160.462144,24.6168317 C159.512038,24.6168317 158.815652,24.3445545 158.372989,23.8 C157.930326,23.2554455 157.708994,22.5475248 157.708994,21.6762376 L157.708994,21.6762376 L157.708994,12.3643564 L152.526593,12.3643564 L152.526593,21.3821782 C152.526593,23.8435644 153.212181,25.8094059 154.583358,27.279703 C155.954535,28.75 157.903334,29.4851485 160.429754,29.4851485 Z M182.396529,28.8316832 L188,12.3643564 L182.493699,12.3643564 L179.027968,22.5910891 L175.529848,12.3643564 L170.023547,12.3643564 L175.627018,28.8316832 L182.396529,28.8316832 Z" id="Shadow" fill="url(#linearGradient-1)"></path>
                    <path d="M9.06920154,24.8316832 C10.8614485,24.8316832 12.5079405,24.5267327 14.0086774,23.9168317 C15.5094143,23.3069307 16.7888195,22.4792079 17.846893,21.4336634 C18.9049665,20.3881188 19.7309117,19.1737624 20.3247284,17.7905941 C20.9185452,16.4074257 21.2154536,14.9425743 21.2154536,13.3960396 C21.2154536,11.849505 20.9185452,10.3846535 20.3247284,9.00148515 C19.7309117,7.61831683 18.9049665,6.4039604 17.846893,5.35841584 C16.7888195,4.31287129 15.5094143,3.48514851 14.0086774,2.87524752 C12.5079405,2.26534653 10.8614485,1.96039604 9.06920154,1.96039604 L9.06920154,1.96039604 L0,1.96039604 L0,24.8316832 L9.06920154,24.8316832 Z M9.10159154,19.5712871 L5.76542098,19.5712871 L5.76542098,7.22079208 L9.10159154,7.22079208 C10.8722452,7.22079208 12.3405921,7.80891089 13.5066323,8.98514851 C14.6726725,10.1613861 15.2556926,11.6316832 15.2556926,13.3960396 C15.2556926,15.160396 14.6726725,16.6306931 13.5066323,17.8069307 C12.3405921,18.9831683 10.8722452,19.5712871 9.10159154,19.5712871 L9.10159154,19.5712871 Z M32.3963565,25.4851485 C33.9510767,25.4851485 35.3546436,25.1910891 36.6070572,24.6029703 C37.8594707,24.0148515 38.8743576,23.2089109 39.6517177,22.1851485 L39.6517177,22.1851485 L36.0240371,19.2772277 C35.6569504,19.7564356 35.1657019,20.1376238 34.5502918,20.4207921 C33.9348817,20.7039604 33.2492933,20.8455446 32.4935265,20.8455446 C31.4138596,20.8455446 30.5339312,20.6113861 29.853741,20.1430693 C29.1735509,19.6747525 28.7254892,18.9722772 28.5095558,18.0356436 L28.5095558,18.0356436 L39.0686976,18.0356436 C39.1550709,17.7524752 39.2306476,17.360396 39.2954276,16.8594059 C39.3602076,16.3584158 39.3925977,15.8356436 39.3925977,15.2910891 C39.3925977,13.0693069 38.6908142,11.250495 37.2872473,9.83465347 C35.8836804,8.41881188 34.0266534,7.71089109 31.7161664,7.71089109 C30.3341928,7.71089109 29.1141692,7.95049505 28.0560957,8.42970297 C26.9980222,8.90891089 26.1126954,9.55148515 25.4001153,10.3574257 C24.6875352,11.1633663 24.1477017,12.1108911 23.780615,13.2 C23.4135283,14.2891089 23.2299849,15.4217822 23.2299849,16.5980198 C23.2299849,17.7960396 23.4297233,18.9341584 23.8292,20.0123762 C24.2286768,21.0905941 24.8116969,22.0326733 25.5782603,22.8386139 C26.3448238,23.6445545 27.3003289,24.2871287 28.4447758,24.7663366 C29.5892227,25.2455446 30.9064162,25.4851485 32.3963565,25.4851485 Z M34.3397568,14.2128713 L28.7038958,14.2128713 C28.9414226,13.4069307 29.3139076,12.8351485 29.821351,12.4975248 C30.3287945,12.159901 30.9603996,11.9910891 31.7161664,11.9910891 C32.6014932,11.9910891 33.2546916,12.2252475 33.6757617,12.6935644 C34.0968318,13.1618812 34.3181635,13.6683168 34.3397568,14.2128713 L34.3397568,14.2128713 Z M47.9175201,25.4851485 C48.6948802,25.4851485 49.4560453,25.3653465 50.2010155,25.1257426 C50.9459856,24.8861386 51.6045824,24.5321782 52.1768058,24.0638614 C52.7490292,23.5955446 53.213286,23.0128713 53.569576,22.3158416 C53.9258661,21.6188119 54.1148078,20.8019802 54.1364011,19.8653465 C54.1364011,18.3841584 53.7531194,17.2841584 52.9865559,16.5653465 C52.2199925,15.8465347 51.3832507,15.3019802 50.4763305,14.9316832 C49.5694104,14.5613861 48.7326686,14.2509901 47.9661051,14.000495 C47.1995416,13.75 46.8162599,13.3633663 46.8162599,12.8405941 C46.8162599,12.5574257 46.9242266,12.3287129 47.1401599,12.1544554 C47.3560933,11.980198 47.69079,11.8930693 48.1442501,11.8930693 C48.7272702,11.8930693 49.2617053,12.0782178 49.7475554,12.4485149 C50.2334055,12.8188119 50.6706705,13.2326733 51.0593506,13.690099 L51.0593506,13.690099 L54.4279112,10.5861386 C53.8232977,9.78019802 52.9487676,9.09950495 51.8043207,8.54405941 C50.6598739,7.98861386 49.4398503,7.71089109 48.1442501,7.71089109 C46.3520031,7.71089109 44.8674612,8.21732673 43.6906244,9.23019802 C42.5137875,10.2430693 41.9253691,11.5336634 41.9253691,13.1019802 C41.9253691,14.5831683 42.3086508,15.6831683 43.0752143,16.4019802 C43.8417777,17.1207921 44.6785195,17.6707921 45.5854397,18.0519802 C46.4923598,18.4331683 47.3291016,18.7490099 48.0956651,18.999505 C48.8622286,19.25 49.2455103,19.6584158 49.2455103,20.2247525 C49.2455103,20.5514851 49.1321453,20.8128713 48.9054152,21.0089109 C48.6786852,21.2049505 48.3277935,21.3029703 47.8527401,21.3029703 C47.1185666,21.3029703 46.4707665,21.0905941 45.9093397,20.6658416 C45.347913,20.2410891 44.8512662,19.7455446 44.4193995,19.1792079 L44.4193995,19.1792079 L41.0508389,22.3485149 C41.8713857,23.2851485 42.8322892,24.0420792 43.9335494,24.6193069 C45.0348096,25.1965347 46.3627998,25.4851485 47.9175201,25.4851485 Z M59.6814431,6.56732673 C60.5451765,6.56732673 61.295545,6.23514851 61.9325484,5.57079208 C62.5695519,4.90643564 62.8880536,4.13861386 62.8880536,3.26732673 C62.8880536,2.3960396 62.5695519,1.63366337 61.9325484,0.98019802 C61.295545,0.326732673 60.5451765,0 59.6814431,0 C58.7961162,0 58.0295528,0.326732673 57.3817527,0.98019802 C56.7339526,1.63366337 56.4100525,2.3960396 56.4100525,3.26732673 C56.4100525,4.13861386 56.7339526,4.90643564 57.3817527,5.57079208 C58.0295528,6.23514851 58.7961162,6.56732673 59.6814431,6.56732673 Z M62.2078635,24.8316832 L62.2078635,8.36435644 L57.0578526,8.36435644 L57.0578526,24.8316832 L62.2078635,24.8316832 Z M73.2268163,33 C75.9475768,33 78.0745205,32.3574257 79.6076474,31.0722772 C81.1407743,29.7871287 81.9073378,28.1643564 81.9073378,26.2039604 C81.9073378,24.6356436 81.3405127,23.3287129 80.2068625,22.2831683 C79.0732123,21.2376238 77.5238904,20.7148515 75.5588967,20.7148515 L75.5588967,20.7148515 L71.8340461,20.7148515 C71.574926,20.7148515 71.364391,20.6549505 71.202441,20.5351485 C71.040491,20.4153465 70.9595159,20.2138614 70.9595159,19.9306931 C70.9595159,19.8217822 70.9865076,19.7074257 71.040491,19.5876238 C71.0944743,19.4678218 71.1646526,19.3643564 71.251026,19.2772277 C71.4021794,19.2990099 71.5533327,19.309901 71.7044861,19.309901 L71.7044861,19.309901 L72.1579461,19.309901 C74.3388732,19.309901 76.0123568,18.7490099 77.178397,17.6272277 C78.3444372,16.5054455 78.9274573,15.1277228 78.9274573,13.4940594 L78.9274573,13.4940594 L78.9274573,13.1019802 C78.9274573,12.9712871 78.9166606,12.8405941 78.8950673,12.709901 L78.8950673,12.709901 L81.4538777,12.709901 L81.4538777,8.36435644 L75.5912867,8.36435644 C75.1162333,8.14653465 74.5925949,7.98316832 74.0203715,7.87425743 C73.448148,7.76534653 72.8273396,7.71089109 72.1579461,7.71089109 C70.0202058,7.71089109 68.3683155,8.26633663 67.2022753,9.37722772 C66.0362351,10.4881188 65.453215,11.860396 65.453215,13.4940594 C65.453215,14.4089109 65.6367584,15.2529703 66.0038451,16.0262376 C66.3709318,16.799505 66.9107653,17.4584158 67.6233454,18.0029703 C67.0187319,18.4821782 66.5868652,18.9886139 66.3277452,19.5222772 C66.0686251,20.0559406 65.9390651,20.660396 65.9390651,21.3356436 C65.9390651,21.749505 66.0200401,22.1633663 66.1819901,22.5772277 C66.3439402,22.9910891 66.5652719,23.3722772 66.8459852,23.7207921 C66.1765918,24.2217822 65.6529534,24.7990099 65.27507,25.4524752 C64.8971866,26.1059406 64.7082449,26.8356436 64.7082449,27.6415842 C64.7082449,29.4277228 65.4424183,30.7673267 66.9107653,31.660396 C68.3791122,32.5534653 70.4844625,33 73.2268163,33 Z M72.1903362,15.519802 C71.5641294,15.519802 71.0512876,15.3509901 70.6518109,15.0133663 C70.2523342,14.6757426 70.0525958,14.1693069 70.0525958,13.4940594 C70.0525958,12.8405941 70.2523342,12.3450495 70.6518109,12.0074257 C71.0512876,11.669802 71.5641294,11.5009901 72.1903362,11.5009901 C72.8165429,11.5009901 73.334783,11.6643564 73.7450564,11.9910891 C74.1553298,12.3178218 74.3604665,12.8188119 74.3604665,13.4940594 C74.3604665,14.1693069 74.1553298,14.6757426 73.7450564,15.0133663 C73.334783,15.3509901 72.8165429,15.519802 72.1903362,15.519802 Z M73.1620363,28.9158416 C71.8664361,28.9158416 70.9325243,28.7306931 70.3603008,28.360396 C69.7880774,27.990099 69.5019657,27.4891089 69.5019657,26.8574257 C69.5019657,26.4653465 69.5829407,26.1277228 69.7448907,25.8445545 C69.9068408,25.5613861 70.1389691,25.3217822 70.4412759,25.1257426 L70.4412759,25.1257426 L74.9110966,25.1257426 C75.5588967,25.1257426 76.0447468,25.2782178 76.3686469,25.5831683 C76.6925469,25.8881188 76.8544969,26.280198 76.8544969,26.7594059 C76.8544969,27.3693069 76.5629869,27.8811881 75.9799668,28.2950495 C75.3969467,28.7089109 74.4576365,28.9158416 73.1620363,28.9158416 Z M89.07188,24.8316832 L89.07188,14.5722772 C89.1582533,14.4415842 89.2716184,14.2618812 89.4119751,14.0331683 C89.5523317,13.8044554 89.7412734,13.5811881 89.9788001,13.3633663 C90.2163269,13.1455446 90.5024386,12.960396 90.8371353,12.8079208 C91.171832,12.6554455 91.5659104,12.5792079 92.0193705,12.5792079 C92.8399173,12.5792079 93.4661241,12.8405941 93.8979908,13.3633663 C94.3298576,13.8861386 94.5457909,14.5613861 94.5457909,15.3891089 L94.5457909,15.3891089 L94.5457909,24.8316832 L99.7281918,24.8316832 L99.7281918,15.160396 C99.7281918,13.9188119 99.5608434,12.829703 99.2261467,11.8930693 C98.89145,10.9564356 98.4379899,10.1777228 97.8657665,9.55693069 C97.2935431,8.93613861 96.6241496,8.47326733 95.8575861,8.16831683 C95.0910227,7.86336634 94.2758742,7.71089109 93.4121407,7.71089109 C92.4620339,7.71089109 91.6360888,7.85792079 90.9343053,8.1519802 C90.2325219,8.4460396 89.6117134,8.82178218 89.07188,9.27920792 L89.07188,9.27920792 L89.07188,8.36435644 L83.9218691,8.36435644 L83.9218691,24.8316832 L89.07188,24.8316832 Z M115.022625,25.4851485 C117.160366,25.4851485 119.087571,25.0658416 120.804241,24.2272277 C122.520912,23.3886139 123.908284,22.2613861 124.966357,20.8455446 L124.966357,20.8455446 L124.966357,10.5534653 L113.986145,10.5534653 L113.986145,15.8138614 L119.200936,15.8138614 L119.200936,18.6564356 C118.661103,19.070297 118.040294,19.4024752 117.338511,19.6529703 C116.636727,19.9034653 115.864766,20.0287129 115.022625,20.0287129 C113.144005,20.0287129 111.583886,19.4024752 110.34227,18.15 C109.100653,16.8975248 108.479844,15.3128713 108.479844,13.3960396 C108.479844,11.5009901 109.062864,9.92178218 110.228905,8.65841584 C111.394945,7.3950495 112.884885,6.76336634 114.698725,6.76336634 C115.821579,6.76336634 116.809474,7.01386139 117.662411,7.51485149 C118.515348,8.01584158 119.211733,8.65841584 119.751566,9.44257426 L119.751566,9.44257426 L124.318557,5.91386139 C123.260483,4.54158416 121.9109,3.43069307 120.269806,2.58118812 C118.628713,1.73168317 116.771686,1.30693069 114.698725,1.30693069 C112.906478,1.30693069 111.259986,1.63366337 109.759249,2.28712871 C108.258513,2.94059406 106.979107,3.81188119 105.921034,4.9009901 C104.86296,5.99009901 104.037015,7.26980198 103.443198,8.74009901 C102.849382,10.210396 102.552473,11.7623762 102.552473,13.3960396 C102.552473,15.029703 102.85478,16.5816832 103.459393,18.0519802 C104.064007,19.5222772 104.911545,20.8019802 106.002009,21.8910891 C107.092472,22.980198 108.409666,23.8514851 109.95359,24.5049505 C111.497513,25.1584158 113.187192,25.4851485 115.022625,25.4851485 Z M136.92462,25.4851485 C138.263407,25.4851485 139.48343,25.2564356 140.584691,24.7990099 C141.685951,24.3415842 142.630659,23.7153465 143.418816,22.920297 C144.206973,22.1252475 144.822383,21.1831683 145.265046,20.0940594 C145.70771,19.0049505 145.929042,17.839604 145.929042,16.5980198 C145.929042,15.3564356 145.70771,14.1910891 145.265046,13.1019802 C144.822383,12.0128713 144.206973,11.0707921 143.418816,10.2757426 C142.630659,9.48069307 141.685951,8.85445545 140.584691,8.3970297 C139.48343,7.93960396 138.263407,7.71089109 136.92462,7.71089109 C135.585833,7.71089109 134.360411,7.93960396 133.248354,8.3970297 C132.136298,8.85445545 131.186191,9.48069307 130.398034,10.2757426 C129.609877,11.0707921 128.994467,12.0128713 128.551804,13.1019802 C128.10914,14.1910891 127.887809,15.3564356 127.887809,16.5980198 C127.887809,17.839604 128.10914,19.0049505 128.551804,20.0940594 C128.994467,21.1831683 129.609877,22.1252475 130.398034,22.920297 C131.186191,23.7153465 132.136298,24.3415842 133.248354,24.7990099 C134.360411,25.2564356 135.585833,25.4851485 136.92462,25.4851485 Z M136.95701,20.6168317 C135.898937,20.6168317 135.01361,20.2519802 134.30103,19.5222772 C133.588449,18.7925743 133.232159,17.8178218 133.232159,16.5980198 C133.232159,15.3782178 133.588449,14.4034653 134.30103,13.6737624 C135.01361,12.9440594 135.898937,12.5792079 136.95701,12.5792079 C137.99349,12.5792079 138.862622,12.9386139 139.564406,13.6574257 C140.266189,14.3762376 140.617081,15.3564356 140.617081,16.5980198 C140.617081,17.7960396 140.266189,18.7653465 139.564406,19.5059406 C138.862622,20.2465347 137.99349,20.6168317 136.95701,20.6168317 Z M156.429754,25.4851485 C158.934581,25.4851485 160.88338,24.75 162.27615,23.279703 C163.668921,21.8094059 164.365306,19.8435644 164.365306,17.3821782 L164.365306,17.3821782 L164.365306,8.36435644 L159.182905,8.36435644 L159.182905,17.6762376 C159.182905,18.5475248 158.961573,19.2554455 158.51891,19.8 C158.076246,20.3445545 157.390658,20.6168317 156.462144,20.6168317 C155.512038,20.6168317 154.815652,20.3445545 154.372989,19.8 C153.930326,19.2554455 153.708994,18.5475248 153.708994,17.6762376 L153.708994,17.6762376 L153.708994,8.36435644 L148.526593,8.36435644 L148.526593,17.3821782 C148.526593,19.8435644 149.212181,21.8094059 150.583358,23.279703 C151.954535,24.75 153.903334,25.4851485 156.429754,25.4851485 Z M178.396529,24.8316832 L184,8.36435644 L178.493699,8.36435644 L175.027968,18.5910891 L171.529848,8.36435644 L166.023547,8.36435644 L171.627018,24.8316832 L178.396529,24.8316832 Z" id="Name" fill="#161616"></path>
                </g>
            </g>
        </g>
    </g>
</svg>
