<?xml version="1.0" encoding="UTF-8"?>
<svg width="420px" height="54px" viewBox="0 0 420 54" version="1.1" xmlns="http://www.w3.org/2000/svg" xmlns:xlink="http://www.w3.org/1999/xlink">
    <!-- Generator: Sketch 63.1 (92452) - https://sketch.com -->
    <title>logoBeta</title>
    <desc>Created with Sketch.</desc>
    <g id="Marque" stroke="none" stroke-width="1" fill="none" fill-rule="evenodd">
        <g id="DinumWeb-Copy" transform="translate(-288.000000, -70.000000)" fill-rule="nonzero">
            <g id="logoBeta" transform="translate(288.000000, 70.000000)">
                <path d="M328.593015,40.282031 C330.244466,40.282031 331.790505,40.0185015 333.231133,39.4914427 C334.67176,38.9643839 335.910348,38.2265015 336.946897,37.2777957 C337.983446,36.3290898 338.800388,35.1783447 339.397721,33.8255604 C339.995054,32.4727761 340.293721,30.988227 340.293721,29.3719133 C340.293721,28.3880702 340.144388,27.3954427 339.845721,26.394031 C339.547054,25.3926192 339.107839,24.4702663 338.528074,23.6269721 C337.948309,22.783678 337.227995,22.028227 336.367133,21.3606192 C335.50627,20.6930114 334.513642,20.1835212 333.38925,19.8321486 C335.146113,19.1294035 336.498897,17.9347368 337.447603,16.2481486 C338.396309,14.5615604 338.870662,12.8222663 338.870662,11.0302663 C338.870662,9.5896388 338.615917,8.22807018 338.106427,6.94556037 C337.596937,5.66305057 336.867839,4.54744272 335.919133,3.59873684 C334.970427,2.65003096 333.810897,1.90336429 332.440544,1.35873684 C331.070191,0.814109391 329.524152,0.541795666 327.802427,0.541795666 C324.499525,0.541795666 321.846662,1.51685449 319.843839,3.46697214 C317.841015,5.41708978 316.839603,7.9206192 316.839603,10.9775604 L316.839603,10.9775604 L316.839603,40.0712074 L321.372309,40.0712074 L321.372309,10.9775604 C321.372309,9.04501135 321.978427,7.52532508 323.190662,6.41850155 C324.402897,5.31167802 325.957721,4.75826625 327.855133,4.75826625 C329.717407,4.75826625 331.228309,5.3643839 332.387839,6.5766192 C333.547368,7.78885449 334.127133,9.27340351 334.127133,11.0302663 C334.127133,13.0330898 333.547368,14.6669721 332.387839,15.9319133 C331.228309,17.1968545 329.699839,17.8293251 327.802427,17.8293251 L327.802427,17.8293251 L325.694191,17.8293251 L325.694191,22.0457957 L328.01325,22.0457957 C330.226897,22.0457957 332.054035,22.7397564 333.494662,24.127678 C334.93529,25.5155996 335.655603,27.1934035 335.655603,29.1610898 C335.655603,31.2341878 334.979211,32.9032074 333.626427,34.1681486 C332.273642,35.4330898 330.525564,36.0655604 328.382191,36.0655604 C327.925407,36.0655604 327.459839,36.0392074 326.985486,35.9865015 C326.511133,35.9337957 326.080701,35.8371682 325.694191,35.6966192 L325.694191,35.6966192 L325.694191,39.9657957 C326.115839,40.0712074 326.555054,40.1502663 327.011839,40.2029721 C327.468623,40.255678 327.995682,40.282031 328.593015,40.282031 Z M359.488997,41.1253251 C361.948604,41.1253251 364.153467,40.6334035 366.103585,39.6495604 C368.053702,38.6657172 369.643663,37.3480702 370.873467,35.6966192 L370.873467,35.6966192 L367.552997,33.114031 C366.674565,34.3086976 365.550173,35.2661878 364.17982,35.9865015 C362.809467,36.7068153 361.280997,37.0669721 359.594408,37.0669721 C356.642879,37.0669721 354.244761,36.1094819 352.400055,34.1945015 C350.555349,32.2795212 349.632997,29.8638349 349.632997,26.9474427 L349.632997,26.9474427 L349.632997,26.842031 L369.977467,26.842031 C370.047742,26.4906584 370.118016,26.060227 370.188291,25.5507368 C370.258565,25.0412466 370.293702,24.5229721 370.293702,23.9959133 C370.293702,22.3444623 370.012604,20.8072074 369.450408,19.3841486 C368.888212,17.9610898 368.08884,16.7400702 367.052291,15.7210898 C366.015742,14.7021094 364.759585,13.9027368 363.28382,13.3229721 C361.808055,12.7432074 360.174173,12.4533251 358.382173,12.4533251 C356.344212,12.4533251 354.490722,12.8222663 352.821702,13.5601486 C351.152683,14.298031 349.747193,15.308227 348.605232,16.5907368 C347.463271,17.8732466 346.576055,19.3929329 345.943585,21.1497957 C345.311114,22.9066584 344.994879,24.7865015 344.994879,26.7893251 C344.994879,28.7218741 345.328683,30.5577957 345.996291,32.2970898 C346.663899,34.0363839 347.621389,35.5560702 348.868761,36.8561486 C350.116134,38.156227 351.644604,39.1927761 353.454173,39.9657957 C355.263742,40.7388153 357.275349,41.1253251 359.488997,41.1253251 Z M365.760997,23.3107368 L350.001938,23.3107368 C350.528997,21.0268153 351.530408,19.2875212 353.006173,18.0928545 C354.481938,16.8981878 356.291506,16.3008545 358.434879,16.3008545 C360.613389,16.3008545 362.361467,16.9948153 363.679114,18.3827368 C364.996761,19.7706584 365.690722,21.4133251 365.760997,23.3107368 L365.760997,23.3107368 Z M387.960507,40.5982663 C388.909213,40.5982663 389.752507,40.5367761 390.49039,40.4137957 C391.228272,40.2908153 391.913449,40.1063447 392.545919,39.8603839 L392.545919,39.8603839 L392.545919,35.8547368 C392.053998,36.0655604 391.491802,36.223678 390.859331,36.3290898 C390.22686,36.4345015 389.471409,36.4872074 388.592978,36.4872074 C386.976664,36.4872074 385.68537,36.1182663 384.719096,35.3803839 C383.752821,34.6425015 383.269684,33.2370114 383.269684,31.1639133 L383.269684,31.1639133 L383.269684,17.6185015 L392.493213,17.6185015 L392.493213,13.5074427 L383.269684,13.5074427 L383.269684,6.86650155 L378.736978,6.86650155 L378.736978,13.5074427 L373.729919,13.5074427 L373.729919,17.6185015 L378.736978,17.6185015 L378.736978,31.1639133 C378.736978,34.3965408 379.536351,36.7770898 381.135096,38.3055604 C382.733841,39.834031 385.008978,40.5982663 387.960507,40.5982663 Z M406.101666,41.1253251 C407.893666,41.1253251 409.580254,40.7388153 411.16143,39.9657957 C412.742607,39.1927761 414.025116,38.1035212 415.00896,36.698031 L415.00896,36.698031 L415.00896,40.0712074 L419.48896,40.0712074 L419.48896,22.2566192 C419.48896,19.340227 418.540254,16.9772466 416.642842,15.167678 C414.74543,13.3581094 412.110136,12.4533251 408.73696,12.4533251 C406.417901,12.4533251 404.344803,12.9101094 402.517666,13.823678 C400.690528,14.7372466 399.197195,15.9846192 398.037666,17.5657957 L398.037666,17.5657957 L401.410842,20.1483839 C402.183862,18.9888545 403.194058,18.0840702 404.44143,17.434031 C405.688803,16.7839917 407.085509,16.4589721 408.631548,16.4589721 C410.493822,16.4589721 412.022293,16.9684623 413.21696,17.9874427 C414.411626,19.0064231 415.00896,20.4294819 415.00896,22.2566192 L415.00896,22.2566192 L415.00896,24.1013251 L406.101666,25.5770898 C403.255548,26.0338741 401.085822,26.9650114 399.592489,28.3705015 C398.099156,29.7759917 397.352489,31.4977172 397.352489,33.535678 C397.352489,35.8547368 398.160646,37.6994427 399.77696,39.0697957 C401.393273,40.4401486 403.501509,41.1253251 406.101666,41.1253251 Z M406.839548,37.3832074 C405.328646,37.3832074 404.116411,36.9966976 403.202842,36.223678 C402.289273,35.4506584 401.832489,34.5019525 401.832489,33.3775604 C401.832489,32.218031 402.26292,31.2341878 403.123783,30.426031 C403.984646,29.6178741 405.328646,29.0732466 407.155783,28.7921486 L407.155783,28.7921486 L415.00896,27.4217957 L415.00896,32.4815604 C414.095391,33.9924623 412.944646,35.187129 411.556724,36.0655604 C410.168803,36.9439917 408.596411,37.3832074 406.839548,37.3832074 Z" id="ßeta" fill="#7F7F7E"></path>
                <path d="M14.9289412,40.0712074 C17.8453333,40.0712074 20.524549,39.5792859 22.9665882,38.5954427 C25.4086275,37.6115996 27.4905098,36.2763839 29.2122353,34.5897957 C30.9339608,32.9032074 32.2779608,30.9443055 33.2442353,28.7130898 C34.2105098,26.4818741 34.6936471,24.1188937 34.6936471,21.6241486 C34.6936471,19.1294035 34.2105098,16.7664231 33.2442353,14.5352074 C32.2779608,12.3039917 30.9339608,10.3450898 29.2122353,8.65850155 C27.4905098,6.97191331 25.4086275,5.63669763 22.9665882,4.65285449 C20.524549,3.66901135 17.8453333,3.17708978 14.9289412,3.17708978 L14.9289412,3.17708978 L0.171294118,3.17708978 L0.171294118,40.0712074 L14.9289412,40.0712074 Z M14.9816471,31.5855604 L9.55294118,31.5855604 L9.55294118,11.6627368 L14.9816471,11.6627368 C17.862902,11.6627368 20.2522353,12.6114427 22.1496471,14.5088545 C24.0470588,16.4062663 24.9957647,18.778031 24.9957647,21.6241486 C24.9957647,24.4702663 24.0470588,26.842031 22.1496471,28.7394427 C20.2522353,30.6368545 17.862902,31.5855604 14.9816471,31.5855604 L14.9816471,31.5855604 Z M52.887511,41.1253251 C55.4173933,41.1253251 57.7013149,40.6509721 59.7392757,39.7022663 C61.7772364,38.7535604 63.4286874,37.4534819 64.6936286,35.802031 L64.6936286,35.802031 L58.7905698,31.1112074 C58.1932364,31.884227 57.3938639,32.499129 56.3924521,32.9559133 C55.3910404,33.4126976 54.2754325,33.6410898 53.0456286,33.6410898 C51.2887659,33.6410898 49.8569227,33.2633643 48.7500992,32.5079133 C47.6432757,31.7524623 46.9141776,30.6192859 46.5628051,29.1083839 L46.5628051,29.1083839 L63.7449227,29.1083839 C63.8854717,28.6515996 64.0084521,28.019129 64.1138639,27.2109721 C64.2192757,26.4028153 64.2719815,25.5595212 64.2719815,24.6810898 C64.2719815,21.0970898 63.1300208,18.163129 60.8460992,15.8792074 C58.5621776,13.5952859 55.5403737,12.4533251 51.7806874,12.4533251 C49.5319031,12.4533251 47.5466482,12.8398349 45.8249227,13.6128545 C44.1031972,14.3858741 42.6625698,15.4224231 41.5030404,16.7225015 C40.343511,18.02258 39.4650796,19.5510506 38.8677463,21.3079133 C38.2704129,23.0647761 37.9717463,24.8919133 37.9717463,26.7893251 C37.9717463,28.7218741 38.2967659,30.5577957 38.9468051,32.2970898 C39.5968443,34.0363839 40.5455502,35.5560702 41.7929227,36.8561486 C43.0402953,38.156227 44.5951188,39.1927761 46.4573933,39.9657957 C48.3196678,40.7388153 50.4630404,41.1253251 52.887511,41.1253251 Z M56.0498639,22.9417957 L46.8790404,22.9417957 C47.2655502,21.6417172 47.8716678,20.7193643 48.6973933,20.1747368 C49.5231188,19.6301094 50.5508835,19.3577957 51.7806874,19.3577957 C53.2213149,19.3577957 54.2842168,19.7355212 54.9693933,20.4909721 C55.6545698,21.2464231 56.0147266,22.0633643 56.0498639,22.9417957 L56.0498639,22.9417957 Z M78.1439631,41.1253251 C79.4089043,41.1253251 80.6474925,40.9320702 81.8597278,40.5455604 C83.0719631,40.1590506 84.1436494,39.5880702 85.0747866,38.8326192 C86.0059239,38.0771682 86.7613749,37.1372466 87.3411396,36.0128545 C87.9209043,34.8884623 88.2283552,33.5708153 88.2634925,32.0599133 C88.2634925,29.67058 87.6398062,27.8961486 86.3924337,26.7366192 C85.1450611,25.5770898 83.7834925,24.6986584 82.3077278,24.1013251 C80.8319631,23.5039917 79.4703945,23.0032859 78.2230219,22.5992074 C76.9756494,22.195129 76.3519631,21.5714427 76.3519631,20.7281486 C76.3519631,20.2713643 76.5276494,19.9024231 76.8790219,19.6213251 C77.2303945,19.340227 77.7750219,19.199678 78.5129043,19.199678 C79.4616101,19.199678 80.3312572,19.4983447 81.1218454,20.095678 C81.9124337,20.6930114 82.6239631,21.3606192 83.2564337,22.0985015 L83.2564337,22.0985015 L88.7378454,17.0914427 C87.7540023,15.7913643 86.3309435,14.6933251 84.468669,13.7973251 C82.6063945,12.9013251 80.6211396,12.4533251 78.5129043,12.4533251 C75.5965121,12.4533251 73.1808258,13.2702663 71.2658454,14.9041486 C69.3508651,16.538031 68.3933749,18.6199133 68.3933749,21.1497957 C68.3933749,23.539129 69.0170611,25.3135604 70.2644337,26.4730898 C71.5118062,27.6326192 72.8733749,28.5198349 74.3491396,29.1347368 C75.8249043,29.7496388 77.1864729,30.259129 78.4338454,30.6632074 C79.681218,31.0672859 80.3049043,31.7261094 80.3049043,32.639678 C80.3049043,33.1667368 80.1204337,33.5883839 79.7514925,33.9046192 C79.3825513,34.2208545 78.8115709,34.3789721 78.0385513,34.3789721 C76.8438847,34.3789721 75.789767,34.0363839 74.8761984,33.3512074 C73.9626298,32.666031 73.1544729,31.8666584 72.4517278,30.9530898 L72.4517278,30.9530898 L66.970316,36.0655604 C68.3055317,37.5764623 69.8691396,38.7974819 71.6611396,39.7286192 C73.4531396,40.6597564 75.6140807,41.1253251 78.1439631,41.1253251 Z M97.2865329,10.6086192 C98.6920231,10.6086192 99.9130427,10.0727761 100.949592,9.00108978 C101.986141,7.92940351 102.504415,6.69081527 102.504415,5.28532508 C102.504415,3.87983488 101.986141,2.65003096 100.949592,1.59591331 C99.9130427,0.541795666 98.6920231,0.0147368421 97.2865329,0.0147368421 C95.8459054,0.0147368421 94.5985329,0.541795666 93.5444152,1.59591331 C92.4902976,2.65003096 91.9632388,3.87983488 91.9632388,5.28532508 C91.9632388,6.69081527 92.4902976,7.92940351 93.5444152,9.00108978 C94.5985329,10.0727761 95.8459054,10.6086192 97.2865329,10.6086192 Z M101.397592,40.0712074 L101.397592,13.5074427 L93.0173564,13.5074427 L93.0173564,40.0712074 L101.397592,40.0712074 Z M119.327926,53.247678 C123.75522,53.247678 127.21624,52.211129 129.710985,50.138031 C132.20573,48.0649329 133.453103,45.4472074 133.453103,42.2848545 C133.453103,39.7549721 132.53075,37.6467368 130.686044,35.9601486 C128.841338,34.2735604 126.32024,33.4302663 123.12275,33.4302663 L123.12275,33.4302663 L117.061573,33.4302663 C116.639926,33.4302663 116.297338,33.3336388 116.033809,33.1403839 C115.770279,32.947129 115.638514,32.6221094 115.638514,32.1653251 C115.638514,31.9896388 115.682436,31.8051682 115.770279,31.6119133 C115.858122,31.4186584 115.972318,31.2517564 116.112867,31.1112074 C116.358828,31.1463447 116.604789,31.1639133 116.85075,31.1639133 L116.85075,31.1639133 L117.588632,31.1639133 C121.137495,31.1639133 123.860632,30.259129 125.758044,28.4495604 C127.655456,26.6399917 128.604161,24.4175604 128.604161,21.7822663 L128.604161,21.7822663 L128.604161,21.1497957 C128.604161,20.9389721 128.586593,20.7281486 128.551456,20.5173251 L128.551456,20.5173251 L132.71522,20.5173251 L132.71522,13.5074427 L123.175456,13.5074427 C122.402436,13.1560702 121.550358,12.8925408 120.61922,12.7168545 C119.688083,12.5411682 118.677887,12.4533251 117.588632,12.4533251 C114.110044,12.4533251 111.422044,13.3493251 109.524632,15.1413251 C107.62722,16.9333251 106.678514,19.1469721 106.678514,21.7822663 C106.678514,23.258031 106.977181,24.6195996 107.574514,25.8669721 C108.171848,27.1143447 109.050279,28.1772466 110.209809,29.055678 C109.225965,29.8286976 108.52322,30.6456388 108.101573,31.5065015 C107.679926,32.3673643 107.469103,33.3424231 107.469103,34.431678 C107.469103,35.0992859 107.600867,35.7668937 107.864397,36.4345015 C108.127926,37.1021094 108.488083,37.7170114 108.944867,38.2792074 C107.855612,39.0873643 107.003534,40.0185015 106.388632,41.0726192 C105.77373,42.1267368 105.466279,43.3038349 105.466279,44.6039133 C105.466279,47.4851682 106.660946,49.6461094 109.050279,51.0867368 C111.439612,52.5273643 114.865495,53.247678 119.327926,53.247678 Z M117.641338,25.050031 C116.622358,25.050031 115.787848,24.7777172 115.137809,24.2330898 C114.487769,23.6884623 114.16275,22.8715212 114.16275,21.7822663 C114.16275,20.7281486 114.487769,19.9287761 115.137809,19.3841486 C115.787848,18.8395212 116.622358,18.5672074 117.641338,18.5672074 C118.660318,18.5672074 119.503612,18.8307368 120.17122,19.3577957 C120.838828,19.8848545 121.172632,20.6930114 121.172632,21.7822663 C121.172632,22.8715212 120.838828,23.6884623 120.17122,24.2330898 C119.503612,24.7777172 118.660318,25.050031 117.641338,25.050031 Z M119.222514,46.6594427 C117.114279,46.6594427 115.594593,46.3607761 114.663456,45.7634427 C113.732318,45.1661094 113.26675,44.3579525 113.26675,43.3389721 C113.26675,42.7065015 113.398514,42.1618741 113.662044,41.7050898 C113.925573,41.2483055 114.303299,40.8617957 114.79522,40.5455604 L114.79522,40.5455604 L122.068632,40.5455604 C123.12275,40.5455604 123.913338,40.7915212 124.440397,41.2834427 C124.967456,41.7753643 125.230985,42.4078349 125.230985,43.1808545 C125.230985,44.1646976 124.756632,44.9904231 123.807926,45.658031 C122.85922,46.3256388 121.33075,46.6594427 119.222514,46.6594427 Z M145.111437,40.0712074 L145.111437,23.5215604 C145.251986,23.3107368 145.436457,23.0208545 145.664849,22.6519133 C145.893241,22.2829721 146.200692,21.9228153 146.587202,21.5714427 C146.973712,21.2200702 147.43928,20.9214035 147.983908,20.6754427 C148.528535,20.4294819 149.16979,20.3065015 149.907672,20.3065015 C151.242888,20.3065015 152.261869,20.7281486 152.964614,21.5714427 C153.667359,22.4147368 154.018731,23.5039917 154.018731,24.8392074 L154.018731,24.8392074 L154.018731,40.0712074 L162.451672,40.0712074 L162.451672,24.4702663 C162.451672,22.4674427 162.179359,20.71058 161.634731,19.199678 C161.090104,17.6887761 160.352221,16.4326192 159.421084,15.4312074 C158.489947,14.4297957 157.400692,13.683129 156.153319,13.1912074 C154.905947,12.6992859 153.579516,12.4533251 152.174025,12.4533251 C150.627986,12.4533251 149.283986,12.6905015 148.142025,13.1648545 C147.000065,13.6392074 145.989869,14.2453251 145.111437,14.9832074 L145.111437,14.9832074 L145.111437,13.5074427 L136.731202,13.5074427 L136.731202,40.0712074 L145.111437,40.0712074 Z M187.339183,41.1253251 C190.817772,41.1253251 193.953772,40.4489329 196.747183,39.0961486 C199.540595,37.7433643 201.798164,35.9250114 203.519889,33.6410898 L203.519889,33.6410898 L203.519889,17.0387368 L185.652595,17.0387368 L185.652595,25.5243839 L194.138242,25.5243839 L194.138242,30.1097957 C193.259811,30.7774035 192.249615,31.3132466 191.107654,31.7173251 C189.965693,32.1214035 188.709536,32.3234427 187.339183,32.3234427 C184.282242,32.3234427 181.743576,31.3132466 179.723183,29.2928545 C177.702791,27.2724623 176.692595,24.716227 176.692595,21.6241486 C176.692595,18.5672074 177.641301,16.0197564 179.538713,13.9817957 C181.436125,11.9438349 183.860595,10.9248545 186.812125,10.9248545 C188.639262,10.9248545 190.246791,11.3289329 191.634713,12.1370898 C193.022634,12.9452466 194.155811,13.9817957 195.034242,15.2467368 L195.034242,15.2467368 L202.465772,9.55450155 C200.744046,7.34085449 198.547968,5.54885449 195.877536,4.17850155 C193.207105,2.80814861 190.185301,2.12297214 186.812125,2.12297214 C183.895732,2.12297214 181.216517,2.65003096 178.774478,3.70414861 C176.332438,4.75826625 174.250556,6.16375645 172.52883,7.9206192 C170.807105,9.67748194 169.463105,11.7417957 168.49683,14.1135604 C167.530556,16.4853251 167.047419,18.9888545 167.047419,21.6241486 C167.047419,24.2594427 167.53934,26.7629721 168.523183,29.1347368 C169.507027,31.5065015 170.886164,33.5708153 172.660595,35.327678 C174.435027,37.0845408 176.578399,38.490031 179.090713,39.5441486 C181.603027,40.5982663 184.352517,41.1253251 187.339183,41.1253251 Z M222.978694,41.1253251 C225.157204,41.1253251 227.142459,40.7563839 228.934459,40.0185015 C230.726459,39.2806192 232.263714,38.2704231 233.546224,36.9879133 C234.828734,35.7054035 235.830145,34.1857172 236.550459,32.4288545 C237.270773,30.6719917 237.63093,28.7921486 237.63093,26.7893251 C237.63093,24.7865015 237.270773,22.9066584 236.550459,21.1497957 C235.830145,19.3929329 234.828734,17.8732466 233.546224,16.5907368 C232.263714,15.308227 230.726459,14.298031 228.934459,13.5601486 C227.142459,12.8222663 225.157204,12.4533251 222.978694,12.4533251 C220.800185,12.4533251 218.806145,12.8222663 216.996577,13.5601486 C215.187008,14.298031 213.640969,15.308227 212.358459,16.5907368 C211.075949,17.8732466 210.074537,19.3929329 209.354224,21.1497957 C208.63391,22.9066584 208.273753,24.7865015 208.273753,26.7893251 C208.273753,28.7921486 208.63391,30.6719917 209.354224,32.4288545 C210.074537,34.1857172 211.075949,35.7054035 212.358459,36.9879133 C213.640969,38.2704231 215.187008,39.2806192 216.996577,40.0185015 C218.806145,40.7563839 220.800185,41.1253251 222.978694,41.1253251 Z M223.0314,33.2721486 C221.309675,33.2721486 219.869047,32.6835996 218.709518,31.5065015 C217.549988,30.3294035 216.970224,28.7570114 216.970224,26.7893251 C216.970224,24.8216388 217.549988,23.2492466 218.709518,22.0721486 C219.869047,20.8950506 221.309675,20.3065015 223.0314,20.3065015 C224.717988,20.3065015 226.132263,20.8862663 227.274224,22.0457957 C228.416185,23.2053251 228.987165,24.7865015 228.987165,26.7893251 C228.987165,28.7218741 228.416185,30.2854819 227.274224,31.4801486 C226.132263,32.6748153 224.717988,33.2721486 223.0314,33.2721486 Z M254.71797,41.1253251 C258.793892,41.1253251 261.965029,39.9394427 264.231382,37.567678 C266.497735,35.1959133 267.630911,32.0247761 267.630911,28.0542663 L267.630911,28.0542663 L267.630911,13.5074427 L259.19797,13.5074427 L259.19797,28.5286192 C259.19797,29.9341094 258.837813,31.0760702 258.117499,31.9545015 C257.397186,32.8329329 256.281578,33.2721486 254.770676,33.2721486 C253.224637,33.2721486 252.09146,32.8329329 251.371146,31.9545015 C250.650833,31.0760702 250.290676,29.9341094 250.290676,28.5286192 L250.290676,28.5286192 L250.290676,13.5074427 L241.857735,13.5074427 L241.857735,28.0542663 C241.857735,32.0247761 242.973343,35.1959133 245.204558,37.567678 C247.435774,39.9394427 250.606911,41.1253251 254.71797,41.1253251 Z M290.462893,40.0712074 L299.58101,13.5074427 L290.62101,13.5074427 L284.981481,30.0043839 L279.289246,13.5074427 L270.329246,13.5074427 L279.447363,40.0712074 L290.462893,40.0712074 Z" id="DesignGouv" fill="#000000"></path>
            </g>
        </g>
    </g>
</svg>