<?xml version="1.0" encoding="UTF-8"?>
<svg width="380px" height="49px" viewBox="0 0 380 49" version="1.1" xmlns="http://www.w3.org/2000/svg" xmlns:xlink="http://www.w3.org/1999/xlink">
    <!-- Generator: Sketch 63.1 (92452) - https://sketch.com -->
    <title>logoBeta</title>
    <desc>Created with Sketch.</desc>
    <g id="Marque" stroke="none" stroke-width="1" fill="none" fill-rule="evenodd">
        <g id="DinumWeb-Copy" transform="translate(-288.000000, -70.000000)" fill-rule="nonzero">
            <g id="logoBeta" transform="translate(288.000000, 70.000000)">
                <path d="M297.298442,36.4456471 C298.792612,36.4456471 300.191409,36.2072157 301.494834,35.7303529 C302.798259,35.2534902 303.918887,34.5858824 304.856717,33.7275294 C305.794547,32.8691765 306.533684,31.8280261 307.074128,30.6040784 C307.614573,29.3801307 307.884795,28.0369673 307.884795,26.5745882 C307.884795,25.6844444 307.749684,24.7863529 307.479462,23.8803137 C307.20924,22.9742745 306.811854,22.1397647 306.287305,21.3767843 C305.762756,20.6138039 305.111043,19.9303007 304.332168,19.3262745 C303.553292,18.7222484 302.6552,18.261281 301.637893,17.9433725 C303.227436,17.3075556 304.451383,16.2266667 305.309736,14.7007059 C306.168089,13.1747451 306.597266,11.601098 306.597266,9.97976471 C306.597266,8.67633987 306.366782,7.44444444 305.905815,6.28407843 C305.444847,5.12371242 304.785187,4.11435294 303.926834,3.256 C303.068481,2.39764706 302.019383,1.7220915 300.77954,1.22933333 C299.539697,0.736575163 298.1409,0.490196078 296.583148,0.490196078 C293.594808,0.490196078 291.194599,1.37239216 289.382521,3.13678431 C287.570442,4.90117647 286.664403,7.16627451 286.664403,9.93207843 L286.664403,9.93207843 L286.664403,36.254902 L290.765423,36.254902 L290.765423,9.93207843 C290.765423,8.1835817 291.313815,6.80862745 292.410599,5.80721569 C293.507383,4.80580392 294.914128,4.30509804 296.630834,4.30509804 C298.315749,4.30509804 299.682756,4.8534902 300.731854,5.95027451 C301.780952,7.04705882 302.305501,8.39022222 302.305501,9.97976471 C302.305501,11.7918431 301.780952,13.2701176 300.731854,14.4145882 C299.682756,15.5590588 298.299854,16.1312941 296.583148,16.1312941 L296.583148,16.1312941 L294.675697,16.1312941 L294.675697,19.9461961 L296.773893,19.9461961 C298.776717,19.9461961 300.429841,20.5740654 301.733266,21.8298039 C303.036691,23.0855425 303.688403,24.6035556 303.688403,26.3838431 C303.688403,28.2595033 303.076429,29.7695686 301.852481,30.9140392 C300.628534,32.0585098 299.046939,32.6307451 297.107697,32.6307451 C296.694416,32.6307451 296.273187,32.606902 295.844011,32.5592157 C295.414834,32.5115294 295.025396,32.4241046 294.675697,32.2969412 L294.675697,32.2969412 L294.675697,36.1595294 C295.057187,36.254902 295.454573,36.3264314 295.867854,36.3741176 C296.281135,36.4218039 296.757998,36.4456471 297.298442,36.4456471 Z M325.251949,37.2086275 C327.477309,37.2086275 329.472185,36.7635556 331.236577,35.8734118 C333.000969,34.983268 334.439505,33.7911111 335.552185,32.2969412 L335.552185,32.2969412 L332.547949,29.9603137 C331.753178,31.0412026 330.735871,31.9075033 329.496028,32.5592157 C328.256185,33.2109281 326.873283,33.5367843 325.347322,33.5367843 C322.67689,33.5367843 320.507165,32.6704837 318.838145,30.9378824 C317.169126,29.205281 316.334616,27.0196601 316.334616,24.3810196 L316.334616,24.3810196 L316.334616,24.2856471 L334.741518,24.2856471 C334.8051,23.9677386 334.868681,23.5783007 334.932263,23.1173333 C334.995845,22.656366 335.027636,22.187451 335.027636,21.7105882 C335.027636,20.2164183 334.773309,18.8255686 334.264655,17.5380392 C333.756002,16.2505098 333.03276,15.1457778 332.09493,14.2238431 C331.1571,13.3019085 330.020577,12.5786667 328.685361,12.0541176 C327.350145,11.5295686 325.871871,11.2672941 324.250537,11.2672941 C322.406668,11.2672941 320.729701,11.601098 319.219636,12.2687059 C317.70957,12.9363137 316.437936,13.8503007 315.404734,15.0106667 C314.371531,16.1710327 313.568812,17.5459869 312.996577,19.1355294 C312.424341,20.7250719 312.138224,22.4258824 312.138224,24.2379608 C312.138224,25.9864575 312.440237,27.6475294 313.044263,29.2211765 C313.648289,30.7948235 314.51459,32.1697778 315.643165,33.3460392 C316.77174,34.5223007 318.154642,35.4601307 319.791871,36.1595294 C321.4291,36.8589281 323.249126,37.2086275 325.251949,37.2086275 Z M330.926616,21.0906667 L316.66842,21.0906667 C317.145283,19.0242614 318.051322,17.4506144 319.386537,16.3697255 C320.721753,15.2888366 322.358982,14.7483922 324.298224,14.7483922 C326.269256,14.7483922 327.850851,15.3762614 329.043008,16.632 C330.235165,17.8877386 330.863034,19.3739608 330.926616,21.0906667 L330.926616,21.0906667 Z M351.011888,36.7317647 C351.870241,36.7317647 352.633221,36.6761307 353.300829,36.5648627 C353.968437,36.4535948 354.588358,36.2866928 355.160594,36.0641569 L355.160594,36.0641569 L355.160594,32.44 C354.715522,32.6307451 354.206868,32.7738039 353.634633,32.8691765 C353.062398,32.964549 352.378894,33.0122353 351.584123,33.0122353 C350.121744,33.0122353 348.95343,32.6784314 348.079182,32.0108235 C347.204933,31.3432157 346.767809,30.0715817 346.767809,28.1959216 L346.767809,28.1959216 L346.767809,15.940549 L355.112907,15.940549 L355.112907,12.2210196 L346.767809,12.2210196 L346.767809,6.21254902 L342.66679,6.21254902 L342.66679,12.2210196 L338.136594,12.2210196 L338.136594,15.940549 L342.66679,15.940549 L342.66679,28.1959216 C342.66679,31.1206797 343.390032,33.2745098 344.836515,34.6574118 C346.282999,36.0403137 348.341456,36.7317647 351.011888,36.7317647 Z M367.425316,37.2086275 C369.04665,37.2086275 370.572611,36.8589281 372.003199,36.1595294 C373.433787,35.4601307 374.594153,34.4746144 375.484297,33.2029804 L375.484297,33.2029804 L375.484297,36.254902 L379.53763,36.254902 L379.53763,20.1369412 C379.53763,17.4983007 378.679277,15.360366 376.962571,13.7231373 C375.245865,12.0859085 372.861552,11.2672941 369.80963,11.2672941 C367.711434,11.2672941 365.835774,11.6805752 364.18265,12.5071373 C362.529526,13.3336993 361.178414,14.4622745 360.129316,15.8928627 L360.129316,15.8928627 L363.181238,18.2294902 C363.880637,17.1803922 364.794624,16.3617778 365.923199,15.7736471 C367.051774,15.1855163 368.31546,14.891451 369.714258,14.891451 C371.399173,14.891451 372.782075,15.3524183 373.862963,16.2743529 C374.943852,17.1962876 375.484297,18.483817 375.484297,20.1369412 L375.484297,20.1369412 L375.484297,21.8059608 L367.425316,23.1411765 C364.850258,23.5544575 362.887173,24.396915 361.536062,25.668549 C360.18495,26.940183 359.509395,28.4979346 359.509395,30.3418039 C359.509395,32.44 360.240584,34.1090196 361.702963,35.3488627 C363.165343,36.5887059 365.072794,37.2086275 367.425316,37.2086275 Z M368.092924,33.822902 C366.725918,33.822902 365.629133,33.4732026 364.802571,32.7738039 C363.976009,32.0744052 363.562728,31.2160523 363.562728,30.1987451 C363.562728,29.1496471 363.952166,28.2595033 364.731042,27.5283137 C365.509918,26.7971242 366.725918,26.304366 368.379042,26.0500392 L368.379042,26.0500392 L375.484297,24.8101961 L375.484297,29.3880784 C374.657735,30.755085 373.616584,31.8359739 372.360846,32.6307451 C371.105107,33.4255163 369.682467,33.822902 368.092924,33.822902 Z" id="ßeta" fill="#7F7F7E"></path>
                <path d="M13.5071373,36.254902 C16.1457778,36.254902 18.5698301,35.8098301 20.7792941,34.9196863 C22.9887582,34.0295425 24.872366,32.8214902 26.4301176,31.2955294 C27.9878693,29.7695686 29.2038693,27.9972288 30.0781176,25.9785098 C30.952366,23.9597908 31.3894902,21.8218562 31.3894902,19.5647059 C31.3894902,17.3075556 30.952366,15.1696209 30.0781176,13.150902 C29.2038693,11.132183 27.9878693,9.35984314 26.4301176,7.83388235 C24.872366,6.30792157 22.9887582,5.09986928 20.7792941,4.20972549 C18.5698301,3.3195817 16.1457778,2.8745098 13.5071373,2.8745098 L13.5071373,2.8745098 L0.154980392,2.8745098 L0.154980392,36.254902 L13.5071373,36.254902 Z M13.5548235,28.5774118 L8.64313725,28.5774118 L8.64313725,10.552 L13.5548235,10.552 C16.1616732,10.552 18.323451,11.4103529 20.0401569,13.1270588 C21.7568627,14.8437647 22.6152157,16.9896471 22.6152157,19.5647059 C22.6152157,22.1397647 21.7568627,24.2856471 20.0401569,26.0023529 C18.323451,27.7190588 16.1616732,28.5774118 13.5548235,28.5774118 L13.5548235,28.5774118 Z M47.8506052,37.2086275 C50.1395463,37.2086275 52.2059516,36.779451 54.0498208,35.921098 C55.8936901,35.0627451 57.3878601,33.8864837 58.5323306,32.3923137 L58.5323306,32.3923137 L53.1914679,28.1482353 C52.6510235,28.847634 51.9277816,29.4039739 51.0217424,29.8172549 C50.1157032,30.2305359 49.1063437,30.4371765 47.993664,30.4371765 C46.4041215,30.4371765 45.1086444,30.0954248 44.1072326,29.4119216 C43.1058208,28.7284183 42.4461607,27.7031634 42.1282522,26.3361569 L42.1282522,26.3361569 L57.6739777,26.3361569 C57.8011411,25.9228758 57.9124091,25.3506405 58.0077816,24.619451 C58.1031542,23.8882614 58.1508404,23.125281 58.1508404,22.3305098 C58.1508404,19.0878431 57.1176378,16.4333072 55.0512326,14.366902 C52.9848274,12.3004967 50.2508143,11.2672941 46.8491934,11.2672941 C44.814579,11.2672941 43.018396,11.6169935 41.4606444,12.3163922 C39.9028927,13.0157908 38.5994679,13.9536209 37.5503699,15.1298824 C36.5012718,16.3061438 35.7065006,17.6890458 35.1660561,19.2785882 C34.6256117,20.8681307 34.3553895,22.5212549 34.3553895,24.2379608 C34.3553895,25.9864575 34.6494548,27.6475294 35.2375855,29.2211765 C35.8257163,30.7948235 36.6840692,32.1697778 37.8126444,33.3460392 C38.9412195,34.5223007 40.3479646,35.4601307 42.0328797,36.1595294 C43.7177947,36.8589281 45.6570365,37.2086275 47.8506052,37.2086275 Z M50.7117816,20.7568627 L42.4143699,20.7568627 C42.7640692,19.5806013 43.3124614,18.7460915 44.0595463,18.2533333 C44.8066313,17.7605752 45.7365136,17.5141961 46.8491934,17.5141961 C48.1526182,17.5141961 49.1142914,17.8559477 49.734213,18.539451 C50.3541346,19.2229542 50.6799908,19.9620915 50.7117816,20.7568627 L50.7117816,20.7568627 Z M70.7016809,37.2086275 C71.8461515,37.2086275 72.9667789,37.0337778 74.0635632,36.6840784 C75.1603476,36.3343791 76.1299685,35.8177778 76.972426,35.1342745 C77.8148835,34.4507712 78.4983868,33.600366 79.0229358,32.5830588 C79.5474848,31.5657516 79.8256547,30.3735948 79.8574456,29.0065882 C79.8574456,26.8448105 79.293158,25.2393725 78.1645829,24.1902745 C77.0360077,23.1411765 75.8041123,22.3464052 74.4688966,21.8059608 C73.1336809,21.2655163 71.9017855,20.8124967 70.7732103,20.446902 C69.6446351,20.0813072 69.0803476,19.5170196 69.0803476,18.7540392 C69.0803476,18.3407582 69.2393018,18.0069542 69.5572103,17.7526275 C69.8751188,17.4983007 70.367877,17.3711373 71.0354848,17.3711373 C71.8938378,17.3711373 72.6806613,17.6413595 73.3959554,18.1818039 C74.1112495,18.7222484 74.7550142,19.3262745 75.3272495,19.9938824 L75.3272495,19.9938824 L80.2866221,15.4636863 C79.3964783,14.2874248 78.1089489,13.2939608 76.4240338,12.4832941 C74.7391188,11.6726275 72.9429358,11.2672941 71.0354848,11.2672941 C68.3968443,11.2672941 66.2112234,12.0064314 64.4786221,13.4847059 C62.7460208,14.9629804 61.8797201,16.8465882 61.8797201,19.1355294 C61.8797201,21.2973072 62.4440077,22.9027451 63.5725829,23.9518431 C64.701158,25.0009412 65.9330534,25.8036601 67.2682691,26.36 C68.6034848,26.9163399 69.8353802,27.3773072 70.9639554,27.742902 C72.0925306,28.1084967 72.6568181,28.7045752 72.6568181,29.5311373 C72.6568181,30.008 72.4899162,30.3894902 72.1561123,30.6756078 C71.8223083,30.9617255 71.305707,31.1047843 70.6063083,31.1047843 C69.5254195,31.1047843 68.571694,30.7948235 67.7451319,30.174902 C66.9185698,29.5549804 66.1873802,28.8317386 65.5515632,28.0051765 L65.5515632,28.0051765 L60.5921907,32.6307451 C61.800243,33.9977516 63.2149358,35.1024837 64.8362691,35.9449412 C66.4576025,36.7873987 68.4127397,37.2086275 70.7016809,37.2086275 Z M88.0211488,9.59827451 C89.2927828,9.59827451 90.3975148,9.11346405 91.3353449,8.14384314 C92.2731749,7.17422222 92.74209,6.05359477 92.74209,4.78196078 C92.74209,3.5103268 92.2731749,2.39764706 91.3353449,1.44392157 C90.3975148,0.490196078 89.2927828,0.0133333333 88.0211488,0.0133333333 C86.717724,0.0133333333 85.5891488,0.490196078 84.6354233,1.44392157 C83.6816978,2.39764706 83.2048351,3.5103268 83.2048351,4.78196078 C83.2048351,6.05359477 83.6816978,7.17422222 84.6354233,8.14384314 C85.5891488,9.11346405 86.717724,9.59827451 88.0211488,9.59827451 Z M91.7406782,36.254902 L91.7406782,12.2210196 L84.1585606,12.2210196 L84.1585606,36.254902 L91.7406782,36.254902 Z M107.963362,48.1764706 C111.969009,48.1764706 115.100408,47.2386405 117.357558,45.3629804 C119.614708,43.4873203 120.743283,41.118902 120.743283,38.2577255 C120.743283,35.9687843 119.908774,34.0613333 118.239754,32.5353725 C116.570734,31.0094118 114.289741,30.2464314 111.396774,30.2464314 L111.396774,30.2464314 L105.912852,30.2464314 C105.531362,30.2464314 105.221401,30.1590065 104.98297,29.9841569 C104.744538,29.8093072 104.625323,29.5152418 104.625323,29.1019608 C104.625323,28.9430065 104.665061,28.7761046 104.744538,28.6012549 C104.824015,28.4264052 104.927336,28.2753987 105.054499,28.1482353 C105.277035,28.1800261 105.499571,28.1959216 105.722107,28.1959216 L105.722107,28.1959216 L106.389715,28.1959216 C109.600591,28.1959216 112.064381,27.3773072 113.781087,25.7400784 C115.497793,24.1028497 116.356146,22.0920784 116.356146,19.7077647 L116.356146,19.7077647 L116.356146,19.1355294 C116.356146,18.9447843 116.340251,18.7540392 116.30846,18.5632941 L116.30846,18.5632941 L120.075676,18.5632941 L120.075676,12.2210196 L111.44446,12.2210196 C110.745061,11.9031111 109.974133,11.6646797 109.131676,11.5057255 C108.289218,11.3467712 107.375231,11.2672941 106.389715,11.2672941 C103.242421,11.2672941 100.810421,12.0779608 99.0937147,13.6992941 C97.3770088,15.3206275 96.5186559,17.323451 96.5186559,19.7077647 C96.5186559,21.0429804 96.7888781,22.2748758 97.3293226,23.403451 C97.869767,24.5320261 98.6645383,25.4936993 99.7136363,26.2884706 C98.8234925,26.9878693 98.1876755,27.7270065 97.8061853,28.5058824 C97.4246951,29.2847582 97.23395,30.1669542 97.23395,31.1524706 C97.23395,31.7564967 97.3531657,32.3605229 97.5915971,32.964549 C97.8300285,33.5685752 98.1558847,34.124915 98.5691657,34.6335686 C97.5836494,35.3647582 96.8127213,36.2072157 96.2563814,37.1609412 C95.7000415,38.1146667 95.4218716,39.1796601 95.4218716,40.3559216 C95.4218716,42.9627712 96.5027605,44.9179085 98.6645383,46.2213333 C100.826316,47.5247582 103.925924,48.1764706 107.963362,48.1764706 Z M106.437401,22.6643137 C105.515466,22.6643137 104.760434,22.4179346 104.172303,21.9251765 C103.584172,21.4324183 103.290107,20.693281 103.290107,19.7077647 C103.290107,18.7540392 103.584172,18.0307974 104.172303,17.5380392 C104.760434,17.045281 105.515466,16.798902 106.437401,16.798902 C107.359336,16.798902 108.122316,17.0373333 108.726342,17.5141961 C109.330368,17.9910588 109.632381,18.7222484 109.632381,19.7077647 C109.632381,20.693281 109.330368,21.4324183 108.726342,21.9251765 C108.122316,22.4179346 107.359336,22.6643137 106.437401,22.6643137 Z M107.867989,42.2156863 C105.960538,42.2156863 104.585584,41.9454641 103.743126,41.4050196 C102.900669,40.8645752 102.47944,40.1333856 102.47944,39.211451 C102.47944,38.6392157 102.598656,38.1464575 102.837087,37.7331765 C103.075519,37.3198954 103.41727,36.9701961 103.862342,36.6840784 L103.862342,36.6840784 L110.443048,36.6840784 C111.396774,36.6840784 112.112068,36.9066144 112.58893,37.3516863 C113.065793,37.7967582 113.304225,38.3689935 113.304225,39.0683922 C113.304225,39.9585359 112.875048,40.7056209 112.016695,41.3096471 C111.158342,41.9136732 109.77544,42.2156863 107.867989,42.2156863 Z M131.2913,36.254902 L131.2913,21.2814118 C131.418464,21.0906667 131.585366,20.8283922 131.792006,20.4945882 C131.998647,20.1607843 132.276817,19.8349281 132.626516,19.5170196 C132.976215,19.1991111 133.397444,18.9288889 133.890202,18.7063529 C134.38296,18.483817 134.963143,18.372549 135.630751,18.372549 C136.838804,18.372549 137.760738,18.7540392 138.396555,19.5170196 C139.032372,20.28 139.350281,21.2655163 139.350281,22.4735686 L139.350281,22.4735686 L139.350281,36.254902 L146.980085,36.254902 L146.980085,22.1397647 C146.980085,20.3276863 146.733705,18.7381438 146.240947,17.3711373 C145.748189,16.0041307 145.080581,14.8676078 144.238124,13.9615686 C143.395666,13.0555294 142.41015,12.3799739 141.281575,11.934902 C140.153,11.4898301 138.952895,11.2672941 137.681261,11.2672941 C136.282464,11.2672941 135.066464,11.4818824 134.033261,11.9110588 C133.000058,12.3402353 132.086072,12.8886275 131.2913,13.5562353 L131.2913,13.5562353 L131.2913,12.2210196 L123.709183,12.2210196 L123.709183,36.254902 L131.2913,36.254902 Z M169.497356,37.2086275 C172.644651,37.2086275 175.481984,36.5966536 178.009356,35.3727059 C180.536729,34.1487582 182.579291,32.5035817 184.137043,30.4371765 L184.137043,30.4371765 L184.137043,15.416 L167.971396,15.416 L167.971396,23.0934902 L175.648886,23.0934902 L175.648886,27.2421961 C174.854115,27.8462222 173.940128,28.3310327 172.906925,28.6966275 C171.873722,29.0622222 170.7372,29.2450196 169.497356,29.2450196 C166.731552,29.2450196 164.434664,28.3310327 162.60669,26.5030588 C160.778716,24.675085 159.864729,22.3623007 159.864729,19.5647059 C159.864729,16.798902 160.723082,14.4940654 162.439788,12.6501961 C164.156494,10.8063268 166.350062,9.88439216 169.020494,9.88439216 C170.673618,9.88439216 172.128049,10.2499869 173.383788,10.9811765 C174.639526,11.712366 175.664781,12.6501961 176.459552,13.7946667 L176.459552,13.7946667 L183.183317,8.64454902 C181.625566,6.64172549 179.638637,5.02039216 177.222533,3.78054902 C174.806428,2.54070588 172.072415,1.92078431 169.020494,1.92078431 C166.381853,1.92078431 163.957801,2.39764706 161.748337,3.35137255 C159.538873,4.30509804 157.655265,5.57673203 156.097513,7.16627451 C154.539762,8.75581699 153.323762,10.6235294 152.449513,12.7694118 C151.575265,14.9152941 151.138141,17.1803922 151.138141,19.5647059 C151.138141,21.9490196 151.583213,24.2141176 152.473356,26.36 C153.3635,28.5058824 154.611291,30.3735948 156.216729,31.9631373 C157.822167,33.5526797 159.761409,34.8243137 162.034454,35.7780392 C164.3075,36.7317647 166.795134,37.2086275 169.497356,37.2086275 Z M201.742628,37.2086275 C203.713661,37.2086275 205.509844,36.8748235 207.131177,36.2072157 C208.752511,35.5396078 210.14336,34.6256209 211.303726,33.4652549 C212.464092,32.3048889 213.370131,30.9299346 214.021844,29.3403922 C214.673556,27.7508497 214.999413,26.0500392 214.999413,24.2379608 C214.999413,22.4258824 214.673556,20.7250719 214.021844,19.1355294 C213.370131,17.5459869 212.464092,16.1710327 211.303726,15.0106667 C210.14336,13.8503007 208.752511,12.9363137 207.131177,12.2687059 C205.509844,11.601098 203.713661,11.2672941 201.742628,11.2672941 C199.771596,11.2672941 197.967465,11.601098 196.330236,12.2687059 C194.693007,12.9363137 193.29421,13.8503007 192.133844,15.0106667 C190.973478,16.1710327 190.067439,17.5459869 189.415726,19.1355294 C188.764014,20.7250719 188.438158,22.4258824 188.438158,24.2379608 C188.438158,26.0500392 188.764014,27.7508497 189.415726,29.3403922 C190.067439,30.9299346 190.973478,32.3048889 192.133844,33.4652549 C193.29421,34.6256209 194.693007,35.5396078 196.330236,36.2072157 C197.967465,36.8748235 199.771596,37.2086275 201.742628,37.2086275 Z M201.790314,30.1033725 C200.232563,30.1033725 198.929138,29.5708758 197.88004,28.5058824 C196.830942,27.4408889 196.306393,26.0182484 196.306393,24.2379608 C196.306393,22.4576732 196.830942,21.0350327 197.88004,19.9700392 C198.929138,18.9050458 200.232563,18.372549 201.790314,18.372549 C203.316275,18.372549 204.595857,18.897098 205.62906,19.9461961 C206.662262,20.9952941 207.178864,22.4258824 207.178864,24.2379608 C207.178864,25.9864575 206.662262,27.4011503 205.62906,28.4820392 C204.595857,29.5629281 203.316275,30.1033725 201.790314,30.1033725 Z M230.459116,37.2086275 C234.146854,37.2086275 237.015978,36.1356863 239.066488,33.9898039 C241.116998,31.8439216 242.142253,28.9747974 242.142253,25.3824314 L242.142253,25.3824314 L242.142253,12.2210196 L234.512449,12.2210196 L234.512449,25.8116078 C234.512449,27.0832418 234.186593,28.1164444 233.53488,28.9112157 C232.883168,29.7059869 231.873809,30.1033725 230.506802,30.1033725 C229.108005,30.1033725 228.08275,29.7059869 227.431037,28.9112157 C226.779325,28.1164444 226.453469,27.0832418 226.453469,25.8116078 L226.453469,25.8116078 L226.453469,12.2210196 L218.823665,12.2210196 L218.823665,25.3824314 C218.823665,28.9747974 219.833024,31.8439216 221.851743,33.9898039 C223.870462,36.1356863 226.739586,37.2086275 230.459116,37.2086275 Z M262.79976,36.254902 L271.049486,12.2210196 L262.942819,12.2210196 L257.840388,27.1468235 L252.69027,12.2210196 L244.583603,12.2210196 L252.833329,36.254902 L262.79976,36.254902 Z" id="DesignGouv" fill="#000000"></path>
            </g>
        </g>
    </g>
</svg>