<?xml version="1.0" encoding="UTF-8"?>
<svg width="16px" height="13px" viewBox="0 0 16 13" version="1.1" xmlns="http://www.w3.org/2000/svg" xmlns:xlink="http://www.w3.org/1999/xlink">
    <!-- Generator: Sketch 63.1 (92452) - https://sketch.com -->
    <title>Menu</title>
    <desc>Created with Sketch.</desc>
    <g id="Site" stroke="none" stroke-width="1" fill="none" fill-rule="evenodd">
        <g id="Main-Copy" transform="translate(-1192.000000, -546.000000)" fill="#1C1C1C">
            <path d="M1206.7,556.4 C1207.41797,556.4 1208,556.98203 1208,557.7 C1208,558.41797 1207.41797,559 1206.7,559 L1193.3,559 C1192.58203,559 1192,558.41797 1192,557.7 C1192,556.98203 1192.58203,556.4 1193.3,556.4 L1206.7,556.4 Z M1206.7,551.2 C1207.41797,551.2 1208,551.78203 1208,552.5 C1208,553.21797 1207.41797,553.8 1206.7,553.8 L1193.3,553.8 C1192.58203,553.8 1192,553.21797 1192,552.5 C1192,551.78203 1192.58203,551.2 1193.3,551.2 L1206.7,551.2 Z M1206.7,546 C1207.41797,546 1208,546.58203 1208,547.3 C1208,548.01797 1207.41797,548.6 1206.7,548.6 L1193.3,548.6 C1192.58203,548.6 1192,548.01797 1192,547.3 C1192,546.58203 1192.58203,546 1193.3,546 L1206.7,546 Z" id="Menu"></path>
        </g>
    </g>
</svg>