<?xml version="1.0" encoding="UTF-8"?>
<svg viewBox="0 0 64 64" version="1.1" xmlns="http://www.w3.org/2000/svg" xmlns:xlink="http://www.w3.org/1999/xlink">
    <g id="Site" stroke="none" stroke-width="1" fill="none" fill-rule="evenodd">
        <g id="Artboard" transform="translate(-818.000000, -85.000000)" fill="#DE212C" fill-rule="nonzero">
            <path d="M869,116.342849 L866.92478,122.277277 L863.956427,121.153598 L864.254138,120.275724 L859.876037,118.607764 L859.149272,120.635653 C859.060234,120.889661 858.874487,121.097981 858.632656,121.215049 C858.39203,121.331596 858.111492,121.331596 857.870866,121.215049 L851.864111,118.941356 L857.275445,137.315258 C857.328698,137.47216 857.303841,137.645137 857.208577,137.780586 C857.113313,137.916036 856.959147,137.997599 856.793853,138 L855.296543,138 C855.072003,137.990396 854.878425,137.838663 854.814952,137.622514 L849.736354,120.477635 L849.736354,137.446939 C849.736704,137.727859 849.517099,137.959618 849.23725,137.973664 L847.722427,137.973664 C847.442579,137.959618 847.222973,137.727859 847.223324,137.446939 L847.223324,120.477635 L842.170995,137.596178 C842.109911,137.813944 841.914931,137.966775 841.689404,137.973664 L840.192093,137.973664 C840.026799,137.971262 839.872634,137.8897 839.77737,137.75425 C839.682105,137.6188 839.657249,137.445824 839.710502,137.288922 L845.839844,116.641326 L833.721259,112.058824 L833.58116,112.462646 C833.372368,112.86332 833.013252,113.16433 832.582936,113.299356 C832.15262,113.434381 831.686413,113.392343 831.287035,113.182503 L828.344951,112.058824 C827.417728,111.836905 826.837866,110.9122 827.040276,109.978263 L830.901762,98.9170504 C831.107062,98.5152487 831.464555,98.2128114 831.894146,98.0774966 C832.323738,97.9421817 832.789517,97.9853009 833.187131,98.1971937 L836.146727,99.3033149 C837.068901,99.5411467 837.650292,100.453826 837.47767,101.392655 L837.337571,101.787698 L861.460909,110.979039 C861.984984,111.190944 862.248038,111.78046 862.056331,112.313407 L861.364591,114.279845 L865.79523,115.947806 L866.040403,115.263064 L869,116.342849 Z" id="Observatoire" transform="translate(848.000000, 118.000000) scale(-1, 1) translate(-848.000000, -118.000000) "></path>
        </g>
    </g>
</svg>
