<?xml version="1.0" encoding="UTF-8"?>
<svg viewBox="0 0 64 64" version="1.1" xmlns="http://www.w3.org/2000/svg" xmlns:xlink="http://www.w3.org/1999/xlink">
    <g id="Site" stroke="none" stroke-width="1" fill="none" fill-rule="evenodd">
        <g id="Artboard" transform="translate(-811.000000, -1313.000000)" fill="#FF5638" fill-rule="nonzero">
            <path d="M862,1344.34285 L859.92478,1350.27728 L856.956427,1349.1536 L857.254138,1348.27572 L852.876037,1346.60776 L852.149272,1348.63565 C852.060234,1348.88966 851.874487,1349.09798 851.632656,1349.21505 C851.39203,1349.3316 851.111492,1349.3316 850.870866,1349.21505 L844.864111,1346.94136 L850.275445,1365.31526 C850.328698,1365.47216 850.303841,1365.64514 850.208577,1365.78059 C850.113313,1365.91604 849.959147,1365.9976 849.793853,1366 L848.296543,1366 C848.072003,1365.9904 847.878425,1365.83866 847.814952,1365.62251 L842.736354,1348.47764 L842.736354,1365.44694 C842.736704,1365.72786 842.517099,1365.95962 842.23725,1365.97366 L840.722427,1365.97366 C840.442579,1365.95962 840.222973,1365.72786 840.223324,1365.44694 L840.223324,1348.47764 L835.170995,1365.59618 C835.109911,1365.81394 834.914931,1365.96677 834.689404,1365.97366 L833.192093,1365.97366 C833.026799,1365.97126 832.872634,1365.8897 832.77737,1365.75425 C832.682105,1365.6188 832.657249,1365.44582 832.710502,1365.28892 L838.839844,1344.64133 L826.721259,1340.05882 L826.58116,1340.46265 C826.372368,1340.86332 826.013252,1341.16433 825.582936,1341.29936 C825.15262,1341.43438 824.686413,1341.39234 824.287035,1341.1825 L821.344951,1340.05882 C820.417728,1339.83691 819.837866,1338.9122 820.040276,1337.97826 L823.901762,1326.91705 C824.107062,1326.51525 824.464555,1326.21281 824.894146,1326.0775 C825.323738,1325.94218 825.789517,1325.9853 826.187131,1326.19719 L829.146727,1327.30331 C830.068901,1327.54115 830.650292,1328.45383 830.47767,1329.39265 L830.337571,1329.7877 L854.460909,1338.97904 C854.984984,1339.19094 855.248038,1339.78046 855.056331,1340.31341 L854.364591,1342.27985 L858.79523,1343.94781 L859.040403,1343.26306 L862,1344.34285 Z" id="Observatoire" transform="translate(841.000000, 1346.000000) scale(-1, 1) translate(-841.000000, -1346.000000) "></path>
        </g>
    </g>
</svg>
