<?xml version="1.0" encoding="UTF-8"?>
<svg width="80px" height="80px" viewBox="0 0 80 80" version="1.1" xmlns="http://www.w3.org/2000/svg" xmlns:xlink="http://www.w3.org/1999/xlink">
    <title>Group 18</title>
    <g id="Site" stroke="none" stroke-width="1" fill="none" fill-rule="evenodd">
        <g id="Desktop-HD-Copy-3" transform="translate(-684.000000, -1636.000000)">
            <g id="Group-13" transform="translate(244.000000, 1364.000000)">
                <g id="Group-19" transform="translate(408.000000, 240.000000)">
                    <g id="Group-18" transform="translate(32.000000, 32.000000)">
                        <circle id="Oval" fill="#F5F5FE" cx="40" cy="40" r="40"></circle>
                        <path d="M57,38.6742791 L55.32006,43.4218216 L52.9171077,42.5228786 L53.1581118,41.8205795 L49.6139345,40.486211 L49.0256011,42.1085221 C48.9535231,42.3117286 48.803156,42.4783848 48.6073881,42.5720396 C48.4125959,42.6652764 48.1854935,42.6652764 47.9907013,42.5720396 L43.12809,40.7530847 L47.5086932,55.4522066 C47.5518029,55.5777279 47.5316807,55.7161092 47.4545621,55.8244689 C47.3774435,55.9328286 47.252643,55.9980789 47.1188337,56 L45.906725,56 C45.7249551,55.9923169 45.5682485,55.8709306 45.5168655,55.6980114 L41.4056199,41.9821083 L41.4056199,55.5575515 C41.4059036,55.7822873 41.2281275,55.9676944 41.0015836,55.978931 L39.7752983,55.978931 C39.5487544,55.9676944 39.3709784,55.7822873 39.3712621,55.5575515 L39.3712621,41.9821083 L35.2812815,55.6769424 C35.2318327,55.8511551 35.0739922,55.9734197 34.891422,55.978931 L33.6793133,55.978931 C33.545504,55.9770099 33.4207035,55.9117597 33.3435849,55.8034 C33.2664663,55.6950403 33.2463441,55.556659 33.2894538,55.4311377 L38.2513021,38.9130608 L28.4410193,35.2470591 L28.3276056,35.5701167 C28.1585834,35.8906557 27.8678706,36.1314639 27.5195195,36.2394845 C27.1711684,36.3475051 26.7937631,36.3138743 26.4704567,36.146002 L24.0887695,35.2470591 C23.3381606,35.0695243 22.8687484,34.3297604 23.0326047,33.58261 L26.1585691,24.7336403 C26.3247648,24.4121989 26.6141633,24.1702491 26.9619279,24.0619973 C27.3096924,23.9537454 27.6867518,23.9882407 28.0086296,24.157755 L30.4044935,25.0426519 C31.1510152,25.2329173 31.6216653,25.9630609 31.4819234,26.714124 L31.3685097,27.0301586 L50.8969267,34.3832311 C51.3211777,34.5527549 51.5341262,35.0243681 51.3789348,35.4507259 L50.8189548,37.023876 L54.4056622,38.3582445 L54.6041361,37.8104511 L57,38.6742791 Z" id="Observatoire" fill="#CACAFB" fill-rule="nonzero" transform="translate(40.000000, 40.000000) scale(-1, 1) translate(-40.000000, -40.000000) "></path>
                    </g>
                </g>
            </g>
        </g>
    </g>
</svg>