<?xml version="1.0" encoding="UTF-8"?>
<svg viewBox="0 0 40 40" version="1.1" xmlns="http://www.w3.org/2000/svg" xmlns:xlink="http://www.w3.org/1999/xlink">
    <g id="Site" stroke="none" stroke-width="1" fill="none" fill-rule="evenodd">
        <g id="Main-Copy" transform="translate(-768.000000, -2321.000000)">
            <g id="outils" transform="translate(768.000000, 2321.000000)">
                <circle id="Oval" fill="#71F5E9" cx="20" cy="20" r="20"></circle>
                <path d="M19.9999999,10.4994949 C21.9329965,10.4994949 23.4999999,12.0664983 23.4999999,13.9994949 L23.499,16.4984949 L26,16.4994949 C27.9329966,16.4994949 29.5,18.0664983 29.5,19.9994949 C29.5,21.9324916 27.9329966,23.4994949 26,23.4994949 L23.499,23.4984949 L23.4999999,25.9994949 C23.4999999,27.9324916 21.9329965,29.4994949 19.9999999,29.4994949 C18.0670033,29.4994949 16.4999999,27.9324916 16.4999999,25.9994949 L16.499,23.4984949 L14,23.4994949 C12.0670034,23.4994949 10.5,21.9324916 10.5,19.9994949 C10.5,18.0664983 12.0670034,16.4994949 14,16.4994949 L16.499,16.4984949 L16.4999999,13.9994949 C16.4999999,12.0664983 18.0670033,10.4994949 19.9999999,10.4994949 Z" id="Combined-Shape" fill="#0F3AE6"></path>
            </g>
        </g>
    </g>
</svg>
