<?xml version="1.0" encoding="UTF-8" standalone="no"?>
<svg
   xmlns:dc="http://purl.org/dc/elements/1.1/"
   xmlns:cc="http://creativecommons.org/ns#"
   xmlns:rdf="http://www.w3.org/1999/02/22-rdf-syntax-ns#"
   xmlns:svg="http://www.w3.org/2000/svg"
   xmlns="http://www.w3.org/2000/svg"
   xmlns:sodipodi="http://sodipodi.sourceforge.net/DTD/sodipodi-0.dtd"
   xmlns:inkscape="http://www.inkscape.org/namespaces/inkscape"
   id="a1bb6ffe-8d83-4899-8fa0-fcb3165ea164"
   data-name="Layer 1"
   width="400"
   height="240"
   viewBox="0 0 400.00001 240"
   version="1.1"
   sodipodi:docname="outilsIllustration.svg"
   inkscape:version="1.0.1 (c497b03c, 2020-09-10)">
  <metadata
     id="metadata203">
    <rdf:RDF>
      <cc:Work
         rdf:about="">
        <dc:format>image/svg+xml</dc:format>
        <dc:type
           rdf:resource="http://purl.org/dc/dcmitype/StillImage" />
        <dc:title>work_in_progress</dc:title>
      </cc:Work>
    </rdf:RDF>
  </metadata>
  <defs
     id="defs201" />
  <sodipodi:namedview
     pagecolor="#ffffff"
     bordercolor="#666666"
     borderopacity="1"
     objecttolerance="10"
     gridtolerance="10"
     guidetolerance="10"
     inkscape:pageopacity="0"
     inkscape:pageshadow="2"
     inkscape:window-width="1756"
     inkscape:window-height="881"
     id="namedview199"
     showgrid="false"
     inkscape:zoom="0.99586261"
     inkscape:cx="249.54465"
     inkscape:cy="308.27546"
     inkscape:window-x="1535"
     inkscape:window-y="78"
     inkscape:window-maximized="0"
     inkscape:current-layer="a1bb6ffe-8d83-4899-8fa0-fcb3165ea164"
     inkscape:document-rotation="0"
     lock-margins="true"
     units="mm"
     width="250mm"
     scale-x="0.2" />
  <title
     id="title10">work_in_progress</title>
  <ellipse
     cx="33.993946"
     cy="234.82077"
     rx="33.976898"
     ry="3.4891074"
     fill="#e6e6e6"
     id="ellipse12"
     style="stroke-width:0.418691" />
  <rect
     x="88.726204"
     y="0.17646065"
     width="311.27432"
     height="199.35394"
     fill="#e6e6e6"
     id="rect14"
     style="stroke-width:0.452185" />
  <rect
     x="97.627151"
     y="22.203146"
     width="293.47311"
     height="139.36685"
     fill="#ffffff"
     id="rect16"
     style="stroke-width:0.418691" />
  <rect
     x="88.593292"
     width="311.27432"
     height="13.224072"
     fill="#6c63ff"
     id="rect18"
     style="fill:#fcfc8e;fill-opacity:1;stroke-width:0.452185"
     y="0" />
  <ellipse
     cx="98.420509"
     cy="6.4112058"
     fill="#fff"
     id="circle20"
     style="fill:#2f2e41;fill-opacity:1;stroke-width:0.418691"
     rx="2.4509819"
     ry="2.1013358" />
  <ellipse
     cx="107.72382"
     cy="6.4112058"
     fill="#fff"
     id="circle22"
     style="fill:#2f2e41;fill-opacity:1;stroke-width:0.418691"
     rx="2.4509819"
     ry="2.1013358" />
  <ellipse
     cx="117.02714"
     cy="6.4112058"
     fill="#fff"
     id="circle24"
     style="fill:#2f2e41;fill-opacity:1;stroke-width:0.418691"
     rx="2.4509819"
     ry="2.1013358" />
  <path
     d="m 264.41339,57.291139 a 2.3665043,2.0289095 0 0 0 -0.087,0.478395 z"
     fill="#7f77ff"
     id="path26"
     style="stroke-width:0.418691" />
  <path
     d="m 226.88102,72.016083 c -0.0172,-0.350252 -0.0903,-0.496615 -0.15662,-0.514274 0.048,0.325199 0.0929,0.59229 0.15662,0.514274 z"
     fill="#7f77ff"
     id="path28"
     style="stroke-width:0.418691" />
  <path
     d="m 226.12305,79.408758 c -0.0125,0.151711 -0.0266,0.292051 -0.0486,0.462741 a 0.85010893,0.72883622 0 0 1 0.0486,-0.462741 z"
     fill="#7f77ff"
     id="path30"
     style="stroke-width:0.418691" />
  <path
     d="m 264.32646,57.769531 -0.23006,1.229009 c 0.23868,0.08599 0.1772,-0.629888 0.23006,-1.229009 z"
     fill="#7f77ff"
     id="path32"
     style="stroke-width:0.418691" />
  <path
     d="m 277.27027,46.31808 0.43578,-7.75e-4 a 2.2439124,1.923806 0 0 0 0.36203,-0.255093 z"
     fill="#7f77ff"
     id="path34"
     style="stroke-width:0.418691" />
  <path
     d="m 294.34927,46.964433 a 0.51594375,0.44234154 0 0 1 0.39296,-0.365275 2.8103019,2.4093969 0 0 0 -0.39069,-0.377408 c -0.21104,-0.02315 0.0125,0.509785 -0.003,0.742683 z"
     fill="#7f77ff"
     id="path36"
     style="stroke-width:0.418691" />
  <path
     d="m 312.21893,36.521922 c 0.0571,-0.0074 0.11122,-0.01474 0.15456,-0.02215 z"
     fill="#7f77ff"
     id="path38"
     style="stroke-width:0.418691" />
  <path
     d="m 311.8627,36.572961 0.35626,-0.05105 c -0.11811,0.01537 -0.25237,0.03136 -0.35626,0.05105 z"
     fill="#7f77ff"
     id="path40"
     style="stroke-width:0.418691" />
  <path
     d="m 263.59847,47.577282 a 0.2069111,0.17739409 0 0 0 -0.2219,0.08706 c 0.0776,0.0433 0.15175,-0.0012 0.2219,-0.08706 z"
     fill="#7f77ff"
     id="path42"
     style="stroke-width:0.418691" />
  <path
     d="m 333.99491,37.120025 0.0333,0.250012 a 1.3873869,1.1894685 0 0 0 0.34842,0.05411 z"
     fill="#7f77ff"
     id="path44"
     style="stroke-width:0.418691" />
  <path
     d="m 224.74713,88.386893 c 0.005,0 0.005,0.0043 -0.005,0.0114 0,0.0043 -0.005,0.0077 -0.009,0.0114 0,0.0077 -0.0663,0.01517 -0.11498,0.02272 a 0.37942896,0.32530133 0 0 0 -0.0752,-0.0114 c 0.0663,-0.0077 0.13282,-0.01895 0.18585,-0.02272 0.009,-0.0077 0.0125,-0.0114 0.0177,-0.0114 z"
     fill="#7f77ff"
     id="path46"
     style="stroke-width:0.418691" />
  <path
     d="m 174.93708,147.12407 c -1.7437,-0.4764 2.8378,-0.61163 0.21256,-1.14133 0.24446,0.20881 -2.38607,0.83162 -0.21256,1.14133 z"
     fill="#7f77ff"
     id="path48"
     style="stroke-width:0.418691" />
  <path
     d="m 188.87585,95.267494 a 1.0895322,0.93410444 0 0 1 -0.27428,0.337563 c 0.13281,-0.250319 0.20793,-0.326194 0.27428,-0.337563 z"
     fill="#7f77ff"
     id="path50"
     style="stroke-width:0.418691" />
  <path
     d="m 214.69096,89.49826 a 4.3570887,3.735526 0 0 1 -0.71228,-0.06824 z"
     fill="#7f77ff"
     id="path52"
     style="stroke-width:0.418691" />
  <path
     d="m 179.637,97.150497 a 1.9293313,1.6541016 0 0 0 -0.73545,1.55e-4 0.73525381,0.63036581 0 0 0 0.16076,0.06482 1.1157589,0.95658976 0 0 1 0.57469,-0.06499 z"
     fill="#7f77ff"
     id="path54"
     style="stroke-width:0.418691" />
  <path
     d="m 179.637,97.150497 c 0.0923,0.01389 0.18902,0.02984 0.31213,0.04278 a 2.4124103,2.0682667 0 0 0 -0.31213,-0.04278 z"
     fill="#7f77ff"
     id="path56"
     style="stroke-width:0.418691" />
  <path
     d="m 164.39512,97.196528 c 0.0823,0.04081 0.19132,0.07133 0.28698,0.107348 0.15409,-0.009 0.33413,-0.01938 0.49287,-0.02864 z"
     fill="#7f77ff"
     id="path58"
     style="stroke-width:0.418691" />
  <path
     d="m 177.30661,97.554692 a 0.06204438,0.05319341 0 0 1 -0.0355,0.04175 c 0.0177,-0.02272 0.0355,-0.04175 0.0355,-0.04175 z"
     fill="#7f77ff"
     id="path60"
     style="stroke-width:0.418691" />
  <path
     d="m 331.45616,146.35051 c -0.10044,-0.008 -0.19974,-0.0145 -0.30975,-0.0247 0.11592,0.0134 0.21659,0.02 0.30975,0.0247 z"
     fill="#7f77ff"
     id="path62"
     style="stroke-width:0.418691" />
  <path
     d="m 335.64956,134.11147 c -0.005,1.5e-4 -0.008,0.003 -0.0109,0.003 0.005,0.0145 0.008,0.0107 0.0109,-0.003 z"
     fill="#7f77ff"
     id="path64"
     style="stroke-width:0.418691" />
  <path
     d="m 213.36372,89.843419 a 2.4343819,2.0871039 0 0 0 0.46453,-0.117585 c 0.32297,0.0721 -0.11952,0.06824 -0.46453,0.117585 z"
     fill="#7f77ff"
     id="path66"
     style="stroke-width:0.418691" />
  <path
     d="m 335.19765,87.372175 c 0.0238,-0.08992 0.0488,-0.191085 0.0784,-0.314466 -0.0288,0.106242 -0.0526,0.209801 -0.0784,0.314466 z"
     fill="#7f77ff"
     id="path68"
     style="stroke-width:0.418691" />
  <path
     d="m 335.99767,127.77015 a 0.93299004,0.79989388 0 0 1 0.1991,-0.24276 l 0.062,0.18965 a 4.0007982,3.4300623 0 0 0 -0.0885,-1.16447 13.178122,11.29819 0 0 0 0.16808,-1.52861 c 0.46896,-0.21621 0.25218,-2.16963 0.27873,-3.11029 -0.61936,0.0759 -0.52205,-1.13415 -1.02198,-0.0303 0.0355,-0.0644 0.0576,0.25792 0.0842,0.83448 a 2.9823812,2.5569281 0 0 0 0.0663,0.40205 c -0.0177,-0.019 -0.0355,-0.0417 -0.0574,-0.0646 0.0125,0.61827 0.0266,1.4262 0.0443,2.34413 a 4.4726042,3.8345626 0 0 1 -0.23889,-2.56791 c -0.39818,-0.48173 -0.80963,-1.01653 -0.99988,-1.3162 0.86716,-1.28963 1.33612,-3.77785 1.86701,-4.12304 -0.34509,-2.8789 -0.23006,-6.78198 -1.39805,-8.59504 -0.15034,-0.81931 0.33625,-0.94067 0.52205,-1.24794 0.11499,0.47414 0.0973,1.03552 0.26546,1.29344 -0.30083,-1.63859 -0.11498,-4.8513 -0.9335,-5.242 0.36721,-2.06342 0.75211,1.16068 0.61939,-1.67651 l 0.24774,0.38309 c 1.28304,-5.480958 -1.96432,-8.94781 -0.48664,-14.937022 -0.0574,0.223776 -0.1106,0.356544 -0.20795,0.417227 0.73886,-7.047498 -0.69461,-14.527378 0.47781,-21.483842 0.23447,-1.976163 -0.28314,-2.192371 -0.68131,-3.398559 l 0.66804,-0.428613 -0.7698,-2.063421 c -0.5663,-2.924451 1.63693,-5.063738 0.57073,-8.769524 l -0.45129,0.477923 c 0.0885,-1.331357 -0.26542,-4.214094 0.25217,-3.990298 a 1.1031792,0.94580462 0 0 1 -0.23005,-0.955853 l 0.34954,-0.04173 -0.60171,-3.269608 c 0.25217,-2.529958 1.3892,0.398265 1.4556,-3.299956 -0.13282,-1.373085 -1.0176,-3.910637 -1.25207,-3.394789 -0.0125,0.553798 -0.21678,1.414824 -0.56631,1.456541 l -0.18138,-1.255498 c -0.0663,-0.01518 -0.12828,-0.03035 -0.19466,-0.04931 V 37.11994 h -0.63266 a 1.0640833,0.91228597 0 0 0 -0.83175,0 h -15.86071 l 0.17252,-0.147909 -0.52204,0.147909 h -2.23864 c 0.0663,-0.113776 0.27873,-0.208608 0.72114,-0.254125 -1.62809,-0.390673 -1.44227,0.280677 -2.83588,-0.155507 -0.15487,-0.06827 -0.0885,-0.106226 0.0576,-0.136564 l -1.59274,0.235166 c 0.31415,-0.166872 -0.261,-0.557566 0.7123,-0.44378 -2.84917,-0.45517 -4.5967,0.591714 -5.67176,-0.0075 l 0.2389,-0.04553 c -2.95979,0.197243 -1.70775,0.421046 -2.13249,0.807922 h -1.84929 l -0.37163,-0.265494 -0.49993,-0.356547 a 3.5237422,3.021061 0 0 0 -0.55303,-0.356548 5.2376659,4.4904841 0 0 0 -0.40702,0.576527 c -0.46009,-0.01895 -1.40688,-0.06067 -1.36266,-0.295844 -0.80961,0.201018 -0.64148,0.261722 -0.4468,0.322401 0.21233,0.06069 0.46896,0.117586 0.14157,0.307236 a 8.3470661,7.1563112 0 0 0 -1.5794,-0.185856 c -0.0574,0.842067 0.0125,1.862408 -0.009,2.639968 -0.0221,0.811702 -0.13282,1.335137 -0.5663,1.498264 0.51322,0.60308 0.39819,-1.612051 0.75654,0.185853 -1.15912,0.504455 0.19468,2.101341 -0.33623,3.599597 -0.59726,-0.432412 -0.27873,-1.919283 -0.81403,-0.371706 a 1.5745872,1.3499637 0 0 1 0.36275,0.538602 1.9693905,1.6884461 0 0 1 0.0177,0.618273 6.6434701,5.6957426 0 0 1 -0.35836,1.065847 2.1824919,1.8711474 0 0 0 -0.80077,-0.04173 c 0.26544,0.345158 -0.3274,0.417224 -1.21666,0.432389 -0.53534,0 -1.1503,0.0039 -1.77852,0.0039 -0.65919,0.0075 -1.3361,0.02275 -1.97319,0.07966 0.15928,-0.231367 -4.78255,-0.375509 -7.14504,-0.625861 l 0.0663,-0.117586 c -0.45569,0.697933 -2.89342,0.565161 -4.67194,0.7093 0.0709,-0.417227 0.38934,-0.580323 1.35379,-0.76618 l -1.67231,0.0039 c -0.39376,0.223799 -0.91137,0.341385 -1.99531,0.421041 l 0.42029,-0.523439 c -1.11046,0.01516 -2.22977,0.170672 -3.42875,0.276884 -0.60167,0.05311 -1.21664,0.09103 -1.86702,0.09863 -0.32294,0.0039 -0.65475,-0.0039 -0.99543,-0.01896 -0.16811,-0.0075 -0.34063,-0.019 -0.51319,-0.03416 q -0.29201,-0.02846 -0.58398,-0.05691 c -0.062,0.121382 0.15487,0.269313 0.29199,0.421046 a 3.9821138,3.4140434 0 0 1 0.46013,0.477929 0.3856872,0.3306668 0 0 1 0.0399,0.326193 h -1.54846 c 0.005,-0.144138 0.10606,-0.273112 0.43358,-0.341382 a 3.3400917,2.8636093 0 0 1 -1.4025,0.07966 c 0.35396,-0.144139 0.7654,-0.292073 1.22997,-0.440015 -1.68121,-0.193424 -0.69018,0.367938 -1.87144,0.32622 -0.24336,-0.371733 -1.13259,-0.265517 -1.22993,-0.561386 0.3318,-0.03791 1.28744,0.151731 1.71214,0.0075 -0.88039,-0.03791 -1.92008,-0.125177 -2.87571,-0.246563 a 3.7647617,3.2276977 0 0 1 -0.38047,1.046883 c 0.24775,0.01896 0.58841,0.375508 0.64151,1.350322 0.0177,1.24794 -0.11498,1.448947 -0.27873,1.528619 -0.0796,0.03791 -0.16811,0.04173 -0.25218,0.140344 a 1.0339134,0.88641997 0 0 0 -0.11936,0.216212 1.7779938,1.5243532 0 0 0 -0.0973,0.314794 c 0.30085,0.46276 -0.0125,1.676539 0.64152,1.710662 -0.005,0.55759 -0.30971,0.659987 -0.48669,0.876195 0.28758,0.986208 0.0842,4.604765 0.77867,3.493409 l 0.0443,-0.254128 c 0.0125,0.04932 0.0177,0.102391 0.031,0.163097 a 18.023536,15.45238 0 0 1 0.21239,2.96237 c -0.0266,0.826882 -0.11953,1.612051 -0.20795,2.302389 -0.65035,-0.04932 -1.25206,-0.09103 -1.81391,-0.113791 -0.28315,-0.0075 -0.55745,-0.01519 -0.83174,-0.0075 l -0.53091,0.01139 c -0.18582,0.01139 -0.37605,0.019 -0.56188,0.02655 l 0.009,-0.185861 c -2.2342,0.212408 -4.97277,0.125177 -6.56546,0.531034 -0.65924,-0.0039 -1.55734,-0.345173 -1.27417,-0.565153 -1.70777,0.140335 -1.89802,0.348948 -4.36228,0.04171 1.71216,-0.326197 -0.59281,-0.292073 1.75642,-0.238966 -2.21652,-0.163095 -2.7209,-0.462762 -5.10111,0.04931 0.80965,-0.481726 -1.66791,-0.603108 -2.72085,-0.462765 l 1.55288,0.345181 a 27.688932,23.738954 0 0 1 -3.27389,-0.01519 l 0.56628,-0.62964 c -2.26519,-0.383099 -4.31359,-0.05691 -6.22479,0.204822 a 18.061772,15.485161 0 0 1 -2.77397,0.246563 l -0.33624,-0.0039 -0.42913,-0.01896 c -0.33181,-0.01516 -0.66806,-0.03796 -1.00874,-0.07207 a 20.460888,17.54203 0 0 1 -2.2165,-0.333792 c -0.79636,0.220001 0.26546,0.295869 1.24318,0.3831 1.0043,0.08724 1.9157,0.185857 1.22552,0.44378 a 35.369837,30.324135 0 0 1 -4.35782,-0.481725 17.062613,14.628537 0 0 0 -0.59727,2.529988 c -0.053,0.496892 -0.0707,0.948269 -0.0707,1.346531 0,0.19725 0.005,0.386903 0.0177,0.561358 0.005,0.07967 0.009,0.197246 0.0177,0.235165 0.009,0.04552 0.0177,0.09484 0.0266,0.14034 a 4.9577902,4.2505342 0 0 0 0.35839,0.952064 5.1697564,4.4322622 0 0 1 0.44681,2.469278 c 0.26103,-0.329999 0.96446,-0.63723 1.20782,1.278253 -0.053,1.062049 -0.43359,1.642404 -0.77424,1.695508 -0.19023,0.03411 -0.36721,-0.09862 -0.46895,-0.394487 a 1.4159514,1.2139581 0 0 1 -0.0663,-0.231374 c -0.0221,-0.428621 0.0619,-0.633431 0.15049,-0.618269 -0.0973,-0.576551 -0.20796,-1.335171 -0.4911,-0.625841 l 0.26104,0.23137 a 8.2173025,7.0450591 0 0 0 -0.16813,0.986185 c -0.11952,1.02033 -0.19023,2.20756 -0.50436,1.786538 0.21678,1.156869 0.38048,0.758608 0.50879,-0.01139 -0.27871,2.048255 0.031,3.322712 -0.20795,5.541654 0.14596,-0.375528 0.45571,-0.724481 0.45128,-0.348976 -0.32738,3.466852 0.49995,1.52862 0.61498,3.876508 -0.40263,1.33514 -0.95565,-0.477927 -0.62384,1.885136 -0.26986,1.445152 -0.69459,0.307235 -0.90694,-0.265517 a 9.8158143,8.4155344 0 0 1 0.009,2.973767 c -0.0125,0.06447 -0.0221,0.12897 -0.0355,0.189653 -0.009,0.04552 -0.0177,0.09483 -0.0266,0.140339 l -0.0177,0.07965 c -0.005,0.02272 -0.009,0.01895 -0.0125,0.02658 l -0.0355,0.0379 a 0.80817325,0.69288289 0 0 1 -0.13282,0.102418 1.3190254,1.1308592 0 0 0 -0.17696,0.106182 0.90036938,0.77192674 0 0 0 -0.15929,-0.163101 0.29330116,0.25146014 0 0 1 0.0707,0.193451 1.641696,1.407499 0 0 0 0.16813,0.08342 1.6993137,1.4568973 0 0 0 0.35835,0.117585 c -0.0885,0.110014 -0.0929,0.220011 -0.26546,0.08351 a 0.2896882,0.24836259 0 0 1 -0.053,-0.04175 3.1514127,2.7018464 0 0 0 0.54862,0.534812 c 0.23004,0.201038 0.50433,0.417218 0.24332,0.618265 a 2.7575273,2.3641509 0 0 0 -1.11047,-0.0379 c -0.0929,0.0043 -0.18582,0.0043 -0.2743,0 a 3.5361368,3.0316874 0 0 1 -0.41589,-0.04175 0.74068004,0.63501796 0 0 1 -0.55744,-0.273099 c 0.41146,0.02658 0.70788,0.03412 0.92907,0.03035 0.11936,0 0.1637,-0.01517 0.1991,-0.04175 0.0619,-0.04552 0.0178,-0.13276 -0.0221,-0.223784 -0.0751,-0.155523 -0.10169,-0.329992 0.031,-0.417244 a 0.26095633,0.22372947 0 0 1 -0.0619,0.0077 0.37696905,0.32319234 0 0 1 -0.11498,-0.01895 c -0.16813,-0.0114 -0.34065,-0.02658 -0.52206,-0.04175 -0.11499,-0.06825 0.1106,-0.125164 0.32295,-0.159329 -0.2389,-0.04175 -0.45125,-0.0721 -0.63705,-0.09483 a 3.1090202,2.6655014 0 0 0 -1.11049,0 c -0.8052,0.163093 -0.63265,0.7662 -2.91553,0.75484 0.40701,-0.333798 -0.75211,-0.637255 -1.2786,-0.565187 1.30513,0.0077 0.62384,0.561389 -0.57071,0.819313 -2.07495,-0.261722 -2.25193,0.193451 -3.34025,0.163101 l 1.23877,0.125172 c -0.42031,0.337563 -1.45556,0.292055 -2.89785,0.398263 -0.0399,-0.08351 0.0707,-0.128971 0.23005,-0.163093 -1.49095,0.197224 -3.27831,-0.682746 -5.23823,-0.356552 a 0.26031422,0.22317897 0 0 0 -0.0574,0.0077 c -1.03526,-0.227565 -0.10169,-0.629634 -1.01312,-0.785139 -2.50411,0.436182 -2.71203,-0.462769 -5.34887,-0.102419 0.76098,0.455173 0.89371,0.345159 -0.96445,0.785156 l 4.33569,-0.318623 -2.78279,0.656211 c 1.30952,0.0077 2.76067,-0.284475 3.54376,-0.204828 -1.32724,0.36793 -1.1901,0.254126 -0.56188,0.629651 -1.79178,-0.678965 -3.5482,0.398262 -5.6143,-0.0607 l 0.062,-1.12271 a 12.302311,10.547319 0 0 0 -3.96851,0.01517 l -0.50431,0.05684 -0.2522,0.02658 -0.0663,0.0077 -0.10169,0.0077 -0.20793,0.01517 c -0.54419,0.03412 -1.09722,0.07202 -1.66793,0.10998 -1.11933,0.06447 -2.26078,0.110006 -3.56588,0.102419 -0.005,0.50068 -0.0222,1.020325 -0.053,1.562724 l 0.20797,-1.429964 0.16369,0.01517 a 0.17937299,0.15378445 0 0 1 -0.0796,0.05684 8.3014225,7.1171789 0 0 1 0.1858,2.146876 c 0,0.06447 -0.005,0.132751 -0.005,0.20103 v 0.0043 c -0.009,0.356552 -0.0221,0.72828 -0.0265,1.099998 q 0,0.330009 0.0125,0.648616 c 0.005,0.106182 0.0125,0.208609 0.0177,0.31101 l 0.0125,0.147935 0.0177,0.102418 c -0.43799,-0.106225 -0.59724,0.595512 -0.86715,1.07343 0.0796,-0.01517 0.11952,0.136549 0.14596,0.375508 0.0266,0.09863 0.0399,0.219986 0.0709,0.364123 a 2.3392013,2.0055014 0 0 0 0.62381,1.046886 1.0950172,0.93880698 0 0 1 -0.22564,0.147935 7.7469751,6.6418265 0 0 1 -0.79635,-0.299642 1.2774243,1.0951927 0 0 0 -0.8052,0.07965 c -0.0574,0.02281 -0.11498,0.0493 -0.17255,0.07588 a 0.44521744,0.38170472 0 0 1 -0.14596,0.04175 c -0.062,0.01517 -0.1239,0.03035 -0.1814,0.04552 -0.24335,0.06447 -0.4734,0.132768 -0.69904,0.201039 a 7.7781848,6.668584 0 0 1 -3.38005,0.496891 c 0.94234,-0.405858 -0.48224,-0.671378 1.61922,-0.963424 -1.04852,-0.0043 -1.98644,-0.0721 -2.00413,0.185855 a 0.89997598,0.77158946 0 0 0 -0.35837,-0.04552 c -0.52647,0.0043 -1.37151,0.178268 -2.14575,0.257924 a 3.6345368,3.1160501 0 0 1 -1.1193,0 0.94443937,0.8097099 0 0 1 -0.23892,-0.0607 1.3405902,1.1493476 0 0 0 -0.1372,0.0607 2.1150259,1.8133058 0 0 1 -1.62367,0.462752 0.11308258,0.09695073 0 0 1 -0.031,-0.144137 c -0.23447,0.155531 -1.72543,0.242757 -0.77423,0.62587 -1.39365,-0.504487 -3.26506,-0.5576 -5.17188,-0.534837 -2.49965,0.02658 -5.0524,0.185872 -6.64513,-0.383079 -1.14143,0.0607 -2.3979,0.125164 -3.63224,0.174452 -0.61496,0.01895 -1.2255,0.04175 -1.8095,0.0607 -0.29198,0.0077 -0.57957,0.01517 -0.85385,0.02281 -0.3097,0.0043 -0.60611,0.0114 -0.88928,0.01517 0.0886,-0.05684 0.0886,-0.102419 0.13721,-0.128962 a 0.55599839,0.47668216 0 0 1 0.34066,-0.01903 c -0.0796,-0.0077 -0.13282,-0.01895 -0.23007,-0.02272 -0.0973,-0.0077 -0.19467,-0.0114 -0.28756,-0.01895 -0.18586,-0.0077 -0.35836,-0.0114 -0.51763,-0.01517 a 6.9219079,5.9344597 0 0 0 -0.81406,0.03789 2.4358516,2.088364 0 0 0 -0.94235,0.250353 2.6131264,2.2403496 0 0 1 -1.60155,0.515855 7.7071922,6.6077189 0 0 1 -0.0707,1.221348 c -0.17696,0.33 -0.28756,0.405858 -0.36277,0.295869 a 2.6071305,2.235209 0 0 1 -0.12836,-0.69793 c -0.0398,-0.603081 -0.0266,-1.285836 -0.15926,-0.777568 -0.71671,-0.273099 -0.66806,1.175831 -0.54417,2.761344 0.0619,0.92171 0.14159,1.32377 0.15484,1.90409 a 4.8845724,4.1877613 0 0 1 -0.25219,1.55897 l -0.0841,-0.45518 c -0.49106,1.43377 0.54421,3.50098 0.44241,5.84508 0,0 -0.1282,-0.11379 -0.21676,-0.0152 0.72999,1.60445 0.97332,4.63889 1.17681,6.89196 -0.56184,-0.70169 -0.29641,-1.02412 -0.86712,-0.5955 0.0797,1.01274 0.9158,-0.29585 1.07507,1.72208 -0.30527,0.65617 -0.57513,2.11268 -1.18567,2.30613 l -0.0359,-1.90397 c -0.78749,0.97479 0.031,2.46168 -0.10615,3.46682 l -0.3451,-0.12895 c 0.11057,2.91685 0.97775,2.95858 0.91581,6.09164 l 0.26103,-0.32244 c 0.86273,1.71449 -0.48224,1.43759 0.15928,3.14449 l -0.87599,0.51962 c 0.21236,1.13034 0.84501,3.95617 1.0087,5.98543 -0.64591,-1.14927 -0.97772,-3.51993 -1.36263,-4.98784 -0.005,1.11895 0.0663,3.80821 0.49551,4.39236 -0.0841,-0.45137 -0.29643,-1.02034 -0.1637,-1.46793 0.68575,1.3731 1.022,3.18237 1.00871,5.41648 -0.55303,-0.12903 -0.79192,0.44758 -0.90696,1.34273 -0.005,0.0568 -0.0133,0.11386 -0.0176,0.17448 -0.005,0.0834 -0.0133,0.1707 -0.0178,0.25794 -0.009,0.17828 -0.0176,0.36034 -0.031,0.54999 -0.009,0.37931 -0.0221,0.78137 -0.0355,1.19102 -0.0222,0.83827 -0.0443,1.71824 -0.0663,2.57167 2.02185,0.057 3.88,0.18206 4.95951,0.57276 l 0.3628,-0.0266 0.22561,-0.0228 0.43358,-0.038 q 0.43135,-0.0342 0.8627,-0.0569 c 0.57518,-0.0342 1.1503,-0.0454 1.72986,-0.0492 1.15471,-0.004 2.3227,0.038 3.5128,0.0948 2.38022,0.11387 4.85332,0.28447 7.5388,0.23896 -1.90238,-1.12652 1.56619,-0.0304 1.23878,-1.19102 1.23879,-0.0722 1.71659,-0.0531 1.8316,0.019 l -0.18138,-0.0342 c 0.0663,0.0152 0.11937,0.0266 0.19025,0.0418 v -0.004 l 3.7871,0.69033 c 0.89809,0.33758 -1.1901,0.25415 -1.07507,0.51583 2.73858,0.0911 1.15028,0.49314 2.95979,0.80035 -0.37166,-0.41344 0.95118,-0.59548 2.51294,-0.4362 l -2.19886,-0.5348 c 3.82693,-0.61827 3.30931,0.97482 7.16275,0.36032 l -1.22105,0.36793 c 1.98204,-0.21619 7.29993,0.008 9.24211,-0.92549 0.34953,0.13278 0.81405,0.45137 -0.0574,0.53481 4.72944,0.14036 10.52514,-0.98998 14.20165,-0.41723 l -0.35836,0.28448 c 0.8804,-0.0834 1.53516,-0.53482 2.64122,-0.25033 -0.0576,0.11763 -0.35837,0.28448 0.053,0.29964 0.46454,-0.0948 2.34042,-0.4969 3.5128,-0.33 l -0.99986,0.3186 c 2.90226,0.2352 4.95509,-0.13278 7.04332,-0.48929 a 27.759733,23.799654 0 0 1 3.90214,-0.48171 c -0.009,0.83447 3.61897,1.10759 5.43289,1.24033 l -0.0663,0.11762 a 48.080447,41.221507 0 0 0 6.44601,-0.26932 c 1.64139,-0.15551 3.23407,-0.35276 4.9197,-0.51585 h 0.005 c 0.10606,-0.0107 0.21236,-0.0228 0.32297,-0.0342 0.38935,-0.038 0.7875,-0.0722 1.19012,-0.10623 0.12374,-0.0107 0.25215,-0.0228 0.38046,-0.0342 q 0.41145,-0.0284 0.83618,-0.057 a 17.291718,14.824959 0 0 0 4.31797,0.52345 c 3.45973,0.14415 7.81314,0.0266 11.10474,0.36414 -0.76097,-0.15173 0.12374,-0.65241 1.00427,-0.73585 1.09279,0.15929 2.96863,-0.48932 3.04383,0.0606 a 0.42920102,0.36797313 0 0 1 -0.009,0.12514 l -0.39376,-0.0152 h -0.0221 l 0.005,0.004 c 0.8804,0.74724 3.26945,0.55 5.13647,0.56896 l 0.30526,-1.00137 c 4.88872,1.45654 12.80804,-0.5348 15.47579,0.76999 1.18124,-0.25032 2.64125,-0.24656 3.80922,-0.49689 l -0.062,0.53481 a 83.615256,71.68708 0 0 0 8.93684,0.0759 l -0.82289,0.3869 c 2.27847,0.0342 2.87571,-1.55135 4.98163,-1.5817 l 0.62823,0.80034 c 3.97732,-0.0107 7.99892,0.69413 11.92761,-0.0342 -0.062,0.11762 -0.18141,0.34898 -0.82289,0.3831 1.80948,0.0189 6.88845,0.50828 6.60531,-0.45517 0.43356,0.5424 4.16755,-0.0492 6.19827,-0.34896 l -0.33181,0.52725 c 0.90696,-0.33759 1.37147,-0.55379 1.92895,-0.7055 a 6.444029,5.5247528 0 0 1 0.96889,-0.19344 c 0.20348,-0.0266 0.39816,-0.0531 0.67688,-0.0759 0.33624,-0.0228 0.71672,-0.0454 1.14588,-0.0722 0.76094,0.0644 0.88926,0.35656 -0.005,0.31485 a 5.7241767,4.9075914 0 0 0 1.99531,-0.0759 5.7518414,4.9313096 0 0 1 1.69887,-0.23138 11.334651,9.7177007 0 0 1 0.0709,-1.14171 c 0.13282,0.43998 0.26543,0.90654 0.39374,1.39964 a 15.006155,12.865444 0 0 0 -0.11936,-2.43135 c -0.10623,-0.4855 -0.2743,-0.84584 -0.49995,-1.51722 -0.0177,-0.0911 -0.031,-0.18967 -0.0399,-0.29206 -0.009,-0.0948 -0.0178,-0.18965 -0.0266,-0.29207 -0.009,-0.1669 -0.0125,-0.34896 -0.009,-0.53103 a 10.010115,8.5821171 0 0 1 0.12844,-1.12654 c 0.1372,-0.73205 0.38048,-1.3541 0.65919,-1.48309 -0.34063,-0.23894 -0.79634,-1.20238 -0.63707,-2.24168 0.21237,-0.14033 0.34509,0.23517 0.40704,0.42862 0.42026,-2.94721 -0.71673,-4.38475 -0.1106,-6.41027 a 0.51956123,0.44544296 0 0 0 0.36716,-0.34135 c -0.0125,2.14684 -0.0443,3.90682 -0.0842,4.04717 0.56187,-0.0266 0.66362,-1.88136 1.44228,-0.3869 -0.4291,-1.51723 -1.3582,-4.11165 -1.09273,-5.95507 z m 0.49993,-3.92582 c 0.0885,0.62966 -0.0355,0.83827 -0.16368,0.92549 -0.009,-0.29583 -0.031,-0.64481 -0.0752,-1.09998 -0.0221,-0.0151 -0.0487,-0.0531 -0.0751,-0.0721 a 0.84253935,0.72234648 0 0 1 0.31412,0.24654 z M 311.17357,37.036594 a 0.97428362,0.83529671 0 0 1 0.21235,0.08344 H 310.448 c 0.22563,-0.03032 0.46454,-0.05689 0.72557,-0.08344 z"
     fill="#6c63ff"
     id="path70"
     style="fill:#fcfc8e;fill-opacity:1;stroke-width:0.418691" />
  <path
     d="m 225.03029,88.587923 a 0.16431069,0.14087087 0 0 1 -0.1106,0.04552 0.36767212,0.31522167 0 0 1 0.1106,-0.04552 z"
     fill="#7f77ff"
     id="path72"
     style="stroke-width:0.418691" />
  <path
     d="m 213.26216,89.860223 c 0.0344,-0.0043 0.0682,-0.01158 0.10231,-0.0174 -0.0355,0.0051 -0.0698,0.01097 -0.10231,0.0174 z"
     fill="#7f77ff"
     id="path74"
     style="stroke-width:0.418691" />
  <path
     d="m 335.68033,122.71772 a 2.3657356,2.0282504 0 0 1 -0.0452,-0.25854 c -0.0551,0.12814 -0.10169,0.25 -0.13986,0.37416 l 0.19488,0.2221 z"
     fill="#7f77ff"
     id="path76"
     style="stroke-width:0.418691" />
  <path
     d="m 264.41339,57.291139 a 0.62724022,0.53776095 0 0 1 0.0885,-0.175412 c -0.0302,0.05584 -0.0496,0.05584 -0.0745,0.0917 z"
     fill="#7f77ff"
     id="path78"
     style="stroke-width:0.418691" />
  <path
     d="m 295.33357,36.480712 c 0.1997,0.0042 0.4256,0.251236 0.38245,2.06613 l 0.13313,-2.230082 0.97713,0.0404 c -0.78881,-0.205972 -2.09123,-0.482861 -0.28859,-0.532356 -0.621,-0.06214 -1.09486,-0.109564 -1.42916,-0.143026 -0.14814,1.069412 0.0254,0.803614 0.225,0.798936 z"
     fill="#7f77ff"
     id="path80"
     style="stroke-width:0.418691" />
  <path
     d="m 295.36763,45.762599 c -0.0559,-0.424958 -0.14314,-0.436883 -0.23328,-0.386992 -0.0901,0.05408 -0.18338,0.162475 -0.2512,0.109526 0.21878,0.503439 0.27388,0.747452 0.48448,0.277466 z"
     fill="#7f77ff"
     id="path82"
     style="stroke-width:0.418691" />
  <path
     d="m 252.2944,61.888173 0.15409,-0.485147 c -1.1804,0.0698 -0.0125,0.187962 -0.15409,0.485147 z"
     fill="#7f77ff"
     id="path84"
     style="stroke-width:0.418691" />
  <polygon
     points="516.14,155.427 513.963,155.654 512.874,155.767 511.096,155.881 512.437,155.812 512.774,155.795 512.991,155.778 513.393,155.743 515,155.606 "
     fill="#7f77ff"
     id="polygon86"
     transform="matrix(0.45218496,0,0,0.38767829,-5.4781505e-6,0.61482665)" />
  <path
     d="m 167.16183,96.725246 0.3567,0.597217 c 0.79784,-0.10697 0.96523,-0.778331 -0.3567,-0.597217 z"
     fill="#7f77ff"
     id="path88"
     style="stroke-width:0.418691" />
  <path
     d="m 152.59632,127.31315 a 3.3219906,2.8480904 0 0 0 -0.23003,2.23707 c 0.0479,-0.89246 0.31963,-1.78259 0.23003,-2.23707 z"
     fill="#7f77ff"
     id="path90"
     style="stroke-width:0.418691" />
  <polygon
     points="604.535,378.395 602.713,378.309 600.654,378.825 "
     fill="#7f77ff"
     id="polygon92"
     transform="matrix(0.45218496,0,0,0.38767829,-5.4781505e-6,0.61482665)" />
  <path
     d="m 280.21312,98.514352 a 67.168164,57.586256 0 0 1 -2.23421,13.624628 c -5.36211,16.99286 -20.03272,29.35818 -27.93874,35.01364 a 17.291718,14.824959 0 0 1 -4.31797,-0.52345 q -0.42474,0.0285 -0.83618,0.0568 c -0.12828,0.0107 -0.25662,0.0228 -0.38048,0.0342 -0.40261,0.0342 -0.80077,0.0682 -1.1901,0.10622 -0.11061,0.0107 -0.21682,0.0228 -0.32299,0.0342 h -0.005 a 100.42686,86.100416 0 0 1 -5.47259,-17.75523 l -0.005,-0.004 v -0.004 c -1.36708,-7.78334 -1.58829,-16.91701 1.29186,-26.04309 a 66.208776,56.76373 0 0 1 5.09225,-11.155335 c 10.28178,-17.10668 28.06259,-27.298603 28.06259,-27.298603 0,0 8.78644,15.471876 8.25553,33.913693 z"
     fill="#ffffff"
     id="path94"
     style="stroke-width:0.418691" />
  <path
     d="m 226.12305,79.408758 c -0.0125,0.151711 -0.0266,0.292051 -0.0486,0.462741 a 0.85010893,0.72883622 0 0 1 0.0486,-0.462741 z"
     fill="#ffffff"
     id="path96"
     style="stroke-width:0.418691" />
  <path
     d="m 213.36372,89.843419 a 2.4343819,2.0871039 0 0 0 0.46453,-0.117585 c 0.32297,0.0721 -0.11952,0.06824 -0.46453,0.117585 z"
     fill="#ffffff"
     id="path98"
     style="stroke-width:0.418691" />
  <path
     d="m 213.97868,89.429981 0.71228,0.06825 a 4.3570887,3.735526 0 0 1 -0.71228,-0.06825 z"
     fill="#ffffff"
     id="path100"
     style="stroke-width:0.418691" />
  <path
     d="m 224.61885,88.43241 a 0.37942896,0.32530133 0 0 0 -0.0752,-0.0114 c 0.0663,-0.0077 0.13282,-0.01895 0.18585,-0.02272 0.009,-0.0077 0.0125,-0.0114 0.0177,-0.0114 0.005,0 0.005,0.0043 -0.005,0.0114 0,0.0043 -0.005,0.0077 -0.009,0.0114 -2e-5,0.0077 -0.0665,0.01517 -0.11498,0.02272 z"
     fill="#ffffff"
     id="path102"
     style="stroke-width:0.418691" />
  <path
     d="m 225.03029,88.587923 a 0.16431069,0.14087087 0 0 1 -0.1106,0.04552 0.36767212,0.31522167 0 0 1 0.1106,-0.04552 z"
     fill="#ffffff"
     id="path104"
     style="stroke-width:0.418691" />
  <path
     d="m 250.29237,129.07493 c 0,0.008 -0.005,0.0153 -0.005,0.0228 a 100.28489,85.978699 0 0 1 -5.40191,17.58837 c -0.12828,0.0107 -0.25661,0.0228 -0.38046,0.0342 -0.40263,0.0342 -0.80079,0.0682 -1.19011,0.10622 -0.1106,0.0107 -0.2168,0.0228 -0.323,0.0342 h -0.005 c -1.68561,0.16309 -3.27829,0.36033 -4.91969,0.51583 -7.8264,-5.54921 -22.81552,-18.01699 -28.24397,-35.23741 a 66.924272,57.377157 0 0 1 -2.23863,-13.628424 81.425455,69.809666 0 0 1 0.438,-9.008496 c 1.9599,-0.326194 3.74724,0.553776 5.23821,0.356552 -0.15926,0.03412 -0.26987,0.07965 -0.23004,0.163102 1.44229,-0.106225 2.47754,-0.0607 2.89782,-0.398271 l -1.23875,-0.125173 c 1.08832,0.03035 1.2653,-0.424822 3.34025,-0.163101 1.19453,-0.257923 1.87586,-0.811716 0.57071,-0.819313 0.52649,-0.0721 1.68561,0.231398 1.27859,0.565188 2.28291,0.0114 2.11036,-0.591739 2.91556,-0.754841 h 1.11047 c 0.1858,0.02281 0.39817,0.05307 0.63707,0.09483 -0.21236,0.03412 -0.438,0.09106 -0.32298,0.159338 0.18141,0.01517 0.35394,0.03035 0.52207,0.04175 a 0.37696905,0.32319234 0 0 0 0.11498,0.01895 0.26095633,0.22372947 0 0 0 0.0619,-0.0077 c -0.13282,0.08726 -0.10622,0.261721 -0.031,0.417243 0.0399,0.09103 0.0842,0.178259 0.0222,0.223776 -0.0355,0.02658 -0.0796,0.04175 -0.19912,0.04175 -0.22121,0.0043 -0.51761,-0.0043 -0.92905,-0.03035 a 0.74068004,0.63501796 0 0 0 0.55744,0.27309 3.5361368,3.0316874 0 0 0 0.41588,0.04175 c 0.0885,0.0043 0.18138,0.0043 0.27429,0 a 2.7575273,2.3641509 0 0 1 1.11049,0.03789 c 0.261,-0.201039 -0.0125,-0.417218 -0.24334,-0.618266 a 3.1514127,2.7018464 0 0 1 -0.5486,-0.534811 0.2896882,0.24836259 0 0 0 0.053,0.04175 c 0.17255,0.136549 0.17698,0.02658 0.26548,-0.08351 a 1.6993137,1.4568973 0 0 1 -0.35836,-0.117585 h 0.32295 v -0.606879 c 0.0125,-0.0607 0.0221,-0.125181 0.0355,-0.189654 a 9.8158143,8.4155344 0 0 0 -0.009,-2.973761 c 0.21236,0.572752 0.63709,1.710669 0.90696,0.265517 -0.33182,-2.363062 0.22121,-0.549996 0.62382,-1.885137 -0.11498,-2.347899 -0.94234,-0.409655 -0.61496,-3.876507 0.005,-0.375505 -0.30528,-0.02655 -0.45129,0.348976 0.23892,-2.218946 -0.0707,-3.493403 0.20795,-5.541658 -0.12844,0.769998 -0.292,1.168259 -0.50879,0.01139 0.31413,0.421018 0.3849,-0.766204 0.50436,-1.786538 0.10169,0.08346 0.20794,0.170694 0.31413,0.257929 0.15487,0.128973 0.3141,0.261718 0.46897,0.394491 5.51252,4.638888 11.97627,11.132584 16.78533,19.154905 a 0.00430934,0.00369459 0 0 1 0.005,0.0043 65.796858,56.410574 0 0 1 5.09666,11.151578 c 2.87573,9.11848 2.65895,18.23698 1.29631,26.02029 z"
     fill="#ffffff"
     id="path106"
     style="stroke-width:0.418691" />
  <path
     d="m 188.87585,95.267494 a 1.0895322,0.93410444 0 0 1 -0.27428,0.337563 c 0.13281,-0.250319 0.20793,-0.326194 0.27428,-0.337563 z"
     fill="#3f3d56"
     id="path108"
     style="stroke-width:0.418691" />
  <path
     d="m 177.30661,97.554692 a 0.06204438,0.05319341 0 0 1 -0.0355,0.04175 c 0.0177,-0.02272 0.0355,-0.04175 0.0355,-0.04175 z"
     fill="#3f3d56"
     id="path110"
     style="stroke-width:0.418691" />
  <path
     d="m 243.31545,146.82641 c -0.1106,0.0107 -0.21681,0.0228 -0.323,0.0342 h -0.005 c -1.68561,0.16308 -3.27829,0.36033 -4.91968,0.51584 a 48.080447,41.221507 0 0 1 -6.44603,0.26931 l 0.0663,-0.11762 c -1.8139,-0.13278 -5.44174,-0.40585 -5.43289,-1.24032 a 27.759733,23.799654 0 0 0 -3.90212,0.48171 c -9.56952,-2.67029 -20.71404,-7.19163 -29.83228,-14.80047 -12.85227,-10.72295 -18.65236,-25.0493 -21.19628,-34.281592 1.90684,-0.02281 3.77826,0.03035 5.17188,0.534837 -0.95121,-0.383113 0.53977,-0.470348 0.77422,-0.625879 a 0.11308258,0.09695073 0 0 0 0.031,0.144146 2.1150259,1.8133058 0 0 0 1.62367,-0.462743 h 3.64114 v -0.257924 a 0.89997598,0.77158946 0 0 1 0.35837,0.04552 c 0.0177,-0.257923 0.9556,-0.189653 2.00413,-0.185864 -2.10148,0.292055 -0.67688,0.557574 -1.61924,0.963433 a 7.7781848,6.668584 0 0 0 3.38005,-0.496891 c 0.22564,-0.06825 0.45571,-0.136541 0.69904,-0.201039 0.0574,-0.01517 0.11951,-0.03035 0.18141,-0.04552 a 0.44521744,0.38170472 0 0 0 0.14595,-0.04175 c 0.0574,-0.02658 0.11499,-0.05307 0.17255,-0.07587 a 1.2774243,1.0951927 0 0 1 0.80522,-0.07965 7.7469751,6.6418265 0 0 0 0.79634,0.299642 1.0950172,0.93880698 0 0 0 0.22563,-0.147935 2.3392013,2.0055014 0 0 1 -0.62379,-1.046886 c -0.031,-0.144137 -0.0443,-0.265494 -0.0709,-0.364123 -0.0265,-0.238959 -0.0663,-0.390692 -0.14596,-0.375508 0.2699,-0.477918 0.42916,-1.179646 0.86716,-1.07343 l -0.0177,-0.10241 -0.0125,-0.147935 c -0.005,-0.102392 -0.0125,-0.204828 -0.0177,-0.31101 q -0.0125,-0.318658 -0.0125,-0.648624 c 0.005,-0.37171 0.0177,-0.743446 0.0265,-1.09999 a 87.185455,74.747971 0 0 1 17.87813,6.626467 67.224537,57.634587 0 0 1 13.24159,8.522968 c 7.98121,6.6606 13.24158,14.70946 16.68359,22.06417 v 0.004 l 0.005,0.004 a 100.22998,85.931622 0 0 1 5.80009,17.72114 z"
     fill="#3f3d56"
     id="path112"
     style="fill:#f75f43;fill-opacity:1;stroke-width:0.418691" />
  <path
     d="m 264.76831,146.95157 h 0.0221 a 0.03346173,0.02868823 0 0 1 -0.0177,0.004 z"
     fill="#3f3d56"
     id="path114"
     style="stroke-width:0.418691" />
  <path
     d="m 318.34959,88.436208 c 0,0 -2.51294,26.376852 -23.0677,43.532812 -9.20229,7.68092 -20.46186,12.21365 -30.08888,14.87256 -0.0751,-0.55 -1.95105,0.0986 -3.04384,-0.0606 -0.88041,0.0834 -1.76525,0.58412 -1.00428,0.73585 -3.2916,-0.33759 -7.64499,-0.22 -11.10472,-0.36416 a 17.291718,14.824959 0 0 1 -4.31796,-0.52342 q -0.42475,0.0285 -0.83618,0.0568 c -0.12828,0.0107 -0.2566,0.0228 -0.38049,0.0342 a 100.53975,86.197202 0 0 1 5.78682,-17.64526 c 3.45087,-7.34715 8.7112,-15.38838 16.67917,-22.0376 a 67.136203,57.558855 0 0 1 13.24159,-8.522973 c 18.41346,-9.156422 38.13647,-10.078136 38.13647,-10.078136 z"
     fill="#3f3d56"
     id="path116"
     style="fill:#f75f43;fill-opacity:1;stroke-width:0.418691" />
  <path
     d="m 29.129901,67.213176 c 0,0 -6.162099,10.566078 -15.685334,12.967473 -9.5232369,2.401384 22.967809,0 22.967809,0 0,0 -1.68057,-7.684422 0.560191,-8.644974 2.24076,-0.960553 -7.842666,-4.322499 -7.842666,-4.322499 z"
     fill="#a0616a"
     id="path118"
     style="stroke-width:0.418691" />
  <path
     d="m 19.173654,49.060628 c -0.335136,-2.50344 1.261929,-4.716789 3.567189,-4.943603 0.02611,-0.0023 0.05186,-0.0012 0.07795,-0.0035 a 3.3657531,2.8856099 0 0 0 -0.870006,-0.01221 c -2.305242,0.226815 -3.902325,2.440159 -3.567187,4.943603 0.331348,2.475047 2.427675,4.303485 4.702901,4.125467 -1.951479,-0.242997 -3.618415,-1.925602 -3.910858,-4.109909 z"
     fill="#2f2e41"
     id="path120"
     style="stroke-width:0.418691" />
  <path
     d="m 21.239958,52.45498 c -2.783895,-0.8082 -4.437406,-2.990864 -3.693163,-4.875139 0.0084,-0.02132 0.02073,-0.04078 0.02971,-0.06188 a 3.3659794,2.8858039 0 0 0 -0.384037,0.669376 c -0.744239,1.88428 0.909274,4.066944 3.693167,4.875145 2.752319,0.799004 5.575539,-0.04638 6.358445,-1.886556 -1.088931,1.409521 -3.57511,1.984204 -6.004124,1.279056 z"
     fill="#2f2e41"
     id="path122"
     style="stroke-width:0.418691" />
  <path
     d="m 1.9775153,98.74077 0.8234299,20.34224 12.8843818,25.93491 c 0,0 -3.361144,13.44774 3.361142,12.96748 6.722286,-0.48027 0.560188,-13.44774 0.560188,-13.44774 l -6.16209,-27.37575 -1.120384,-22.57298 z"
     fill="#a0616a"
     id="path124"
     style="stroke-width:0.418691" />
  <ellipse
     cx="38.092949"
     cy="63.851234"
     fill="#a0616a"
     id="circle126"
     style="stroke-width:0.418691"
     rx="12.324192"
     ry="10.566078" />
  <path
     d="M 48.176376,82.10174 36.030949,77.941804 c 0,0 -2.419527,0.317725 -9.141814,0.798001 -6.722285,0.480279 -9.707131,0.02725 -9.707131,0.02725 0,0 -14.3810588,4.295224 -13.8208686,6.696594 0.5601901,2.401388 6.7222866,40.343221 9.5232426,38.422111 2.800954,-1.92113 4.481519,-2.4014 4.481519,-2.4014 L 48.176376,119.083 Z"
     fill="#cfcce0"
     id="path128"
     style="fill:#ebecf0;fill-opacity:1;stroke-width:0.418691" />
  <path
     d="M 5.6018959,84.50312 H 3.7788465 c 0,0 -2.0982861,0.960551 -2.0982861,3.842215 0,2.881655 -1.6805704,11.526625 -1.6805704,11.526625 h 8.9630473 z"
     fill="#cfcce0"
     id="path130"
     style="fill:#ebecf0;fill-opacity:1;stroke-width:0.418691" />
  <path
     d="M 22.127518,89.065744 15.361419,79.695066 A 1.5290747,1.3109438 0 0 0 13.87163,79.084264 l -1.764401,0.189091 a 1.5290883,1.3109554 0 0 0 -1.286853,1.641641 l 3.464492,11.032403 c 0,0 5.477871,19.489591 0.218081,29.916401 l -0.218081,4.6635 c 0,0 -5.0417111,14.40828 -3.921353,25.45464 1.120358,11.04637 1.68057,20.65188 1.68057,20.65188 0,0 -2.8009508,7.20412 -1.68057,9.60552 0.336114,0.7204 0.268892,1.78661 0.01009,2.92632 -1.5797149,6.95648 -1.9875365,14.07136 -1.7642019,21.15588 l 0.073542,2.33299 c 0,0 -3.9213533,2.88165 -0.5601901,3.36193 3.361164,0.48028 14.004763,1.44083 14.004763,1.44083 0,0 2.240765,-3.36196 1.120381,-3.84221 l 3.361144,-15.8491 c 0,0 5.601907,-6.72387 5.041716,-11.04637 0,0 1.680569,-7.20414 0,-10.56607 l 0.560191,-21.13215 2.240758,25.45463 -3.361139,31.69825 c 0,0 -4.481526,2.88163 -1.680575,3.84219 2.80095,0.96055 20.16686,5.76332 20.16686,3.36195 0,-2.40136 -1.120379,-3.36195 -1.120379,-3.36195 l 7.282475,-64.8373 -3.921352,-26.89547 c 0,0 -26.328963,-1.9211 -24.088193,-27.375731 0,0 6.441444,-11.469872 12.800235,-13.634174 A 0.36573223,0.31355852 0 0 0 40.5032,78.678408 L 37.921673,78.04605 a 0.35435074,0.30380066 0 0 0 -0.21486,0.0035 c -1.120191,0.325196 -10.832538,3.329263 -15.57929,11.016282 z"
     fill="#2f2e41"
     id="path132"
     style="fill:#748cec;fill-opacity:1;stroke-width:0.418691" />
  <path
     d="m 35.011899,211.53618 -0.08948,0.69045 a 37.078665,31.78919 0 0 1 -4.898337,12.45764 c -1.254305,1.84827 -2.214629,3.936 -1.734467,5.58268 1.12038,3.8422 0.560191,5.28303 0.560191,5.28303 h 8.963046 v -1.44083 l 5.004157,1.17008 a 5.5430405,4.7522953 0 0 0 3.398706,-0.0895 c 1.120379,-0.3602 2.240762,-1.08063 2.240762,-2.52147 0,-1.20069 -1.06981,-2.31799 -2.317904,-3.21295 a 16.63893,14.265295 0 0 1 -5.462017,-7.1559 l -0.06273,-0.19722 3.361141,-10.56609 z"
     fill="#2f2e41"
     id="path134"
     style="stroke-width:0.418691" />
  <path
     d="m 11.763993,211.77632 -0.08948,0.69047 a 37.078588,31.789124 0 0 1 -4.8983323,12.4576 c -1.2543041,1.8483 -2.2146337,3.93603 -1.7344711,5.58271 1.120385,3.8422 0.5601947,5.28303 0.5601947,5.28303 h 8.9630467 v -1.44083 l 5.004158,1.17007 a 5.5430948,4.7523419 0 0 0 3.398696,-0.0894 c 1.120381,-0.36021 2.240761,-1.08062 2.240761,-2.52146 0,-1.20068 -1.069807,-2.318 -2.317902,-3.21296 a 16.638944,14.265307 0 0 1 -5.462013,-7.15589 l -0.06273,-0.19722 3.36114,-10.56607 z"
     fill="#2f2e41"
     id="path136"
     style="stroke-width:0.418691" />
  <path
     d="m 40.580614,65.633999 c 0,0 8.828382,-4.372721 12.247095,-4.63776 0,0 0.995476,-1.921318 -0.07798,-3.770059 0,0 -0.520863,-5.931133 -9.156225,-5.700743 0,0 -10.199301,-4.736859 -13.623309,-2.802895 -3.424012,1.933964 -11.048028,11.213998 -7.827624,16.7602 0,0 -3.722776,1.605861 -3.899925,0.741431 -0.177147,-0.864433 -2.942792,1.457573 0.708575,3.457706 0,0 -5.110895,4.435784 -0.142798,7.212011 0,0 -0.227377,-3.934105 2.654599,-5.12351 2.881978,-1.189416 0.359587,0.05994 0.359587,0.05994 0,0 -4.933741,5.300209 2.435129,7.363414 0,0 -2.749773,-2.684758 0.01586,-5.006761 0,0 -0.856669,5.423212 4.238335,5.994196 0,0 -2.628147,-3.22109 -1.24532,-4.38209 0,0 0.58697,3.994044 3.463658,4.473559 l 2.157517,0.359643 0.729756,-3.217975 c 0,0 -2.051766,4.110805 2.744482,4.353682 0,0 -2.318809,-6.230828 0.750917,-9.893648 3.069724,-3.662826 3.467662,-6.24034 3.467662,-6.24034 z"
     fill="#2f2e41"
     id="path138"
     style="stroke-width:0.418691" />
  <ellipse
     cx="-29.376837"
     cy="51.243057"
     rx="4.8531418"
     ry="3.9933794"
     transform="matrix(0.66206568,-0.74944582,0.8386968,0.54459864,0,0)"
     fill="#2f2e41"
     id="ellipse140"
     style="stroke-width:0.420988" />
  <path
     d="m 28.101688,49.693013 a 6.2205908,5.3331893 0 0 0 -2.794008,1.811831 6.3363185,5.4324078 0 0 0 -1.224475,2.404999 6.2206677,5.3332553 0 0 0 2.794015,-1.811829 6.3365536,5.4326094 0 0 0 1.224468,-2.405001 z"
     fill="#6c63ff"
     id="path142"
     style="fill:#fcfc8e;fill-opacity:1;stroke-width:0.418691" />
  <path
     d="m 70.872629,141.18142 -0.711554,-0.81408 5.165128,-3.31837 a 4.3645588,3.7419305 0 0 0 1.710213,-3.44595 l -2.558733,-17.71499 a 8.6005704,7.3736517 0 0 1 3.37021,-6.79168 l 5.629821,-3.61693 a 5.0355841,4.3172303 0 0 1 7.041324,0.86493 l 1.30388,1.49177 -0.949543,0.61003 -1.303875,-1.49178 a 3.847584,3.298705 0 0 0 -5.380232,-0.66089 l -5.629825,3.61693 a 7.411485,6.3541959 0 0 0 -2.90428,5.85248 l 2.558603,17.71507 a 5.5529615,4.760801 0 0 1 -2.176014,4.38506 z"
     fill="#cfcce0"
     id="path144"
     style="stroke-width:0.418691" />
  <polygon
     points="102.845,428.047 160.807,381.935 170.12,369.67 166.972,365.471 153.009,371.529 92.055,413.648 "
     fill="#cfcce0"
     id="polygon146"
     transform="matrix(0.45218496,0,0,0.38767829,-5.4781505e-6,-5.385173)" />
  <rect
     x="-13.017002"
     y="145.22011"
     width="12.576039"
     height="43.480434"
     rx="3.127888"
     transform="matrix(0.84133048,-0.54052106,0.65809853,0.75293182,0,0)"
     fill="#e6e6e6"
     id="rect148"
     style="stroke-width:0.420975" />
  <path
     d="m 121.84101,140.06133 -0.76239,-0.87222 -0.15247,-0.17446 a 3.2877376,2.8187238 0 0 1 -0.65942,3.94599 l -5.3186,3.417 a 3.2877512,2.8187354 0 0 1 -4.60259,-0.56537 l 0.15248,0.17446 0.76239,0.87222 a 3.2877557,2.8187393 0 0 0 4.60257,0.56534 l 5.31862,-3.41699 a 3.2877376,2.8187238 0 0 0 0.65942,-3.94597 z"
     opacity="0.2"
     id="path150"
     style="stroke-width:0.418691" />
  <path
     d="m 106.06477,121.42754 c -0.0463,-0.0389 -0.0852,-0.0703 -0.0864,-0.0531 0.0442,0.0456 0.0735,0.0577 0.0864,0.0531 z"
     fill="#7f77ff"
     id="path152"
     style="stroke-width:0.418691" />
  <path
     d="m 105.2284,120.29515 a 0.12254229,0.10506096 0 0 0 -0.0466,-0.0678 z"
     fill="#7f77ff"
     id="path154"
     style="stroke-width:0.418691" />
  <path
     d="m 111.24357,127.44855 c -0.0492,0.0136 0.0455,0.10368 0.10763,0.19042 z"
     fill="#7f77ff"
     id="path156"
     style="stroke-width:0.418691" />
  <path
     d="m 113.84583,130.31957 0.0444,0.0504 a 0.40556076,0.34770529 0 0 0 0.0854,0.0107 z"
     fill="#7f77ff"
     id="path158"
     style="stroke-width:0.418691" />
  <path
     d="m 115.49038,132.42145 a 0.22230801,0.19059455 0 0 1 0.16046,0.0592 0.16000588,0.13718016 0 0 0 0.0533,-0.0677 c -0.0372,-0.0504 -0.15337,-8.6e-4 -0.21375,0.009 z"
     fill="#7f77ff"
     id="path160"
     style="stroke-width:0.418691" />
  <path
     d="m 120.59151,138.49738 -0.0247,0.0369 a 0.33544938,0.28759568 0 0 0 0.0504,0.0439 z"
     fill="#7f77ff"
     id="path162"
     style="stroke-width:0.418691" />
  <path
     d="m 103.61278,118.19935 0.006,0.01 c 0.0563,0.0437 0.0289,0.016 -0.006,-0.01 z"
     fill="#7f77ff"
     id="path164"
     style="stroke-width:0.418691" />
  <path
     d="m 88.676077,122.37786 c -0.08584,-0.2606 0.404331,0.25407 0.239319,-0.11522 -0.01501,0.0539 -0.400495,-0.17471 -0.239319,0.11522 z"
     fill="#7f77ff"
     id="path166"
     style="stroke-width:0.418691" />
  <path
     d="m 99.636055,113.75884 a 0.18658985,0.15997178 0 0 0 -0.0045,0.0742 c 0.0091,-0.009 0.01284,-0.0267 0.0045,-0.0742 z"
     fill="#7f77ff"
     id="path168"
     style="stroke-width:0.418691" />
  <path
     d="m 97.550302,112.47409 a 0.72202736,0.61902619 0 0 0 -0.186983,0.14448 0.12837549,0.11006202 0 0 0 0.0341,-0.01 0.41441003,0.35529216 0 0 1 0.152874,-0.13442 z"
     fill="#7f77ff"
     id="path170"
     style="stroke-width:0.418691" />
  <path
     d="m 95.479593,114.14556 a 0.48160483,0.41290125 0 0 0 0.05308,-0.0113 l 0.05727,-0.0515 z"
     fill="#7f77ff"
     id="path172"
     style="stroke-width:0.418691" />
  <path
     d="m 120.71394,132.58612 c -0.0702,0.0729 -0.20743,0.16765 -0.26923,0.13593 l 0.12209,-0.18767 c -0.009,-0.009 -0.0167,-0.0185 -0.025,-0.028 0.008,-0.009 0.0157,-0.0171 0.0234,-0.026 l -1.75614,-2.00919 0.0458,0.003 -0.0807,-0.0425 -0.22264,-0.25476 c 0.0283,-0.005 0.0645,0.003 0.1174,0.0472 -0.0905,-0.23645 -0.19948,-0.13265 -0.2582,-0.34796 -0.003,-0.0262 0.0116,-0.0227 0.0321,-0.0107 l -0.20597,-0.1555 c 0.0632,0.0157 0.0795,-0.099 0.1567,0.0282 -0.20233,-0.38662 -0.57919,-0.46097 -0.574,-0.65878 l 0.0334,0.0218 c -0.33795,-0.31873 -0.2543,-0.14621 -0.37034,-0.14778 l -0.18754,-0.21456 0.048,-0.27879 -0.14989,0.0259 c -0.0374,-0.0499 -0.11101,-0.14895 -0.0517,-0.15998 -0.22966,-0.12769 -0.0218,0.0609 -0.1826,0.005 -0.0986,-0.29258 -0.59636,-0.59821 -0.4653,-0.76265 -0.1554,-0.0278 0.1258,0.25959 -0.14528,0.0537 0.12867,-0.19103 -0.27828,-0.26049 -0.37342,-0.52448 0.1536,8.6e-4 0.27425,0.23168 0.17931,-0.0326 -0.27493,-0.0195 -0.31819,-0.42877 -0.50328,-0.58404 -0.1387,0.0763 -0.38865,-0.34664 -0.69006,-0.61321 a 9.5145778,8.157271 0 0 0 -0.60453,-0.9057 l 0.0292,-0.007 c -0.17928,0.0323 -0.4014,-0.26664 -0.60883,-0.45489 0.0866,-0.0429 0.15034,-0.0262 0.28341,0.0625 l -0.16979,-0.19318 a 0.61070833,0.52358743 0 0 1 -0.28267,-0.18037 l 0.14184,-0.0152 a 5.3964964,4.6266565 0 0 1 -0.7939,-0.81787 c -0.074,0.0278 -0.0631,0.21144 -0.16179,0.23211 l -0.15337,-0.17547 a 0.11552889,0.09904806 0 0 1 0.1331,0.0273 c -0.0329,-0.0259 -0.13527,-0.0805 -0.16678,-0.1547 l 0.20665,0.0858 c -0.095,-0.17475 -0.13942,-0.0337 -0.23708,-0.15946 0.0735,-0.0435 -0.0271,-0.12219 0.0448,-0.14119 0.0338,0.0263 0.0625,0.12434 0.13095,0.15246 a 1.179603,1.0113261 0 0 1 -0.20103,-0.42524 c -0.0302,0.038 -0.0962,0.0618 -0.19259,-0.0319 -0.23043,-0.2543 0.009,-0.14342 -0.0858,-0.31731 -0.10415,-0.0306 -0.19642,-0.22792 -0.30703,-0.16361 -0.0653,-0.0758 -0.0277,-0.12178 -0.0243,-0.16938 -0.16363,-0.10314 -0.55783,-0.61422 -0.54009,-0.39091 l 0.0224,0.0389 -0.0237,-0.0188 c -0.4882,-0.36882 -0.73306,-0.94679 -1.15787,-1.35102 l 0.0364,-0.0223 a 7.2729531,6.2354264 0 0 0 -0.76619,-0.69614 c -0.0668,-0.0767 -0.0927,-0.22259 -0.0215,-0.21721 a 1.6573463,1.4209167 0 0 1 -0.45022,-0.50076 c 0.23624,0.15892 -0.005,-0.10411 0.22388,0.17455 -0.19391,-0.27691 -0.18757,-0.37191 -0.52656,-0.58522 0.17364,0.0352 -0.0539,-0.26762 -0.18811,-0.37228 l 0.092,0.22223 a 3.8478645,3.2989455 0 0 1 -0.32928,-0.38131 l 0.17809,-0.0114 c -0.31341,-0.62028 -1.0786,-0.78879 -1.18353,-1.34685 -0.20587,-0.085 0.19051,0.32387 -0.0168,0.26267 a 5.0445554,4.3249218 0 0 1 -0.30881,-0.69168 c -0.22308,-0.37436 -0.44627,-0.19633 -0.70392,-0.57256 -0.004,0.0718 -0.0821,0.18749 -0.34919,-0.0458 -0.19584,-0.25244 -0.0801,-0.41343 0.088,-0.28266 0.0544,0.0557 0.0652,0.0925 0.0485,0.0994 0.084,0.0683 0.19215,0.15908 0.15491,0.0333 l -0.0704,-0.004 c -0.0612,-0.14832 -0.35705,-0.47859 -0.21823,-0.44557 -0.20087,-0.15675 -0.13882,-0.033 -0.0426,0.11687 -0.20932,-0.35063 -0.42238,-0.48654 -0.66004,-0.83312 0.0208,0.066 0.0113,0.14528 -0.0326,0.0944 -0.35674,-0.50321 -0.26194,-0.15419 -0.55855,-0.45989 -0.0923,-0.22262 0.21285,-0.0357 -0.12164,-0.32037 -0.1264,-0.22381 0.0778,-0.11457 0.18067,-0.0594 a 2.6123803,2.2397099 0 0 1 -0.55185,-0.75574 l 0.1688,0.13127 a 1.7324904,1.4853411 0 0 1 -0.23266,-0.23084 l -0.009,0.14281 c -0.0637,-0.0997 -0.13022,-0.17626 -0.093,-0.19755 -0.13746,-0.0567 -0.0807,0.16289 -0.31874,0.028 -0.0614,-0.1482 -0.36668,-0.33586 -0.28902,-0.45059 0.29166,0.40282 0.078,-0.11531 0.37599,0.19279 a 1.0283379,0.88163985 0 0 1 -0.19673,-0.22869 c 9e-4,-0.0218 0.0348,-0.003 0.0629,0.0181 -0.21423,-0.42709 -0.2742,-0.0834 -0.59915,-0.45994 0.10584,0.006 0.0459,-0.16515 -0.0213,-0.21749 0.13074,0.15189 -0.044,0.1411 -0.21434,0.0341 -0.16002,-0.27247 -0.26547,-0.2373 -0.36966,-0.3669 l 0.10206,0.15872 c -0.10677,-0.008 -0.2034,-0.13295 -0.37005,-0.28748 0.0375,-0.0465 0.16742,0.12999 0.13717,0.0561 -0.2755,-0.11348 -0.25051,-0.49542 -0.55325,-0.70591 -0.0616,-0.1481 0.11051,-0.0892 0.0477,-0.21362 -0.33738,-0.23717 -0.18715,-0.37135 -0.52304,-0.63269 -0.009,0.14349 0.0252,0.14534 -0.24702,-0.0158 l 0.4998,0.46327 -0.40728,-0.2417 c 0.13127,0.15238 0.33384,0.28506 0.39856,0.38528 -0.20468,-0.10834 -0.16941,-0.10635 -0.17763,0.0123 -0.0518,-0.29064 -0.43491,-0.36276 -0.55703,-0.65875 l 0.22012,-0.12998 c -0.21978,-0.42078 -0.66949,-0.56909 -1.024884,-1.0717 l 0.09437,0.17428 c -0.139837,-0.009 -0.2645,-0.2814 -0.43146,-0.41085 0.08379,-0.0318 0.02695,-0.14325 0.01488,-0.23651 -0.04612,0.0419 -0.294621,-0.34571 -0.474455,-0.29657 l -0.08861,-0.26943 c -0.27131,-0.37925 -0.63607,-0.36411 -0.99009,-0.81256 0.07448,0.0159 0.07268,-0.0435 0.08609,-0.0806 0.01519,-0.035 0.0468,-0.0462 0.232387,0.11647 -0.168201,-0.19373 -0.319864,-0.39057 -0.333307,-0.31757 a 0.39584327,0.33937405 0 0 0 -0.04545,-0.0678 l -0.03142,-0.0347 c -0.01126,-0.0102 -0.02623,0.0189 -0.04024,0.0283 l -0.190823,0.20148 a 1.2515096,1.0729749 0 0 1 -0.35813,0.30839 c -0.06278,0.0996 -0.04242,0.19467 -0.226313,0.33984 -0.03165,0.005 -0.02722,-0.03 -0.02722,-0.03 0.0083,0.0474 -0.197859,0.23336 -0.005,0.19335 -0.583313,0.14916 -1.091294,0.9063 -1.606184,1.02266 -0.265156,0.23896 -0.59314,0.51977 -0.854584,0.71732 -4.52e-4,-0.0299 -0.02817,-0.0296 0.02781,-0.0604 -0.417715,0.21434 -0.05633,0.33427 -0.537992,0.57404 -0.307259,0.0582 0.173545,-0.21078 0.0045,-0.15115 -0.245826,-0.15223 -0.480446,0.3895 -0.877628,0.46991 l 0.05846,-0.0592 c -0.279107,0.0848 -0.465266,0.44069 -0.843538,0.66538 0,0 0.0018,-0.0293 -0.02478,-0.0316 a 4.338228,3.7193559 0 0 1 -0.943507,0.85389 c 0.04557,-0.14849 0.128452,-0.14203 -0.0081,-0.18178 -0.151907,0.10971 0.156976,0.10167 -0.147711,0.32128 -0.141439,0.0202 -0.405963,0.12302 -0.508798,0.0518 l 0.301023,-0.18747 c -0.24644,-0.0173 -0.39179,0.23919 -0.570335,0.31362 l -0.01881,-0.0621 c -0.456436,0.29104 -0.369436,0.41743 -0.891429,0.69524 l 0.08196,0.009 c -0.1898,0.28281 -0.291419,0.0555 -0.507274,0.30214 l -0.179124,-0.0853 a 8.6674938,7.4310282 0 0 1 -0.90768,0.65979 5.5978317,4.7992702 0 0 1 0.7043,-0.62562 2.5036522,2.1464924 0 0 0 -0.688985,0.44484 c 0.06818,-0.0504 0.142031,-0.13119 0.230981,-0.14816 a 2.1328194,1.828561 0 0 1 -0.831401,0.60022 c -0.03202,-0.15226 -0.412356,-0.005 -0.872767,0.18819 l -0.173874,0.073 -0.08867,0.037 c -0.02858,0.0126 -0.07514,0.0219 -0.03722,0.0474 0.07088,0.0869 0.139015,0.17288 0.198961,0.25497 a 1.3892997,1.1911085 0 0 1 0.223469,0.42764 c 0.09732,0.0948 0.193581,0.18862 0.289797,0.28235 0.06414,0.063 0.12526,0.12797 0.184356,0.19474 0.118205,0.13353 0.228244,0.274 0.338036,0.41896 0.219549,0.28992 0.437999,0.5978 0.718241,0.90373 0.02252,-0.35919 0.164935,0.17779 0.352745,-0.003 0.138906,0.13386 0.183835,0.19137 0.182153,0.21428 l -0.017,-0.0356 0.01714,0.0381 4.52e-4,-3.9e-4 0.25151,0.52353 c 0.02663,0.14552 -0.169289,-0.10651 -0.207295,-0.0613 0.260463,0.32831 0.02256,0.19344 0.147417,0.44122 0.04151,-0.0939 0.209814,0.0376 0.337737,0.23794 l -0.120666,-0.32037 c 0.50548,0.36796 0.149447,0.50274 0.65689,0.87496 l -0.193224,-0.0967 c 0.24163,0.20306 0.738418,0.84736 1.112746,0.95808 0.01,0.057 -0.0036,0.14948 -0.107959,0.0587 0.452636,0.5655 1.256043,1.09913 1.519088,1.59565 l -0.09044,-0.007 c 0.105034,0.0923 0.257334,0.11267 0.314824,0.27585 -0.02817,0.008 -0.09003,-0.007 -0.0518,0.043 a 1.5222603,1.3051015 0 0 1 0.419257,0.36667 L 92.742,121.07506 c 0.396656,0.58041 0.86573,0.72562 1.294871,1.15033 -0.160294,0.10127 0.155832,0.55531 0.313609,0.78195 l -0.02894,0.008 a 17.551327,15.047534 0 0 0 1.623389,1.50975 c 0.140027,0.4691 0.987693,1.25927 1.393593,1.89699 -0.04793,-0.10662 0.13665,-0.0654 0.242045,0.0266 0.08577,0.15574 0.436757,0.30228 0.271935,0.37474 l -0.03925,-0.0499 c -0.05437,0.19382 0.226374,0.44682 0.411787,0.66603 l 0.222339,-0.087 c 0.21743,0.74534 1.400078,1.41941 1.421498,1.88869 0.167324,0.10595 0.314814,0.27588 0.481104,0.3807 l -0.10889,0.0585 a 11.71825,10.046577 0 0 0 0.89143,1.04591 l -0.15674,-0.0484 c 0.22438,0.26842 0.58701,0.14382 0.80604,0.38367 l -0.0888,0.17158 c 0.40524,0.45937 0.67873,1.01223 1.21555,1.37855 -0.0289,0.007 -0.085,0.0218 -0.15643,-0.049 0.18569,0.21953 0.63004,0.90579 0.7711,0.69213 -0.13197,0.0932 0.40231,0.48416 0.68015,0.69438 l -0.13468,0.0262 a 1.397656,1.1982727 0 0 1 0.64572,0.38187 c 0.0477,0.078 -0.0275,0.1128 -0.0824,0.004 0.1497,0.26563 0.25331,0.1191 0.44515,0.43459 l -0.15591,-0.0633 a 0.67522622,0.57890149 0 0 0 0.40839,0.28527 c 0.17147,0.12394 0.36983,0.46855 0.30942,0.56234 a 0.50456226,0.43258368 0 0 1 0.36861,0.23661 c -0.0179,0.0411 -0.084,0.004 -0.11688,-0.0154 0.27977,0.4427 0.63533,0.5174 0.7759,0.85515 a 0.09669084,0.08289736 0 0 0 -0.0197,0.0849 c -0.27428,-0.31828 -0.49172,-0.57679 -0.4635,-0.55764 -0.093,0.0597 0.11431,0.326 -0.19195,0.20498 a 3.1681391,2.7161866 0 0 1 0.88293,0.69102 0.16685649,0.14305349 0 0 1 -0.003,0.0535 l -0.033,-0.0192 a 0.55788852,0.47830266 0 0 0 0.15277,0.14796 1.837931,1.57574 0 0 0 0.15248,0.22447 c -0.0511,0.0789 0.21494,0.31994 0.32272,0.44988 0.0925,-0.0759 0.22209,0.10167 0.16938,-0.10877 0.0103,0.025 -0.0333,-0.0162 -0.11162,-0.0983 a 0.40954452,0.35112074 0 0 0 -0.0581,-0.0476 l 0.0165,0.003 -0.28391,-0.31267 a 0.63827353,0.5472203 0 0 1 0.34206,0.32225 c 0.1226,0.0235 0.25278,0.0523 0.3198,0.0725 0.0108,0.26571 0.22808,0.65141 0.18154,0.75443 0.19872,0.17639 0.40861,0.3997 0.61944,0.59419 a 4.071832,3.4909628 0 0 0 0.32277,0.26865 1.1834602,1.0146331 0 0 0 0.37041,0.23027 0.40964853,0.35120992 0 0 1 0.11668,0.17267 c 0.0179,0.0568 0.0464,0.0513 0.0794,0.067 a 0.43316668,0.37137307 0 0 1 -0.10242,0.0389 l -0.0673,-0.0633 a 0.44914693,0.38507365 0 0 0 -0.11554,-0.0876 c 0.0895,0.0511 0.15025,0.23902 0.3246,0.12044 l 0.44973,-0.1568 a 1.5108698,1.2953359 0 0 0 0.2979,-0.12917 c 0.0648,-0.0386 0.1064,-0.0771 0.10992,-0.11641 0.40929,-0.0701 -0.16135,0.1967 0.35614,-0.005 l -0.0527,0.0651 c 1.1555,-0.14886 1.4929,-0.93419 2.72095,-1.18919 -0.0855,0.0197 -0.12764,0.0302 -0.15664,0.0164 1.31759,-0.47572 2.36026,-1.42937 3.56288,-2.0404 0.33573,-0.18592 0.29115,-0.28576 0.41568,-0.47399 l 0.15503,0.0373 0.19651,-0.33636 c 0.33345,-0.41518 0.95985,-0.40142 1.30726,-0.99552 l -0.133,0.005 c 0.1964,-0.15356 0.51605,-0.5662 0.56826,-0.47676 a 0.1652015,0.1416346 0 0 1 0.0899,-0.14886 l 0.0595,0.0347 c 0.11203,-0.16267 0.21511,-0.3307 0.32216,-0.49481 0.35745,-0.30668 0.17591,0.21111 0.64384,-0.27963 0.14722,-0.20183 0.31218,-0.63807 0.21077,-0.59254 z m -2.42964,-2.74368 a 0.11599013,0.0994435 0 0 1 0.004,0.033 l -0.0899,-0.10288 c 0.0281,0.0224 0.0555,0.0435 0.0859,0.0699 z m -10.9681,7.8187 0.0213,0.003 a 0.15690841,0.13452456 0 0 1 -0.0804,-7.7e-4 c -0.0885,-0.0755 -0.0934,-0.1167 -0.0827,-0.14184 0.0368,0.0389 0.0812,0.0836 0.14186,0.14054 z"
     fill="#6c63ff"
     id="path174"
     style="fill:#fcfc8e;fill-opacity:1;stroke-width:0.418691" />
  <path
     d="m 107.5238,143.72924 a 0.33967278,0.29121659 0 0 1 0.038,0.0302 0.71839632,0.61591314 0 0 0 -0.0213,-0.0653 l -0.0581,-0.0107 z"
     fill="#7f77ff"
     id="path176"
     style="stroke-width:0.418691" />
  <path
     d="m 111.39354,127.71279 a 0.09788914,0.08392472 0 0 1 0.006,0.033 0.10816281,0.09273279 0 0 1 0.001,-0.0202 z"
     fill="#7f77ff"
     id="path178"
     style="stroke-width:0.418691" />
  <path
     d="m 117.14743,134.1287 c -0.24685,-0.49187 -0.0128,0.14247 -0.37537,-0.30069 l 0.25932,0.34939 c -0.0111,-0.0829 -0.0247,-0.19289 0.11604,-0.0487 z"
     fill="#7f77ff"
     id="path180"
     style="stroke-width:0.418691" />
  <path
     d="m 116.01907,132.72314 c -0.13423,-0.0896 -0.16706,-0.11107 -0.0857,0.0436 0.17346,0.16581 0.0553,-0.0388 0.0857,-0.0436 z"
     fill="#7f77ff"
     id="path182"
     style="stroke-width:0.418691" />
  <path
     d="m 109.46149,125.36152 0.10818,-0.0416 c -0.13294,-0.12831 -0.037,0.0217 -0.10818,0.0416 z"
     fill="#7f77ff"
     id="path184"
     style="stroke-width:0.418691" />
  <polygon
     points="238.12,315.67 238.265,315.803 237.749,315.269 "
     fill="#7f77ff"
     id="polygon186"
     transform="matrix(0.45218496,0,0,0.38767829,-5.4781505e-6,-5.385173)" />
  <path
     d="m 95.748879,113.80756 0.139996,0.0555 c 0.08147,-0.094 -0.0062,-0.21133 -0.139996,-0.0555 z"
     fill="#7f77ff"
     id="path188"
     style="stroke-width:0.418691" />
  <path
     d="m 89.317429,118.1368 a 2.7216418,2.3333846 0 0 0 0.395386,-0.16403 0.47957904,0.41116445 0 0 0 -0.395386,0.16403 z"
     fill="#7f77ff"
     id="path190"
     style="stroke-width:0.418691" />
  <polygon
     points="218.087,343.58 217.917,343.324 217.624,343.108 "
     fill="#7f77ff"
     id="polygon192"
     transform="matrix(0.45218496,0,0,0.38767829,-5.4781505e-6,0.61482665)" />
  <path
     d="m 40.630657,97.29994 0.823431,20.34225 12.884375,25.93491 c 0,0 -3.361144,13.44772 3.361141,12.96745 6.722285,-0.48027 0.560189,-13.44774 0.560189,-13.44774 L 52.097706,115.72107 50.977328,93.148093 Z"
     fill="#a0616a"
     id="path194"
     style="stroke-width:0.418691" />
  <polygon
     points="123.885,252.923 87.958,271.506 100.347,228.146 101.028,223.466 106.541,225.669 "
     fill="#cfcce0"
     id="polygon196"
     style="fill:#ebecf0;fill-opacity:1"
     transform="matrix(0.45218496,0,0,0.38767829,-5.4781505e-6,-5.385173)" />
</svg>
