<?xml version="1.0" encoding="UTF-8"?>
<svg width="80px" height="80px" viewBox="0 0 80 80" version="1.1" xmlns="http://www.w3.org/2000/svg" xmlns:xlink="http://www.w3.org/1999/xlink">
    <g id="Site" stroke="none" stroke-width="1" fill="none" fill-rule="evenodd">
        <g id="Desktop-HD-Copy-3" transform="translate(-396.000000, -1908.000000)" fill="#161616">
            <g id="Group-14" transform="translate(142.000000, 1812.000000)">
                <g id="Group-4-Copy" transform="translate(102.000000, 64.000000)">
                    <g id="design-copy" transform="translate(152.000000, 32.000000)">
                        <path d="M39.9999999,30.5 C41.9329965,30.5 43.4999999,32.0670034 43.4999999,34 L43.499,36.499 L46,36.5 C47.9329966,36.5 49.5,38.0670034 49.5,40 C49.5,41.9329966 47.9329966,43.5 46,43.5 L43.499,43.499 L43.4999999,46 C43.4999999,47.9329966 41.9329965,49.5 39.9999999,49.5 C38.0670033,49.5 36.4999999,47.9329966 36.4999999,46 L36.499,43.499 L34,43.5 C32.0670034,43.5 30.5,41.9329966 30.5,40 C30.5,38.0670034 32.0670034,36.5 34,36.5 L36.499,36.499 L36.4999999,34 C36.4999999,32.0670034 38.0670033,30.5 39.9999999,30.5 Z" id="Combined-Shape"></path>
                    </g>
                </g>
            </g>
        </g>
    </g>
</svg>
