<?xml version="1.0" encoding="UTF-8"?>
<svg width="194" height="240" viewBox="0 0 194 240" version="1.1" xmlns="http://www.w3.org/2000/svg" xmlns:xlink="http://www.w3.org/1999/xlink">
    <g id="Site" stroke="none" stroke-width="1" fill="none" fill-rule="evenodd">
        <g id="Artboard" transform="translate(-413.000000, -507.000000)">
            <g id="Group" transform="translate(413.000000, 507.000000)">
                <path d="M167.660702,49.7907091 C183.904702,69.1510272 192.68821,88.4525494 193.366187,106.747486 C194.126509,125.044774 186.800514,142.39192 177.127676,160.272933 C167.452094,178.09515 155.358301,196.448882 139.119791,198.875977 C122.881281,201.244276 102.495308,187.744735 80.2455845,180.108322 C57.9162606,172.528353 33.7396552,170.870308 18.6649598,159.445086 C3.6094783,147.958717 -2.26449259,126.702818 0.77679701,105.978435 C3.88670777,85.2564036 16.0491213,65.0564799 34.705841,46.1194923 C53.4339267,27.1143015 78.7935609,9.35088042 103.25563,10.1787269 C127.786321,11.0089252 151.488068,30.4280392 167.660702,49.7907091 Z" id="Path" fill="#F7F7F7"></path>
                <path d="M126.161372,150.936348 C131.137778,164.844484 133.179944,228.489233 133.179944,239.287458 L107.427797,239.287458 L96.7091721,215.132812 L115.31374,147.502546 L126.161372,150.936348 Z" id="Path" fill="#7D92ED"></path>
                <path d="M117.045738,152.706774 C115.640376,162.006313 103.132112,231.909312 100.340604,239.287458 L63.1314684,239.287458 C61.550437,234.017353 55.5776516,172.016767 63.1314684,149.185136 C70.6852852,126.353506 117.045738,152.706774 117.045738,152.706774 Z" id="Path" fill="#8DA0EF"></path>
                <path d="M123.498871,115.750165 C125.867673,115.283541 158.103147,100.5794 165.404438,94.3211504 C172.705729,88.062901 163.982608,83.2292268 161.232272,84.8404516 C158.481936,86.4516763 129.850445,98.7787806 123.970985,100.5794 C118.091524,102.380019 123.498871,115.750165 123.498871,115.750165 Z" id="Path" fill="#DE8E68" fill-rule="nonzero"></path>
                <rect id="Rectangle" fill="#E0E1E1" transform="translate(162.903887, 72.627566) rotate(-4.460000) translate(-162.903887, -72.627566) " x="151.146339" y="49.9112185" width="23.5150975" height="45.4326945"></rect>
                <line x1="139.358593" y1="59.4863071" x2="151.619821" y2="84.4177452" id="Path" stroke="#27282B" stroke-width="2" stroke-linecap="round" stroke-linejoin="round"></line>
                <ellipse id="Oval" fill="#DE8E68" fill-rule="nonzero" transform="translate(89.146027, 31.636179) rotate(-6.240000) translate(-89.146027, -31.636179) " cx="89.1460271" cy="31.6361793" rx="12.1596687" ry="17.6438714"></ellipse>
                <path d="M86.7371458,51.9709182 C127.36087,51.9709182 129.254814,150.922624 127.470664,152.706774 C125.686514,154.490924 84.3765781,162.862705 61.8688391,153.530228 C56.3764019,129.650066 60.1121376,51.9709182 86.7371458,51.9709182 Z" id="Path" fill="#FCFC8D"></path>
                <path d="M151.0187,72.5078575 C151.0187,70.1912073 148.548338,65.3712574 144.922396,66.2276494 C142.427331,66.8150465 138.996273,71.8189011 137.511311,73.9434121 C132.485498,77.4046632 100.683709,103.708524 98.2380514,106.255742 C98.1364921,104.131231 96.0970714,99.8794639 93.6486686,95.9460993 L72.9388039,109.338204 C75.0825288,115.291775 88.4444402,131.022489 93.6486686,131.022489 C107.309768,131.022489 134.931156,93.9039337 141.930513,83.9483765 C145.20237,81.672899 151.021444,77.1301785 151.0187,72.5078575 Z" id="Path" fill="#DE8E68" fill-rule="nonzero"></path>
                <path d="M68.2807999,23.0567082 C68.2807999,17.9046318 72.4612007,14.8907907 73.8198995,13.4826846 C76.5647458,10.6280445 78.2116535,3.01658599 84.0115135,3.01658599 C85.6584213,3.01658599 88.2166179,3.97453731 89.8250978,3.97453731 C91.8370701,3.96630278 95.8418007,7.10542736e-15 99.8794695,7.10542736e-15 C106.642771,7.10542736e-15 108.146946,6.22531121 108.146946,8.13846902 C108.146946,15.1433165 99.423825,20.4298904 98.2654999,21.061205 C97.7741724,20.256965 95.5206537,17.2486136 94.7713107,16.7929691 C93.873746,18.6649542 87.8158704,21.7803547 83.2374669,24.5718633 C80.6737805,26.1364256 79.059811,38.2796253 79.0982388,39.2375983 C74.8217684,39.2513008 68.2807999,32.7624844 68.2807999,23.0567082 Z" id="Path" fill="#27282B"></path>
                <circle id="Oval" fill="#DE8E68" fill-rule="nonzero" cx="78.4257515" cy="34.626235" r="3.444782"></circle>
                <path d="M92.5013229,58.5338455 C92.7758075,60.254864 81.985817,59.8184335 81.8595541,57.9848762 L80.6710357,40.7362626 L90.4426882,39.6685175 C90.4426882,39.6685175 92.2433073,56.8183166 92.5013229,58.5338455 Z" id="Path" fill="#DE8E68" fill-rule="nonzero"></path>
                <path d="M65.2395103,66.7930877 C53.1100349,73.3999325 63.9549223,107.713255 71.615788,111.226658 C80.2702881,111.226658 97.7357446,98.6964352 97.7357446,94.4666272 C97.7357446,90.2368192 80.9729688,58.2291675 65.2395103,66.7930877 Z" id="Path" fill="#FFFF8F"></path>
                <path d="M166.576488,69.3293256 C166.576488,75.0248815 173.348023,78.0304881 174.333423,78.0304881 C176.397547,78.0304881 176.397547,71.7969424 176.397547,70.1829728 C176.397547,66.5048789 172.810033,63.8121847 170.084401,63.8121847 C167.358769,63.8121847 166.576488,66.1013865 166.576488,69.3293256 Z" id="Path" fill="#DE8E68" fill-rule="nonzero"></path>
            </g>
        </g>
    </g>
</svg>
