<svg width="80" height="80" viewBox="0 0 80 80" fill="none" xmlns="http://www.w3.org/2000/svg">
<g id="permanence">
<circle id="Oval" cx="40" cy="40" r="40" fill="var(--background-alt-blue-france)"/>
<path id="Vector" d="M36.875 23C35.8359 23 35 23.8359 35 24.875C35 25.9141 35.8359 26.75 36.875 26.75H38.125V29.3516C29.3437 30.2813 22.5 37.7188 22.5 46.75H57.5C57.5 37.7188 50.6563 30.2813 41.875 29.3516V26.75H43.125C44.1641 26.75 45 25.9141 45 24.875C45 23.8359 44.1641 23 43.125 23H40H36.875ZM21.875 49.25C20.8359 49.25 20 50.0859 20 51.125C20 52.1641 20.8359 53 21.875 53H58.125C59.1641 53 60 52.1641 60 51.125C60 50.0859 59.1641 49.25 58.125 49.25H21.875Z" fill="var(--blue-france-850-200)"/>
</g>
</svg>
