<?xml version="1.0" encoding="UTF-8"?>
<svg width="80px" height="80px" viewBox="0 0 80 80" version="1.1" xmlns="http://www.w3.org/2000/svg" xmlns:xlink="http://www.w3.org/1999/xlink">
    <title>design copy 3</title>
    <g id="Icones" stroke="none" stroke-width="1" fill="none" fill-rule="evenodd">
        <g id="Desktop-HD" transform="translate(-740.000000, -212.000000)">
            <g id="design-copy-3" transform="translate(740.000000, 212.000000)">
                <circle id="Oval" fill="" cx="40" cy="40" r="40"></circle>
                <path d="M33.2,39.5 C35.9614237,39.5 38.2,41.7385763 38.2,44.5 C38.2,47.2614237 35.9614237,49.5 33.2,49.5 C30.4385763,49.5 28.2,47.2614237 28.2,44.5 C28.2,41.7385763 30.4385763,39.5 33.2,39.5 Z M46.8,39.5 C49.5614237,39.5 51.8,41.7385763 51.8,44.5 C51.8,47.2614237 49.5614237,49.5 46.8,49.5 C44.0385763,49.5 41.8,47.2614237 41.8,44.5 C41.8,41.7385763 44.0385763,39.5 46.8,39.5 Z M40.1000003,28.5 C42.8614241,28.5 45.1000003,30.7385763 45.1000003,33.5 C45.1000003,36.2614237 42.8614241,38.5 40.1000003,38.5 C37.3385766,38.5 35.1000003,36.2614237 35.1000003,33.5 C35.1000003,30.7385763 37.3385766,28.5 40.1000003,28.5 Z" id="Forme-Copy-2" fill="#161616"></path>
            </g>
        </g>
    </g>
</svg>