<?xml version="1.0" encoding="UTF-8"?>
<svg width="80px" height="80px" viewBox="0 0 80 80" version="1.1" xmlns="http://www.w3.org/2000/svg" xmlns:xlink="http://www.w3.org/1999/xlink">
    <g id="Icones" stroke="none" stroke-width="1" fill="none" fill-rule="evenodd">
        <g id="Desktop-HD" transform="translate(-836.000000, -313.000000)" fill="var(--text-title-grey)">
            <g id="recrutement" transform="translate(836.000000, 313.000000)">
                <path d="M33,41 C35.7614237,41 38,43.2385763 38,46 C38,48.7614237 35.7614237,51 33,51 C30.2385763,51 28,48.7614237 28,46 C28,43.2385763 30.2385763,41 33,41 Z M46.6,41 C49.3614237,41 51.6,43.2385763 51.6,46 C51.6,48.7614237 49.3614237,51 46.6,51 C43.8385763,51 41.6,48.7614237 41.6,46 C41.6,43.2385763 43.8385763,41 46.6,41 Z M39.9000003,30 C42.6614241,30 44.9000003,32.2385763 44.9000003,35 C44.9000003,37.7614237 42.6614241,40 39.9000003,40 C37.1385766,40 34.9000003,37.7614237 34.9000003,35 C34.9000003,32.2385763 37.1385766,30 39.9000003,30 Z" id="Forme-Copy-2"></path>
            </g>
        </g>
    </g>
</svg>
