<?xml version="1.0" encoding="UTF-8" standalone="no"?>
<svg
   xmlns:dc="http://purl.org/dc/elements/1.1/"
   xmlns:cc="http://creativecommons.org/ns#"
   xmlns:rdf="http://www.w3.org/1999/02/22-rdf-syntax-ns#"
   xmlns:svg="http://www.w3.org/2000/svg"
   xmlns="http://www.w3.org/2000/svg"
   xmlns:sodipodi="http://sodipodi.sourceforge.net/DTD/sodipodi-0.dtd"
   xmlns:inkscape="http://www.inkscape.org/namespaces/inkscape"
   id="fc2f056a-f2b1-4dd9-91f4-f36b8dc4c674"
   data-name="Layer 1"
   viewBox="0 0 700 467.10901"
   version="1.1"
   sodipodi:docname="ride.svg"
   inkscape:version="1.0.1 (c497b03c, 2020-09-10)">
  <metadata
     id="metadata99">
    <rdf:RDF>
      <cc:Work
         rdf:about="">
        <dc:format>image/svg+xml</dc:format>
        <dc:type
           rdf:resource="http://purl.org/dc/dcmitype/StillImage" />
        <dc:title></dc:title>
      </cc:Work>
    </rdf:RDF>
  </metadata>
  <defs
     id="defs97" />
  <sodipodi:namedview
     pagecolor="#ffffff"
     bordercolor="#666666"
     borderopacity="1"
     objecttolerance="10"
     gridtolerance="10"
     guidetolerance="10"
     inkscape:pageopacity="0"
     inkscape:pageshadow="2"
     inkscape:window-width="1099"
     inkscape:window-height="875"
     id="namedview95"
     showgrid="false"
     fit-margin-top="0"
     fit-margin-left="0"
     fit-margin-right="0"
     fit-margin-bottom="0"
     inkscape:zoom="0.86853616"
     inkscape:cx="411.37463"
     inkscape:cy="179.89641"
     inkscape:window-x="1779"
     inkscape:window-y="45"
     inkscape:window-maximized="0"
     inkscape:current-layer="fc2f056a-f2b1-4dd9-91f4-f36b8dc4c674"
     inkscape:document-rotation="0" />
  <path
     d="m 189.56533,422.7813 -0.0567,0.28203 -0.0161,0.0645 c 0,-0.0241 -0.008,-0.0403 -0.008,-0.0645 -0.0161,-0.10475 -0.0244,-0.20951 -0.0401,-0.31427 0.0401,0.008 0.0803,0.0241 0.12078,0.0323 z"
     fill="#f2f2f2"
     id="path10"
     style="stroke-width:0.805823" />
  <path
     d="m 132.94012,328.68536 c 0.33838,0.70107 0.67677,1.40214 1.0234,2.09514 q -0.68937,2.22407 -1.21701,4.51261 c -0.36237,-0.74941 -0.73303,-1.50689 -1.0958,-2.2563 q -8.84772,-18.14312 -17.21227,-36.50379 C 104.83308,275.55744 95.557851,254.43681 86.266856,233.3323 Q 71.592649,199.99539 56.926706,166.67461 42.264898,133.33775 27.594822,100.0169 a 1.9097204,1.9097204 0 0 1 -0.136933,-0.499607 c -0.169578,-1.547172 2.02243,-2.667273 2.755858,-1.095917 a 0.17499257,0.17499257 0 0 1 0.02401,0.04032 q 1.837277,4.145954 3.658438,8.299974 14.661808,33.32482 29.331884,66.6577 14.614015,33.20394 29.235492,66.41599 c 9.258689,21.03199 18.541799,42.05591 28.195539,62.90256 q 6.03195,13.03007 12.28101,25.94746 z"
     fill="#ffffff"
     id="path12"
     style="stroke-width:0.805823" />
  <path
     d="m 182.60291,425.07792 c -0.53984,-0.84615 -1.07967,-1.68417 -1.61165,-2.53028 -0.45917,-0.71718 -0.91048,-1.43436 -1.36179,-2.15155 -0.11293,-0.17728 -0.22547,-0.3465 -0.32225,-0.52378 q 2.22388,0.68898 4.46426,1.32154 c 0.1208,0.20147 0.24946,0.41098 0.3868,0.61243 0.36238,0.57214 0.72516,1.15233 1.0958,1.72446 0.0562,0.0967 0.10467,0.18535 0.14519,0.27399 0.63626,1.55521 -1.78909,2.83649 -2.79636,1.27319 z"
     fill="#ffffff"
     id="path14"
     style="stroke-width:0.805823" />
  <path
     d="m 175.3021,420.47666 c 0.66064,0.92669 1.3134,1.8534 1.9583,2.78814 -1.12021,0.24981 -2.23213,0.49156 -3.36022,0.72525 -0.89476,0.17728 -1.7891,0.35456 -2.68346,0.51572 A 152.06629,152.06629 0 0 1 7.42489,343.07734 C 3.6294628,335.48648 0.42233468,327.38796 0.03555566,318.9107 -0.28669305,311.90809 1.5748069,304.5751 5.8938904,299.16804 c 0.3545139,-0.45127 0.7334281,-0.88641 1.1280719,-1.3135 a 22.060297,22.060297 0 0 1 1.9421626,-1.83728 25.326596,25.326596 0 0 1 15.2221131,-5.51989 35.109718,35.109718 0 0 1 11.144592,1.3135 c 8.912058,2.53029 16.696439,7.9212 24.150303,13.43307 a 579.3575,579.3575 0 0 1 71.323607,61.83887 c 0.72517,0.74942 1.45859,1.51495 2.17549,2.27243 a 72.992619,72.992619 0 0 0 40.52486,48.59114 0.39968831,0.39968831 0 0 1 0.0723,0.10475 c 0.58868,0.80582 1.16078,1.61164 1.72462,2.42553 z"
     fill="#f2f2f2"
     id="path16"
     style="stroke-width:0.805823" />
  <path
     d="m 177.38117,423.44208 c -0.0401,-0.0564 -0.0806,-0.12087 -0.12079,-0.17728 0.024,-0.008 0.0401,-0.008 0.0645,-0.0161 z"
     fill="#f2f2f2"
     id="path18"
     style="stroke-width:0.805823" />
  <path
     d="M 6.0953059,299.39613 39.322153,326.08368 72.549,352.77123 c 10.523009,8.45201 21.039315,16.91361 31.68678,25.20886 10.55395,8.22241 21.23844,16.28213 32.1744,23.99117 10.92047,7.69811 22.09358,15.0465 33.60383,21.83497 q 2.15007,1.26806 4.31559,2.50953 c 0.99947,0.57346 1.96432,-0.94226 0.95778,-1.51978 -11.59193,-6.65114 -22.84416,-13.87803 -33.82941,-21.48637 -10.99706,-7.61655 -21.72954,-15.60856 -32.31511,-23.78534 C 98.500699,371.30381 88.005702,362.89539 77.521106,354.47562 Q 60.966943,341.1816 44.414851,327.88501 L 11.187979,301.19749 7.0530832,297.87637 c -0.8991939,-0.72222 -1.8514513,0.80199 -0.9577773,1.51978 z"
     fill="#ffffff"
     id="path20"
     style="stroke-width:0.805823" />
  <path
     d="m 461.65143,417.94636 c -0.24159,0.11281 -0.49144,0.22562 -0.7413,0.32233 0.22546,-0.0725 0.45131,-0.14505 0.6689,-0.21757 q 4.78655,-1.58345 9.50066,-3.36029 7.57821,-2.84053 14.95573,-6.16454 5.27052,-2.36908 10.44347,-4.97193 a 262.93949,262.93949 0 0 0 79.6317,-61.62936 q 3.04602,-3.48116 5.97127,-7.08319 2.48947,-3.05809 4.87507,-6.2048 a 256.68252,256.68252 0 0 0 24.01338,-38.13961 262.39793,262.39793 0 0 0 29.00964,-123.21037 c -0.22546,-14.50482 -1.74857,-29.30779 -7.84066,-42.46688 -5.0364,-10.87056 -13.6262,-20.51626 -24.44068,-25.302857 -0.90222,-0.402907 -1.82097,-0.773586 -2.75586,-1.095917 a 35.166931,35.166931 0 0 0 -4.39149,-1.265143 c -15.45584,-3.400576 -31.77375,3.553687 -43.289,14.408117 -11.52312,10.85445 -19.07377,25.17392 -26.02793,39.3967 -22.12001,45.27119 -41.43576,92.29094 -56.48829,140.53557 -0.16922,0.54796 -0.33838,1.08786 -0.50757,1.62776 a 73.001467,73.001467 0 0 1 15.03128,14.58932 l 7.88431,12.77139 a 71.94994,71.94994 0 0 1 4.03895,10.2954 q 0.68937,2.22407 1.21701,4.5126 a 72.541253,72.541253 0 0 1 -40.75861,82.65329 z"
     fill="#f2f2f2"
     id="path22"
     style="stroke-width:0.805823" />
  <path
     d="m 445.59126,422.7813 0.0567,0.28203 0.0161,0.0645 c 0,-0.0241 0.008,-0.0403 0.008,-0.0645 0.0161,-0.10475 0.0244,-0.20951 0.0401,-0.31427 -0.0401,0.008 -0.0803,0.0241 -0.12079,0.0323 z"
     fill="#f2f2f2"
     id="path24"
     style="stroke-width:0.805823" />
  <path
     d="m 502.21647,328.68536 c -0.33838,0.70107 -0.67676,1.40214 -1.02339,2.09514 q 0.68936,2.22407 1.217,4.51261 c 0.36238,-0.74941 0.73303,-1.50689 1.09581,-2.2563 q 8.84772,-18.14312 17.21227,-36.50379 c 9.60536,-20.97558 18.88058,-42.09621 28.17157,-63.20072 q 14.67422,-33.33691 29.34016,-66.65769 14.66181,-33.33686 29.33188,-66.65771 a 1.9097204,1.9097204 0 0 0 0.13693,-0.499607 c 0.16959,-1.547172 -2.02242,-2.667273 -2.75585,-1.095917 a 0.17499257,0.17499257 0 0 0 -0.024,0.04032 q -1.83728,4.145954 -3.65844,8.299974 -14.66181,33.32482 -29.33189,66.6577 -14.61401,33.20394 -29.23549,66.41599 c -9.2587,21.03199 -18.5418,42.05591 -28.19554,62.90256 q -6.03196,13.03007 -12.28102,25.94746 z"
     fill="#ffffff"
     id="path26"
     style="stroke-width:0.805823" />
  <path
     d="m 452.55368,425.07792 c 0.53984,-0.84615 1.07968,-1.68417 1.61165,-2.53028 0.45917,-0.71718 0.91048,-1.43436 1.36179,-2.15155 0.11293,-0.17728 0.22546,-0.3465 0.32225,-0.52378 q -2.22387,0.68898 -4.46426,1.32154 c -0.12079,0.20147 -0.24946,0.41098 -0.38679,0.61243 -0.36238,0.57214 -0.72516,1.15233 -1.09581,1.72446 -0.0562,0.0967 -0.10466,0.18535 -0.14518,0.27399 -0.63627,1.55521 1.78907,2.83649 2.79635,1.27319 z"
     fill="#ffffff"
     id="path28"
     style="stroke-width:0.805823" />
  <path
     d="m 459.85449,420.47666 c -0.66064,0.92669 -1.31339,1.8534 -1.95829,2.78814 1.1202,0.24981 2.23213,0.49156 3.36021,0.72525 0.89476,0.17728 1.78911,0.35456 2.68346,0.51572 a 152.06629,152.06629 0 0 0 163.79184,-81.42843 c 3.79542,-7.59086 7.00255,-15.68938 7.38933,-24.16664 0.32225,-7.00261 -1.53926,-14.3356 -5.85833,-19.74266 -0.35452,-0.45127 -0.73343,-0.88641 -1.12807,-1.3135 a 22.060297,22.060297 0 0 0 -1.94217,-1.83728 25.326596,25.326596 0 0 0 -15.22211,-5.51989 35.109718,35.109718 0 0 0 -11.1446,1.3135 c -8.91205,2.53029 -16.69644,7.9212 -24.1503,13.43307 a 579.3575,579.3575 0 0 0 -71.32361,61.83887 c -0.72517,0.74942 -1.45859,1.51495 -2.1755,2.27243 a 72.992619,72.992619 0 0 1 -40.52484,48.59114 0.39968831,0.39968831 0 0 0 -0.0723,0.10475 c -0.58867,0.80582 -1.16078,1.61164 -1.72462,2.42553 z"
     fill="#f2f2f2"
     id="path30"
     style="stroke-width:0.805823" />
  <path
     d="m 457.77542,423.44208 c 0.0401,-0.0564 0.0806,-0.12087 0.12079,-0.17728 -0.024,-0.008 -0.0401,-0.008 -0.0645,-0.0161 z"
     fill="#f2f2f2"
     id="path32"
     style="stroke-width:0.805823" />
  <path
     d="m 629.06129,299.39613 -33.22685,26.68755 -33.22684,26.68755 c -10.52301,8.45201 -21.03932,16.91361 -31.68679,25.20886 -10.55396,8.22241 -21.23844,16.28213 -32.17441,23.99117 -10.92045,7.69811 -22.09357,15.0465 -33.60382,21.83497 q -2.15005,1.26806 -4.31559,2.50953 c -0.99946,0.57346 -1.96432,-0.94226 -0.95778,-1.51978 11.59194,-6.65114 22.84417,-13.87803 33.8294,-21.48637 10.99708,-7.61655 21.72955,-15.60856 32.31513,-23.78534 10.64215,-8.22046 21.13715,-16.62888 31.62175,-25.04865 q 16.55416,-13.29402 33.10626,-26.59061 l 33.22687,-26.68752 4.13489,-3.32112 c 0.89919,-0.72222 1.85145,0.80199 0.95778,1.51978 z"
     fill="#ffffff"
     id="path34"
     style="stroke-width:0.805823" />
  <path
     d="m 292.49213,154.69713 a 5.1980271,5.1980271 0 0 0 -3.01168,2.65197 l -4.13853,8.41722 -1.10801,2.25061 a 5.2462879,5.2462879 0 0 0 2.38214,7.01494 l 32.07348,15.77931 56.87805,27.97129 a 5.2466505,5.2466505 0 0 0 6.83247,-2.04871 c 0.0668,-0.11155 0.123,-0.21882 0.18249,-0.33361 l 3.16905,-6.4405 2.08076,-4.2345 a 5.2133055,5.2133055 0 0 0 0.38921,-1.06128 5.2659982,5.2659982 0 0 0 -0.13009,-2.93781 5.1974066,5.1974066 0 0 0 -2.65201,-3.01156 l -6.78057,-3.33691 -50.16053,-24.67126 -32.00712,-15.75001 a 5.2363278,5.2363278 0 0 0 -3.99911,-0.25919 z"
     fill="#e49d75"
     id="path36"
     style="stroke-width:0.805823" />
  <path
     d="m 282.56874,157.82135 a 14.57573,14.57573 0 0 0 -1.51772,2.65985 14.925723,14.925723 0 0 0 7.61756,19.65842 l 25.06443,11.06457 a 5.260148,5.260148 0 0 0 4.95649,-0.39302 5.16245,5.16245 0 0 0 1.49522,-1.47152 5.0191907,5.0191907 0 0 0 0.4553,-0.81191 l 7.81028,-17.69252 a 0.74151852,0.74151852 0 0 0 0.0481,-0.12889 5.2344181,5.2344181 0 0 0 -2.72449,-6.77813 l -25.06446,-11.06457 a 14.931259,14.931259 0 0 0 -18.1407,4.95772 z"
     fill="#fcfc8e"
     id="path38"
     style="stroke-width:0.805823" />
  <path
     d="m 351.27768,238.3042 h -11.89375 a 5.2428389,5.2428389 0 0 0 -5.23786,5.23785 v 74.14379 a 5.2428067,5.2428067 0 0 0 5.23786,5.23785 h 11.89375 a 5.2375043,5.2375043 0 0 0 5.23785,-5.23785 v -74.14379 a 5.2375447,5.2375447 0 0 0 -5.23785,-5.23785 z"
     fill="#e49d75"
     id="path40"
     style="stroke-width:0.805823" />
  <path
     d="m 343.94009,265.19639 a 6.9383635,6.9383635 0 0 1 -2.53335,-0.47886 l -66.25456,-25.92051 a 7.1893291,7.1893291 0 0 1 -3.97227,-9.34526 l 5.6693,-14.49066 a 7.2859875,7.2859875 0 0 1 3.80267,-4.0181 6.9781792,6.9781792 0 0 1 5.45623,-0.15069 l 66.25457,25.92091 a 6.9844969,6.9844969 0 0 1 3.90576,3.81311 7.2858828,7.2858828 0 0 1 0.0665,5.53177 l -5.66908,14.49065 a 7.2645849,7.2645849 0 0 1 -6.72577,4.64764 z"
     fill="#748cec"
     id="path42"
     style="stroke-width:0.805823" />
  <path
     d="m 351.62594,327.55718 h -12.89317 a 4.4320277,4.4320277 0 0 1 0,-8.86405 h 12.89317 a 4.4320277,4.4320277 0 0 1 0,8.86405 z"
     fill="#2f2e41"
     id="path44"
     style="stroke-width:0.805823" />
  <path
     d="m 250.18483,247.22829 a 21.482441,21.482441 0 0 1 -4.8184,-0.50916 c -7.15306,-1.65099 -9.79461,-4.79047 -10.22762,-6.3852 a 1.4170724,1.4170724 0 0 1 0.26224,-1.45859 1.234642,1.234642 0 0 1 1.3195,-0.18335 c 2.22191,0.74168 33.72122,-5.48732 44.90792,-8.06886 4.65217,-1.07299 7.91721,-0.89632 9.7049,0.52567 a 3.1298576,3.1298576 0 0 1 1.26441,2.28445 v 0.28055 l -21.99978,8.14794 c -0.7124,0.35412 -10.96383,5.36655 -20.41317,5.36655 z"
     fill="#2f2e41"
     id="path46"
     style="stroke-width:0.805823" />
  <path
     d="m 422.47932,344.32601 a 0.80599244,0.80599244 0 0 1 -0.73813,-0.48199 L 380.23577,249.4368 a 2.4054871,2.4054871 0 0 0 -2.26224,-1.44364 l -113.56658,2.31792 a 2.4061882,2.4061882 0 0 0 -2.01319,1.15601 l -54.50362,89.12647 a 0.80567322,0.80567322 0 1 1 -1.37479,-0.84047 l 54.50364,-89.12689 a 4.0114444,4.0114444 0 0 1 3.35491,-1.92681 l 113.56658,-2.31792 a 4.0316142,4.0316142 0 0 1 3.7708,2.40684 l 41.5054,94.40723 a 0.80662903,0.80662903 0 0 1 -0.73732,1.13043 z"
     fill="#2f2e41"
     id="path48"
     style="stroke-width:0.805823" />
  <path
     d="m 290.98574,347.70316 a 0.80649205,0.80649205 0 0 1 -0.77415,-0.58352 l -26.26933,-91.39758 a 0.80592797,0.80592797 0 0 1 1.54909,-0.44541 l 26.26933,91.39759 a 0.80582321,0.80582321 0 0 1 -0.55204,0.99705 0.79499295,0.79499295 0 0 1 -0.2229,0.0318 z"
     fill="#2f2e41"
     id="path50"
     style="stroke-width:0.805823" />
  <path
     d="m 296.6269,241.73701 h -25.78635 a 18.151482,18.151482 0 0 1 -18.13102,-18.13102 v -4.02911 a 18.151482,18.151482 0 0 1 18.13102,-18.13103 h 25.78635 a 18.151482,18.151482 0 0 1 18.13101,18.13103 v 4.02911 a 18.151482,18.151482 0 0 1 -18.13101,18.13102 z"
     fill="#748cec"
     id="path52"
     style="stroke-width:0.805823" />
  <circle
     cx="428.98499"
     cy="351.88947"
     r="4.834939"
     fill="#2f2e41"
     id="circle54"
     style="stroke-width:0.805823" />
  <circle
     cx="201.74281"
     cy="351.88947"
     r="4.834939"
     fill="#2f2e41"
     id="circle56"
     style="stroke-width:0.805823" />
  <path
     d="m 374.12324,212.34808 a 2.820623,2.820623 0 0 1 -0.94294,-5.47984 l 24.31162,-8.59491 a 2.8201986,2.8201986 0 1 1 1.88038,5.31773 l -24.31162,8.59532 a 2.8021858,2.8021858 0 0 1 -0.93744,0.1617 z"
     fill="#2f2e41"
     id="path58"
     style="stroke-width:0.805823" />
  <path
     d="m 310.44963,347.05433 a 0.80582321,0.80582321 0 0 1 -0.57997,-1.36533 l 72.84949,-75.5058 a 0.80587156,0.80587156 0 1 1 1.15994,1.11903 l -72.84949,75.50579 a 0.80305118,0.80305118 0 0 1 -0.57997,0.24631 z"
     fill="#2f2e41"
     id="path60"
     style="stroke-width:0.805823" />
  <path
     d="m 214.81676,356.76277 a 0.8058264,0.8058264 0 0 1 -0.003,-1.61165 l 67.30532,-0.19595 h 0.003 a 0.8058264,0.8058264 0 0 1 0.003,1.61165 l -67.30532,0.19595 z"
     fill="#2f2e41"
     id="path62"
     style="stroke-width:0.805823" />
  <path
     d="m 378.97549,241.14287 a 0.80572652,0.80572652 0 0 1 -0.78713,-0.63701 l -3.76883,-17.6026 a 0.8056701,0.8056701 0 0 1 0.78791,-0.97462 h 12.7852 v -8.64057 a 0.805825,0.805825 0 0 1 1.61165,0 v 9.44641 a 0.8058635,0.8058635 0 0 1 -0.80583,0.80583 H 376.2041 l 3.56013,16.62796 a 0.80512215,0.80512215 0 0 1 -0.78871,0.97463 z"
     fill="#2f2e41"
     id="path64"
     style="stroke-width:0.805823" />
  <path
     d="m 296.6269,377.51822 a 16.116464,16.116464 0 1 1 16.11646,-16.11646 16.134805,16.134805 0 0 1 -16.11646,16.11646 z m 0,-30.62128 a 14.504818,14.504818 0 1 0 14.50481,14.50482 14.521184,14.521184 0 0 0 -14.50481,-14.50482 z"
     fill="#2f2e41"
     id="path66"
     style="stroke-width:0.805823" />
  <path
     d="m 312.1406,365.43087 h -12.89317 a 4.4320277,4.4320277 0 0 1 0,-8.86405 h 12.89317 a 4.4320277,4.4320277 0 0 1 0,8.86405 z"
     fill="#2f2e41"
     id="path68"
     style="stroke-width:0.805823" />
  <path
     d="M 619.982,426.66848 H 25.04755 a 0.959485,0.959485 0 1 1 0,-1.91897 H 619.982 a 0.959485,0.959485 0 1 1 0,1.91897 z"
     fill="#3f3d56"
     id="path70"
     style="stroke-width:0.805823" />
  <path
     d="m 303.83702,132.81565 a 5.1980593,5.1980593 0 0 0 -3.53611,1.89711 l -5.94523,7.25475 -1.59107,1.93944 a 5.2462879,5.2462879 0 0 0 0.72346,7.37297 l 27.64171,22.6634 49.02145,40.17962 a 5.2466424,5.2466424 0 0 0 7.11945,-0.4403 c 0.0905,-0.0934 0.16957,-0.18509 0.25362,-0.28335 l 4.55138,-5.55051 2.9897,-3.64998 a 5.2128059,5.2128059 0 0 0 0.62048,-0.94489 5.2659661,5.2659661 0 0 0 0.5418,-2.89035 5.1974147,5.1974147 0 0 0 -1.89719,-3.536 L 378.4871,192.03539 335.25606,156.5977 307.67231,133.978 a 5.2363117,5.2363117 0 0 0 -3.83529,-1.16235 z"
     fill="#e49d75"
     id="path72"
     style="stroke-width:0.805823" />
  <circle
     cx="286.20178"
     cy="59.949436"
     r="43.12698"
     fill="#e49d75"
     id="circle74"
     style="stroke-width:0.805823" />
  <path
     d="m 322.62144,79.01386 -0.0449,-1.611646 c 2.99822,-0.08342 5.64156,-0.27149 7.62777,-1.722608 a 4.9542011,4.9542011 0 0 0 1.91895,-3.649025 2.831969,2.831969 0 0 0 -0.92898,-2.33248 c -1.31852,-1.113511 -3.44006,-0.753098 -4.98644,-0.04408 l -1.33347,0.611451 2.55716,-18.687387 1.5967,0.218773 -2.17509,15.89612 c 2.10112,-0.617744 4.048,-0.351758 5.38145,0.774348 a 4.4086588,4.4086588 0 0 1 1.49912,3.619911 6.553462,6.553462 0 0 1 -2.57879,4.893957 c -2.55202,1.865038 -5.86858,1.957901 -8.53353,2.032657 z"
     fill="#2f2e41"
     id="path76"
     style="stroke-width:0.805823" />
  <rect
     x="309.52682"
     y="53.167702"
     width="8.6799078"
     height="1.6116464"
     fill="#2f2e41"
     id="rect78"
     style="stroke-width:0.805823" />
  <path
     d="M 333.69898,153.53391 314.4711,134.02066 a 14.908442,14.908442 0 0 0 -21.24348,20.92274 l 19.22827,19.51329 a 5.2349902,5.2349902 0 0 0 6.58533,0.71507 4.3410502,4.3410502 0 0 0 0.82402,-0.65719 l 13.77596,-13.57119 a 5.1793643,5.1793643 0 0 0 1.14346,-1.66836 5.265958,5.265958 0 0 0 -1.08568,-5.74111 z"
     fill="#fcfc8e"
     id="path80"
     style="stroke-width:0.805823" />
  <path
     d="m 311.79234,273.76042 h -11.89375 a 5.2428389,5.2428389 0 0 0 -5.23786,5.23785 v 74.14379 a 5.2428067,5.2428067 0 0 0 5.23786,5.23785 h 11.89375 a 5.2375043,5.2375043 0 0 0 5.23785,-5.23785 v -74.14379 a 5.2375447,5.2375447 0 0 0 -5.23785,-5.23785 z"
     fill="#e49d75"
     id="path82"
     style="stroke-width:0.805823" />
  <path
     d="m 293.86494,299.26641 c -3.8076,4e-4 -7.09205,-2.35647 -7.67578,-5.75093 L 274.13053,223.4006 a 6.622787,6.622787 0 0 1 1.53316,-5.38186 8.8044244,8.8044244 0 0 1 5.32737,-3.00653 l 17.41116,-2.99468 c 4.44777,-0.76451 8.60496,1.75408 9.26874,5.614 l 12.05863,70.11528 a 6.6238669,6.6238669 0 0 1 -1.52843,5.38069 8.8058427,8.8058427 0 0 1 -5.33209,3.00726 l -17.41117,2.9947 a 9.3883968,9.3883968 0 0 1 -1.59296,0.13695 z"
     fill="#748cec"
     id="path84"
     style="stroke-width:0.805823" />
  <path
     d="m 311.5425,124.21322 a 31.205827,31.205827 0 0 0 -7.07496,-5.97447 36.13553,36.13553 0 0 0 -37.7769,0.1638 31.506165,31.506165 0 0 0 -6.14834,5.07723 26.784887,26.784887 0 0 0 -7.49439,18.37197 v 77.57539 a 3.3840788,3.3840788 0 0 0 0.0645,0.70496 c 0.3789,2.414 2.73972,4.27968 5.57622,4.27968 h 54.04682 c 3.1021,0 5.64076,-2.23597 5.64076,-4.98464 v -77.57537 a 26.612062,26.612062 0 0 0 -6.83375,-17.63855 z"
     fill="#fcfc8e"
     id="path86"
     style="stroke-width:0.805823" />
  <path
     d="m 295.8949,63.385419 c -5.71806,1.899752 -12.13689,-2.004888 -12.50099,-8.154254 -0.20889,-2.890595 0.89317,-5.721891 3.00131,-7.7106 1.91827,-1.636582 4.2717,-2.678975 6.77276,-2.999814 5.42939,-0.94212 11.01018,-0.177829 16.4631,-0.989704 5.5004,-0.818942 10.34888,-3.659929 12.75963,-8.827189 2.33676,-5.127461 2.38729,-11.005806 0.13902,-16.172678 C 320.02795,12.8089 315.11919,8.4512982 309.71118,5.5178839 299.30336,-0.12750403 286.81134,-1.2392822 275.3431,1.2648618 263.82479,3.7109486 253.43824,9.896288 245.80015,18.858118 c -0.91412,1.101077 -1.78046,2.239678 -2.59902,3.415805 -0.46197,0.805907 0.11481,1.811022 1.0437,1.818807 l 7.07008,-0.85074 -1.04372,-1.818807 -7.68407,13.814888 c -0.47255,0.84957 0.32891,2.166109 1.36506,1.775623 l 11.2688,-4.246833 -1.17603,-2.020264 -11.18449,13.617309 c -0.97989,1.193013 0.7209,2.912938 1.7094,1.709409 l 11.18447,-13.617317 c 0.6795,-0.827299 0.0732,-2.491066 -1.17604,-2.020263 l -11.2688,4.246841 1.36507,1.775624 7.68408,-13.81488 c 0.40123,-0.721365 -0.0875,-1.933871 -1.04371,-1.818808 l -7.07008,0.85074 1.04372,1.818808 c 3.26092,-4.67003 7.38151,-8.658314 12.04927,-11.867926 4.78582,-3.2907954 10.14681,-5.7630284 15.74615,-7.3122306 11.10121,-3.0714404 23.46062,-2.5791017 33.90486,2.5179397 5.51909,2.6934241 10.5675,6.7397679 13.21865,12.3995729 2.29689,4.96904 2.08524,10.735756 -0.56971,15.523056 -6.06485,10.354562 -20.20441,5.033349 -29.66629,8.048675 -5.39831,1.720335 -9.27332,6.468609 -9.00354,12.283776 0.32072,6.10926 5.24384,10.967688 11.35681,11.207566 1.42801,0.07108 2.85674,-0.124938 4.21285,-0.577968 1.46927,-0.488144 0.83967,-2.823605 -0.64265,-2.331111 z"
     fill="#2f2e41"
     id="path88"
     sodipodi:nodetypes="scccsccscccccccccccssccccsccsssccscccss"
     style="fill:#2f2e41;fill-opacity:1;stroke-width:0.805823" />
  <path
     d="m 203.1514,424.8293 a 73.329912,73.329912 0 1 1 73.32992,-73.32991 73.4128,73.4128 0 0 1 -73.32992,73.32991 z m 0,-145.04817 a 71.718266,71.718266 0 1 0 71.71827,71.71826 71.799299,71.799299 0 0 0 -71.71827,-71.71826 z"
     fill="#2f2e41"
     id="path90"
     style="stroke-width:0.805823" />
  <path
     d="m 430.39354,424.8293 a 73.329912,73.329912 0 1 1 73.32992,-73.32991 73.4128,73.4128 0 0 1 -73.32992,73.32991 z m 0,-145.04817 a 71.718266,71.718266 0 1 0 71.71828,71.71826 71.799042,71.799042 0 0 0 -71.71828,-71.71826 z"
     fill="#2f2e41"
     id="path92"
     style="stroke-width:0.805823" />
</svg>
