<?xml version="1.0" encoding="UTF-8"?>
<svg viewBox="0 0 194 242" version="1.1" xmlns="http://www.w3.org/2000/svg" xmlns:xlink="http://www.w3.org/1999/xlink">
  <path d="M167.988278,64.2139194 C177.365568,81.8578755 164.72967,111.19707 157.230769,140.782418 C149.731868,170.367766 147.287912,200.035165 129.6,215.071062 C111.915018,230.150916 78.9479853,230.517216 52.0117216,217.761172 C25.0754579,205.005128 4.16996337,179.211722 0.586080586,152.518681 C-2.9978022,125.825641 10.6520147,98.3062271 29.3978022,78.5582418 C48.1435897,58.8102564 71.8886447,46.7721612 99.5311355,43.7567766 C127.173626,40.7413919 158.575824,46.6080586 167.988278,64.2139194 Z" id="Path" fill="#EBECF0" fill-rule="nonzero"></path>
  <polygon id="Path" fill="#EB573D" fill-rule="nonzero" points="185.561905 12.0527473 128.647619 24.2637363 128.647619 12.3457875 185.327473 0.187545788 193.761172 4.57728938"></polygon>
  <polygon id="Path" fill="#EB573D" fill-rule="nonzero" points="128.647619 12.3457875 71.1003663 0 63.5369963 4.35164835 70.4410256 11.7772894 128.647619 24.2637363"></polygon>
  <path d="M17.3948718,188.87326 C17.1018315,192.931868 15.3435897,211.267399 16.5450549,216.920147 L68.7062271,216.920147 L63.3406593,189.81685 L17.3948718,188.87326 Z" id="Path" fill="#8C9FEE" fill-rule="nonzero"></path>
  <path d="M51.1531136,127.20293 C57.6673993,122.851282 73.4652015,140.234432 74.1802198,145.400733 C72.5860806,148.038095 61.3450549,155.832967 57.207326,155.399267 C52.8322344,151.868132 44.8673993,131.399267 51.1531136,127.20293 Z" id="Path" fill="#FAFA8C" fill-rule="nonzero"></path>
  <line x1="128.647619" y1="5.36263736" x2="128.647619" y2="239.903297" id="Path" stroke="#D7D8DB" stroke-width="3.22344322" stroke-linecap="round" stroke-linejoin="round"></line>
  <path d="M36.6505495,118.83663 C74.1831502,118.83663 68.421978,180.609524 66.0190476,191.179487 C56.4600733,196.550916 25.8285714,195.800733 16.967033,190.104029 C13.570696,172.454212 13.1692308,118.83663 36.6505495,118.83663 Z" id="Path" fill="#FCFC8E" fill-rule="nonzero"></path>
  <polygon id="Path" fill="#D7D8DB" fill-rule="nonzero" points="113.711355 180.105495 38.5553114 200.615385 38.5553114 143.578022 113.711355 123.068132"></polygon>
  <path d="M7.54285714,149.910623 C7.54285714,149.910623 24.0087912,151.117949 24.0351648,153.687912 C24.0615385,156.257875 21.3333333,165.591209 19.8681319,168.949451 C21.3225337,168.04884 28.9248628,165.375662 33.0107981,164.178534 C32.9853858,163.895947 32.9728938,163.608308 32.9728938,163.317216 C32.9728938,158.670741 36.155772,154.904029 40.0820513,154.904029 C44.0083306,154.904029 47.1912088,158.670741 47.1912088,163.317216 C47.1912088,167.963691 44.0083306,171.730403 40.0820513,171.730403 C39.379778,171.730403 38.7012881,171.609896 38.0605411,171.385402 C34.0132318,174.792989 13.8977822,189.616205 8.42197802,185.468132 C2.87472527,181.265934 6.49377289,153.427106 7.54285714,149.910623 Z" id="Combined-Shape" fill="#E49D75" fill-rule="nonzero"></path>
  <polygon id="Path" fill="#FF5F42" fill-rule="nonzero" points="128.647619 24.4542125 71.6542125 36.6798535 63.5369963 32.4043956 69.4065934 25.2454212 128.647619 12.5362637"></polygon>
  <polygon id="Path" fill="#FF5F42" fill-rule="nonzero" points="186.347253 24.9142857 128.647619 12.5362637 128.647619 24.4542125 185.643956 36.6798535 193.761172 32.181685"></polygon>
  <circle id="Oval" fill="#E49D75" fill-rule="nonzero" cx="41.0315018" cy="98.6051282" r="16.996337"></circle>
  <path d="M20.3838828,66.4732601 C28.3626779,66.4732601 34.8307692,72.9413515 34.8307692,80.9201465 C34.8307692,81.5683546 34.7880788,82.2065917 34.7053562,82.8321998 C35.1022363,82.671011 35.5062995,82.5262243 35.916353,82.3966963 C42.8726245,80.2024121 50.4556912,82.6935533 54.7604396,88.5860806 C53.4688922,88.8396815 52.1557702,88.9672644 50.8395604,88.9670434 C47.9613279,88.9699642 45.1499141,88.3584805 42.5782889,87.2087535 C41.4026254,94.649592 38.0907654,104.446556 29.5765568,111.158974 C24.9985614,106.980749 23.1041592,100.696776 24.4735754,94.7783809 C23.1778326,95.1618942 21.804814,95.367033 20.3838828,95.367033 C12.4050877,95.367033 5.93699634,88.8989416 5.93699634,80.9201465 C5.93699634,72.9413515 12.4050877,66.4732601 20.3838828,66.4732601 Z" id="Combined-Shape" fill="#323233" fill-rule="nonzero"></path>
  <path d="M45.0520147,124.375092 C45.0520147,126.587546 32.9699634,126.540659 32.9699634,124.375092 L32.9699634,108.457143 L45.0520147,108.457143 L45.0520147,124.375092 Z" id="Path" fill="#E49D75" fill-rule="nonzero"></path>
  <path d="M20.9553114,125.67326 C28.6769231,127.000733 28.1699634,150.482051 25.1311355,154.722344 C22.1567766,155.545788 8.64175824,153.45641 5.93699634,150.294505 C5.1956044,144.72381 13.5062271,124.389744 20.9553114,125.67326 Z" id="Path" fill="#FFFF8F" fill-rule="nonzero"></path>
  <ellipse id="Oval" fill="#E49D75" fill-rule="nonzero" cx="112.307692" cy="146.695971" rx="4.16410256" ry="6.87765568"></ellipse>
</svg>
