<?xml version="1.0" encoding="UTF-8"?>
<svg width="36px" height="36px" viewBox="0 0 36 36" version="1.1" xmlns="http://www.w3.org/2000/svg" xmlns:xlink="http://www.w3.org/1999/xlink">
    <!-- Generator: Sketch 63.1 (92452) - https://sketch.com -->
    <title>services</title>
    <desc>Created with Sketch.</desc>
    <g id="Site" stroke="none" stroke-width="1" fill="none" fill-rule="evenodd" stroke-linecap="round" stroke-linejoin="round">
        <g id="Main" transform="translate(-622.000000, -227.000000)" stroke="#EB1000" stroke-width="2.8">
            <g id="Header">
                <g id="Group-2" transform="translate(260.000000, 147.000000)">
                    <g id="Group-5" transform="translate(237.000000, 82.000000)">
                        <g id="services" transform="translate(127.000000, 0.000000)">
                            <path d="M16,0 C24.836556,0 32,7.163444 32,16 C32,24.836556 24.836556,32 16,32 C7.163444,32 0,24.836556 0,16 C0,7.163444 7.163444,0 16,0 Z M16,9.6 C12.4653776,9.6 9.6,12.4653776 9.6,16 C9.6,19.5346224 12.4653776,22.4 16,22.4 C19.5346224,22.4 22.4,19.5346224 22.4,16 C22.4,12.4653776 19.5346224,9.6 16,9.6 Z M4.688,4.688 L11.472,11.472 M20.528,20.528 L27.312,27.312 M20.528,11.472 L27.312,4.688 M20.528,11.472 L26.176,5.824 M4.688,27.312 L11.472,20.528" id="Combined-Shape"></path>
                        </g>
                    </g>
                </g>
            </g>
        </g>
    </g>
</svg>
