<?xml version="1.0" encoding="UTF-8"?>
<svg width="270" height="240" viewBox="0 0 223 184" version="1.1" xmlns="http://www.w3.org/2000/svg" xmlns:xlink="http://www.w3.org/1999/xlink">
    <path d="M197.105494,21.2139194 C208.108261,38.8578755 193.282033,68.1970696 184.483258,97.7824176 C175.684483,127.367766 172.816887,157.035165 152.062918,172.071062 C131.312388,187.150916 92.6307865,187.517216 61.0253393,174.761172 C29.4198922,162.005128 4.89059936,136.211722 0.685479494,109.518681 C-3.51964038,82.825641 12.4962618,55.3062271 34.4914799,35.5582418 C56.4866981,15.8102564 84.3477662,3.77216117 116.781859,0.756776557 C149.215952,-2.25860806 186.061467,3.60805861 197.105494,21.2139194 Z" id="Path" fill="#EBECF0" fill-rule="nonzero"></path>
    <polygon id="Path" fill="#EB573D" fill-rule="nonzero" points="216.857932 22.6779778 175.879647 31.4698898 175.879647 22.8889669 216.689141 14.135033 222.761405 17.2956483"></polygon>
    <polygon id="Path" fill="#EB573D" fill-rule="nonzero" points="175.879647 22.8889669 134.445626 14 129 17.1331868 133.970901 22.4796482 175.879647 31.4698898"></polygon>
    <polygon id="Path" fill="#FF5F42" fill-rule="nonzero" points="175.879647 31.6070326 134.844395 40.409494 129 37.3311644 133.22611 32.1767029 175.879647 23.0261097"></polygon>
    <polygon id="Path" fill="#FF5F42" fill-rule="nonzero" points="217.423383 31.9382854 175.879647 23.0261097 175.879647 31.6070326 216.917009 40.409494 222.761405 37.1708127"></polygon>
    <line x1="175.879647" y1="17.8610988" x2="175.5" y2="174.5" id="Path" stroke="#D7D8DB" stroke-width="2.32087907" stroke-linecap="round" stroke-linejoin="round"></line>
    <path d="M27.3948718,145.87326 C27.1018315,149.931868 25.3435897,168.267399 26.5450549,173.920147 L78.7062271,173.920147 L73.3406593,146.81685 L27.3948718,145.87326 Z" id="Path" fill="#8C9FEE" fill-rule="nonzero"></path>
    <path d="M61.1531136,84.2029304 C67.6673993,79.8512821 83.4652015,97.2344322 84.1802198,102.400733 C82.5860806,105.038095 71.3450549,112.832967 67.207326,112.399267 C62.8322344,108.868132 54.8673993,88.3992674 61.1531136,84.2029304 Z" id="Path" fill="#FAFA8C" fill-rule="nonzero"></path>
    <path d="M46.6505495,75.83663 C84.1831502,75.83663 78.421978,137.609524 76.0190476,148.179487 C66.4600733,153.550916 35.8285714,152.800733 26.967033,147.104029 C23.570696,129.454212 23.1692308,75.83663 46.6505495,75.83663 Z" id="Path" fill="#FCFC8E" fill-rule="nonzero"></path>
    <polygon id="Path" fill="#D7D8DB" fill-rule="nonzero" points="123.711355 137.105495 48.5553114 157.615385 48.5553114 100.578022 123.711355 80.0681319"></polygon>
    <path d="M17.5428571,106.910623 C17.5428571,106.910623 34.0087912,108.117949 34.0351648,110.687912 C34.0615385,113.257875 31.3333333,122.591209 29.8681319,125.949451 C31.3225337,125.04884 38.9248628,122.375662 43.0107981,121.178534 C42.9853858,120.895947 42.9728938,120.608308 42.9728938,120.317216 C42.9728938,115.670741 46.155772,111.904029 50.0820513,111.904029 C54.0083306,111.904029 57.1912088,115.670741 57.1912088,120.317216 C57.1912088,124.963691 54.0083306,128.730403 50.0820513,128.730403 C49.379778,128.730403 48.7012881,128.609896 48.0605411,128.385402 C44.0132318,131.792989 23.8977822,146.616205 18.421978,142.468132 C12.8747253,138.265934 16.4937729,110.427106 17.5428571,106.910623 Z" id="Combined-Shape" fill="#E49D75" fill-rule="nonzero"></path>
    <circle id="Oval" fill="#E49D75" fill-rule="nonzero" cx="51.0315018" cy="55.6051282" r="16.996337"></circle>
    <path d="M30.3838828,23.4732601 C38.3626779,23.4732601 44.8307692,29.9413515 44.8307692,37.9201465 C44.8307692,38.5683546 44.7880788,39.2065917 44.7053562,39.8321998 C45.1022363,39.671011 45.5062995,39.5262243 45.916353,39.3966963 C52.8726245,37.2024121 60.4556912,39.6935533 64.7604396,45.5860806 C63.4688922,45.8396815 62.1557702,45.9672644 60.8395604,45.9670434 C57.9613279,45.9699642 55.1499141,45.3584805 52.5782889,44.2087535 C51.4026254,51.649592 48.0907654,61.4465564 39.5765568,68.1589744 C34.9985614,63.9807487 33.1041592,57.6967755 34.4735754,51.7783809 C33.1778326,52.1618942 31.804814,52.367033 30.3838828,52.367033 C22.4050877,52.367033 15.9369963,45.8989416 15.9369963,37.9201465 C15.9369963,29.9413515 22.4050877,23.4732601 30.3838828,23.4732601 Z" id="Combined-Shape" fill="#323233" fill-rule="nonzero"></path>
    <path d="M55.0520147,81.3750916 C55.0520147,83.5875458 42.9699634,83.5406593 42.9699634,81.3750916 L42.9699634,65.4571429 L55.0520147,65.4571429 L55.0520147,81.3750916 Z" id="Path" fill="#E49D75" fill-rule="nonzero"></path>
    <path d="M30.9553114,82.6732601 C38.6769231,84.0007326 38.1699634,107.482051 35.1311355,111.722344 C32.1567766,112.545788 18.6417582,110.45641 15.9369963,107.294505 C15.1956044,101.72381 23.5062271,81.3897436 30.9553114,82.6732601 Z" id="Path" fill="#FFFF8F" fill-rule="nonzero"></path>
    <ellipse id="Oval" fill="#E49D75" fill-rule="nonzero" cx="122.307692" cy="103.695971" rx="4.16410256" ry="6.87765568"></ellipse>
</svg>
