<?xml version="1.0" encoding="UTF-8"?>
<svg width="40px" height="40px" viewBox="0 0 40 40" version="1.1" xmlns="http://www.w3.org/2000/svg" xmlns:xlink="http://www.w3.org/1999/xlink">
    <g id="Site" stroke="none" stroke-width="1" fill="none" fill-rule="evenodd">
        <g id="Main-Copy-4" transform="translate(-260.000000, -1308.000000)">
            <g id="Main" transform="translate(251.000000, 566.000000)">
                <g id="Card" transform="translate(0.000000, 733.000000)">
                    <g id="services" transform="translate(29.000000, 29.000000) rotate(315.000000) translate(-29.000000, -29.000000) translate(9.000000, 9.000000)">
                        <rect id="Combined-Shape-Copy-5" fill="#FF5F42" x="16" y="16" width="24" height="8" rx="4"></rect>
                        <path d="M20,0 C31.045695,0 40,8.954305 40,20 C40,31.045695 31.045695,40 20,40 C8.954305,40 0,31.045695 0,20 C0,8.954305 8.954305,0 20,0 Z M20,6 C12.2680135,6 6,12.2680135 6,20 C6,27.7319865 12.2680135,34 20,34 C27.7319865,34 34,27.7319865 34,20 C34,12.2680135 27.7319865,6 20,6 Z" id="Combined-Shape" fill="#3355E3"></path>
                    </g>
                </g>
            </g>
        </g>
    </g>
</svg>
