<?xml version="1.0" encoding="UTF-8"?>
<svg viewBox="0 0 200 250" version="1.1" xmlns="http://www.w3.org/2000/svg" xmlns:xlink="http://www.w3.org/1999/xlink">
    <g id="Site" stroke="none" stroke-width="1" fill="none" fill-rule="evenodd">
        <g id="Main-Copy-9" transform="translate(-818.000000, -1801.000000)">
            <g id="Content" transform="translate(251.000000, 933.000000)">
                <g id="ServicesIllustration" transform="translate(567.000000, 868.000000)">
                    <path d="M173.376195,66.2734634 C183.054244,84.4833171 170.013073,114.763512 162.273659,145.297756 C154.534244,175.832 152.011902,206.450927 133.756683,221.969073 C115.504488,237.532585 81.4800976,237.910634 53.6799024,224.745463 C25.8797073,211.580293 4.30370732,184.95961 0.604878049,157.410439 C-3.09395122,129.861268 10.9936585,101.45922 30.3406829,81.0778537 C49.6877073,60.6964878 74.1943415,48.2722927 102.723415,45.1601951 C131.252488,42.0480976 163.661854,48.1029268 173.376195,66.2734634 Z" id="Path" fill="#EBECF0" fill-rule="nonzero"></path>
                    <polygon id="Path" fill="#FF5F42" fill-rule="nonzero" points="191.513463 12.4393171 132.773756 25.0419512 132.773756 12.7417561 191.271512 0.193560976 199.975707 4.72409756"></polygon>
                    <polygon id="Path" fill="#FF5F42" fill-rule="nonzero" points="132.773756 12.7417561 73.3807805 0 65.5748293 4.49121951 72.7002927 12.1550244 132.773756 25.0419512"></polygon>
                    <path d="M17.9527805,194.931024 C17.6503415,199.119805 15.8357073,218.043415 17.0757073,223.877463 L70.9098537,223.877463 L65.3721951,195.904878 L17.9527805,194.931024 Z" id="Path" fill="#3355E3" fill-rule="nonzero"></path>
                    <path d="M52.7937561,131.282732 C59.5169756,126.791512 75.8214634,144.732195 76.5594146,150.064195 C74.9141463,152.786146 63.3125854,160.831024 59.0421463,160.383415 C54.5267317,156.739024 46.306439,135.613659 52.7937561,131.282732 Z" id="Path" fill="#3355E3" fill-rule="nonzero"></path>
                    <line x1="132.773756" y1="5.53463415" x2="132.773756" y2="247.597756" id="Path" stroke="#FFDBAC" stroke-width="3.32682927" stroke-linecap="round" stroke-linejoin="round"></line>
                    <path d="M37.8260488,122.648098 C76.562439,122.648098 70.6164878,186.402244 68.1364878,197.31122 C58.2709268,202.854927 26.6569756,202.080683 17.5112195,196.201268 C14.0059512,177.985366 13.5916098,122.648098 37.8260488,122.648098 Z" id="Path" fill="#3355E3" fill-rule="nonzero"></path>
                    <path d="M7.78478049,154.718732 C6.70204878,158.348 2.96692683,187.079707 8.69209756,191.416683 C14.4172683,195.753659 35.6484878,179.996585 39.4380488,176.74839 C43.2276098,173.500195 38.6789268,168.144 34.6474146,169.278146 C30.6159024,170.412293 22.0780488,173.394341 20.5053659,174.368195 C22.017561,170.902244 24.8332683,161.269561 24.8060488,158.617171 C24.7788293,155.96478 7.78478049,154.718732 7.78478049,154.718732 Z" id="Path" fill="#FFDBAC" fill-rule="nonzero"></path>
                    <polygon id="Path" fill="#D7D8DB" fill-rule="nonzero" points="117.358439 185.882049 39.7919024 207.049756 39.7919024 148.183024 117.358439 127.015317"></polygon>
                    <polygon id="Path" fill="#FF5F42" fill-rule="nonzero" points="132.773756 25.2385366 73.9523902 37.8562927 65.5748293 33.4437073 71.6326829 26.055122 132.773756 12.9383415"></polygon>
                    <polygon id="Path" fill="#FF5F42" fill-rule="nonzero" points="192.324 25.7133659 132.773756 12.9383415 132.773756 25.2385366 191.598146 37.8562927 199.975707 33.2138537"></polygon>
                    <circle id="Oval" fill="#FF5F42" fill-rule="nonzero" cx="21.0376585" cy="83.5155122" r="14.9102439"></circle>
                    <circle id="Oval" fill="#FFDBAC" fill-rule="nonzero" cx="42.3475122" cy="101.767707" r="17.5414634"></circle>
                    <path d="M30.5251707,114.724195 C41.7154146,105.902049 44.198439,91.9172683 44.5099512,84.3623415 C43.7924885,84.2739873 43.0703912,84.2285406 42.3475122,84.2262439 C35.1072388,84.2273714 28.6115559,88.676758 25.9946486,95.4275621 C23.3777413,102.178366 25.1773548,109.843373 30.5251707,114.724195 L30.5251707,114.724195 Z" id="Path" fill="#FF5F42" fill-rule="nonzero"></path>
                    <path d="M52.4701463,91.8204986 C53.8285711,91.8207266 55.1838091,91.6890518 56.5167805,91.4273171 C52.0739652,85.3457978 44.2476855,82.7747578 37.0639024,85.0367805 C41.0168133,89.3639713 46.6092548,91.826446 52.4701463,91.8204986 L52.4701463,91.8204986 Z" id="Path" fill="#FF5F42" fill-rule="nonzero"></path>
                    <path d="M46.4969756,128.364195 C46.4969756,130.64761 34.0274146,130.59922 34.0274146,128.364195 L34.0274146,111.935707 L46.4969756,111.935707 L46.4969756,128.364195 Z" id="Path" fill="#FFDBAC" fill-rule="nonzero"></path>
                    <path d="M21.6274146,129.704 C29.5966829,131.074049 29.0734634,155.308488 25.9371707,159.68478 C22.8674146,160.534634 8.91892683,158.378244 6.12741463,155.114927 C5.3622439,149.365561 13.9394146,128.379317 21.6274146,129.704 Z" id="Path" fill="#3355E3" fill-rule="nonzero"></path>
                    <ellipse id="Oval" fill="#FFDBAC" fill-rule="nonzero" cx="41.3676098" cy="168.555317" rx="7.33717073" ry="8.68302439"></ellipse>
                    <ellipse id="Oval" fill="#FFDBAC" fill-rule="nonzero" cx="115.909756" cy="151.400976" rx="4.29765854" ry="7.0982439"></ellipse>
                </g>
            </g>
        </g>
    </g>
</svg>
