<?xml version="1.0" encoding="UTF-8"?>
<svg width="34px" height="34px" viewBox="0 0 34 34" version="1.1" xmlns="http://www.w3.org/2000/svg" xmlns:xlink="http://www.w3.org/1999/xlink">
    <!-- Generator: Sketch 63.1 (92452) - https://sketch.com -->
    <title>tools</title>
    <desc>Created with Sketch.</desc>
    <g id="Site" stroke="none" stroke-width="1" fill="none" fill-rule="evenodd" stroke-linecap="round" stroke-linejoin="round">
        <g id="Main" transform="translate(-559.000000, -228.000000)" stroke="#44A74C" stroke-width="3.2">
            <g id="Header">
                <g id="Group-2" transform="translate(260.000000, 147.000000)">
                    <g id="Group-5" transform="translate(237.000000, 82.000000)">
                        <g id="tools" transform="translate(64.000000, 0.000000)">
                            <path d="M18.72,7.68 C18.1101714,8.30214962 18.1101714,9.29785038 18.72,9.92 L21.28,12.48 C21.9021496,13.0898286 22.8978504,13.0898286 23.52,12.48 L29.552,6.448 C31.1993632,10.0884216 30.4195078,14.3685832 27.5940455,17.1940455 C24.7685832,20.0195078 20.4884216,20.7993632 16.848,19.152 L5.792,30.208 C4.4665166,31.5334834 2.3174834,31.5334834 0.992,30.208 C-0.3334834,28.8825166 -0.3334834,26.7334834 0.992,25.408 L12.048,14.352 C10.4006368,10.7115784 11.1804922,6.43141685 14.0059545,3.60595451 C16.8314168,0.780492174 21.1115784,0.000636766955 24.752,1.648 L18.736,7.664 L18.72,7.68 Z" id="Path"></path>
                        </g>
                    </g>
                </g>
            </g>
        </g>
    </g>
</svg>