<?xml version="1.0" encoding="UTF-8"?>
<svg viewBox="0 0 240 240" version="1.1" xmlns="http://www.w3.org/2000/svg" xmlns:xlink="http://www.w3.org/1999/xlink">
    <title>1922797</title>
    <g id="Contenu" stroke="none" stroke-width="1" fill="none" fill-rule="evenodd">
        <g id="Desktop">
            <g id="1922797">
                <circle id="Oval" fill="#F7F7F7" cx="120" cy="120" r="120"></circle>
                <path d="M189.820559,69.2345381 L189.820559,179.989076 L40.0137242,179.989076 L40.0137242,69.2345381 L189.820559,69.2345381 Z M107.639869,149.397767 L47.7541901,149.397767 L47.7541901,173.607309 L107.639869,173.607309 L107.639869,149.397767 Z M181.688953,78.5807389 L47.8777081,78.5807389 L47.8777081,143.221863 L181.688953,143.221863 L181.688953,78.5807389 Z" id="Combined-Shape" fill="#EEEEEE"></path>
                <rect id="Rectangle" fill="#D4D4D5" x="40.0137242" y="61" width="149.806835" height="11.2401446"></rect>
                <path d="M47.9188808,64.993751 C48.89666,64.993751 49.6893065,65.7863976 49.6893065,66.7641767 C49.6893065,67.7419558 48.89666,68.5346024 47.9188808,68.5346024 C46.9411017,68.5346024 46.1484551,67.7419558 46.1484551,66.7641767 C46.1484551,65.7863976 46.9411017,64.993751 47.9188808,64.993751 Z M53.6212985,64.993751 C54.5990776,64.993751 55.3917242,65.7863976 55.3917242,66.7641767 C55.3917242,67.7419558 54.5990776,68.5346024 53.6212985,68.5346024 C52.6435194,68.5346024 51.8508728,67.7419558 51.8508728,66.7641767 C51.8508728,65.7863976 52.6435194,64.993751 53.6212985,64.993751 Z M59.3237162,64.993751 C60.3014953,64.993751 61.0941419,65.7863976 61.0941419,66.7641767 C61.0941419,67.7419558 60.3014953,68.5346024 59.3237162,68.5346024 C58.3459371,68.5346024 57.5532905,67.7419558 57.5532905,66.7641767 C57.5532905,65.7863976 58.3459371,64.993751 59.3237162,64.993751 Z" id="Combined-Shape" fill="#FF7860"></path>
                <path d="M199.84611,168.790104 L199.84611,171.919229 L117.624246,171.919229 L117.624246,168.790104 L199.84611,168.790104 Z M199.84611,159.958562 L199.84611,163.087687 L117.624246,163.087687 L117.624246,159.958562 L199.84611,159.958562 Z M199.84611,151.12702 L199.84611,154.256144 L117.624246,154.256144 L117.624246,151.12702 L199.84611,151.12702 Z" id="Combined-Shape" fill="#D4D4D5"></path>
            </g>
        </g>
    </g>
</svg>
