<?xml version="1.0" encoding="utf-8"?>
<!-- Generator: Adobe Illustrator 23.0.1, SVG Export Plug-In . SVG Version: 6.00 Build 0)  -->
<svg version="1.1" id="Calque_1" xmlns="http://www.w3.org/2000/svg" xmlns:xlink="http://www.w3.org/1999/xlink" x="0px" y="0px"
	 viewBox="0 0 200 200" style="enable-background:new 0 0 200 200;" xml:space="preserve">
<style type="text/css">
	.st0{fill:#FF5638;}
	.st1{fill:#3355E3;}
</style>
<title>agriculture</title>
<g id="agriculture">
	<rect x="71.2" y="134" class="st0" width="23" height="6"/>
	<rect x="75.2" y="148" class="st0" width="18" height="6"/>
	<path class="st1" d="M34.2,129c15.5,0,28,12.5,28,28s-12.5,28-28,28s-28-12.5-28-28S18.7,129,34.2,129 M34.2,123
		c-18.8,0-34,15.2-34,34s15.2,34,34,34s34-15.2,34-34l0,0C68.2,138.2,53,123,34.2,123L34.2,123z"/>
	<path class="st0" d="M146.2,120h14l0,0v12l0,0h-14c-2.2,0-4-1.8-4-4v-4C142.2,121.8,144,120,146.2,120z"/>
	<circle class="st1" cx="34.2" cy="157" r="14"/>
	<circle class="st1" cx="144.7" cy="165.5" r="10.5"/>
	<path class="st1" d="M163.1,147.9c0-1.8,0.1-23.1,0.1-27.9c0-6.9-6.1-15-14-15h-50c-0.8,0-1.6,0-2.3-0.1c-0.4-0.7-0.7-1.4-0.9-2.1
		c-1.5-4.4-11.8-39.5-12-39.9l-7.7,2.3c0.3,1.1,6,20.3,9.5,31.9H49.2V65h-6v48c-3.1-0.7-6.3-1-9.5-1c-3.9,0-7.7,0.5-11.5,1.4V67h-8
		v49.4c-5,2.4-9.5,5.6-13.3,9.6c-1.1,1.2-1.1,3.1,0.1,4.2c1.2,1.1,3.1,1.1,4.2-0.1c15.1-15.7,40.1-16.2,55.8-1.1
		c7.8,7.4,12.1,17.7,12.2,28.5c-0.1,2-0.3,4-0.8,5.9l-0.2,1c-0.4,1.6,0.7,3.2,2.3,3.6h0.1c0.2,0,0.4,0,0.6,0.1h44.1
		c1.4,14,13.9,24.2,27.9,22.8S171.4,177,170,163C169.5,157.3,167,152,163.1,147.9z M149.2,113c3,0,6,4,6,7c0,3.4,0,15.1-0.1,22.2
		c-12.9-5.8-27.9,0-33.7,12.8c-1,2.2-1.7,4.5-2,6.9H97.2v-49c0.6,0,1.3,0.1,2,0.1C99.2,113,149.2,113,149.2,113z M49.2,114.7V103
		h38.5c0.3,1,0.6,1.8,0.7,2.3c0.5,1.9,1.5,3.7,2.8,5.3V162H78.8c0.3-1.5,0.4-3,0.4-4.5C79.2,138.4,67.2,121.3,49.2,114.7L49.2,114.7
		z M144.7,185c-10.8,0-19.5-8.7-19.5-19.5s8.7-19.5,19.5-19.5s19.5,8.7,19.5,19.5l0,0C164.2,176.3,155.4,185,144.7,185z"/>
	<path class="st0" d="M15.2,55h68c3.3,0,6,2.7,6,6l0,0c0,3.3-2.7,6-6,6h-68c-3.3,0-6-2.7-6-6l0,0C9.2,57.7,11.9,55,15.2,55z"/>
	<path class="st1" d="M107.2,117L107.2,117c1.7,0,3,1.3,3,3v11c0,1.7-1.3,3-3,3l0,0c-1.7,0-3-1.3-3-3v-11
		C104.2,118.3,105.5,117,107.2,117z"/>
	<path class="st1" d="M119.2,117L119.2,117c1.7,0,3,1.3,3,3v11c0,1.7-1.3,3-3,3l0,0c-1.7,0-3-1.3-3-3v-11
		C116.2,118.3,117.5,117,119.2,117z"/>
	<path class="st1" d="M131.2,117L131.2,117c1.7,0,3,1.3,3,3v11c0,1.7-1.3,3-3,3l0,0c-1.7,0-3-1.3-3-3v-11
		C128.2,118.3,129.5,117,131.2,117z"/>
</g>
</svg>
