<?xml version="1.0" encoding="UTF-8"?>
<svg viewBox="0 0 171 133" version="1.1" xmlns="http://www.w3.org/2000/svg" xmlns:xlink="http://www.w3.org/1999/xlink">
    <g id="Symbols" stroke="none" stroke-width="1" fill="none" fill-rule="evenodd">
        <g id="illu-defi/agriculture-copy" transform="translate(-14.000000, -44.000000)" fill-rule="nonzero">
            <g id="agriculture" transform="translate(14.000000, 44.000000)">
                <path d="M94.09,89 L94.09,95 L76.09,95 L76.09,89 L94.09,89 Z M95.09,75 L95.09,81 L72.09,81 L72.09,75 L95.09,75 Z M161.09,61 L161.09,73 L147.09,73 C144.880861,73 143.09,71.209139 143.09,69 L143.09,65 C143.09,62.790861 144.880861,61 147.09,61 L161.09,61 Z" id="Combined-Shape" fill="#FF5638"></path>
                <path d="M82.88,3.87 C83.03,4.22 93.42,39.35 94.88,43.73 C96.065656,46.030242 96.065656,48 100.08,48 L100.08,48 L150.08,48 C157.97,48 162.08,54.06 162.08,61 L162.08,61 L162.079837,61.4068295 C162.079783,61.4794479 162.079716,61.5544246 162.079636,61.6316871 L162.079007,62.1221113 C162.075125,64.7055758 162.060418,69.2156581 162.044727,73.6933674 L162.041579,74.5878972 C162.02317,79.7966978 162.004315,84.7836747 162.000641,86.438023 L162,86.87 C169.717841,94.9292792 173.299196,109.07052 167.903207,118.837831 C162.507219,128.605142 151.387383,133.72956 140.456477,131.486267 C129.525572,129.242974 121.322864,120.153089 120.21,109.05 L120.21,109.05 L76.09,109.05 C75.8989863,109.048234 75.7084041,109.031516 75.52,109 C74.7203352,108.853359 74.0144272,108.388445 73.5638916,107.711699 C73.113356,107.034953 72.9567759,106.20433 73.13,105.41 L73.13,105.41 L73.33,104.41 C73.7774445,102.470116 74.0287082,100.490158 74.08,98.5 C74.0760867,82.3773097 64.2738549,67.8751916 49.3149558,61.8608342 C34.3560566,55.8464768 17.2432644,59.527172 6.08,71.16 C5.33688757,71.93348 4.2375767,72.2517592 3.19616716,71.994945 C2.15475762,71.7381308 1.32946428,70.9452392 1.03116716,69.914945 C0.732870042,68.8846508 1.00688757,67.77348 1.75,67 C5.57486527,63.0038086 11.0952116,59.2372314 16.09,56.86 L16.09,56.86 L16.09,8 L22.09,8 L22.09,54.45 C25.8473208,53.4861199 30.7110152,52.9989585 34.59,53 C37.7831109,52.9966141 40.9675801,53.3318214 44.09,54 L44.09,54 L44.09,6 L50.09,6 L50.09,38 L86.71,38 C85.73,34.7492 84.579088,30.904912 83.4227821,27.0306438 L82.9273747,25.3700506 C82.8449126,25.0935267 82.7625437,24.8172606 82.6803282,24.5414577 L82.4342022,23.7156435 C80.060601,15.7501741 77.8667718,8.34689632 77.3238594,6.51433528 L77.2736454,6.34483712 C77.244176,6.24536 77.2228,6.1732 77.21,6.13 L77.21,6.13 Z M35.09,64 C53.8676815,64 69.09,79.2223185 69.09,98 C69.09,116.777681 53.8676815,132 35.09,132 C16.3123185,132 1.09,116.777681 1.09,98 C1.09,79.2223185 16.3123185,64 35.09,64 Z M35.09,70 C19.626027,70 7.09,82.536027 7.09,98 C7.09,113.463973 19.626027,126 35.09,126 C50.553973,126 63.09,113.463973 63.09,98 C63.09,82.536027 50.553973,70 35.09,70 Z M153.052327,88.4843491 C145.765676,85.4661196 137.378379,87.1344568 131.801418,92.7114178 C126.224457,98.2883787 124.55612,106.675676 127.574349,113.962327 C130.592579,121.248978 137.702986,126 145.59,126 C156.354983,125.988976 165.078976,117.264983 165.09,106.5 C165.09,98.6129862 160.338978,91.5025786 153.052327,88.4843491 Z M145.59,96 C151.38899,96 156.09,100.70101 156.09,106.5 C156.09,112.29899 151.38899,117 145.59,117 C139.79101,117 135.09,112.29899 135.09,106.5 C135.09,100.70101 139.79101,96 145.59,96 Z M35.09,84 C42.8219865,84 49.09,90.2680135 49.09,98 C49.09,105.731986 42.8219865,112 35.09,112 C27.3580135,112 21.09,105.731986 21.09,98 C21.09,90.2680135 27.3580135,84 35.09,84 Z M98.09,53.93 L98.09,103 L120.33,103 C121.43129,95.0496417 126.211484,88.0817628 133.232527,84.1925491 C140.253571,80.3033355 148.695988,79.9467255 156.02,83.23 C156.037455,81.15 156.049831,78.6857884 156.058608,76.1534743 L156.061733,75.2012816 C156.071113,72.179806 156.075677,69.1180155 156.077897,66.5452539 L156.078523,65.7496761 C156.078615,65.6199949 156.078702,65.4918227 156.078783,65.3652367 L156.079639,63.5950563 C156.079675,63.4862615 156.079708,63.3794386 156.079737,63.274665 L156.08,61 C156.08,58 153.08,54 150.08,54 L150.08,54 L100.09,54 C99.37,54 98.71,53.93 98.09,53.93 L98.09,53.93 Z M88.56,44 L50.08,44 L50.08,55.72 L50.09,55.72 C68.0822043,62.264198 80.0670754,79.3546241 80.09,98.5 C80.0821933,100.008521 79.9483949,101.513754 79.69,103 L79.69,103 L92.08,103 L92.08,51.53 C90.7684799,50.0057747 89.8120913,48.2091304 89.28,46.27 C89.13,45.8 88.88,45 88.56,44 L88.56,44 Z M108.09,58 C109.746854,58 111.09,59.3431458 111.09,61 L111.09,72 C111.09,73.6568542 109.746854,75 108.09,75 C106.433146,75 105.09,73.6568542 105.09,72 L105.09,61 C105.09,59.3431458 106.433146,58 108.09,58 Z M120.09,58 C121.746854,58 123.09,59.3431458 123.09,61 L123.09,72 C123.09,73.6568542 121.746854,75 120.09,75 C118.433146,75 117.09,73.6568542 117.09,72 L117.09,61 C117.09,59.3431458 118.433146,58 120.09,58 Z M132.09,58 C133.746854,58 135.09,59.3431458 135.09,61 L135.09,72 C135.09,73.6568542 133.746854,75 132.09,75 C130.433146,75 129.09,73.6568542 129.09,72 L129.09,61 C129.09,59.3431458 130.433146,58 132.09,58 Z" id="Combined-Shape" fill="#27282B"></path>
                <path d="M15.09,0 L84.09,0 C86.299139,-4.05812251e-16 88.09,1.790861 88.09,4 C88.09,6.209139 86.299139,8 84.09,8 L15.09,8 C12.880861,8 11.09,6.209139 11.09,4 C11.09,1.790861 12.880861,8.49901461e-16 15.09,0 Z" id="Rectangle" fill="#FF5638"></path>
            </g>
        </g>
    </g>
</svg>
