<?xml version="1.0" encoding="UTF-8"?>
<svg viewBox="0 0 162 141" version="1.1" xmlns="http://www.w3.org/2000/svg" xmlns:xlink="http://www.w3.org/1999/xlink">
    <g id="Symbols" stroke="none" stroke-width="1" fill="none" fill-rule="evenodd">
        <g id="illu-defi/paiement-des-amendes-copy" transform="translate(-19.000000, -30.000000)" fill-rule="nonzero">
            <g id="amendes" transform="translate(21.000000, 31.000000)">
                <path d="M78.8069098,1.16716012e-12 L79.1200014,0.00399358794 L134.320002,0.00399358794 C140.760003,0.00399358794 144.127203,4.98119368 145.148403,7.97119373 L145.148403,7.97119373 L153.492803,30.5019941 C156.463709,32.5630009 158.237068,35.9481921 158.240003,39.5639943 L158.240003,39.5639943 L158.240003,57.9639946 C158.23627,61.1009863 156.898182,64.0882678 154.560003,66.1795948 L154.560003,66.1795948 L154.560003,74.9839949 C154.560003,79.8109637 149.646971,83.7239951 144.820003,83.7239951 C139.993034,83.7239951 135.080002,79.8109637 135.080002,74.9839949 L135.080002,74.9839949 L135.080002,69.0039948 L76.5200014,69.0039948 L76.5200014,74.9839949 C76.5200014,79.8109637 71.60697,83.7239951 66.7800012,83.7239951 C61.9530324,83.7239951 57.040001,79.8109637 57.040001,74.9839949 L57.040001,74.9839949 L57.040001,66.1795948 C54.7018219,64.0882678 53.3637339,61.1009863 53.360001,57.9639946 L53.360001,57.9639946 L53.360001,39.5639943 C53.360001,35.1967249 55.9357338,31.2403382 59.9288011,29.4715941 L59.9288011,29.4715941 L67.3624012,7.99879373 C69.1606696,3.08748803 73.8915301,-0.129349044 79.1200014,0.00399358794 Z M64.5600011,68.8383948 L64.5600011,73.9839949 C64.5600011,75.7623519 65.0016443,77.203995 66.7800012,77.203995 C68.5583581,77.203995 69.0000013,75.7623519 69.0000013,73.9839949 L69.0000013,73.9839949 L69.0000013,69.0039948 L66.4000012,69.0039948 C65.7831183,69.0002996 65.1676306,68.9449057 64.5600011,68.8383948 L64.5600011,68.8383948 Z M147.040003,68.8383948 C146.432373,68.9449057 145.816886,69.0002996 145.200003,69.0039948 L145.200003,69.0039948 L142.600003,69.0039948 L142.600003,73.9839949 C142.600003,75.7623519 143.041646,77.203995 144.820003,77.203995 C146.59836,77.203995 147.040003,75.7623519 147.040003,73.9839949 L147.040003,73.9839949 Z M147.200003,35.8839942 L64.4000012,35.8839942 C62.3675933,35.8839942 60.7200011,37.5315864 60.7200011,39.5639943 L60.7200011,39.5639943 L60.7200011,57.9639946 C60.7200011,59.9964026 62.3675933,61.6439947 64.4000012,61.6439947 L64.4000012,61.6439947 L147.200003,61.6439947 C149.232411,61.6439947 150.880003,59.9964026 150.880003,57.9639946 L150.880003,57.9639946 L150.880003,39.5639943 C150.880003,37.5315864 149.232411,35.8839942 147.200003,35.8839942 L147.200003,35.8839942 Z M115.920002,50.6039945 C117.444308,50.6039945 118.680002,51.8396886 118.680002,53.3639946 C118.680002,54.8883005 117.444308,56.1239946 115.920002,56.1239946 L95.6800017,56.1239946 C94.1556958,56.1239946 92.9200017,54.8883005 92.9200017,53.3639946 C92.9200017,51.8396886 94.1556958,50.6039945 95.6800017,50.6039945 L115.920002,50.6039945 Z M115.920002,43.2439944 C117.444308,43.2439944 118.680002,44.4796885 118.680002,46.0039944 C118.680002,47.5283004 117.444308,48.7639945 115.920002,48.7639945 L95.6800017,48.7639945 C94.1556958,48.7639945 92.9200017,47.5283004 92.9200017,46.0039944 C92.9200017,44.4796885 94.1556958,43.2439944 95.6800017,43.2439944 L115.920002,43.2439944 Z M79.1200014,7.36399372 C77.0253124,7.24846875 75.0899485,8.48073681 74.3084013,10.4275938 L74.3084013,10.4275938 L68.0800012,28.5239941 L144.909203,28.5239941 L138.193203,10.3723938 C138.092003,10.1239938 137.024802,7.36399372 134.320002,7.36399372 L134.320002,7.36399372 Z" id="Combined-Shape" stroke="#FFFFFF" stroke-width="2" fill="#272729"></path>
                <path d="M80.9600015,44.1639944 C82.9924094,44.1639944 84.6400015,45.8115865 84.6400015,47.8439945 L84.6400015,51.5239945 C84.6400015,53.5564024 82.9924094,55.2039946 80.9600015,55.2039946 L68.0800012,55.2039946 C66.0475933,55.2039946 64.4000012,53.5564024 64.4000012,51.5239945 L64.4000012,47.8439945 C64.4000012,45.8115865 66.0475933,44.1639944 68.0800012,44.1639944 L80.9600015,44.1639944 Z M143.520003,44.1639944 C145.552411,44.1639944 147.200003,45.8115865 147.200003,47.8439945 L147.200003,51.5239945 C147.200003,53.5564024 145.552411,55.2039946 143.520003,55.2039946 L130.640002,55.2039946 C128.607594,55.2039946 126.960002,53.5564024 126.960002,51.5239945 L126.960002,47.8439945 C126.960002,45.8115865 128.607594,44.1639944 130.640002,44.1639944 L143.520003,44.1639944 Z M125.040002,13.8039938 C133.660402,13.8039938 140.680003,20.228394 140.680003,29.3639941 L135.160002,29.3639941 C135.160002,23.273594 130.624402,19.3239939 125.040002,19.3239939 C119.455602,19.3239939 114.920002,23.273594 114.920002,29.3639941 L109.400002,29.3639941 C109.400002,20.228394 116.419602,13.8039938 125.040002,13.8039938 Z" id="Combined-Shape" fill="#DE1656"></path>
                <path d="M7.36000013,122.363996 C11.424816,122.363996 14.7200003,125.65918 14.7200003,129.723996 C14.7200003,133.788812 11.424816,137.083996 7.36000013,137.083996 C3.2951843,137.083996 0,133.788812 0,129.723996 C0,125.65918 3.2951843,122.363996 7.36000013,122.363996 Z M7.82000014,95.6839953 C27.8116005,95.6839953 42.3200008,110.192396 42.3200008,130.183995 C42.3200008,133.232608 39.8486125,135.703996 36.8,135.703996 C33.7513888,135.703996 31.2800006,133.232608 31.2800006,130.183995 C31.2800006,116.153996 21.8500004,106.723996 7.82000014,106.723996 C4.77138827,106.723996 2.30000004,104.252607 2.30000004,101.203995 C2.30000004,98.1553835 4.77138827,95.6839953 7.82000014,95.6839953 Z M7.82000014,69.0039948 C44.4176008,69.0039948 69.0000013,93.5863953 69.0000013,130.183996 C69.0000013,133.232608 66.528613,135.703996 63.4800012,135.703996 C60.4313893,135.703996 57.9600011,133.232608 57.9600011,130.183996 C57.9600011,99.7227954 38.2812007,80.043995 7.82000014,80.043995 C4.77138827,80.043995 2.30000004,77.5726068 2.30000004,74.5239949 C2.30000004,71.4753831 4.77138827,69.0039948 7.82000014,69.0039948 Z M84.9896015,85.8031951 C91.4756017,98.5635954 94.7600017,113.495196 94.7600017,130.183996 C94.7600017,133.232608 92.2886135,135.703996 89.2400016,135.703996 C86.1913897,135.703996 83.7200015,133.232608 83.7200015,130.183996 C83.7200015,115.252396 80.8404015,102.004395 75.1456014,90.8079952 C73.7635641,88.0896497 74.846856,84.7656326 77.5652015,83.3835953 C80.283547,82.0015579 83.6075641,83.0848497 84.9896015,85.8031951 Z M7.82000014,43.2439944 C21.7212004,43.2439944 34.5000006,45.5439944 45.7424008,50.0795945 C48.201678,51.0643653 49.6146093,53.6573482 49.1089132,56.2577499 C48.6032171,58.8581516 46.3215031,60.7326426 43.6724008,60.7240245 C42.9658919,60.7221868 42.2662988,60.5847667 41.6116008,60.3191947 C31.6756006,56.3171946 20.3044004,54.2839946 7.82000014,54.2839946 C4.77138827,54.2839946 2.30000004,51.8126063 2.30000004,48.7639945 C2.30000004,45.7153826 4.77138827,43.2439944 7.82000014,43.2439944 Z" id="Combined-Shape" stroke="#FFFFFF" stroke-width="4" fill="#272729"></path>
            </g>
        </g>
    </g>
</svg>
