<?xml version="1.0" encoding="utf-8"?>
<!-- Generator: Adobe Illustrator 23.0.1, SVG Export Plug-In . SVG Version: 6.00 Build 0)  -->
<svg version="1.1" id="armees" xmlns="http://www.w3.org/2000/svg" xmlns:xlink="http://www.w3.org/1999/xlink" x="0px" y="0px"
	 viewBox="0 0 200 200" style="enable-background:new 0 0 200 200;" xml:space="preserve">
<style type="text/css">
	.st0{fill:#FF5638;}
	.st1{fill:#3355E3;}
</style>
<title>Archive des armees</title>
<g>
	<path class="st0" d="M28.8,120.3l50.9,50.9c2.3,2.3,2.3,6.1,0,8.5l0,0c-2.3,2.3-6.1,2.3-8.5,0l-50.9-50.9c-2.3-2.3-2.3-6.1,0-8.5
		l0,0C22.6,118,26.4,118,28.8,120.3z"/>
	<path class="st1" d="M50,120c16.6,0,30,13.4,30,30s-13.4,30-30,30s-30-13.4-30-30c0-8,3.2-15.6,8.8-21.2C34.4,123.1,42,120,50,120
		 M50,108c-23.2,0-42,18.8-42,42s18.8,42,42,42s42-18.8,42-42c0-11.1-4.4-21.8-12.3-29.7S61.1,108,50,108z"/>
	<path class="st0" d="M89,22h-7v51.1L57.7,92.8c2.1,1.8,3.6,4.3,4.1,7l27.8-22.6l0.4-0.3V22H89z"/>
	<path class="st0" d="M68,22h-7v51.5l-8.4,16.8c2.7,0.6,5.1,2.1,6.8,4.2l9.5-19l0.1-0.2V22H68z"/>
	<path class="st0" d="M47.5,90.3l-8.5-17V22h-8v53.2l0.1,0.2l9.5,19C42.4,92.3,44.8,90.8,47.5,90.3z"/>
	<path class="st0" d="M42.3,92.8L18,73.1V22h-8v55l0.4,0.3l0.6,0.5l27.2,22c0.4-1.9,1.2-3.8,2.4-5.3C41.1,93.9,41.7,93.3,42.3,92.8z
		"/>
	<path class="st1" d="M61.8,99.7c-0.9-4.7-4.5-8.4-9.2-9.4c-1.7-0.4-3.4-0.4-5.1,0c-1.9,0.4-3.7,1.3-5.2,2.5
		c-0.6,0.5-1.2,1.1-1.7,1.7c-1.2,1.5-2.1,3.4-2.4,5.3c-0.1,0.7-0.2,1.5-0.2,2.2c0,6.6,5.4,12,12,12s12-5.4,12-12
		C62,101.3,61.9,100.5,61.8,99.7z M55.1,105.1c-1.1,1.8-3,2.9-5.1,2.9c-0.6,0-1.2-0.1-1.7-0.3l-0.4-0.1c-1.2-0.5-2.2-1.3-2.9-2.4
		c-0.6-1-1-2.1-1-3.2c0-0.2,0-0.5,0-0.7c0.4-2.9,2.8-5.1,5.7-5.3H50h0.4c2.9,0.2,5.3,2.5,5.6,5.4c0,0.2,0,0.4,0,0.6
		C56,103.1,55.7,104.2,55.1,105.1z"/>
	<path class="st1" d="M94,15H6c-3.3,0-6,2.7-6,6s2.7,6,6,6h88c3.3,0,6-2.7,6-6S97.3,15,94,15z"/>
</g>
</svg>
