<?xml version="1.0" encoding="UTF-8"?>
<svg viewBox="0 0 70 147" version="1.1" xmlns="http://www.w3.org/2000/svg" xmlns:xlink="http://www.w3.org/1999/xlink">
    <g id="Symbols" stroke="none" stroke-width="1" fill="none" fill-rule="evenodd">
        <g id="illu-defi/archive-armee-copy" transform="translate(-65.000000, -25.000000)" fill-rule="nonzero">
            <g id="armee" transform="translate(67.000000, 25.000000)">
                <path d="M15.0391254,88.5266058 L56.1644577,129.651938 C57.6015871,131.089067 57.6015871,133.419115 56.1644577,134.856244 C54.7273283,136.293373 52.3972812,136.293373 50.9601518,134.856244 L9.83481952,93.7309117 C8.39769013,92.2937823 8.39769013,89.9637352 9.83481952,88.5266058 C11.2719489,87.0894764 13.601996,87.0894764 15.0391254,88.5266058 Z M9.04000056,1.85000023 L9.04000056,51.7392018 L24.8670003,64.6960002 L19.265801,53.5410019 L19.180001,53.3772019 L19.180001,1.85000023 L24.4200012,1.85000023 L24.4200012,51.8952018 L31.0344015,65.400602 C29.7762181,65.9481516 28.7359769,66.5451284 27.9136779,67.1915326 L29.0018013,68.0818024 C28.5258239,68.4752948 28.0919062,67.9170543 27.7070013,68.4000025 C26.7398347,69.6049198 26.0859874,71.0305214 25.8038012,72.5496026 L25.8038012,72.5496026 L4.58780034,55.389602 L4.08860032,54.9840019 L3.80000031,54.7500019 L3.80000031,1.85000023 L9.04000056,1.85000023 Z M46.8200021,1.85000023 L46.8200021,53.4162019 L46.7420021,53.5800019 L41.2420003,64.5570002 L56.9600025,51.6924018 L56.9600025,1.85000023 L62.2000028,1.85000023 L62.2000028,54.6720019 L61.9114028,54.9060019 L40.1884019,72.5106026 C39.7844487,70.3723804 38.6481147,69.4417159 36.9748018,68.0506024 L36.9748018,68.0506024 L38.0481814,67.1702688 C37.158469,66.3845434 36.4457238,65.9910375 35.0280016,65.392802 L35.0280016,65.392802 L41.5800019,52.0200018 L41.5800019,1.85000023 L46.8200021,1.85000023 Z" id="Combined-Shape" fill="#DE1656"></path>
                <path d="M55.9544715,107.120347 C58.1345639,118.069086 52.276846,129.033119 41.9637327,133.307153 C31.6506195,137.581187 19.7545297,133.974814 13.5507764,124.69359 C7.34702304,115.412366 8.56348186,103.041307 16.4562009,95.1462035 C20.8327487,90.7414438 26.7906725,88.2723184 33.0000015,88.2898156 C44.1636778,88.2876191 53.7743791,96.1716091 55.9544715,107.120347 Z M33.0000015,78.9299727 C17.3711121,78.9311305 3.91943095,89.9722049 0.871410869,105.300993 C-2.17660921,120.629782 6.02794005,135.977043 20.4675194,141.957071 C34.9070988,147.937099 51.5601213,142.884388 60.2423355,129.888952 C68.9245496,116.893517 67.21786,99.5747332 56.1660025,88.5240033 C50.0281627,82.370979 41.6909535,78.9181953 33.0000015,78.9299727 Z" id="Shape" stroke="#FFFFFF" stroke-width="4" fill="#272729"></path>
                <path d="M31.0344015,65.1162023 C32.3496962,64.8251821 33.7127069,64.8251821 35.0280016,65.1162023 C38.6685267,65.9249885 41.4815801,68.8177144 42.1884019,72.4794026 C42.8670006,75.9744542 41.5039843,79.5518635 38.6717623,81.7092694 C35.8395403,83.8666753 32.0285916,84.2304622 28.8393541,82.6478551 C25.6501166,81.0652479 23.6348964,77.8103195 23.6399915,74.2500027 C23.6432447,73.6716757 23.6980619,73.0947903 23.8038012,72.5262026 C24.0896467,71.015354 24.7433078,69.5981954 25.7070013,68.4000025 C26.0927307,67.9224964 26.5266205,67.4859928 27.0018013,67.0974024 C28.1634712,66.1167252 29.5482381,65.4363948 31.0344015,65.1162023 Z M33.2808016,69.5778025 L32.7504015,69.5778025 C30.481256,69.7070625 28.622855,71.4280465 28.3200014,73.6806027 C28.3081273,73.870217 28.3081273,74.0603884 28.3200014,74.2500027 C28.3316072,75.1498764 28.6024233,76.0273205 29.1000014,76.7772028 C29.6333986,77.6164039 30.4202283,78.2638992 31.3464015,78.6258029 L31.3464015,78.6258029 L31.6428015,78.7272029 C32.0824184,78.8627155 32.5399738,78.9310859 33.0000015,78.9300156 C34.6317984,78.9286434 36.1450676,78.0774294 36.9936017,76.6836028 C37.4318051,75.9453066 37.6584739,75.1006955 37.6488017,74.2422027 C37.6568169,74.0915092 37.6568169,73.9404962 37.6488017,73.7898027 C37.4235324,71.5042206 35.573062,69.7198384 33.2808016,69.5778025 L33.2808016,69.5778025 Z M63.3200029,0.390000015 C64.9046956,0.390000015 66,1.48530747 66,3.0700002 C66,4.65469293 64.9046956,5.75000039 63.3200029,5.75000039 L63.3200029,5.75000039 L2.68000019,5.75000039 C1.09530745,5.75000039 0,4.65469293 0,3.0700002 C0,1.48530747 1.09530745,0.390000015 2.68000019,0.390000015 L2.68000019,0.390000015 Z" id="Combined-Shape" fill="#272729"></path>
            </g>
        </g>
    </g>
</svg>
