<?xml version="1.0" encoding="utf-8"?>
<!-- Generator: Adobe Illustrator 23.0.1, SVG Export Plug-In . SVG Version: 6.00 Build 0)  -->
<svg version="1.1" id="Calque_1" xmlns="http://www.w3.org/2000/svg" xmlns:xlink="http://www.w3.org/1999/xlink" x="0px" y="0px"
	 viewBox="0 0 200 200" style="enable-background:new 0 0 200 200;" xml:space="preserve">
<style type="text/css">
	.st0{fill:#FF5638;}
	.st1{fill:#3355E3;}
</style>
<title>contestation contravention</title>
<g id="contestattion_contravention">
	<path class="st0" d="M40,68.5c1.4,0,2.7,0.2,4,0.6c1,0.4,2.2-0.2,2.6-1.2c0.4-1-0.2-2.2-1.2-2.6h-0.1C36.5,62.5,27,67.2,24,76h-5
		c-1.1,0-2,0.9-2,2s0.9,2,2,2h4.1C23,80.5,23,81,23,81.5s0,1,0.1,1.5H19c-1.1,0-2,0.9-2,2s0.9,2,2,2h4.9
		c2.9,8.6,12.2,13.4,20.9,10.8c1.1-0.2,1.8-1.2,1.6-2.3c-0.2-1.1-1.2-1.8-2.3-1.6c-0.2,0-0.3,0.1-0.5,0.1c-1.2,0.4-2.4,0.5-3.7,0.5
		c-5,0-9.6-2.9-11.8-7.5H36c1.1,0,2-0.9,2-2s-0.9-2-2-2h-8.9c-0.1-1-0.1-2,0-3H36c1.1,0,2-0.9,2-2s-0.9-2-2-2h-7.8
		C30.4,71.4,35,68.5,40,68.5z"/>
	<path class="st1" d="M41,27h31c1.7,0,3,1.3,3,3l0,0c0,1.7-1.3,3-3,3H41c-1.7,0-3-1.3-3-3l0,0C38,28.3,39.3,27,41,27z"/>
	<path class="st1" d="M25,41h47c1.7,0,3,1.3,3,3l0,0c0,1.7-1.3,3-3,3H25c-1.7,0-3-1.3-3-3l0,0C22,42.3,23.3,41,25,41z"/>
	<path class="st1" d="M58,61h31c1.7,0,3,1.3,3,3l0,0c0,1.7-1.3,3-3,3H58c-1.7,0-3-1.3-3-3l0,0C55,62.3,56.3,61,58,61z"/>
	<path class="st1" d="M58,73h31c1.7,0,3,1.3,3,3l0,0c0,1.7-1.3,3-3,3H58c-1.7,0-3-1.3-3-3l0,0C55,74.3,56.3,73,58,73z"/>
	<path class="st1" d="M58,85h31c1.7,0,3,1.3,3,3l0,0c0,1.7-1.3,3-3,3H58c-1.7,0-3-1.3-3-3l0,0C55,86.3,56.3,85,58,85z"/>
	<path class="st1" d="M58,97h23c1.7,0,3,1.3,3,3l0,0c0,1.7-1.3,3-3,3H58c-1.7,0-3-1.3-3-3l0,0C55,98.3,56.3,97,58,97z"/>
	<path class="st1" d="M25,142h24c1.7,0,3,1.3,3,3l0,0c0,1.7-1.3,3-3,3H25c-1.7,0-3-1.3-3-3l0,0C22,143.3,23.3,142,25,142z"/>
	<path class="st1" d="M25,156h42c1.7,0,3,1.3,3,3l0,0c0,1.7-1.3,3-3,3H25c-1.7,0-3-1.3-3-3l0,0C22,157.3,23.3,156,25,156z"/>
	<path class="st1" d="M63,142h17c1.7,0,3,1.3,3,3l0,0c0,1.7-1.3,3-3,3H63c-1.7,0-3-1.3-3-3l0,0C60,143.3,61.3,142,63,142z"/>
	<path class="st1" d="M69,121c1.1,0,2,0.9,2,2v4c0,1.1-0.9,2-2,2H30c-1.1,0-2-0.9-2-2v-4c0-1.1,0.9-2,2-2H69 M69,115H30
		c-4.4,0-8,3.6-8,8v4c0,4.4,3.6,8,8,8h39c4.4,0,8-3.6,8-8v-4C77,118.6,73.4,115,69,115z"/>
	<path class="st1" d="M104,178c0,0.2,0,0.4-0.1,0.5c-0.9,0.3-1.8,0.5-2.8,0.4l-8-5.3c-1.4-0.9-3.2-0.9-4.6,0.1l-9.1,6.7l-8.3-10.9
		c-0.8-1-1.9-1.6-3.2-1.6c-1.2,0-2.4,0.5-3.2,1.5l-8.8,11l-10.7-7.8c-1.5-1.1-3.5-1-4.9,0.2l-8.8,7.3l-7.5-9.7
		c-0.8-1-1.9-1.5-3.2-1.5c-2.6,0-5.5,1.4-10,3.6c-0.8,0.4-2,1-3,1.5V22c0-2.2,1.8-4,4-4h88c2.2,0,4,1.8,4,4v69.9
		c2.6-0.9,5.3-1.5,8-1.8V22c0-6.6-5.4-12-12-12H12C5.4,10,0,15.4,0,22v156c-0.1,1.8,0.8,3.5,2.3,4.4c3.1,1.9,6.9,0,12.2-2.6
		c1.4-0.7,3.4-1.7,4.8-2.3l8.4,10.9c1.3,1.7,3.9,2.1,5.6,0.7l0.1-0.1l9.6-8l11.3,8.2c1.7,1.3,4.1,0.9,5.5-0.7l8-10l7.5,9.9
		c0.8,1,1.9,1.6,3.2,1.6c0.8,0,1.7-0.3,2.3-0.8l10.1-7.4l6.7,4.5c0.7,0.4,1.4,0.7,2.2,0.7c3,0,12,0,12-9v-24.1
		c-2.7-0.3-5.4-0.9-8-1.8L104,178z"/>
	<path class="st0" d="M115,90c-1,0-2,0-3,0.1c-2.7,0.3-5.4,0.9-8,1.8c-16.6,6.1-25.1,24.4-19.1,41c3.2,8.9,10.2,15.9,19.1,19.1
		c2.6,0.9,5.3,1.5,8,1.8c1,0.1,2,0.1,3,0.1c17.7,0,32-14.3,32-32S132.7,90,115,90z M115,146c-1,0-2-0.1-3-0.2
		c-13.1-1.7-22.5-13.7-20.8-26.8c1.4-10.9,9.9-19.4,20.8-20.8c1-0.1,2-0.2,3-0.2c13.3,0,24,10.7,24,24S128.3,146,115,146z"/>
	<path class="st0" d="M106.5,109.3l21.2,21.2c1.2,1.2,1.2,3.1,0,4.2l0,0c-1.2,1.2-3.1,1.2-4.2,0l-21.2-21.2c-1.2-1.2-1.2-3.1,0-4.2
		l0,0C103.5,108.1,105.3,108.1,106.5,109.3z"/>
	<path class="st0" d="M127.7,113.5l-21.2,21.2c-1.2,1.2-3.1,1.2-4.2,0l0,0c-1.2-1.2-1.2-3.1,0-4.2l21.2-21.2c1.2-1.2,3.1-1.2,4.2,0
		l0,0C128.9,110.4,128.9,112.3,127.7,113.5z"/>
</g>
</svg>
