<?xml version="1.0" encoding="UTF-8"?>
<svg viewBox="0 0 149 183" version="1.1" xmlns="http://www.w3.org/2000/svg" xmlns:xlink="http://www.w3.org/1999/xlink">
    <g id="Symbols" stroke="none" stroke-width="1" fill="none" fill-rule="evenodd">
        <g id="illu-defi/contestation-contravention-copy" transform="translate(-25.000000, -9.000000)" fill-rule="nonzero">
            <g id="contravention" transform="translate(26.497480, 10.000000)">
                <path d="M104.00252,168 C104.007207,168.181342 103.990424,168.362602 103.95252,168.54 C103.070728,168.881038 102.126587,169.03101 101.18252,168.98 L93.1825204,163.67 C91.7860406,162.739245 89.9570445,162.77918 88.6025204,163.77 L79.5025204,170.46 L71.2225204,159.58 C70.4693164,158.588709 69.2974914,158.004645 68.0525204,158 C66.8235818,157.995763 65.6585306,158.547049 64.8825204,159.5 L56.0425204,170.5 L45.3525204,162.74 C43.8697681,161.666474 41.8474732,161.736493 40.4425204,162.91 L31.6325204,170.24 L24.1725204,160.54 C23.4111218,159.563747 22.240573,158.995089 21.0025204,159 C18.4125204,159 15.4925204,160.37 11.0025204,162.62 C10.1625204,163.04 9.00252042,163.62 8.00252042,164.08 L8.00252042,12 C8.00252042,9.790861 9.79338142,8 12.0025204,8 L100.00252,8 C102.211659,8 104.00252,9.790861 104.00252,12 L104.00252,81.94 C106.579915,80.9958497 109.269117,80.3907792 112.00252,80.14 L112.00252,12 C112.00252,5.372583 106.629937,1.42108547e-14 100.00252,1.42108547e-14 L12.0025204,1.42108547e-14 C5.37510342,1.42108547e-14 0.00252042192,5.372583 0.00252042192,12 L0.00252042192,168 C-0.0539322589,169.780583 0.841272693,171.456711 2.35252042,172.4 C5.46252042,174.33 9.28252042,172.4 14.5725204,169.77 C15.9425204,169.09 17.9425204,168.09 19.4125204,167.49 L27.8325204,178.44 C28.4964405,179.301358 29.4824638,179.855253 30.5634823,179.974109 C31.6445007,180.092964 32.727314,179.766533 33.5625204,179.07 L43.1725204,171.07 L54.4325204,179.25 C56.1612036,180.502462 58.5687595,180.17676 59.9025204,178.51 L67.9025204,168.51 L75.4425204,178.43 C76.1999839,179.426881 77.380514,180.011004 78.6325204,180.011004 C79.4775216,180.007996 80.3001824,179.738443 80.9825204,179.24 L91.0825204,171.88 L97.7625204,176.34 C98.4201312,176.777638 99.1925975,177.01077 99.9825204,177.01 C102.98252,177.01 111.98252,177.01 111.98252,168.01 L111.98252,143.86 C109.249117,143.609221 106.559915,143.00415 103.98252,142.06 L104.00252,168 Z" id="Combined-Shape" stroke="#FFFFFF" stroke-width="2" fill="#272729"></path>
                <path d="M115.00252,80 C132.675632,80 147.00252,94.326888 147.00252,112 C147.00252,129.673112 132.675632,144 115.00252,144 C114.00252,144 113.00252,143.95 112.00252,143.86 C109.269117,143.609221 106.579915,143.00415 104.00252,142.06 C91.3755614,137.450896 82.9750498,125.441872 82.9750498,112 C82.9750498,98.5581275 91.3755614,86.5491044 104.00252,81.94 C106.579915,80.9958497 109.269117,80.3907792 112.00252,80.14 C113.00252,80 114.00252,80 115.00252,80 Z M114.967491,86 C113.880663,86.0024307 112.794997,86.0711696 111.716546,86.2058333 C98.7194873,87.8505671 88.9750498,98.9030345 88.9750498,112 C88.9750498,125.096965 98.7194873,136.149433 111.716546,137.794167 C112.794997,137.92883 113.880663,137.997569 114.967491,138 C129.331069,138 140.97505,126.359403 140.97505,112 C140.97505,97.6405965 129.331069,86 114.967491,86 Z M106.521355,99.2702487 L115.00852,107.757019 L123.489631,99.2761941 C124.661204,98.1046212 126.560699,98.1046212 127.732272,99.2761941 C128.903845,100.447767 128.903845,102.347262 127.732272,103.518835 L119.25052,111.999019 L127.734559,120.483452 C128.906131,121.655025 128.906131,123.55452 127.734559,124.726093 C126.562986,125.897666 124.663491,125.897666 123.491918,124.726093 L115.00752,116.242019 L106.519068,124.732038 C105.347495,125.903611 103.448,125.903611 102.276428,124.732038 C101.104855,123.560465 101.104855,121.66097 102.276428,120.489398 L110.76552,111.999019 L102.278714,103.512889 C101.107142,102.341316 101.107142,100.441822 102.278714,99.2702487 C103.450287,98.0986758 105.349782,98.0986758 106.521355,99.2702487 Z M23.9325204,66 C26.9241223,57.2296975 36.388479,52.4708339 45.2125204,55.3 C45.9168883,55.4967043 46.4577313,56.0621719 46.6229001,56.7745945 C46.7880689,57.4870171 46.551224,58.2327847 46.0052696,58.719365 C45.4593151,59.2059453 44.6913142,59.3557434 44.0025204,59.11 C42.7082442,58.703235 41.3592085,58.497507 40.0025204,58.5 C34.9596456,58.5074579 30.3760412,61.4306749 28.2425204,66 L28.2425204,66 L36.0025204,66 C37.1070899,66 38.0025204,66.8954305 38.0025204,68 C38.0025204,69.1045695 37.1070899,70 36.0025204,70 L36.0025204,70 L27.0925204,70 C26.9724722,70.9963971 26.9724722,72.0036029 27.0925204,73 L27.0925204,73 L36.0025204,73 C37.1070899,73 38.0025204,73.8954305 38.0025204,75 C38.0025204,76.1045695 37.1070899,77 36.0025204,77 L36.0025204,77 L28.2425204,77 C30.3673059,81.5810262 34.9527335,84.5171036 40.0025204,84.53 C41.2548177,84.5306844 42.5007728,84.3522098 43.7025204,84 C44.4111157,83.6840885 45.2384832,83.8064774 45.8252701,84.314009 C46.4120571,84.8215407 46.6523865,85.6226385 46.4418753,86.3693596 C46.2313642,87.1160807 45.6079962,87.6736902 44.8425204,87.8 C36.1044465,90.3862225 26.8813085,85.6224783 23.9325204,77 L23.9325204,77 L19.0025204,77 C17.8979509,77 17.0025204,76.1045695 17.0025204,75 C17.0025204,73.8954305 17.8979509,73 19.0025204,73 L19.0025204,73 L23.0825204,73 C23.030668,72.5016617 23.0039675,72.0010266 23.0025204,71.5 C23.0037107,70.9989663 23.0304119,70.4983181 23.0825204,70 L23.0825204,70 L19.0025204,70 C17.8979509,70 17.0025204,69.1045695 17.0025204,68 C17.0025204,66.8954305 17.8979509,66 19.0025204,66 L19.0025204,66 Z" id="Combined-Shape" fill="#DE1656"></path>
                <path d="M67.0025204,146 C68.6593747,146 70.0025204,147.343146 70.0025204,149 C70.0025204,150.656854 68.6593747,152 67.0025204,152 L25.0025204,152 C23.3456662,152 22.0025204,150.656854 22.0025204,149 C22.0025204,147.343146 23.3456662,146 25.0025204,146 L67.0025204,146 Z M49.0025204,132 C50.6593747,132 52.0025204,133.343146 52.0025204,135 C52.0025204,136.656854 50.6593747,138 49.0025204,138 L25.0025204,138 C23.3456662,138 22.0025204,136.656854 22.0025204,135 C22.0025204,133.343146 23.3456662,132 25.0025204,132 L49.0025204,132 Z M80.0025204,132 C81.6593747,132 83.0025204,133.343146 83.0025204,135 C83.0025204,136.656854 81.6593747,138 80.0025204,138 L63.0025204,138 C61.3456662,138 60.0025204,136.656854 60.0025204,135 C60.0025204,133.343146 61.3456662,132 63.0025204,132 L80.0025204,132 Z M69.0025204,105 C73.4207984,105 77.0025204,108.581722 77.0025204,113 L77.0025204,113 L77.0025204,117 C77.0025204,121.418278 73.4207984,125 69.0025204,125 L69.0025204,125 L30.0025204,125 C25.5842424,125 22.0025204,121.418278 22.0025204,117 L22.0025204,117 L22.0025204,113 C22.0025204,108.581722 25.5842424,105 30.0025204,105 L30.0025204,105 Z M69.0025204,111 L30.0025204,111 C28.8979509,111 28.0025204,111.895431 28.0025204,113 L28.0025204,113 L28.0025204,117 C28.0025204,118.104569 28.8979509,119 30.0025204,119 L30.0025204,119 L69.0025204,119 C70.1070899,119 71.0025204,118.104569 71.0025204,117 L71.0025204,117 L71.0025204,113 C71.0025204,111.895431 70.1070899,111 69.0025204,111 L69.0025204,111 Z M81.0025204,87 C82.6593747,87 84.0025204,88.3431458 84.0025204,90 C84.0025204,91.6568542 82.6593747,93 81.0025204,93 L58.0025204,93 C56.3456662,93 55.0025204,91.6568542 55.0025204,90 C55.0025204,88.3431458 56.3456662,87 58.0025204,87 L81.0025204,87 Z M89.0025204,75 C90.6593747,75 92.0025204,76.3431458 92.0025204,78 C92.0025204,79.6568542 90.6593747,81 89.0025204,81 L58.0025204,81 C56.3456662,81 55.0025204,79.6568542 55.0025204,78 C55.0025204,76.3431458 56.3456662,75 58.0025204,75 L89.0025204,75 Z M89.0025204,63 C90.6593747,63 92.0025204,64.3431458 92.0025204,66 C92.0025204,67.6568542 90.6593747,69 89.0025204,69 L58.0025204,69 C56.3456662,69 55.0025204,67.6568542 55.0025204,66 C55.0025204,64.3431458 56.3456662,63 58.0025204,63 L89.0025204,63 Z M89.0025204,51 C90.6593747,51 92.0025204,52.3431458 92.0025204,54 C92.0025204,55.6568542 90.6593747,57 89.0025204,57 L58.0025204,57 C56.3456662,57 55.0025204,55.6568542 55.0025204,54 C55.0025204,52.3431458 56.3456662,51 58.0025204,51 L89.0025204,51 Z M72.0025204,31 C73.6593747,31 75.0025204,32.3431458 75.0025204,34 C75.0025204,35.6568542 73.6593747,37 72.0025204,37 L25.0025204,37 C23.3456662,37 22.0025204,35.6568542 22.0025204,34 C22.0025204,32.3431458 23.3456662,31 25.0025204,31 L72.0025204,31 Z M72.0025204,17 C73.6593747,17 75.0025204,18.3431458 75.0025204,20 C75.0025204,21.6568542 73.6593747,23 72.0025204,23 L41.0025204,23 C39.3456662,23 38.0025204,21.6568542 38.0025204,20 C38.0025204,18.3431458 39.3456662,17 41.0025204,17 L72.0025204,17 Z" id="Combined-Shape" fill="#272729"></path>
            </g>
        </g>
    </g>
</svg>
