<?xml version="1.0" encoding="UTF-8"?>
<svg viewBox="0 0 155 138" version="1.1" xmlns="http://www.w3.org/2000/svg" xmlns:xlink="http://www.w3.org/1999/xlink">
    <g id="Symbols" stroke="none" stroke-width="1" fill="none" fill-rule="evenodd">
        <g id="illu-defi/demandeurs-emploi-copy" transform="translate(-23.000000, -29.000000)" fill-rule="nonzero">
            <g id="demandeur" transform="translate(23.000000, 29.000000)">
                <path d="M144.319999,25.5199999 C150.152126,25.5199999 154.879999,30.2478729 154.879999,36.0799998 L154.879999,36.0799998 L154.879999,126.719999 C154.879999,132.552126 150.152126,137.279999 144.319999,137.279999 L144.319999,137.279999 L10.5599999,137.279999 C4.72787302,137.279999 0,132.552126 0,126.719999 L0,126.719999 L0,36.0799998 C0,30.2478729 4.72787302,25.5199999 10.5599999,25.5199999 L10.5599999,25.5199999 Z M6.03951063,86.1062591 L6.03999996,126.719999 C6.03999996,128.664042 8.61595763,131.239999 10.5599999,131.239999 L10.5599999,131.239999 L144.319999,131.239999 C146.264042,131.239999 148.839999,128.664042 148.839999,126.719999 L148.839999,126.719999 L148.839497,86.1067296 C147.469401,86.756492 145.937151,87.1199995 144.319999,87.1199995 L144.319999,87.1199995 L10.5599999,87.1199995 C8.94245788,87.1199995 7.40985854,86.7563165 6.03951063,86.1062591 Z M144.319999,31.5599998 L10.5599999,31.5599998 C8.61595763,31.5599998 6.03999996,34.1359575 6.03999996,36.0799998 L6.03999996,36.0799998 L6.03999996,76.5599998 C6.03999996,78.5040419 8.61595763,81.0799996 10.5599999,81.0799996 L10.5599999,81.0799996 L144.319999,81.0799996 C146.264042,81.0799996 148.839999,78.5040419 148.839999,76.5599998 L148.839999,76.5599998 L148.839999,36.0799998 C148.839999,34.1359575 146.264042,31.5599998 144.319999,31.5599998 L144.319999,31.5599998 Z" id="Combined-Shape" fill="#27282B"></path>
                <path d="M48.3999997,72.0399996 C53.2601055,72.0399996 57.1999997,75.9798938 57.1999997,80.8399996 L57.1999997,80.8399996 L57.1999997,89.6399995 C57.1999997,94.5001053 53.2601055,98.4399995 48.3999997,98.4399995 L48.3999997,98.4399995 L37.8399998,98.4399995 C32.979894,98.4399995 29.0399998,94.5001053 29.0399998,89.6399995 L29.0399998,89.6399995 L29.0399998,80.8399996 C29.0399998,75.9798938 32.979894,72.0399996 37.8399998,72.0399996 L37.8399998,72.0399996 Z M117.039999,72.0399996 C121.900105,72.0399996 125.839999,75.9798938 125.839999,80.8399996 L125.839999,80.8399996 L125.839999,89.6399995 C125.839999,94.5001053 121.900105,98.4399995 117.039999,98.4399995 L117.039999,98.4399995 L106.479999,98.4399995 C101.619894,98.4399995 97.6799995,94.5001053 97.6799995,89.6399995 L97.6799995,89.6399995 L97.6799995,80.8399996 C97.6799995,75.9798938 101.619894,72.0399996 106.479999,72.0399996 L106.479999,72.0399996 Z M48.3999997,77.3199996 L37.8399998,77.3199996 C35.8959575,77.3199996 34.3199998,78.8959572 34.3199998,80.8399996 L34.3199998,80.8399996 L34.3199998,89.6399995 C34.3199998,91.5840418 35.8959575,93.1599995 37.8399998,93.1599995 L37.8399998,93.1599995 L48.3999997,93.1599995 C50.344042,93.1599995 51.9199997,91.5840418 51.9199997,89.6399995 L51.9199997,89.6399995 L51.9199997,80.8399996 C51.9199997,78.8959572 50.344042,77.3199996 48.3999997,77.3199996 L48.3999997,77.3199996 Z M117.039999,77.3199996 L106.479999,77.3199996 C104.535957,77.3199996 102.959999,78.8959572 102.959999,80.8399996 L102.959999,80.8399996 L102.959999,89.6399995 C102.959999,91.5840418 104.535957,93.1599995 106.479999,93.1599995 L106.479999,93.1599995 L117.039999,93.1599995 C118.984042,93.1599995 120.559999,91.5840418 120.559999,89.6399995 L120.559999,89.6399995 L120.559999,80.8399996 C120.559999,78.8959572 118.984042,77.3199996 117.039999,77.3199996 L117.039999,77.3199996 Z M96.0695995,0 C105.707189,0 113.519999,7.81281016 113.519999,17.4503999 L113.519999,17.4503999 L113.519999,25.5199999 L107.479999,25.5199999 L107.479999,17.4503999 C107.470311,11.7049128 101.815087,6.04968883 96.0695995,6.03999996 L96.0695995,6.03999996 L58.8103997,6.03999996 C53.0649126,6.04968883 47.4096886,11.7049128 47.3999997,17.4503999 L47.3999997,17.4503999 L47.3999997,25.5199999 L41.3599998,25.5199999 L41.3599998,17.4503999 C41.3599998,7.81281016 49.1728099,0 58.8103997,0 L58.8103997,0 Z" id="Combined-Shape" fill="#FF5638"></path>
            </g>
        </g>
    </g>
</svg>
