<?xml version="1.0" encoding="utf-8"?>
<!-- Generator: Adobe Illustrator 23.0.1, SVG Export Plug-In . SVG Version: 6.00 Build 0)  -->
<svg version="1.1" id="Calque_1" xmlns="http://www.w3.org/2000/svg" xmlns:xlink="http://www.w3.org/1999/xlink" x="0px" y="0px"
	 viewBox="0 0 200 200" style="enable-background:new 0 0 200 200;" xml:space="preserve">
<style type="text/css">
	.st0{fill:none;stroke:#3355E3;stroke-width:8;stroke-linejoin:round;}
	.st1{fill:#3355E3;}
	.st2{fill:#FF5638;}
</style>
<title>droits sociaux</title>
<g id="droits_sociaux">
	<path class="st0" d="M99,76h52c6.6,0,12,5.4,12,12v86c0,6.6-5.4,12-12,12H99c-6.6,0-12-5.4-12-12V88C87,81.4,92.4,76,99,76z"/>
	<path class="st1" d="M144.5,94v15h-39V94H144.5 M144.5,88h-39c-3.3,0-6,2.7-6,6v15c0,3.3,2.7,6,6,6h39c3.3,0,6-2.7,6-6V94
		C150.5,90.7,147.8,88,144.5,88z"/>
	<path class="st2" d="M117.7,129.1h-3.6v-3.6c-0.1-2-1.8-3.5-3.8-3.4c-1.8,0.1-3.3,1.6-3.4,3.4v3.6h-3.6c-2,0.1-3.5,1.8-3.4,3.8
		c0.1,1.8,1.6,3.3,3.4,3.4h3.6v3.6c0.1,2,1.8,3.5,3.8,3.4c1.8-0.1,3.3-1.6,3.4-3.4v-3.6h3.6c2-0.1,3.5-1.8,3.4-3.8
		C121,130.7,119.5,129.2,117.7,129.1L117.7,129.1z"/>
	<path class="st2" d="M132,129.1h15.5c2,0,3.6,1.6,3.6,3.6l0,0c0,2-1.6,3.6-3.6,3.6H132c-2,0-3.6-1.6-3.6-3.6l0,0
		C128.4,130.7,130,129.1,132,129.1z"/>
	<path class="st2" d="M103.4,150.6h14.3c2,0,3.6,1.6,3.6,3.6l0,0c0,2-1.6,3.6-3.6,3.6h-14.3c-2,0-3.6-1.6-3.6-3.6l0,0
		C99.8,152.2,101.4,150.6,103.4,150.6z"/>
	<path class="st2" d="M103.4,164.8h14.3c2,0,3.6,1.6,3.6,3.6l0,0c0,2-1.6,3.6-3.6,3.6h-14.3c-2,0-3.6-1.6-3.6-3.6l0,0
		C99.8,166.4,101.4,164.8,103.4,164.8z"/>
	<path class="st2" d="M144.7,161.3l3.8-3.8c1.4-1.4,1.4-3.6,0-5s-3.6-1.4-5,0l-3.8,3.8l-3.3-3.3c-1.3-1.4-3.6-1.4-4.9-0.1
		c0,0,0,0-0.1,0.1l0,0c-1.4,1.4-1.4,3.6,0,4.9l0,0l3.3,3.3l-3.6,3.6c-1.4,1.4-1.4,3.6,0,4.9s3.6,1.4,4.9,0l0,0l3.6-3.6l3.7,3.7
		c1.4,1.4,3.6,1.4,4.9,0s1.4-3.6,0-4.9L144.7,161.3z"/>
	<rect x="21.3" y="57.3" transform="matrix(0.7071 -0.7071 0.7071 0.7071 -26.8024 55.898)" class="st2" width="65.5" height="6"/>
	<path class="st1" d="M80.2,17.4c-2.8,0-5.6,1.1-7.6,3.1L18.2,74.9c-0.9,0.9-1.4,2-1.7,3.2l-2.9,15.6c-0.6,3.3,1.6,6.4,4.8,7
		c0.3,0.1,0.7,0.1,1,0.1c0.4,0,0.7,0,1.1-0.1l15.8-3c1.2-0.2,2.3-0.8,3.1-1.7l54.4-54.3c4.4-4.5,4-12.1-1-17.1l-3-3
		C87.3,19,83.9,17.5,80.2,17.4L80.2,17.4z M84.1,40l-9.9-9.9l4-4c0.5-0.5,1.3-0.8,2-0.7c1.5,0.1,2.9,0.7,3.9,1.8l3,3
		c2,2,2.2,4.7,1,5.8L84.1,40L84.1,40z M36.5,87.7l-9.9-9.9l43.6-43.6l9.9,9.9L36.5,87.7z M22.1,92.2l1.7-9.2l7.5,7.5
		C31.2,90.5,22.1,92.2,22.1,92.2z"/>
	<path class="st1" d="M3,123h58c1.7,0,3,1.3,3,3v1.3c0,1.7-1.3,3-3,3H3c-1.7,0-3-1.3-3-3V126C0,124.3,1.3,123,3,123z"/>
	<path class="st1" d="M3,137.6h58c1.7,0,3,1.3,3,3v1.3c0,1.7-1.3,3-3,3H3c-1.7,0-3-1.3-3-3v-1.3C0,139,1.3,137.6,3,137.6z"/>
	<path class="st1" d="M3,152.2h58c1.7,0,3,1.3,3,3v1.3c0,1.7-1.3,3-3,3H3c-1.7,0-3-1.3-3-3v-1.3C0,153.6,1.3,152.2,3,152.2z"/>
</g>
</svg>
