<?xml version="1.0" encoding="UTF-8"?>
<svg viewBox="0 0 169 177" version="1.1" xmlns="http://www.w3.org/2000/svg" xmlns:xlink="http://www.w3.org/1999/xlink">
    <g id="Symbols" stroke="none" stroke-width="1" fill="none" fill-rule="evenodd">
        <g id="illu-defi/droits-sociaux-copy" transform="translate(-18.000000, -13.000000)">
            <g id="droits" transform="translate(18.000000, 15.000000)">
                <rect id="Rectangle" stroke="#272729" stroke-width="6.23999977" stroke-linejoin="round" x="86.3199968" y="56.7642372" width="79.0399971" height="114.399996" rx="12.4799995"></rect>
                <path d="M146.119995,75.4842365 L146.119995,91.0842359 L105.559996,91.0842359 L105.559996,75.4842365 L146.119995,75.4842365 M146.119995,69.2442367 L105.559996,69.2442367 C102.113739,69.2442367 99.3199964,72.0379798 99.3199964,75.4842365 L99.3199964,91.0842359 C99.3199964,94.5304926 102.113739,97.3242357 105.559996,97.3242357 L146.119995,97.3242357 C149.566251,97.3242357 152.359994,94.5304926 152.359994,91.0842359 L152.359994,75.4842365 C152.359994,72.0379798 149.566251,69.2442367 146.119995,69.2442367 Z" id="Shape" fill="#272729" fill-rule="nonzero"></path>
                <path d="M118.216796,149.178634 C120.267318,149.178634 121.929596,150.840911 121.929596,152.891434 C121.929596,154.941956 120.267318,156.604233 118.216796,156.604233 L103.355196,156.604233 C101.304673,156.604233 99.6423963,154.941956 99.6423963,152.891434 C99.6423963,150.840911 101.304673,149.178634 103.355196,149.178634 L118.216796,149.178634 Z M148.608261,135.405485 C149.869104,135.750127 150.850307,136.741241 151.182261,138.005485 C151.494687,139.195361 151.187326,140.457042 150.375663,141.368036 L150.217594,141.534634 L146.307195,145.445034 L150.144794,149.282634 C151.566375,150.704215 151.566375,153.009053 150.144794,154.430634 C148.773984,155.801444 146.58188,155.850401 145.152406,154.577506 L144.996795,154.430634 L141.107195,150.541034 L137.331995,154.316234 C135.910414,155.737814 133.605576,155.737814 132.183995,154.316233 C130.813185,152.945423 130.764228,150.753319 132.037123,149.323845 L132.183995,149.168234 L135.959195,145.393034 L132.495995,141.929834 C131.810722,141.248553 131.425403,140.322138 131.425403,139.355834 C131.425403,138.38953 131.810722,137.463116 132.495995,136.781834 C133.179212,136.080431 134.116836,135.684821 135.095995,135.684821 C135.999834,135.684821 136.868282,136.021909 137.53391,136.625441 L137.695995,136.781834 L141.159195,140.245034 L145.069595,136.334634 C145.998485,135.415033 147.347417,135.060843 148.608261,135.405485 Z M118.216796,134.317034 C120.267318,134.317034 121.929596,135.979311 121.929596,138.029834 C121.929596,140.080357 120.267318,141.742634 118.216796,141.742634 L103.355196,141.742634 C101.304673,141.742634 99.6423963,140.080357 99.6423963,138.029834 C99.6423963,135.979311 101.304673,134.317034 103.355196,134.317034 L118.216796,134.317034 Z M110.785996,104.790544 C112.699827,104.790544 114.290106,106.238401 114.488483,108.120796 L114.503996,108.317035 L114.503996,112.029835 L118.216796,112.029835 C120.193856,112.134436 121.743287,113.76801 121.743287,115.747835 C121.743287,117.661666 120.29543,119.251945 118.413035,119.450322 L118.216796,119.465835 L114.503996,119.465835 L114.503996,123.178635 C114.399395,125.155695 112.765821,126.705126 110.785996,126.705126 C108.872165,126.705126 107.281886,125.257269 107.083509,123.374874 L107.067996,123.178635 L107.067996,119.465835 L103.355196,119.465835 C101.378136,119.361234 99.8287049,117.72766 99.8287049,115.747835 C99.8287049,113.834004 101.276562,112.243725 103.158957,112.045348 L103.355196,112.029835 L107.067996,112.029835 L107.067996,108.317035 C107.172597,106.339975 108.806171,104.790544 110.785996,104.790544 Z M149.167195,112.029835 C151.217717,112.029835 152.879994,113.692112 152.879994,115.742635 C152.879994,117.793158 151.217717,119.455435 149.167195,119.455435 L133.067995,119.455435 C131.017472,119.455435 129.355195,117.793158 129.355195,115.742635 C129.355195,113.692112 131.017472,112.029835 133.067995,112.029835 L149.167195,112.029835 Z M76.2179838,20.8098046 L79.894939,24.4867598 L35.2567037,69.124995 L31.5797486,65.4480399 L76.2179838,20.8098046 Z" id="Combined-Shape" fill="#DE1656" fill-rule="nonzero"></path>
                <path d="M83.4391969,0.00103923869 L83.5015969,0.0530392368 C87.237226,0.107321789 90.7998961,1.63631658 93.4127966,4.30663908 L93.4127966,4.30663908 L96.5327965,7.42663897 C101.732796,12.6474388 102.200796,20.6346385 97.5727964,25.2626383 L97.5727964,25.2626383 L41.0071985,81.7866362 C40.116486,82.6746811 38.9781986,83.2728258 37.7415986,83.5026362 L37.7415986,83.5026362 L21.4343992,86.5186361 C21.053571,86.5883984 20.667164,86.622643 20.2799993,86.622643 C18.4437698,86.6000675 16.7107047,85.7698185 15.5423993,84.3530227 C14.3740938,82.9362269 13.8891751,81.0767426 14.2167995,79.2698363 L14.2167995,79.2698363 L17.2223994,63.0146369 C17.4580531,61.7748239 18.0593082,60.6338881 18.9487993,59.738637 L18.9487993,59.738637 L75.5143972,3.17303912 C77.6280395,1.10233977 80.4805413,-0.0394096272 83.4391969,0.00103923869 L83.4391969,0.00103923869 Z M24.7207991,68.2458367 L22.9423992,77.8034364 L32.4999988,76.0354364 L24.7207991,68.2458367 Z M72.1233657,19.0226385 L29.7439989,61.4055998 L39.3646302,71.0226385 L81.7439989,28.6396754 L72.1233657,19.0226385 Z M83.4495969,8.35223893 C82.6848819,8.30657223 81.9343434,8.5730134 81.369597,9.09063891 L81.369597,9.09063891 L77.2095972,13.2506388 L87.4743968,23.5154384 L91.6343966,19.3554385 C92.8511966,18.1802386 92.6743966,15.3722387 90.5943967,13.2922388 L90.5943967,13.2922388 L87.4743968,10.1722389 C86.4225139,9.06245794 84.9776154,8.40908008 83.4495969,8.35223893 Z" id="Shape" stroke="#FFFFFF" stroke-width="3.11999989" fill="#272729" fill-rule="nonzero"></path>
                <path d="M63.4399977,136.064234 C65.163126,136.064234 66.5599976,137.461106 66.5599976,139.184234 C66.5599976,140.907362 65.163126,142.304234 63.4399977,142.304234 L3.11999989,142.304234 C1.39687153,142.304234 2.11022363e-16,140.907362 0,139.184234 C-2.11022363e-16,137.461106 1.39687153,136.064234 3.11999989,136.064234 L63.4399977,136.064234 Z M63.4399977,120.859435 C65.163126,120.859435 66.5599976,122.256306 66.5599976,123.979435 C66.5599976,125.702563 65.163126,127.099435 63.4399977,127.099435 L3.11999989,127.099435 C1.39687153,127.099435 2.11022363e-16,125.702563 0,123.979435 C-2.11022363e-16,122.256306 1.39687153,120.859435 3.11999989,120.859435 L63.4399977,120.859435 Z M63.4399977,105.644235 C65.163126,105.644235 66.5599976,107.041107 66.5599976,108.764235 C66.5599976,110.487364 65.163126,111.884235 63.4399977,111.884235 L3.11999989,111.884235 C1.39687153,111.884235 2.11022363e-16,110.487364 0,108.764235 C-2.11022363e-16,107.041107 1.39687153,105.644235 3.11999989,105.644235 L63.4399977,105.644235 Z" id="Combined-Shape" fill="#272729" fill-rule="nonzero"></path>
            </g>
        </g>
    </g>
</svg>
