<?xml version="1.0" encoding="utf-8"?>
<!-- Generator: Adobe Illustrator 23.0.1, SVG Export Plug-In . SVG Version: 6.00 Build 0)  -->
<svg version="1.1" id="Calque_1" xmlns="http://www.w3.org/2000/svg" xmlns:xlink="http://www.w3.org/1999/xlink" x="0px" y="0px"
	 viewBox="0 0 200 200" style="enable-background:new 0 0 200 200;" xml:space="preserve">
<style type="text/css">
	.st0{fill:#3355E3;}
	.st1{fill:#FF5638;}
</style>
<title>prelevement a la source</title>
<g id="prelevement_à_la_source">
	<path class="st0" d="M116,190H16c-8.8,0-16-7.2-16-16V41c0-8.8,7.2-16,16-16h79.3c4.2,0,8.3,1.7,11.3,4.6l20.7,20.6
		c3,3,4.7,7.1,4.7,11.3v112.4C132,182.8,124.8,190,116,190z M16,33c-4.4,0-8,3.6-8,8v133c0,4.4,3.6,8,8,8h100c4.4,0,8-3.6,8-8V61.6
		c0-2.1-0.9-4.2-2.4-5.7l-20.8-20.7c-1.5-1.5-3.5-2.3-5.6-2.3L16,33L16,33z"/>
	<path class="st0" d="M45,79H29c-5,0-9-4-9-9V54c0-5,4-9,9-9h16c5,0,9,4,9,9v16C54,75,50,79,45,79z M29,51c-1.7,0-3,1.3-3,3v16
		c0,1.7,1.3,3,3,3h16c1.7,0,3-1.3,3-3V54c0-1.7-1.3-3-3-3H29z"/>
	<path class="st1" d="M38,70.2l-8.1-8.1c-1.2-1.1-1.3-3-0.1-4.2c1.1-1.2,3-1.3,4.2-0.1c0.1,0,0.1,0.1,0.1,0.1l3.9,3.9l16.9-16.9
		c1.2-1.1,3.1-1.1,4.2,0.1c1.1,1.2,1.1,2.9,0,4.1L38,70.2z"/>
	<path class="st0" d="M45,169H29c-5,0-9-4-9-9v-16c0-5,4-9,9-9h16c5,0,9,4,9,9v16C54,165,50,169,45,169z M29,141c-1.7,0-3,1.3-3,3
		v16c0,1.7,1.3,3,3,3h16c1.7,0,3-1.3,3-3v-16c0-1.7-1.3-3-3-3H29z"/>
	<path class="st0" d="M45,124H29c-5,0-9-4-9-9l0,0V99c0-5,4-9,9-9h16c5,0,9,4,9,9v16C54,120,50,124,45,124L45,124z M29,96
		c-1.7,0-3,1.3-3,3v16c0,1.7,1.3,3,3,3h16c1.7,0,3-1.3,3-3V99c0-1.7-1.3-3-3-3H29z"/>
	<path class="st1" d="M38,115.2l-8.1-8.1c-1.2-1.1-1.3-3-0.1-4.2c1.1-1.2,3-1.3,4.2-0.1c0.1,0,0.1,0.1,0.1,0.1l3.9,3.9l16.9-16.9
		c1.2-1.1,3.1-1.1,4.2,0.1c1.1,1.2,1.1,2.9,0,4.1L38,115.2z"/>
	<path class="st0" d="M66,58.5h34c1.7,0,3,1.3,3,3l0,0c0,1.7-1.3,3-3,3H66c-1.7,0-3-1.3-3-3l0,0C63,59.8,64.3,58.5,66,58.5z"/>
	<path class="st0" d="M66,97.5h44c1.7,0,3,1.3,3,3l0,0c0,1.7-1.3,3-3,3H66c-1.7,0-3-1.3-3-3l0,0C63,98.8,64.3,97.5,66,97.5z"/>
	<path class="st0" d="M66,109h44c1.7,0,3,1.3,3,3l0,0c0,1.7-1.3,3-3,3H66c-1.7,0-3-1.3-3-3l0,0C63,110.3,64.3,109,66,109z"/>
	<path class="st0" d="M66,149h8c1.7,0,3,1.3,3,3l0,0c0,1.7-1.3,3-3,3h-8c-1.7,0-3-1.3-3-3l0,0C63,150.3,64.3,149,66,149z"/>
	<path class="st1" d="M106,139c1.4,0,2.7,0.2,4,0.6c1.1,0.3,2.2-0.3,2.5-1.4c0.3-1-0.3-2.1-1.3-2.4c-8.8-2.8-18.3,1.9-21.3,10.7H85
		c-1.1,0-2,0.9-2,2s0.9,2,2,2h4.1c-0.1,1-0.1,2,0,3H85c-1.1,0-2,0.9-2,2s0.9,2,2,2h4.9c2.9,8.6,12.2,13.4,20.9,10.8
		c1.1-0.2,1.8-1.2,1.6-2.3s-1.2-1.8-2.3-1.6c-0.2,0-0.3,0.1-0.5,0.1c-1.2,0.4-2.4,0.5-3.7,0.5c-5,0-9.6-2.9-11.8-7.5h7.8
		c1.1,0,2-0.9,2-2s-0.9-2-2-2H93c-0.1-1-0.1-2,0-3h8.9c1.1,0,2-0.9,2-2s-0.9-2-2-2h-7.8C96.4,141.9,101,139,106,139z"/>
</g>
</svg>
