<?xml version="1.0" encoding="UTF-8"?>
<svg viewBox="0 0 158 160" version="1.1" xmlns="http://www.w3.org/2000/svg" xmlns:xlink="http://www.w3.org/1999/xlink">
    <g id="Symbols" stroke="none" stroke-width="1" fill="none" fill-rule="evenodd">
        <g id="illu-defi/immatriculation-copy" transform="translate(-21.000000, -43.000000)" fill-rule="nonzero">
            <g id="immatriculation" transform="translate(22.206648, 44.224682)">
                <path d="M140.422199,105.60058 C141.911261,105.60058 143.118384,106.807703 143.118384,108.296765 C143.118384,109.785827 141.911261,110.99295 140.422199,110.99295 L126.042545,110.99295 C124.553483,110.99295 123.34636,109.785827 123.34636,108.296765 C123.34636,106.807703 124.553483,105.60058 126.042545,105.60058 L140.422199,105.60058 Z M113.460348,96.6132966 C114.94941,96.6132966 116.156533,97.8204197 116.156533,99.3094816 C116.156533,100.798543 114.94941,102.005667 113.460348,102.005667 L107.16925,102.005667 C105.680188,102.005667 104.473065,100.798543 104.473065,99.3094816 C104.473065,97.8204197 105.680188,96.6132966 107.16925,96.6132966 L113.460348,96.6132966 Z M117.95399,87.6260132 C119.443052,87.6260132 120.650175,88.8331363 120.650175,90.3221982 C120.650175,91.81126 119.443052,93.0183832 117.95399,93.0183832 L107.16925,93.0183832 C105.680188,93.0183832 104.473065,91.81126 104.473065,90.3221982 C104.473065,88.8331363 105.680188,87.6260132 107.16925,87.6260132 L117.95399,87.6260132 Z M141.320927,87.6260132 C142.809989,87.6260132 144.017112,88.8331363 144.017112,90.3221982 C144.017112,91.81126 142.809989,93.0183832 141.320927,93.0183832 L126.941274,93.0183832 C125.452212,93.0183832 124.245089,91.81126 124.245089,90.3221982 C124.245089,88.8331363 125.452212,87.6260132 126.941274,87.6260132 L141.320927,87.6260132 Z M149.409482,78.6387298 L149.409482,84.0310998 L104.473065,84.0310998 C103.041275,84.0310998 101.870153,82.9150466 101.782184,81.5054258 L101.77688,81.3349148 C101.77688,79.8458529 102.984003,78.6387298 104.473065,78.6387298 L149.409482,78.6387298 Z M113.460348,59.7654346 C114.94941,59.7654346 116.156533,60.9725578 116.156533,62.4616196 C116.156533,63.9506815 114.94941,65.1578047 113.460348,65.1578047 L90.9921399,65.1578047 C89.5030781,65.1578047 88.2959549,63.9506815 88.2959549,62.4616196 C88.2959549,60.9725578 89.5030781,59.7654346 90.9921399,59.7654346 L113.460348,59.7654346 Z M138.624742,59.7654346 C140.113804,59.7654346 141.320927,60.9725578 141.320927,62.4616196 C141.320927,63.9506815 140.113804,65.1578047 138.624742,65.1578047 L123.34636,65.1578047 C121.857298,65.1578047 120.650175,63.9506815 120.650175,62.4616196 C120.650175,60.9725578 121.857298,59.7654346 123.34636,59.7654346 L138.624742,59.7654346 Z M99.080695,50.7781512 C100.569757,50.7781512 101.77688,51.9852744 101.77688,53.4743362 C101.77688,54.9633981 100.569757,56.1705213 99.080695,56.1705213 L90.9921399,56.1705213 C89.5030781,56.1705213 88.2959549,54.9633981 88.2959549,53.4743362 C88.2959549,51.9852744 89.5030781,50.7781512 90.9921399,50.7781512 L99.080695,50.7781512 Z M149.409482,39.9934111 L149.409482,45.3857812 L79.3086715,45.3857812 L79.3086715,39.9934111 L149.409482,39.9934111 Z M107.16925,22.0188443 C108.658312,22.0188443 109.865435,23.2259675 109.865435,24.7150294 C109.865435,26.2040912 108.658312,27.4112144 107.16925,27.4112144 L90.9921399,27.4112144 C89.5030781,27.4112144 88.2959549,26.2040912 88.2959549,24.7150294 C88.2959549,23.2259675 89.5030781,22.0188443 90.9921399,22.0188443 L107.16925,22.0188443 Z M138.624742,22.0188443 C140.113804,22.0188443 141.320927,23.2259675 141.320927,24.7150294 C141.320927,26.2040912 140.113804,27.4112144 138.624742,27.4112144 L116.156533,27.4112144 C114.667472,27.4112144 113.460348,26.2040912 113.460348,24.7150294 C113.460348,23.2259675 114.667472,22.0188443 116.156533,22.0188443 L138.624742,22.0188443 Z M99.080695,13.0315609 C100.569757,13.0315609 101.77688,14.2386841 101.77688,15.727746 C101.77688,17.2168078 100.569757,18.423931 99.080695,18.423931 L90.9921399,18.423931 C89.5030781,18.423931 88.2959549,17.2168078 88.2959549,15.727746 C88.2959549,14.2386841 89.5030781,13.0315609 90.9921399,13.0315609 L99.080695,13.0315609 Z M128.73873,13.0315609 C130.227792,13.0315609 131.434915,14.2386841 131.434915,15.727746 C131.434915,17.2168078 130.227792,18.423931 128.73873,18.423931 L108.067978,18.423931 C106.578917,18.423931 105.371793,17.2168078 105.371793,15.727746 C105.371793,14.2386841 106.578917,13.0315609 108.067978,13.0315609 L128.73873,13.0315609 Z" id="Combined-Shape" stroke="#FFFFFF" fill="#27282B"></path>
                <path d="M26.240261,72.7753179 L26.5533527,72.7793115 L81.7533537,72.7793115 C88.0740945,72.7793115 91.434789,77.5738777 92.5226023,80.5784003 L92.5817539,80.7465116 L100.926154,103.277312 C103.80422,105.273912 105.558415,108.513229 105.66791,112.00104 L105.673354,112.339312 L105.673354,130.739313 C105.669755,133.764269 104.425409,136.650017 102.240031,138.727448 L101.993354,138.954913 L101.993354,147.759313 C101.993354,152.586282 97.0803227,156.499313 92.2533539,156.499313 C87.5110687,156.499313 82.6857143,152.722377 82.5178632,148.012504 L82.5133537,147.759313 L82.5133537,141.779313 L23.9533526,141.779313 L23.9533526,147.759313 C23.9533526,152.586282 19.0403212,156.499313 14.2133524,156.499313 C9.47106728,156.499313 4.64571283,152.722377 4.47786177,148.012504 L4.47335226,147.759313 L4.47335226,138.954913 C2.21867949,136.938276 0.893938426,134.088539 0.798842867,131.074812 L0.793352191,130.739313 L0.793352191,112.339312 C0.793352191,108.073607 3.25067651,104.199896 7.08588041,102.37384 L7.36215231,102.246912 L14.7957524,80.7741116 C16.5220901,76.0592582 20.9511046,72.906027 25.9284805,72.7792853 L26.240261,72.7753179 Z M11.9933524,141.613713 L11.9933524,146.759313 C11.9933524,148.53767 12.4349955,149.979313 14.2133524,149.979313 C15.9303867,149.979313 16.4013049,148.635379 16.4317404,146.942034 L16.4333525,146.759313 L16.4333525,141.779313 L13.8333524,141.779313 C13.2164696,141.775618 12.6009818,141.720224 11.9933524,141.613713 Z M94.4733539,141.613713 C94.0176319,141.693596 93.5574895,141.744726 93.0956535,141.766857 L92.6333539,141.779313 L90.0333538,141.779313 L90.0333538,146.759313 C90.0333538,148.53767 90.4749969,149.979313 92.2533539,149.979313 C93.9703881,149.979313 94.4413063,148.635379 94.4717418,146.942034 L94.4733539,146.759313 L94.4733539,141.613713 Z M94.6333539,108.659312 L11.8333524,108.659312 C9.86650602,108.659312 8.26004902,110.202322 8.1584533,112.143871 L8.15335232,112.339312 L8.15335232,130.739313 C8.15335232,132.706159 9.69636266,134.312616 11.6379114,134.414212 L11.8333524,134.419313 L94.6333539,134.419313 C96.6002003,134.419313 98.2066573,132.876302 98.308253,130.934754 L98.313354,130.739313 L98.313354,112.339312 C98.313354,110.306904 96.6657618,108.659312 94.6333539,108.659312 Z M63.3533533,123.379312 C64.8776593,123.379312 66.1133534,124.615007 66.1133534,126.139312 C66.1133534,127.663618 64.8776593,128.899313 63.3533533,128.899313 L43.113353,128.899313 C41.589047,128.899313 40.3533529,127.663618 40.3533529,126.139312 C40.3533529,124.615007 41.589047,123.379312 43.113353,123.379312 L63.3533533,123.379312 Z M139.972834,0 C147.914498,0 154.352488,6.43799014 154.352488,14.3796534 L154.352488,109.644857 C154.352488,117.586521 147.914498,124.024511 139.972834,124.024511 L112.56162,124.024511 C110.576204,124.024511 108.966707,122.415013 108.966707,120.429598 C108.966707,118.444182 110.576204,116.834684 112.56162,116.834684 L139.972834,116.834684 C143.943666,116.834684 147.162661,113.615689 147.162661,109.644857 L147.162661,14.3796534 C147.162661,10.4088218 143.943666,7.18982672 139.972834,7.18982672 L89.6440474,7.18982672 C85.6732158,7.18982672 82.4542207,10.4088218 82.4542207,14.3796534 L82.4542207,65.7779272 C82.4542207,67.763343 80.8447232,69.3728406 78.8593073,69.3728406 C76.8738915,69.3728406 75.264394,67.763343 75.264394,65.7779272 L75.264394,14.3796534 C75.264394,6.43799014 81.7023841,0 89.6440474,0 L139.972834,0 Z M63.3533533,116.019312 C64.8776593,116.019312 66.1133534,117.255006 66.1133534,118.779312 C66.1133534,120.303618 64.8776593,121.539312 63.3533533,121.539312 L43.113353,121.539312 C41.589047,121.539312 40.3533529,120.303618 40.3533529,118.779312 C40.3533529,117.255006 41.589047,116.019312 43.113353,116.019312 L63.3533533,116.019312 Z M21.8298596,82.9970831 L21.7417526,83.2029117 L15.5133525,101.299312 L92.3425539,101.299312 L85.6265537,83.1477117 C85.5286182,82.9073246 84.5260001,80.3147626 82.0100189,80.1477507 L81.7533537,80.1393116 L26.5533527,80.1393116 C24.533474,80.0279126 22.6617432,81.1697547 21.8298596,82.9970831 Z" id="Combined-Shape" stroke="#FFFFFF" stroke-width="2" fill="#27282B"></path>
                <path d="M141.320927,96.6132966 C142.809989,96.6132966 144.017112,97.8204197 144.017112,99.3094816 C144.017112,100.798543 142.809989,102.005667 141.320927,102.005667 L122.447632,102.005667 C120.95857,102.005667 119.751447,100.798543 119.751447,99.3094816 C119.751447,97.8204197 120.95857,96.6132966 122.447632,96.6132966 L141.320927,96.6132966 Z M107.16925,68.752718 C108.658312,68.752718 109.865435,69.9598412 109.865435,71.448903 C109.865435,72.9379649 108.658312,74.1450881 107.16925,74.1450881 L96.38451,74.1450881 C94.8954481,74.1450881 93.688325,72.9379649 93.688325,71.448903 C93.688325,69.9598412 94.8954481,68.752718 96.38451,68.752718 L107.16925,68.752718 Z M130.536187,68.752718 C132.025249,68.752718 133.232372,69.9598412 133.232372,71.448903 C133.232372,72.9379649 132.025249,74.1450881 130.536187,74.1450881 L116.156533,74.1450881 C114.667472,74.1450881 113.460348,72.9379649 113.460348,71.448903 C113.460348,69.9598412 114.667472,68.752718 116.156533,68.752718 L130.536187,68.752718 Z M117.055262,50.7781512 C118.544324,50.7781512 119.751447,51.9852744 119.751447,53.4743362 C119.751447,54.9633981 118.544324,56.1705213 117.055262,56.1705213 L108.067978,56.1705213 C106.578917,56.1705213 105.371793,54.9633981 105.371793,53.4743362 C105.371793,51.9852744 106.578917,50.7781512 108.067978,50.7781512 L117.055262,50.7781512 Z M107.16925,31.0061277 C108.658312,31.0061277 109.865435,32.2132509 109.865435,33.7023128 C109.865435,35.1913746 108.658312,36.3984978 107.16925,36.3984978 L90.9921399,36.3984978 C89.5030781,36.3984978 88.2959549,35.1913746 88.2959549,33.7023128 C88.2959549,32.2132509 89.5030781,31.0061277 90.9921399,31.0061277 L107.16925,31.0061277 Z" id="Combined-Shape" stroke="#FFFFFF" fill="#FF5638"></path>
                <path d="M28.3933527,116.939312 C30.4257606,116.939312 32.0733528,118.586904 32.0733528,120.619312 L32.0733528,124.299312 C32.0733528,126.33172 30.4257606,127.979313 28.3933527,127.979313 L15.5133525,127.979313 C13.4809445,127.979313 11.8333524,126.33172 11.8333524,124.299312 L11.8333524,120.619312 C11.8333524,118.586904 13.4809445,116.939312 15.5133525,116.939312 L28.3933527,116.939312 Z M90.9533538,116.939312 C92.9857617,116.939312 94.6333539,118.586904 94.6333539,120.619312 L94.6333539,124.299312 C94.6333539,126.33172 92.9857617,127.979313 90.9533538,127.979313 L78.0733536,127.979313 C76.0409457,127.979313 74.3933535,126.33172 74.3933535,124.299312 L74.3933535,120.619312 C74.3933535,118.586904 76.0409457,116.939312 78.0733536,116.939312 L90.9533538,116.939312 Z M72.4733535,86.5793118 C81.0937537,86.5793118 88.1133538,93.0037119 88.1133538,102.139312 L82.5933537,102.139312 C82.5933537,96.0489119 78.0577536,92.0993119 72.4733535,92.0993119 C66.8889534,92.0993119 62.3533533,96.0489119 62.3533533,102.139312 L56.8333532,102.139312 C56.8333532,93.0037119 63.8529534,86.5793118 72.4733535,86.5793118 Z" id="Combined-Shape" fill="#FF5638"></path>
            </g>
        </g>
    </g>
</svg>
