<?xml version="1.0" encoding="utf-8"?>
<!-- Generator: Adobe Illustrator 23.0.1, SVG Export Plug-In . SVG Version: 6.00 Build 0)  -->
<svg version="1.1" id="Calque_1" xmlns="http://www.w3.org/2000/svg" xmlns:xlink="http://www.w3.org/1999/xlink" x="0px" y="0px"
	 viewBox="0 0 200 200" style="enable-background:new 0 0 200 200;" xml:space="preserve">
<style type="text/css">
	.st0{fill:#27282B;}
	.st1{fill:#FF5638;}
</style>
<title>paiement des amendes</title>
<g id="amendes">
	<path class="st0" d="M40,188.5c-3.3,0-6-2.7-6-6C34,167.3,23.8,157,8.5,157c-3.3,0-6-2.7-6-6s2.7-6,6-6c21.7,0,37.5,15.8,37.5,37.5
		C46,185.8,43.3,188.5,40,188.5z"/>
	<path class="st0" d="M69,188.5c-3.3,0-6-2.7-6-6C63,149.4,41.6,128,8.5,128c-3.3,0-6-2.7-6-6s2.7-6,6-6c39.8,0,66.5,26.7,66.5,66.5
		C75,185.8,72.3,188.5,69,188.5z"/>
	<path class="st0" d="M47.5,107c-0.8,0-1.5-0.2-2.2-0.4c-10.8-4.3-23.2-6.6-36.7-6.6c-3.3,0-6-2.7-6-6s2.7-6,6-6
		c15.1,0,29,2.5,41.2,7.4c3.1,1.2,4.6,4.7,3.3,7.8C52.1,105.5,49.9,107,47.5,107z"/>
	<path class="st0" d="M97,188.5c-3.3,0-6-2.7-6-6c0-16.2-3.1-30.6-9.3-42.8c-1.5-3-0.3-6.6,2.6-8.1s6.6-0.3,8.1,2.6
		c7.1,13.9,10.6,30.1,10.6,48.2C103,185.8,100.3,188.5,97,188.5z"/>
	<circle class="st0" cx="8" cy="182" r="8"/>
	<path class="st1" d="M154,74h-6c0-6.6-4.9-12-11-12s-11,5.4-11,12h-6c0-9.9,7.6-18,17-18S154,64.1,154,74z"/>
	<path class="st0" d="M166.8,74.2l-9.1-24.5c-1.1-3.3-4.8-8.7-11.8-8.7H86c-5.7-0.1-10.8,3.4-12.8,8.7L65.1,73
		c-4.3,1.9-7.1,6.2-7.1,11v20c0,3.4,1.5,6.7,4,8.9v9.6c0,5.2,4.3,9.5,9.5,9.5s9.5-4.3,9.5-9.5V116h68v6.5c0,5.2,4.3,9.5,9.5,9.5
		s9.5-4.3,9.5-9.5v-9.6c2.5-2.3,4-5.5,4-8.9V84C172,80.1,170.1,76.4,166.8,74.2z M80.8,52.3c0.8-2.1,3-3.5,5.2-3.3h60
		c2.9,0,4.1,3,4.2,3.3l7.3,19.7H74L80.8,52.3z M75,122.5c0,1.9-1.6,3.5-3.5,3.5s-3.5-1.6-3.5-3.5v-6.7c0.7,0.1,1.3,0.2,2,0.2h5
		V122.5z M81,108H70c-2.2,0-4-1.8-4-4V84c0-2.2,1.8-4,4-4h90c2.2,0,4,1.8,4,4v20c0,2.2-1.8,4-4,4H81z M162,122.5
		c0,1.9-1.6,3.5-3.5,3.5s-3.5-1.6-3.5-3.5V116h5c0.7,0,1.3-0.1,2-0.2V122.5z"/>
	<path class="st1" d="M74,89h14c2.2,0,4,1.8,4,4v4c0,2.2-1.8,4-4,4H74c-2.2,0-4-1.8-4-4v-4C70,90.8,71.8,89,74,89z"/>
	<path class="st1" d="M142,89h14c2.2,0,4,1.8,4,4v4c0,2.2-1.8,4-4,4h-14c-2.2,0-4-1.8-4-4v-4C138,90.8,139.8,89,142,89z"/>
	<path class="st0" d="M104,88h22c1.7,0,3,1.3,3,3l0,0c0,1.7-1.3,3-3,3h-22c-1.7,0-3-1.3-3-3l0,0C101,89.3,102.3,88,104,88z"/>
	<path class="st0" d="M104,96h22c1.7,0,3,1.3,3,3l0,0c0,1.7-1.3,3-3,3h-22c-1.7,0-3-1.3-3-3l0,0C101,97.3,102.3,96,104,96z"/>
</g>
</svg>
