<?xml version="1.0" encoding="UTF-8"?>
<svg viewBox="0 0 118 154" version="1.1" xmlns="http://www.w3.org/2000/svg" xmlns:xlink="http://www.w3.org/1999/xlink">
    <g id="Symbols" stroke="none" stroke-width="1" fill="none" fill-rule="evenodd">
        <g id="illu-defi/prelevement-a-la-source-copy" transform="translate(-41.000000, -23.000000)" fill-rule="nonzero">
            <g id="prelevement" transform="translate(42.000000, 24.000000)">
                <path d="M82.6576016,-0.000359183691 C86.5450692,-0.00923789527 90.2761538,1.53020695 93.0260018,4.27808388 L112.106802,23.2760842 C114.869626,26.0429981 116.427123,29.7895895 116.440002,33.6996844 L116.440002,137.098486 C116.429849,145.220931 109.842453,151.800087 101.720002,151.800087 L14.7200003,151.800087 C6.5903686,151.800087 0,145.209718 0,137.080086 L0,14.7200841 C0,6.5904524 6.5903686,-0.000359183691 14.7200003,-0.000359183691 L82.6576016,-0.000359183691 Z M82.6392016,6.35988799 L14.7200003,6.35988799 C10.6551844,6.35988799 6.36000013,10.6552682 6.36000013,14.7200841 L6.36000013,137.080086 C6.36000013,141.144902 10.6551844,145.440086 14.7200003,145.440086 L101.720002,145.440086 C105.784818,145.440086 110.080002,141.144902 110.080002,137.080086 L110.080002,33.6996844 C110.073075,31.7469892 109.296185,29.8758417 107.918002,28.4924843 L88.8188017,9.49448397 C87.4445369,8.12293194 84.5807813,6.35491899 82.6392016,6.35988799 Z M38.4000003,101.200086 C42.9729186,101.200086 46.6800009,104.907168 46.6800009,109.480086 L46.6800009,124.200086 C46.6800009,128.773004 42.9729186,132.480086 38.4000003,132.480086 L23.6800005,132.480086 C19.1070827,132.480086 15.4000003,128.773004 15.4000003,124.200086 L15.4000003,109.480086 C15.4000003,104.907168 19.1070827,101.200086 23.6800005,101.200086 L38.4000003,101.200086 Z M38.4000008,106.720086 L23.6800005,106.720086 C22.1556945,106.720086 20.9200004,107.95578 20.9200004,109.480086 L20.9200004,124.200086 C20.9200004,125.724392 22.1556945,126.960086 23.6800005,126.960086 L38.4000008,126.960086 C39.9243067,126.960086 41.1600008,125.724392 41.1600008,124.200086 L41.1600008,109.480086 C41.1600008,107.95578 39.9243067,106.720086 38.4000008,106.720086 Z M65.0800012,114.080086 C66.6043072,114.080086 67.8400013,115.31578 67.8400013,116.840086 C67.8400013,118.364392 66.6043072,119.600086 65.0800012,119.600086 L57.7200011,119.600086 C56.1956952,119.600086 54.9600011,118.364392 54.9600011,116.840086 C54.9600011,115.31578 56.1956952,114.080086 57.7200011,114.080086 L65.0800012,114.080086 Z M38.4000003,59.8000849 C42.9729186,59.8000849 46.6800009,63.5071672 46.6800009,68.080085 L46.6800009,82.8000849 C46.6800009,87.3730031 42.9729186,91.0800855 38.4000003,91.0800855 L23.6800005,91.0800855 C19.1070827,91.0800855 15.4000003,87.3730031 15.4000003,82.8000849 L15.4000003,68.080085 C15.4000003,63.5071672 19.1070827,59.8000849 23.6800005,59.8000849 L38.4000003,59.8000849 Z M38.4000008,65.320085 L23.6800005,65.320085 C22.1556945,65.320085 20.9200004,66.5557791 20.9200004,68.080085 L20.9200004,82.8000853 C20.9200004,84.3243912 22.1556945,85.5600854 23.6800005,85.5600854 L38.4000008,85.5600854 C39.9243067,85.5600854 41.1600008,84.3243912 41.1600008,82.8000853 L41.1600008,68.080085 C41.1600008,66.5557791 39.9243067,65.320085 38.4000008,65.320085 Z M98.200001,77.2800852 C99.7243069,77.2800852 100.960001,78.5157793 100.960001,80.0400853 C100.960001,81.5643912 99.7243069,82.8000853 98.200001,82.8000853 L57.7200011,82.8000853 C56.1956952,82.8000853 54.9600011,81.5643912 54.9600011,80.0400853 C54.9600011,78.5157793 56.1956952,77.2800852 57.7200011,77.2800852 L98.200001,77.2800852 Z M98.200001,66.700085 C99.7243069,66.700085 100.960001,67.9357791 100.960001,69.4600851 C100.960001,70.984391 99.7243069,72.2200851 98.200001,72.2200851 L57.7200011,72.2200851 C56.1956952,72.2200851 54.9600011,70.984391 54.9600011,69.4600851 C54.9600011,67.9357791 56.1956952,66.700085 57.7200011,66.700085 L98.200001,66.700085 Z M38.4000003,18.4000841 C42.9729186,18.4000841 46.6800009,22.1071665 46.6800009,26.6800843 L46.6800009,41.4000841 C46.6800009,45.9730024 42.9729186,49.6800847 38.4000003,49.6800847 L23.6800005,49.6800847 C19.1070827,49.6800847 15.4000003,45.9730024 15.4000003,41.4000841 L15.4000003,26.6800843 C15.4000003,22.1071665 19.1070827,18.4000841 23.6800005,18.4000841 L38.4000003,18.4000841 Z M38.4000008,23.9200842 L23.6800005,23.9200842 C22.1556945,23.9200842 20.9200004,25.1557783 20.9200004,26.6800843 L20.9200004,41.4000845 C20.9200004,42.9243905 22.1556945,44.1600846 23.6800005,44.1600846 L38.4000008,44.1600846 C39.9243067,44.1600846 41.1600008,42.9243905 41.1600008,41.4000845 L41.1600008,26.6800843 C41.1600008,25.1557783 39.9243067,23.9200842 38.4000008,23.9200842 Z M89.0000017,30.8200844 C90.5243076,30.8200844 91.7600017,32.0557785 91.7600017,33.5800844 C91.7600017,35.1043903 90.5243076,36.3400845 89.0000017,36.3400845 L57.7200011,36.3400845 C56.1956952,36.3400845 54.9600011,35.1043903 54.9600011,33.5800844 C54.9600011,32.0557785 56.1956952,30.8200844 57.7200011,30.8200844 L89.0000017,30.8200844 Z" id="Combined-Shape" stroke="#FFFFFF" fill="#272729"></path>
                <path d="M79.7356015,111.780086 C82.4878753,103.711407 91.1950836,99.3332528 99.3132019,101.936086 C100.246589,102.269093 100.748563,103.281514 100.448596,104.226038 C100.148629,105.170562 99.1544932,105.70784 98.2000018,105.441286 C97.0092677,105.067062 95.7681548,104.877792 94.5200018,104.880086 C89.8741977,104.89195 85.6556042,107.593142 83.7008016,111.807686 L83.7008016,111.807686 L90.8400017,111.807686 C91.8562057,111.807686 92.6800017,112.631482 92.6800017,113.647686 C92.6800017,114.66389 91.8562057,115.487686 90.8400017,115.487686 L90.8400017,115.487686 L82.6428016,115.487686 C82.5323572,116.404371 82.5323572,117.331001 82.6428016,118.247686 L82.6428016,118.247686 L90.8400017,118.247686 C91.8562057,118.247686 92.6800017,119.071482 92.6800017,120.087686 C92.6800017,121.10389 91.8562057,121.927686 90.8400017,121.927686 L90.8400017,121.927686 L83.7008016,121.927686 C85.6636407,126.131465 89.8805568,128.820825 94.5200018,128.827686 C95.6721153,128.828316 96.818394,128.664119 97.9240018,128.340086 C98.5759095,128.049448 99.3370876,128.162045 99.8769316,128.628974 C100.416776,129.095904 100.637879,129.832914 100.444208,130.519897 C100.250538,131.20688 99.6770396,131.719881 98.9728018,131.836086 C90.9337737,134.215411 82.4484866,129.832766 79.7356015,121.900086 L79.7356015,121.900086 L75.2000014,121.900086 C74.1837975,121.900086 73.3600014,121.07629 73.3600014,120.060086 C73.3600014,119.043882 74.1837975,118.220086 75.2000014,118.220086 L75.2000014,118.220086 L78.9536015,118.220086 C78.8554507,117.302704 78.8554507,116.377468 78.9536015,115.460086 L78.9536015,115.460086 L75.2000014,115.460086 C74.1837975,115.460086 73.3600014,114.63629 73.3600014,113.620086 C73.3600014,112.603882 74.1837975,111.780086 75.2000014,111.780086 L75.2000014,111.780086 Z M51.3227692,59.7573167 C52.3738217,60.8083691 52.4037216,62.503009 51.390401,63.590485 L31.9600006,83.0208853 L24.4896005,75.5504852 C23.7511968,74.8624334 23.4472435,73.8262007 23.6969817,72.8483019 C23.9467199,71.8704031 24.7103185,71.1068045 25.6882173,70.8570663 C26.6661161,70.6073281 27.7023488,70.9112814 28.3904006,71.6496851 L31.9600006,75.2192852 L47.4896009,59.6896849 C48.5770768,58.6763643 50.2717167,58.7062642 51.3227692,59.7573167 Z M51.3227692,18.3573159 C52.3738217,19.4083684 52.4037216,21.1030083 51.390401,22.1904842 L31.9600006,41.6208846 L24.4896005,34.1504844 C23.7511968,33.4624327 23.4472435,32.4262 23.6969817,31.4483012 C23.9467199,30.4704024 24.7103185,29.7068037 25.6882173,29.4570655 C26.6661161,29.2073273 27.7023488,29.5112806 28.3904006,30.2496843 L31.9600006,33.8192844 L47.4896009,18.2896841 C48.5770768,17.2763635 50.2717167,17.3062634 51.3227692,18.3573159 Z" id="Combined-Shape" fill="#DE1656"></path>
            </g>
        </g>
    </g>
</svg>
