<?xml version="1.0" encoding="UTF-8"?>
<svg viewBox="0 0 132 155" version="1.1" xmlns="http://www.w3.org/2000/svg" xmlns:xlink="http://www.w3.org/1999/xlink">
    <g id="Symbols" stroke="none" stroke-width="1" fill="none" fill-rule="evenodd">
        <g id="illu-defi/emploi-public-copy" transform="translate(-34.000000, -14.000000)" fill-rule="nonzero">
            <g id="public" transform="translate(35.600001, 15.833200)">
                <path d="M126.518402,60.6004011 L67.1600012,26.0452005 L67.1600012,0.0368000007 L64.4000012,0.0368000007 C62.8756952,0.0368000007 61.6400011,1.27249411 61.6400011,2.79680005 L61.6400011,26.0544005 L2.29080004,60.6004011 C0.873973991,61.4227766 0.00142169259,62.9366023 0,64.5748012 L0,69.0368 C0,70.2567971 0.484641474,71.4268251 1.34730883,72.2894925 C2.20997619,73.1521599 3.38000421,73.6368013 4.60000008,73.6368013 L124.200002,73.6368013 C126.740512,73.6368013 128.800003,71.5773111 128.800003,69.0368 L128.800003,64.5748012 C128.800003,62.9384912 127.931689,61.4251013 126.518402,60.6004011 L126.518402,60.6004011 Z M123.280002,68.1168012 L5.5200001,68.1168012 L5.5200001,65.1268012 L64.4000012,30.8476006 L123.280002,65.1268012 L123.280002,68.1168012 Z" id="Shape" stroke="#FFFFFF" fill="#272729"></path>
                <path d="M124.880002,146.756803 C126.536857,146.756803 127.880002,148.099949 127.880002,149.756803 C127.880002,151.413657 126.536857,152.756803 124.880002,152.756803 L3.92000002,152.756803 C2.26314577,152.756803 0.920000017,151.413657 0.920000017,149.756803 C0.920000017,148.099949 2.26314577,146.756803 3.92000002,146.756803 L124.880002,146.756803 Z M17.4800003,70.8768013 L17.4800003,77.3168014 C17.4607348,77.5863882 17.4887568,77.8572673 17.5628003,78.1172014 C17.6948732,78.2729107 17.8394911,78.4175285 17.9952003,78.5496014 C18.1608003,78.7060014 18.3356003,78.8624014 18.5104003,79.0464014 C20.7000004,81.2360015 20.7000004,83.1312015 20.7000004,85.1368015 L20.7000004,140.676802 L15.1800003,140.676802 L15.1800003,85.1368015 C15.1800003,83.5176015 15.1800003,83.5176015 14.6096003,82.9472015 L14.2324003,82.5884015 C12.6683735,81.3010514 11.8220847,79.3377986 11.9600002,77.3168014 L11.9600002,70.8768013 L17.4800003,70.8768013 Z M33.5800006,70.8768013 L33.5800006,77.3168014 C33.7173815,79.3489229 32.8598294,81.3212929 31.2800006,82.6068015 L30.9028006,82.9656015 C30.409346,83.4757833 30.3644865,83.5221635 30.3604084,84.7359967 L30.3600006,140.676802 L24.8400005,140.676802 L24.8407187,84.7232923 C24.8504147,82.8683944 24.9910073,81.0849946 27.0296005,79.0464014 C27.2044005,78.8624014 27.3792005,78.7060014 27.5448005,78.5496014 C27.7005098,78.4175285 27.8451276,78.2729107 27.9772005,78.1172014 C28.051244,77.8572673 28.079266,77.5863882 28.0600005,77.3168014 L28.0600005,70.8768013 L33.5800006,70.8768013 Z M45.0800008,70.8768013 L45.0800008,77.3168014 C45.0607353,77.5863882 45.0887573,77.8572673 45.1628008,78.1172014 C45.2948737,78.2729107 45.4394916,78.4175285 45.5952008,78.5496014 C45.7608008,78.7060014 45.9356008,78.8624014 46.1104008,79.0464014 C48.3000009,81.2360015 48.3000009,83.1312015 48.3000009,85.1368015 L48.3000009,140.676802 L42.7800008,140.676802 L42.7800008,85.1368015 C42.7800008,83.5176015 42.7800008,83.5176015 42.2096008,82.9472015 L41.8324008,82.5884015 C40.268374,81.3010514 39.4220852,79.3377986 39.5600007,77.3168014 L39.5600007,70.8768013 L45.0800008,70.8768013 Z M61.1800011,70.8768013 L61.1800011,77.3168014 C61.317382,79.3489229 60.4598299,81.3212929 58.8800011,82.6068015 L58.5028011,82.9656015 C58.0093465,83.4757833 57.964487,83.5221635 57.9604089,84.7359967 L57.9600011,140.676802 L52.440001,140.676802 L52.4407192,84.7232923 C52.4504152,82.8683944 52.5910079,81.0849946 54.629601,79.0464014 C54.804401,78.8624014 54.979201,78.7060014 55.144801,78.5496014 C55.3005103,78.4175285 55.4451281,78.2729107 55.577201,78.1172014 C55.6512445,77.8572673 55.6792665,77.5863882 55.660001,77.3168014 L55.660001,70.8768013 L61.1800011,70.8768013 Z M72.6800013,70.8768013 L72.6800013,77.3168014 C72.6607358,77.5863882 72.6887578,77.8572673 72.7628013,78.1172014 C72.8948742,78.2729107 73.0394921,78.4175285 73.1952013,78.5496014 C73.3608013,78.7060014 73.5356013,78.8624014 73.7104013,79.0464014 C75.9000014,81.2360015 75.9000014,83.1312015 75.9000014,85.1368015 L75.9000014,140.676802 L70.3800013,140.676802 L70.3800013,85.1368015 C70.3800013,83.5176015 70.3800013,83.5176015 69.8096013,82.9472015 L69.4324013,82.5884015 C67.8683745,81.3010514 67.0220857,79.3377986 67.1600012,77.3168014 L67.1600012,70.8768013 L72.6800013,70.8768013 Z M88.7800016,70.8768013 L88.7800016,77.3168014 C88.9173825,79.3489229 88.0598304,81.3212929 86.4800016,82.6068015 L86.1028016,82.9656015 C85.5842561,83.484147 85.5371156,83.5312875 85.5328301,84.7521019 L85.5324016,85.1552015 L85.5324016,85.1552015 L85.5600016,140.676802 L80.0400015,140.676802 L80.0407197,84.7232923 C80.0504157,82.8683944 80.1910084,81.0849946 82.2296015,79.0464014 C82.4044015,78.8624014 82.5792015,78.7060014 82.7448015,78.5496014 C82.9005108,78.4175285 83.0451286,78.2729107 83.1772015,78.1172014 C83.251245,77.8572673 83.279267,77.5863882 83.2600015,77.3168014 L83.2600015,70.8768013 L88.7800016,70.8768013 Z M100.280002,70.8768013 L100.280002,77.3168014 C100.260736,77.5863882 100.288758,77.8572673 100.362802,78.1172014 C100.494875,78.2729107 100.639493,78.4175285 100.795202,78.5496014 C100.960802,78.7060014 101.135602,78.8624014 101.310402,79.0464014 C103.500002,81.2360015 103.500002,83.1312015 103.500002,85.1368015 L103.500002,140.676802 L97.9800018,140.676802 L97.9800018,85.1368015 C97.9800018,83.5176015 97.9800018,83.5176015 97.4096018,82.9472015 L97.0324018,82.5884015 C95.468375,81.3010514 94.6220862,79.3377986 94.7600017,77.3168014 L94.7600017,70.8768013 L100.280002,70.8768013 Z M116.380002,70.8768013 L116.380002,77.3168014 C116.517383,79.3489229 115.659831,81.3212929 114.080002,82.6068015 L113.702802,82.9656015 C113.184257,83.484147 113.137116,83.5312875 113.132831,84.7521019 L113.132402,85.1552015 L113.132402,85.1552015 L113.160002,140.676802 L107.640002,140.676802 L107.64072,84.7232923 C107.650416,82.8683944 107.791009,81.0849946 109.829602,79.0464014 C110.004402,78.8624014 110.179202,78.7060014 110.344802,78.5496014 C110.500511,78.4175285 110.645129,78.2729107 110.777202,78.1172014 C110.851246,77.8572673 110.879267,77.5863882 110.860002,77.3168014 L110.860002,70.8768013 L116.380002,70.8768013 Z" id="Combined-Shape" fill="#272729"></path>
                <path d="M116.600002,140.716803 C118.256856,140.716803 119.600002,142.059948 119.600002,143.716803 C119.600002,145.373657 118.256856,146.716803 116.600002,146.716803 L12.2000002,146.716803 C10.5431459,146.716803 9.20000017,145.373657 9.20000017,143.716803 C9.20000017,142.059948 10.5431459,140.716803 12.2000002,140.716803 L116.600002,140.716803 Z M87.0800018,5.49999971 C88.6043078,5.49999971 89.8400019,6.73569383 89.8400019,8.25999976 L89.8400019,8.25999976 L89.8400019,11.9399998 L97.485202,11.9399998 C97.8061747,11.9440521 98.1018275,12.1151077 98.2653185,12.3913513 C98.4288096,12.6675949 98.4364968,13.0090791 98.2856021,13.2923999 L98.2856021,13.2923999 L94.688402,19.7784 C94.5240598,20.063049 94.5240598,20.413751 94.688402,20.6984 L94.688402,20.6984 L98.2856021,27.1476001 C98.4364968,27.4309208 98.4288096,27.7724051 98.2653185,28.0486487 C98.1018275,28.3248922 97.8061747,28.4959479 97.485202,28.4999997 L97.485202,28.4999997 L79.7200017,28.4999997 C78.1956958,28.4999997 76.9600017,27.264306 76.9600017,25.7400001 L76.9600017,25.7400001 L76.9600017,22.06 L67.7600015,22.06 L67.7600015,5.49999971 Z" id="Combined-Shape" fill="#DE1656"></path>
            </g>
        </g>
    </g>
</svg>
