<?xml version="1.0" encoding="utf-8"?>
<!-- Generator: Adobe Illustrator 23.0.1, SVG Export Plug-In . SVG Version: 6.00 Build 0)  -->
<svg version="1.1" id="Calque_1" xmlns="http://www.w3.org/2000/svg" xmlns:xlink="http://www.w3.org/1999/xlink" x="0px" y="0px"
	 viewBox="0 0 200 200" style="enable-background:new 0 0 200 200;" xml:space="preserve">
<style type="text/css">
	.st0{fill:#FF5638;}
	.st1{fill:#27282B;}
</style>
<title>pole emploi</title>
<g id="pole_emploi">
	<path class="st0" d="M109.2,42c6.5,0,11.8,5.3,11.8,11.8V63H55v-9.2C55,47.3,60.3,42,66.8,42H109.2 M109.2,34H66.8
		C55.9,34,47,42.9,47,53.8l0,0V71h82V53.8C129,42.9,120.1,34,109.2,34L109.2,34z"/>
	<path class="st1" d="M164,71c2.2,0,4,1.8,4,4v103c0,2.2-1.8,4-4,4H12c-2.2,0-4-1.8-4-4V75c0-2.2,1.8-4,4-4H164 M164,63H12
		C5.4,63,0,68.4,0,75v103c0,6.6,5.4,12,12,12h152c6.6,0,12-5.4,12-12V75C176,68.4,170.6,63,164,63z"/>
	<path class="st1" d="M164,71c2.2,0,4,1.8,4,4v46c0,2.2-1.8,4-4,4H12c-2.2,0-4-1.8-4-4V75c0-2.2,1.8-4,4-4H164 M164,63H12
		C5.4,63,0,68.4,0,75v46c0,6.6,5.4,12,12,12l0,0h152c6.6,0,12-5.4,12-12l0,0V75C176,68.4,170.6,63,164,63z"/>
	<path class="st0" d="M55,123c2.2,0,4,1.8,4,4v10c0,2.2-1.8,4-4,4H43c-2.2,0-4-1.8-4-4v-10c0-2.2,1.8-4,4-4H55 M55,117H43
		c-5.5,0-10,4.5-10,10v10c0,5.5,4.5,10,10,10h12c5.5,0,10-4.5,10-10v-10C65,121.5,60.5,117,55,117z"/>
	<path class="st0" d="M133,123c2.2,0,4,1.8,4,4v10c0,2.2-1.8,4-4,4h-12c-2.2,0-4-1.8-4-4v-10c0-2.2,1.8-4,4-4H133 M133,117h-12
		c-5.5,0-10,4.5-10,10v10c0,5.5,4.5,10,10,10h12c5.5,0,10-4.5,10-10v-10C143,121.5,138.5,117,133,117z"/>
</g>
</svg>
