<?xml version="1.0" encoding="utf-8"?>
<!-- Generator: Adobe Illustrator 23.0.1, SVG Export Plug-In . SVG Version: 6.00 Build 0)  -->
<svg version="1.1" id="Calque_1" xmlns="http://www.w3.org/2000/svg" xmlns:xlink="http://www.w3.org/1999/xlink" x="0px" y="0px"
	 viewBox="0 0 200 200" style="enable-background:new 0 0 200 200;" xml:space="preserve">
<style type="text/css">
	.st0{fill:#FF5638;}
	.st1{fill:#3355E3;}
	.st2{fill:none;}
</style>
<title>titre de séjour</title>
<g id="Calque_10">
	<path class="st0" d="M89,66.5c1.1,0,2,0.9,2,2v63c0,1.1-0.9,2-2,2H24c-1.1,0-2-0.9-2-2v-63c0-1.1,0.9-2,2-2H89 M89,60.5H24
		c-4.4,0-8,3.6-8,8v63c0,4.4,3.6,8,8,8h65c4.4,0,8-3.6,8-8v-63C97,64.1,93.4,60.5,89,60.5z"/>
	<path class="st1" d="M56.5,77.5C62.3,77.5,67,82.2,67,88s-4.7,10.5-10.5,10.5S46,93.8,46,88S50.7,77.5,56.5,77.5 M56.5,71.5
		C47.4,71.5,40,78.9,40,88s7.4,16.5,16.5,16.5S73,97.1,73,88S65.6,71.5,56.5,71.5z"/>
	<path class="st1" d="M83.6,129.5H29.4c-1.5,0-3-0.7-3.8-2c-1-1.4-1.3-3.1-0.8-4.8c2.9-9,8.4-14.2,15.1-14.2h33.3
		c6.7,0,12.2,5.2,15.1,14.2c0.5,1.6,0.2,3.4-0.8,4.8C86.6,128.8,85.2,129.5,83.6,129.5z M30.8,123.5h51.3c-1.3-3.8-4.1-9-9-9H39.8
		C34.9,114.5,32.2,119.7,30.8,123.5z"/>
	<path class="st1" d="M109,92h46c1.7,0,3,1.3,3,3l0,0c0,1.7-1.3,3-3,3h-46c-1.7,0-3-1.3-3-3l0,0C106,93.3,107.3,92,109,92z"/>
	<path class="st1" d="M109,104h46c1.7,0,3,1.3,3,3l0,0c0,1.7-1.3,3-3,3h-46c-1.7,0-3-1.3-3-3l0,0C106,105.3,107.3,104,109,104z"/>
	<path class="st1" d="M109,116h46c1.7,0,3,1.3,3,3l0,0c0,1.7-1.3,3-3,3h-46c-1.7,0-3-1.3-3-3l0,0C106,117.3,107.3,116,109,116z"/>
	<path class="st1" d="M150,60.5h-36c-4.4,0-8,3.6-8,8v6c0,4.4,3.6,8,8,8h36c4.4,0,8-3.6,8-8v-6C158,64.1,154.4,60.5,150,60.5z
		 M144.5,76.5v-10h5.5c1.1,0,2,0.9,2,2v6c0,1.1-0.9,2-2,2H144.5z M125.5,76.5v-10h13v10H125.5z M114,76.5c-1.1,0-2-0.9-2-2v-6
		c0-1.1,0.9-2,2-2h5.5v10H114z"/>
	<path class="st2" d="M128,128c12.2,0,23.4,7,28.8,18c4.1-0.4,7.3-3.9,7.2-8V62c0-4.4-3.6-8-8-8H16c-4.4,0-8,3.6-8,8v76
		c0,4.4,3.6,8,8,8h83.2C104.6,135,115.8,128,128,128z"/>
	<path class="st1" d="M156,46H16C7.2,46,0,53.2,0,62v76c0,8.8,7.2,16,16,16h80.6c0.5-2.8,1.4-5.5,2.7-8H16c-4.4,0-8-3.6-8-8V62
		c0-4.4,3.6-8,8-8h140c4.4,0,8,3.6,8,8v76c0,4.1-3.1,7.6-7.2,8c1.2,2.4,2.1,5,2.6,7.7c7.4-1.6,12.7-8.1,12.6-15.7V62
		C172,53.2,164.8,46,156,46z"/>
	<path class="st0" d="M159.4,153.6c-0.5-2.7-1.4-5.2-2.6-7.7c-7.8-15.9-26.9-22.5-42.8-14.7S91.5,158.1,99.3,174
		s26.9,22.5,42.8,14.7c11-5.4,18-16.5,17.9-28.8C160,157.9,159.8,155.7,159.4,153.6z M128,184c-13.3,0-24-10.7-24-24s10.7-24,24-24
		s24,10.7,24,24S141.3,184,128,184z"/>
	<path class="st0" d="M121.5,175.7l-12.1-12.1c-1.1-1.2-1.1-3.1,0.1-4.2c1.2-1.1,2.9-1.1,4.1,0l7.9,7.9l20.9-20.9
		c1.2-1.1,3.1-1.1,4.2,0.1c1.1,1.2,1.1,2.9,0,4.1L121.5,175.7z"/>
</g>
</svg>
