<?xml version="1.0" encoding="UTF-8"?>
<svg viewBox="0 0 174 149" version="1.1" xmlns="http://www.w3.org/2000/svg" xmlns:xlink="http://www.w3.org/1999/xlink">
    <g id="Symbols" stroke="none" stroke-width="1" fill="none" fill-rule="evenodd">
        <g id="illu-defi/titre-de-sejour-copy" transform="translate(-13.000000, -52.000000)" fill-rule="nonzero">
            <g id="titre" transform="translate(14.000000, 53.000000)">
                <path d="M156,0 C164.836556,0 172.000778,7.163444 172.000778,16 L172.000778,16 L172.000778,92 C172.017363,99.5555018 166.747048,106.09336 159.36,107.68 C158.824727,105.018187 157.947451,104.436777 156.75,102 C160.873026,101.611797 166.018235,96.1412216 166,92 L166,92 L166,16 C166,11.581722 160.418278,6 156,6 L156,6 L16,6 C11.581722,6 6,11.581722 6,16 L6,16 L6,92 C6,96.418278 11.581722,102 16,102 L16,102 L99.23,102 C97.9943998,104.537686 97.0999728,105.227693 96.57,108 L96.57,108 L16,108 C7.163444,108 0,100.836556 0,92 L0,92 L0,16 C0,7.163444 7.163444,0 16,0 L16,0 Z M73.17,62.49 C79.89,62.49 85.38,67.68 88.25,76.73 C88.765181,78.3520748 88.4794024,80.1224178 87.48,81.5 C86.6004195,82.7503371 85.1687213,83.4960132 83.64,83.5 L29.36,83.5 C27.8312787,83.4960132 26.3995805,82.7503371 25.52,81.5 C24.5205976,80.1224178 24.234819,78.3520748 24.75,76.73 C27.62,67.73 33.11,62.49 39.83,62.49 L73.17,62.49 Z M73.17,68.5 L39.83,68.5 C34.93,68.5 32.18,73.73 30.83,77.5 L82.17,77.5 C80.82,73.73 78.07,68.5 73.17,68.5 Z M155,70 C156.656854,70 158,71.3431458 158,73 C158,74.6568542 156.656854,76 155,76 L109,76 C107.343146,76 106,74.6568542 106,73 C106,71.3431458 107.343146,70 109,70 L155,70 Z M155,58 C156.656854,58 158,59.3431458 158,61 C158,62.6568542 156.656854,64 155,64 L109,64 C107.343146,64 106,62.6568542 106,61 C106,59.3431458 107.343146,58 109,58 L155,58 Z M56.5,25.5 C65.6126984,25.5 73,32.8873016 73,42 C73,51.1126984 65.6126984,58.5 56.5,58.5 C47.3873016,58.5 40,51.1126984 40,42 C40,32.8873016 47.3873016,25.5 56.5,25.5 Z M56.5,31.5 C50.7032951,31.5055128 46.0055128,36.2032951 46,42 C46,47.7989899 50.7010101,52.5 56.5,52.5 C62.2989899,52.5 67,47.7989899 67,42 C67,36.2010101 62.2989899,31.5 56.5,31.5 Z M155,46 C156.656854,46 158,47.3431458 158,49 C158,50.6568542 156.656854,52 155,52 L109,52 C107.343146,52 106,50.6568542 106,49 C106,47.3431458 107.343146,46 109,46 L155,46 Z M150,14.5 C154.418278,14.5 158,18.081722 158,22.5 L158,22.5 L158,28.5 C158,32.918278 154.418278,36.5 150,36.5 L150,36.5 L114,36.5 C109.581722,36.5 106,32.918278 106,28.5 L106,28.5 L106,22.5 C106,18.081722 109.581722,14.5 114,14.5 L114,14.5 Z M150,20.5 L144.5,20.5 L144.5,30.5 L150,30.5 C151.104569,30.5 152,29.6045695 152,28.5 L152,28.5 L152,22.5 C152,21.3954305 151.104569,20.5 150,20.5 L150,20.5 Z M138.5,20.5 L125.5,20.5 L125.5,30.5 L138.5,30.5 L138.5,20.5 Z M119.5,20.5 L114,20.5 C112.895431,20.5 112,21.3954305 112,22.5 L112,22.5 L112,28.5 C112,29.6045695 112.895431,30.5 114,30.5 L114,30.5 L119.5,30.5 L119.5,20.5 Z" id="Combined-Shape" stroke="#FFFFFF" fill="#272729"></path>
                <path d="M89,20.5 C90.1045695,20.5 91,21.3954305 91,22.5 L91,85.5 C91,86.6045695 90.1045695,87.5 89,87.5 L24,87.5 C22.8954305,87.5 22,86.6045695 22,85.5 L22,22.5 C22,21.3954305 22.8954305,20.5 24,20.5 L89,20.5 M89,14.5 L24,14.5 C19.581722,14.5 16,18.081722 16,22.5 L16,85.5 C16,89.918278 19.581722,93.5 24,93.5 L89,93.5 C93.418278,93.5 97,89.918278 97,85.5 L97,22.5 C97,18.081722 93.418278,14.5 89,14.5 Z" id="Combined-Shape" stroke="#FFFFFF" fill="#DE1656"></path>
                <path d="M159.36,107.64 C158.824727,104.978187 157.947451,102.396777 156.75,99.96 C149.605783,85.3423521 132.630205,78.4124197 117.297146,83.8541797 C101.964086,89.2959396 93.1551559,105.37689 96.824356,121.227834 C100.493556,137.078779 115.472717,147.653226 131.637348,145.803854 C147.801979,143.954482 160.00572,130.270078 160.000009,114 C160.001637,111.863845 159.787212,109.733001 159.36,107.64 L159.36,107.64 Z M128,138 C114.745166,138 104,127.254834 104,114 C104,100.745166 114.745166,90 128,90 C141.254834,90 152,100.745166 152,114 C152,127.254834 141.254834,138 128,138 Z" id="Shape" stroke="#FFFFFF" stroke-width="3" fill="#DE1656"></path>
                <path d="M123.516237,126.5 L112.7174,115.799754 C111.736029,114.756181 111.764986,113.129955 112.7829,112.121335 C113.800813,111.112715 115.442023,111.084022 116.495211,112.056434 L123.516237,119.013359 L139.504789,103.210851 C140.557977,102.238439 142.199187,102.267132 143.2171,103.275752 C144.235014,104.284373 144.263971,105.910598 143.2826,106.954171 L123.516237,126.5 Z" id="Path-Copy" stroke="#DE1656" fill="#DE1656"></path>
            </g>
        </g>
    </g>
</svg>
