<?xml version="1.0" encoding="UTF-8"?>
<svg width="46px" height="46px" viewBox="0 0 46 46" version="1.1" xmlns="http://www.w3.org/2000/svg" xmlns:xlink="http://www.w3.org/1999/xlink">
    <g id="Site" stroke="none" stroke-width="1" fill="none" fill-rule="evenodd">
        <g id="Artboard" transform="translate(-838.000000, -200.000000)">
            <g id="france-relance-retro" transform="translate(838.000000, 200.000000)">
                <path d="M42,12 L42,14 L44,14 L44,18 L42,18 L42,18.0230204 L44,18.0230204 L44,18 L46,18 L46,32 L44,32 L44,36 L42,36 L42,38 L40,38 L40,40 L38,40 L38,42 L36,42 L36,44 L32,44 L32,46 L18,46 L18,44 L18.0230204,44 L18.0230204,42 L18,42 L18,44 L14,44 L14,42 L12,42 L12,40 L10,40 L10,38 L8,38 L8,36 L6,36 L6,32 L4,32 L4,18 L6,18 L6,18.0230204 L8,18.0230204 L8,18 L6,18 L6,14 L8,14 L8,12 L10,12 L10,10 L12,10 L12,8 L14,8 L14,6 L18,6 L18,8 L18.0230204,8 L18.0230204,6 L18,6 L18,4 L32,4 L32,6 L36,6 L36,8 L38,8 L38,10 L40,10 L40,12 L42,12 Z" class="back" fill="#FFFFFF"></path>
                <path d="M28,2 L28,4 L32,4 L32,6 L34,6 L34,8 L36,8 L36,10 L38,10 L38,14.0230204 L40,14.0230204 L40,28 L38,28 L38,32 L36,32 L36,34 L34,34 L34,36 L32,36 L32,38 L28,38 L28,40 L14.0230204,40 L14.0230204,38 L10,38 L10,36 L8,36 L8,32 L8,32 L8,34 L6,34 L6,32 L4,32 L4,28 L2,28 L2,14.0230204 L4,14.0230204 L4,10 L6,10 L6,8 L8,8 L8,6 L10,6 L10,4 L14.0230204,4 L14.0230204,2 L28,2 Z M24,14 L28,14 L28,18 L30,18 L30,24 L28,24 L28,28 L24,28 L24,30 L18,30 L18,28 L14,28 L14,24 L12,24 L12,18 L14,18 L14,14 L18,14 L18,12 L24,12 L24,10 L18,10 L18,12 L14,12 L14,14 L12,14 L12,18 L10,18 L10,24 L12,24 L12,28 L14,28 L14,30 L18,30 L18,32 L24,32 L24,30 L28,30 L28,28 L30,28 L30,24 L32,24 L32,18 L30,18 L30,14 L28,14 L28,12 L24,12 L24,14 Z" class="middle" fill="#FFFFFF"></path>
                <path d="M28,40 L28,42 L14,42 L14,40 L28,40 Z M32,38 L32,40 L28,40 L28,38 L32,38 Z M14,38 L14,40 L10,40 L10,38 L14,38 Z M34,36 L34,38 L32,38 L32,36 L34,36 Z M10,36 L10,38 L8,38 L8,36 L10,36 Z M36,34 L36,36 L34,36 L34,34 L36,34 Z M8,34 L8,36 L6,36 L6,34 L8,34 Z M38,32 L38,34 L36,34 L36,32 L38,32 Z M6,32 L6,34 L4,34 L4,32 L6,32 Z M40,28 L40,32 L38,32 L38,28 L40,28 Z M26,30 L26,32 L16,32 L16,30 L26,30 Z M2,28 L4,28 L4,32 L2,32 L2,28 Z M28,28 L28,30 L26,30 L26,28 L28,28 Z M16,28 L16,30 L14,30 L14,28 L16,28 Z M42,14 L42,28 L40,28 L40,14 L42,14 Z M30,26 L30,28 L28,28 L28,26 L30,26 Z M14,26 L14,28 L12,28 L12,26 L14,26 Z M2,14 L2,28 L0,28 L0,14 L2,14 Z M12,16 L12,26 L10,26 L10,16 L12,16 Z M32,16 L32,26 L30,26 L30,16 L32,16 Z M30,14 L30,16 L28,16 L28,14 L30,14 Z M14,14 L14,16 L12,16 L12,14 L14,14 Z M28,12 L28,14 L26,14 L26,12 L28,12 Z M40,10 L40,14 L38,14 L38,10 L40,10 Z M16,12 L16,14 L14,14 L14,12 L16,12 Z M4,10 L4,14 L2,14 L2,10 L4,10 Z M26,10 L26,12 L16,12 L16,10 L26,10 Z M38,8 L38,10 L36,10 L36,8 L38,8 Z M6,8 L6,10 L4,10 L4,8 L6,8 Z M36,6 L36,8 L34,8 L34,6 L36,6 Z M8,6 L8,8 L6,8 L6,6 L8,6 Z M34,4 L34,6 L32,6 L32,4 L34,4 Z M10,4 L10,6 L8,6 L8,4 L10,4 Z M32,2 L32,4 L28,4 L28,2 L32,2 Z M14,2 L14,4 L10,4 L10,2 L14,2 Z M28,0 L28,2 L14,2 L14,0 L28,0 Z" class="stroke" fill="#272729"></path>
            </g>
        </g>
    </g>
</svg>
