<?xml version="1.0" encoding="UTF-8"?>
<svg width="52px" height="46px" viewBox="0 0 52 46" version="1.1" xmlns="http://www.w3.org/2000/svg" xmlns:xlink="http://www.w3.org/1999/xlink">
    <g id="Site" stroke="none" stroke-width="1" fill="none" fill-rule="evenodd">
        <g id="Artboard" transform="translate(-835.000000, -140.000000)">
            <g id="observatoire-retro" transform="translate(835.000000, 140.000000)">
                <path d="M42,4 L46,4 L46,6 L48,6 L48,10 L50,10 L50,14 L52,14 L52,18 L50,18 L50,20 L46,20 L46,18 L42,18 L42,20 L38,20 L38,22 L34,22 L34,24 L30,24 L30,30 L32,30 L32,36 L34,36 L34,42 L36,42 L36,46 L22,46 L22,42 L24,42 L24,36 L26,36 L26,30 L28,30 L28,26 L26,26 L26,28 L22,28 L22,30 L18,30 L18,28 L16,28 L16,30 L18,30 L18,32 L14,32 L14,34 L10,34 L10,32 L8,32 L8,34 L4,34 L4,30 L6,30 L6,26 L8,26 L8,24 L12,24 L12,22 L16,22 L16,20 L20,20 L20,18 L24,18 L24,16 L28,16 L28,14 L32,14 L32,12 L36,12 L36,10 L40,10 L40,6 L42,6 L42,4 Z" class="back" fill="#FFFFFF"></path>
                <path d="M24,32 L24,42 L20,42 L20,38 L22,38 L22,32 L24,32 Z M30,42 L26,42 L26,32 L28,32 L28,38 L30,38 L30,42 Z M26,26 L26,32 L24,32 L24,26 L26,26 Z M42,2 L42,6 L44,6 L44,10 L46,10 L46,14 L42,14 L42,10 L40,10 L40,6 L38,6 L38,10 L40,10 L40,12 L38,12 L38,14 L34,14 L34,16 L30,16 L30,18 L26,18 L26,20 L22,20 L22,22 L18,22 L18,24 L12,24 L12,26 L10,26 L10,28 L6,28 L6,26 L4,26 L4,28 L2,28 L2,26 L4,26 L4,22 L8,22 L8,20 L12,20 L12,18 L16,18 L16,16 L20,16 L20,14 L24,14 L24,12 L28,12 L28,10 L32,10 L32,8 L36,8 L36,6 L38,6 L38,2 L42,2 Z" class="middle" fill="#FFFFFF"></path>
                <path d="M20,38 L20,42 L18,42 L18,38 L20,38 Z M26,32 L26,42 L24,42 L24,32 L26,32 Z M32,38 L32,42 L30,42 L30,38 L32,38 Z M22,32 L22,38 L20,38 L20,32 L22,32 Z M30,32 L30,38 L28,38 L28,32 L30,32 Z M24,26 L24,32 L22,32 L22,26 L24,26 Z M26,26 L28,26 L28,32 L26,32 L26,26 Z M2,26 L2,28 L4,28 L4,30 L0,30 L0,26 L2,26 Z M10,28 L10,30 L6,30 L6,28 L10,28 Z M14,26 L14,28 L10,28 L10,26 L14,26 Z M6,26 L6,28 L4,28 L4,26 L6,26 Z M18,24 L18,26 L14,26 L14,24 L18,24 Z M4,22 L4,26 L2,26 L2,22 L4,22 Z M26,20 L26,26 L24,26 L24,22 L22,22 L22,24 L18,24 L18,22 L22,22 L22,20 L26,20 Z M8,20 L8,22 L4,22 L4,20 L8,20 Z M30,18 L30,20 L26,20 L26,18 L30,18 Z M12,18 L12,20 L8,20 L8,18 L12,18 Z M16,16 L16,18 L12,18 L12,16 L16,16 Z M34,16 L34,18 L30,18 L30,16 L34,16 Z M38,14 L38,16 L34,16 L34,14 L38,14 Z M46,14 L46,16 L42,16 L42,14 L46,14 Z M20,14 L20,16 L16,16 L16,14 L20,14 Z M42,10 L42,14 L38,14 L38,12 L40,12 L40,10 L42,10 Z M48,10 L48,14 L46,14 L46,10 L48,10 Z M24,12 L24,14 L20,14 L20,12 L24,12 Z M28,10 L28,12 L24,12 L24,10 L28,10 Z M46,6 L46,10 L44,10 L44,6 L46,6 Z M40,6 L40,10 L38,10 L38,6 L40,6 Z M32,8 L32,10 L28,10 L28,8 L32,8 Z M36,6 L36,8 L32,8 L32,6 L36,6 Z M44,2 L44,6 L42,6 L42,2 L44,2 Z M38,2 L38,6 L36,6 L36,2 L38,2 Z M42,0 L42,2 L38,2 L38,0 L42,0 Z" class="stroke" fill="#272729"></path>
            </g>
        </g>
    </g>
</svg>
