<?xml version="1.0" encoding="UTF-8"?>
<svg width="50px" height="46px" viewBox="0 0 50 46" version="1.1" xmlns="http://www.w3.org/2000/svg" xmlns:xlink="http://www.w3.org/1999/xlink">
    <g id="Site" stroke="none" stroke-width="1" fill="none" fill-rule="evenodd">
        <g id="Artboard" transform="translate(-837.000000, -63.000000)">
            <g id="commandoux-retro" transform="translate(837.000000, 63.000000)">
                <path d="M32,10 L32,14 L34,14 L34,18 L48,18 L48,20 L50,20 L50,22 L48,22 L48,24 L46,24 L46,26 L42,26 L42,28 L38,28 L38,34 L40,34 L40,40 L42,40 L42,44 L40,44 L40,46 L36,46 L36,44 L34,44 L34,42 L32,42 L32,40 L30,40 L30,38 L28,38 L28,36 L26,36 L26,38 L24,38 L24,40 L22,40 L22,42 L20,42 L20,44 L18,44 L18,46 L14,46 L14,44 L12,44 L12,40 L14,40 L14,34 L16,34 L16,28 L12,28 L12,26 L8,26 L8,24 L6,24 L6,22 L4,22 L4,20 L6,20 L6,18 L20,18 L20,14 L22,14 L22,10 L24,10 L24,6 L26,6 L26,4 L28,4 L28,6 L30,6 L30,10 L32,10 Z" class="back" fill="#FFFFFF"></path>
                <polygon class="middle" fill="#FFFFFF" points="2 16 16 16 16 14 18 14 18 10 20 10 20 6 22 6 22 2 24 2 24 6 26 6 26 10 28 10 28 14 30 14 30 16 44 16 44 18 42 18 42 20 38 20 38 22 34 22 34 24 32 24 32 30 34 30 34 36 36 36 36 40 32 40 32 38 30 38 30 36 28 36 28 34 26 34 26 32 24 32 24 30 22 30 22 32 20 32 20 34 18 34 18 36 16 36 16 38 14 38 14 40 10 40 10 36 12 36 12 30 14 30 14 24 12 24 12 22 8 22 8 20 4 20 4 18 2 18"></polygon>
                <path d="M14,40 L14,42 L10,42 L10,40 L14,40 Z M36,40 L36,42 L32,42 L32,40 L36,40 Z M10,36 L10,40 L8,40 L8,36 L10,36 Z M16,38 L16,40 L14,40 L14,38 L16,38 Z M32,38 L32,40 L30,40 L30,38 L32,38 Z M38,36 L38,40 L36,40 L36,36 L38,36 Z M18,36 L18,38 L16,38 L16,36 L18,36 Z M30,36 L30,38 L28,38 L28,36 L30,36 Z M12,30 L12,36 L10,36 L10,30 L12,30 Z M28,34 L28,36 L26,36 L26,34 L28,34 Z M20,34 L20,36 L18,36 L18,34 L20,34 Z M36,30 L36,36 L34,36 L34,30 L36,30 Z M22,32 L22,34 L20,34 L20,32 L22,32 Z M26,32 L26,34 L24,34 L24,32 L26,32 Z M24,30 L24,32 L22,32 L22,30 L24,30 Z M14,24 L14,30 L12,30 L12,24 L14,24 Z M34,24 L34,30 L32,30 L32,24 L34,24 Z M12,22 L12,24 L8,24 L8,22 L12,22 Z M38,22 L38,24 L34,24 L34,22 L38,22 Z M8,20 L8,22 L4,22 L4,20 L8,20 Z M42,20 L42,22 L38,22 L38,20 L42,20 Z M4,18 L4,20 L2,20 L2,18 L4,18 Z M44,18 L44,20 L42,20 L42,18 L44,18 Z M2,16 L2,18 L0,18 L0,16 L2,16 Z M46,16 L46,18 L44,18 L44,16 L46,16 Z M16,14 L16,16 L2,16 L2,14 L16,14 Z M44,14 L44,16 L30,16 L30,14 L44,14 Z M18,10 L18,14 L16,14 L16,10 L18,10 Z M30,10 L30,14 L28,14 L28,10 L30,10 Z M20,6 L20,10 L18,10 L18,6 L20,6 Z M28,6 L28,10 L26,10 L26,6 L28,6 Z M26,2 L26,6 L24,6 L24,2 L26,2 Z M20,2 L22,2 L22,6 L20,6 L20,2 Z M24,0 L24,2 L22,2 L22,0 L24,0 Z" class="stroke" fill="#272729"></path>
            </g>
        </g>
    </g>
</svg>
