<?xml version="1.0" encoding="UTF-8"?>
<svg width="64px" height="64px" viewBox="0 0 64 64" version="1.1" xmlns="http://www.w3.org/2000/svg" xmlns:xlink="http://www.w3.org/1999/xlink">
    <g id="Site" stroke="none" stroke-width="1" fill="none" fill-rule="evenodd">
        <g id="Artboard" transform="translate(-738.000000, -85.000000)">
            <g id="commandoux" transform="translate(738.000000, 85.000000)">
                <circle id="Oval" fill="#F7F7F9" cx="32" cy="32" r="32"></circle>
                <path d="M19.5,29.5 L20.5546875,29.5 C22.484375,33.9140625 26.875,37 32,37 C37.125,37 41.515625,33.9140625 43.4453125,29.5 L44.5,29.5 C45.1875,29.5 45.75,28.9375 45.75,28.25 L45.75,20.75 C45.75,20.0625 45.1875,19.5 44.5,19.5 L43.4453125,19.5 C41.515625,15.0859375 37.125,12 32,12 C26.875,12 22.484375,15.0859375 20.5546875,19.5 L19.5,19.5 C18.8125,19.5 18.25,20.0625 18.25,20.75 L18.25,28.25 C18.25,28.9375 18.8125,29.5 19.5,29.5 Z M22.625,22.625 C22.625,20.8984375 24.3046875,19.5 26.375,19.5 L37.625,19.5 C39.6953125,19.5 41.375,20.8984375 41.375,22.625 L41.375,24.5 C41.375,28.640625 38.015625,32 33.875,32 L30.125,32 C25.984375,32 22.625,28.640625 22.625,24.5 L22.625,22.625 Z M28.25,28.25 L29.1875,25.4375 L32,24.5 L29.1875,23.5625 L28.25,20.75 L27.3125,23.5625 L24.5,24.5 L27.3125,25.4375 L28.25,28.25 Z M40.09375,37.109375 C37.7578125,38.6171875 34.984375,39.5 32,39.5 C29.015625,39.5 26.2421875,38.6171875 23.90625,37.109375 C18.6328125,37.6640625 14.5,42.078125 14.5,47.5 L14.5,48.25 C14.5,50.3203125 16.1796875,52 18.25,52 L24.5,52 L24.5,47 C24.5,45.6171875 25.6171875,44.5 27,44.5 L37,44.5 C38.3828125,44.5 39.5,45.6171875 39.5,47 L39.5,52 L45.75,52 C47.8203125,52 49.5,50.3203125 49.5,48.25 L49.5,47.5 C49.5,42.078125 45.3671875,37.6640625 40.09375,37.109375 Z M35.75,47 C35.0625,47 34.5,47.5625 34.5,48.25 C34.5,48.9375 35.0625,49.5 35.75,49.5 C36.4375,49.5 37,48.9375 37,48.25 C37,47.5625 36.4375,47 35.75,47 Z M28.25,47 C27.5625,47 27,47.5625 27,48.25 L27,52 L29.5,52 L29.5,48.25 C29.5,47.5625 28.9375,47 28.25,47 Z" id="Shape" fill="#DE1656" fill-rule="nonzero"></path>
            </g>
        </g>
    </g>
</svg>
