<?xml version="1.0" encoding="UTF-8"?>
<svg width="64px" height="64px" viewBox="0 0 64 64" version="1.1" xmlns="http://www.w3.org/2000/svg" xmlns:xlink="http://www.w3.org/1999/xlink">
    <g id="Site" stroke="none" stroke-width="1" fill="none" fill-rule="evenodd">
        <g id="Artboard" transform="translate(-902.000000, -85.000000)">
            <g id="france-relance" transform="translate(902.000000, 85.000000)">
                <circle id="Oval" fill="#F7F7F9" cx="32" cy="32" r="32"></circle>
                <g id="FranceRelance" transform="translate(8.000000, 8.000000)" fill-rule="nonzero">
                    <path d="M48.6032176,24.3472 C48.5856,37.704 37.648,48.6096 24.2832,48.5904253 C10.9184,48.5712 0.016,37.6288 0.0431492151,24.2704 C0.0704,10.912 10.992,0.0112 24.3632,0.0271824091 C37.7344,0.0432 48.6192,10.984 48.6032176,24.3472 Z M24.3376,1.4048 C11.688,1.4048 1.4304,11.6336 1.41759082,24.2608 C1.4064,36.9488 11.6496,47.2208 24.3152,47.2224028 C36.9673809,47.2285856 47.2290144,36.9769809 47.2352028,24.3248 C47.2413856,11.6726191 36.9897809,1.41098559 24.3376,1.4048 Z" id="Shape" fill="#36AE6B"></path>
                    <path d="M13.4544,30.216 L12.4576,30.72 C11.1232,28.4096 9.7872,26.0976 8.4112,23.7184 L12.3328,21.4208 C12.5984,21.2272 13.0304,21.2608 13.1232,20.8304 L19.256,17.5072 C19.5056,17.1568 19.1568,16.7872 19.736,16.6912 L24.3312,24.632 L28.928,16.6864 C29.5296,16.8592 29.088,17.2432 29.4704,17.4976 C30.0416,17.8288 30.7392,18.272 31.472,18.6496 C32.832,19.3488 34.0048,20.4 35.5152,20.8176 L35.5152,20.8096 L35.4528,20.936 L35.544,21.0432 L36.3136,21.4304 L40.256,23.7456 L36.224,30.7328 L35.104,30.2624 L34.744,30.0464 L25.104,24.3376 L24.6384,25.1536 C25.7008,27.0096 26.7344,28.8112 27.7664,30.6128 L27.36,30.864 C26.3728,29.1648 25.384,27.4672 24.336,25.6656 L21.3376,30.824 L20.928,30.5488 L24.04,25.1424 L23.536,24.3056 L13.9024,30.0224 L13.4544,30.216 Z M32.6288,28.1456 L36.0096,30.16 C37.2368,28.0304 38.4096,25.9904 39.632,23.8752 L36.1904,21.9824 L32.4096,19.7136 L28.7872,25.9856 L32.6288,28.1456 Z" id="Shape" fill="#293975"></path>
                    <path d="M30.6896,37.3664 L31.84,36.96 C32.5264,38.8272 33.192,40.64 33.8912,42.5424 L32.4672,43.128 L28.4544,40.0304 L29.9152,44.0144 L28.7808,44.456 C28.0864,42.5664 27.4128,40.736 26.712,38.832 L28.1824,38.2912 L32.16,41.4016 C31.624,39.9424 31.176,38.7088 30.6896,37.3664 Z" id="Path" fill="#36AE6B"></path>
                    <path d="M31.112,5.0528 C30.7024,7.032 30.304,8.9456 29.896,10.912 L28.3744,10.6144 C27.8256,9.1248 27.2768,7.6352 26.6336,5.8864 C26.3008,7.4272 26.0224,8.7168 25.736,10.0464 L24.5552,9.8128 C24.9584,7.856 25.3552,5.9456 25.7616,3.9616 L27.2848,4.2416 L29.0336,8.9824 C29.3536,7.4496 29.6352,6.168 29.9248,4.8096 L31.112,5.0528 Z" id="Path" fill="#36AE6B"></path>
                    <path d="M36.3056,21.4256 L35.536,21.0384 C35.64,20.9472 35.7744,20.8512 35.5072,20.8048 L35.5072,20.8128 C35.4749282,20.5315938 35.4181796,20.2537399 35.3376,19.9824 C32.48,12.592 23.1504,10.08 16.976,15.04 C15.1008,16.5504 13.6352,18.3776 13.1232,20.8192 C13.0304,21.2432 12.5984,21.216 12.3328,21.4096 C13.6496,15.7536 18.7328,11.8672 24.6896,11.9696 C30.1888,12.064 35.2736,16.2016 36.3056,21.4256 Z" id="Path" fill="#36AE6B"></path>
                    <path d="M17.4,11.5296 L16.4,12.3872 C15.28,12.3648 14.3072,11.4864 12.9616,11.8672 C13.5904,12.6256 14.0816,13.2144 14.6112,13.8624 L13.6768,14.6496 C12.3968,13.12 11.1504,11.6192 9.8368,10.0352 C10.9568,9.2896 11.6992,7.8368 13.3232,8.3712 C14.3232,8.6992 14.6032,9.5824 14.3616,10.6832 L17.4,11.5296 Z M12.4128,11.2096 C12.8208,10.8512 13.3488,10.6416 13.2256,10.0592 C13.1429241,9.78600872 12.9429709,9.56377339 12.68,9.4528 C12.1424,9.2832 11.816,9.68 11.4736,10.0832 L12.4128,11.2096 Z" id="Shape" fill="#36AE6B"></path>
                    <path d="M5.6368,32.5952 L5.0816,31.5232 L10.4768,28.8368 C10.9264,30.1504 12.2256,31.2368 11.2048,32.6992 C10.6448,33.4992 9.7648,33.64 8.8048,33.0592 C8.2976,33.9856 7.808,34.8816 7.264,35.8736 L6.6736,34.7056 C6.8944,33.5856 8.0976,32.8912 7.912,31.5056 L5.6368,32.5952 Z M8.7328,31.0832 C8.9808,31.6128 9.096,32.1552 9.6928,32.136 C9.97597332,32.1054186 10.2309474,31.9506757 10.3888,31.7136 C10.656,31.2176 10.3328,30.824 10,30.4336 L8.7328,31.0832 Z" id="Shape" fill="#36AE6B"></path>
                    <path d="M18.4576,4.9248 L20.0176,4.536 C21.2464,6.2672 22.4528,7.9712 23.6976,9.7376 L22.4832,10.08 L21.4976,8.728 L19.232,9.3088 C19.1552,9.872 19.0832,10.3936 19.0032,10.9696 L17.7792,11.2752 C18.0112,9.12 18.2304,7.0608 18.4576,4.9248 Z M19.304,8.2128 L20.872,7.7904 L19.5296,5.8848 C19.448,6.7344 19.384,7.3904 19.304,8.2128 Z" id="Shape" fill="#36AE6B"></path>
                    <path d="M22.3472,38.6672 L23.9472,38.7632 L25.7184,44.96 L24.4384,44.824 C24.2784,44.3072 24.1184,43.8064 23.9584,43.2576 L21.632,43.04 L20.8896,44.512 L19.5984,44.4464 C20.5344,42.4784 21.4272,40.5984 22.3472,38.6672 Z M23.68,42.1408 C23.4656,41.3712 23.2848,40.7264 23.0496,39.8832 C22.6752,40.7056 22.3888,41.3376 22.0704,42.0384 L23.68,42.1408 Z" id="Shape" fill="#36AE6B"></path>
                    <path d="M37.3056,33.2368 C37.264,33.6384 37.2304,33.9712 37.192,34.3488 C35.816,34.456 34.792,35.032 34.952,36.5408 C35.064,37.6608 35.8464,38.3968 37.0112,38.376 C38.3472,38.3536 38.8832,37.448 38.9312,36.1616 L40.0816,35.984 C40.1888,37.5072 39.5856,38.5552 38.3664,39.216 C37.0416,39.936 35.768,39.712 34.7024,38.6816 C33.6368,37.6512 33.3888,36.368 34.0624,35.032 C34.6912,33.76 35.7616,33.1344 37.3056,33.2368 Z" id="Path" fill="#36AE6B"></path>
                    <path d="M38.4992,10.9968 L37.3488,10.9968 C37.1136,9.7328 36.4592,8.8032 35.0112,9.0608 C33.8912,9.2608 33.2256,10.1088 33.3344,11.2496 C33.4624,12.616 34.4352,13.0848 35.7712,12.9776 C35.8656,13.3168 35.9552,13.64 36.072,14.0576 C34.7584,14.4416 33.7328,13.9968 32.9136,13.0848 C31.888,11.944 31.7936,10.6256 32.5936,9.3344 C33.3936,8.0432 34.6736,7.4976 36.1696,7.9648 C37.6,8.4064 38.3808,9.4272 38.4992,10.9968 Z" id="Path" fill="#36AE6B"></path>
                    <path d="M34.7392,30.0416 L35.0992,30.2576 C32.9776,34.0976 29.6832,36.2496 25.3616,36.5968 C20.4608,36.9904 16.6224,34.9744 13.8768,30.8912 C13.7296,30.672 13.5952,30.4416 13.4544,30.216 L13.896,30.0224 C14.6784,31.1984 15.496,32.3376 16.5824,33.272 C22.0368,37.984 30.736,36.9296 34.7392,30.0416 Z" id="Path" fill="#36AE6B"></path>
                    <path d="M42.8048,30.5968 L43.7264,31.0112 L42.2864,34.192 L36.8256,31.7344 C37.3056,30.672 37.7648,29.6464 38.2512,28.5616 L39.1728,28.9536 L38.2848,31.0112 L39.5104,31.6048 L40.3552,29.8752 L41.2432,30.2816 C40.9872,30.8768 40.7632,31.4016 40.4912,32.024 L41.8528,32.664 L42.8048,30.5968 Z" id="Path" fill="#36AE6B"></path>
                    <path d="M13.3648,35.248 L12.2016,36.232 L13.8016,37.4192 L13.0176,38.2592 L11.696,36.9968 L10.6368,38.1168 L12.3168,39.4944 L11.4624,40.416 L9.0624,37.744 C10.4336,36.5248 11.8944,35.2208 13.4192,33.864 L15.488,36.1664 L14.9696,36.7344 L13.3648,35.248 Z" id="Path" fill="#36AE6B"></path>
                    <path d="M41.1616,12.9488 C41.7216,13.9584 42.2576,14.928 42.84,15.9808 L41.9808,16.5056 L40.8608,14.5216 L39.6512,15.1936 L40.5504,16.8816 L39.704,17.3616 L38.72,15.7168 L37.4112,16.4272 C37.7696,17.0944 38.1056,17.7184 38.4704,18.3936 L37.616,18.9296 L35.9136,15.8544 L41.1616,12.9488 Z" id="Path" fill="#36AE6B"></path>
                    <path d="M6.0416,15.52 L7.7856,12.48 L8.6576,12.9872 L7.5552,14.952 L8.7504,15.6416 L9.7264,14.0096 L10.5872,14.4736 C10.2848,15.0352 10,15.5616 9.6752,16.1664 L11.8496,17.4352 L11.2528,18.4944 L6.0416,15.52 Z" id="Path" fill="#36AE6B"></path>
                    <path d="M17.2096,43.5792 L14.0656,42.056 C14.9424,40.256 15.8048,38.4848 16.688,36.6752 L17.784,37.2 C17.0688,38.68 16.3808,40.1056 15.6672,41.5808 L17.68,42.5904 L17.2096,43.5792 Z" id="Path" fill="#36AE6B"></path>
                    <path d="M32.6288,28.1456 L36.1904,21.9824 L39.632,23.8752 C38.4144,25.9904 37.232,28.0352 36.0096,30.16 L32.6288,28.1456 Z" id="Path" fill="#E00B19"></path>
                </g>
            </g>
        </g>
    </g>
</svg>
