<?xml version="1.0" encoding="UTF-8"?>
<svg width="64px" height="64px" viewBox="0 0 64 64" version="1.1" xmlns="http://www.w3.org/2000/svg" xmlns:xlink="http://www.w3.org/1999/xlink">
    <g id="Site" stroke="none" stroke-width="1" fill="none" fill-rule="evenodd">
        <g id="Artboard" transform="translate(-818.000000, -85.000000)">
            <g id="observatoire" transform="translate(818.000000, 85.000000)">
                <circle id="Oval" fill="#F7F7F9" cx="32" cy="32" r="32"></circle>
                <path d="M51,31.3428489 L48.9247799,37.277277 L45.9564272,36.1535983 L46.2541381,35.2757243 L41.8760367,33.6077638 L41.1492719,35.6356527 C41.0602344,35.8896608 40.8744869,36.097981 40.6326559,36.2150495 C40.3920302,36.3315955 40.111492,36.3315955 39.8708663,36.2150495 L33.8641112,33.9413559 L39.2754445,52.3152583 C39.3286977,52.4721599 39.3038409,52.6451365 39.2085767,52.7805862 C39.1133125,52.9160358 38.9591472,52.9975986 38.7938534,53 L37.2965427,53 C37.0720034,52.9903961 36.8784246,52.8386632 36.8149515,52.6225142 L31.7363539,35.4776353 L31.7363539,52.4469394 C31.7367044,52.7278591 31.5170987,52.959618 31.2372504,52.9736638 L29.7224273,52.9736638 C29.442579,52.959618 29.2229733,52.7278591 29.2233238,52.4469394 L29.2233238,35.4776353 L24.1709948,52.596178 C24.1099109,52.8139438 23.9149315,52.9667747 23.6894036,52.9736638 L22.1920929,52.9736638 C22.0267991,52.9712624 21.8726338,52.8896996 21.7773696,52.75425 C21.6821054,52.6188003 21.6572486,52.4458237 21.7105018,52.2889221 L27.8398437,31.641326 L15.7212591,27.0588239 L15.5811599,27.4626459 C15.3723677,27.8633196 15.0132519,28.1643299 14.5829359,28.2993556 C14.1526198,28.4343814 13.6864132,28.3923429 13.2870347,28.1825026 L10.3449506,27.0588239 C9.4177278,26.8369054 8.83786573,25.9122005 9.0402764,24.9782625 L12.9017618,13.9170504 C13.1070624,13.5152487 13.4645547,13.2128114 13.8941462,13.0774966 C14.3237377,12.9421817 14.7895169,12.9853009 15.1871307,13.1971937 L18.1467273,14.3033149 C19.0689011,14.5411467 19.6502924,15.4538261 19.4776701,16.392655 L19.3375708,16.7876983 L43.4609094,25.9790389 C43.9849843,26.1909436 44.2480383,26.7804601 44.0563312,27.3134073 L43.3645912,29.279845 L47.7952298,30.9478056 L48.0404035,30.2630639 L51,31.3428489 Z" id="Observatoire" fill="#DE1656" fill-rule="nonzero" transform="translate(30.000000, 33.000000) scale(-1, 1) translate(-30.000000, -33.000000) "></path>
            </g>
        </g>
    </g>
</svg>
