<?xml version="1.0" encoding="UTF-8"?>
<svg width="24px" height="18px" viewBox="0 0 24 18" version="1.1" xmlns="http://www.w3.org/2000/svg" xmlns:xlink="http://www.w3.org/1999/xlink">
    <g id="Site" stroke="none" stroke-width="1" fill="none" fill-rule="evenodd">
        <g id="Artboard" transform="translate(-845.000000, -354.000000)" fill="#272729">
            <g id="arrow" transform="translate(845.000000, 354.000000)">
                <path d="M14,10 L14,16 L16,16 L16,18 L12,18 L12,12 L0,12 L0,6 L12,6 L12,0 L16,0 L16,2 L14,2 L14,8 L2,8 L2,10 L14,10 Z M18,14 L18,16 L16,16 L16,14 L18,14 Z M20,12 L20,14 L18,14 L18,12 L20,12 Z M22,10 L22,12 L20,12 L20,10 L22,10 Z M24,8 L24,10 L22,10 L22,8 L24,8 Z M22,6 L22,8 L20,8 L20,6 L22,6 Z M20,4 L20,6 L18,6 L18,4 L20,4 Z M18,2 L18,4 L16,4 L16,2 L18,2 Z" class="stroke"></path>
            </g>
        </g>
    </g>
</svg>
