<?xml version="1.0" encoding="UTF-8"?>
<svg width="18px" height="18px" viewBox="0 0 18 18" version="1.1" xmlns="http://www.w3.org/2000/svg" xmlns:xlink="http://www.w3.org/1999/xlink">
    <title>bureau</title>
    <g id="Site" stroke="none" stroke-width="1" fill="none" fill-rule="evenodd">
        <g id="Artboard" transform="translate(-1254.000000, -304.000000)">
            <g id="bureau" transform="translate(1254.000000, 304.000000)">
                <path d="M8,14 L8,4 L6,4 L6,14 L8,14 Z M4,16 L4,14 L2,14 L2,4 L4,4 L4,2 L14,2 L14,4 L16,4 L16,14 L14,14 L14,16 L4,16 Z" id="Combined-Shape" fill="#FFFFFF"></path>
                <path d="M14,16 L14,18 L4,18 L4,16 L14,16 Z M16,14 L16,16 L14,16 L14,14 L16,14 Z M4,14 L4,16 L2,16 L2,14 L4,14 Z M18,4 L18,14 L16,14 L16,4 L18,4 Z M8,4 L8,14 L6,14 L6,4 L8,4 Z M2,4 L2,14 L0,14 L0,4 L2,4 Z M16,2 L16,4 L14,4 L14,2 L16,2 Z M4,2 L4,4 L2,4 L2,2 L4,2 Z M4,2 L4,0 L14,0 L14,2 L4,2 Z" id="Combined-Shape" fill="#272729"></path>
            </g>
        </g>
    </g>
</svg>