<?xml version="1.0" encoding="UTF-8"?>
<svg width="18px" height="18px" viewBox="0 0 18 18" version="1.1" xmlns="http://www.w3.org/2000/svg" xmlns:xlink="http://www.w3.org/1999/xlink">
    <g id="Site" stroke="none" stroke-width="1" fill="none" fill-rule="evenodd">
        <g id="Artboard" transform="translate(-1582.000000, -151.000000)">
            <g id="calendar" transform="translate(1582.000000, 151.000000)">
                <rect class="back" fill="#FFFFFF" x="2" y="4" width="14" height="12"></rect>
                <path d="M6,0 L6,2 L12,2 L12,0 L14,0 L14,2 L18,2 L18,18 L0,18 L0,2 L4,2 L4,0 L6,0 Z M6,6 L4,6 L4,4 L2,4 L2,16 L16,16 L16,4 L14,4 L14,6 L12,6 L12,4 L6,4 L6,6 Z M14,12 L14,14 L10,14 L10,12 L14,12 Z M8,12 L8,14 L4,14 L4,12 L8,12 Z M14,8 L14,10 L10,10 L10,8 L14,8 Z M8,8 L8,10 L4,10 L4,8 L8,8 Z" class="stroke" fill="#272729"></path>
            </g>
        </g>
    </g>
</svg>
