<?xml version="1.0" encoding="UTF-8"?>
<svg width="14px" height="14px" viewBox="0 0 14 14" version="1.1" xmlns="http://www.w3.org/2000/svg" xmlns:xlink="http://www.w3.org/1999/xlink">
    <g id="Site" stroke="none" stroke-width="1" fill="none" fill-rule="evenodd">
        <g id="Artboard" transform="translate(-1552.000000, -151.000000)">
            <g id="calendar2" transform="translate(1552.000000, 151.000000)">
                <rect class="back" fill="#FFFFFF" x="2" y="4" width="10" height="8"></rect>
                <path d="M6,0 L6,2 L8,2 L8,0 L10,0 L10,2 L14,2 L14,14 L0,14 L0,2 L4,2 L4,0 L6,0 Z M6,6 L4,6 L4,4 L2,4 L2,12 L12,12 L12,4 L10,4 L10,6 L8,6 L8,4 L6,4 L6,6 Z M10,8 L10,10 L8,10 L8,8 L10,8 Z M6,8 L6,10 L4,10 L4,8 L6,8 Z" class="stroke" fill="#272729"></path>
            </g>
        </g>
    </g>
</svg>
