<?xml version="1.0" encoding="UTF-8"?>
<svg width="18px" height="18px" viewBox="0 0 18 18" version="1.1" xmlns="http://www.w3.org/2000/svg" xmlns:xlink="http://www.w3.org/1999/xlink">
    <g id="Site" stroke="none" stroke-width="1" fill="none" fill-rule="evenodd">
        <g id="Artboard" transform="translate(-1613.000000, -150.000000)">
            <g id="close" transform="translate(1613.000000, 150.000000)">
                <rect class="back" fill="#FFFFFF" x="0" y="0" width="18" height="18"></rect>
                <path d="M14,12 L14,14 L12,14 L12,12 L14,12 Z M6,12 L6,14 L4,14 L4,12 L6,12 Z M12,10 L12,12 L10,12 L10,10 L12,10 Z M8,10 L8,12 L6,12 L6,10 L8,10 Z M10,8 L10,10 L8,10 L8,8 L10,8 Z M8,6 L8,8 L6,8 L6,6 L8,6 Z M12,6 L12,8 L10,8 L10,6 L12,6 Z M6,4 L6,6 L4,6 L4,4 L6,4 Z M14,4 L14,6 L12,6 L12,4 L14,4 Z" class="stroke" fill="#272729"></path>
            </g>
        </g>
    </g>
</svg>
