<?xml version="1.0" encoding="UTF-8"?>
<svg width="38px" height="46px" viewBox="0 0 38 46" version="1.1" xmlns="http://www.w3.org/2000/svg" xmlns:xlink="http://www.w3.org/1999/xlink">
    <g id="Site" stroke="none" stroke-width="1" fill="none" fill-rule="evenodd">
        <g id="Artboard" transform="translate(-1061.000000, -299.000000)">
            <g id="file" transform="translate(1061.000000, 299.000000)">
                <path d="M36,10 L36,12 L38,12 L38,46 L4,46 L4,4 L30,4 L30,6 L32,6 L32,8 L34,8 L34,10 L36,10 Z" class="back" fill="#FFFFFF"></path>
                <polygon class="middle" fill="#FFFFFF" points="2 2 24 2 24 4 28 4 28 6 30 6 30 10 32 10 32 40 2 40"></polygon>
                <path d="M24,2 L2,2 L2,40 L32,40 L32,10 L24,10 L24,2 Z M18,30 L18,32 L8,32 L8,30 L18,30 Z M24,24 L24,26 L8,26 L8,24 L24,24 Z M24,18 L24,20 L8,20 L8,18 L24,18 Z M30,4 L30,6 L28,6 L28,4 L30,4 Z M26,8 L30,8 L30,6 L32,6 L32,8 L34,8 L34,42 L0,42 L0,0 L26,0 L26,2 L28,2 L28,4 L26,4 L26,8 Z" class="stroke" fill="#272729"></path>
            </g>
        </g>
    </g>
</svg>
