<?xml version="1.0" encoding="UTF-8"?>
<svg width="56px" height="46px" viewBox="0 0 56 46" version="1.1" xmlns="http://www.w3.org/2000/svg" xmlns:xlink="http://www.w3.org/1999/xlink">
    <g id="Site" stroke="none" stroke-width="1" fill="none" fill-rule="evenodd">
        <g id="Artboard" transform="translate(-1247.000000, -306.000000)">
            <g id="folderC" transform="translate(1247.000000, 306.000000)">
                <path d="M30,8 L30,10 L32,10 L32,12 L54,12 L54,14 L56,14 L56,46 L4,46 L4,14 L6,14 L6,12 L8,12 L8,10 L10,10 L10,8 L12,8 L12,6 L14,6 L14,4 L26,4 L26,6 L28,6 L28,8 L30,8 Z" class="back" fill="#FFFFFF"></path>
                <path d="M50,10 L50,42 L2,42 L2,10 L50,10 Z M22,2 L22,4 L24,4 L24,6 L26,6 L26,8 L6,8 L6,6 L8,6 L8,4 L10,4 L10,2 L22,2 Z" class="middle" fill="#FFFFFF"></path>
                <path d="M2,10 L2,40 L50,40 L50,10 L52,10 L52,42 L0,42 L0,10 L2,10 Z M31,30 L31,32 L21,32 L21,30 L31,30 Z M21,20 L21,30 L19,30 L19,20 L21,20 Z M33,20 L33,30 L31,30 L31,20 L33,20 Z M39,26 L39,28 L37,28 L37,26 L39,26 Z M43,26 L43,28 L41,28 L41,26 L43,26 Z M41,24 L41,26 L39,26 L39,24 L41,24 Z M39,22 L39,24 L37,24 L37,22 L39,22 Z M43,22 L43,24 L41,24 L41,22 L43,22 Z M31,18 L31,20 L21,20 L21,18 L31,18 Z M26,6 L28,6 L28,8 L50,8 L50,10 L2,10 L2,8 L4,8 L4,6 L6,6 L6,8 L26,8 L26,6 Z M8,4 L8,6 L6,6 L6,4 L8,4 Z M26,4 L26,6 L24,6 L24,4 L26,4 Z M10,2 L10,4 L8,4 L8,2 L10,2 Z M24,2 L24,4 L22,4 L22,2 L24,2 Z M22,0 L22,2 L10,2 L10,0 L22,0 Z" class="stroke" fill="#272729"></path>
            </g>
        </g>
    </g>
</svg>
