<?xml version="1.0" encoding="UTF-8"?>
<svg width="56px" height="46px" viewBox="0 0 56 46" version="1.1" xmlns="http://www.w3.org/2000/svg" xmlns:xlink="http://www.w3.org/1999/xlink">
    <g id="Site" stroke="none" stroke-width="1" fill="none" fill-rule="evenodd">
        <g id="Artboard" transform="translate(-999.000000, -305.000000)">
            <g id="folder" transform="translate(999.000000, 305.000000)">
                <g id="folder-copy-2" transform="translate(4.000000, 4.000000)" fill="#FFFFFF">
                    <path d="M50,10 L50,40 L2,40 L2,10 L50,10 Z M22,2 L22,4 L24,4 L24,6 L26,6 L26,8 L6,8 L6,6 L8,6 L8,4 L10,4 L10,2 L22,2 Z" id="Combined-Shape"></path>
                    <path d="M2,10 L2,40 L50,40 L50,10 L52,10 L52,42 L0,42 L0,10 L2,10 Z M26,6 L28,6 L28,8 L50,8 L50,10 L2,10 L2,8 L4,8 L4,6 L6,6 L6,8 L26,8 L26,6 Z M8,4 L8,6 L6,6 L6,4 L8,4 Z M26,4 L26,6 L24,6 L24,4 L26,4 Z M10,2 L10,4 L8,4 L8,2 L10,2 Z M24,2 L24,4 L22,4 L22,2 L24,2 Z M22,0 L22,2 L10,2 L10,0 L22,0 Z" id="Combined-Shape"></path>
                </g>
                <g id="Combined-Shape">
                    <path d="M50,10 L50,40 L2,40 L2,10 L50,10 Z M22,2 L22,4 L24,4 L24,6 L26,6 L26,8 L6,8 L6,6 L8,6 L8,4 L10,4 L10,2 L22,2 Z" fill="#FFFFFF"></path>
                    <path d="M2,10 L2,40 L50,40 L50,10 L52,10 L52,42 L0,42 L0,10 L2,10 Z M26,6 L28,6 L28,8 L50,8 L50,10 L2,10 L2,8 L4,8 L4,6 L6,6 L6,8 L26,8 L26,6 Z M8,4 L8,6 L6,6 L6,4 L8,4 Z M26,4 L26,6 L24,6 L24,4 L26,4 Z M10,2 L10,4 L8,4 L8,2 L10,2 Z M24,2 L24,4 L22,4 L22,2 L24,2 Z M22,0 L22,2 L10,2 L10,0 L22,0 Z" fill="#272729"></path>
                </g>
            </g>
        </g>
    </g>
</svg>
