<?xml version="1.0" encoding="UTF-8"?>
<svg width="64px" height="46px" viewBox="0 0 64 46" version="1.1" xmlns="http://www.w3.org/2000/svg" xmlns:xlink="http://www.w3.org/1999/xlink">
    <g id="Site" stroke="none" stroke-width="1" fill="none" fill-rule="evenodd">
        <g id="Artboard" transform="translate(-1480.000000, -272.000000)">
            <g id="photo" transform="translate(1480.000000, 272.000000)">
                <rect class="back" fill="#FFFFFF" x="0" y="0" width="64" height="46"></rect>
                <path d="M25,35 L25,37 L15,37 L15,35 L25,35 Z M49,35 L49,37 L39,37 L39,35 L49,35 Z M27,33 L27,35 L25,35 L25,33 L27,33 Z M15,33 L15,35 L13,35 L13,33 L15,33 Z M51,33 L51,35 L49,35 L49,33 L51,33 Z M39,33 L39,35 L37,35 L37,33 L39,33 Z M13,23 L13,33 L11,33 L11,23 L13,23 Z M53,23 L53,33 L51,33 L51,23 L53,23 Z M39,21 L39,23 L37,23 L37,33 L35,33 L35,29 L33,29 L33,27 L35,27 L35,21 L39,21 Z M29,21 L29,27 L31,27 L31,29 L29,29 L29,33 L27,33 L27,23 L25,23 L25,21 L29,21 Z M41,25 L41,29 L39,29 L39,25 L41,25 Z M17,25 L17,29 L15,29 L15,25 L17,25 Z M33,25 L33,27 L31,27 L31,25 L33,25 Z M45,23 L45,25 L41,25 L41,23 L45,23 Z M17,25 L17,23 L21,23 L21,25 L17,25 Z M51,21 L51,23 L49,23 L49,21 L51,21 Z M15,21 L15,23 L13,23 L13,21 L15,21 Z M19,17 L19,19 L25,19 L25,21 L15,21 L15,19 L17,19 L17,17 L19,17 Z M47,17 L47,19 L49,19 L49,21 L39,21 L39,19 L45,19 L45,17 L47,17 Z M31,19 L31,21 L29,21 L29,19 L31,19 Z M35,19 L35,21 L33,21 L33,19 L35,19 Z M33,15 L33,19 L31,19 L31,15 L33,15 Z M45,15 L45,17 L43,17 L43,15 L45,15 Z M21,15 L21,17 L19,17 L19,15 L21,15 Z M35,13 L35,15 L33,15 L33,13 L35,13 Z M43,13 L43,15 L41,15 L41,13 L43,13 Z M31,13 L31,15 L29,15 L29,13 L31,13 Z M23,13 L23,15 L21,15 L21,13 L23,13 Z M41,11 L41,13 L35,13 L35,11 L41,11 Z M29,11 L29,13 L23,13 L23,11 L29,11 Z" class="stroke" fill="#272729"></path>
            </g>
        </g>
    </g>
</svg>
