<?xml version="1.0" encoding="UTF-8"?>
<svg width="38px" height="46px" viewBox="0 0 38 46" version="1.1" xmlns="http://www.w3.org/2000/svg" xmlns:xlink="http://www.w3.org/1999/xlink">
    <g id="Site" stroke="none" stroke-width="1" fill="none" fill-rule="evenodd">
        <g id="Artboard" transform="translate(-1389.000000, -206.000000)">
            <g id="readme" transform="translate(1389.000000, 206.000000)">
                <path d="M36,10 L36,12 L38,12 L38,46 L4,46 L4,4 L30,4 L30,6 L32,6 L32,8 L34,8 L34,10 L36,10 Z" class="back" fill="#FFFFFF"></path>
                <polygon class="middle" fill="#FFFFFF" points="2 2 24 2 24 4 28 4 28 6 30 6 30 10 32 10 32 40 2 40"></polygon>
                <path d="M26,0 L26,2 L28,2 L28,4 L26,4 L26,8 L30,8 L30,6 L32,6 L32,8 L34,8 L34,42 L0,42 L0,0 L26,0 Z M24,2 L2,2 L2,40 L32,40 L32,10 L24,10 L24,2 Z M18,32 L18,34 L8,34 L8,32 L18,32 Z M24,27 L24,29 L8,29 L8,27 L24,27 Z M24,22 L24,24 L8,24 L8,22 L24,22 Z M8,12 L10,12 L10,18 L8,18 L8,12 Z M10,8 L10,10 L8,10 L8,8 L10,8 Z M30,4 L30,6 L28,6 L28,4 L30,4 Z" class="stroke" fill="#272729"></path>
            </g>
        </g>
    </g>
</svg>
