<?xml version="1.0" encoding="UTF-8"?>
<svg width="48px" height="45px" viewBox="0 0 48 45" version="1.1" xmlns="http://www.w3.org/2000/svg" xmlns:xlink="http://www.w3.org/1999/xlink">
    <g id="Site" stroke="none" stroke-width="1" fill="none" fill-rule="evenodd">
        <g id="Artboard" transform="translate(-1105.000000, -306.000000)">
            <g id="slack" transform="translate(1105.000000, 306.000000)">
                <g id="Group-2-Copy-2" transform="translate(4.000000, 3.000000)" fill="#FFFFFF">
                    <polygon id="Rectangle" points="4 4 6 4 6 2 38 2 38 4 40 4 40 6 42 6 42 28 40 28 40 30 38 30 38 32 18 32 18 34 16 34 16 36 14 36 14 38 12 38 12 32 6 32 6 30 4 30 4 28 2 28 2 6 4 6"></polygon>
                    <path d="M12,32 L12,38 L14,38 L14,40 L12,40 L12,42 L10,42 L10,34 L6,34 L6,32 L12,32 Z M16,36 L16,38 L14,38 L14,36 L16,36 Z M18,34 L18,36 L16,36 L16,34 L18,34 Z M38,32 L38,34 L18,34 L18,32 L38,32 Z M40,30 L40,32 L38,32 L38,30 L40,30 Z M6,30 L6,32 L4,32 L4,30 L6,30 Z M42,28 L42,30 L40,30 L40,28 L42,28 Z M4,28 L4,30 L2,30 L2,28 L4,28 Z M44,6 L44,28 L42,28 L42,6 L44,6 Z M2,6 L2,28 L0,28 L0,6 L2,6 Z M23,23 L23,25 L21,25 L21,23 L23,23 Z M23,17 L23,21 L21,21 L21,17 L23,17 Z M25,15 L25,17 L23,17 L23,15 L25,15 Z M27,11 L27,15 L25,15 L25,11 L27,11 Z M19,11 L19,15 L17,15 L17,11 L19,11 Z M25,9 L25,11 L19,11 L19,9 L25,9 Z M42,4 L42,6 L40,6 L40,4 L42,4 Z M4,4 L4,6 L2,6 L2,4 L4,4 Z M40,2 L40,4 L38,4 L38,2 L40,2 Z M6,2 L6,4 L4,4 L4,2 L6,2 Z M38,0 L38,2 L6,2 L6,0 L38,0 Z" id="Combined-Shape"></path>
                </g>
                <g id="Group-2">
                    <polygon id="Rectangle" fill="#FFFFFF" points="4 4 6 4 6 2 38 2 38 4 40 4 40 6 42 6 42 28 40 28 40 30 38 30 38 32 18 32 18 34 16 34 16 36 14 36 14 38 12 38 12 32 6 32 6 30 4 30 4 28 2 28 2 6 4 6"></polygon>
                    <path d="M12,32 L12,38 L14,38 L14,40 L12,40 L12,42 L10,42 L10,34 L6,34 L6,32 L12,32 Z M16,36 L16,38 L14,38 L14,36 L16,36 Z M18,34 L18,36 L16,36 L16,34 L18,34 Z M38,32 L38,34 L18,34 L18,32 L38,32 Z M40,30 L40,32 L38,32 L38,30 L40,30 Z M6,30 L6,32 L4,32 L4,30 L6,30 Z M42,28 L42,30 L40,30 L40,28 L42,28 Z M4,28 L4,30 L2,30 L2,28 L4,28 Z M44,6 L44,28 L42,28 L42,6 L44,6 Z M2,6 L2,28 L0,28 L0,6 L2,6 Z M23,23 L23,25 L21,25 L21,23 L23,23 Z M23,17 L23,21 L21,21 L21,17 L23,17 Z M25,15 L25,17 L23,17 L23,15 L25,15 Z M27,11 L27,15 L25,15 L25,11 L27,11 Z M19,11 L19,15 L17,15 L17,11 L19,11 Z M25,9 L25,11 L19,11 L19,9 L25,9 Z M42,4 L42,6 L40,6 L40,4 L42,4 Z M4,4 L4,6 L2,6 L2,4 L4,4 Z M40,2 L40,4 L38,4 L38,2 L40,2 Z M6,2 L6,4 L4,4 L4,2 L6,2 Z M38,0 L38,2 L6,2 L6,0 L38,0 Z" id="Combined-Shape" fill="#272729"></path>
                </g>
            </g>
        </g>
    </g>
</svg>
