<?xml version="1.0" encoding="UTF-8"?>
<svg width="48px" height="46px" viewBox="0 0 48 46" version="1.1" xmlns="http://www.w3.org/2000/svg" xmlns:xlink="http://www.w3.org/1999/xlink">
    <g id="Site" stroke="none" stroke-width="1" fill="none" fill-rule="evenodd">
        <g id="Artboard" transform="translate(-1106.000000, -237.000000)">
            <g id="slack" transform="translate(1107.000000, 238.000000)">
                <path d="M20,4 L30,4 C38.836556,4 46,11.163444 46,20 C46,28.836556 38.836556,36 30,36 L29.9695581,36 L29.9695581,36 L20.1898553,43.8690943 C20.1468265,43.9037167 20.0838778,43.8969021 20.0492554,43.8538734 C20.0349598,43.8361068 20.0271658,43.8139878 20.0271658,43.7911839 L20.0271658,36 L20.0271658,36 L20,36 C11.163444,36 4,28.836556 4,20 C4,11.163444 11.163444,4 20,4 Z" id="Copie" stroke="#FFFFFF" stroke-width="2" fill="#FFFFFF"></path>
                <path d="M16,0 L26,0 C34.836556,-1.623249e-15 42,7.163444 42,16 C42,24.836556 34.836556,32 26,32 L25.9695581,32 L25.9695581,32 L16.1898553,39.8690943 C16.1468265,39.9037167 16.0838778,39.8969021 16.0492554,39.8538734 C16.0349598,39.8361068 16.0271658,39.8139878 16.0271658,39.7911839 L16.0271658,32 L16.0271658,32 L16,32 C7.163444,32 1.082166e-15,24.836556 0,16 C-1.082166e-15,7.163444 7.163444,1.623249e-15 16,0 Z" id="Rectangle" stroke="#272729" stroke-width="2" fill="#FFFFFF"></path>
                <path d="M22.1572052,19.753762 C22.1572052,19.2284542 22.2045124,18.7834017 22.2991266,18.4186047 C22.3937409,18.0538076 22.5283843,17.7364341 22.7030568,17.4664843 C22.8777293,17.1965344 23.0815138,16.9521204 23.3144105,16.7332421 C23.5473071,16.5143639 23.8020378,16.2881897 24.0786026,16.0547196 C24.3114993,15.8504332 24.5443959,15.6424989 24.7772926,15.4309166 C25.0101892,15.2193342 25.2176128,14.9785682 25.3995633,14.7086183 C25.5815138,14.4386685 25.7270742,14.1176471 25.8362445,13.745554 C25.9454148,13.373461 26,12.9320565 26,12.4213406 C26,11.7209302 25.8762737,11.0934793 25.628821,10.5389877 C25.3813683,9.98449612 25.0429403,9.52120383 24.6135371,9.14911081 C24.1841339,8.77701778 23.6819505,8.49247606 23.1069869,8.29548564 C22.5320233,8.09849521 21.9097525,8 21.2401747,8 C20.4395924,8 19.7154294,8.12767898 19.0676856,8.38303694 C18.4199418,8.63839489 17.8668122,8.999544 17.4082969,9.46648427 C16.9497817,9.93342453 16.6004367,10.495212 16.360262,11.1518468 C16.1200873,11.8084815 16,12.5380757 16,13.3406293 L16,13.3406293 L18.489083,13.3406293 C18.489083,12.3483812 18.7037846,11.5567715 19.1331878,10.9658003 C19.562591,10.374829 20.2285298,10.0793434 21.1310044,10.0793434 C21.3202329,10.0793434 21.5385735,10.123119 21.7860262,10.2106703 C22.0334789,10.2982216 22.2663755,10.4368445 22.4847162,10.626539 C22.7030568,10.8162335 22.8886463,11.0679435 23.0414847,11.3816689 C23.1943231,11.6953944 23.2707424,12.0711354 23.2707424,12.5088919 C23.2707424,12.873689 23.2234352,13.1874145 23.128821,13.4500684 C23.0342067,13.7127223 22.9032023,13.9498404 22.7358079,14.1614227 C22.5684134,14.373005 22.3791849,14.5663475 22.1681223,14.7414501 C21.9570597,14.9165527 21.7350801,15.1062472 21.5021834,15.3105335 C21.2110626,15.5585955 20.9599709,15.8103055 20.7489083,16.0656635 C20.5378457,16.3210214 20.3595342,16.6165071 20.2139738,16.9521204 C20.0684134,17.2877337 19.9628821,17.6780666 19.8973799,18.123119 C19.8318777,18.5681715 19.7991266,19.1117191 19.7991266,19.753762 L19.7991266,19.753762 L22.1572052,19.753762 Z M22.1696818,24 L22.1696818,21.6548759 L19.8303182,21.6548759 L19.8303182,24 L22.1696818,24 Z" id="?" fill="#272729" fill-rule="nonzero"></path>
            </g>
        </g>
    </g>
</svg>
