<?xml version="1.0" encoding="UTF-8"?>
<svg width="80px" height="80px" viewBox="0 0 80 80" version="1.1" xmlns="http://www.w3.org/2000/svg" xmlns:xlink="http://www.w3.org/1999/xlink">
    <g id="Site" stroke="none" stroke-width="1" fill="none" fill-rule="evenodd">
        <g id="Artboard" transform="translate(-673.000000, -258.000000)" fill="#0E37DD" fill-rule="nonzero">
            <path d="M688.164,307.972 L688.164,288.372 L683.656,288.372 L677.888,291.816 L680.212,295.176 L683.432,293.3 L683.432,307.972 L688.164,307.972 Z M699.252,308.56 C704.6,308.56 706.98,304.108 706.98,298.2 C706.98,292.292 704.6,287.84 699.252,287.84 C693.932,287.84 691.524,292.292 691.524,298.2 C691.524,304.108 693.932,308.56 699.252,308.56 Z M699.28,304.192 C697.264,304.192 696.368,302.008 696.368,298.2 C696.368,294.42 697.264,292.208 699.28,292.208 C701.212,292.208 702.136,294.392 702.136,298.2 C702.136,301.98 701.212,304.192 699.28,304.192 Z M716.332,308.56 C721.68,308.56 724.06,304.108 724.06,298.2 C724.06,292.292 721.68,287.84 716.332,287.84 C711.012,287.84 708.604,292.292 708.604,298.2 C708.604,304.108 711.012,308.56 716.332,308.56 Z M716.36,304.192 C714.344,304.192 713.448,302.008 713.448,298.2 C713.448,294.42 714.344,292.208 716.36,292.208 C718.292,292.208 719.216,294.392 719.216,298.2 C719.216,301.98 718.292,304.192 716.36,304.192 Z M730.388,297.136 C733.244,297.136 735.204,295.148 735.204,292.46 C735.204,289.772 733.244,287.784 730.388,287.784 C727.504,287.784 725.544,289.772 725.544,292.46 C725.544,295.148 727.504,297.136 730.388,297.136 Z M731.396,307.972 L745.788,288.372 L741.308,288.372 L726.916,307.972 L731.396,307.972 Z M730.388,294.252 C729.464,294.252 728.764,293.608 728.764,292.46 C728.764,291.312 729.464,290.696 730.388,290.696 C731.312,290.696 732.012,291.312 732.012,292.46 C732.012,293.58 731.312,294.252 730.388,294.252 Z M742.428,308.532 C745.284,308.532 747.244,306.544 747.244,303.856 C747.244,301.168 745.284,299.18 742.428,299.18 C739.544,299.18 737.584,301.168 737.584,303.856 C737.584,306.544 739.544,308.532 742.428,308.532 Z M742.428,305.648 C741.504,305.648 740.804,305.004 740.804,303.856 C740.804,302.708 741.504,302.092 742.428,302.092 C743.352,302.092 744.052,302.708 744.052,303.856 C744.052,304.976 743.352,305.648 742.428,305.648 Z" id="100%"></path>
        </g>
    </g>
</svg>
