<?xml version="1.0" encoding="UTF-8"?>
<svg width="80px" height="80px" viewBox="0 0 80 80" version="1.1" xmlns="http://www.w3.org/2000/svg" xmlns:xlink="http://www.w3.org/1999/xlink">
    <g id="Site" stroke="none" stroke-width="1" fill="none" fill-rule="evenodd">
        <g id="Artboard" transform="translate(-553.000000, -258.000000)" fill="#3355E3" fill-rule="nonzero">
            <g id="history-solid" transform="translate(573.000000, 278.000000)">
                <path d="M39.680032,19.8024788 C39.7002376,30.7336782 30.7855982,39.6722376 19.8543988,39.6799228 C15.1331991,39.6832776 10.7965594,38.0375177 7.38863956,35.2870379 C6.50247961,34.5718379 6.43623962,33.243758 7.24151957,32.4384781 L8.14287951,31.5371181 C8.83159947,30.8483982 9.93111941,30.7730382 10.6941594,31.3783981 C13.2049592,33.370798 16.382479,34.5599979 19.8399988,34.5599979 C27.9763983,34.5599979 34.5599979,27.9751183 34.5599979,19.8399988 C34.5599979,11.7035993 27.9751183,5.11999969 19.8399988,5.11999969 C15.9348791,5.11999969 12.3880793,6.6375196 9.75455942,9.11455946 L13.8148792,13.1748792 C14.6212791,13.9812792 14.0501592,15.3599991 12.9098392,15.3599991 L1.27999992,15.3599991 C0.573039966,15.3599991 0,14.7869591 0,14.0799992 L0,2.45015985 C0,1.30983992 1.37871992,0.738719956 2.18511987,1.54503991 L6.13487963,5.49479967 C9.69671942,2.09087988 14.5241591,0 19.8399988,0 C30.7847982,0 39.6597576,8.86239947 39.680032,19.8024788 Z M25.2070385,26.1051984 L25.9928785,25.0947985 C26.6439184,24.2577586 26.4931184,23.0514386 25.6560785,22.4004787 L22.3999987,19.8679188 L22.3999987,11.5199993 C22.3999987,10.4595994 21.5403987,9.59999943 20.4799988,9.59999943 L19.1999989,9.59999943 C18.1395989,9.59999943 17.279999,10.4595994 17.279999,11.5199993 L17.279999,22.3720787 L22.5127187,26.4419984 C23.3497586,27.0929584 24.5559985,26.9422384 25.2070385,26.1051984 L25.2070385,26.1051984 Z" id="Shape"></path>
            </g>
        </g>
    </g>
</svg>
