<?xml version="1.0" encoding="UTF-8"?>
<svg width="80px" height="80px" viewBox="0 0 80 80" version="1.1" xmlns="http://www.w3.org/2000/svg" xmlns:xlink="http://www.w3.org/1999/xlink">
    <g id="Site" stroke="none" stroke-width="1" fill="none" fill-rule="evenodd">
        <g id="Artboard" transform="translate(-433.000000, -258.000000)" fill="#3355E3" fill-rule="nonzero">
            <g id="user-friends-solid" transform="translate(447.000000, 280.000000)">
                <path d="M15.3600002,17.9200003 C20.3120003,17.9200003 24.3200004,13.9120002 24.3200004,8.96000013 C24.3200004,4.00800006 20.3120003,0 15.3600002,0 C10.4080002,0 6.4000001,4.00800006 6.4000001,8.96000013 C6.4000001,13.9120002 10.4080002,17.9200003 15.3600002,17.9200003 Z M21.5040003,20.4800003 L20.8400003,20.4800003 C19.1760003,21.2800003 17.3280003,21.7600003 15.3600002,21.7600003 C13.3920002,21.7600003 11.5520002,21.2800003 9.88000015,20.4800003 L9.21600014,20.4800003 C4.12800006,20.4800003 0,24.6080004 0,29.6960004 L0,32.0000005 C0,34.1200005 1.72000003,35.8400005 3.84000006,35.8400005 L26.8800004,35.8400005 C29,35.8400005 30.7200005,34.1200005 30.7200005,32.0000005 L30.7200005,29.6960004 C30.7200005,24.6080004 26.5920004,20.4800003 21.5040003,20.4800003 Z M38.4000006,17.9200003 C42.6400006,17.9200003 46.0800007,14.4800002 46.0800007,10.2400002 C46.0800007,6.00000009 42.6400006,2.56000004 38.4000006,2.56000004 C34.1600005,2.56000004 30.7200005,6.00000009 30.7200005,10.2400002 C30.7200005,14.4800002 34.1600005,17.9200003 38.4000006,17.9200003 Z M42.2400006,20.4800003 L41.9360006,20.4800003 C40.8240006,20.8640003 39.6480006,21.1200003 38.4000006,21.1200003 C37.1520006,21.1200003 35.9760005,20.8640003 34.8640005,20.4800003 L34.5600005,20.4800003 C32.9280005,20.4800003 31.4240005,20.9520003 30.1040004,21.7120003 C32.0560005,23.8160004 33.2800005,26.6080004 33.2800005,29.6960004 L33.2800005,32.7680005 C33.2800005,32.9440005 33.2400005,33.1120005 33.2320005,33.2800005 L47.3600007,33.2800005 C49.4800007,33.2800005 51.2000008,31.5600005 51.2000008,29.4400004 C51.2000008,24.4880004 47.1920007,20.4800003 42.2400006,20.4800003 L42.2400006,20.4800003 Z" id="Shape"></path>
            </g>
        </g>
    </g>
</svg>
