<?xml version="1.0" encoding="UTF-8"?>
<svg width="80px" height="80px" viewBox="0 0 80 80" version="1.1" xmlns="http://www.w3.org/2000/svg" xmlns:xlink="http://www.w3.org/1999/xlink">
    <title>Top250</title>
    <g id="Site" stroke="none" stroke-width="1" fill="none" fill-rule="evenodd">
        <g id="Artboard" transform="translate(-313.000000, -258.000000)" fill="#3355E3" fill-rule="nonzero">
            <path d="M335.57,296 L335.57,280.908 L341.282,280.908 L341.282,276.4 L324.874,276.4 L324.874,280.908 L330.586,280.908 L330.586,296 L335.57,296 Z M352.79,296.56 C359.006,296.56 363.262,291.8 363.262,286.2 C363.262,280.6 359.006,275.84 352.79,275.84 C346.546,275.84 342.29,280.6 342.29,286.2 C342.29,291.8 346.546,296.56 352.79,296.56 Z M352.79,291.884 C349.654,291.884 347.414,289.504 347.414,286.2 C347.414,282.924 349.654,280.516 352.79,280.516 C355.898,280.516 358.138,282.896 358.138,286.2 C358.138,289.476 355.898,291.884 352.79,291.884 Z M371.998,296 L371.998,288.58 L374.014,288.58 C378.606,288.58 381.434,286.312 381.434,282.504 C381.434,278.668 378.606,276.4 374.014,276.4 L367.014,276.4 L367.014,296 L371.998,296 Z M374.294,284.352 L371.998,284.352 L371.998,280.628 L374.294,280.628 C375.554,280.628 376.282,281.328 376.282,282.448 C376.282,283.652 375.554,284.352 374.294,284.352 Z M343.116,320 L343.116,315.744 L335.052,315.744 L339.224,311.852 C340.82,310.368 342.612,308.268 342.612,305.58 C342.612,302.08 339.784,299.84 336.228,299.84 C332.532,299.84 329.956,301.716 328.248,304.516 L332.056,306.868 C333.036,305.244 334.016,304.04 335.752,304.04 C336.956,304.04 337.824,304.796 337.824,306.084 C337.824,307.344 336.928,308.38 335.976,309.276 L329.228,315.744 L329.228,320 L343.116,320 Z M352.944,320.56 C357.088,320.56 360.336,318.04 360.336,314.12 C360.336,309.808 357.62,307.54 352.356,307.54 L351.796,307.54 L351.964,304.656 L359.804,304.656 L359.804,300.4 L347.428,300.4 L346.868,311.768 L352.104,311.768 C354.316,311.768 355.52,312.524 355.52,314.064 C355.52,315.436 354.484,316.36 352.944,316.36 C351.236,316.36 350.088,315.408 349.052,313.252 L344.908,315.8 C346.56,318.796 349.108,320.56 352.944,320.56 Z M369.8,320.56 C375.148,320.56 377.528,316.108 377.528,310.2 C377.528,304.292 375.148,299.84 369.8,299.84 C364.48,299.84 362.072,304.292 362.072,310.2 C362.072,316.108 364.48,320.56 369.8,320.56 Z M369.828,316.192 C367.812,316.192 366.916,314.008 366.916,310.2 C366.916,306.42 367.812,304.208 369.828,304.208 C371.76,304.208 372.684,306.392 372.684,310.2 C372.684,313.98 371.76,316.192 369.828,316.192 Z" id="TOP250"></path>
        </g>
    </g>
</svg>